<svg xmlns="http://www.w3.org/2000/svg" viewBox="0 0 50 50"><title>about-trigger-icon-4</title><path d="M16.82227,43.56641a.40634.40634,0,0,0,.39355-.417V41.39648l2.80518.00782,12.6372,2.15625a.40642.40642,0,0,0,.17383-.01075l7.418-2.16894,6.42773-3.28027a.42336.42336,0,0,0,.22266-.375A2.81254,2.81254,0,0,0,46.04,35.71387l-.2002-.17871V16.52783a.39467.39467,0,1,0-.78808,0V35.13965H44.4502c-1.97754,0-4.58008,1.58594-5.333,2.07226l-.14844.09571H33.919l-4.28223-3.50391H35.9043a.40682.40682,0,0,0,.39453-.417V31.2168a2.55477,2.55477,0,0,0-2.51465-2.58692h-9.541a.38.38,0,0,0-.27246.11621l-4.12744,4.22266H17.21582v-.59961c0-.29785-.17627-.48535-.39355-.48535H11.91553V5.6001H24.90918v8.26074a.41919.41919,0,0,0,.17773.34033.38087.38087,0,0,0,.33692.05664l3.05957-1.04345L31.543,14.25781a.36329.36329,0,0,0,.33691-.05713.41751.41751,0,0,0,.17871-.33984V5.6001H45.05176v6.04638a.39465.39465,0,1,0,.78808,0V5.18311a.40635.40635,0,0,0-.39355-.417H11.52148a.40644.40644,0,0,0-.394.417V31.88379H5.16064a.41818.41818,0,0,0,0,.835H16.42822v10.0127H5.16064a.41818.41818,0,0,0,0,.835Zm.39355-9.7627h2.78662a.40017.40017,0,0,0,.27637-.12012l4.12353-4.21875h9.38184a1.74143,1.74143,0,0,1,1.72656,1.752v1.752H28.4834a.4078.4078,0,0,0-.36719.26855.44279.44279,0,0,0,.12207.47559L33.543,38.05566a.39243.39243,0,0,0,.24121.08692H39.085a.38511.38511,0,0,0,.21484-.06738c.0293-.02051,3.10352-2.10157,5.08594-2.10157a1.591,1.591,0,0,1,1.5586.94043l.22851.51856-6.22168,3.1709-7.249,2.11914-.13574-.02246L20.06494,40.56836l-2.84912-.00586ZM25.69727,5.6001h5.57226v7.689l-2.665-.90967a.38075.38075,0,0,0-.24219,0l-2.665.90967Z" style="fill:#5c7762;opacity:0.8"/></svg>