<svg xmlns="http://www.w3.org/2000/svg" viewBox="0 0 51 50"><title>about-trigger-icon-1</title><g style="opacity:0.8"><path d="M40.36719,43.32H40.367a.48775.48775,0,0,0-.47161.49988V46.597H36.56l.00592-.15h0l-.00592.1499a.49174.49174,0,1,0,0,.98328l.00592-.00018v.00006h3.8128a.48647.48647,0,0,0,.47827-.49286V43.8186A.48652.48652,0,0,0,40.36719,43.32Z" style="fill:#5c7762"/><path d="M32.53491,3.63141H39.899V19.95178H39.8988a.48068.48068,0,1,0,.95923-.0014l-.0003-.00568h.00018V3.14581A.49084.49084,0,0,0,40.3783,2.65h-7.844a.4907.4907,0,1,0,.00061.98139Z" style="fill:#5c7762"/><path d="M8.96173,47.58112H23.3761l-.00165.03454.00165-.03436a.49177.49177,0,1,0-.00122-.9834l-.00586.00018V46.598H9.44287V38.81219a.47974.47974,0,0,0-.95947,0v8.2771A.48478.48478,0,0,0,8.96173,47.58112Z" style="fill:#5c7762"/><path d="M27.91052,27.57111l1.12049-.16285,4.27569-1.65618h.00018a10.27532,10.27532,0,0,1,2.74555-.47608,9.24,9.24,0,0,0,3.38916-.7113l.112-.05719.07593.1004,6.35937,8.41327.0733.097-.07971.09179A7.84866,7.84866,0,0,1,44.278,34.68518v-.00006a.4715.4715,0,0,0-.22791.32471.52632.52632,0,0,0,.07758.35644.50585.50585,0,0,0,.28.22321.45179.45179,0,0,0,.38208-.06946l.00013-.00012A8.7756,8.7756,0,0,0,46.992,33.51129l.01178-.01507.01514-.0116,1.15436-.88745h0a3.0569,3.0569,0,0,0,1.51825-2.7865,5.91664,5.91664,0,0,0-1.34174-2.70007h0l-2.49988-3.32789-.00012-.00024A5.43015,5.43015,0,0,0,43.46,21.69891a3.037,3.037,0,0,0-2.8612.80658l-.00013.00013-1.24121.9577-.0075.0058-.00831.00476a8.19658,8.19658,0,0,1-3.539.84393,10.30709,10.30709,0,0,0-2.83508.51086h0L28.7749,26.44458l-.01568.006-.01654.00238c-.15546.02277-.3014.0423-.43848.06061a6.67956,6.67956,0,0,0-1.05548.19421l-.00043.00007a1.566,1.566,0,0,0-.97351.89453l-.00018.00067a2.15282,2.15282,0,0,0,.89532,2.41211h0a4.16714,4.16714,0,0,0,3.56281.59479h.00018l2.10938-.493a1.7772,1.7772,0,0,1,1.39892.33149l.007.00433.00647.00519,8.05768,6.38757.0003.00025a1.2406,1.2406,0,0,1,.39887,1.24517h.00006l-.00012.00031v.00036h-.00006a1.76567,1.76567,0,0,1-.94574,1.22461l-.00037.00013a1.20763,1.20763,0,0,1-1.29425-.09528l-.00006.00006L40.4707,39.221l-.00042-.00025.00006-.00006L37.08868,36.535a.46688.46688,0,0,0-.37866-.11059.52724.52724,0,0,0-.41821.53241.49225.49225,0,0,0,.20459.35473l2.34167,1.86036.00074.00054a1.24684,1.24684,0,0,1,.40045,1.24476h.00012l-.00018.00054v.00007h0a1.64806,1.64806,0,0,1-.95807,1.22979l-.001.00043a1.60834,1.60834,0,0,1-.7489.10327,1.2775,1.2775,0,0,1-.64539-.281l-.00012-.00007L34.652,39.6875h0a.4521.4521,0,0,0-.37268-.10742.50641.50641,0,0,0-.30121.19293.52064.52064,0,0,0-.11292.345.47332.47332,0,0,0,.19556.346l.00024.00018,1.61451,1.28534.00122.001-.00006.00006a1.23719,1.23719,0,0,1,.39434,1.23456h0l-.00006.00079-.00018-.00006A1.76819,1.76819,0,0,1,35.125,44.2132l-.00018.00012a1.19279,1.19279,0,0,1-1.27124-.08319l-.00006.00006-.00043-.00031-.00006-.00006h0l-1.31232-1.03711a.46125.46125,0,0,0-.37592-.10864.5052.5052,0,0,0-.30218.1911.51376.51376,0,0,0-.11249.34375.48282.48282,0,0,0,.19831.35034l.92626.736h0l.00013.00012h0a.65421.65421,0,0,1,.24859.34479.81254.81254,0,0,1-.00671.363h.00012l-.00018.00055-.00006.00049h-.00006a1.52644,1.52644,0,0,1-.81586,1.059l.00006.00012-.00055.00018-.00037.00025-.00006-.00012a.987.987,0,0,1-1.06952-.06092l-.0003-.0003-1.03284-.81946-.1062-.08435.07324-.11408a2.0413,2.0413,0,0,0,.1709-1.82818l-.00024-.00061a2.44671,2.44671,0,0,0-1.67359-1.5528l-.13031-.04181.02973-.1336a2.42328,2.42328,0,0,0-.07849-1.32379v-.00013a2.68464,2.68464,0,0,0-1.7472-1.68634,2.34021,2.34021,0,0,0-.81854-.09124l-.16058.01.00122-.16089a2.44241,2.44241,0,0,0-.13605-.82483V37.6601A2.68857,2.68857,0,0,0,23.87274,35.971a2.38885,2.38885,0,0,0-.821-.09137l-.161.00982.00189-.16119a2.4394,2.4394,0,0,0-.13379-.82361h0a2.68755,2.68755,0,0,0-1.74786-1.68609v-.00007a2.20171,2.20171,0,0,0-2.0672.39734l-.12433.1059-.095-.13275a4.08281,4.08281,0,0,0-.38544-.46655l-.08991-.09327.07923-.10254,6.40607-8.29278.0559-.07239.08991.0166a5.27558,5.27558,0,0,0,1.065.0279c.46008-.02131,1.00092-.07,1.56769-.1341,1.13354-.12811,2.3645-.317,3.24945-.46808h.00037a.49969.49969,0,0,0,.397-.57354.50837.50837,0,0,0-.13831-.31995.354.354,0,0,0-.3222-.08752l-.002.00036c-.34314.05176-.67681.10468-1.00445.15668l-.00006.00006-.00531.00079h0a24.20245,24.20245,0,0,1-4.52185.431l-.05036-.00128-.03936-.03131-1.29664-1.03229a3.13963,3.13963,0,0,0-2.89324-.84387v.00006a5.3233,5.3233,0,0,0-2.37525,2.04755h0l-2.54327,3.29-.00012.00012a5.38366,5.38366,0,0,0-1.395,2.83227,3.20406,3.20406,0,0,0,1.46057,2.62177l.01068.0086-.00049.00055h0a.22375.22375,0,0,0,.02411.02027l.0061.00433h0l-.00012.00018,1.29,1.02668.00085.00073a2.81631,2.81631,0,0,1,.71314.80279l.05511.0962-.0758.08093-.6684.71319h0a2.2773,2.2773,0,0,0-.42889,2.3039h.00006a2.66963,2.66963,0,0,0,1.74811,1.6828,2.40239,2.40239,0,0,0,.81891.09405l.15948-.00848-.00159.15973a2.41046,2.41046,0,0,0,.13691.82666l.00036.00091a2.68371,2.68371,0,0,0,1.75,1.68384,2.38986,2.38986,0,0,0,.81952.09149l.16058-.0094-.00177.16077a2.4798,2.4798,0,0,0,.13282.82733,2.68553,2.68553,0,0,0,1.748,1.68628l.00092.00031a2.35648,2.35648,0,0,0,.93835.0888l.13135-.0141.03058.12836a2.45111,2.45111,0,0,0,1.67432,1.85956v-.00006a2.10335,2.10335,0,0,0,1.20379.03015,2.07647,2.07647,0,0,0,.91657-.61255l.09393-.10138.1087.08539,1.18573.9314.00006-.00007a1.96327,1.96327,0,0,0,1.99769.11884v-.00006a2.51655,2.51655,0,0,0,1.36053-1.836l.02789-.1322.1344.0141a2.61113,2.61113,0,0,0,2.82068-2.455l.00824-.16565.16394.02478a2.55125,2.55125,0,0,0,2.97644-2.28931l.02246-.19128.18006.06866a2.26448,2.26448,0,0,0,1.76086-.08782v-.00007A2.6861,2.6861,0,0,0,43.6524,38.285l.00019-.00055a2.25,2.25,0,0,0-.75-2.21234V36.072l-3.72937-2.96295-.31079-.24677.39636-.02038a15.69414,15.69414,0,0,0,1.75378-.22363c.346-.0575.68293-.11359.99732-.14978l.01031-.0011v.0003a.45585.45585,0,0,0,.36548-.17608.55393.55393,0,0,0-.0719-.70374.45059.45059,0,0,0-.392-.09528l-.00891.00147-.00006-.00031c-.47107.05-.91052.12085-1.32586.18781l-.00208.00043.00208-.00043h0l-.0022.0003c-.4715.076-.9151.14765-1.32849.17475v-.00012a3.53494,3.53494,0,0,1-2.21381-.46662l-.00018-.00018a11.761,11.761,0,0,1-1.05518-.8241,11.12663,11.12663,0,0,0-1.242-.95074,2.77456,2.77456,0,0,0-2.1167-.4527l-.00061.00012-2.1117.49243v-.00006a3.13964,3.13964,0,0,1-2.76208-.42138L27.7536,29.233a1.31527,1.31527,0,0,1-.60968-1.00024c.02539-.34894.33118-.56653.756-.65973l.0105-.00232m-10.32019,4.7215-.09283.12-.119-.09418-.715-.56591a3.74892,3.74892,0,0,1-.9212-.96119,1.42991,1.42991,0,0,1-.21143-.8576h-.00018l.00018-.00073-.00006-.00043h.00012a2.521,2.521,0,0,1,.32837-.99255,9.25959,9.25959,0,0,1,.85968-1.28846l2.54334-3.29242h.00012a8.28252,8.28252,0,0,1,1.0542-1.171,2.16063,2.16063,0,0,1,1.01788-.54791v.00012a2.19947,2.19947,0,0,1,1.85462.68152l.71167.56311.11621.0921-.09058.11725ZM20.24713,38.003l-.00043.00037-.00042.00042-.00006-.00006a1.2141,1.2141,0,0,1-1.26862.28839l-.00061-.00024a1.74679,1.74679,0,0,1-1.11084-1.072L17.866,37.22l-.00012-.00055-.00013-.00024h.00006A1.23749,1.23749,0,0,1,18.083,35.9303h0l.00012-.00019.00006-.00006.00012-.00018h.00006l.00025-.00024.002-.00214.00781-.00836.03-.03211.1106-.11834c.0935-.1001.2229-.23871.36688-.3927.28778-.308.63342-.6778.86524-.92548h0l.00006-.00006.00024-.00024.00006.00006a1.05936,1.05936,0,0,1,.622-.34754,1.50613,1.50613,0,0,1,.64221.06067l.00006-.00012.00074.0003.00122.00025-.00006.00024a1.58888,1.58888,0,0,1,1.12255,1.06732l.00031.00074a1.25215,1.25215,0,0,1-.21753,1.29156h0l-1.39093,1.47925Zm2.86615,2.75732-.001.0011a1.23121,1.23121,0,0,1-1.271.28827L21.84,41.04932a1.765,1.765,0,0,1-1.11341-1.07593l-.00024-.00049a1.24463,1.24463,0,0,1,.21735-1.2865l.00006.00006L22.32935,37.207l-.00007-.00006.00031-.00024.00018-.00019h0a1.0073,1.0073,0,0,1,.62336-.33478,2.0877,2.0877,0,0,1,.62847.04157l-.00006.00018A1.60623,1.60623,0,0,1,24.713,37.9906l.00031.00079a1.25134,1.25134,0,0,1-.21619,1.2884l-.00055.00048ZM25.964,43.52222l-.00171.00171a1.21492,1.21492,0,0,1-1.257.27789A1.7565,1.7565,0,0,1,23.58826,42.729H23.5882l-.00007-.00018-.00024-.00055.00012-.00006a1.23628,1.23628,0,0,1,.218-1.28644l-.00006-.00006.00024-.0003.00012-.00013h0l1.38825-1.48156h0l.00006-.00006.00024-.00025.00007.00006a1.00217,1.00217,0,0,1,.6228-.33215,2.11288,2.11288,0,0,1,.6286.04169A1.60914,1.60914,0,0,1,27.578,40.74347l.00019.00073A1.25079,1.25079,0,0,1,27.389,41.993l-.0044.00513-.00012-.00006Zm3.31329,1.34558-.00305.00348h0l-.71393.77765-.00268.003-.00012-.00013a1.043,1.043,0,0,1-1.0766.23725v.00006l-.00025-.00012h-.00006a1.49463,1.49463,0,0,1-.95178-.91h0v-.00012l-.00012-.00018h.00006a1.06425,1.06425,0,0,1,.18786-1.104l.68781-.73968.00037-.00043a.8901.8901,0,0,1,.5371-.292,1.49861,1.49861,0,0,1,.5412.04449v.00007a1.2603,1.2603,0,0,1,.58161.33514,1.50713,1.50713,0,0,1,.37378.5777l.00012-.00006.00012.00067.00018.0003h-.00006A1.06218,1.06218,0,0,1,29.27728,44.8678Zm11.1529-20.8136-.08948-.11841L40.458,23.845l.71728-.55456a3.07853,3.07853,0,0,1,1.27649-.64148,1.63469,1.63469,0,0,1,1.052.1405,2.93071,2.93071,0,0,1,.84259.66876c.2558.2771.49933.59973.74213.92169l.00018.00031h-.00006l2.49671,3.32568-.00006.00006a9.107,9.107,0,0,1,.84326,1.3,2.57746,2.57746,0,0,1,.3183.99878l.00006.001a1.43885,1.43885,0,0,1-.22351.8529,3.766,3.766,0,0,1-.93177.94989l-.00018.00025-.7.53936-.11994.09241-.0913-.12067Z" style="fill:#5c7762"/><path d="M8.59961,13.56378h0a.4982.4982,0,0,0-.11621.32392l.00006.00268H8.4834V34.642a.47974.47974,0,0,0,.95947,0V14.38h9.80884a.48581.48581,0,0,0,.48059-.48962V6.53711a.48592.48592,0,0,0-.48657-.4975l-.00043.00006a.485.485,0,0,0-.47131.4972v6.86065H10.01978l.21124-.24743L18.31207,3.684l.04492-.05255H28.4469a.4907.4907,0,1,0,0-.98139H18.13947a.47736.47736,0,0,0-.35676.1684l-.0003.00031Z" style="fill:#5c7762"/></g></svg>