<svg xmlns="http://www.w3.org/2000/svg" viewBox="0 0 52 50"><title>about-trigger-icon-2</title><g style="opacity:0.8"><path d="M23.15771,37.584a2.81307,2.81307,0,0,0,1.08692,2.00977,3.4719,3.4719,0,0,0,2.72119.48828,2.97039,2.97039,0,0,0,1.92871-2.04394,2.76331,2.76331,0,0,0-1.51855-3.2793,3.659,3.659,0,0,0-1.42627-.2627,3.03535,3.03535,0,0,0-1.103.17871A3.03482,3.03482,0,0,0,23.15771,37.584Zm3.32862-2.19726a1.97235,1.97235,0,0,1,1.39648,1.22851,1.846,1.846,0,0,1-.73437,2.36036,1.94312,1.94312,0,0,1-2.54248-.40918,1.6753,1.6753,0,0,1,.08789-2.56153A2.01134,2.01134,0,0,1,26.48633,35.38672Z" style="fill:#5c7762"/><path d="M10.7085,39.45508a3.12846,3.12846,0,0,0,2.4414.66113,2.84252,2.84252,0,0,0,2.03565-1.13183,2.2084,2.2084,0,0,0,.40527-1.66993,2.208,2.208,0,0,0-.37939-1.63183,2.9771,2.9771,0,0,0-1.02247-.88477A3.258,3.258,0,0,0,12.77832,34.5a3.24811,3.24811,0,0,0-2.07959.67676,2.823,2.823,0,0,0-.7876,2.10547A2.94176,2.94176,0,0,0,10.7085,39.45508Zm.67089-3.53028a1.84836,1.84836,0,0,1,1.36084-.57031,2.00928,2.00928,0,0,1,1.41211.63672A1.94235,1.94235,0,1,1,10.93555,38.042,1.90922,1.90922,0,0,1,11.37939,35.9248Z" style="fill:#5c7762"/><path d="M36.56055,36.84766A2.76594,2.76594,0,0,0,37.044,39.127a3.19528,3.19528,0,0,0,2.82714.98633,2.58754,2.58754,0,0,0,2.0586-1.32812,3.25252,3.25252,0,0,0,.14844-2.52442,2.73235,2.73235,0,0,0-1.46485-1.5791,2.90269,2.90269,0,0,0-1.10547-.18066,3.84873,3.84873,0,0,0-1.4707.26367A2.4189,2.4189,0,0,0,36.56055,36.84766Zm4.2705-.78516a1.95431,1.95431,0,0,1-1.43261,3.20508,1.95252,1.95252,0,0,1-1.37989-3.34278,1.88325,1.88325,0,0,1,1.419-.57714A1.95332,1.95332,0,0,1,40.83105,36.0625Z" style="fill:#5c7762"/><path d="M27.02148,26.44727a50.84048,50.84048,0,0,0-6.15869.1455c.00049.00684-.00634.209-.00634.29493,0,.0664.00488.28613.06933.32031l.00293-.001c.05274,0,.86865.1211,6.0625.1211a41.115,41.115,0,0,0,5.9502-.15918.35514.35514,0,0,0,.13379-.249.459.459,0,0,0-.14161-.32129h-.001l-.00684-.00683h0A42.80036,42.80036,0,0,0,27.02148,26.44727Z" style="fill:#5c7762"/><path d="M32.92578,23.51465a42.955,42.955,0,0,0-5.9043-.144,50.93536,50.93536,0,0,0-6.15771.1455c-.00244.00782-.00732.228-.00732.29493s.00488.28662.06982.32128l.00342-.001c.05517,0,.88037.11963,6.06152.11963a41.143,41.143,0,0,0,5.95117-.15918.36118.36118,0,0,0,.13282-.249.46025.46025,0,0,0-.14161-.32031h-.001l-.00684-.00781Z" style="fill:#5c7762"/><path d="M30.24219,20.4292c-.34864-.05029-1.63379-.127-4.64942-.12988-.28125-.00049-.56006-.00049-.83349-.00049a19.69118,19.69118,0,0,0-3.75244.15234.54371.54371,0,0,0-.14112.44531.252.252,0,0,0,.06006.1587A77.01551,77.01551,0,0,0,30.27637,21.04,1.14157,1.14157,0,0,0,30.24219,20.4292Z" style="fill:#5c7762"/><path d="M6.94727,32.11719c-2.20508.17383-3.51465.792-4.51758,2.13086A4.65136,4.65136,0,0,0,1.5,37.334a4.742,4.742,0,0,0,2.80957,4.60645l1.06348.51465L22.33594,42.5l24.291-.04492,1.06348-.51465A4.74377,4.74377,0,0,0,50.5,37.334a4.65136,4.65136,0,0,0-.92969-3.08593c-1.00488-1.3418-2.31738-1.959-4.52929-2.13184l-1.93848-.15039-.04688-11.90137c-.03222-8.19384-.05859-11.09277-.22461-11.4497C42.53711,8.50781,39.64258,8.5,30.542,8.5s-11.99511.00781-12.34375.17236c-.11133.29932-.13769,3.19825-.16992,11.39209L17.98145,32l-8.65625.04687Zm12.126-22.64942L30.501,9.42139C41.77637,9.376,41.7832,9.396,41.9834,9.91016c.0293.07763.11914.30761.07226,10.99707l-.04687,11.0957H19.07324Zm4.03711,23.502c19.89942,0,22.99414.0957,23.375.19922a5.15555,5.15555,0,0,1,2.72559,2.3496,3.41988,3.41988,0,0,1,.34375,2.06543A4.00386,4.00386,0,0,1,47.18457,41.165l-1.01172.49512H5.82715L4.81543,41.165A4.00043,4.00043,0,0,1,2.44629,37.585a3.424,3.424,0,0,1,.3418-2.06641A5.16256,5.16256,0,0,1,5.51367,33.169l.127-.01758Z" style="fill:#5c7762"/><path d="M23.39689,17.75883l.80957-.00293.78418.00244c1.251.00732,2.0791.01123,2.31055-.21973.22949-.22949.22558-1.0498.21875-2.2915l-.00293-.78076a12.6623,12.6623,0,0,0-.15527-3.07959l-.001-.001c-.126-.13672-1.0918-.15088-3.2666-.15088-.72559,0-2.53516,0-3.11426.09229a29.98892,29.98892,0,0,0-.14746,3.07275l-.01465.7959c-.02539,1.26465-.042,2.09961.19043,2.33545C21.24455,17.77006,22.09709,17.76322,23.39689,17.75883Zm-1.53808-5.54444,2.27441-.0625c1.48145-.04052,2.14746-.03613,2.35742.50147a9.51852,9.51852,0,0,1,.0752,2.0415l-.06641,2.09522H21.85881Z" style="fill:#5c7762"/></g></svg>