<svg width="185" height="30" viewBox="0 0 185 30" fill="none" xmlns="http://www.w3.org/2000/svg">
<g clip-path="url(#clip0_201_378)">
<path d="M52.7024 9.29484C51.8639 8.46613 50.7325 8.00137 49.5535 8.00137C48.3746 8.00137 47.2432 8.46613 46.4046 9.29484L45.9309 9.75759L45.4654 9.29484C44.6269 8.46613 43.4955 8.00137 42.3166 8.00137C41.1376 8.00137 40.0062 8.46613 39.1677 9.29484C38.3336 10.1306 37.8652 11.263 37.8652 12.4437C37.8652 13.6244 38.3336 14.7569 39.1677 15.5926L45.6407 22.0821C45.718 22.1583 45.8223 22.2011 45.9309 22.2011C46.0396 22.2011 46.1438 22.1583 46.2212 22.0821L52.7024 15.6008C53.5336 14.7619 53.9999 13.6288 53.9999 12.4478C53.9999 11.2669 53.5336 10.1337 52.7024 9.29484V9.29484ZM52.1219 15.0203L45.9309 21.2086L39.7399 15.0203C39.4011 14.683 39.1325 14.2818 38.9497 13.84C38.7668 13.3983 38.6734 12.9246 38.6748 12.4465C38.6798 11.4831 39.0649 10.5608 39.7464 9.87984C40.4278 9.19891 41.3505 8.81451 42.3138 8.81019C42.7916 8.80841 43.265 8.90167 43.7064 9.08453C44.1478 9.26739 44.5484 9.5362 44.885 9.87533L45.6407 10.6283C45.6786 10.6667 45.7238 10.6972 45.7737 10.7181C45.8235 10.7389 45.8769 10.7496 45.9309 10.7496C45.9849 10.7496 46.0384 10.7389 46.0882 10.7181C46.138 10.6972 46.1832 10.6667 46.2212 10.6283L46.9769 9.87533C47.6644 9.21858 48.5815 8.85695 49.5322 8.8678C50.4829 8.87865 51.3916 9.26113 52.0638 9.93341C52.7361 10.6057 53.1186 11.5144 53.1294 12.465C53.1403 13.4157 52.7787 14.3329 52.1219 15.0203Z" fill="#786453"/>
<path fill-rule="evenodd" clip-rule="evenodd" d="M77 15.8348C73.0427 15.8348 69.8348 19.0428 69.8348 23H68.8608C68.8608 18.5049 72.5049 14.8609 77 14.8609C81.4951 14.8609 85.1391 18.5049 85.1391 23H84.1652C84.1652 19.0428 80.9572 15.8348 77 15.8348Z" fill="#786453"/>
<path fill-rule="evenodd" clip-rule="evenodd" d="M77 12.9826C78.3831 12.9826 79.5044 11.8614 79.5044 10.4783C79.5044 9.09515 78.3831 7.97392 77 7.97392C75.6169 7.97392 74.4956 9.09515 74.4956 10.4783C74.4956 11.8614 75.6169 12.9826 77 12.9826ZM77 13.9565C78.921 13.9565 80.4783 12.3993 80.4783 10.4783C80.4783 8.55727 78.921 7 77 7C75.079 7 73.5217 8.55727 73.5217 10.4783C73.5217 12.3993 75.079 13.9565 77 13.9565Z" fill="#786453"/>
<path d="M112.178 11.0925C112.178 9.98431 111.737 8.9216 110.954 8.13815C110.17 7.35469 109.107 6.91466 107.999 6.91486C106.891 6.91505 105.828 7.35545 105.045 8.13918C104.261 8.92292 103.821 9.98577 103.821 11.0939L103.823 11.8648L104.609 11.8422L104.607 11.0925C104.607 10.1927 104.964 9.32977 105.601 8.69353C106.237 8.05728 107.1 7.69985 108 7.69985C108.899 7.69985 109.762 8.05728 110.399 8.69353C111.035 9.32977 111.392 10.1927 111.392 11.0925V11.8422L112.178 11.8641V11.0925Z" fill="#786453"/>
<path fill-rule="evenodd" clip-rule="evenodd" d="M103.825 11.6357C103.046 11.7359 102.33 12.1159 101.81 12.7048C101.291 13.2937 101.003 14.0514 101 14.8369V20.9398C101.001 21.7998 101.343 22.6244 101.951 23.2325C102.559 23.8406 103.384 24.1827 104.244 24.1836H111.755C112.615 24.1828 113.44 23.8408 114.048 23.2327C114.656 22.6245 114.998 21.7999 115 20.9398V14.8369C114.997 14.0521 114.709 13.295 114.19 12.7062C113.671 12.1175 112.956 11.7371 112.178 11.6357L111.392 11.592H104.611L103.825 11.6357ZM114.214 20.9398V14.8369C114.213 14.185 113.954 13.56 113.493 13.099C113.032 12.6381 112.407 12.3788 111.755 12.3781H104.244C103.592 12.3789 102.967 12.6383 102.506 13.0992C102.045 13.5602 101.786 14.1851 101.785 14.8369V20.9398C101.786 21.5917 102.045 22.2166 102.506 22.6776C102.967 23.1385 103.592 23.3978 104.244 23.3986H111.755C112.407 23.398 113.032 23.1387 113.493 22.6777C113.954 22.2168 114.213 21.5917 114.214 20.9398Z" fill="#786453"/>
<path d="M109.287 17.8806C109.527 17.6869 109.722 17.4421 109.856 17.164C109.989 16.8858 110.06 16.5814 110.061 16.2727C110.061 15.7711 109.879 15.2867 109.548 14.9101C109.216 14.5335 108.759 14.2905 108.262 14.2265C107.764 14.1626 107.26 14.2821 106.845 14.5627C106.429 14.8433 106.13 15.2657 106.003 15.751C105.905 16.1368 105.92 16.5425 106.046 16.9201C106.171 17.2977 106.403 17.6313 106.712 17.8813L106.141 20.2578C106.113 20.3783 106.111 20.5037 106.138 20.6246C106.164 20.7456 106.218 20.859 106.295 20.9562C106.372 21.0535 106.469 21.1321 106.581 21.1861C106.692 21.2401 106.814 21.2682 106.938 21.2682H109.062C109.186 21.2682 109.308 21.2402 109.419 21.1861C109.531 21.1321 109.628 21.0535 109.705 20.9563C109.782 20.859 109.836 20.7457 109.862 20.6247C109.889 20.5037 109.888 20.3783 109.859 20.2578L109.287 17.8806ZM108.634 17.4041C108.563 17.4469 108.508 17.5113 108.477 17.5878C108.445 17.6643 108.439 17.7489 108.459 17.8291L109.088 20.4511L109.043 20.509H106.956L106.91 20.4511L107.54 17.8291C107.561 17.7507 107.557 17.6673 107.527 17.5916C107.497 17.5158 107.444 17.4518 107.375 17.4091C107.123 17.2674 106.926 17.0444 106.817 16.7766C106.708 16.5087 106.693 16.2118 106.774 15.9342C106.84 15.7072 106.969 15.5032 107.146 15.3456C107.322 15.188 107.539 15.083 107.772 15.0426C107.848 15.0293 107.925 15.0224 108.003 15.0222C108.295 15.0217 108.578 15.1225 108.803 15.3074C108.964 15.4378 109.091 15.6055 109.173 15.7959C109.254 15.9864 109.288 16.1938 109.272 16.4003C109.255 16.6068 109.188 16.8062 109.077 16.9811C108.966 17.156 108.814 17.3012 108.634 17.4041H108.634Z" fill="#786453"/>
<path fill-rule="evenodd" clip-rule="evenodd" d="M139.233 18.6762C138.854 18.6762 138.541 18.9941 138.541 19.3803C138.541 19.7582 138.846 20.0844 139.233 20.0844C139.624 20.0844 139.937 19.7546 139.937 19.3803C139.937 18.9977 139.616 18.6762 139.233 18.6762Z" fill="#786453"/>
<path fill-rule="evenodd" clip-rule="evenodd" d="M140.457 15.5155C140.614 15.3933 140.929 15.1422 141.205 14.791C141.481 14.439 141.704 14.0034 141.704 13.5104C141.704 12.554 140.838 11.7628 139.388 11.7628C137.863 11.7628 137.26 12.6534 137.26 13.1428C137.26 13.3078 137.327 13.4181 137.418 13.4915C137.515 13.5695 137.645 13.6097 137.763 13.6097C137.861 13.6097 137.913 13.5794 137.963 13.5292C137.992 13.4994 138.021 13.4612 138.057 13.4104C138.067 13.3949 138.08 13.3767 138.093 13.3571C138.118 13.3198 138.147 13.2774 138.175 13.2392C138.267 13.1128 138.389 12.9715 138.583 12.8651C138.776 12.7589 139.023 12.6966 139.352 12.6966C139.675 12.6966 139.988 12.7671 140.227 12.9324C140.475 13.1038 140.628 13.3689 140.628 13.712C140.628 14.1122 140.418 14.4146 140.186 14.6459C140.069 14.7619 139.941 14.8652 139.822 14.9576C139.787 14.9845 139.754 15.0102 139.722 15.0349C139.64 15.0975 139.566 15.1542 139.5 15.2108C139.337 15.3511 139.16 15.5274 139.021 15.7818C138.883 16.0353 138.778 16.3771 138.778 16.8544C138.778 17.1586 138.823 17.2886 138.873 17.3483C138.913 17.3962 138.994 17.4399 139.222 17.4399C139.485 17.4399 139.6 17.3802 139.648 17.336C139.693 17.2955 139.712 17.2397 139.712 17.1628C139.712 16.8609 139.713 16.5799 139.812 16.3094C139.915 16.0306 140.113 15.7846 140.457 15.5155Z" fill="#786453"/>
<path fill-rule="evenodd" clip-rule="evenodd" d="M131 15.5C131 10.8016 134.802 7 139.5 7C144.198 7 148 10.8022 148 15.5C148 20.1984 144.198 24 139.5 24H131.471C131.211 24 131 23.789 131 23.5287V15.5ZM131.943 15.5C131.943 11.3234 135.323 7.94275 139.5 7.94275C143.677 7.94275 147.057 11.3229 147.057 15.5C147.057 19.6766 143.677 23.0573 139.5 23.0573H131.943V15.5Z" fill="#786453"/>
<path d="M173.356 23C173.77 23 174.166 22.8357 174.459 22.5433C174.751 22.2508 174.916 21.8542 174.916 21.4406V18.2823C174.916 18.1444 174.861 18.0122 174.763 17.9147C174.666 17.8173 174.534 17.7625 174.396 17.7625C174.258 17.7625 174.126 17.8173 174.028 17.9147C173.931 18.0122 173.876 18.1444 173.876 18.2823V21.4406C173.876 21.5785 173.821 21.7107 173.724 21.8082C173.626 21.9057 173.494 21.9604 173.356 21.9604H163.559C163.422 21.9604 163.289 21.9057 163.192 21.8082C163.094 21.7107 163.04 21.5785 163.04 21.4406V8.96563C163.04 8.82777 163.094 8.69556 163.192 8.59808C163.289 8.5006 163.422 8.44583 163.559 8.44583H173.356C173.494 8.44583 173.626 8.5006 173.724 8.59808C173.821 8.69556 173.876 8.82777 173.876 8.96563V12.124C173.876 12.2618 173.931 12.394 174.028 12.4915C174.126 12.589 174.258 12.6438 174.396 12.6438C174.534 12.6438 174.666 12.589 174.763 12.4915C174.861 12.394 174.916 12.2618 174.916 12.124V8.96563C174.916 8.55205 174.751 8.15542 174.459 7.86298C174.166 7.57054 173.77 7.40625 173.356 7.40625H163.559C163.146 7.40625 162.749 7.57054 162.457 7.86298C162.164 8.15542 162 8.55205 162 8.96563V21.4406C162 21.8542 162.164 22.2508 162.457 22.5433C162.749 22.8357 163.146 23 163.559 23H173.356Z" fill="#786453"/>
<path d="M169.72 14.6833H177.821L177.149 14.0112C176.684 13.5434 177.403 12.7954 177.884 13.2762L179.448 14.8392C179.538 14.9334 179.59 15.0575 179.594 15.1878C179.597 15.318 179.553 15.4449 179.468 15.5441C179.459 15.5539 179.45 15.5633 179.441 15.5727L177.884 17.132C177.416 17.5998 176.67 16.8763 177.149 16.397L177.821 15.7229H169.72C169.582 15.7229 169.45 15.6681 169.352 15.5706C169.255 15.4732 169.2 15.3409 169.2 15.2031C169.2 15.0652 169.255 14.933 169.352 14.8355C169.45 14.7381 169.582 14.6833 169.72 14.6833Z" fill="#786453"/>
<path d="M21.4956 11.7517C21.481 11.6437 21.4282 11.5451 21.3474 11.4747C21.2674 11.4047 21.1659 11.3663 21.0609 11.3664H18.8688V10.5921C18.8691 10.1446 18.7818 9.70161 18.6122 9.28963C18.4426 8.87766 18.1942 8.50516 17.8818 8.19441C17.2426 7.5578 16.3886 7.20197 15.4998 7.20197C14.611 7.20197 13.7569 7.5578 13.1177 8.19441C12.8053 8.50516 12.5569 8.87766 12.3874 9.28964C12.2179 9.70162 12.1307 10.1446 12.1311 10.5921V11.3664H9.93539C9.83032 11.3662 9.72863 11.4046 9.64854 11.4747C9.5676 11.5449 9.51488 11.6436 9.50067 11.7517L7.30452 23.1729C7.29659 23.2379 7.30268 23.3038 7.32234 23.3661C7.34184 23.4287 7.37513 23.4858 7.41961 23.5329C7.60312 23.7319 7.79126 23.9178 7.97833 24.0867C8.05962 24.1609 8.16443 24.202 8.27302 24.2021L22.7407 24.202C22.8492 24.2021 22.954 24.1611 23.035 24.0866L23.0628 24.0609C23.2503 23.8962 23.4279 23.7199 23.5944 23.5327C23.6384 23.4853 23.6715 23.4283 23.6914 23.366C23.7113 23.3038 23.7174 23.2378 23.7092 23.1728L21.4956 11.7517ZM13.0112 11.3583L13.0226 10.5848C13.0224 10.2544 13.0869 9.92666 13.2121 9.62254C13.3373 9.31843 13.5207 9.04345 13.7513 8.81404C14.2237 8.34353 14.855 8.08054 15.5119 8.08054C16.1688 8.08054 16.8 8.34353 17.2725 8.81404C17.5017 9.04458 17.6842 9.31976 17.8093 9.62362C17.9345 9.92747 17.9998 10.2539 18.0015 10.584V11.3583L13.0112 11.3583ZM22.807 23.0788L22.5611 23.3153L8.44512 23.3154L8.20284 23.0789L10.3231 12.253H20.6725L22.807 23.0788Z" fill="#786453"/>
</g>
<defs>
<clipPath id="clip0_201_378">
<rect width="185" height="30" fill="white"/>
</clipPath>
</defs>
</svg>
