<svg width="14" height="10" viewBox="0 0 14 10" fill="none" xmlns="http://www.w3.org/2000/svg">
<path fill-rule="evenodd" clip-rule="evenodd" d="M11.8775 0.78973C12.027 0.633034 12.1989 0.554688 12.3933 0.554688C12.5876 0.554688 12.7596 0.633034 12.9091 0.78973C13.0436 0.930757 13.1109 1.10704 13.1109 1.31858C13.1109 1.53012 13.0436 1.7064 12.9091 1.84742L5.75513 9.39229C5.74018 9.40796 5.72523 9.42363 5.71028 9.4393C5.69533 9.45497 5.68038 9.47064 5.66543 9.48631C5.53087 9.64301 5.36268 9.72135 5.16084 9.72135C4.95901 9.72135 4.79081 9.64301 4.65626 9.48631L1.09051 5.77264C0.955949 5.63161 0.888672 5.45533 0.888672 5.24379C0.888672 5.03225 0.955949 4.85597 1.09051 4.71494C1.24001 4.55825 1.41195 4.4799 1.60631 4.4799C1.80067 4.4799 1.9726 4.55825 2.12211 4.71494L5.14963 7.88802L11.8775 0.78973Z" fill="white"/>
</svg>
