<svg width="37" height="37" viewBox="0 0 37 37" fill="none" xmlns="http://www.w3.org/2000/svg">
<path d="M28.1209 17.708C24.4945 12.6531 17.3516 11.4443 12.2967 15.1805C10.978 16.1696 9.87912 17.4882 9 18.9168C9.21978 19.3564 9.54945 19.7959 9.87912 20.2355C13.5055 25.2904 20.4286 26.3893 25.4835 22.8728C26.4725 22.1036 27.3516 21.3344 28.1209 20.2355C28.4505 19.7959 28.6703 19.3564 29 18.9168C28.6703 18.4772 28.4505 18.0377 28.1209 17.708V17.708ZM19.1099 15.1805C19.6593 14.6311 20.5385 14.6311 21.0879 15.1805C21.6374 15.73 21.6374 16.6091 21.0879 17.1586C20.5385 17.708 19.6593 17.708 19.1099 17.1586C18.5604 16.6091 18.5604 15.73 19.1099 15.1805ZM19 23.6421C15.5934 23.6421 12.4066 21.8838 10.5385 19.0267C11.8571 17.1586 13.6154 15.8399 15.7033 15.1805C14.9341 16.0597 14.6044 17.0487 14.6044 18.1476C14.6044 20.5652 16.4725 22.6531 19 22.6531C21.4176 22.6531 23.5055 20.7849 23.5055 18.2575V18.1476C23.5055 17.0487 23.0659 15.9498 22.2967 15.1805C24.3846 15.8399 26.1429 17.1586 27.4615 19.0267C25.5934 21.8838 22.4066 23.6421 19 23.6421V23.6421Z" fill="#B39D96"/>
</svg>
