<svg width="37" height="37" viewBox="0 0 37 37" fill="none" xmlns="http://www.w3.org/2000/svg">
<path d="M27.011 11.3192C26.5691 10.8936 25.7956 10.8936 25.2431 11.3192L22.5912 13.8726C21.3757 13.447 20.1602 13.2343 18.9448 13.2343C14.7459 13.3407 10.989 15.4685 9 18.9795C9.22099 19.4051 9.55249 19.8306 9.88398 20.2562C10.768 21.4265 11.8729 22.3841 13.0884 23.1288L11.2099 24.9375C10.768 25.3631 10.6575 26.1079 11.2099 26.6398C11.6519 27.0654 12.4254 27.1718 12.9779 26.6398L27.011 13.0215C27.453 12.4895 27.453 11.7448 27.011 11.3192ZM15.2983 20.8946L13.8619 22.2777C12.5359 21.5329 11.3204 20.469 10.4365 19.1923C11.7624 17.3836 13.5304 16.1069 15.6298 15.4685C14.1934 16.958 14.0829 19.2987 15.2983 20.8946ZM19.0552 17.3836C18.5028 16.8516 18.6133 16.0005 19.1657 15.4685C19.7182 15.0429 20.4917 15.0429 21.0442 15.4685L19.0552 17.3836ZM28.116 17.9156C27.5635 17.1708 26.9006 16.4261 26.1271 15.8941L25.0221 16.958C25.9061 17.5964 26.6796 18.3411 27.3425 19.2987C25.4641 22.0649 22.2597 23.7672 18.8343 23.7672C18.5028 23.7672 18.2818 23.7672 17.9503 23.7672L16.8453 24.8311C17.6188 24.7247 18.2818 24.8311 18.9448 24.8311C22.5912 24.8311 26.0166 23.1288 28.116 20.2562C28.4475 19.8306 28.6685 19.4051 29 18.9795C28.6685 18.6603 28.4475 18.2347 28.116 17.9156ZM23.3646 18.4475L18.9448 22.7033C21.3757 22.7033 23.3646 20.7882 23.3646 18.4475Z" fill="#B39D96"/>
</svg>
