<svg xmlns="http://www.w3.org/2000/svg" viewBox="0 0 45 45"><title>details-text</title><g style="opacity:0.8"><rect x="12.81641" y="28.84961" width="4.36963" height="0.90039" style="fill:#5c7762"/><rect x="19.07568" y="28.84961" width="9.93506" height="0.90039" style="fill:#5c7762"/><rect x="12.81641" y="33.0498" width="16.19531" height="0.90039" style="fill:#5c7762"/><rect x="16.98828" y="37.25" width="12.02148" height="0.89941" style="fill:#5c7762"/><rect x="12.81641" y="20.4502" width="10.62988" height="0.8999" style="fill:#5c7762"/><rect x="12.81641" y="37.25" width="2.28271" height="0.89941" style="fill:#5c7762"/><rect x="12.81641" y="12.0498" width="5.06494" height="0.90039" style="fill:#5c7762"/><rect x="25.33691" y="20.4502" width="3.67383" height="0.8999" style="fill:#5c7762"/><path d="M38.75,39.09961V2.7002a.44869.44869,0,0,0-.44531-.4502H11.87012a.44878.44878,0,0,0-.4458.4502V4.5498h.89111V3.1499h25.543V38.65039H36.46777v.89941h1.83692A.44868.44868,0,0,0,38.75,39.09961Z" style="fill:#5c7762"/><path d="M34.12988,43.75a.44869.44869,0,0,0,.44532-.4502V13.90039a.797.797,0,0,0-.03028-.144.45477.45477,0,0,0-.10351-.17481l-6.95606-7a.41655.41655,0,0,0-.1289-.08789.55764.55764,0,0,0-.15821-.03857l-.06543-.00928-19.437.0044a.44836.44836,0,0,0-.4458.4497V43.2998a.44878.44878,0,0,0,.4458.4502ZM27.61914,7.98389l5.43262,5.46631H27.61914ZM8.14111,7.3501H26.72852v6.55029a.44826.44826,0,0,0,.44531.44971h6.51074V42.85059H8.14111Z" style="fill:#5c7762"/><rect x="12.81641" y="16.25" width="16.19531" height="0.8999" style="fill:#5c7762"/><rect x="12.81641" y="24.64941" width="16.19531" height="0.90039" style="fill:#5c7762"/></g></svg>