<svg xmlns="http://www.w3.org/2000/svg" viewBox="0 0 45 45"><title>details-bank</title><path d="M42.41406,15.4834,23.51953,3.32715a.962.962,0,0,0-1.03906,0L3.58643,15.4834a.89439.89439,0,0,0,.48339,1.64648H7.11035v3.84864a.76835.76835,0,0,0,.6084.749l.13867.0293v1.14209A.767.767,0,0,0,8.623,23.665h.07812v.1748H8.876v11.418l.00039.1752-.1752-.00039H8.623a.76687.76687,0,0,0-.76563.76562v1.1416l-.13867.0293a.76983.76983,0,0,0-.6084.75v1.32129H4.92285a.96556.96556,0,0,0-.96435.96484v1.19532a.96534.96534,0,0,0,.96435.96386h36.1543a.96525.96525,0,0,0,.96387-.96386V40.40527a.96546.96546,0,0,0-.96387-.96484h-2.1875V38.11914a.76983.76983,0,0,0-.6084-.75l-.13867-.0293v-1.1416a.76687.76687,0,0,0-.76563-.76562H37.124V23.665H37.377a.767.767,0,0,0,.76563-.76611V21.75684l.13867-.0293a.7697.7697,0,0,0,.6084-.74951V17.12939h3.041a.89416.89416,0,0,0,.4834-1.646ZM7.89746,20.95752V19.65674h5.86768v1.30078Zm11.98975.77.13867.0293v1.14209a.76707.76707,0,0,0,.76611.76611h.25293V35.43262H20.792a.767.767,0,0,0-.76611.76562v1.1416l-.13867.0293a.7699.7699,0,0,0-.60791.75v1.32227H14.55176V38.11914a.7699.7699,0,0,0-.60791-.75l-.13867-.0293v-1.1416a.767.767,0,0,0-.76612-.76562h-.25293V23.665h.25293a.76708.76708,0,0,0,.76612-.76611V21.75684l.13867-.0293a.76841.76841,0,0,0,.60791-.749V19.65674H19.2793v1.32178A.76841.76841,0,0,0,19.88721,21.72754Zm12.16943,0,.13867.0293v1.14209a.767.767,0,0,0,.76563.76611h.25293V35.43262h-.25293a.76687.76687,0,0,0-.76563.76562v1.1416l-.13867.0293a.76983.76983,0,0,0-.6084.75v1.32227H26.7207V38.11914a.76983.76983,0,0,0-.6084-.75l-.13867-.0293v-1.1416a.76687.76687,0,0,0-.76562-.76562h-.25293V23.665H25.208a.767.767,0,0,0,.76562-.76611V21.75684l.13867-.0293a.76835.76835,0,0,0,.6084-.749V19.65674h4.72754v1.32178A.76835.76835,0,0,0,32.05664,21.72754ZM21.43848,22.87793H20.813V21.74414H25.1875v1.13379h-.626a.39427.39427,0,0,0-.39355.39355V35.82617a.39427.39427,0,0,0,.39355.39356h.626v1.20215H20.813V36.21973h.62549a.39427.39427,0,0,0,.39355-.39356V23.27148A.39427.39427,0,0,0,21.43848,22.87793Zm4.13965,15.331a.42651.42651,0,0,0,.126-.02148l.22949-.0752v1.32911H20.06641v-1.3252l.228.07227a.39335.39335,0,0,0,.12256.0205Zm.35546-17.25146H20.06641V19.65674h5.86718ZM8.644,36.21973h.62549a.39428.39428,0,0,0,.39356-.39356V23.27148a.39385.39385,0,0,0-.39356-.39306H8.644V21.74414h4.374v1.13379h-.62549a.39385.39385,0,0,0-.39307.39355V35.82617a.39386.39386,0,0,0,.39307.39356h.62549v1.20215H8.644ZM7.89746,38.1123l.22949.07618a.39466.39466,0,0,0,.12354.0205h5.16113a.39522.39522,0,0,0,.124-.0205l.2295-.07618v1.32911H7.89746Zm33.35742,2.11817-.002,1.54785L4.74512,41.77539l.00293-1.54785ZM37.74805,38.208a.39137.39137,0,0,0,.123-.01953l.23145-.08008v1.333H32.23535V38.11133l.23047.07715a.38379.38379,0,0,0,.12109.01953Zm-.39258-15.33008h-.625a.39427.39427,0,0,0-.39356.39355V35.82617a.39428.39428,0,0,0,.39356.39356h.625v1.20215h-4.374V36.21973h.626a.39428.39428,0,0,0,.39356-.39356V23.27148a.39385.39385,0,0,0-.39356-.39306h-.626V21.74414h4.374Zm.74707-1.92041H32.23535V19.65674h5.86719Zm0-2.08789H7.89746V17.12939H38.10254ZM8.84229,16.34277,22.689,7.43408a.5769.5769,0,0,1,.62256-.00049L37.1582,16.34277Zm32.51806,0h-2.749l-.043-.02783-14.832-9.54248a1.36273,1.36273,0,0,0-1.47266,0L7.38818,16.34277H4.63965a.27462.27462,0,0,1-.14844-.50586L22.99951,3.92773l2.74268,1.76514,15.7666,10.144a.27462.27462,0,0,1-.14844.50586Z" style="fill:#5c7762"/></svg>