<svg width="30" height="30" viewBox="0 0 30 30" fill="none" xmlns="http://www.w3.org/2000/svg">
<path fill-rule="evenodd" clip-rule="evenodd" d="M16.2207 11.1248L16.1785 10.9328H4.73847C4.46566 10.9328 4.24446 10.7116 4.24446 10.4388C4.24446 10.166 4.46566 9.94482 4.73847 9.94482H16.1787L16.221 9.75291C16.5362 8.3205 17.8177 7.24446 19.341 7.24446C20.8633 7.24446 22.1455 8.32069 22.4609 9.75294L22.5032 9.94482H26.8926C27.1654 9.94482 27.3866 10.166 27.3866 10.4388C27.3866 10.7116 27.1654 10.9328 26.8926 10.9328H22.5034L22.4612 11.1249C22.1464 12.5578 20.8663 13.6333 19.341 13.6333C17.8157 13.6333 16.5355 12.5578 16.2207 11.1248ZM17.3792 10.4328L17.3791 10.4408L17.3791 10.4435C17.3815 11.5232 18.2607 12.4008 19.341 12.4008C20.4217 12.4008 21.3012 11.5223 21.3029 10.442L21.3027 10.4311C21.2981 9.35314 20.418 8.47699 19.341 8.47699C18.2624 8.47699 17.3824 9.35434 17.3792 10.4328Z" fill="#786453"/>
<path fill-rule="evenodd" clip-rule="evenodd" d="M15.4104 18.141L15.4526 18.333H26.8926C27.1654 18.333 27.3866 18.5542 27.3866 18.827C27.3866 19.0998 27.1655 19.321 26.8926 19.321H15.4524L15.4101 19.5129C15.0949 20.9453 13.8134 22.0214 12.2901 22.0214C10.7678 22.0214 9.48567 20.9451 9.17021 19.5129L9.12794 19.321H4.73847C4.46565 19.321 4.24446 19.0998 4.24446 18.827C4.24446 18.5542 4.46566 18.333 4.73847 18.333H9.12768L9.16987 18.141C9.48467 16.7081 10.7648 15.6326 12.2901 15.6326C13.8154 15.6326 15.0956 16.7081 15.4104 18.141ZM14.2519 18.833L14.252 18.8251L14.252 18.8224C14.2496 17.7427 13.3704 16.8651 12.2901 16.8651C11.2093 16.8651 10.3299 17.7435 10.3282 18.824L10.3284 18.8348C10.333 19.9127 11.2131 20.7888 12.2901 20.7888C13.3687 20.7888 14.2487 19.9115 14.2519 18.833Z" fill="#786453"/>
<path fill-rule="evenodd" clip-rule="evenodd" d="M4.73847 11.1773H15.9819C16.3208 12.7197 17.6982 13.8777 19.341 13.8777C20.9837 13.8777 22.3611 12.7198 22.7 11.1773H26.8926C27.3005 11.1773 27.6311 10.8467 27.6311 10.4388C27.6311 10.031 27.3005 9.70036 26.8926 9.70036H22.6996C22.3601 8.15871 20.9808 7 19.341 7C17.7003 7 16.3216 8.15852 15.9822 9.70036H4.73847C4.33065 9.70036 4 10.031 4 10.4388C4 10.8467 4.33065 11.1773 4.73847 11.1773ZM16.1785 10.9328L16.2207 11.1248C16.5355 12.5578 17.8157 13.6333 19.341 13.6333C20.8663 13.6333 22.1464 12.5578 22.4612 11.1249L22.5034 10.9328H26.8926C27.1654 10.9328 27.3866 10.7116 27.3866 10.4388C27.3866 10.166 27.1654 9.94482 26.8926 9.94482H22.5032L22.4609 9.75294C22.1455 8.32069 20.8633 7.24446 19.341 7.24446C17.8177 7.24446 16.5362 8.3205 16.221 9.75291L16.1787 9.94482H4.73847C4.46566 9.94482 4.24446 10.166 4.24446 10.4388C4.24446 10.7116 4.46566 10.9328 4.73847 10.9328H16.1785Z" fill="#786453"/>
<path fill-rule="evenodd" clip-rule="evenodd" d="M26.8926 18.0885H15.6492C15.3103 16.5461 13.9329 15.3882 12.2901 15.3882C10.6474 15.3882 9.26997 16.5461 8.9311 18.0885H4.73847C4.33065 18.0885 4 18.4192 4 18.827C4 19.2349 4.33065 19.5655 4.73847 19.5655H8.93147C9.27103 21.1071 10.6503 22.2658 12.2901 22.2658C13.9308 22.2658 15.3095 21.1073 15.6489 19.5655H26.8926C27.3005 19.5655 27.6311 19.2349 27.6311 18.827C27.6311 18.4192 27.3005 18.0885 26.8926 18.0885ZM15.4526 18.333L15.4104 18.141C15.0956 16.7081 13.8154 15.6326 12.2901 15.6326C10.7648 15.6326 9.48467 16.7081 9.16987 18.141L9.12768 18.333H4.73847C4.46566 18.333 4.24446 18.5542 4.24446 18.827C4.24446 19.0998 4.46565 19.321 4.73847 19.321H9.12794L9.17021 19.5129C9.48567 20.9451 10.7678 22.0214 12.2901 22.0214C13.8134 22.0214 15.0949 20.9453 15.4101 19.5129L15.4524 19.321H26.8926C27.1655 19.321 27.3866 19.0998 27.3866 18.827C27.3866 18.5542 27.1654 18.333 26.8926 18.333H15.4526Z" fill="#786453"/>
</svg>
