<svg xmlns="http://www.w3.org/2000/svg" viewBox="0 0 20 20"><title>footer-contacts-map</title><path d="M11.20673,4.90674A3.11159,3.11159,0,1,0,10.01581,10.893H10.016a3.11488,3.11488,0,0,0,3.11139-3.11127V7.78156h0v0a3.11161,3.11161,0,0,0-1.92065-2.87482ZM7.73584,6.837A2.46785,2.46785,0,1,1,7.5954,8.26288,2.46833,2.46833,0,0,1,7.73584,6.837Z" style="fill:#fff"/><path d="M9.76923,18.40991h.00006a.32135.32135,0,0,0,.24634.11463v.00006l.00018-.00006.00018.00006v-.00006a.32176.32176,0,0,0,.2464-.11444l.00012-.00013c.12409-.14758,1.635-1.95379,3.1156-4.14215a28.88994,28.88994,0,0,0,2.02429-3.41614,7.63051,7.63051,0,0,0,.92029-3.07019,6.30686,6.30686,0,1,0-12.61371,0,7.63067,7.63067,0,0,0,.92035,3.07013A28.89614,28.89614,0,0,0,6.65369,14.2677c1.48059,2.18842,2.99151,3.99451,3.11554,4.14221h0m5.14746-8.03442a25.91913,25.91913,0,0,1-1.76416,3.05969c-1.25391,1.9057-2.60059,3.60107-3.13666,4.26025-.53613-.65911-1.88275-2.35443-3.13666-4.26a25.91412,25.91412,0,0,1-1.76416-3.05975,6.62951,6.62951,0,0,1-.76233-2.59411,5.66315,5.66315,0,0,1,11.3263,0A6.62951,6.62951,0,0,1,14.91669,10.37549Z" style="fill:#fff"/></svg>