<svg xmlns="http://www.w3.org/2000/svg" viewBox="0 0 20 20"><title>footer-contacts-phone</title><path d="M16.61523,16.11133c.16993-.16211.31543-.30567.44434-.43945a1.478,1.478,0,0,0-.00586-2.19922L15.1582,11.57715a1.49117,1.49117,0,0,0-1.07519-.4961,1.54088,1.54088,0,0,0-1.08789.49317l-1.15528,1.15625-.0332-.01953c-.09668-.05469-.19531-.10449-.291-.15235l-.01954-.00976a3.85941,3.85941,0,0,1-.35156-.19238,11.98253,11.98253,0,0,1-2.8667-2.60889,6.89809,6.89809,0,0,1-.97265-1.55127L7.291,8.16309l.02636-.02393c.29737-.26807.57813-.55273.84033-.82129.09473-.09814.19239-.1958.291-.29394a1.56619,1.56619,0,0,0,.50879-1.1001,1.555,1.555,0,0,0-.50879-1.1001L7.50879,3.8833C7.39746,3.773,7.29346,3.666,7.186,3.55469c-.20411-.21-.42334-.43213-.63868-.63184A1.52693,1.52693,0,0,0,5.47119,2.4502a1.57744,1.57744,0,0,0-1.08838.47509l-1.1792,1.1792a2.3759,2.3759,0,0,0-.70752,1.521A5.78652,5.78652,0,0,0,2.93164,8.127,14.61453,14.61453,0,0,0,5.54443,12.4873a16.09666,16.09666,0,0,0,5.35547,4.19532,8.30748,8.30748,0,0,0,2.98682.88476c.07226.00391.14062.00684.21191.00684a2.44242,2.44242,0,0,0,1.89356-.81445l.01172-.01368a7.41287,7.41287,0,0,1,.55859-.583Zm-.51074-.43067a8.44828,8.44828,0,0,0-.61133.6377,1.77384,1.77384,0,0,1-1.3916.5918c-.05468,0-.1123-.00293-.167-.00586a7.64778,7.64778,0,0,1-2.7373-.81934,15.37351,15.37351,0,0,1-5.13038-4.01855,14.10169,14.10169,0,0,1-2.50048-4.1626A5.14314,5.14314,0,0,1,3.166,5.68359V5.68311a1.71747,1.71747,0,0,1,.51611-1.10352L4.85547,3.40625a.89434.89434,0,0,1,.61572-.28271.857.857,0,0,1,.60352.28906c.18457.17041.35986.34912.54541.53808l.0791.08008c.05029.05176.10058.10254.15137.1543q.08789.08935.17724.18066l.939.93946a.90078.90078,0,0,1,.311.625.899.899,0,0,1-.311.625c-.04541.04541-.09082.09179-.13623.13818-.05225.05322-.1045.10644-.15723.15869L7.62891,6.897c-.27735.28125-.53955.54688-.82813.80274l-.01367.01318a.56811.56811,0,0,0-.14551.64941l.00977.02588A7.3756,7.3756,0,0,0,7.75,10.17334a12.52376,12.52376,0,0,0,3.02881,2.7583,3.7168,3.7168,0,0,0,.34521.19141l.06641.0332c.11328.05762.24121.12207.35156.19238l.01367.00684.01465.00879a.57788.57788,0,0,0,.72071-.126l1.17968-1.17969a.88.88,0,0,1,.61231-.29492.85439.85439,0,0,1,.59472.2959l1.9004,1.89844a.80605.80605,0,0,1-.00782,1.25879c-.14453.15429-.29394.2998-.42187.4209Z" style="fill:#fff"/></svg>