<svg xmlns="http://www.w3.org/2000/svg" viewBox="0 0 50 50"><title>heder-rug</title><path d="M25.71631,20.08441a.42181.42181,0,0,0-.59662,0l-.00006-.00006-4.61646,4.61658h0a.42236.42236,0,0,0-.00012.59625l.00006-.00006,4.61676,4.61645a.42146.42146,0,0,0,.59626,0l4.61645-4.61639h0a.42172.42172,0,0,0,0-.59619l-4.61621-4.61664Zm3.5459,5.09137-3.66742,3.66754-.17676.17676-.17682-.17676-3.66742-3.66754-.17682-.1767.17682-.17675,3.66742-3.66754.17682-.1767.17676.1767,3.66742,3.66754.17682.17675Z" style="fill:#5c7762"/><path d="M42.24762,2.3327a.42136.42136,0,0,0-.42145.42139V5.01825H38.46161V2.75409a.42142.42142,0,0,0-.84284,0V5.01825H34.25421V2.75409a.42136.42136,0,1,0-.84271,0V5.01825H30.04688V2.75409a.42139.42139,0,1,0-.84278,0V5.01825H25.83948V2.75409a.42139.42139,0,0,0-.84278,0V5.01825H21.6322V2.75409a.42139.42139,0,1,0-.84277,0V5.01825H17.4248V2.75409a.42139.42139,0,1,0-.84277,0V5.01825H13.21741V2.75409a.42136.42136,0,1,0-.84272,0V5.01825H9.01007V2.75409a.42139.42139,0,1,0-.84277,0V47.24457a.42139.42139,0,1,0,.84277,0v-2.2641h3.36462v2.2641a.42136.42136,0,1,0,.84272,0v-2.2641H16.582v2.2641a.42139.42139,0,1,0,.84277,0v-2.2641h3.36463v2.2641a.42139.42139,0,1,0,.84277,0v-2.2641h3.3645v2.2641a.42139.42139,0,1,0,.84278,0v-2.2641H29.2041v2.2641a.42139.42139,0,1,0,.84278,0v-2.2641H33.4115v2.2641a.42136.42136,0,1,0,.84271,0v-2.2641h3.36456v2.2641a.42142.42142,0,1,0,.84284,0v-2.2641h3.36456v2.2641a.42136.42136,0,1,0,.84271,0V2.75409A.42128.42128,0,0,0,42.24762,2.3327Zm-.42145,40.21222V44.1377H9.01007V42.29492h32.8161ZM9.6059,41.45221l.42681-.42682,2.58661-2.58661.17676-.17676.1767.17676,2.58661,2.58661.42682.42682H9.6059Zm8.41473,0,.42676-.42682L21.034,38.43878l.17682-.17676.17669.17676,2.58661,2.58661.42676.42682H18.02063Zm8.41467-.00012.42682-.4267,2.58661-2.58661.17676-.17676.17682.17676,2.58661,2.58661.42669.4267H26.4353Zm8.4148,0,.42669-.4267,2.58661-2.58661.17682-.17676.17676.17676,2.58661,2.58661.4267.4267H34.8501ZM41.82617,9.74591V40.85638l-.42676-.42688-3.061-3.06134v.00007a.42217.42217,0,0,0-.59638,0l-3.73242,3.73266-.17676.17682-.17669-.17682-3.73242-3.73266a.42224.42224,0,0,0-.59644,0l-3.73236,3.73266-.17682.17682-.17682-.17682L21.509,37.36816v.00007a.42216.42216,0,0,0-.59637,0l-3.73242,3.73266-.17676.17682-.17682-.17682L13.09412,37.3681h0a.42194.42194,0,0,0-.59613,0h0l-3.0611,3.0614-.42682.42688V9.14233l.42682.42682,3.0611,3.06147a.42232.42232,0,0,0,.59613,0L16.8266,8.89777l.17682-.17676.17676.17676,3.73242,3.73272a.42216.42216,0,0,0,.59637,0v.00006l3.7323-3.73278.17682-.17676.17682.17676,3.73236,3.73272a.42224.42224,0,0,0,.59644,0l3.73242-3.73272.17669-.17676.17676.17676L37.742,12.63049a.42217.42217,0,0,0,.59638,0v.00006l3.061-3.0614.42676-.42682ZM9.6059,8.54657h6.38031l-.42682.42676-2.58661,2.58655-.1767.17681-.17676-.17681L10.03271,8.97333Zm8.41473,0h6.38025l-.42676.42676-2.58661,2.58655-.17669.17681-.17682-.17681L18.44739,8.97333Zm8.41467,0h6.38031l-.42682.42676-2.58648,2.58655-.17682.17681-.17676-.17681L26.86212,8.97333Zm8.4148,0h6.38019l-.4267.42676L38.217,11.55988l-.17676.17681-.17682-.17681L35.27679,8.97333ZM41.82617,6.111V7.7038H9.01007V5.861h32.8161Z" style="fill:#5c7762"/></svg>