<svg width="50" height="50" viewBox="0 0 50 50" fill="none" xmlns="http://www.w3.org/2000/svg">
<path d="M44.1355 6.27641C44.1355 6.15894 44.0889 6.04628 44.0058 5.96322C43.9227 5.88016 43.8101 5.8335 43.6926 5.8335H7.09105C6.97912 5.83802 6.87306 5.88478 6.79424 5.96437C6.71541 6.04396 6.66967 6.15046 6.66623 6.26243C6.66278 6.37439 6.70189 6.48351 6.77568 6.56779C6.84946 6.65207 6.95244 6.70527 7.06388 6.71666C7.0004 8.87836 6.81585 18.049 8.01998 24.1021C7.94657 24.0936 7.87219 24.1036 7.80368 24.1313C7.73516 24.159 7.6747 24.2035 7.62786 24.2607C7.55908 24.3465 7.52411 24.4545 7.52955 24.5643C7.53499 24.6742 7.58047 24.7782 7.65738 24.8568C7.77871 24.9745 7.92252 25.0665 8.08022 25.1273C7.00483 28.7352 6.70129 41.4214 7.24105 42.6158C7.34341 42.7746 7.49778 42.893 7.67776 42.9506C8.25946 43.1733 8.8759 43.2916 9.49871 43.2999C10.0544 43.3066 10.6022 43.1692 11.0891 42.9013C11.6658 43.2013 12.3094 43.3496 12.9593 43.3321C13.3136 43.3371 13.6667 43.2911 14.0078 43.1957C14.2602 43.1285 14.4899 42.995 14.6734 42.8092C15.2478 43.0541 15.8633 43.188 16.4876 43.204C16.8662 43.2231 17.2422 43.1319 17.57 42.9415C17.6916 42.8665 17.7911 42.7606 17.8582 42.6345C17.9253 42.5084 17.9576 42.3667 17.9518 42.224C17.6249 36.8316 16.569 31.5083 14.8131 26.3993C14.8833 26.3904 14.9503 26.3648 15.0086 26.3245C15.0668 26.2842 15.1144 26.2305 15.1475 26.1679C15.1806 26.1054 15.1982 26.0358 15.1987 25.965C15.1992 25.8942 15.1827 25.8243 15.1506 25.7612C17.2523 24.0439 23.3645 18.4181 25.3614 9.69214C25.3661 9.66958 25.3784 9.64932 25.3962 9.63477C25.4141 9.62022 25.4364 9.61228 25.4595 9.61228C25.4825 9.61228 25.5048 9.62022 25.5227 9.63477C25.5405 9.64932 25.5528 9.66958 25.5575 9.69214C27.5559 18.4181 33.6681 24.0439 35.7684 25.7612C35.7362 25.8243 35.7197 25.8942 35.7202 25.965C35.7207 26.0358 35.7383 26.1054 35.7714 26.1679C35.8045 26.2305 35.8521 26.2842 35.9104 26.3245C35.9686 26.3648 36.0356 26.3904 36.1059 26.3993C34.3498 31.5079 33.2938 36.8307 32.9665 42.2228C32.9607 42.3655 32.993 42.5072 33.0601 42.6333C33.1272 42.7594 33.2267 42.8654 33.3483 42.9403C33.6761 43.1307 34.0521 43.2219 34.4308 43.2028C35.055 43.1868 35.6705 43.0529 36.2449 42.808C36.4284 42.9938 36.6582 43.1273 36.9105 43.1945C37.2517 43.2899 37.6048 43.3359 37.959 43.3309C38.6089 43.3484 39.2525 43.2001 39.8293 42.9001C40.3161 43.1681 40.864 43.3054 41.4196 43.2988C42.0424 43.2904 42.6589 43.1721 43.2406 42.9494C43.4205 42.8918 43.5749 42.7735 43.6773 42.6146C44.2176 41.4202 43.9135 28.7341 42.839 25.1261C42.9967 25.0653 43.1405 24.9733 43.2618 24.8556C43.3387 24.777 43.3842 24.673 43.3897 24.5632C43.3951 24.4533 43.3601 24.3453 43.2913 24.2595C43.2445 24.2023 43.184 24.1578 43.1155 24.1301C43.047 24.1024 42.9726 24.0924 42.8992 24.1009C44.1098 18.0224 43.917 8.79805 43.8544 6.68684C43.937 6.65444 44.0079 6.59799 44.0581 6.52482C44.1082 6.45164 44.1352 6.3651 44.1355 6.27641V6.27641ZM17.0518 42.0193C17.056 42.0822 17.037 42.1445 16.9984 42.1943C16.9599 42.2442 16.9044 42.2783 16.8425 42.2901C16.2257 42.3603 15.6015 42.2607 15.0372 42.0022C15.0004 41.9876 14.9686 41.9629 14.9454 41.9309C14.9222 41.8989 14.9085 41.8609 14.9061 41.8215C14.8544 40.9011 14.7026 38.4749 14.3846 35.2844C14.3729 35.1675 14.3152 35.06 14.2242 34.9857C14.1332 34.9113 14.0164 34.8761 13.8995 34.8879C13.7826 34.8996 13.6751 34.9573 13.6007 35.0483C13.5264 35.1393 13.4912 35.2561 13.5029 35.373C13.8419 38.7728 13.9904 41.2891 14.0306 42.0335C14.033 42.0865 14.0188 42.1388 13.9902 42.1834C13.9615 42.228 13.9197 42.2626 13.8705 42.2824C13.1389 42.5118 12.3508 42.4838 11.6374 42.203C11.6041 42.1873 11.5756 42.163 11.5549 42.1327C11.5341 42.1023 11.5218 42.0669 11.5193 42.0303C11.4759 41.4181 11.441 39.86 11.4209 38.9594L11.4091 38.4439C11.4064 38.3264 11.3571 38.2148 11.2721 38.1337C11.1871 38.0526 11.0734 38.0085 10.9559 38.0113C10.8384 38.014 10.7269 38.0633 10.6457 38.1483C10.5646 38.2333 10.5206 38.3471 10.5233 38.4645L10.5351 38.9789C10.5688 40.4863 10.5942 41.4421 10.6296 41.9809C10.6331 42.0284 10.6222 42.0758 10.5984 42.1169C10.5745 42.1581 10.5388 42.191 10.4959 42.2115C9.72814 42.5638 8.89724 42.4067 8.13632 42.1687C8.09932 42.1572 8.06635 42.1355 8.04121 42.106C8.01607 42.0765 7.9998 42.0405 7.99429 42.0022C7.694 39.9787 7.9122 29.0028 8.87421 25.5581C8.87928 25.54 8.88793 25.5231 8.89965 25.5084C8.91137 25.4937 8.92593 25.4815 8.94244 25.4725C8.95896 25.4635 8.97712 25.458 8.99583 25.4561C9.01454 25.4543 9.03342 25.4562 9.05137 25.4618C9.21643 25.5091 9.39478 25.5572 9.58287 25.6056C9.67211 25.629 9.75128 25.6809 9.80836 25.7534C9.86543 25.8258 9.89729 25.915 9.8991 26.0072C9.92095 26.8467 9.88168 27.8536 9.84802 28.6992C9.82351 29.3169 9.80225 29.8508 9.81259 30.1661C9.81627 30.2811 9.86455 30.3902 9.94722 30.4702C10.0299 30.5502 10.1404 30.5949 10.2555 30.5949C10.3404 30.5875 10.4229 30.5623 10.4973 30.5208C10.7002 30.3731 10.6946 30.1617 10.6963 29.9107C10.6987 29.6155 10.7152 29.1991 10.7335 28.7344C10.7681 27.8692 10.8077 26.8408 10.784 25.9653C10.7838 25.9556 10.7858 25.9461 10.7899 25.9373C10.7939 25.9286 10.7999 25.9209 10.8074 25.9148C10.8149 25.9087 10.8237 25.9044 10.8331 25.9023C10.8425 25.9001 10.8523 25.9002 10.8617 25.9024C11.0424 25.9405 11.2222 25.9771 11.4 26.0113C11.532 26.0356 11.6548 26.096 11.7546 26.1858C11.8544 26.2756 11.9274 26.3913 11.9654 26.5201C12.5235 28.4272 12.8945 30.384 13.0733 32.363C13.0841 32.4723 13.1352 32.5736 13.2165 32.6474C13.2979 32.7212 13.4037 32.7621 13.5136 32.7622C13.5668 32.768 13.6207 32.762 13.6714 32.7446C13.7221 32.7272 13.7683 32.6988 13.8068 32.6615C13.8683 32.5745 13.9113 32.4757 13.9329 32.3714C13.9546 32.267 13.9544 32.1593 13.9325 32.055C13.7456 30.1176 13.3775 28.202 12.8332 26.3332C12.8309 26.3246 12.8308 26.3156 12.8328 26.307C12.8348 26.2984 12.8389 26.2904 12.8447 26.2837C12.8506 26.277 12.858 26.2719 12.8663 26.2688C12.8746 26.2657 12.8835 26.2647 12.8923 26.2659C13.1498 26.3031 13.391 26.3332 13.6131 26.3565C13.6897 26.3646 13.7624 26.3941 13.8229 26.4418C13.8834 26.4894 13.9292 26.5532 13.955 26.6258C15.6722 31.5951 16.7138 36.7726 17.0518 42.0193V42.0193ZM14.2039 25.3845C14.1035 25.4634 13.9768 25.5011 13.8496 25.4899C13.6807 25.4742 13.497 25.4536 13.301 25.4282C13.2911 25.4273 13.2818 25.4236 13.2739 25.4175C13.2661 25.4115 13.2602 25.4034 13.2568 25.3941C13.2534 25.3849 13.2527 25.3748 13.2547 25.3652C13.2568 25.3555 13.2616 25.3466 13.2685 25.3396C13.8129 24.7974 14.3195 24.2184 14.7844 23.6066C14.8207 23.5606 14.8474 23.5078 14.8631 23.4513C14.8788 23.3948 14.8831 23.3358 14.8758 23.2776C14.8685 23.2194 14.8497 23.1633 14.8205 23.1125C14.7914 23.0616 14.7524 23.0171 14.7059 22.9814C14.6594 22.9457 14.6063 22.9196 14.5496 22.9046C14.4929 22.8896 14.4339 22.886 14.3758 22.894C14.3177 22.902 14.2618 22.9215 14.2113 22.9513C14.1609 22.981 14.1168 23.0205 14.0817 23.0675C13.5297 23.8049 12.9067 24.4863 12.2214 25.1019C12.1725 25.1439 12.1147 25.1742 12.0524 25.1907C11.99 25.2072 11.9248 25.2095 11.8615 25.1973C11.6046 25.15 11.3421 25.0981 11.077 25.0425C11.0675 25.0408 11.0585 25.0369 11.0508 25.0312C11.043 25.0255 11.0366 25.0181 11.0321 25.0096C11.0276 25.0011 11.025 24.9917 11.0246 24.982C11.0242 24.9724 11.0259 24.9628 11.0297 24.954C11.6554 23.5916 12.3392 20.8249 12.701 18.5504C12.7194 18.4343 12.691 18.3157 12.622 18.2207C12.553 18.1256 12.4491 18.0618 12.333 18.0434C12.217 18.0249 12.0984 18.0533 12.0034 18.1223C11.9083 18.1913 11.8445 18.2953 11.8261 18.4113C11.4289 20.909 10.7832 23.2833 10.3024 24.4225C10.2526 24.5368 10.1633 24.6295 10.051 24.6836C9.93863 24.7378 9.81057 24.7499 9.69005 24.7177C9.4683 24.6587 9.26515 24.6023 9.08415 24.5468C9.06255 24.5403 9.04312 24.5281 9.02789 24.5114C9.01266 24.4948 9.00221 24.4744 8.99763 24.4523C7.70345 18.5713 7.89065 8.84883 7.9497 6.71932H24.9634C23.7779 17.488 15.809 24.1464 14.2039 25.3845ZM42.9243 42.001C42.9188 42.0394 42.9025 42.0754 42.8774 42.1048C42.8523 42.1343 42.8193 42.1561 42.7823 42.1676C42.0214 42.4055 41.1917 42.5626 40.4228 42.2104C40.3798 42.1899 40.3441 42.1569 40.3202 42.1157C40.2964 42.0746 40.2855 42.0272 40.289 41.9798C40.3238 41.4409 40.3498 40.4851 40.3835 38.9777L40.3953 38.4633C40.398 38.3459 40.354 38.2321 40.2729 38.1471C40.2327 38.105 40.1846 38.0713 40.1314 38.0478C40.0782 38.0243 40.0209 38.0115 39.9627 38.0101C39.8453 38.0074 39.7315 38.0514 39.6465 38.1325C39.5615 38.2136 39.5122 38.3252 39.5095 38.4427L39.4977 38.9582C39.4776 39.8588 39.4427 41.417 39.3993 42.0291C39.3968 42.0658 39.3845 42.1011 39.3638 42.1315C39.343 42.1619 39.3145 42.1861 39.2812 42.2018C38.5678 42.4826 37.7797 42.5106 37.0481 42.2812C36.9989 42.2614 36.9571 42.2268 36.9284 42.1822C36.8998 42.1377 36.8857 42.0853 36.888 42.0323C36.9282 41.2879 37.0767 38.7716 37.4157 35.3718C37.4274 35.2549 37.3923 35.1381 37.3179 35.0471C37.2435 34.9561 37.1361 34.8984 37.0191 34.8867C36.9022 34.8749 36.7854 34.9101 36.6944 34.9845C36.6035 35.0589 36.5457 35.1663 36.534 35.2832C36.216 38.4722 36.0642 40.8999 36.0125 41.8203C36.0101 41.8598 35.9964 41.8977 35.9732 41.9297C35.95 41.9617 35.9182 41.9864 35.8814 42.001C35.3171 42.2596 34.6929 42.3591 34.0761 42.2889C34.0142 42.2771 33.9588 42.243 33.9202 42.1932C33.8816 42.1433 33.8626 42.081 33.8668 42.0181C34.2053 36.7713 35.2474 31.5938 36.9651 26.6246C36.9909 26.552 37.0367 26.4882 37.0972 26.4406C37.1577 26.3929 37.2304 26.3634 37.307 26.3553C37.5291 26.332 37.7703 26.3019 38.0278 26.2647C38.0366 26.2635 38.0455 26.2645 38.0538 26.2676C38.0621 26.2707 38.0695 26.2758 38.0754 26.2825C38.0812 26.2892 38.0853 26.2972 38.0873 26.3058C38.0893 26.3145 38.0892 26.3235 38.0868 26.332C37.5426 28.2008 37.1745 30.1164 36.9875 32.0538C36.9657 32.1581 36.9655 32.2658 36.9872 32.3702C37.0088 32.4746 37.0518 32.5733 37.1133 32.6603C37.1518 32.6976 37.198 32.726 37.2487 32.7434C37.2994 32.7608 37.3533 32.7668 37.4065 32.761C37.5164 32.7609 37.6222 32.72 37.7036 32.6462C37.7849 32.5724 37.836 32.4711 37.8468 32.3618C38.0256 30.3828 38.3966 28.426 38.9547 26.5189C38.9926 26.3903 39.0654 26.2748 39.1649 26.185C39.2644 26.0952 39.3868 26.0347 39.5186 26.0102C39.6958 25.9759 39.8762 25.9393 40.0569 25.9012C40.0663 25.899 40.0761 25.899 40.0855 25.9011C40.0949 25.9033 40.1037 25.9075 40.1112 25.9136C40.1187 25.9197 40.1247 25.9274 40.1287 25.9361C40.1328 25.9449 40.1348 25.9545 40.1346 25.9641C40.111 26.8396 40.1505 27.868 40.1851 28.7332C40.2034 29.1979 40.2199 29.6137 40.2223 29.9095C40.224 30.1605 40.2184 30.3719 40.4213 30.5196C40.4958 30.5611 40.5782 30.5864 40.6631 30.5937C40.7782 30.5938 40.8887 30.549 40.9714 30.469C41.0541 30.389 41.1023 30.28 41.106 30.165C41.1164 29.849 41.0951 29.3158 41.0706 28.698C41.0369 27.8524 40.9977 26.8455 41.0195 26.006C41.0213 25.9138 41.0532 25.8247 41.1103 25.7522C41.1673 25.6797 41.2465 25.6278 41.3357 25.6045C41.5253 25.556 41.7037 25.5079 41.8687 25.4607C41.8867 25.4551 41.9056 25.4531 41.9243 25.455C41.943 25.4568 41.9611 25.4624 41.9776 25.4713C41.9942 25.4803 42.0087 25.4925 42.0204 25.5072C42.0322 25.5219 42.0408 25.5388 42.0459 25.5569C43.0067 29.0028 43.2249 39.9787 42.9243 42.001V42.001ZM41.9204 24.4529C41.9158 24.475 41.9054 24.4954 41.8901 24.512C41.8749 24.5287 41.8555 24.5409 41.8339 24.5474C41.6529 24.6029 41.45 24.6602 41.228 24.7183C41.1075 24.7505 40.9794 24.7384 40.867 24.6842C40.7547 24.63 40.6655 24.5374 40.6156 24.4231C40.1349 23.2848 39.4891 20.9093 39.092 18.4119C39.0828 18.3544 39.0625 18.2993 39.0321 18.2498C39.0016 18.2002 38.9617 18.1571 38.9147 18.1229C38.8676 18.0888 38.8142 18.0642 38.7577 18.0507C38.7011 18.0371 38.6424 18.0348 38.585 18.044C38.5275 18.0531 38.4724 18.0735 38.4229 18.1039C38.3733 18.1343 38.3302 18.1742 38.296 18.2213C38.2619 18.2683 38.2373 18.3217 38.2238 18.3783C38.2102 18.4348 38.2079 18.4935 38.2171 18.5509C38.5788 20.8246 39.2626 23.5922 39.8883 24.9546C39.8921 24.9634 39.8939 24.973 39.8934 24.9826C39.893 24.9923 39.8905 25.0017 39.8859 25.0102C39.8814 25.0187 39.875 25.0261 39.8673 25.0318C39.8595 25.0375 39.8505 25.0414 39.8411 25.0431C39.5753 25.0986 39.3134 25.1506 39.0565 25.1979C38.9932 25.2101 38.928 25.2078 38.8657 25.1913C38.8033 25.1748 38.7455 25.1444 38.6966 25.1025C38.0114 24.4869 37.3883 23.8055 36.8364 23.0681C36.8012 23.0211 36.7572 22.9816 36.7067 22.9518C36.6562 22.9221 36.6003 22.9026 36.5422 22.8946C36.4842 22.8866 36.4251 22.8902 36.3684 22.9052C36.3117 22.9202 36.2586 22.9463 36.2121 22.982C36.1656 23.0177 36.1266 23.0622 36.0975 23.1131C36.0683 23.1639 36.0496 23.22 36.0423 23.2782C36.035 23.3364 36.0393 23.3954 36.055 23.4519C36.0706 23.5083 36.0974 23.5612 36.1336 23.6072C36.5986 24.219 37.1051 24.798 37.6495 25.3402C37.6564 25.3472 37.6612 25.3561 37.6633 25.3658C37.6654 25.3754 37.6647 25.3855 37.6613 25.3947C37.6579 25.404 37.6519 25.4121 37.6441 25.4181C37.6363 25.4242 37.6269 25.4278 37.6171 25.4288C37.421 25.4542 37.2373 25.4748 37.0684 25.4905C36.9412 25.5017 36.8145 25.464 36.7141 25.3851C35.1099 24.1464 27.141 17.488 25.9543 6.71932H42.9692C43.0283 8.84883 43.2155 18.5713 41.921 24.4529H41.9204Z" fill="#5C7762"/>
<path d="M10.4214 32.2808C10.304 32.2808 10.1913 32.3274 10.1082 32.4105C10.0252 32.4935 9.97852 32.6062 9.97852 32.7237C9.97852 33.3142 10.2782 35.7591 10.2767 36.5327C10.2767 36.6502 10.3234 36.7628 10.4065 36.8459C10.4895 36.929 10.6022 36.9756 10.7197 36.9756C10.8371 36.9756 10.9498 36.929 11.0328 36.8459C11.1159 36.7628 11.1626 36.6502 11.1626 36.5327C11.164 35.7059 10.9015 33.3178 10.8643 32.7237C10.8616 32.6071 10.8141 32.496 10.7316 32.4135C10.6491 32.331 10.538 32.2835 10.4214 32.2808V32.2808Z" fill="#5C7762"/>
<path d="M13.2113 11.6369C13.1536 11.6285 13.0948 11.6317 13.0384 11.6461C12.9819 11.6605 12.9288 11.6859 12.8822 11.7209C12.8355 11.7559 12.7962 11.7997 12.7666 11.8499C12.7369 11.9001 12.7175 11.9556 12.7093 12.0134C12.6766 12.2454 12.4595 15.4238 12.2322 16.4011C12.2056 16.5155 12.2256 16.6357 12.2877 16.7354C12.3497 16.8351 12.4488 16.906 12.5632 16.9326C12.5962 16.9404 12.63 16.9442 12.6639 16.9441C12.7638 16.9441 12.8608 16.9102 12.9391 16.848C13.0174 16.7858 13.0723 16.699 13.095 16.6016C13.3383 15.5549 13.5582 12.3376 13.5863 12.1371C13.6027 12.0211 13.5724 11.9033 13.5021 11.8095C13.4318 11.7158 13.3273 11.6537 13.2113 11.6369V11.6369Z" fill="#5C7762"/>
<path d="M17.9178 16.6373C17.806 16.6015 17.6844 16.6116 17.58 16.6653C17.4756 16.7191 17.3968 16.8122 17.3609 16.924C16.8515 18.4634 16.1582 19.9358 15.2961 21.3091C15.2341 21.4089 15.2144 21.5293 15.2412 21.6437C15.2679 21.758 15.339 21.8571 15.4388 21.919C15.5387 21.981 15.659 22.0007 15.7734 21.974C15.8877 21.9472 15.9868 21.8761 16.0487 21.7763C16.9489 20.3413 17.6727 18.8029 18.2042 17.1945C18.222 17.1391 18.2287 17.0808 18.224 17.0228C18.2192 16.9648 18.2031 16.9083 18.1765 16.8566C18.1499 16.8048 18.1133 16.7588 18.0689 16.7212C18.0246 16.6836 17.9732 16.6551 17.9178 16.6373Z" fill="#5C7762"/>
<path d="M40.498 32.2808C40.3814 32.2835 40.2703 32.3311 40.1878 32.4135C40.1053 32.496 40.0578 32.6071 40.0551 32.7237C40.0179 33.3187 39.7554 35.706 39.7568 36.5328C39.7568 36.6502 39.8035 36.7629 39.8866 36.846C39.9696 36.929 40.0823 36.9757 40.1998 36.9757V36.9757C40.3172 36.9757 40.4299 36.929 40.5129 36.846C40.596 36.7629 40.6427 36.6502 40.6427 36.5328C40.6427 35.76 40.9409 33.3161 40.9409 32.7237C40.9409 32.6063 40.8942 32.4936 40.8112 32.4105C40.7281 32.3275 40.6154 32.2808 40.498 32.2808Z" fill="#5C7762"/>
<path d="M38.2084 12.013C38.1902 11.8983 38.1276 11.7953 38.0342 11.7263C37.9408 11.6573 37.824 11.6278 37.709 11.644C37.594 11.6603 37.49 11.7211 37.4194 11.8133C37.3488 11.9055 37.3172 12.0217 37.3315 12.137C37.3595 12.3375 37.5795 15.5548 37.8228 16.6015C37.8455 16.6989 37.9004 16.7857 37.9787 16.8479C38.0569 16.9101 38.154 16.944 38.2539 16.944C38.2878 16.9441 38.3216 16.9402 38.3546 16.9325C38.469 16.9059 38.5681 16.835 38.6301 16.7353C38.6922 16.6356 38.7121 16.5154 38.6856 16.401C38.4582 15.4234 38.2412 12.245 38.2084 12.013Z" fill="#5C7762"/>
<path d="M33.5579 16.9242C33.5411 16.8677 33.5132 16.8151 33.4758 16.7695C33.4384 16.7239 33.3923 16.6862 33.3402 16.6587C33.288 16.6311 33.2309 16.6143 33.1722 16.6091C33.1134 16.604 33.0542 16.6106 32.9981 16.6286C32.9419 16.6466 32.8899 16.6756 32.8452 16.714C32.8004 16.7524 32.7637 16.7993 32.7373 16.852C32.7109 16.9048 32.6953 16.9622 32.6914 17.0211C32.6875 17.0799 32.6954 17.1389 32.7146 17.1947C33.2462 18.8031 33.9699 20.3415 34.8701 21.7765C34.9008 21.8259 34.9409 21.8688 34.9881 21.9027C35.0354 21.9366 35.0889 21.9609 35.1455 21.9741C35.2021 21.9874 35.2608 21.9894 35.3182 21.98C35.3756 21.9705 35.4306 21.9499 35.48 21.9192C35.5294 21.8885 35.5723 21.8484 35.6062 21.8012C35.6402 21.7539 35.6644 21.7005 35.6777 21.6438C35.691 21.5872 35.6929 21.5285 35.6835 21.4711C35.6741 21.4137 35.6534 21.3588 35.6228 21.3093C34.7607 19.936 34.0674 18.4636 33.5579 16.9242V16.9242Z" fill="#5C7762"/>
</svg>
