<svg xmlns="http://www.w3.org/2000/svg" viewBox="0 0 52 50"><title>heder-case</title><path d="M15.55176,17.4126a.8674.8674,0,1,0,.81347.86572A.84147.84147,0,0,0,15.55176,17.4126Z" style="fill:#5c7762"/><path d="M26.001,17.4126a.8674.8674,0,1,0,.81347.86572A.84146.84146,0,0,0,26.001,17.4126Z" style="fill:#5c7762"/><ellipse cx="36.45117" cy="18.27832" rx="0.81348" ry="0.86572" style="fill:#5c7762"/><path d="M8.8125,15.13867l-.09033.1084c-.377.45215-1.52442,1.82861-2.96143,3.38232l-.04345.04737-.06153-.02051a2.47344,2.47344,0,0,0-.78076-.12646H3.083a1.94673,1.94673,0,0,0-1.68506.99462,2.185,2.185,0,0,0-.08789,2.03711L6.58154,32.83008a3.968,3.968,0,0,0,3.18311,2.30664l.06348.00683,1.78564,5.05079a.45556.45556,0,0,0,.4209.31152h1.20556a.45276.45276,0,0,0,.42676-.33008l1.562-5.0166H36.77246l.02246.07031,1.54,4.94629a.45321.45321,0,0,0,.42676.33008H39.9668a.45775.45775,0,0,0,.42187-.31152l1.78516-5.05079.06347-.00683A3.9911,3.9911,0,0,0,45.416,32.82715l5.27636-11.26563a2.19968,2.19968,0,0,0-.09375-2.04345,1.939,1.939,0,0,0-1.67187-.98828H47.12793a2.43936,2.43936,0,0,0-.77832.12792l-.0625.021-.04395-.04883c-.88769-.98828-2.82226-3.21631-3.05273-3.4917-1.37012-1.63623-2.78809-3.32812-5.01367-3.94384A43.33953,43.33953,0,0,0,27.4541,10.10693c-.49023-.00976-2.4209-.00976-2.91015,0a43.29742,43.29742,0,0,0-10.7168,1.08741C11.60059,11.81006,10.18311,13.502,8.8125,15.13867ZM12.916,39.542H12.3457l-1.55029-4.38281h3.48535Zm26.73925,0h-.56933l-.02246-.07031-1.3418-4.3125H41.207Zm6.71387-19.86084a1.63987,1.63987,0,0,1,.75879-.188h1.79883a1.05315,1.05315,0,0,1,.90918.5376,1.16981,1.16981,0,0,1,.05273,1.09912v.00049L44.61133,32.39648a3.06467,3.06467,0,0,1-2.74707,1.79786H10.145a3.05874,3.05874,0,0,1-2.75977-1.79786L2.11377,21.12842a1.15872,1.15872,0,0,1,.04687-1.09326,1.06514,1.06514,0,0,1,.92237-.542H4.875a1.7904,1.7904,0,0,1,1.51855.94288c.10547.18994.20508.38476.3042.57959.064.12548.12793.251.19336.37451l3.47608,6.54052A3.33755,3.33755,0,0,0,13.29443,29.749H38.70215a3.34163,3.34163,0,0,0,2.93359-1.81738l4.001-7.51709A1.69993,1.69993,0,0,1,46.36914,19.68115Zm-36.168,5.98975H41.80273l-.95019,1.78515a2.52343,2.52343,0,0,1-1.19141,1.125,2.34008,2.34008,0,0,1-.959.20411c-4.26074,0-25.52-.002-25.57373-.00586a2.44324,2.44324,0,0,1-1.97852-1.32422ZM24.55664,11.06982c.48731-.00927,2.39551-.00878,2.88184,0a42.68052,42.68052,0,0,1,10.51269,1.05811c1.96387.542,3.22949,2.05322,4.57031,3.65332.2295.2749,1.59082,1.852,2.043,2.36182q.34718.3933.69825.78515l.0498.05225a.286.286,0,0,1,.09375.124c.02246.085-.0459.169-.23047.36963-.03711.04053-.06933.07471-.084.09424a5.82411,5.82411,0,0,0-.498.8501q-.07324.145-.14941.28808l-.54493,1.02393q-.30468.57348-.61035,1.14648l-.88672,1.66944c-.0205.03613-.04.07177-.05761.10693l-.02832.05371H9.68945L9.6084,24.5542c-1.56055-2.95215-2.50733-4.72168-2.59815-4.855a2.50466,2.50466,0,0,0-.35937-.42774c-.05567-.05127-.09863-.13769.01074-.25585.23486-.26172.45654-.51026.67822-.76026.36573-.4126,1.90772-2.19287,2.14258-2.47363v0l.00147-.00195c1.34033-1.59961,2.60644-3.11036,4.56787-3.65235A42.66486,42.66486,0,0,1,24.55664,11.06982Z" style="fill:#5c7762"/></svg>