<svg width="16" height="14" viewBox="0 0 16 14" fill="none" xmlns="http://www.w3.org/2000/svg">
<path d="M14.7133 1.27528C13.8818 0.458217 12.7598 0 11.5907 0C10.4216 0 9.29963 0.458217 8.4681 1.27528L7.99836 1.73152L7.53676 1.27528C6.70523 0.458217 5.58326 0 4.41416 0C3.24506 0 2.12309 0.458217 1.29156 1.27528C0.464499 2.09925 0 3.2158 0 4.37989C0 5.54398 0.464499 6.66052 1.29156 7.48449L7.71054 13.8827C7.78725 13.9579 7.89064 14 7.99836 14C8.10607 14 8.20946 13.9579 8.28618 13.8827L14.7133 7.49259C15.5376 6.66551 16 5.54827 16 4.38393C16 3.2196 15.5376 2.10236 14.7133 1.27528ZM14.1377 6.92026L7.99836 13.0215L1.85906 6.92026C1.52305 6.58767 1.25668 6.19215 1.07538 5.75657C0.894081 5.32099 0.801438 4.85399 0.80281 4.38259C0.807809 3.43281 1.18969 2.52339 1.86544 1.85205C2.54119 1.1807 3.45616 0.801698 4.41145 0.797442C4.88524 0.795689 5.35465 0.887631 5.79237 1.06792C6.23008 1.24821 6.62737 1.51325 6.96111 1.84761L7.71054 2.59001C7.74817 2.62789 7.79298 2.65796 7.84239 2.67848C7.8918 2.699 7.94481 2.70957 7.99836 2.70957C8.0519 2.70957 8.10492 2.699 8.15432 2.67848C8.20373 2.65796 8.24855 2.62789 8.28618 2.59001L9.0356 1.84761C9.71731 1.20009 10.6268 0.843543 11.5696 0.854243C12.5123 0.864944 13.4134 1.24204 14.0801 1.90486C14.7467 2.56769 15.126 3.46359 15.1368 4.4009C15.1475 5.33821 14.7889 6.24248 14.1377 6.92026Z" fill="#B39D96"/>
</svg>
