<svg xmlns="http://www.w3.org/2000/svg" viewBox="0 0 30 30"><title>icon-card</title><path d="M23.44336,9.79834a.58882.58882,0,0,0-.20313-.36816.6054.6054,0,0,0-.39257-.144H19.84375V8.25684a4.42564,4.42564,0,0,0-1.35254-3.1875,4.69758,4.69758,0,0,0-6.52832,0,4.42434,4.42434,0,0,0-1.35205,3.1875V9.28613H7.60205a.60577.60577,0,0,0-.39307.14405.58346.58346,0,0,0-.20263.36816L4.95459,24.98145a.5913.5913,0,0,0,.02441.25683.56594.56594,0,0,0,.1333.22168c.25147.26465.50928.51172.76563.73633a.60991.60991,0,0,0,.40381.15332H24.17285a.60492.60492,0,0,0,.40332-.15332l.03809-.03418a8.24515,8.24515,0,0,0,.72851-.70215.58755.58755,0,0,0,.13282-.22168A.57981.57981,0,0,0,25.5,24.98145ZM11.81689,9.27539l.01563-1.02832v-.001a3.26794,3.26794,0,0,1,.99853-2.353,3.47219,3.47219,0,0,1,4.8252,0,3.31238,3.31238,0,0,1,.999,2.353v1.0293ZM24.26367,24.85645l-.33691.31445H6.51758l-.332-.31445L8.1333,10.46484H22.31543Z" style="fill:#786453"/></svg>