<svg width="13" height="10" viewBox="0 0 13 10" fill="none" xmlns="http://www.w3.org/2000/svg">
<path fill-rule="evenodd" clip-rule="evenodd" d="M10.9888 0.235043C11.1383 0.0783468 11.3102 0 11.5046 0C11.6989 0 11.8709 0.0783468 12.0204 0.235043C12.1549 0.376069 12.2222 0.552349 12.2222 0.763889C12.2222 0.975428 12.1549 1.15171 12.0204 1.29273L4.86646 8.83761C4.85151 8.85328 4.83656 8.86895 4.82161 8.88461C4.80666 8.90028 4.79171 8.91595 4.77676 8.93162C4.6422 9.08832 4.47401 9.16667 4.27217 9.16667C4.07033 9.16667 3.90214 9.08832 3.76758 8.93162L0.201835 5.21795C0.0672776 5.07692 0 4.90064 0 4.6891C0 4.47756 0.0672776 4.30128 0.201835 4.16026C0.351343 4.00356 0.523275 3.92521 0.717635 3.92521C0.911995 3.92521 1.08393 4.00356 1.23344 4.16026L4.26096 7.33333L10.9888 0.235043Z" fill="#5C7762"/>
</svg>
