<svg width="30" height="30" viewBox="0 0 30 30" fill="none" xmlns="http://www.w3.org/2000/svg">
<path d="M25.556 6.00401C24.2569 4.72006 22.5039 4 20.6774 4C18.8508 4 17.0979 4.72006 15.7987 6.00401L15.0648 6.72097L14.3436 6.00401C13.0444 4.72006 11.2915 4 9.46493 4C7.63836 4 5.88542 4.72006 4.58627 6.00401C3.29408 7.29883 2.56836 9.05339 2.56836 10.8827C2.56836 12.712 3.29408 14.4665 4.58627 15.7613L14.6151 25.8156C14.735 25.9338 14.8965 26 15.0648 26C15.2331 26 15.3946 25.9338 15.5145 25.8156L25.556 15.7741C26.8438 14.4744 27.5663 12.7187 27.5663 10.889C27.5663 9.05937 26.8438 7.30372 25.556 6.00401ZM24.6567 14.8747L15.0648 24.4623L5.47291 14.8747C4.94793 14.3521 4.53177 13.7305 4.24851 13.046C3.96525 12.3616 3.82051 11.6277 3.82265 10.8869C3.83046 9.39442 4.42711 7.96533 5.48288 6.91036C6.53865 5.85538 7.96818 5.25981 9.46069 5.25312C10.2009 5.25037 10.9343 5.39485 11.6182 5.67816C12.3021 5.96147 12.9228 6.37796 13.4442 6.90338L14.6151 8.07002C14.6739 8.12954 14.7439 8.17679 14.8211 8.20904C14.8983 8.24129 14.9811 8.2579 15.0648 8.2579C15.1484 8.2579 15.2313 8.24129 15.3085 8.20904C15.3857 8.17679 15.4557 8.12954 15.5145 8.07002L16.6854 6.90338C17.7504 5.88586 19.1714 5.32557 20.6444 5.34238C22.1173 5.3592 23.5251 5.95178 24.5667 6.99336C25.6083 8.03493 26.2009 9.44278 26.2177 10.9157C26.2345 12.3886 25.6742 13.8096 24.6567 14.8747Z" fill="#786453"/>
</svg>
