<svg width="31" height="30" viewBox="0 0 31 30" fill="none" xmlns="http://www.w3.org/2000/svg">
<path d="M25.9892 6.00475C24.69 4.72079 22.937 4.00073 21.1104 4.00073C19.2839 4.00073 17.5309 4.72079 16.2318 6.00475L15.4979 6.7217L14.7767 6.00475C13.4775 4.72079 11.7246 4.00073 9.89799 4.00073C8.07142 4.00073 6.31852 4.72079 5.01936 6.00475C3.72718 7.29956 3.00146 9.05413 3.00146 10.8834C3.00146 12.7127 3.72718 14.4673 5.01936 15.7621L15.0482 25.8163C15.168 25.9345 15.3296 26.0007 15.4979 26.0007C15.6661 26.0007 15.8277 25.9345 15.9475 25.8163L25.9892 15.7748C27.277 14.4751 27.9995 12.7194 27.9995 10.8898C27.9995 9.06011 27.277 7.30445 25.9892 6.00475Z" fill="white"/>
</svg>
