<svg width="210" height="70" viewBox="0 0 210 70" fill="none" xmlns="http://www.w3.org/2000/svg">
<path d="M57.7089 17.0866C51.9152 11.3008 44.2239 8.09951 36.0373 8.05746C35.9727 8.02102 35.8997 8 35.8197 8C35.7397 8 35.6653 8.02243 35.5994 8.05887C27.4548 8.13035 19.8099 11.3274 14.0428 17.0866C8.21123 22.9102 5 30.6541 5 38.8899C5 44.094 6.32211 49.2379 8.82457 53.7664C8.90597 53.915 9.06036 53.9991 9.21895 53.9991C9.29194 53.9991 9.36773 53.9809 9.4365 53.943C9.65404 53.8225 9.73264 53.5492 9.61334 53.3319C7.18386 48.9365 5.90105 43.9426 5.90105 38.8899C5.90105 22.5528 19.0744 9.232 35.3706 8.9615V20.1855C34.5018 20.3901 33.852 21.168 33.852 22.0973V23.5956C29.5979 24.1997 27.3397 26.4436 27.2316 26.553C27.1488 26.6371 27.1025 26.7506 27.1025 26.8683V29.736C27.1025 29.9841 27.3046 30.1859 27.553 30.1859H44.0878C44.3362 30.1859 44.5383 29.9841 44.5383 29.736V26.8683C44.5383 26.7604 44.499 26.6553 44.4274 26.574C44.3292 26.4605 42.2099 24.089 37.7888 23.5536V22.0973C37.7888 21.168 37.139 20.3887 36.2702 20.1855V8.96009C38.5187 8.98953 40.7067 9.26564 42.8106 9.76461C41.4323 14.7851 41.9236 20.2332 44.2113 25.1598C47.4492 32.1369 53.7594 36.8491 60.6324 37.8611C60.1173 38.2283 59.779 38.8282 59.779 39.508C59.779 40.44 60.4148 41.2235 61.2738 41.4576C55.5699 45.825 52.7545 53.4875 54.0597 61.3687C54.0962 61.5888 54.2871 61.7443 54.5032 61.7443C54.5271 61.7443 54.5524 61.7429 54.5776 61.7387C54.8232 61.6981 54.9889 61.4668 54.9482 61.2215C53.6303 53.2661 56.6787 45.5531 62.718 41.5291H65.7355C65.3748 45.6021 64.1833 49.5771 62.2352 53.1581C62.1159 53.3768 62.1973 53.6487 62.4162 53.7678C62.6352 53.8856 62.9075 53.8057 63.0268 53.587C65.4647 49.1047 66.7531 44.0225 66.7531 38.8899C66.7517 30.6541 63.5405 22.9102 57.7089 17.0866ZM43.6373 29.2861H28.0021V27.0632C28.6099 26.5235 31.3537 24.3441 35.9881 24.3441C40.5987 24.3441 43.0997 26.5221 43.6373 27.0491V29.2861ZM36.8878 22.0959V23.4709C36.5958 23.454 36.2969 23.4428 35.9881 23.4428C35.5601 23.4428 35.1488 23.4624 34.7502 23.4933V22.0945C34.7502 21.5058 35.2302 21.0279 35.8183 21.0279C36.4064 21.0279 36.8878 21.5086 36.8878 22.0959ZM45.0267 24.7813C42.8274 20.0425 42.3559 14.8062 43.6822 9.98607C55.8534 13.2672 64.9791 24.0287 65.7903 37.0047C64.9931 37.1126 64.1959 37.1659 63.4001 37.1659C55.838 37.1673 48.5467 32.3682 45.0267 24.7813ZM62.5917 40.6306C62.5875 40.6306 62.5833 40.6306 62.5791 40.6306H61.8029C61.1826 40.6306 60.6787 40.1261 60.6787 39.508C60.6787 38.8899 61.184 38.3853 61.8029 38.3853H65.8464C65.8492 38.5535 65.8534 38.7217 65.8534 38.8913C65.8534 39.4729 65.8352 40.0532 65.8015 40.632H62.5917V40.6306ZM39.4183 45.6848H32.1678C30.7292 45.6848 29.4646 46.4977 28.8457 47.7227V42.3055C28.8457 38.3474 25.6204 35.1266 21.6569 35.1266H17.4758C13.5123 35.1266 10.287 38.3474 10.287 42.3055V49.9625C10.287 51.971 11.1179 53.7889 12.454 55.0938L11.306 61.785C11.2639 62.0289 11.4281 62.2615 11.6737 62.3036C11.699 62.3078 11.7256 62.3106 11.7509 62.3106C11.9656 62.3106 12.1565 62.1564 12.1944 61.9378L13.254 55.7693C14.4414 56.6327 15.9011 57.1443 17.4786 57.1443H19.2877H19.5446L20.419 62.3849C20.4555 62.6049 20.6463 62.7605 20.8625 62.7605C20.8863 62.7605 20.9116 62.7591 20.9369 62.7549C21.1825 62.7142 21.3481 62.483 21.3074 62.2377L20.4569 57.1443H21.6597H27.0646L26.2674 61.7864C26.2253 62.0303 26.3895 62.2629 26.6351 62.305C26.6604 62.3092 26.6871 62.312 26.7123 62.312C26.9271 62.312 27.1179 62.1578 27.1558 61.9392L27.9783 57.1457H33.9109C34.2253 57.1457 34.5313 57.1092 34.8246 57.0406L35.7172 62.3863C35.7537 62.6063 35.9446 62.7619 36.1608 62.7619C36.1846 62.7619 36.2099 62.7605 36.2351 62.7563C36.4808 62.7156 36.6464 62.4844 36.6057 62.2391L35.6878 56.7364C37.0337 56.0777 37.9615 54.6971 37.9615 53.1035C37.9615 51.0431 36.4092 49.3374 34.4106 49.0921L33.9923 46.5888H39.4225C39.6709 46.5888 39.873 46.387 39.873 46.1389C39.873 45.8908 39.6667 45.6848 39.4183 45.6848ZM19.2849 56.2445H17.4758C15.9334 56.2445 14.5186 55.6866 13.4239 54.7616L14.426 48.9281C14.659 47.57 15.8295 46.5846 17.2091 46.5846H17.779L19.3916 56.2445H19.2849ZM21.6569 56.2445H20.3039L18.6913 46.5846H24.4597C24.7081 46.5846 24.9102 46.3828 24.9102 46.1347C24.9102 45.8866 24.7081 45.6848 24.4597 45.6848H17.2091C15.3902 45.6848 13.8463 46.9841 13.539 48.7753L12.6449 53.9795C11.7355 52.8904 11.1867 51.4888 11.1867 49.9625V42.3055C11.1867 38.8422 14.0077 36.025 17.4758 36.025H21.6569C25.1249 36.025 27.946 38.8422 27.946 42.3055V49.0543H21.3074C21.059 49.0543 20.8569 49.2561 20.8569 49.5042C20.8569 49.7523 21.059 49.9541 21.3074 49.9541H28.2969L27.2176 56.2445H21.6569ZM37.0562 53.0993C37.0562 54.8331 35.6429 56.2445 33.9067 56.2445H28.1299L29.2092 49.9541H33.9081C35.6443 49.9541 37.0562 51.3641 37.0562 53.0993ZM33.4885 49.0557H29.3636L29.386 48.9281C29.619 47.57 30.7895 46.5846 32.1692 46.5846H33.0772L33.4885 49.0557ZM64.1075 36.2408C64.1889 36.3894 64.3433 36.4749 64.5019 36.4749C64.5748 36.4749 64.6492 36.4567 64.718 36.4202C64.9355 36.3011 65.0155 36.0278 64.8963 35.8105L55.7847 19.1862C55.6654 18.9689 55.3917 18.889 55.1741 19.0082C54.9566 19.1273 54.8766 19.4006 54.9959 19.6179L64.1075 36.2408ZM55.5082 27.422C55.3468 27.2328 55.0632 27.2103 54.8738 27.3715C54.6843 27.5327 54.6618 27.8158 54.8232 28.005L61.3468 35.6437C61.4352 35.7475 61.5615 35.8021 61.6892 35.8021C61.7931 35.8021 61.8969 35.7671 61.9812 35.6942C62.1706 35.533 62.1931 35.2499 62.0317 35.0607L55.5082 27.422ZM64.2605 42.7036C64.0401 42.5887 63.7678 42.6742 63.6527 42.8928L59.8282 50.1938C59.7131 50.4138 59.7987 50.6857 60.0176 50.8006C60.0836 50.8357 60.1552 50.8525 60.2254 50.8525C60.3882 50.8525 60.544 50.7642 60.624 50.6114L64.4485 43.3105C64.5664 43.0904 64.4808 42.8185 64.2605 42.7036ZM80.5819 43.3441L79.9461 44.642C78.5889 43.9216 77.4619 42.8255 76.9721 41.2389L78.4163 40.7484C78.7629 41.8739 79.5138 42.7667 80.5819 43.3441ZM92.0177 40.3741C92.0177 43.6609 88.9566 45.7661 84.798 45.7661C84.5089 45.7661 84.1917 45.7661 83.9026 45.7367L84.624 44.2664C84.6815 44.2664 84.7391 44.2664 84.7966 44.2664C87.1363 44.2664 90.5145 43.3722 90.5145 40.3727C90.5145 37.749 88.1749 36.9697 84.3349 36.1049C81.0717 35.3256 77.4043 34.3459 77.4043 30.6835C77.4043 27.0505 80.4935 25.1472 84.0177 25.1472C84.711 25.1472 85.3454 25.2341 85.9237 25.321L84.9707 26.7043C84.6535 26.6763 84.3349 26.6469 83.9882 26.6469C80.5229 26.6469 78.9061 28.4353 78.9061 30.6835C78.9061 33.02 81.0436 33.8847 84.6815 34.6626C90.4584 35.9044 92.0177 37.4042 92.0177 40.3741ZM111.049 45.5362H109.432L102.675 27.8579L95.9461 45.5362H94.3293L102.039 25.349H103.338L111.049 45.5362ZM127.827 25.349H129.329V45.7367H129.097L115.438 29.0114V45.5348H113.936V25.1766H114.196L127.825 41.7589V25.349H127.827ZM150.352 35.4419C150.352 41.4982 146.425 45.5348 139.581 45.5348H133.95V35.7881H135.452V44.0365C136.175 44.0365 137.531 44.0365 139.957 44.0365C145.416 44.0365 148.679 40.576 148.679 35.4433C148.679 30.3107 145.271 26.8501 139.957 26.8501C135.222 26.8501 133.95 26.8501 133.95 26.8501V25.3504C133.95 25.3504 133.95 25.3504 139.581 25.3504C146.338 25.349 150.352 29.387 150.352 35.4419ZM166.814 45.5362L162.338 37.634C161.991 37.6635 161.645 37.6915 161.27 37.6915H155.639V45.5348H154.109V36.1918H161.386C164.418 36.1918 166.383 34.3459 166.383 31.5202C166.383 28.6652 164.332 26.8487 161.386 26.8487H154.109V25.349H161.271C165.487 25.349 167.97 27.9448 167.97 31.5202C167.97 34.2884 166.498 36.4805 163.869 37.3173L168.547 45.5362H166.814ZM187.288 45.5362H185.671L178.913 27.8579L172.185 45.5362H170.568L178.277 25.349H179.577L187.288 45.5362ZM108.816 53.2156H109.31V55.1582H111.837V53.2156H112.331V57.5886H111.837V55.6208H109.31V57.5886H108.816V53.2156ZM113.376 55.4021C113.376 54.1967 114.283 53.1413 115.615 53.1413C116.947 53.1413 117.842 54.1841 117.842 55.4021C117.842 56.6075 116.936 57.6629 115.604 57.6629C114.27 57.6629 113.376 56.6201 113.376 55.4021ZM117.329 55.4021C117.329 54.4084 116.603 53.5968 115.602 53.5968C114.602 53.5968 113.889 54.3958 113.889 55.4021C113.889 56.3958 114.614 57.2074 115.615 57.2074C116.616 57.2074 117.329 56.407 117.329 55.4021ZM118.887 53.2156H119.386L120.981 55.6011L122.575 53.2156H123.076V57.5886H122.582V54.0467L120.988 56.3888H120.962L119.368 54.0524V57.5872H118.887V53.2156ZM124.315 53.2156H127.48V53.6655H124.809V55.1582H127.198V55.6081H124.809V57.1387H127.511V57.5886H124.315V53.2156ZM131.539 53.6711H130.07V53.2156H133.51V53.6711H132.04V57.5872H131.541V53.6711H131.539ZM134.435 53.2156H137.6V53.6655H134.929V55.1582H137.317V55.6081H134.929V57.1387H137.63V57.5886H134.435V53.2156ZM139.977 55.3587L138.357 53.2156H138.938L140.283 55.0012L141.615 53.2156H142.19L140.571 55.3516L142.254 57.5872H141.666L140.265 55.7076L138.864 57.5872H138.294L139.977 55.3587ZM144.318 53.6711H142.849V53.2156H146.289V53.6711H144.819V57.5872H144.32V53.6711H144.318ZM147.257 53.2156H147.751V57.5886H147.257V53.2156ZM149.033 53.2156H149.527V57.1317H151.991V57.5872H149.033V53.2156ZM152.905 53.2156H156.07V53.6655H153.399V55.1582H155.788V55.6081H153.399V57.1387H156.101V57.5886H152.905V53.2156ZM197.661 51.4636V51.8743C197.661 52.0817 197.779 52.1882 197.966 52.1882C198.153 52.1882 198.273 52.0817 198.273 51.8687V51.4636H198.148V51.8743C198.148 52.006 198.08 52.0733 197.969 52.0733C197.856 52.0733 197.788 52.0018 197.788 51.8701V51.465H197.661V51.4636ZM198.932 51.4636H198.649V52.177H198.774V51.9472H198.916C199.073 51.9472 199.202 51.8631 199.202 51.7033C199.202 51.5589 199.097 51.4636 198.932 51.4636ZM198.92 51.835H198.774V51.5785H198.92C199.014 51.5785 199.075 51.622 199.075 51.7061C199.075 51.7818 199.016 51.835 198.92 51.835ZM196.242 51.6907C196.242 51.5533 196.144 51.4636 195.977 51.4636H195.659V52.177H195.783V51.9289H195.939L196.118 52.177H196.265L196.073 51.9065C196.172 51.8785 196.242 51.8084 196.242 51.6907ZM195.969 51.8182H195.785V51.5785H195.967C196.06 51.5785 196.115 51.6206 196.115 51.6963C196.115 51.7706 196.059 51.8182 195.969 51.8182ZM195.292 51.779H194.988V51.8883H195.17V52.0214C195.127 52.0537 195.065 52.0761 194.998 52.0761C194.852 52.0761 194.755 51.9682 194.755 51.821C194.755 51.6823 194.854 51.5673 194.986 51.5673C195.078 51.5673 195.131 51.5968 195.187 51.6444L195.267 51.5491C195.194 51.4874 195.117 51.4524 194.992 51.4524C194.777 51.4524 194.623 51.622 194.623 51.821C194.623 52.0312 194.77 52.1896 194.993 52.1896C195.12 52.1896 195.221 52.1392 195.291 52.0789V51.779H195.292ZM196.944 51.4524C196.725 51.4524 196.569 51.6206 196.569 51.821C196.569 52.0242 196.722 52.1896 196.941 52.1896C197.16 52.1896 197.316 52.0214 197.316 51.821C197.316 51.6178 197.163 51.4524 196.944 51.4524ZM196.944 52.0747C196.802 52.0747 196.701 51.9598 196.701 51.821C196.701 51.6808 196.801 51.5673 196.943 51.5673C197.085 51.5673 197.186 51.6823 197.186 51.821C197.186 51.9612 197.086 52.0747 196.944 52.0747ZM199.167 44.3365C199.254 44.2832 199.452 43.7898 199.308 43.909C199.205 43.9931 199.059 44.0225 198.982 44.0337C198.955 44.0379 198.94 44.0646 198.951 44.0898C198.996 44.1907 199.101 44.3771 199.167 44.3365ZM194.838 42.3784C194.838 42.3784 194.334 42.6938 194.419 43.3652C194.443 43.5894 194.268 43.8249 194.268 43.8249C194.268 43.8249 194.576 43.8067 194.675 43.5642C194.675 43.5642 194.532 44.2005 194.85 44.5635C194.996 44.7275 194.978 45.0989 194.978 45.0989C194.978 45.0989 195.242 44.963 195.233 44.6995C195.233 44.6995 195.743 45.2896 195.398 45.8348C195.398 45.8348 195.894 45.7198 195.847 45.1144C195.847 45.1144 195.907 45.9133 196.612 46.181C196.939 46.3141 197.121 46.4711 197.181 46.6169C197.181 46.6169 197.544 45.8124 197.094 45.3036C197.094 45.3036 197.496 45.4353 197.748 46.1459C198.255 45.3372 197.723 44.4051 197.723 44.4051C197.788 44.4178 197.993 44.5902 198.118 44.7009C198.094 44.6799 198.14 44.4949 198.144 44.4598C198.157 44.3407 198.147 44.2145 198.134 44.0968C198.111 43.8739 197.747 43.2797 198.036 43.1241C198.106 43.0862 198.216 43.0904 198.248 43.1787C198.258 43.2068 198.252 43.2376 198.242 43.2699H198.241C198.205 43.382 198.165 43.4479 198.07 43.5179C198.168 43.5586 198.271 43.5334 198.373 43.5446C198.311 43.595 198.269 43.6497 198.282 43.7366C198.297 43.8487 198.311 43.93 198.273 44.0393C198.362 44.0155 198.422 43.902 198.494 43.8501C198.513 43.9174 198.664 43.9426 198.725 43.9426C198.814 43.9426 198.913 43.9244 198.996 43.8936C199.01 43.888 199.03 43.8824 199.049 43.8753C199.207 43.8291 199.341 43.6777 199.384 43.6441C199.399 43.6315 199.424 43.6034 199.452 43.5684C199.456 43.5123 199.448 43.438 199.384 43.403C199.275 43.3455 199.188 43.2306 199.261 43.2082C199.311 43.1928 199.472 43.2194 199.57 43.2432C199.572 43.2418 199.57 43.2432 199.572 43.2418C199.426 43.0064 198.703 42.6588 198.703 42.6588C198.703 42.6588 198.635 42.5438 198.568 42.4331C198.501 42.3224 198.064 42.2789 198.064 42.2789C198.064 42.2789 198.184 41.8739 197.883 41.5921C197.583 41.3104 196.882 41.2656 196.736 40.8563C196.736 40.8563 196.655 41.2109 196.791 41.4282C196.791 41.4282 196.454 41.0287 195.626 41.3833C195.399 41.4828 195.135 41.4015 195.135 41.4015C195.135 41.4015 195.376 41.6286 195.689 41.6286C195.573 41.6426 195.462 41.6692 195.355 41.7169C195.249 41.7645 195.149 41.8276 195.062 41.9061C194.94 42.0154 194.866 42.1542 194.706 42.2116C194.605 42.2481 194.498 42.2705 194.391 42.2859C194.39 42.2873 194.631 42.4513 194.838 42.3784ZM198.526 42.6335L198.635 42.8199C198.358 42.8157 198.066 42.5859 198.066 42.5859C198.372 42.5326 198.526 42.6335 198.526 42.6335ZM196.011 45.0527C195.903 44.9616 195.802 44.7836 195.733 44.6574C195.687 44.5719 195.657 44.4794 195.636 44.3841C195.622 44.3182 195.636 44.2426 195.615 44.1809C195.572 44.244 195.574 44.3463 195.566 44.4234C195.556 44.5131 195.534 44.6056 195.532 44.6925C195.412 44.4906 195.353 44.2608 195.35 44.0253C195.348 43.9384 195.35 43.8459 195.369 43.759C195.374 43.7422 195.378 43.724 195.383 43.7071C195.414 43.6132 195.469 43.5376 195.529 43.4619C195.494 43.5053 195.504 43.5782 195.513 43.6287C195.515 43.6413 195.529 43.6791 195.525 43.6903C195.645 43.3554 195.96 43.1745 196.269 43.0428C196.151 43.1591 196.043 43.267 195.981 43.4226C195.965 43.4661 195.96 43.5235 195.939 43.5628C196.077 43.2965 196.345 43.1269 196.624 43.0288C196.724 42.9937 196.831 42.9769 196.937 42.9727C197.028 42.9685 197.12 43.0021 197.202 43.0358C197.169 43.0512 197.121 43.0484 197.085 43.054C197.04 43.061 196.996 43.0694 196.951 43.0806C196.866 43.1017 196.781 43.1325 196.706 43.1759C196.377 43.3652 196.129 43.6987 196.005 44.0575C195.886 44.4094 195.901 44.7107 196.011 45.0527ZM197.101 46.0745C197.097 45.9469 196.94 45.8081 196.859 45.7142C196.592 45.4087 196.366 45.0471 196.331 44.6336C196.301 44.279 196.418 43.7282 196.787 43.5656C196.725 43.5922 196.641 44.0365 196.617 44.1739C196.616 44.1851 196.614 44.1935 196.613 44.2005C196.565 44.5159 196.603 44.8144 196.759 45.0961C196.925 45.3933 197.097 45.7269 197.101 46.0745ZM197.736 43.4002C197.624 43.6847 197.685 43.9566 197.739 44.1402C197.652 44.0744 197.544 43.9202 197.545 43.8053C197.35 44.0842 197.42 44.4051 197.52 44.7065C197.567 44.8495 197.628 44.998 197.647 45.1494C197.667 45.2966 197.656 45.4549 197.664 45.6035C197.661 45.5362 197.621 45.4521 197.593 45.3905C197.546 45.284 197.494 45.1802 197.44 45.0765C197.384 44.9728 197.327 44.8691 197.273 44.7654C197.236 44.6953 197.212 44.628 197.2 44.5495C197.194 44.5131 197.153 44.3687 197.18 44.3463C197.072 44.4416 197.012 44.6378 196.955 44.7668C196.951 44.7682 196.948 44.7696 196.944 44.7682C196.905 44.7121 196.885 44.614 196.875 44.5453C196.832 44.2159 197.002 43.7646 197.274 43.567C197.409 43.4689 197.567 43.3904 197.736 43.4002ZM196.988 41.6174C197.188 41.6903 197.406 41.9986 197.406 41.9986C197.153 41.808 197.042 41.8276 197.042 41.8276V41.9341L196.679 41.8711C196.724 41.7715 196.988 41.6174 196.988 41.6174ZM196.401 42.2509C196.443 42.2747 196.487 42.2957 196.532 42.3055C196.631 42.3252 196.734 42.3686 196.835 42.3728C196.895 42.3756 197.035 42.3939 197.101 42.3798C197.013 42.4793 196.816 42.527 196.72 42.6966C196.6 42.5676 196.415 42.6083 196.278 42.6461C196.068 42.7022 195.817 42.7947 195.657 42.9951C195.704 42.7849 195.935 42.6433 196.07 42.5719C196.207 42.499 196.328 42.4555 196.474 42.4429C196.438 42.4457 196.336 42.3602 196.301 42.3336C196.248 42.2929 196.189 42.2313 196.179 42.1472C196.259 42.1612 196.329 42.2102 196.401 42.2509ZM194.953 42.9755C194.955 42.8592 194.962 42.7386 195.003 42.6279C195.034 42.541 195.127 42.3602 195.225 42.3294C195.153 42.3518 195.064 42.3588 194.985 42.3532C195.162 42.2397 195.322 42.0715 195.514 41.9776C195.712 41.8823 195.995 41.801 196.213 41.8458C196.057 41.958 195.821 42.0042 195.698 42.1514C195.775 42.15 195.869 42.1864 195.932 42.2257C195.882 42.2565 195.819 42.2607 195.764 42.2789C195.705 42.2999 195.649 42.3294 195.597 42.3644C195.494 42.4345 195.41 42.5284 195.339 42.6279C195.184 42.8396 195.059 43.0736 194.979 43.3231C194.991 43.2867 194.957 43.1914 194.955 43.1493C194.948 43.0919 194.951 43.033 194.953 42.9755ZM190.944 47.7059C190.988 47.7129 191.577 47.7942 191.791 47.5279C191.802 47.5139 191.873 47.4242 191.858 47.3499C191.835 47.242 191.643 47.2378 191.529 47.2364C190.689 47.2238 190.484 47.2532 190.029 47.2784C189.844 47.2882 189.605 47.298 189.357 47.4522C189.209 47.5433 189.152 47.6274 189.124 47.6751C189.073 47.7662 189.026 47.9218 189.103 48.0017C189.186 48.0858 189.369 48.0451 189.487 47.9708C189.616 47.8881 189.629 47.7872 189.761 47.7199C189.849 47.6751 189.934 47.6737 189.99 47.6793C189.876 48.1124 189.786 48.4726 189.722 48.7431C189.529 49.5322 189.587 49.3318 189.569 49.4243C189.535 49.5911 189.503 49.7691 189.471 49.9779C189.451 50.0984 189.688 50.0858 189.788 50.0914C189.847 50.0956 190.095 50.0872 190.14 50.0031C190.261 49.7789 190.482 49.165 190.557 48.9337C190.722 48.4277 190.819 48.146 190.944 47.7059ZM191.569 48.2077C191.465 48.5132 191.369 48.8202 191.284 49.1271C191.127 49.6976 191.177 49.9751 191.332 50.0886C191.517 50.2246 191.82 50.1335 191.911 50.1055C192.325 49.9807 192.579 49.6429 192.627 49.577C192.616 49.6177 192.606 49.6611 192.605 49.699C192.579 49.7845 192.6 49.8812 192.633 49.9401C192.692 50.0522 192.819 50.104 192.948 50.1293C193.214 50.1825 193.552 50.1307 193.837 49.9793C193.892 49.9499 193.939 49.919 193.983 49.8896C193.983 49.9387 193.991 49.9849 194.018 50.0228C194.085 50.1167 194.214 50.1363 194.341 50.1377C194.414 50.1391 194.488 50.1321 194.564 50.1153C194.628 50.1012 194.728 50.0788 194.784 50.0298C194.881 49.9471 194.937 49.8756 194.975 49.7635C194.998 49.6976 195.012 49.6289 195.03 49.563C195.041 49.521 195.052 49.4789 195.065 49.4355C195.076 49.4089 195.089 49.3794 195.104 49.3486C195.155 49.2393 195.207 49.1299 195.291 49.0066C195.43 48.8048 195.681 48.5357 195.814 48.5623C195.837 48.5665 195.851 48.5791 195.865 48.5931C195.858 48.5861 195.781 48.6828 195.774 48.694C195.689 48.8048 195.656 48.9155 195.727 49.0038C195.845 49.1482 196.098 49.1832 196.307 49.1608C196.381 49.1524 196.459 49.1426 196.534 49.1173C196.569 49.1061 196.614 49.0907 196.641 49.0613C196.685 49.0136 196.647 48.9898 196.631 48.9561C196.624 48.9393 196.62 48.9197 196.619 48.9001C196.616 48.8734 196.619 48.8454 196.621 48.8174C196.642 48.6198 196.718 48.3983 196.626 48.2357C196.55 48.1026 196.369 48.0858 196.315 48.0815C195.939 48.0479 195.551 48.4095 195.424 48.5273C195.386 48.5623 195.316 48.6296 195.24 48.7207C195.278 48.5553 195.318 48.3913 195.355 48.2259C195.372 48.1558 195.299 48.111 195.252 48.09C195.166 48.0507 195.041 48.0395 194.937 48.0465C194.828 48.0535 194.706 48.0675 194.596 48.1208C194.529 48.153 194.45 48.1951 194.428 48.2694C194.341 48.5595 194.255 48.851 194.168 49.1412C194.134 49.2519 194.106 49.364 194.077 49.4747C194.039 49.5182 193.995 49.5644 193.945 49.6107C193.733 49.7999 193.458 49.9092 193.395 49.849C193.392 49.8476 193.391 49.8434 193.389 49.8405C193.455 49.8097 193.515 49.7663 193.559 49.7102C193.618 49.6345 193.615 49.5336 193.631 49.4537C193.712 49.0108 193.838 48.5567 193.974 48.1124C193.995 48.0409 193.911 47.9904 193.866 47.9694C193.776 47.9288 193.646 47.9162 193.536 47.9246C193.421 47.9316 193.294 47.947 193.179 48.0031C193.108 48.0367 193.027 48.0801 193.002 48.1586C192.926 48.4011 192.859 48.645 192.797 48.8875C192.722 49.1173 192.62 49.4215 192.447 49.5756C192.388 49.6275 192.157 49.8083 192.162 49.6724C192.169 49.5182 192.223 49.3458 192.259 49.1874C192.335 48.8468 192.419 48.5048 192.513 48.1628C192.533 48.0928 192.453 48.0451 192.408 48.0255C192.321 47.9862 192.195 47.975 192.089 47.982C191.952 47.9904 191.632 48.0241 191.569 48.2077ZM201.643 47.9848C201.528 47.9904 201.396 48.0143 201.285 48.0858C201.156 48.1684 201.127 48.2764 201.08 48.3997C201.002 48.6085 200.93 48.8188 200.838 49.0248C200.758 49.2028 200.664 49.364 200.53 49.5238C200.526 49.528 200.523 49.5308 200.519 49.535C200.488 49.4033 200.473 49.2687 200.475 49.1257C200.481 48.8132 200.547 48.4866 200.679 48.1684C200.787 47.9063 199.879 47.9162 199.743 48.2133C199.574 48.5791 199.492 48.9505 199.508 49.3051C199.51 49.3374 199.513 49.371 199.514 49.4047C199.456 49.4719 199.388 49.5588 199.292 49.6429C199.078 49.8321 198.8 49.9415 198.736 49.8812C198.734 49.8798 198.732 49.8756 198.731 49.8728C198.797 49.8406 198.859 49.7985 198.902 49.7424C198.954 49.6752 198.96 49.5644 198.976 49.493C199.01 49.343 199.047 49.193 199.086 49.043C199.165 48.7431 199.252 48.4432 199.35 48.1432C199.372 48.0717 199.288 48.0213 199.245 48.0003C199.155 47.9596 199.026 47.947 198.915 47.9554C198.8 47.9624 198.672 47.9778 198.555 48.0339C198.541 48.0409 198.527 48.0479 198.513 48.0549C198.296 47.9918 198.039 47.9974 197.784 48.0661C197.197 48.2245 196.791 48.7964 196.652 49.364C196.613 49.5252 196.586 49.7663 196.682 49.9148C196.753 50.0256 196.889 50.1027 197.013 50.1363C197.33 50.2246 197.692 50.1237 197.97 49.9653C197.972 49.9681 197.972 49.9709 197.973 49.9737C198.029 50.0858 198.155 50.1377 198.285 50.1629C198.548 50.2162 198.888 50.1643 199.176 50.013C199.362 49.9148 199.479 49.7971 199.541 49.734C199.541 49.734 199.551 49.7242 199.565 49.7088C199.581 49.7677 199.604 49.8223 199.632 49.8742C199.74 50.0746 199.911 50.1237 200.161 50.1223C200.15 50.1237 200.139 50.1251 200.127 50.1279C200.266 50.1153 200.408 50.0998 200.55 50.0592C200.822 49.9807 201.035 49.7733 201.239 49.5658C201.346 49.4579 201.702 48.8973 201.754 48.8048C201.842 48.645 201.922 48.481 201.99 48.317C202.098 48.0437 201.868 47.975 201.643 47.9848ZM198.106 49.0893C198.07 49.2267 198.036 49.3654 198.004 49.5028C197.894 49.6247 197.771 49.7396 197.628 49.8139C197.604 49.8265 197.588 49.8293 197.581 49.8307C197.581 49.8307 197.562 49.8321 197.545 49.8209C197.44 49.7495 197.503 49.4565 197.503 49.4565C197.579 49.0977 197.814 48.488 198.098 48.3927C198.168 48.3689 198.22 48.3703 198.22 48.3703C198.259 48.3703 198.287 48.3801 198.31 48.3927C198.237 48.624 198.168 48.8566 198.106 49.0893ZM204.999 49.3206C204.988 49.2757 204.895 49.2813 204.888 49.2813C204.777 49.2883 204.696 49.4705 204.501 49.6429C204.286 49.8321 204.008 49.9415 203.945 49.8812C203.942 49.8798 203.941 49.8756 203.939 49.8728C204.005 49.8406 204.067 49.7985 204.111 49.7424C204.162 49.6752 204.168 49.5644 204.185 49.493C204.219 49.343 204.255 49.193 204.294 49.043C204.373 48.7431 204.46 48.4432 204.558 48.1432C204.581 48.0717 204.497 48.0213 204.453 48.0003C204.363 47.9596 204.234 47.947 204.123 47.9554C204.008 47.9624 203.88 47.9778 203.764 48.0339C203.75 48.0409 203.736 48.0479 203.722 48.0549C203.504 47.9918 203.247 47.9974 202.992 48.0661C202.405 48.2245 202 48.7964 201.861 49.364C201.821 49.5252 201.795 49.7663 201.89 49.9148C201.962 50.0256 202.098 50.1027 202.221 50.1363C202.539 50.2246 202.901 50.1237 203.179 49.9653C203.18 49.9681 203.18 49.9709 203.181 49.9737C203.238 50.0858 203.364 50.1377 203.493 50.1629C203.757 50.2162 204.096 50.1643 204.384 50.013C204.571 49.9148 204.687 49.7971 204.749 49.734C204.749 49.734 204.964 49.521 204.999 49.3402C205 49.3318 205 49.3262 204.999 49.3206ZM203.316 49.0893C203.28 49.2267 203.246 49.3654 203.214 49.5028C203.104 49.6247 202.981 49.7396 202.838 49.8139C202.814 49.8265 202.798 49.8293 202.791 49.8307C202.791 49.8307 202.772 49.8321 202.755 49.8209C202.649 49.7495 202.713 49.4565 202.713 49.4565C202.788 49.0977 203.024 48.488 203.308 48.3927C203.378 48.3689 203.43 48.3703 203.43 48.3703C203.469 48.3703 203.497 48.3801 203.52 48.3927C203.447 48.624 203.378 48.8566 203.316 49.0893ZM203.433 50.3942C203.395 50.383 203.354 50.4068 203.344 50.4446C202.558 53.3151 199.927 55.3194 196.944 55.3194C193.942 55.3194 191.306 53.2983 190.533 50.4054C190.523 50.3676 190.482 50.3437 190.445 50.3549C190.407 50.3647 190.383 50.4054 190.394 50.4432C191.184 53.3992 193.878 55.4638 196.944 55.4638C198.461 55.4638 199.894 54.9746 201.092 54.0496C202.251 53.1539 203.1 51.8869 203.485 50.4825C203.494 50.4446 203.471 50.4054 203.433 50.3942ZM198.617 42.2817C201.233 42.9615 203.158 45.127 203.518 47.8012C203.522 47.8377 203.555 47.8643 203.59 47.8643C203.593 47.8643 203.597 47.8643 203.6 47.8643C203.639 47.8587 203.667 47.8223 203.661 47.783C203.48 46.4459 202.908 45.2027 202.005 44.1921C201.108 43.1886 199.949 42.4794 198.654 42.143C198.614 42.1332 198.575 42.1556 198.565 42.1948C198.555 42.2313 198.578 42.2719 198.617 42.2817ZM190.416 47.1411C190.422 47.1425 190.428 47.1439 190.433 47.1439C190.466 47.1439 190.495 47.1214 190.503 47.0892C190.998 45.1073 192.415 43.4352 194.296 42.6181C194.332 42.6027 194.349 42.5592 194.334 42.5228C194.318 42.4864 194.275 42.4695 194.238 42.485C193.296 42.8942 192.445 43.5263 191.776 44.3098C191.101 45.1017 190.613 46.0506 190.363 47.0542C190.355 47.092 190.379 47.1313 190.416 47.1411ZM196.943 55.1204C194.061 55.1204 191.511 53.1862 190.742 50.4152C190.736 50.3956 190.717 50.3844 190.697 50.39C190.678 50.3956 190.666 50.4152 190.672 50.4348C191.045 51.7762 191.861 52.9871 192.972 53.8421C194.119 54.7251 195.492 55.1919 196.943 55.1919C198.394 55.1919 199.767 54.7251 200.913 53.8421C202.024 52.9871 202.84 51.7762 203.214 50.4348C203.219 50.4152 203.208 50.3956 203.188 50.39C203.169 50.3844 203.149 50.3956 203.144 50.4152C202.374 53.1848 199.826 55.1204 196.943 55.1204ZM203.351 47.8279C203.353 47.8279 203.354 47.8279 203.357 47.8279C203.377 47.8251 203.391 47.8068 203.388 47.7872C203.035 45.2713 201.229 43.1801 198.787 42.4611C198.767 42.4555 198.748 42.4667 198.742 42.485C198.736 42.5046 198.748 42.5242 198.766 42.5298C201.181 43.2404 202.968 45.3078 203.316 47.797C203.318 47.8152 203.333 47.8279 203.351 47.8279ZM194.283 42.8424C194.301 42.834 194.31 42.8129 194.301 42.7947C194.293 42.7765 194.272 42.7681 194.254 42.7765C193.382 43.1731 192.592 43.7702 191.972 44.5033C191.346 45.2433 190.887 46.1277 190.644 47.0626C190.638 47.0822 190.651 47.1018 190.669 47.106C190.672 47.1074 190.675 47.1074 190.678 47.1074C190.693 47.1074 190.708 47.0962 190.713 47.0808C191.202 45.1956 192.503 43.6497 194.283 42.8424ZM197.72 54.0047C197.6 54.0047 197.489 53.9613 197.405 53.8898C197.395 53.8828 197.385 53.8744 197.375 53.8645L196.736 53.2394C196.501 53.0054 196.118 53.0054 195.882 53.2408C195.767 53.3558 195.708 53.5043 195.705 53.6557C195.767 53.4651 195.951 53.3263 196.167 53.3263C196.287 53.3263 196.398 53.3698 196.482 53.4413C196.492 53.4483 196.502 53.4567 196.512 53.4665L197.151 54.0916C197.386 54.3257 197.769 54.3257 198.005 54.0902C198.12 53.9753 198.179 53.8267 198.182 53.6753C198.119 53.8659 197.936 54.0047 197.72 54.0047ZM197.151 53.2338L196.991 53.3936L197.218 53.6165L197.375 53.4595C197.486 53.3488 197.668 53.3488 197.779 53.4595C197.89 53.5702 197.89 53.7524 197.779 53.8631C197.744 53.8982 197.704 53.922 197.659 53.9346C197.678 53.9374 197.699 53.9388 197.72 53.9388C197.889 53.9388 198.047 53.8365 198.112 53.6795C198.155 53.5702 198.143 53.4581 198.095 53.3586C198.063 53.2927 198.014 53.2324 197.956 53.1834C197.723 52.9942 197.36 53.025 197.151 53.2338ZM196.671 53.7118L196.512 53.8688C196.401 53.9795 196.219 53.9795 196.108 53.8688C195.997 53.758 195.997 53.5758 196.108 53.4651C196.143 53.43 196.184 53.4062 196.228 53.3936C196.209 53.3908 196.188 53.3894 196.167 53.3894C195.935 53.3894 195.747 53.573 195.747 53.7987C195.747 53.9571 195.856 54.0972 195.986 54.1799C196.22 54.3299 196.54 54.292 196.736 54.0972L196.899 53.9374L196.671 53.7118ZM203.009 50.4601C203.012 50.4601 203.013 50.4615 203.016 50.4615C203.026 50.4615 203.035 50.4545 203.04 50.4432L203.042 50.432C203.047 50.4194 203.038 50.4054 203.026 50.4026C203.013 50.3984 202.999 50.4068 202.996 50.4194L202.993 50.4306C202.989 50.4432 202.996 50.4559 203.009 50.4601ZM193.485 53.9627C193.473 53.9556 193.458 53.9585 193.451 53.9697C193.444 53.9809 193.447 53.9963 193.458 54.0033L193.478 54.0173C193.482 54.0201 193.486 54.0215 193.49 54.0215C193.499 54.0215 193.506 54.0173 193.51 54.0103C193.517 53.9991 193.514 53.9837 193.503 53.9767L193.485 53.9627ZM194.438 54.4784C194.425 54.4728 194.411 54.4784 194.405 54.4911C194.4 54.5037 194.405 54.5177 194.418 54.5233L194.44 54.5331C194.443 54.5345 194.447 54.5345 194.45 54.5345C194.46 54.5345 194.468 54.5289 194.473 54.5205C194.478 54.5079 194.473 54.4939 194.46 54.4883L194.438 54.4784ZM194.328 54.4294C194.315 54.4238 194.301 54.4294 194.296 54.4406C194.29 54.4532 194.296 54.4672 194.307 54.4728L194.329 54.4827C194.332 54.4841 194.336 54.4855 194.339 54.4855C194.349 54.4855 194.358 54.4798 194.362 54.4714C194.367 54.4588 194.362 54.4448 194.349 54.4392L194.328 54.4294ZM194.548 54.5261C194.536 54.5205 194.522 54.5275 194.518 54.5387C194.512 54.5513 194.519 54.5653 194.53 54.5695L194.553 54.5794C194.555 54.5808 194.558 54.5808 194.561 54.5808C194.571 54.5808 194.579 54.5752 194.584 54.5653C194.589 54.5527 194.582 54.5387 194.571 54.5345L194.548 54.5261ZM193.155 53.7608C193.146 53.772 193.149 53.7861 193.16 53.7945L193.18 53.8085C193.184 53.8113 193.19 53.8127 193.194 53.8127C193.201 53.8127 193.208 53.8099 193.214 53.8029C193.222 53.7917 193.219 53.7776 193.208 53.7692L193.188 53.7552C193.179 53.7482 193.163 53.751 193.155 53.7608ZM194.219 54.3789C194.206 54.3733 194.192 54.3775 194.186 54.3901C194.181 54.4028 194.185 54.4168 194.198 54.4224L194.22 54.4322C194.223 54.4336 194.227 54.435 194.23 54.435C194.238 54.435 194.248 54.4294 194.252 54.421C194.258 54.4084 194.252 54.3943 194.241 54.3887L194.219 54.3789ZM193.253 53.8323C193.245 53.8435 193.247 53.8575 193.259 53.8659L193.278 53.88C193.282 53.8828 193.287 53.8842 193.292 53.8842C193.299 53.8842 193.308 53.88 193.312 53.8744C193.319 53.8631 193.318 53.8491 193.306 53.8407L193.287 53.8267C193.275 53.8197 193.26 53.8211 193.253 53.8323ZM193.351 53.9024C193.344 53.9136 193.347 53.9276 193.357 53.936L193.376 53.95C193.381 53.9528 193.385 53.9542 193.391 53.9542C193.398 53.9542 193.406 53.95 193.41 53.943C193.417 53.9318 193.414 53.9164 193.403 53.9094L193.383 53.8954C193.374 53.8884 193.358 53.8912 193.351 53.9024ZM194.002 54.2696C193.991 54.264 193.976 54.2682 193.97 54.2794C193.965 54.2906 193.969 54.306 193.98 54.3117L194.001 54.3229C194.005 54.3243 194.008 54.3257 194.012 54.3257C194.021 54.3257 194.029 54.3215 194.033 54.3131C194.039 54.3018 194.035 54.2864 194.023 54.2808L194.002 54.2696ZM193.586 54.0285C193.574 54.0215 193.559 54.0243 193.552 54.0355C193.545 54.0468 193.548 54.0622 193.559 54.0692L193.58 54.0818C193.584 54.0846 193.588 54.086 193.593 54.086C193.601 54.086 193.608 54.0818 193.614 54.0748C193.621 54.0636 193.618 54.0482 193.607 54.0411L193.586 54.0285ZM193.897 54.2121C193.886 54.2051 193.871 54.2093 193.865 54.222C193.858 54.2332 193.862 54.2486 193.875 54.2542L193.896 54.2654C193.9 54.2668 193.903 54.2682 193.907 54.2682C193.915 54.2682 193.924 54.264 193.928 54.2556C193.935 54.2444 193.931 54.229 193.918 54.2234L193.897 54.2121ZM194.111 54.3257C194.099 54.3201 194.084 54.3243 194.078 54.3369C194.073 54.3481 194.077 54.3635 194.089 54.3691L194.112 54.3803C194.115 54.3817 194.119 54.3831 194.123 54.3831C194.132 54.3831 194.14 54.3789 194.144 54.3691C194.15 54.3579 194.146 54.3425 194.133 54.3369L194.111 54.3257ZM193.688 54.0916C193.677 54.0846 193.661 54.0888 193.654 54.1C193.647 54.1112 193.652 54.1266 193.663 54.1336L193.684 54.1463C193.688 54.1491 193.692 54.1491 193.696 54.1491C193.705 54.1491 193.713 54.1449 193.718 54.1379C193.725 54.1266 193.72 54.1112 193.709 54.1042L193.688 54.0916ZM193.792 54.1533C193.781 54.1463 193.765 54.1505 193.76 54.1617C193.753 54.1729 193.757 54.1883 193.768 54.1939L193.789 54.2065C193.793 54.2093 193.798 54.2093 193.802 54.2093C193.81 54.2093 193.819 54.2051 193.823 54.1967C193.83 54.1855 193.826 54.1701 193.814 54.1645L193.792 54.1533ZM193.059 53.6879C193.051 53.6978 193.054 53.7132 193.063 53.7216L193.083 53.737C193.087 53.7398 193.093 53.7426 193.097 53.7426C193.104 53.7426 193.111 53.7398 193.117 53.7328C193.125 53.7216 193.122 53.7076 193.113 53.6992L193.093 53.6837C193.082 53.6753 193.068 53.6767 193.059 53.6879ZM191.879 52.484C191.868 52.4924 191.866 52.5064 191.875 52.5176L191.889 52.5372C191.893 52.5428 191.901 52.547 191.908 52.547C191.914 52.547 191.918 52.5456 191.922 52.5428C191.934 52.5344 191.935 52.519 191.927 52.5092L191.913 52.4896C191.906 52.4784 191.89 52.4756 191.879 52.484ZM192.104 52.7671C192.094 52.7755 192.092 52.7909 192.101 52.8007L192.116 52.819C192.12 52.8246 192.127 52.8274 192.134 52.8274C192.14 52.8274 192.146 52.826 192.15 52.8218C192.16 52.8133 192.161 52.7979 192.153 52.7881L192.137 52.7699C192.13 52.7601 192.115 52.7587 192.104 52.7671ZM192.028 52.6746C192.018 52.683 192.016 52.6984 192.025 52.7082L192.04 52.7264C192.045 52.7321 192.052 52.7349 192.059 52.7349C192.064 52.7349 192.07 52.7335 192.074 52.7293C192.084 52.7208 192.085 52.7054 192.077 52.6956L192.061 52.6774C192.053 52.6676 192.038 52.6662 192.028 52.6746ZM191.952 52.5807C191.942 52.5891 191.939 52.6045 191.948 52.6143L191.963 52.6339C191.967 52.6395 191.974 52.6438 191.981 52.6438C191.987 52.6438 191.991 52.6423 191.997 52.6381C192.007 52.6297 192.009 52.6143 192.001 52.6045L191.986 52.5863C191.979 52.5737 191.963 52.5723 191.952 52.5807ZM192.182 52.8596C192.172 52.868 192.171 52.8834 192.179 52.8932L192.195 52.9115C192.199 52.9171 192.206 52.9199 192.213 52.9199C192.219 52.9199 192.224 52.9185 192.228 52.9143C192.238 52.9059 192.24 52.8904 192.23 52.8806L192.214 52.8624C192.207 52.8512 192.193 52.8498 192.182 52.8596ZM191.671 52.1882C191.66 52.1952 191.657 52.2107 191.664 52.2219L191.678 52.2415C191.682 52.2485 191.691 52.2527 191.698 52.2527C191.702 52.2527 191.708 52.2513 191.712 52.2485C191.723 52.2415 191.726 52.2261 191.719 52.2149L191.705 52.1952C191.696 52.184 191.682 52.1812 191.671 52.1882ZM192.264 52.9493C192.254 52.9577 192.254 52.9731 192.262 52.9829L192.279 53.0012C192.283 53.0068 192.29 53.0096 192.297 53.0096C192.303 53.0096 192.308 53.0082 192.314 53.0026C192.324 52.9942 192.324 52.9787 192.315 52.9689L192.299 52.9507C192.287 52.9409 192.273 52.9409 192.264 52.9493ZM191.739 52.2877C191.727 52.2948 191.725 52.3102 191.733 52.3214L191.747 52.341C191.751 52.348 191.76 52.3508 191.767 52.3508C191.771 52.3508 191.776 52.3494 191.781 52.3466C191.792 52.3396 191.795 52.3242 191.786 52.313L191.772 52.2934C191.764 52.2835 191.75 52.2807 191.739 52.2877ZM191.807 52.3873C191.796 52.3957 191.795 52.4097 191.802 52.4209L191.816 52.4405C191.82 52.4475 191.828 52.4503 191.835 52.4503C191.841 52.4503 191.845 52.4489 191.849 52.4461C191.861 52.4377 191.862 52.4237 191.855 52.4125L191.841 52.3929C191.834 52.3816 191.819 52.3788 191.807 52.3873ZM192.429 53.1245C192.419 53.1343 192.419 53.1497 192.429 53.1581L192.446 53.175C192.45 53.1792 192.457 53.182 192.463 53.182C192.468 53.182 192.475 53.1792 192.48 53.175C192.489 53.1651 192.489 53.1497 192.48 53.1413L192.463 53.1245C192.453 53.1161 192.438 53.1161 192.429 53.1245ZM192.689 53.3768C192.68 53.3866 192.68 53.402 192.69 53.4104L192.708 53.4272C192.713 53.4314 192.718 53.4328 192.724 53.4328C192.731 53.4328 192.736 53.43 192.742 53.4244C192.751 53.4146 192.751 53.3992 192.741 53.3908L192.722 53.3754C192.714 53.3656 192.699 53.367 192.689 53.3768ZM192.78 53.4567C192.772 53.4665 192.773 53.4819 192.783 53.4903L192.801 53.5057C192.805 53.5099 192.811 53.5113 192.816 53.5113C192.823 53.5113 192.831 53.5085 192.835 53.5029C192.843 53.4931 192.842 53.4777 192.832 53.4693L192.814 53.4539C192.804 53.4455 192.788 53.4469 192.78 53.4567ZM192.871 53.5352C192.863 53.545 192.864 53.5604 192.874 53.5688L192.892 53.5842C192.896 53.5884 192.902 53.5898 192.908 53.5898C192.915 53.5898 192.922 53.587 192.926 53.5814C192.934 53.5716 192.933 53.5562 192.923 53.5478L192.905 53.5324C192.895 53.524 192.88 53.5254 192.871 53.5352ZM192.345 53.0376C192.335 53.0474 192.335 53.0614 192.343 53.0712L192.36 53.0895C192.365 53.0951 192.372 53.0965 192.377 53.0965C192.383 53.0965 192.39 53.0937 192.394 53.0895C192.404 53.0797 192.404 53.0656 192.395 53.0558L192.379 53.039C192.37 53.0292 192.355 53.0292 192.345 53.0376ZM192.964 53.6123C192.955 53.6221 192.957 53.6375 192.968 53.6459L192.988 53.6613C192.992 53.6655 192.998 53.6669 193.003 53.6669C193.01 53.6669 193.017 53.6641 193.021 53.6585C193.03 53.6487 193.028 53.6333 193.017 53.6249L192.999 53.6095C192.988 53.601 192.972 53.6024 192.964 53.6123ZM192.6 53.2941C192.591 53.3039 192.592 53.3193 192.602 53.3277L192.62 53.3446C192.624 53.3488 192.631 53.3516 192.637 53.3516C192.644 53.3516 192.649 53.3488 192.655 53.3446C192.663 53.3347 192.663 53.3193 192.654 53.3109L192.635 53.2941C192.626 53.2843 192.61 53.2843 192.6 53.2941ZM192.513 53.21C192.503 53.2198 192.505 53.2352 192.513 53.2436L192.53 53.2605C192.534 53.2647 192.541 53.2675 192.547 53.2675C192.553 53.2675 192.56 53.2647 192.564 53.2605C192.574 53.2506 192.572 53.2352 192.564 53.2268L192.547 53.21C192.539 53.2002 192.523 53.2002 192.513 53.21ZM197.162 54.9914L197.138 54.9928C197.125 54.9928 197.114 55.004 197.114 55.0181C197.114 55.0307 197.125 55.0419 197.138 55.0419C197.138 55.0419 197.138 55.0419 197.139 55.0419L197.163 55.0405C197.176 55.0405 197.187 55.0293 197.187 55.0153C197.187 55.0026 197.176 54.9914 197.162 54.9914C197.163 54.9914 197.163 54.9914 197.162 54.9914ZM197.019 54.9956C197.006 54.9956 196.995 55.0068 196.995 55.0195C196.995 55.0321 197.006 55.0433 197.019 55.0433H197.042C197.055 55.0433 197.066 55.0321 197.066 55.0195C197.066 55.0068 197.055 54.9956 197.042 54.9956H197.019ZM196.297 54.9634C196.283 54.962 196.272 54.9718 196.271 54.9844C196.269 54.997 196.279 55.0096 196.292 55.0111L196.315 55.0139C196.317 55.0139 196.317 55.0139 196.318 55.0139C196.331 55.0139 196.341 55.004 196.342 54.9914C196.344 54.9788 196.334 54.9662 196.321 54.9648L196.297 54.9634ZM191.605 52.0873C191.594 52.0943 191.591 52.1097 191.598 52.121L191.611 52.1406C191.615 52.1476 191.623 52.1518 191.631 52.1518C191.635 52.1518 191.639 52.1504 191.643 52.1476C191.654 52.1406 191.657 52.1252 191.65 52.1139L191.638 52.0943C191.632 52.0831 191.616 52.0803 191.605 52.0873ZM197.259 54.9886C197.246 54.9886 197.235 55.0012 197.236 55.0139C197.236 55.0265 197.247 55.0363 197.26 55.0363H197.261L197.285 55.0349C197.298 55.0335 197.309 55.0223 197.308 55.0096C197.306 54.997 197.295 54.9858 197.282 54.9872L197.259 54.9886ZM196.656 54.99C196.642 54.9886 196.633 54.9998 196.631 55.0125C196.631 55.0251 196.641 55.0377 196.655 55.0377L196.679 55.0391C196.679 55.0391 196.679 55.0391 196.68 55.0391C196.693 55.0391 196.704 55.0293 196.704 55.0167C196.704 55.004 196.694 54.9928 196.682 54.9914L196.656 54.99ZM196.416 54.9746C196.402 54.9732 196.391 54.983 196.39 54.997C196.388 55.0097 196.398 55.0223 196.412 55.0237L196.436 55.0251H196.438C196.45 55.0251 196.46 55.0153 196.461 55.0026C196.463 54.99 196.453 54.9774 196.439 54.9774L196.416 54.9746ZM196.537 54.983C196.523 54.983 196.512 54.9928 196.512 55.0054C196.511 55.0181 196.522 55.0307 196.534 55.0307L196.558 55.0321H196.56C196.572 55.0321 196.584 55.0223 196.584 55.0096C196.585 54.997 196.574 54.9844 196.561 54.9844L196.537 54.983ZM197.499 54.9718C197.486 54.9732 197.476 54.9844 197.476 54.9984C197.478 55.0111 197.487 55.0209 197.5 55.0209C197.501 55.0209 197.501 55.0209 197.503 55.0209L197.527 55.0181C197.539 55.0167 197.549 55.0055 197.549 54.9914C197.548 54.9788 197.536 54.969 197.522 54.969L197.499 54.9718ZM196.777 54.9942C196.763 54.9942 196.753 55.004 196.752 55.0181C196.752 55.0307 196.762 55.0419 196.776 55.0433H196.8C196.812 55.0433 196.824 55.0335 196.824 55.0195C196.824 55.0068 196.814 54.9956 196.8 54.9942H196.777ZM198.095 54.8905C198.082 54.8933 198.073 54.9059 198.075 54.9185C198.078 54.9298 198.088 54.9382 198.099 54.9382C198.101 54.9382 198.102 54.9382 198.104 54.9382L198.127 54.934C198.14 54.9312 198.148 54.9185 198.147 54.9059C198.144 54.8933 198.132 54.8849 198.119 54.8863L198.095 54.8905ZM194.661 54.571C194.648 54.5667 194.634 54.5724 194.63 54.585C194.626 54.5976 194.631 54.6116 194.644 54.6158L194.666 54.6242C194.669 54.6256 194.672 54.6256 194.675 54.6256C194.685 54.6256 194.693 54.62 194.697 54.6102C194.701 54.5976 194.696 54.5836 194.683 54.5794L194.661 54.571ZM202.718 51.2015L202.708 51.2239C202.703 51.2365 202.708 51.2506 202.721 51.2562C202.724 51.2576 202.728 51.2576 202.731 51.2576C202.741 51.2576 202.749 51.252 202.753 51.2435L202.763 51.2211C202.769 51.2085 202.763 51.1945 202.751 51.1889C202.736 51.1833 202.722 51.1889 202.718 51.2015ZM197.619 54.9592C197.607 54.9606 197.597 54.9718 197.598 54.9858C197.6 54.9984 197.609 55.0069 197.622 55.0069C197.624 55.0069 197.624 55.0069 197.625 55.0069L197.649 55.004C197.661 55.0026 197.671 54.99 197.67 54.9774C197.668 54.9648 197.657 54.955 197.643 54.9564L197.619 54.9592ZM197.976 54.9115C197.963 54.9143 197.953 54.9256 197.956 54.9396C197.958 54.9508 197.969 54.9592 197.98 54.9592C197.981 54.9592 197.983 54.9592 197.984 54.9592L198.008 54.955C198.021 54.9522 198.031 54.941 198.028 54.927C198.025 54.9143 198.014 54.9045 198 54.9073L197.976 54.9115ZM197.739 54.9466C197.726 54.948 197.716 54.9606 197.718 54.9732C197.719 54.9858 197.729 54.9942 197.741 54.9942C197.743 54.9942 197.743 54.9942 197.744 54.9942L197.768 54.9914C197.781 54.99 197.791 54.9774 197.789 54.9648C197.788 54.9522 197.775 54.9424 197.762 54.9438L197.739 54.9466ZM197.858 54.9298C197.845 54.9312 197.835 54.9438 197.837 54.9564C197.838 54.969 197.849 54.9774 197.861 54.9774C197.862 54.9774 197.864 54.9774 197.864 54.9774L197.887 54.9732C197.9 54.9718 197.91 54.9592 197.907 54.9452C197.906 54.9326 197.893 54.9228 197.879 54.9256L197.858 54.9298ZM198.237 54.8625L198.213 54.8667C198.2 54.8695 198.192 54.8821 198.195 54.8947C198.198 54.9059 198.207 54.9143 198.219 54.9143C198.22 54.9143 198.221 54.9143 198.223 54.9143L198.247 54.9087C198.259 54.9059 198.268 54.8933 198.265 54.8807C198.262 54.8681 198.249 54.8597 198.237 54.8625ZM195.35 54.7938C195.337 54.791 195.323 54.798 195.32 54.8106C195.318 54.8232 195.325 54.8373 195.337 54.8401L195.361 54.8457C195.362 54.8457 195.365 54.8471 195.367 54.8471C195.378 54.8471 195.388 54.8401 195.391 54.8288C195.393 54.8162 195.386 54.8022 195.374 54.7994L195.35 54.7938ZM201.872 52.69L201.887 52.6718C201.896 52.662 201.894 52.6466 201.883 52.6381C201.873 52.6297 201.858 52.6311 201.849 52.6424L201.834 52.6606C201.826 52.6704 201.827 52.6858 201.838 52.6942C201.842 52.6984 201.848 52.6998 201.854 52.6998C201.861 52.6998 201.868 52.6956 201.872 52.69ZM195.117 54.7279C195.104 54.7237 195.09 54.7307 195.087 54.7433C195.083 54.756 195.09 54.77 195.103 54.7728L195.127 54.7798C195.129 54.7798 195.131 54.7812 195.134 54.7812C195.143 54.7812 195.153 54.7742 195.156 54.7644C195.16 54.7518 195.153 54.7377 195.139 54.7349L195.117 54.7279ZM195.233 54.7616C195.221 54.7588 195.207 54.7658 195.204 54.7784C195.2 54.791 195.208 54.805 195.221 54.8078L195.245 54.8148C195.247 54.8148 195.249 54.8162 195.252 54.8162C195.263 54.8162 195.271 54.8092 195.275 54.798C195.28 54.7854 195.271 54.7714 195.259 54.7686L195.233 54.7616ZM195.002 54.6915C194.989 54.6873 194.975 54.6943 194.971 54.7069C194.967 54.7195 194.974 54.7335 194.986 54.7377L195.01 54.7448C195.013 54.7462 195.016 54.7462 195.017 54.7462C195.027 54.7462 195.037 54.7391 195.04 54.7293C195.044 54.7167 195.037 54.7027 195.024 54.6985L195.002 54.6915ZM194.774 54.613C194.762 54.6088 194.748 54.6144 194.744 54.627C194.739 54.6396 194.745 54.6536 194.758 54.6579L194.78 54.6663C194.783 54.6677 194.786 54.6677 194.788 54.6677C194.798 54.6677 194.808 54.6621 194.811 54.6522C194.815 54.6396 194.809 54.6256 194.797 54.6214L194.774 54.613ZM194.888 54.6536C194.875 54.6494 194.861 54.6564 194.857 54.6691C194.853 54.6817 194.86 54.6957 194.873 54.6999L194.895 54.7083C194.898 54.7097 194.901 54.7097 194.904 54.7097C194.913 54.7097 194.923 54.7041 194.926 54.6929C194.93 54.6803 194.923 54.6663 194.911 54.6621L194.888 54.6536ZM196.898 55.0433H196.922C196.934 55.0433 196.946 55.0321 196.946 55.0195C196.946 55.0068 196.934 54.9956 196.922 54.9956H196.898C196.885 54.9956 196.874 55.0068 196.874 55.0195C196.874 55.0335 196.884 55.0433 196.898 55.0433ZM195.939 54.9171C195.925 54.9143 195.914 54.9242 195.911 54.9368C195.908 54.9494 195.918 54.962 195.931 54.9648L195.955 54.969C195.956 54.969 195.958 54.969 195.959 54.969C195.97 54.969 195.981 54.9606 195.983 54.948C195.984 54.9354 195.976 54.9228 195.963 54.92L195.939 54.9171ZM195.466 54.8218C195.454 54.819 195.441 54.826 195.437 54.8401C195.434 54.8527 195.441 54.8653 195.455 54.8695L195.479 54.8751C195.48 54.8751 195.483 54.8751 195.485 54.8751C195.496 54.8751 195.506 54.8681 195.508 54.8569C195.511 54.8443 195.503 54.8316 195.49 54.8274L195.466 54.8218ZM195.82 54.8961C195.807 54.8933 195.795 54.9031 195.792 54.9157C195.789 54.9284 195.799 54.941 195.812 54.9438L195.835 54.948C195.837 54.948 195.838 54.948 195.84 54.948C195.851 54.948 195.861 54.9396 195.864 54.9284C195.866 54.9157 195.856 54.9031 195.844 54.9003L195.82 54.8961ZM196.059 54.934C196.045 54.9326 196.033 54.941 196.032 54.955C196.031 54.9676 196.039 54.9802 196.053 54.9816L196.077 54.9844C196.078 54.9844 196.08 54.9844 196.08 54.9844C196.091 54.9844 196.102 54.976 196.104 54.9634C196.105 54.9508 196.096 54.9382 196.082 54.9368L196.059 54.934ZM195.584 54.8499C195.572 54.8471 195.559 54.8555 195.556 54.8681C195.553 54.8807 195.562 54.8933 195.574 54.8961L195.598 54.9017C195.6 54.9017 195.601 54.9017 195.604 54.9017C195.615 54.9017 195.625 54.8933 195.628 54.8821C195.631 54.8695 195.622 54.8569 195.609 54.8541L195.584 54.8499ZM195.692 54.9214L195.716 54.9256C195.718 54.9256 195.719 54.9256 195.72 54.9256C195.732 54.9256 195.741 54.9171 195.744 54.9059C195.747 54.8933 195.739 54.8807 195.725 54.8779L195.701 54.8737C195.688 54.8709 195.675 54.8793 195.673 54.8919C195.671 54.9059 195.68 54.9186 195.692 54.9214ZM196.178 54.9508C196.165 54.9494 196.153 54.9592 196.151 54.9718C196.15 54.9844 196.16 54.997 196.172 54.9984L196.196 55.0012C196.198 55.0012 196.198 55.0012 196.199 55.0012C196.212 55.0012 196.221 54.9928 196.223 54.9802C196.224 54.9676 196.214 54.955 196.202 54.9536L196.178 54.9508ZM197.379 54.9816C197.367 54.983 197.355 54.9942 197.357 55.0069C197.358 55.0195 197.368 55.0293 197.381 55.0293H197.382L197.406 55.0279C197.419 55.0265 197.43 55.0153 197.428 55.0026C197.427 54.99 197.416 54.9788 197.403 54.9802L197.379 54.9816ZM201.296 53.3123L201.313 53.2955C201.323 53.2857 201.323 53.2717 201.315 53.2619C201.305 53.252 201.291 53.252 201.281 53.2605L201.264 53.2773C201.254 53.2871 201.254 53.3011 201.263 53.3109C201.267 53.3165 201.274 53.3179 201.28 53.3179C201.285 53.3193 201.292 53.3165 201.296 53.3123ZM201.117 53.4763L201.135 53.4609C201.145 53.4525 201.146 53.4371 201.136 53.4272C201.128 53.4174 201.113 53.416 201.103 53.4258L201.085 53.4413C201.075 53.4497 201.073 53.4651 201.082 53.4749C201.086 53.4805 201.093 53.4833 201.1 53.4833C201.107 53.4819 201.113 53.4791 201.117 53.4763ZM201.469 53.1427L201.486 53.1259C201.496 53.1161 201.494 53.1007 201.486 53.0923C201.476 53.0824 201.461 53.0824 201.452 53.0923L201.435 53.1091C201.426 53.1189 201.427 53.1343 201.435 53.1427C201.44 53.1469 201.447 53.1497 201.452 53.1497C201.458 53.1497 201.465 53.1469 201.469 53.1427ZM201.208 53.395L201.226 53.3782C201.236 53.3698 201.236 53.3544 201.228 53.3446C201.219 53.3347 201.204 53.3347 201.194 53.3432L201.176 53.36C201.166 53.3684 201.165 53.3838 201.174 53.3936C201.179 53.3992 201.186 53.402 201.193 53.402C201.197 53.4006 201.202 53.3992 201.208 53.395ZM201.384 53.2282L201.4 53.2114C201.41 53.2016 201.41 53.1862 201.4 53.1778C201.391 53.168 201.375 53.168 201.367 53.1778L201.35 53.1946C201.34 53.2044 201.34 53.2198 201.35 53.2282C201.354 53.2324 201.361 53.2352 201.367 53.2352C201.372 53.2352 201.379 53.2324 201.384 53.2282ZM201.535 53.0628C201.542 53.0628 201.548 53.06 201.552 53.0558L201.569 53.0376C201.577 53.0278 201.577 53.0124 201.567 53.004C201.558 52.9955 201.542 52.9955 201.534 53.0054L201.517 53.0236C201.507 53.0334 201.508 53.0488 201.518 53.0572C201.524 53.0614 201.529 53.0628 201.535 53.0628ZM201.716 52.8764L201.732 52.8582C201.74 52.8484 201.739 52.833 201.729 52.8246C201.719 52.8161 201.704 52.8176 201.695 52.8274L201.68 52.8456C201.671 52.8554 201.673 52.8708 201.682 52.8792C201.687 52.8834 201.692 52.8848 201.698 52.8848C201.705 52.8848 201.712 52.882 201.716 52.8764ZM201.636 52.9661L201.653 52.9479C201.661 52.9381 201.661 52.9227 201.652 52.9143C201.642 52.9059 201.626 52.9059 201.618 52.9157L201.601 52.9339C201.593 52.9437 201.593 52.9591 201.602 52.9675C201.607 52.9717 201.612 52.9731 201.618 52.9731C201.625 52.9745 201.631 52.9717 201.636 52.9661ZM200.544 53.922L200.564 53.908C200.575 53.901 200.578 53.8856 200.569 53.8744C200.562 53.8631 200.547 53.8603 200.536 53.8688L200.516 53.8828C200.505 53.8898 200.502 53.9052 200.511 53.9164C200.515 53.9234 200.523 53.9262 200.53 53.9262C200.536 53.9262 200.54 53.9248 200.544 53.922ZM200.642 53.8519L200.662 53.8379C200.673 53.8295 200.675 53.8155 200.668 53.8043C200.659 53.7931 200.645 53.7917 200.634 53.7987L200.614 53.8127C200.603 53.8211 200.602 53.8351 200.609 53.8463C200.613 53.8533 200.621 53.8561 200.628 53.8561C200.634 53.8575 200.638 53.8561 200.642 53.8519ZM201.026 53.5548L201.044 53.5394C201.054 53.531 201.055 53.5155 201.047 53.5057C201.038 53.4959 201.023 53.4945 201.013 53.5029L200.995 53.5184C200.985 53.5268 200.984 53.5422 200.992 53.552C200.996 53.5576 201.003 53.5604 201.01 53.5604C201.014 53.5604 201.02 53.559 201.026 53.5548ZM200.431 53.9935C200.435 53.9935 200.44 53.9921 200.443 53.9893L200.463 53.9753C200.474 53.9683 200.477 53.9528 200.47 53.9416C200.463 53.9304 200.447 53.9276 200.436 53.9346L200.416 53.9486C200.405 53.9557 200.402 53.9711 200.409 53.9823C200.415 53.9907 200.422 53.9935 200.431 53.9935ZM200.329 54.0594C200.334 54.0594 200.338 54.058 200.342 54.0552L200.363 54.0425C200.374 54.0355 200.377 54.0201 200.37 54.0089C200.363 53.9977 200.348 53.9949 200.337 54.0019L200.317 54.0145C200.306 54.0215 200.303 54.0369 200.31 54.0482C200.314 54.0552 200.321 54.0594 200.329 54.0594ZM201.774 52.7349L201.758 52.7531C201.75 52.7629 201.751 52.7783 201.761 52.7867C201.765 52.7909 201.771 52.7923 201.777 52.7923C201.784 52.7923 201.791 52.7895 201.795 52.7839L201.81 52.7657C201.819 52.7559 201.817 52.7405 201.807 52.732C201.798 52.7222 201.782 52.7236 201.774 52.7349ZM200.932 53.6319L200.95 53.6165C200.96 53.6081 200.961 53.5926 200.953 53.5828C200.944 53.573 200.929 53.5716 200.919 53.58L200.901 53.5954C200.891 53.6038 200.889 53.6193 200.898 53.6291C200.902 53.6347 200.909 53.6375 200.916 53.6375C200.922 53.6375 200.927 53.6347 200.932 53.6319ZM191.542 51.985C191.531 51.992 191.527 52.0074 191.534 52.0186L191.546 52.0397C191.551 52.0467 191.559 52.0509 191.567 52.0509C191.572 52.0509 191.576 52.0495 191.58 52.0467C191.591 52.0397 191.595 52.0242 191.588 52.013L191.576 51.992C191.567 51.9808 191.553 51.978 191.542 51.985ZM200.838 53.7076L200.857 53.6922C200.867 53.6837 200.87 53.6683 200.861 53.6585C200.853 53.6487 200.838 53.6459 200.828 53.6543L200.809 53.6697C200.8 53.6781 200.797 53.6936 200.805 53.7034C200.809 53.709 200.816 53.7132 200.825 53.7132C200.828 53.7118 200.832 53.7104 200.838 53.7076ZM200.741 53.7804L200.76 53.7664C200.772 53.758 200.773 53.744 200.765 53.7328C200.756 53.7216 200.742 53.7202 200.731 53.7286L200.711 53.7426C200.7 53.751 200.699 53.765 200.707 53.7762C200.711 53.7818 200.72 53.7861 200.727 53.7861C200.731 53.7861 200.736 53.7833 200.741 53.7804ZM202.426 51.8378C202.415 51.8308 202.4 51.835 202.394 51.8462L202.381 51.8673C202.374 51.8785 202.379 51.8939 202.39 51.8995C202.394 51.9023 202.398 51.9023 202.402 51.9023C202.411 51.9023 202.419 51.8981 202.424 51.8897L202.436 51.8687C202.442 51.8603 202.438 51.8448 202.426 51.8378ZM202.485 51.7327C202.474 51.7257 202.459 51.7299 202.453 51.7425L202.442 51.7635C202.435 51.7748 202.439 51.7902 202.452 51.7958C202.456 51.7972 202.46 51.7986 202.463 51.7986C202.471 51.7986 202.48 51.7944 202.484 51.786L202.495 51.7649C202.501 51.7537 202.496 51.7397 202.485 51.7327ZM202.092 52.4013L202.106 52.3816C202.115 52.3704 202.112 52.3564 202.101 52.348C202.089 52.341 202.075 52.3424 202.067 52.3536L202.053 52.3732C202.045 52.3845 202.047 52.3985 202.059 52.4069C202.063 52.4097 202.068 52.4111 202.073 52.4111C202.081 52.4111 202.088 52.4083 202.092 52.4013ZM202.765 51.0908L202.755 51.1132C202.749 51.1258 202.756 51.1398 202.767 51.144C202.77 51.1454 202.773 51.1454 202.777 51.1454C202.787 51.1454 202.795 51.1398 202.8 51.13L202.809 51.1076C202.815 51.095 202.808 51.081 202.797 51.0768C202.784 51.0726 202.77 51.0782 202.765 51.0908ZM202.543 51.6262C202.532 51.6206 202.516 51.6248 202.511 51.636L202.499 51.657C202.494 51.6682 202.498 51.6837 202.509 51.6893C202.513 51.6907 202.516 51.6921 202.52 51.6921C202.529 51.6921 202.537 51.6879 202.541 51.6795L202.553 51.6584C202.558 51.6472 202.554 51.6332 202.543 51.6262ZM202.598 51.5183C202.586 51.5127 202.571 51.5169 202.565 51.5295L202.554 51.5505C202.548 51.5617 202.553 51.5771 202.565 51.5827C202.569 51.5841 202.572 51.5855 202.576 51.5855C202.585 51.5855 202.593 51.5813 202.598 51.5729L202.609 51.5519C202.614 51.5393 202.609 51.5239 202.598 51.5183ZM202.669 51.3122L202.659 51.3347C202.654 51.3473 202.659 51.3613 202.671 51.3669C202.673 51.3683 202.678 51.3697 202.68 51.3697C202.69 51.3697 202.699 51.3641 202.703 51.3557L202.713 51.3333C202.718 51.3206 202.713 51.3066 202.7 51.301C202.689 51.294 202.675 51.2996 202.669 51.3122ZM202.619 51.4216L202.609 51.4426C202.603 51.4552 202.607 51.4692 202.62 51.4748C202.623 51.4762 202.627 51.4776 202.63 51.4776C202.638 51.4776 202.648 51.472 202.651 51.4636L202.662 51.4412C202.668 51.4286 202.662 51.4146 202.651 51.4089C202.638 51.4047 202.624 51.4089 202.619 51.4216ZM202.809 50.9787L202.801 51.0011C202.797 51.0137 202.802 51.0277 202.815 51.0319C202.818 51.0333 202.821 51.0333 202.824 51.0333C202.833 51.0333 202.842 51.0277 202.846 51.0179L202.854 50.9955C202.859 50.9829 202.853 50.9688 202.84 50.9646C202.828 50.9604 202.814 50.966 202.809 50.9787ZM202.276 52.1111C202.285 52.1111 202.292 52.1069 202.297 52.0999L202.31 52.0789C202.317 52.0677 202.314 52.0523 202.303 52.0453C202.292 52.0383 202.276 52.0411 202.269 52.0523L202.256 52.0733C202.249 52.0845 202.252 52.0999 202.264 52.1069C202.268 52.1097 202.272 52.1111 202.276 52.1111ZM202.341 52.0088C202.349 52.0088 202.356 52.0046 202.362 51.9976L202.374 51.9766C202.381 51.9654 202.377 51.95 202.366 51.943C202.355 51.9359 202.339 51.9402 202.332 51.9514L202.32 51.9724C202.313 51.9836 202.317 51.999 202.328 52.006C202.331 52.0074 202.337 52.0088 202.341 52.0088ZM202.231 52.2008L202.245 52.1798C202.252 52.1686 202.249 52.1532 202.238 52.1462C202.227 52.1392 202.212 52.142 202.205 52.1532L202.192 52.1728C202.185 52.184 202.188 52.1994 202.199 52.2064C202.203 52.2093 202.207 52.2107 202.212 52.2107C202.219 52.2121 202.226 52.2079 202.231 52.2008ZM202.162 52.3018L202.176 52.2821C202.184 52.2709 202.181 52.2555 202.169 52.2485C202.158 52.2415 202.143 52.2443 202.136 52.2555L202.122 52.2751C202.115 52.2863 202.118 52.3004 202.127 52.3088C202.132 52.3116 202.136 52.313 202.141 52.313C202.151 52.313 202.158 52.3088 202.162 52.3018ZM202.852 50.8651L202.843 50.8875C202.839 50.9002 202.845 50.9142 202.857 50.9184C202.86 50.9198 202.863 50.9198 202.866 50.9198C202.875 50.9198 202.885 50.9142 202.888 50.9044L202.896 50.8819C202.901 50.8693 202.895 50.8553 202.882 50.8511C202.87 50.8469 202.856 50.8539 202.852 50.8651ZM202.965 50.5217L202.958 50.5442C202.954 50.5568 202.961 50.5708 202.974 50.5736C202.977 50.575 202.978 50.575 202.981 50.575C202.991 50.575 203 50.568 203.003 50.5582L203.01 50.5343C203.014 50.5217 203.007 50.5077 202.995 50.5049C202.984 50.5021 202.969 50.5091 202.965 50.5217ZM202.892 50.7516L202.884 50.774C202.88 50.7866 202.887 50.8006 202.899 50.8049C202.902 50.8063 202.905 50.8063 202.908 50.8063C202.918 50.8063 202.927 50.8006 202.93 50.7894L202.939 50.767C202.943 50.7544 202.936 50.7404 202.923 50.7362C202.909 50.7334 202.896 50.739 202.892 50.7516ZM202.93 50.6381L202.923 50.6605C202.919 50.6731 202.926 50.6871 202.939 50.6913C202.941 50.6927 202.944 50.6927 202.946 50.6927C202.955 50.6927 202.965 50.6857 202.968 50.6759L202.975 50.6535C202.979 50.6409 202.972 50.6269 202.96 50.6226C202.947 50.6184 202.934 50.6254 202.93 50.6381ZM200.227 54.1238C200.231 54.1238 200.235 54.1224 200.24 54.1196L200.261 54.107C200.272 54.1 200.276 54.0846 200.269 54.0734C200.262 54.0622 200.247 54.058 200.235 54.065L200.214 54.0776C200.203 54.0846 200.199 54.1 200.206 54.1112C200.212 54.1196 200.219 54.1238 200.227 54.1238ZM191.049 50.917C191.045 50.9044 191.031 50.8988 191.019 50.903C191.006 50.9072 191 50.9212 191.005 50.9338L191.013 50.9562C191.017 50.966 191.026 50.9716 191.035 50.9716C191.038 50.9716 191.041 50.9716 191.044 50.9702C191.056 50.966 191.062 50.952 191.058 50.9394L191.049 50.917ZM198.571 54.8316C198.572 54.8316 198.575 54.8316 198.576 54.8302L198.6 54.8246C198.613 54.8218 198.621 54.8078 198.617 54.7952C198.614 54.7826 198.6 54.7742 198.588 54.7784L198.564 54.784C198.551 54.7868 198.543 54.8008 198.547 54.8134C198.55 54.8246 198.56 54.8316 198.571 54.8316ZM190.969 50.6913C190.965 50.6787 190.951 50.6717 190.939 50.6759C190.926 50.6801 190.919 50.6941 190.923 50.7067L190.93 50.7292C190.933 50.739 190.943 50.746 190.953 50.746C190.955 50.746 190.958 50.746 190.96 50.7446C190.972 50.7404 190.979 50.7264 190.975 50.7137L190.969 50.6913ZM191.092 51.0291C191.087 51.0165 191.073 51.0109 191.061 51.0151C191.048 51.0193 191.042 51.0333 191.047 51.0459L191.055 51.0683C191.059 51.0782 191.068 51.0838 191.078 51.0838C191.08 51.0838 191.083 51.0838 191.086 51.0824C191.099 51.0768 191.104 51.0627 191.1 51.0515L191.092 51.0291ZM191.009 50.8049C191.005 50.7922 190.991 50.7852 190.978 50.7908C190.965 50.795 190.958 50.8091 190.964 50.8217L190.972 50.8441C190.976 50.8539 190.985 50.8595 190.995 50.8595C190.998 50.8595 191 50.8595 191.003 50.8581C191.016 50.8539 191.023 50.8399 191.017 50.8273L191.009 50.8049ZM198.336 54.8891C198.338 54.8891 198.341 54.8891 198.342 54.8891L198.366 54.8835C198.379 54.8807 198.387 54.8681 198.384 54.8541C198.381 54.8415 198.369 54.833 198.355 54.8358L198.331 54.8415C198.318 54.8443 198.31 54.8569 198.313 54.8709C198.315 54.8821 198.325 54.8891 198.336 54.8891ZM198.453 54.8625C198.454 54.8625 198.457 54.8625 198.459 54.8611L198.482 54.8555C198.495 54.8527 198.504 54.8387 198.499 54.826C198.497 54.8134 198.482 54.805 198.47 54.8092L198.446 54.8148C198.433 54.8176 198.425 54.8316 198.428 54.8443C198.433 54.8541 198.443 54.8625 198.453 54.8625ZM190.898 50.4615C190.894 50.4488 190.881 50.4418 190.868 50.4446C190.856 50.4488 190.849 50.4615 190.852 50.4741L190.859 50.4979C190.861 50.5077 190.871 50.5147 190.881 50.5147C190.884 50.5147 190.885 50.5147 190.888 50.5133C190.901 50.5091 190.908 50.4965 190.905 50.4839L190.898 50.4615ZM190.933 50.5764C190.929 50.5638 190.916 50.5568 190.904 50.561C190.891 50.5652 190.884 50.5778 190.888 50.5904L190.895 50.6142C190.898 50.624 190.908 50.6311 190.918 50.6311C190.92 50.6311 190.922 50.6311 190.925 50.6297C190.937 50.6254 190.944 50.6128 190.94 50.5988L190.933 50.5764ZM191.138 51.1398C191.132 51.1272 191.118 51.1216 191.107 51.1272C191.094 51.1328 191.089 51.1468 191.094 51.1581L191.104 51.1805C191.108 51.1903 191.117 51.1945 191.127 51.1945C191.129 51.1945 191.134 51.1945 191.136 51.1931C191.149 51.1875 191.155 51.1735 191.149 51.1609L191.138 51.1398ZM191.245 51.3809L191.235 51.3599C191.229 51.3473 191.215 51.3431 191.202 51.3487C191.19 51.3543 191.186 51.3683 191.191 51.3809L191.201 51.4033C191.205 51.4117 191.214 51.4174 191.223 51.4174C191.226 51.4174 191.231 51.416 191.233 51.4146C191.245 51.4075 191.25 51.3921 191.245 51.3809ZM191.253 51.5099C191.257 51.5183 191.266 51.5239 191.274 51.5239C191.278 51.5239 191.281 51.5225 191.285 51.5211C191.298 51.5155 191.302 51.5014 191.296 51.4888L191.285 51.4678C191.28 51.4552 191.266 51.451 191.253 51.4566C191.24 51.4622 191.236 51.4762 191.242 51.4888L191.253 51.5099ZM200.123 54.1855C200.127 54.1855 200.132 54.1841 200.136 54.1827L200.157 54.1701C200.168 54.1631 200.172 54.1491 200.165 54.1365C200.158 54.1252 200.144 54.121 200.132 54.128L200.111 54.1407C200.099 54.1477 200.095 54.1617 200.102 54.1729C200.108 54.1813 200.115 54.1855 200.123 54.1855ZM191.153 51.2379C191.141 51.2436 191.135 51.2576 191.141 51.2702L191.151 51.2926C191.155 51.301 191.163 51.3066 191.173 51.3066C191.176 51.3066 191.18 51.3066 191.183 51.3052C191.195 51.2996 191.201 51.2856 191.195 51.273L191.186 51.2506C191.18 51.2379 191.166 51.2323 191.153 51.2379ZM191.48 51.8813C191.469 51.8883 191.465 51.9023 191.472 51.9135L191.485 51.9345C191.489 51.9416 191.497 51.9458 191.506 51.9458C191.51 51.9458 191.514 51.9444 191.518 51.943C191.529 51.9359 191.534 51.9219 191.527 51.9093L191.514 51.8883C191.507 51.8785 191.492 51.8743 191.48 51.8813ZM191.423 51.8308C191.427 51.8392 191.435 51.8434 191.444 51.8434C191.448 51.8434 191.452 51.842 191.455 51.8406C191.466 51.8336 191.471 51.8196 191.464 51.8084L191.452 51.7874C191.445 51.7762 191.431 51.772 191.42 51.7776C191.409 51.7846 191.405 51.7986 191.41 51.8098L191.423 51.8308ZM191.365 51.7243C191.369 51.7327 191.378 51.7369 191.386 51.7369C191.391 51.7369 191.395 51.7355 191.398 51.7341C191.409 51.7271 191.413 51.7131 191.407 51.7019L191.396 51.6808C191.391 51.6696 191.375 51.664 191.364 51.671C191.353 51.6767 191.348 51.6921 191.354 51.7033L191.365 51.7243ZM191.308 51.6178C191.312 51.6262 191.32 51.6304 191.329 51.6304C191.333 51.6304 191.336 51.629 191.34 51.6276C191.351 51.622 191.357 51.6066 191.35 51.5954L191.339 51.5743C191.333 51.5631 191.318 51.5575 191.306 51.5645C191.295 51.5701 191.289 51.5855 191.296 51.5968L191.308 51.6178ZM198.819 54.7111L198.797 54.7181C198.784 54.7223 198.777 54.7349 198.781 54.7475C198.784 54.7574 198.794 54.7644 198.804 54.7644C198.807 54.7644 198.808 54.7644 198.811 54.763L198.835 54.756C198.847 54.7518 198.854 54.7391 198.85 54.7251C198.845 54.7139 198.832 54.7069 198.819 54.7111ZM199.59 54.4644C199.593 54.4644 199.597 54.463 199.6 54.4616L199.622 54.4518C199.635 54.4462 199.639 54.4322 199.633 54.4196C199.628 54.407 199.614 54.4028 199.601 54.4084L199.58 54.4182C199.567 54.4238 199.563 54.4378 199.569 54.4504C199.572 54.4588 199.58 54.4644 199.59 54.4644ZM199.48 54.5135C199.483 54.5135 199.487 54.5135 199.49 54.5121L199.513 54.5023C199.525 54.4967 199.531 54.4827 199.525 54.47C199.52 54.4574 199.506 54.4518 199.493 54.4574L199.471 54.4672C199.458 54.4728 199.452 54.4869 199.458 54.4995C199.462 54.5079 199.471 54.5135 199.48 54.5135ZM199.698 54.4126C199.702 54.4126 199.705 54.4112 199.708 54.4098L199.729 54.3986C199.741 54.3929 199.746 54.3789 199.74 54.3663C199.734 54.3537 199.72 54.3495 199.708 54.3551L199.687 54.3663C199.674 54.3719 199.67 54.3859 199.675 54.3986C199.681 54.407 199.689 54.4126 199.698 54.4126ZM199.257 54.606C199.26 54.606 199.263 54.606 199.266 54.6046L199.288 54.5962C199.301 54.5906 199.306 54.5766 199.302 54.5653C199.296 54.5527 199.284 54.5471 199.271 54.5513L199.249 54.5597C199.236 54.5639 199.231 54.578 199.235 54.5906C199.239 54.6004 199.247 54.606 199.257 54.606ZM199.369 54.5611C199.372 54.5611 199.375 54.5611 199.379 54.5597L199.402 54.5499C199.414 54.5443 199.42 54.5303 199.414 54.5191C199.409 54.5065 199.395 54.5009 199.384 54.5065L199.361 54.5163C199.348 54.5219 199.343 54.5359 199.348 54.5471C199.35 54.5555 199.36 54.5611 199.369 54.5611ZM200.019 54.2458C200.024 54.2458 200.028 54.2444 200.031 54.243L200.052 54.2318C200.063 54.2248 200.067 54.2107 200.06 54.1995C200.053 54.1883 200.039 54.1841 200.028 54.1911L200.007 54.2023C199.995 54.2093 199.991 54.2234 199.997 54.2346C200.002 54.2402 200.011 54.2458 200.019 54.2458ZM199.806 54.3593C199.81 54.3593 199.813 54.3579 199.817 54.3565L199.838 54.3453C199.849 54.3397 199.855 54.3243 199.848 54.3131C199.842 54.3018 199.827 54.2962 199.816 54.3032L199.795 54.3145C199.784 54.3201 199.778 54.3355 199.785 54.3467C199.789 54.3537 199.798 54.3593 199.806 54.3593ZM199.913 54.3032C199.917 54.3032 199.92 54.3018 199.924 54.3004L199.945 54.2892C199.956 54.2822 199.96 54.2682 199.955 54.257C199.949 54.2458 199.934 54.2416 199.922 54.2472L199.901 54.2584C199.89 54.264 199.885 54.2794 199.892 54.2906C199.896 54.299 199.904 54.3032 199.913 54.3032ZM199.159 54.5948L199.136 54.6032C199.124 54.6074 199.118 54.6214 199.122 54.634C199.127 54.6438 199.135 54.6494 199.145 54.6494C199.148 54.6494 199.151 54.6494 199.153 54.648L199.176 54.6396C199.188 54.6354 199.194 54.6214 199.19 54.6088C199.186 54.5962 199.172 54.5892 199.159 54.5948ZM198.933 54.6747L198.911 54.6817C198.898 54.6859 198.891 54.6999 198.895 54.7125C198.898 54.7223 198.908 54.7293 198.918 54.7293C198.92 54.7293 198.923 54.7293 198.925 54.7279L198.947 54.7209C198.96 54.7167 198.967 54.7027 198.962 54.6901C198.96 54.6775 198.946 54.6705 198.933 54.6747ZM201.948 52.5961L201.963 52.5765C201.972 52.5667 201.969 52.5512 201.959 52.5428C201.948 52.5344 201.934 52.5372 201.925 52.547L201.91 52.5667C201.901 52.5765 201.904 52.5919 201.914 52.6003C201.918 52.6031 201.924 52.6059 201.929 52.6059C201.936 52.6045 201.944 52.6017 201.948 52.5961ZM199.047 54.6354L199.024 54.6438C199.012 54.648 199.005 54.6621 199.009 54.6747C199.012 54.6845 199.021 54.6901 199.031 54.6901C199.034 54.6901 199.037 54.6901 199.04 54.6887L199.062 54.6803C199.075 54.6761 199.082 54.6621 199.076 54.6494C199.073 54.6368 199.059 54.6312 199.047 54.6354ZM202.021 52.4994L202.035 52.4798C202.043 52.4685 202.04 52.4545 202.029 52.4461C202.018 52.4377 202.004 52.4405 201.995 52.4517L201.981 52.4714C201.973 52.4826 201.976 52.4966 201.986 52.505C201.99 52.5078 201.995 52.5092 202 52.5092C202.009 52.5092 202.016 52.505 202.021 52.4994ZM198.704 54.7462L198.682 54.7532C198.669 54.7574 198.662 54.77 198.665 54.7826C198.668 54.7938 198.678 54.7994 198.689 54.7994C198.692 54.7994 198.693 54.7994 198.696 54.798L198.72 54.791C198.732 54.7868 198.739 54.7742 198.736 54.7616C198.729 54.749 198.717 54.742 198.704 54.7462ZM190.839 50.3367C190.826 50.3395 190.818 50.3535 190.822 50.3661L190.825 50.376L190.849 50.3718L190.871 50.3633L190.868 50.3535C190.864 50.3409 190.852 50.3325 190.839 50.3367ZM199.369 42.8676C199.357 42.862 199.343 42.8676 199.339 42.8802C199.333 42.8928 199.339 42.9068 199.351 42.911L199.362 42.9152C199.365 42.9166 199.368 42.9166 199.372 42.9166C199.382 42.9166 199.391 42.911 199.395 42.9012C199.4 42.8886 199.395 42.8746 199.382 42.8704L199.369 42.8676ZM203.101 47.4466C203.104 47.4578 203.114 47.4662 203.125 47.4662C203.127 47.4662 203.128 47.4662 203.129 47.4662C203.142 47.4634 203.151 47.4508 203.148 47.4382L203.144 47.4144C203.141 47.4018 203.128 47.3934 203.115 47.3962C203.103 47.399 203.094 47.4116 203.097 47.4242L203.101 47.4466ZM203.076 47.3303C203.079 47.3415 203.089 47.3485 203.099 47.3485C203.1 47.3485 203.103 47.3485 203.104 47.3485C203.117 47.3457 203.125 47.3317 203.122 47.3191L203.118 47.298C203.115 47.2854 203.103 47.277 203.089 47.2798C203.076 47.2826 203.068 47.2952 203.071 47.3093L203.076 47.3303ZM203.049 47.214C203.052 47.2252 203.062 47.2322 203.073 47.2322C203.075 47.2322 203.078 47.2322 203.079 47.2322C203.092 47.2294 203.1 47.2154 203.097 47.2027L203.092 47.1789C203.089 47.1663 203.075 47.1579 203.062 47.1607C203.049 47.1635 203.041 47.1775 203.044 47.1901L203.049 47.214ZM203.019 47.0976C203.021 47.1088 203.031 47.1158 203.042 47.1158C203.044 47.1158 203.047 47.1158 203.048 47.1144C203.061 47.1116 203.069 47.0976 203.065 47.085L203.059 47.0612C203.057 47.0486 203.042 47.0402 203.03 47.0444C203.017 47.0472 203.009 47.0612 203.013 47.0738L203.019 47.0976ZM202.988 46.9827C202.991 46.9939 203 46.9995 203.012 46.9995C203.014 46.9995 203.016 46.9995 203.019 46.9981C203.031 46.9939 203.038 46.9813 203.035 46.9687L203.028 46.9448C203.024 46.9322 203.012 46.9252 202.999 46.928C202.986 46.9322 202.979 46.9448 202.982 46.9575L202.988 46.9827ZM202.954 46.8692C202.957 46.879 202.967 46.886 202.976 46.886C202.979 46.886 202.981 46.886 202.984 46.8846C202.996 46.8804 203.003 46.8678 202.999 46.8551L202.992 46.8327C202.988 46.8201 202.975 46.8131 202.962 46.8173C202.95 46.8215 202.943 46.8341 202.947 46.8467L202.954 46.8692ZM203.148 47.584C203.149 47.584 203.151 47.584 203.152 47.584C203.165 47.5812 203.173 47.5686 203.172 47.5559L203.167 47.5321C203.165 47.5195 203.152 47.5111 203.139 47.5125C203.127 47.5153 203.118 47.5279 203.12 47.5405L203.124 47.5644C203.127 47.5756 203.137 47.584 203.148 47.584ZM202.248 45.2994C202.237 45.3064 202.234 45.3218 202.241 45.333L202.254 45.3526C202.258 45.3596 202.266 45.3638 202.275 45.3638C202.279 45.3638 202.283 45.3624 202.287 45.3596C202.299 45.3526 202.301 45.3372 202.294 45.326L202.282 45.305C202.273 45.2952 202.259 45.2924 202.248 45.2994ZM202.113 45.1003C202.102 45.1073 202.099 45.1228 202.108 45.134L202.122 45.1536C202.126 45.1606 202.134 45.1634 202.141 45.1634C202.146 45.1634 202.151 45.162 202.155 45.1592C202.167 45.1522 202.169 45.1368 202.161 45.1256L202.147 45.1059C202.139 45.0947 202.125 45.0919 202.113 45.1003ZM202.043 45.0022C202.032 45.0106 202.031 45.0247 202.038 45.0359L202.052 45.0555C202.056 45.0625 202.064 45.0653 202.071 45.0653C202.075 45.0653 202.081 45.0639 202.085 45.0611C202.096 45.0527 202.098 45.0387 202.091 45.0275L202.077 45.0078C202.068 44.9966 202.054 44.9938 202.043 45.0022ZM202.181 45.1985C202.169 45.2055 202.167 45.2209 202.174 45.2321L202.186 45.2517C202.191 45.2587 202.199 45.2629 202.206 45.2629C202.21 45.2629 202.216 45.2615 202.219 45.2587C202.23 45.2517 202.233 45.2363 202.226 45.2251L202.212 45.2055C202.207 45.1942 202.192 45.1914 202.181 45.1985ZM203.169 47.7031C203.17 47.7031 203.172 47.7031 203.173 47.7031C203.186 47.7003 203.195 47.6891 203.193 47.6751L203.188 47.6513C203.186 47.6386 203.174 47.6288 203.16 47.6316C203.148 47.6344 203.138 47.6456 203.141 47.6597L203.145 47.6835C203.148 47.6947 203.158 47.7031 203.169 47.7031ZM202.918 46.7542C202.92 46.764 202.93 46.771 202.94 46.771C202.943 46.771 202.946 46.771 202.947 46.7696C202.96 46.7654 202.967 46.7514 202.962 46.7388L202.955 46.7164C202.951 46.7038 202.937 46.6968 202.925 46.701C202.912 46.7052 202.905 46.7192 202.909 46.7318L202.918 46.7542ZM202.311 45.4003C202.3 45.4073 202.296 45.4227 202.303 45.4339L202.315 45.4549C202.32 45.462 202.328 45.4662 202.337 45.4662C202.341 45.4662 202.345 45.4648 202.349 45.4634C202.36 45.4563 202.365 45.4423 202.358 45.4297L202.345 45.4087C202.338 45.3975 202.324 45.3933 202.311 45.4003ZM199.469 42.911C199.456 42.9054 199.442 42.911 199.437 42.9237C199.431 42.9363 199.437 42.9503 199.449 42.9559L199.472 42.9657C199.475 42.9671 199.479 42.9671 199.482 42.9671C199.492 42.9671 199.5 42.9615 199.504 42.9531C199.51 42.9405 199.504 42.9265 199.492 42.9209L199.469 42.911ZM199.798 43.1185C199.802 43.1199 199.805 43.1213 199.809 43.1213C199.817 43.1213 199.826 43.1171 199.83 43.1087C199.835 43.0975 199.831 43.082 199.82 43.0764L199.799 43.0652C199.786 43.0596 199.772 43.0638 199.767 43.0764C199.761 43.0876 199.765 43.1031 199.778 43.1087L199.798 43.1185ZM200.009 43.232C200.014 43.2334 200.018 43.2348 200.021 43.2348C200.029 43.2348 200.038 43.2306 200.042 43.2222C200.049 43.211 200.045 43.1956 200.032 43.19L200.011 43.1787C200 43.1717 199.984 43.1759 199.979 43.1886C199.972 43.1998 199.976 43.2152 199.988 43.2208L200.009 43.232ZM199.904 43.1745C199.908 43.1759 199.911 43.1773 199.915 43.1773C199.924 43.1773 199.932 43.1731 199.936 43.1647C199.942 43.1535 199.938 43.1381 199.927 43.1325L199.906 43.1213C199.894 43.1157 199.879 43.1199 199.873 43.1311C199.868 43.1423 199.872 43.1577 199.883 43.1633L199.904 43.1745ZM200.113 43.2923C200.118 43.2951 200.122 43.2951 200.126 43.2951C200.134 43.2951 200.143 43.2909 200.147 43.2825C200.154 43.2713 200.15 43.2558 200.139 43.2502L200.118 43.2376C200.106 43.2306 200.091 43.2348 200.085 43.246C200.078 43.2572 200.082 43.2727 200.094 43.2783L200.113 43.2923ZM201.367 44.244C201.372 44.244 201.379 44.2412 201.384 44.237C201.393 44.2271 201.393 44.2117 201.384 44.2033L201.367 44.1865C201.357 44.1767 201.341 44.1781 201.333 44.1865C201.323 44.1963 201.323 44.2117 201.333 44.2201L201.35 44.237C201.355 44.2426 201.361 44.244 201.367 44.244ZM199.689 43.0652C199.692 43.0666 199.696 43.068 199.699 43.068C199.708 43.068 199.716 43.0624 199.72 43.054C199.726 43.0414 199.722 43.0274 199.709 43.0218L199.687 43.0106C199.674 43.0049 199.66 43.0092 199.654 43.0218C199.649 43.0344 199.653 43.0484 199.666 43.054L199.689 43.0652ZM201.28 44.1613C201.287 44.1613 201.292 44.1585 201.296 44.1543C201.306 44.1444 201.305 44.129 201.295 44.1206L201.277 44.1038C201.267 44.0954 201.252 44.0954 201.243 44.1052C201.235 44.115 201.235 44.1304 201.245 44.1388L201.261 44.1557C201.268 44.1585 201.274 44.1613 201.28 44.1613ZM200.217 43.3539C200.221 43.3568 200.226 43.3582 200.23 43.3582C200.238 43.3582 200.245 43.354 200.251 43.3469C200.258 43.3357 200.254 43.3203 200.242 43.3133L200.221 43.3007C200.21 43.2937 200.195 43.2979 200.188 43.3091C200.181 43.3203 200.185 43.3357 200.196 43.3427L200.217 43.3539ZM199.614 43.0021C199.619 42.9895 199.614 42.9755 199.602 42.9699L199.58 42.9601C199.567 42.9545 199.553 42.9601 199.548 42.9713C199.542 42.9839 199.548 42.9979 199.559 43.0035L199.581 43.0134C199.584 43.0148 199.588 43.0162 199.591 43.0162C199.601 43.0162 199.609 43.0106 199.614 43.0021ZM200.714 43.6903C200.718 43.6931 200.724 43.6945 200.728 43.6945C200.735 43.6945 200.742 43.6917 200.748 43.6847C200.756 43.6735 200.753 43.6595 200.744 43.6511L200.724 43.6371C200.713 43.6287 200.699 43.6315 200.69 43.6427C200.682 43.6539 200.685 43.6679 200.696 43.6763L200.714 43.6903ZM201.01 43.9202C201.017 43.9202 201.024 43.9174 201.028 43.9118C201.037 43.902 201.035 43.8866 201.026 43.8781L201.007 43.8627C200.998 43.8543 200.982 43.8557 200.974 43.8655C200.965 43.8753 200.967 43.8908 200.976 43.8992L200.995 43.9146C201 43.9188 201.005 43.9202 201.01 43.9202ZM200.318 43.417C200.322 43.4198 200.327 43.4212 200.331 43.4212C200.339 43.4212 200.346 43.417 200.351 43.41C200.358 43.3988 200.355 43.3834 200.344 43.3764L200.322 43.3638C200.311 43.3568 200.296 43.3596 200.289 43.3708C200.282 43.382 200.285 43.3974 200.296 43.4044L200.318 43.417ZM200.824 43.7688C200.831 43.7688 200.838 43.766 200.843 43.759C200.852 43.7492 200.85 43.7338 200.839 43.7254L200.819 43.71C200.808 43.7015 200.794 43.7043 200.786 43.7142C200.777 43.7254 200.78 43.7394 200.79 43.7478L200.809 43.7618C200.814 43.766 200.818 43.7688 200.824 43.7688ZM201.101 43.9987C201.108 43.9987 201.115 43.9959 201.12 43.9903C201.128 43.9805 201.128 43.965 201.117 43.9566L201.099 43.9412C201.089 43.9328 201.073 43.9342 201.065 43.944C201.056 43.9538 201.058 43.9693 201.068 43.9777L201.086 43.9931C201.09 43.9973 201.096 43.9987 201.101 43.9987ZM200.918 43.8431C200.925 43.8431 200.932 43.8403 200.936 43.8347C200.944 43.8249 200.943 43.8095 200.932 43.8011L200.913 43.7856C200.904 43.7772 200.888 43.7786 200.88 43.7898C200.871 43.7997 200.873 43.8151 200.884 43.8235L200.902 43.8389C200.908 43.8417 200.912 43.8431 200.918 43.8431ZM200.419 43.4829C200.424 43.4857 200.428 43.4871 200.432 43.4871C200.44 43.4871 200.447 43.4829 200.452 43.4759C200.459 43.4647 200.456 43.4493 200.445 43.4422L200.425 43.4282C200.414 43.4212 200.398 43.424 200.391 43.4352C200.384 43.4465 200.387 43.4619 200.398 43.4689L200.419 43.4829ZM200.533 43.5544C200.54 43.5544 200.548 43.5502 200.553 43.5446C200.56 43.5334 200.557 43.5193 200.547 43.5109L200.527 43.4969C200.516 43.4899 200.502 43.4927 200.494 43.5025C200.487 43.5137 200.489 43.5291 200.499 43.5362L200.519 43.5502C200.523 43.553 200.527 43.5544 200.533 43.5544ZM200.631 43.6231C200.638 43.6231 200.647 43.6203 200.651 43.6132C200.659 43.602 200.656 43.588 200.645 43.5796L200.626 43.5656C200.614 43.5572 200.6 43.56 200.592 43.5712C200.584 43.5824 200.586 43.5964 200.598 43.6048L200.617 43.6189C200.621 43.6217 200.626 43.6231 200.631 43.6231ZM201.452 44.3295C201.458 44.3295 201.465 44.3267 201.469 44.3225C201.479 44.3126 201.479 44.2972 201.469 44.2888L201.452 44.272C201.442 44.2622 201.427 44.2622 201.419 44.272C201.409 44.2818 201.409 44.2972 201.419 44.3056L201.435 44.3225C201.44 44.3267 201.445 44.3295 201.452 44.3295ZM201.927 44.8719C201.932 44.8719 201.936 44.8705 201.942 44.8663C201.952 44.8579 201.955 44.8424 201.946 44.8326L201.931 44.813C201.922 44.8032 201.907 44.8004 201.897 44.8088C201.887 44.8172 201.885 44.8326 201.893 44.8424L201.908 44.8607C201.913 44.8691 201.92 44.8719 201.927 44.8719ZM202.654 46.0871C202.658 46.0955 202.666 46.1011 202.676 46.1011C202.679 46.1011 202.683 46.0997 202.686 46.0983C202.699 46.0927 202.703 46.0787 202.697 46.066L202.687 46.0436C202.682 46.031 202.668 46.0268 202.655 46.0324C202.642 46.038 202.638 46.052 202.644 46.0646L202.654 46.0871ZM202.603 45.9791C202.607 45.9876 202.616 45.9932 202.624 45.9932C202.628 45.9932 202.631 45.9918 202.634 45.9904C202.647 45.9847 202.651 45.9707 202.645 45.9581L202.634 45.9371C202.628 45.9245 202.614 45.9203 202.602 45.9259C202.589 45.9315 202.585 45.9455 202.591 45.9581L202.603 45.9791ZM201.535 44.4164C201.541 44.4164 201.546 44.4136 201.552 44.4094C201.562 44.3995 201.562 44.3855 201.553 44.3757L201.536 44.3575C201.527 44.3477 201.513 44.3477 201.503 44.3561C201.493 44.3659 201.493 44.3799 201.501 44.3897L201.518 44.4066C201.522 44.4136 201.529 44.4164 201.535 44.4164ZM202.703 46.1964C202.707 46.2048 202.715 46.2104 202.725 46.2104C202.728 46.2104 202.732 46.2104 202.735 46.209C202.748 46.2034 202.753 46.1894 202.748 46.1768L202.738 46.1543C202.732 46.1417 202.718 46.1361 202.706 46.1417C202.693 46.1473 202.687 46.1614 202.693 46.174L202.703 46.1964ZM201.191 44.0786C201.198 44.0786 201.204 44.0758 201.209 44.0702C201.218 44.0604 201.218 44.0449 201.208 44.0365L201.19 44.0197C201.18 44.0113 201.165 44.0113 201.156 44.0211C201.148 44.0309 201.148 44.0463 201.158 44.0547L201.176 44.0716C201.18 44.0772 201.186 44.0786 201.191 44.0786ZM202.751 46.3071C202.755 46.3169 202.763 46.3225 202.773 46.3225C202.776 46.3225 202.779 46.3225 202.783 46.3211C202.795 46.3155 202.801 46.3015 202.795 46.2903L202.786 46.2679C202.78 46.2553 202.766 46.2497 202.755 46.2553C202.742 46.2609 202.736 46.2749 202.742 46.2861L202.751 46.3071ZM202.838 46.5286C202.842 46.5384 202.85 46.544 202.86 46.544C202.863 46.544 202.866 46.544 202.868 46.5426C202.881 46.5384 202.887 46.5244 202.882 46.5118L202.874 46.4893C202.87 46.4767 202.856 46.4711 202.843 46.4753C202.831 46.4795 202.825 46.4935 202.829 46.5061L202.838 46.5286ZM202.495 45.7661C202.499 45.7745 202.508 45.7787 202.516 45.7787C202.52 45.7787 202.523 45.7773 202.527 45.7759C202.539 45.7703 202.544 45.7549 202.537 45.7437L202.526 45.7227C202.52 45.7114 202.505 45.7072 202.494 45.7128C202.482 45.7184 202.477 45.7339 202.484 45.7451L202.495 45.7661ZM202.795 46.4178C202.8 46.4277 202.808 46.4333 202.818 46.4333C202.821 46.4333 202.824 46.4333 202.826 46.4319C202.839 46.4277 202.845 46.4136 202.84 46.401L202.832 46.3786C202.826 46.366 202.812 46.3604 202.801 46.3646C202.788 46.3702 202.783 46.3828 202.787 46.3954L202.795 46.4178ZM202.55 45.8726C202.554 45.881 202.562 45.8852 202.571 45.8852C202.575 45.8852 202.578 45.8838 202.582 45.8824C202.593 45.8768 202.599 45.8614 202.593 45.8502L202.582 45.8292C202.577 45.818 202.561 45.8124 202.55 45.8194C202.539 45.825 202.533 45.8404 202.54 45.8516L202.55 45.8726ZM201.775 44.6855C201.781 44.6855 201.786 44.6841 201.791 44.6799C201.8 44.6715 201.802 44.656 201.793 44.6462L201.778 44.628C201.769 44.6182 201.754 44.6168 201.744 44.6252C201.734 44.6336 201.733 44.649 201.741 44.6588L201.757 44.6771C201.762 44.6827 201.769 44.6855 201.775 44.6855ZM202.878 46.6421C202.881 46.6519 202.891 46.6589 202.901 46.6589C202.904 46.6589 202.906 46.6589 202.909 46.6575C202.922 46.6533 202.929 46.6393 202.925 46.6267L202.916 46.6043C202.912 46.5916 202.898 46.5846 202.885 46.5902C202.873 46.5944 202.866 46.6085 202.871 46.6211L202.878 46.6421ZM201.852 44.778C201.858 44.778 201.864 44.7766 201.868 44.7724C201.878 44.764 201.88 44.7485 201.872 44.7387L201.856 44.7205C201.848 44.7107 201.833 44.7093 201.823 44.7177C201.813 44.7261 201.812 44.7415 201.819 44.7513L201.834 44.7696C201.838 44.7752 201.845 44.778 201.852 44.778ZM202.407 45.5124C202.4 45.5012 202.386 45.497 202.374 45.504C202.363 45.511 202.359 45.525 202.366 45.5376L202.379 45.5587C202.383 45.5657 202.391 45.5713 202.4 45.5713C202.404 45.5713 202.408 45.5699 202.412 45.5685C202.424 45.5615 202.428 45.5475 202.421 45.5362L202.407 45.5124ZM201.698 44.5944C201.704 44.5944 201.709 44.593 201.713 44.5888C201.723 44.5803 201.725 44.5649 201.716 44.5551L201.701 44.5369C201.692 44.5271 201.677 44.5257 201.667 44.5341C201.657 44.5425 201.656 44.5579 201.664 44.5677L201.68 44.586C201.684 44.5916 201.691 44.5944 201.698 44.5944ZM201.618 44.5047C201.624 44.5047 201.629 44.5033 201.635 44.4991C201.645 44.4906 201.646 44.4752 201.636 44.4654L201.619 44.4472C201.611 44.4374 201.595 44.4374 201.586 44.4458C201.576 44.4542 201.574 44.4696 201.584 44.4794L201.601 44.4977C201.604 44.5019 201.611 44.5047 201.618 44.5047ZM202.438 45.661C202.442 45.6694 202.45 45.6736 202.459 45.6736C202.463 45.6736 202.467 45.6722 202.47 45.6708C202.481 45.6638 202.485 45.6498 202.48 45.6386L202.468 45.6175C202.461 45.6063 202.447 45.6021 202.436 45.6077C202.425 45.6147 202.421 45.6287 202.426 45.64L202.438 45.661ZM202.019 44.9293L202.005 44.9097C201.997 44.8985 201.983 44.8971 201.972 44.9055C201.96 44.9139 201.959 44.9279 201.967 44.9392L201.981 44.9588C201.986 44.9658 201.994 44.9686 202.001 44.9686C202.007 44.9686 202.011 44.9672 202.015 44.9644C202.025 44.956 202.028 44.9406 202.019 44.9293ZM203.187 47.8152C203.188 47.8152 203.19 47.8152 203.191 47.8152C203.204 47.8138 203.214 47.8012 203.211 47.7872L203.209 47.776C203.208 47.7634 203.195 47.7536 203.181 47.7564C203.169 47.7578 203.159 47.7704 203.162 47.7844L203.163 47.7956C203.165 47.8054 203.174 47.8152 203.187 47.8152ZM190.854 47.0359C190.842 47.0331 190.828 47.0402 190.825 47.0528L190.822 47.064C190.819 47.0766 190.826 47.0906 190.839 47.0934C190.842 47.0934 190.843 47.0948 190.845 47.0948C190.856 47.0948 190.866 47.0878 190.868 47.0766L190.871 47.0654C190.874 47.0528 190.867 47.0402 190.854 47.0359ZM192.644 44.0646L192.626 44.0814C192.616 44.0898 192.616 44.1052 192.624 44.115C192.628 44.1206 192.635 44.122 192.642 44.122C192.648 44.122 192.654 44.1192 192.659 44.115L192.678 44.0982C192.687 44.0898 192.687 44.0744 192.679 44.0646C192.668 44.0562 192.654 44.0562 192.644 44.0646ZM192.734 43.9833L192.715 44.0001C192.706 44.0085 192.704 44.0239 192.714 44.0337C192.718 44.0393 192.725 44.0421 192.732 44.0421C192.738 44.0421 192.743 44.0407 192.748 44.0365L192.766 44.0211C192.776 44.0127 192.777 43.9973 192.767 43.9875C192.759 43.9749 192.743 43.9735 192.734 43.9833ZM193.111 43.6735L193.092 43.6889C193.08 43.6973 193.079 43.7128 193.087 43.7226C193.092 43.7282 193.099 43.7324 193.107 43.7324C193.113 43.7324 193.117 43.731 193.121 43.7268L193.141 43.7128C193.152 43.7043 193.153 43.6889 193.145 43.6791C193.136 43.6665 193.122 43.6651 193.111 43.6735ZM193.209 43.6006L193.19 43.6146C193.179 43.6231 193.177 43.6371 193.184 43.6483C193.188 43.6553 193.197 43.6581 193.204 43.6581C193.209 43.6581 193.214 43.6567 193.218 43.6539L193.238 43.6399C193.249 43.6315 193.25 43.6174 193.243 43.6062C193.235 43.595 193.221 43.5922 193.209 43.6006ZM192.826 43.902L192.808 43.9174C192.798 43.9258 192.797 43.9412 192.805 43.951C192.809 43.9566 192.816 43.9594 192.824 43.9594C192.829 43.9594 192.835 43.958 192.839 43.9538L192.857 43.9384C192.867 43.93 192.868 43.9146 192.86 43.9048C192.852 43.895 192.836 43.8936 192.826 43.902ZM192.92 43.8235L192.902 43.8389C192.892 43.8473 192.891 43.8627 192.899 43.8725C192.904 43.8781 192.911 43.881 192.918 43.881C192.923 43.881 192.929 43.8795 192.933 43.8753L192.951 43.8599C192.961 43.8515 192.962 43.8361 192.954 43.8263C192.946 43.8165 192.93 43.8151 192.92 43.8235ZM193.014 43.7478L192.995 43.7632C192.985 43.7716 192.982 43.787 192.991 43.7969C192.995 43.8025 193.002 43.8053 193.009 43.8053C193.014 43.8053 193.02 43.8039 193.024 43.7997L193.044 43.7842C193.054 43.7758 193.056 43.7604 193.048 43.7506C193.041 43.7408 193.026 43.7394 193.014 43.7478ZM193.309 43.5291L193.289 43.5432C193.278 43.5502 193.275 43.5656 193.284 43.5768C193.288 43.5838 193.296 43.5866 193.303 43.5866C193.308 43.5866 193.313 43.5852 193.318 43.5824L193.337 43.5684C193.348 43.5614 193.351 43.546 193.343 43.5348C193.334 43.5235 193.319 43.5207 193.309 43.5291ZM193.615 43.3273L193.594 43.3399C193.583 43.3469 193.579 43.3624 193.586 43.3736C193.59 43.3806 193.598 43.3848 193.607 43.3848C193.611 43.3848 193.615 43.3834 193.619 43.3806L193.64 43.368C193.652 43.361 193.656 43.3455 193.649 43.3343C193.64 43.3245 193.626 43.3203 193.615 43.3273ZM193.824 43.204L193.803 43.2166C193.792 43.2236 193.788 43.2376 193.795 43.2488C193.799 43.2572 193.807 43.2614 193.816 43.2614C193.82 43.2614 193.824 43.26 193.828 43.2586L193.849 43.246C193.861 43.239 193.865 43.225 193.858 43.2138C193.851 43.2012 193.837 43.197 193.824 43.204ZM193.409 43.4605L193.389 43.4745C193.378 43.4815 193.375 43.4969 193.382 43.5081C193.386 43.5151 193.395 43.5193 193.402 43.5193C193.406 43.5193 193.412 43.5179 193.416 43.5151L193.435 43.5011C193.447 43.4941 193.449 43.4787 193.442 43.4675C193.435 43.4549 193.42 43.4521 193.409 43.4605ZM193.511 43.3932L193.49 43.4058C193.479 43.4128 193.476 43.4282 193.483 43.4394C193.487 43.4465 193.496 43.4507 193.503 43.4507C193.507 43.4507 193.511 43.4493 193.515 43.4465L193.535 43.4338C193.546 43.4268 193.549 43.4114 193.542 43.4002C193.538 43.389 193.522 43.3862 193.511 43.3932ZM193.719 43.2642L193.698 43.2769C193.687 43.2839 193.682 43.2979 193.689 43.3105C193.694 43.3175 193.702 43.3217 193.711 43.3217C193.715 43.3217 193.719 43.3203 193.723 43.3189L193.744 43.3063C193.755 43.2993 193.76 43.2853 193.753 43.2727C193.746 43.2614 193.73 43.2586 193.719 43.2642ZM191.979 44.7794L191.963 44.799C191.955 44.8088 191.956 44.8242 191.967 44.8326C191.972 44.8354 191.977 44.8382 191.983 44.8382C191.99 44.8382 191.997 44.8354 192.001 44.8284L192.016 44.8088C192.025 44.799 192.023 44.7836 192.012 44.7752C192.001 44.7668 191.987 44.7696 191.979 44.7794ZM192.554 44.1487L192.536 44.1655C192.526 44.1753 192.526 44.1893 192.536 44.1991C192.54 44.2033 192.547 44.2061 192.553 44.2061C192.558 44.2061 192.565 44.2033 192.569 44.1991L192.586 44.1823C192.596 44.1725 192.596 44.1585 192.588 44.1487C192.579 44.1388 192.564 44.1388 192.554 44.1487ZM191.903 44.8761L191.887 44.8957C191.879 44.9069 191.882 44.9209 191.892 44.9293C191.896 44.9321 191.901 44.9335 191.906 44.9335C191.913 44.9335 191.92 44.9307 191.925 44.9237L191.939 44.9041C191.948 44.8929 191.945 44.8789 191.935 44.8705C191.927 44.8635 191.911 44.8649 191.903 44.8761ZM192.134 44.5916L192.119 44.6098C192.111 44.6196 192.112 44.635 192.122 44.6434C192.126 44.6476 192.132 44.649 192.137 44.649C192.144 44.649 192.151 44.6462 192.155 44.6406L192.171 44.6224C192.179 44.6126 192.178 44.5972 192.168 44.5888C192.158 44.5803 192.143 44.5818 192.134 44.5916ZM191.835 45.0317C191.842 45.0317 191.851 45.0289 191.855 45.0219L191.869 45.0022C191.878 44.991 191.875 44.977 191.863 44.9686C191.852 44.9602 191.838 44.963 191.83 44.9742L191.816 44.9938C191.807 45.005 191.81 45.0191 191.821 45.0275C191.826 45.0303 191.83 45.0317 191.835 45.0317ZM192.056 44.6841L192.04 44.7023C192.032 44.7121 192.033 44.7275 192.043 44.7359C192.047 44.7401 192.053 44.7415 192.059 44.7415C192.066 44.7415 192.073 44.7387 192.077 44.7331L192.092 44.7149C192.101 44.7051 192.099 44.6897 192.089 44.6813C192.08 44.6729 192.064 44.6743 192.056 44.6841ZM192.214 44.4991L192.198 44.5173C192.189 44.5271 192.189 44.5425 192.199 44.5509C192.203 44.5551 192.209 44.5565 192.214 44.5565C192.221 44.5565 192.227 44.5537 192.233 44.5481L192.248 44.5299C192.256 44.5201 192.256 44.5047 192.247 44.4963C192.238 44.4892 192.224 44.4892 192.214 44.4991ZM192.381 44.3211L192.365 44.3393C192.355 44.3491 192.356 44.3645 192.366 44.3729C192.37 44.3771 192.377 44.3799 192.383 44.3799C192.39 44.3799 192.395 44.3771 192.4 44.3729L192.416 44.3561C192.426 44.3463 192.425 44.3309 192.416 44.3225C192.405 44.3112 192.39 44.3112 192.381 44.3211ZM192.467 44.2342L192.45 44.251C192.44 44.2608 192.44 44.2762 192.45 44.2846C192.454 44.2888 192.461 44.2916 192.467 44.2916C192.473 44.2916 192.48 44.2888 192.484 44.2846L192.501 44.2678C192.511 44.258 192.511 44.2426 192.501 44.2342C192.492 44.2243 192.477 44.2243 192.467 44.2342ZM192.297 44.4094L192.28 44.4276C192.272 44.4374 192.272 44.4528 192.282 44.4612C192.286 44.4654 192.292 44.4682 192.299 44.4682C192.306 44.4682 192.311 44.4654 192.317 44.4598L192.334 44.4416C192.342 44.4318 192.342 44.4164 192.332 44.408C192.321 44.3995 192.306 44.3995 192.297 44.4094ZM190.969 46.7402L190.976 46.7178C190.981 46.7052 190.974 46.6912 190.961 46.687C190.948 46.6827 190.934 46.6898 190.93 46.7024L190.922 46.7262C190.918 46.7388 190.925 46.7528 190.937 46.757C190.94 46.7584 190.943 46.7584 190.944 46.7584C190.957 46.757 190.965 46.75 190.969 46.7402ZM191.072 46.4136C191.082 46.4136 191.09 46.408 191.094 46.3982L191.103 46.3758C191.108 46.3632 191.101 46.3492 191.09 46.345C191.078 46.3394 191.064 46.3464 191.059 46.3576L191.051 46.38C191.045 46.3926 191.052 46.4066 191.065 46.4108C191.065 46.4136 191.069 46.4136 191.072 46.4136ZM190.932 46.8565L190.939 46.8327C190.943 46.8201 190.936 46.8061 190.923 46.8019C190.911 46.7977 190.896 46.8047 190.892 46.8173L190.885 46.8411C190.881 46.8537 190.888 46.8678 190.901 46.8706C190.904 46.872 190.905 46.872 190.908 46.872C190.919 46.8734 190.929 46.8664 190.932 46.8565ZM191.758 45.0723L191.744 45.0919C191.737 45.1031 191.739 45.1172 191.75 45.1256C191.754 45.1284 191.758 45.1298 191.764 45.1298C191.771 45.1298 191.779 45.1256 191.783 45.12L191.798 45.1003C191.805 45.0891 191.803 45.0751 191.792 45.0667C191.781 45.0597 191.767 45.0611 191.758 45.0723ZM191.027 46.5272C191.037 46.5272 191.045 46.5216 191.049 46.5118L191.058 46.4893C191.062 46.4767 191.056 46.4627 191.044 46.4585C191.031 46.4543 191.017 46.4599 191.013 46.4725L191.005 46.4949C191 46.5075 191.006 46.5216 191.019 46.5258C191.021 46.5272 191.024 46.5272 191.027 46.5272ZM191.009 46.6253L191.017 46.6029C191.021 46.5902 191.016 46.5762 191.003 46.572C190.991 46.5678 190.976 46.5734 190.972 46.586L190.964 46.6085C190.96 46.6211 190.967 46.6351 190.978 46.6393C190.981 46.6407 190.984 46.6407 190.986 46.6407C190.996 46.6421 191.005 46.6351 191.009 46.6253ZM190.898 46.9729L190.905 46.9491C190.909 46.9364 190.901 46.9224 190.888 46.9196C190.875 46.9154 190.861 46.9238 190.859 46.9364L190.852 46.9603C190.847 46.9729 190.856 46.9869 190.868 46.9897C190.871 46.9897 190.873 46.9911 190.875 46.9911C190.885 46.9897 190.894 46.9827 190.898 46.9729ZM191.492 45.483L191.479 45.504C191.472 45.5152 191.476 45.5306 191.487 45.5376C191.492 45.5404 191.496 45.5404 191.5 45.5404C191.508 45.5404 191.517 45.5362 191.521 45.5292L191.534 45.5082C191.541 45.497 191.536 45.4816 191.525 45.4746C191.514 45.4676 191.499 45.4704 191.492 45.483ZM191.689 45.1732L191.675 45.1928C191.668 45.2041 191.671 45.2195 191.682 45.2265C191.687 45.2293 191.691 45.2307 191.696 45.2307C191.705 45.2307 191.712 45.2265 191.716 45.2195L191.73 45.1999C191.737 45.1886 191.734 45.1732 191.723 45.1662C191.711 45.1592 191.696 45.162 191.689 45.1732ZM191.621 45.2755L191.608 45.2966C191.601 45.3078 191.604 45.3232 191.615 45.3302C191.619 45.333 191.623 45.3344 191.628 45.3344C191.636 45.3344 191.643 45.3302 191.647 45.3232L191.66 45.3022C191.667 45.291 191.664 45.2755 191.653 45.2685C191.643 45.2601 191.629 45.2643 191.621 45.2755ZM191.556 45.3779L191.544 45.3989C191.536 45.4101 191.541 45.4255 191.552 45.4325C191.556 45.4353 191.56 45.4367 191.565 45.4367C191.573 45.4367 191.58 45.4325 191.586 45.4255L191.598 45.4045C191.605 45.3933 191.602 45.3779 191.59 45.3709C191.577 45.3638 191.563 45.3666 191.556 45.3779ZM191.117 46.3001C191.127 46.3001 191.135 46.2945 191.139 46.2847L191.149 46.2623C191.155 46.2497 191.149 46.2356 191.136 46.23C191.124 46.2244 191.11 46.23 191.104 46.2426L191.094 46.2651C191.089 46.2777 191.094 46.2917 191.107 46.2959C191.111 46.3001 191.114 46.3001 191.117 46.3001ZM191.369 45.7493C191.374 45.7507 191.376 45.7521 191.381 45.7521C191.389 45.7521 191.398 45.7479 191.402 45.7395L191.413 45.7184C191.42 45.7072 191.414 45.6918 191.403 45.6862C191.392 45.6792 191.376 45.6848 191.371 45.696L191.36 45.717C191.353 45.7283 191.357 45.7423 191.369 45.7493ZM191.427 45.6414C191.431 45.6442 191.435 45.6442 191.438 45.6442C191.447 45.6442 191.455 45.64 191.459 45.6315L191.472 45.6105C191.479 45.5993 191.475 45.5839 191.464 45.5783C191.452 45.5713 191.437 45.5755 191.431 45.5867L191.419 45.6077C191.412 45.6203 191.416 45.6358 191.427 45.6414ZM194.148 43.033L194.126 43.0442C194.115 43.0498 194.109 43.0652 194.115 43.0764C194.119 43.0848 194.127 43.0904 194.136 43.0904C194.14 43.0904 194.143 43.089 194.147 43.0876L194.169 43.0764C194.182 43.0708 194.186 43.0568 194.181 43.0442C194.175 43.0316 194.161 43.0274 194.148 43.033ZM194.04 43.0876L194.019 43.0989C194.008 43.1045 194.002 43.1199 194.009 43.1311C194.014 43.1395 194.022 43.1437 194.031 43.1437C194.035 43.1437 194.038 43.1423 194.042 43.1409L194.063 43.1297C194.074 43.1241 194.08 43.1087 194.073 43.0975C194.066 43.0862 194.052 43.082 194.04 43.0876ZM191.166 46.1894C191.176 46.1894 191.184 46.1838 191.188 46.1754L191.198 46.1529C191.204 46.1403 191.198 46.1263 191.186 46.1207C191.173 46.1151 191.159 46.1207 191.153 46.1333L191.143 46.1557C191.138 46.1684 191.143 46.1824 191.156 46.188C191.159 46.188 191.163 46.1894 191.166 46.1894ZM191.216 46.0787C191.225 46.0787 191.235 46.0731 191.239 46.0646L191.249 46.0422C191.254 46.0296 191.249 46.0156 191.238 46.01C191.225 46.0044 191.211 46.01 191.205 46.0212L191.195 46.0436C191.19 46.0562 191.195 46.0703 191.207 46.0759C191.209 46.0773 191.212 46.0787 191.216 46.0787ZM193.932 43.1451L193.911 43.1563C193.9 43.1633 193.896 43.1773 193.901 43.1886C193.906 43.197 193.914 43.2012 193.922 43.2012C193.927 43.2012 193.931 43.1998 193.934 43.1984L193.955 43.1872C193.966 43.1801 193.97 43.1661 193.965 43.1549C193.958 43.1423 193.943 43.1381 193.932 43.1451ZM191.312 45.8572C191.316 45.8586 191.319 45.86 191.323 45.86C191.332 45.86 191.34 45.8558 191.344 45.8474L191.355 45.8264C191.361 45.8152 191.357 45.7997 191.346 45.7941C191.334 45.7885 191.319 45.7927 191.313 45.8039L191.302 45.825C191.296 45.8362 191.301 45.8502 191.312 45.8572ZM191.268 45.9679C191.277 45.9679 191.285 45.9623 191.289 45.9539L191.301 45.9315C191.306 45.9203 191.302 45.9049 191.289 45.8993C191.278 45.8936 191.263 45.8979 191.257 45.9105L191.246 45.9329C191.24 45.9455 191.245 45.9595 191.257 45.9651C191.261 45.9679 191.266 45.9679 191.268 45.9679ZM194.247 42.9853L194.235 42.9909C194.223 42.9965 194.219 43.0106 194.224 43.0232C194.228 43.0316 194.237 43.0372 194.247 43.0372C194.249 43.0372 194.254 43.0358 194.256 43.0344L194.268 43.0288C194.28 43.0232 194.285 43.0092 194.279 42.9965C194.273 42.9853 194.259 42.9797 194.247 42.9853Z" fill="url(#paint0_linear_818_161)"/>
<defs>
<linearGradient id="paint0_linear_818_161" x1="71.9803" y1="97.1066" x2="129.875" y2="-3.30703" gradientUnits="userSpaceOnUse">
<stop stop-color="#D59647"/>
<stop offset="0.0905" stop-color="#68421D"/>
<stop offset="0.2927" stop-color="#D59647"/>
<stop offset="0.4124" stop-color="#A06D32"/>
<stop offset="0.532" stop-color="#6E471F"/>
<stop offset="0.6965" stop-color="#B17A39"/>
<stop offset="0.7959" stop-color="#D59647"/>
<stop offset="0.8765" stop-color="#97662F"/>
<stop offset="0.9422" stop-color="#68421D"/>
<stop offset="1" stop-color="#BA813D"/>
</linearGradient>
</defs>
</svg>
