<svg width="250" height="84" viewBox="0 0 250 84" fill="none" xmlns="http://www.w3.org/2000/svg">
<path d="M68.7008 20.3555C61.8035 13.4583 52.6473 9.64207 42.9013 9.59194C42.8244 9.5485 42.7375 9.52344 42.6423 9.52344C42.547 9.52344 42.4585 9.55017 42.3799 9.59361C32.684 9.67883 23.5829 13.49 16.7174 20.3555C9.77504 27.2979 5.95215 36.5293 5.95215 46.3472C5.95215 52.5511 7.52609 58.6831 10.5052 64.0816C10.6021 64.2587 10.7859 64.359 10.9747 64.359C11.0616 64.359 11.1518 64.3372 11.2337 64.2921C11.4927 64.1484 11.5862 63.8226 11.4442 63.5636C8.55199 58.3239 7.02483 52.3706 7.02483 46.3472C7.02483 26.8718 22.7074 10.9921 42.1076 10.6696V24.0498C41.0733 24.2937 40.2997 25.221 40.2997 26.3288V28.115C35.2354 28.8351 32.547 31.5101 32.4184 31.6404C32.3198 31.7407 32.2646 31.876 32.2646 32.0164V35.4349C32.2646 35.7307 32.5052 35.9713 32.801 35.9713H52.4852C52.781 35.9713 53.0216 35.7307 53.0216 35.4349V32.0164C53.0216 31.8877 52.9748 31.7624 52.8896 31.6655C52.7726 31.5302 50.2496 28.7031 44.9865 28.0648V26.3288C44.9865 25.221 44.2129 24.2921 43.1786 24.0498V10.668C45.8553 10.7031 48.4602 11.0322 50.9648 11.627C49.324 17.612 49.9088 24.1066 52.6323 29.9796C56.4869 38.2971 63.999 43.9145 72.1812 45.1208C71.568 45.5586 71.1653 46.2737 71.1653 47.0841C71.1653 48.1952 71.9222 49.1292 72.9448 49.4082C66.1544 54.6146 62.8027 63.7491 64.3566 73.1443C64.4 73.4066 64.6273 73.5921 64.8846 73.5921C64.913 73.5921 64.9431 73.5904 64.9731 73.5854C65.2655 73.5369 65.4627 73.2612 65.4142 72.9688C63.8453 63.4851 67.4744 54.2904 74.664 49.4934H78.2564C77.827 54.3489 76.4084 59.0874 74.0893 63.3565C73.9473 63.6171 74.0442 63.9412 74.3048 64.0833C74.5655 64.2236 74.8896 64.1284 75.0316 63.8677C77.9339 58.5244 79.4677 52.4659 79.4677 46.3472C79.4661 36.5293 75.6432 27.2979 68.7008 20.3555ZM51.9489 34.8986H33.3357V32.2486C34.0591 31.6053 37.3256 29.0072 42.8428 29.0072C48.3315 29.0072 51.309 31.6037 51.9489 32.2319V34.8986ZM43.9138 26.3271V27.9662C43.5663 27.9462 43.2104 27.9328 42.8428 27.9328C42.3332 27.9328 41.8436 27.9562 41.3691 27.993V26.3255C41.3691 25.6237 41.9405 25.054 42.6406 25.054C43.3407 25.054 43.9138 25.6271 43.9138 26.3271ZM53.603 29.5285C50.9848 23.8794 50.4234 17.6371 52.0024 11.891C66.4919 15.8025 77.3558 28.6312 78.3215 44.0999C77.3725 44.2286 76.4234 44.2921 75.4761 44.2921C66.4736 44.2938 57.7935 38.5728 53.603 29.5285ZM74.5137 48.4224C74.5087 48.4224 74.5036 48.4224 74.4986 48.4224H73.5747C72.8361 48.4224 72.2363 47.8209 72.2363 47.0841C72.2363 46.3472 72.8378 45.7457 73.5747 45.7457H78.3884C78.3917 45.9462 78.3967 46.1467 78.3967 46.3489C78.3967 47.0423 78.375 47.734 78.3349 48.4241H74.5137V48.4224ZM46.9263 54.4475H38.2947C36.5821 54.4475 35.0767 55.4166 34.3398 56.8769V50.4191C34.3398 45.7006 30.5002 41.861 25.7818 41.861H20.8043C16.0858 41.861 12.2462 45.7006 12.2462 50.4191V59.5469C12.2462 61.9412 13.2354 64.1083 14.826 65.6639L13.4593 73.6405C13.4091 73.9312 13.6046 74.2086 13.897 74.2587C13.9271 74.2637 13.9588 74.2671 13.9889 74.2671C14.2446 74.2671 14.4718 74.0833 14.5169 73.8226L15.7784 66.4692C17.1919 67.4985 18.9296 68.1083 20.8076 68.1083H22.9614H23.2671L24.3081 74.3556C24.3515 74.618 24.5787 74.8034 24.8361 74.8034C24.8645 74.8034 24.8945 74.8018 24.9246 74.7967C25.217 74.7483 25.4142 74.4726 25.3657 74.1802L24.3532 68.1083H25.7851H32.2195L31.2705 73.6422C31.2204 73.9329 31.4159 74.2103 31.7083 74.2604C31.7383 74.2654 31.7701 74.2688 31.8001 74.2688C32.0558 74.2688 32.283 74.085 32.3281 73.8243L33.3073 68.11H40.3699C40.7442 68.11 41.1084 68.0666 41.4576 67.9847L42.5203 74.3573C42.5637 74.6196 42.791 74.8051 43.0483 74.8051C43.0767 74.8051 43.1068 74.8034 43.1368 74.7984C43.4292 74.75 43.6264 74.4743 43.5779 74.1819L42.4852 67.6221C44.0876 66.8368 45.192 65.191 45.192 63.2913C45.192 60.8351 43.344 58.8017 40.9647 58.5093L40.4668 55.5252H46.9313C47.2271 55.5252 47.4677 55.2846 47.4677 54.9888C47.4677 54.6931 47.2221 54.4475 46.9263 54.4475ZM22.958 67.0357H20.8043C18.968 67.0357 17.2838 66.3707 15.9806 65.2679L17.1736 58.3138C17.4509 56.6948 18.8444 55.5202 20.4868 55.5202H21.1652L23.085 67.0357H22.958ZM25.7818 67.0357H24.1711L22.2513 55.5202H29.1184C29.4142 55.5202 29.6548 55.2796 29.6548 54.9838C29.6548 54.6881 29.4142 54.4475 29.1184 54.4475H20.4868C18.3214 54.4475 16.4835 55.9964 16.1176 58.1317L15.0533 64.3356C13.9705 63.0373 13.3172 61.3665 13.3172 59.5469V50.4191C13.3172 46.2904 16.6756 42.932 20.8043 42.932H25.7818C29.9104 42.932 33.2688 46.2904 33.2688 50.4191V58.4642H25.3657C25.07 58.4642 24.8294 58.7048 24.8294 59.0006C24.8294 59.2963 25.07 59.5369 25.3657 59.5369H33.6865L32.4017 67.0357H25.7818ZM44.1143 63.2863C44.1143 65.3531 42.4317 67.0357 40.3649 67.0357H33.4877L34.7726 59.5369H40.3666C42.4334 59.5369 44.1143 61.2178 44.1143 63.2863ZM39.867 58.4659H34.9564L34.9831 58.3138C35.2605 56.6948 36.654 55.5202 38.2964 55.5202H39.3774L39.867 58.4659ZM76.3182 43.1893C76.4151 43.3664 76.5989 43.4684 76.7877 43.4684C76.8746 43.4684 76.9631 43.4466 77.045 43.4032C77.304 43.2612 77.3992 42.9354 77.2572 42.6764L66.4101 22.8585C66.268 22.5995 65.9422 22.5042 65.6833 22.6463C65.4243 22.7883 65.329 23.1141 65.4711 23.3731L76.3182 43.1893ZM66.0809 32.6764C65.8888 32.4508 65.5513 32.4241 65.3257 32.6162C65.1001 32.8084 65.0734 33.1459 65.2655 33.3714L73.0316 42.4775C73.1369 42.6012 73.2873 42.6664 73.4393 42.6664C73.563 42.6664 73.6866 42.6246 73.7869 42.5377C74.0124 42.3456 74.0392 42.008 73.847 41.7825L66.0809 32.6764ZM76.5003 50.8936C76.238 50.7566 75.9138 50.8585 75.7768 51.1192L71.2238 59.8226C71.0868 60.0849 71.1887 60.4091 71.4493 60.5461C71.5279 60.5879 71.6131 60.6079 71.6966 60.6079C71.8904 60.6079 72.0759 60.5026 72.1712 60.3205L76.7242 51.6171C76.8646 51.3548 76.7626 51.0306 76.5003 50.8936ZM95.9306 51.6572L95.1737 53.2044C93.558 52.3456 92.2163 51.039 91.6332 49.1476L93.3525 48.5628C93.7652 49.9045 94.6591 50.9688 95.9306 51.6572ZM109.545 48.1167C109.545 52.0348 105.901 54.5444 100.95 54.5444C100.606 54.5444 100.228 54.5444 99.8838 54.5093L100.743 52.7566C100.811 52.7566 100.88 52.7566 100.948 52.7566C103.733 52.7566 107.755 51.6906 107.755 48.115C107.755 44.9872 104.97 44.0582 100.398 43.0273C96.5137 42.0983 92.1478 40.9303 92.1478 36.5644C92.1478 32.2336 95.8253 29.9646 100.021 29.9646C100.846 29.9646 101.601 30.0682 102.29 30.1718L101.155 31.8209C100.778 31.7875 100.398 31.7524 99.9857 31.7524C95.8604 31.7524 93.9356 33.8844 93.9356 36.5644C93.9356 39.3497 96.4803 40.3806 100.811 41.308C107.688 42.7883 109.545 44.5761 109.545 48.1167ZM132.201 54.2704H130.277L122.231 33.196L114.221 54.2704H112.297L121.475 30.2052H123.022L132.201 54.2704ZM152.175 30.2052H153.962V54.5093H153.687L137.426 34.5711V54.2687H135.638V29.9997H135.947L152.173 49.7675V30.2052H152.175ZM178.99 42.2369C178.99 49.4567 174.315 54.2687 166.168 54.2687H159.465V42.6496H161.252V52.4826C162.113 52.4826 163.727 52.4826 166.616 52.4826C173.114 52.4826 176.998 48.3573 176.998 42.2386C176.998 36.12 172.942 31.9947 166.616 31.9947C160.978 31.9947 159.465 31.9947 159.465 31.9947V30.2068C159.465 30.2068 159.465 30.2068 166.168 30.2068C174.211 30.2052 178.99 35.0189 178.99 42.2369ZM198.587 54.2704L193.259 44.8502C192.846 44.8852 192.434 44.9187 191.988 44.9187H185.284V54.2687H183.463V43.1309H192.126C195.735 43.1309 198.074 40.9303 198.074 37.5619C198.074 34.1584 195.633 31.993 192.126 31.993H183.463V30.2052H191.989C197.008 30.2052 199.964 33.2996 199.964 37.5619C199.964 40.8618 198.211 43.475 195.082 44.4725L200.651 54.2704H198.587ZM222.962 54.2704H221.037L212.992 33.196L204.982 54.2704H203.057L212.235 30.2052H213.782L222.962 54.2704ZM129.543 63.425H130.131V65.7408H133.139V63.425H133.727V68.638H133.139V66.2921H130.131V68.638H129.543V63.425ZM134.972 66.0315C134.972 64.5946 136.051 63.3364 137.637 63.3364C139.222 63.3364 140.288 64.5795 140.288 66.0315C140.288 67.4684 139.209 68.7266 137.623 68.7266C136.036 68.7266 134.972 67.4834 134.972 66.0315ZM139.677 66.0315C139.677 64.8469 138.813 63.8794 137.622 63.8794C136.43 63.8794 135.581 64.8318 135.581 66.0315C135.581 67.2161 136.445 68.1835 137.637 68.1835C138.828 68.1835 139.677 67.2295 139.677 66.0315ZM141.531 63.425H142.126L144.024 66.2687L145.922 63.425H146.519V68.638H145.931V64.4158L144.033 67.2078H144.003L142.104 64.4225V68.6363H141.531V63.425ZM147.994 63.425H151.762V63.9613H148.582V65.7408H151.426V66.2771H148.582V68.1017H151.799V68.638H147.994V63.425ZM156.594 63.968H154.845V63.425H158.94V63.968H157.191V68.6363H156.596V63.968H156.594ZM160.041 63.425H163.809V63.9613H160.629V65.7408H163.473V66.2771H160.629V68.1017H163.846V68.638H160.041V63.425ZM166.639 65.9797L164.711 63.425H165.403L167.003 65.5536L168.589 63.425H169.274L167.346 65.9713L169.349 68.6363H168.649L166.982 66.3957L165.314 68.6363H164.636L166.639 65.9797ZM171.807 63.968H170.058V63.425H174.153V63.968H172.404V68.6363H171.809V63.968H171.807ZM175.306 63.425H175.894V68.638H175.306V63.425ZM177.419 63.425H178.008V68.0933H180.942V68.6363H177.419V63.425ZM182.029 63.425H185.797V63.9613H182.617V65.7408H185.461V66.2771H182.617V68.1017H185.834V68.638H182.029V63.425ZM235.311 61.3364V61.826C235.311 62.0732 235.451 62.2002 235.674 62.2002C235.896 62.2002 236.039 62.0732 236.039 61.8193V61.3364H235.891V61.826C235.891 61.983 235.809 62.0632 235.677 62.0632C235.543 62.0632 235.461 61.978 235.461 61.8209V61.3381H235.311V61.3364ZM236.823 61.3364H236.487V62.1869H236.636V61.9128H236.805C236.992 61.9128 237.146 61.8126 237.146 61.6221C237.146 61.45 237.02 61.3364 236.823 61.3364ZM236.81 61.7792H236.636V61.4734H236.81C236.922 61.4734 236.993 61.5252 236.993 61.6255C236.993 61.7157 236.923 61.7792 236.81 61.7792ZM233.622 61.6071C233.622 61.4433 233.505 61.3364 233.306 61.3364H232.927V62.1869H233.075V61.8911H233.261L233.473 62.1869H233.648L233.42 61.8644C233.538 61.831 233.622 61.7474 233.622 61.6071ZM233.296 61.7591H233.077V61.4734H233.294C233.405 61.4734 233.47 61.5235 233.47 61.6138C233.47 61.7023 233.403 61.7591 233.296 61.7591ZM232.491 61.7123H232.128V61.8427H232.345V62.0014C232.293 62.0398 232.22 62.0666 232.14 62.0666C231.966 62.0666 231.851 61.9379 231.851 61.7625C231.851 61.597 231.969 61.46 232.126 61.46C232.235 61.46 232.298 61.4951 232.365 61.5519L232.46 61.4383C232.374 61.3648 232.282 61.323 232.133 61.323C231.877 61.323 231.694 61.5252 231.694 61.7625C231.694 62.0131 231.869 62.2019 232.135 62.2019C232.285 62.2019 232.405 62.1417 232.489 62.0699V61.7123H232.491ZM234.457 61.323C234.197 61.323 234.011 61.5235 234.011 61.7625C234.011 62.0047 234.193 62.2019 234.454 62.2019C234.714 62.2019 234.9 62.0014 234.9 61.7625C234.9 61.5202 234.718 61.323 234.457 61.323ZM234.457 62.0649C234.288 62.0649 234.168 61.9279 234.168 61.7625C234.168 61.5954 234.287 61.46 234.455 61.46C234.624 61.46 234.745 61.597 234.745 61.7625C234.745 61.9295 234.626 62.0649 234.457 62.0649ZM237.104 52.8401C237.207 52.7767 237.443 52.1885 237.271 52.3305C237.149 52.4308 236.975 52.4659 236.883 52.4792C236.851 52.4843 236.833 52.516 236.846 52.5461C236.9 52.6664 237.025 52.8886 237.104 52.8401ZM231.949 50.506C231.949 50.506 231.349 50.8819 231.451 51.6822C231.48 51.9496 231.271 52.2303 231.271 52.2303C231.271 52.2303 231.638 52.2086 231.755 51.9195C231.755 51.9195 231.585 52.6781 231.964 53.1108C232.138 53.3063 232.116 53.7491 232.116 53.7491C232.116 53.7491 232.43 53.587 232.42 53.2729C232.42 53.2729 233.027 53.9763 232.616 54.6263C232.616 54.6263 233.207 54.4893 233.151 53.7675C233.151 53.7675 233.222 54.7198 234.061 55.039C234.45 55.1977 234.668 55.3848 234.74 55.5586C234.74 55.5586 235.171 54.5995 234.636 53.993C234.636 53.993 235.114 54.1501 235.415 54.9972C236.018 54.0331 235.384 52.922 235.384 52.922C235.461 52.9371 235.705 53.1426 235.854 53.2746C235.826 53.2495 235.881 53.0289 235.886 52.9872C235.901 52.8452 235.889 52.6948 235.874 52.5544C235.846 52.2888 235.413 51.5803 235.757 51.3949C235.841 51.3498 235.971 51.3548 236.009 51.46C236.021 51.4934 236.014 51.5302 236.003 51.5686H236.001C235.958 51.7023 235.911 51.7808 235.797 51.8644C235.914 51.9128 236.036 51.8828 236.158 51.8961C236.085 51.9563 236.034 52.0214 236.049 52.125C236.068 52.2587 236.085 52.3556 236.039 52.4859C236.145 52.4575 236.217 52.3222 236.302 52.2604C236.325 52.3406 236.504 52.3706 236.577 52.3706C236.683 52.3706 236.801 52.3489 236.9 52.3122C236.917 52.3055 236.94 52.2988 236.963 52.2904C237.151 52.2353 237.311 52.0548 237.361 52.0147C237.379 51.9997 237.41 51.9663 237.443 51.9245C237.448 51.8577 237.438 51.7691 237.361 51.7274C237.232 51.6589 237.129 51.5218 237.216 51.4951C237.274 51.4767 237.466 51.5085 237.583 51.5369C237.585 51.5352 237.583 51.5369 237.585 51.5352C237.411 51.2545 236.551 50.8401 236.551 50.8401C236.551 50.8401 236.471 50.7031 236.39 50.5711C236.31 50.4391 235.79 50.3873 235.79 50.3873C235.79 50.3873 235.933 49.9045 235.575 49.5686C235.217 49.2328 234.384 49.1793 234.21 48.6914C234.21 48.6914 234.113 49.1142 234.275 49.3731C234.275 49.3731 233.874 48.8969 232.888 49.3197C232.618 49.4383 232.303 49.3414 232.303 49.3414C232.303 49.3414 232.591 49.6121 232.963 49.6121C232.825 49.6288 232.693 49.6605 232.566 49.7173C232.439 49.7741 232.32 49.8493 232.217 49.9429C232.071 50.0732 231.983 50.2386 231.792 50.3071C231.672 50.3506 231.545 50.3773 231.418 50.3957C231.416 50.3974 231.704 50.5929 231.949 50.506ZM236.34 50.8101L236.471 51.0323C236.14 51.0273 235.792 50.7533 235.792 50.7533C236.156 50.6898 236.34 50.8101 236.34 50.8101ZM233.346 53.6939C233.217 53.5853 233.097 53.3731 233.015 53.2228C232.96 53.1208 232.925 53.0106 232.9 52.897C232.883 52.8184 232.9 52.7282 232.875 52.6547C232.823 52.7299 232.826 52.8518 232.816 52.9437C232.805 53.0507 232.778 53.1609 232.776 53.2645C232.633 53.0239 232.562 52.7499 232.559 52.4692C232.557 52.3656 232.559 52.2553 232.582 52.1518C232.587 52.1317 232.592 52.11 232.599 52.0899C232.636 51.978 232.701 51.8878 232.773 51.7975C232.731 51.8493 232.743 51.9362 232.753 51.9964C232.756 52.0114 232.773 52.0565 232.768 52.0699C232.91 51.6705 233.286 51.455 233.653 51.298C233.513 51.4366 233.384 51.5653 233.311 51.7507C233.291 51.8025 233.286 51.8711 233.261 51.9178C233.425 51.6004 233.744 51.3982 234.076 51.2812C234.195 51.2395 234.322 51.2194 234.449 51.2144C234.557 51.2094 234.666 51.2495 234.765 51.2896C234.724 51.308 234.668 51.3046 234.624 51.3113C234.571 51.3197 234.519 51.3297 234.466 51.3431C234.364 51.3681 234.263 51.4049 234.173 51.4567C233.782 51.6822 233.486 52.0799 233.339 52.5076C233.197 52.927 233.216 53.2863 233.346 53.6939ZM234.644 54.912C234.639 54.7599 234.452 54.5945 234.355 54.4826C234.038 54.1183 233.769 53.6873 233.727 53.1944C233.692 52.7716 233.831 52.115 234.27 51.9212C234.197 51.9529 234.096 52.4826 234.068 52.6463C234.066 52.6597 234.064 52.6697 234.063 52.6781C234.006 53.054 234.051 53.4099 234.237 53.7457C234.434 54.1 234.639 54.4976 234.644 54.912ZM235.4 51.724C235.266 52.0632 235.339 52.3873 235.403 52.6062C235.299 52.5277 235.171 52.3439 235.172 52.2069C234.94 52.5394 235.024 52.922 235.142 53.2812C235.199 53.4517 235.271 53.6288 235.294 53.8092C235.318 53.9847 235.304 54.1735 235.314 54.3506C235.311 54.2704 235.262 54.1701 235.229 54.0966C235.174 53.9696 235.112 53.846 235.047 53.7224C234.98 53.5987 234.913 53.4751 234.848 53.3514C234.805 53.2679 234.776 53.1877 234.761 53.0941C234.755 53.0507 234.706 52.8786 234.738 52.8518C234.609 52.9655 234.537 53.1994 234.471 53.3531C234.466 53.3548 234.462 53.3564 234.457 53.3548C234.41 53.2879 234.387 53.171 234.375 53.0891C234.323 52.6964 234.526 52.1584 234.85 51.9228C235.01 51.8059 235.199 51.7123 235.4 51.724ZM234.509 49.5987C234.748 49.6856 235.007 50.0532 235.007 50.0532C234.706 49.8259 234.574 49.8493 234.574 49.8493V49.9763L234.141 49.9011C234.195 49.7825 234.509 49.5987 234.509 49.5987ZM233.811 50.3539C233.861 50.3823 233.912 50.4074 233.966 50.4191C234.085 50.4425 234.207 50.4943 234.327 50.4993C234.399 50.5026 234.566 50.5243 234.644 50.5076C234.539 50.6263 234.305 50.6831 234.19 50.8853C234.048 50.7315 233.827 50.78 233.663 50.8251C233.415 50.8919 233.115 51.0022 232.925 51.2411C232.98 50.9905 233.256 50.8218 233.416 50.7365C233.58 50.6497 233.724 50.5979 233.897 50.5828C233.854 50.5862 233.734 50.4842 233.692 50.4525C233.628 50.404 233.558 50.3305 233.547 50.2303C233.642 50.247 233.725 50.3055 233.811 50.3539ZM232.086 51.2177C232.09 51.0791 232.098 50.9354 232.146 50.8034C232.183 50.6998 232.293 50.4842 232.41 50.4475C232.325 50.4742 232.218 50.4826 232.125 50.4759C232.335 50.3406 232.526 50.1401 232.755 50.0281C232.99 49.9145 233.328 49.8176 233.587 49.871C233.401 50.0047 233.12 50.0599 232.973 50.2353C233.065 50.2336 233.177 50.2771 233.252 50.3238C233.192 50.3606 233.117 50.3656 233.052 50.3873C232.982 50.4124 232.915 50.4475 232.853 50.4893C232.731 50.5728 232.631 50.6847 232.546 50.8034C232.362 51.0557 232.213 51.3347 232.118 51.6321C232.131 51.5887 232.091 51.4751 232.09 51.4249C232.081 51.3564 232.085 51.2863 232.086 51.2177ZM227.314 56.8569C227.366 56.8652 228.068 56.9621 228.322 56.6447C228.335 56.628 228.42 56.521 228.402 56.4325C228.375 56.3038 228.146 56.2988 228.011 56.2971C227.01 56.2821 226.766 56.3172 226.225 56.3473C226.004 56.3589 225.72 56.3706 225.425 56.5544C225.249 56.663 225.181 56.7633 225.147 56.8201C225.087 56.9287 225.03 57.1142 225.122 57.2094C225.221 57.3097 225.44 57.2612 225.58 57.1726C225.734 57.0741 225.749 56.9538 225.906 56.8736C226.011 56.8201 226.111 56.8184 226.178 56.8251C226.043 57.3414 225.936 57.7708 225.859 58.0933C225.63 59.034 225.699 58.795 225.677 58.9053C225.637 59.1041 225.598 59.3163 225.56 59.5653C225.536 59.709 225.819 59.694 225.938 59.7006C226.008 59.7057 226.303 59.6956 226.357 59.5954C226.501 59.328 226.765 58.5962 226.853 58.3205C227.05 57.7173 227.166 57.3815 227.314 56.8569ZM228.058 57.455C227.934 57.8193 227.821 58.1852 227.719 58.5511C227.531 59.2311 227.592 59.562 227.775 59.6973C227.996 59.8594 228.357 59.7508 228.465 59.7174C228.958 59.5686 229.261 59.166 229.318 59.0874C229.304 59.1359 229.293 59.1877 229.291 59.2328C229.261 59.3347 229.286 59.45 229.324 59.5202C229.394 59.6539 229.547 59.7157 229.7 59.7458C230.016 59.8092 230.419 59.7474 230.758 59.567C230.823 59.5319 230.88 59.4951 230.932 59.46C230.932 59.5185 230.942 59.5737 230.973 59.6188C231.054 59.7307 231.207 59.7541 231.358 59.7558C231.445 59.7574 231.533 59.7491 231.623 59.729C231.7 59.7123 231.819 59.6856 231.886 59.6271C232.001 59.5285 232.068 59.4433 232.113 59.3097C232.14 59.2311 232.156 59.1493 232.178 59.0707C232.191 59.0206 232.205 58.9705 232.22 58.9187C232.233 58.8869 232.248 58.8518 232.267 58.8151C232.327 58.6848 232.389 58.5544 232.489 58.4074C232.654 58.1668 232.953 57.846 233.112 57.8777C233.139 57.8828 233.156 57.8978 233.172 57.9145C233.164 57.9062 233.072 58.0214 233.064 58.0348C232.963 58.1668 232.923 58.2988 233.009 58.4041C233.149 58.5762 233.45 58.6179 233.699 58.5912C233.787 58.5812 233.879 58.5695 233.969 58.5394C234.011 58.526 234.064 58.5077 234.096 58.4726C234.148 58.4158 234.103 58.3874 234.085 58.3473C234.076 58.3272 234.071 58.3038 234.07 58.2804C234.066 58.2487 234.07 58.2153 234.073 58.1818C234.098 57.9463 234.188 57.6823 234.078 57.4884C233.988 57.3297 233.772 57.3097 233.709 57.3046C233.261 57.2645 232.798 57.6956 232.648 57.836C232.603 57.8777 232.519 57.9579 232.429 58.0666C232.474 57.8694 232.521 57.6739 232.566 57.4767C232.586 57.3932 232.499 57.3397 232.442 57.3147C232.34 57.2679 232.191 57.2545 232.068 57.2629C231.938 57.2712 231.792 57.2879 231.662 57.3514C231.582 57.3899 231.488 57.44 231.461 57.5285C231.358 57.8744 231.256 58.2219 231.152 58.5678C231.112 58.6998 231.079 58.8335 231.044 58.9655C230.999 59.0173 230.947 59.0724 230.887 59.1275C230.634 59.3531 230.307 59.4834 230.232 59.4116C230.228 59.4099 230.227 59.4049 230.225 59.4016C230.303 59.3648 230.375 59.313 230.427 59.2462C230.497 59.1559 230.494 59.0356 230.512 58.9404C230.609 58.4124 230.76 57.8711 230.922 57.3414C230.947 57.2562 230.846 57.196 230.793 57.171C230.686 57.1225 230.531 57.1075 230.4 57.1175C230.263 57.1259 230.111 57.1442 229.974 57.2111C229.891 57.2512 229.794 57.303 229.764 57.3965C229.674 57.6856 229.593 57.9763 229.52 58.2654C229.431 58.5394 229.309 58.902 229.104 59.0858C229.034 59.1476 228.758 59.3631 228.765 59.2011C228.773 59.0173 228.836 58.8117 228.88 58.6229C228.97 58.2169 229.07 57.8092 229.182 57.4016C229.206 57.318 229.11 57.2612 229.057 57.2378C228.953 57.191 228.803 57.1777 228.678 57.186C228.514 57.196 228.133 57.2361 228.058 57.455ZM240.051 57.1894C239.914 57.196 239.757 57.2244 239.625 57.3097C239.471 57.4082 239.436 57.5369 239.381 57.6839C239.288 57.9329 239.202 58.1835 239.092 58.4291C238.997 58.6413 238.885 58.8335 238.726 59.0239C238.721 59.029 238.718 59.0323 238.713 59.0373C238.676 58.8803 238.658 58.7199 238.661 58.5494C238.668 58.1768 238.746 57.7875 238.903 57.4082C239.032 57.0958 237.951 57.1075 237.789 57.4617C237.588 57.8978 237.49 58.3406 237.51 58.7633C237.511 58.8017 237.515 58.8418 237.516 58.8819C237.448 58.9621 237.366 59.0657 237.252 59.166C236.997 59.3915 236.666 59.5219 236.591 59.45C236.587 59.4483 236.586 59.4433 236.584 59.44C236.663 59.4016 236.736 59.3514 236.788 59.2846C236.85 59.2044 236.856 59.0724 236.877 58.9872C236.917 58.8084 236.96 58.6296 237.007 58.4508C237.1 58.0933 237.204 57.7357 237.321 57.3782C237.348 57.293 237.247 57.2328 237.196 57.2077C237.089 57.1593 236.935 57.1442 236.803 57.1543C236.666 57.1626 236.514 57.181 236.375 57.2478C236.359 57.2562 236.342 57.2645 236.325 57.2729C236.066 57.1977 235.76 57.2044 235.456 57.2863C234.758 57.4751 234.275 58.1568 234.11 58.8335C234.063 59.0256 234.031 59.313 234.145 59.4901C234.23 59.6221 234.392 59.714 234.539 59.7541C234.917 59.8594 235.348 59.7391 235.679 59.5503C235.68 59.5536 235.68 59.5569 235.682 59.5603C235.749 59.694 235.899 59.7558 236.053 59.7859C236.367 59.8493 236.771 59.7875 237.114 59.6071C237.336 59.4901 237.475 59.3498 237.548 59.2746C237.548 59.2746 237.56 59.2629 237.577 59.2445C237.597 59.3147 237.623 59.3798 237.657 59.4417C237.785 59.6806 237.989 59.7391 238.287 59.7374C238.273 59.7391 238.26 59.7407 238.247 59.7441C238.412 59.729 238.581 59.7107 238.75 59.6622C239.074 59.5686 239.328 59.3214 239.57 59.0741C239.697 58.9454 240.121 58.2771 240.183 58.1668C240.288 57.9763 240.384 57.7808 240.464 57.5854C240.593 57.2595 240.318 57.1777 240.051 57.1894ZM235.841 58.506C235.797 58.6697 235.757 58.8351 235.719 58.9989C235.588 59.1442 235.441 59.2813 235.271 59.3698C235.242 59.3848 235.224 59.3882 235.216 59.3899C235.216 59.3899 235.192 59.3915 235.172 59.3782C235.047 59.293 235.122 58.9437 235.122 58.9437C235.212 58.516 235.493 57.7892 235.831 57.6756C235.914 57.6472 235.976 57.6488 235.976 57.6488C236.023 57.6488 236.056 57.6605 236.083 57.6756C235.996 57.9513 235.914 58.2286 235.841 58.506ZM244.046 58.7817C244.033 58.7282 243.923 58.7349 243.914 58.7349C243.782 58.7432 243.685 58.9605 243.453 59.166C243.197 59.3915 242.867 59.5219 242.791 59.45C242.788 59.4483 242.786 59.4433 242.785 59.44C242.863 59.4016 242.937 59.3514 242.989 59.2846C243.05 59.2044 243.057 59.0724 243.077 58.9872C243.117 58.8084 243.161 58.6296 243.207 58.4508C243.301 58.0933 243.405 57.7357 243.521 57.3782C243.548 57.293 243.448 57.2328 243.396 57.2077C243.289 57.1593 243.136 57.1442 243.004 57.1543C242.867 57.1626 242.714 57.181 242.576 57.2478C242.559 57.2562 242.542 57.2645 242.526 57.2729C242.267 57.1977 241.961 57.2044 241.657 57.2863C240.958 57.4751 240.476 58.1568 240.31 58.8335C240.263 59.0256 240.232 59.313 240.345 59.4901C240.43 59.6221 240.592 59.714 240.74 59.7541C241.117 59.8594 241.548 59.7391 241.879 59.5503C241.881 59.5536 241.881 59.5569 241.882 59.5603C241.949 59.694 242.1 59.7558 242.253 59.7859C242.567 59.8493 242.972 59.7875 243.314 59.6071C243.537 59.4901 243.675 59.3498 243.749 59.2746C243.749 59.2746 244.004 59.0206 244.046 58.8051C244.048 58.795 244.048 58.7884 244.046 58.7817ZM242.043 58.506C241.999 58.6697 241.959 58.8351 241.921 58.9989C241.791 59.1442 241.643 59.2813 241.473 59.3698C241.445 59.3848 241.426 59.3882 241.418 59.3899C241.418 59.3899 241.395 59.3915 241.374 59.3782C241.249 59.293 241.324 58.9437 241.324 58.9437C241.415 58.516 241.695 57.7892 242.033 57.6756C242.116 57.6472 242.178 57.6488 242.178 57.6488C242.225 57.6488 242.258 57.6605 242.285 57.6756C242.198 57.9513 242.116 58.2286 242.043 58.506ZM242.181 60.0615C242.136 60.0482 242.088 60.0766 242.076 60.1217C241.141 63.5436 238.008 65.9329 234.457 65.9329C230.883 65.9329 227.745 63.5235 226.825 60.0749C226.813 60.0298 226.765 60.0014 226.719 60.0148C226.674 60.0265 226.646 60.0749 226.659 60.12C227.6 63.6438 230.806 66.105 234.457 66.105C236.263 66.105 237.969 65.5219 239.395 64.4191C240.775 63.3514 241.785 61.841 242.243 60.1668C242.255 60.1217 242.227 60.0749 242.181 60.0615ZM236.449 50.3907C239.563 51.201 241.854 53.7825 242.283 56.9705C242.288 57.0139 242.327 57.0457 242.369 57.0457C242.372 57.0457 242.377 57.0457 242.38 57.0457C242.427 57.039 242.461 56.9955 242.454 56.9488C242.238 55.3548 241.557 53.8727 240.482 52.668C239.415 51.4717 238.034 50.6263 236.492 50.2253C236.445 50.2136 236.399 50.2403 236.387 50.2871C236.375 50.3305 236.402 50.379 236.449 50.3907ZM226.686 56.1835C226.693 56.1852 226.699 56.1869 226.706 56.1869C226.745 56.1869 226.78 56.1601 226.79 56.1217C227.378 53.7591 229.065 51.7658 231.304 50.7917C231.348 50.7733 231.368 50.7215 231.349 50.6781C231.331 50.6346 231.279 50.6146 231.236 50.633C230.115 51.1208 229.1 51.8744 228.305 52.8084C227.501 53.7524 226.92 54.8836 226.623 56.0799C226.613 56.125 226.641 56.1718 226.686 56.1835ZM234.455 65.6956C231.025 65.6956 227.989 63.3899 227.074 60.0866C227.067 60.0632 227.044 60.0499 227.02 60.0565C226.997 60.0632 226.983 60.0866 226.99 60.11C227.435 61.709 228.405 63.1526 229.729 64.1718C231.094 65.2245 232.728 65.7809 234.455 65.7809C236.183 65.7809 237.817 65.2245 239.182 64.1718C240.504 63.1526 241.476 61.709 241.921 60.11C241.928 60.0866 241.914 60.0632 241.891 60.0565C241.867 60.0499 241.844 60.0632 241.837 60.0866C240.922 63.3882 237.887 65.6956 234.455 65.6956ZM242.085 57.0022C242.086 57.0022 242.088 57.0022 242.091 57.0022C242.115 56.9989 242.131 56.9772 242.128 56.9538C241.709 53.9546 239.558 51.4617 236.651 50.6045C236.628 50.5979 236.604 50.6112 236.598 50.633C236.591 50.6563 236.604 50.6797 236.626 50.6864C239.501 51.5335 241.628 53.998 242.043 56.9655C242.044 56.9872 242.063 57.0022 242.085 57.0022ZM231.289 51.059C231.311 51.049 231.321 51.0239 231.311 51.0022C231.301 50.9805 231.276 50.9705 231.254 50.9805C230.217 51.4533 229.276 52.1651 228.537 53.039C227.792 53.9212 227.246 54.9755 226.957 56.0899C226.95 56.1133 226.965 56.1367 226.987 56.1417C226.99 56.1434 226.993 56.1434 226.997 56.1434C227.015 56.1434 227.034 56.13 227.039 56.1117C227.622 53.8644 229.171 52.0214 231.289 51.059ZM235.381 64.3656C235.237 64.3656 235.105 64.3138 235.005 64.2286C234.993 64.2203 234.982 64.2103 234.97 64.1986L234.21 63.4534C233.929 63.1743 233.473 63.1743 233.192 63.455C233.055 63.592 232.985 63.7692 232.982 63.9496C233.055 63.7224 233.274 63.557 233.532 63.557C233.675 63.557 233.807 63.6088 233.907 63.694C233.919 63.7023 233.931 63.7123 233.943 63.724L234.703 64.4692C234.983 64.7483 235.44 64.7483 235.72 64.4676C235.857 64.3306 235.928 64.1535 235.931 63.973C235.856 64.2002 235.638 64.3656 235.381 64.3656ZM234.703 63.4467L234.512 63.6372L234.783 63.9028L234.97 63.7157C235.102 63.5837 235.319 63.5837 235.451 63.7157C235.583 63.8477 235.583 64.0649 235.451 64.1969C235.41 64.2387 235.361 64.2671 235.308 64.2821C235.331 64.2854 235.356 64.2871 235.381 64.2871C235.582 64.2871 235.77 64.1651 235.847 63.978C235.899 63.8477 235.884 63.714 235.827 63.5954C235.789 63.5169 235.73 63.445 235.662 63.3865C235.384 63.161 234.952 63.1977 234.703 63.4467ZM234.131 64.0164L233.943 64.2036C233.811 64.3356 233.593 64.3356 233.461 64.2036C233.329 64.0716 233.329 63.8544 233.461 63.7224C233.503 63.6806 233.552 63.6522 233.605 63.6372C233.582 63.6338 233.557 63.6321 233.532 63.6321C233.256 63.6321 233.032 63.851 233.032 64.12C233.032 64.3088 233.162 64.4759 233.316 64.5745C233.595 64.7533 233.976 64.7082 234.21 64.4759L234.404 64.2854L234.131 64.0164ZM241.677 60.1401C241.68 60.1401 241.682 60.1417 241.685 60.1417C241.697 60.1417 241.709 60.1334 241.714 60.12L241.717 60.1067C241.722 60.0916 241.712 60.0749 241.697 60.0716C241.682 60.0666 241.665 60.0766 241.662 60.0916L241.658 60.105C241.653 60.12 241.662 60.1351 241.677 60.1401ZM230.339 64.3155C230.325 64.3072 230.307 64.3105 230.298 64.3239C230.29 64.3372 230.293 64.3556 230.307 64.364L230.33 64.3807C230.335 64.384 230.34 64.3857 230.345 64.3857C230.355 64.3857 230.364 64.3807 230.369 64.3723C230.377 64.359 230.374 64.3406 230.36 64.3322L230.339 64.3155ZM231.473 64.9304C231.458 64.9237 231.441 64.9304 231.435 64.9454C231.428 64.9605 231.435 64.9772 231.45 64.9839L231.476 64.9956C231.48 64.9972 231.485 64.9972 231.488 64.9972C231.5 64.9972 231.51 64.9905 231.515 64.9805C231.521 64.9655 231.515 64.9488 231.5 64.9421L231.473 64.9304ZM231.343 64.8719C231.328 64.8652 231.311 64.8719 231.304 64.8853C231.298 64.9003 231.304 64.917 231.318 64.9237L231.344 64.9354C231.348 64.9371 231.353 64.9387 231.356 64.9387C231.368 64.9387 231.378 64.9321 231.383 64.922C231.389 64.907 231.383 64.8903 231.368 64.8836L231.343 64.8719ZM231.605 64.9872C231.59 64.9805 231.573 64.9889 231.568 65.0022C231.562 65.0173 231.57 65.034 231.583 65.039L231.61 65.0507C231.613 65.0524 231.617 65.0524 231.62 65.0524C231.632 65.0524 231.642 65.0457 231.647 65.034C231.653 65.0189 231.645 65.0022 231.632 64.9972L231.605 64.9872ZM229.946 64.0749C229.936 64.0883 229.939 64.105 229.953 64.115L229.976 64.1317C229.981 64.1351 229.988 64.1367 229.993 64.1367C230.001 64.1367 230.009 64.1334 230.016 64.125C230.026 64.1117 230.023 64.095 230.009 64.0849L229.986 64.0682C229.974 64.0599 229.956 64.0632 229.946 64.0749ZM231.212 64.8118C231.197 64.8051 231.181 64.8101 231.174 64.8251C231.167 64.8402 231.172 64.8569 231.187 64.8636L231.214 64.8752C231.217 64.8769 231.222 64.8786 231.226 64.8786C231.236 64.8786 231.247 64.8719 231.252 64.8619C231.259 64.8469 231.252 64.8301 231.239 64.8235L231.212 64.8118ZM230.063 64.1601C230.053 64.1735 230.056 64.1902 230.07 64.2002L230.093 64.2169C230.098 64.2203 230.103 64.222 230.11 64.222C230.118 64.222 230.128 64.2169 230.133 64.2103C230.141 64.1969 230.14 64.1802 230.126 64.1702L230.103 64.1535C230.09 64.1451 230.071 64.1468 230.063 64.1601ZM230.18 64.2437C230.171 64.257 230.175 64.2737 230.186 64.2838L230.21 64.3005C230.215 64.3038 230.22 64.3055 230.227 64.3055C230.235 64.3055 230.245 64.3005 230.25 64.2921C230.258 64.2788 230.255 64.2604 230.242 64.252L230.218 64.2353C230.207 64.227 230.188 64.2303 230.18 64.2437ZM230.955 64.6814C230.942 64.6748 230.923 64.6798 230.917 64.6931C230.91 64.7065 230.915 64.7249 230.928 64.7316L230.953 64.7449C230.958 64.7466 230.962 64.7483 230.967 64.7483C230.977 64.7483 230.987 64.7433 230.992 64.7332C230.999 64.7199 230.993 64.7015 230.98 64.6948L230.955 64.6814ZM230.459 64.394C230.445 64.3857 230.427 64.389 230.419 64.4024C230.41 64.4158 230.414 64.4342 230.427 64.4425L230.452 64.4575C230.457 64.4609 230.462 64.4626 230.467 64.4626C230.477 64.4626 230.486 64.4575 230.492 64.4492C230.501 64.4358 230.497 64.4174 230.484 64.4091L230.459 64.394ZM230.83 64.6129C230.816 64.6046 230.798 64.6096 230.791 64.6246C230.783 64.638 230.788 64.6564 230.803 64.6631L230.828 64.6764C230.833 64.6781 230.836 64.6798 230.841 64.6798C230.851 64.6798 230.861 64.6748 230.867 64.6647C230.875 64.6514 230.87 64.633 230.855 64.6263L230.83 64.6129ZM231.084 64.7483C231.07 64.7416 231.052 64.7466 231.045 64.7616C231.039 64.775 231.044 64.7934 231.059 64.8001L231.085 64.8134C231.089 64.8151 231.094 64.8168 231.099 64.8168C231.109 64.8168 231.119 64.8118 231.124 64.8001C231.131 64.7867 231.125 64.7683 231.11 64.7616L231.084 64.7483ZM230.581 64.4692C230.567 64.4609 230.549 64.4659 230.541 64.4793C230.532 64.4926 230.537 64.511 230.551 64.5194L230.576 64.5344C230.581 64.5377 230.586 64.5377 230.591 64.5377C230.601 64.5377 230.611 64.5327 230.616 64.5244C230.624 64.511 230.619 64.4926 230.606 64.4843L230.581 64.4692ZM230.704 64.5428C230.691 64.5344 230.673 64.5394 230.666 64.5528C230.658 64.5661 230.663 64.5845 230.676 64.5912L230.701 64.6062C230.706 64.6096 230.711 64.6096 230.716 64.6096C230.726 64.6096 230.736 64.6046 230.741 64.5945C230.75 64.5812 230.745 64.5628 230.731 64.5561L230.704 64.5428ZM229.832 63.988C229.822 63.9997 229.826 64.0181 229.837 64.0281L229.861 64.0465C229.866 64.0499 229.872 64.0532 229.877 64.0532C229.886 64.0532 229.894 64.0499 229.901 64.0415C229.911 64.0281 229.907 64.0114 229.896 64.0014L229.872 63.983C229.859 63.973 229.842 63.9747 229.832 63.988ZM228.427 62.5528C228.414 62.5628 228.412 62.5795 228.422 62.5929L228.439 62.6163C228.444 62.623 228.454 62.628 228.462 62.628C228.469 62.628 228.474 62.6263 228.479 62.623C228.492 62.6129 228.494 62.5945 228.484 62.5829L228.467 62.5595C228.459 62.5461 228.44 62.5428 228.427 62.5528ZM228.694 62.8903C228.683 62.9003 228.681 62.9187 228.691 62.9304L228.709 62.9521C228.714 62.9588 228.723 62.9621 228.731 62.9621C228.738 62.9621 228.745 62.9605 228.75 62.9554C228.761 62.9454 228.763 62.927 228.753 62.9153L228.734 62.8936C228.726 62.8819 228.708 62.8803 228.694 62.8903ZM228.604 62.78C228.592 62.79 228.591 62.8084 228.601 62.8201L228.619 62.8418C228.624 62.8485 228.633 62.8519 228.641 62.8519C228.648 62.8519 228.654 62.8502 228.659 62.8452C228.671 62.8352 228.673 62.8168 228.663 62.8051L228.644 62.7834C228.634 62.7717 228.616 62.77 228.604 62.78ZM228.514 62.6681C228.502 62.6781 228.499 62.6965 228.509 62.7082L228.527 62.7316C228.532 62.7382 228.541 62.7433 228.549 62.7433C228.556 62.7433 228.561 62.7416 228.567 62.7366C228.579 62.7265 228.582 62.7082 228.572 62.6965L228.554 62.6747C228.546 62.6597 228.527 62.658 228.514 62.6681ZM228.788 63.0006C228.776 63.0106 228.775 63.029 228.785 63.0407L228.803 63.0624C228.808 63.0691 228.816 63.0724 228.825 63.0724C228.831 63.0724 228.838 63.0707 228.843 63.0657C228.855 63.0557 228.856 63.0373 228.845 63.0256L228.826 63.0039C228.818 62.9905 228.801 62.9889 228.788 63.0006ZM228.18 62.2002C228.166 62.2086 228.163 62.227 228.171 62.2403L228.188 62.2637C228.193 62.2721 228.203 62.2771 228.212 62.2771C228.217 62.2771 228.223 62.2754 228.228 62.2721C228.242 62.2637 228.245 62.2453 228.237 62.232L228.22 62.2086C228.21 62.1952 228.193 62.1919 228.18 62.2002ZM228.885 63.1075C228.873 63.1175 228.873 63.1359 228.883 63.1476L228.903 63.1693C228.908 63.176 228.917 63.1793 228.925 63.1793C228.932 63.1793 228.938 63.1777 228.945 63.171C228.957 63.161 228.957 63.1426 228.947 63.1309L228.927 63.1092C228.913 63.0975 228.897 63.0975 228.885 63.1075ZM228.26 62.3189C228.247 62.3272 228.243 62.3456 228.253 62.359L228.27 62.3823C228.275 62.3907 228.285 62.394 228.293 62.394C228.298 62.394 228.305 62.3924 228.31 62.389C228.323 62.3807 228.327 62.3623 228.317 62.3489L228.3 62.3255C228.29 62.3139 228.273 62.3105 228.26 62.3189ZM228.342 62.4375C228.328 62.4475 228.327 62.4642 228.335 62.4776L228.352 62.501C228.357 62.5093 228.367 62.5127 228.375 62.5127C228.382 62.5127 228.387 62.511 228.392 62.5077C228.405 62.4976 228.407 62.4809 228.399 62.4676L228.382 62.4442C228.374 62.4308 228.355 62.4275 228.342 62.4375ZM229.082 63.3164C229.07 63.3281 229.07 63.3464 229.082 63.3565L229.102 63.3765C229.107 63.3815 229.115 63.3849 229.122 63.3849C229.129 63.3849 229.137 63.3815 229.142 63.3765C229.154 63.3648 229.154 63.3464 229.142 63.3364L229.122 63.3164C229.11 63.3063 229.092 63.3063 229.082 63.3164ZM229.391 63.6171C229.381 63.6288 229.381 63.6472 229.393 63.6572L229.415 63.6773C229.42 63.6823 229.426 63.6839 229.433 63.6839C229.441 63.6839 229.448 63.6806 229.455 63.6739C229.465 63.6622 229.465 63.6438 229.453 63.6338L229.431 63.6154C229.421 63.6037 229.403 63.6054 229.391 63.6171ZM229.5 63.7123C229.49 63.724 229.491 63.7424 229.503 63.7524L229.525 63.7708C229.53 63.7758 229.536 63.7775 229.543 63.7775C229.552 63.7775 229.56 63.7742 229.565 63.7675C229.575 63.7558 229.573 63.7374 229.562 63.7274L229.54 63.709C229.528 63.699 229.51 63.7006 229.5 63.7123ZM229.608 63.8059C229.598 63.8176 229.6 63.836 229.612 63.846L229.633 63.8644C229.638 63.8694 229.645 63.8711 229.652 63.8711C229.66 63.8711 229.669 63.8677 229.674 63.8611C229.684 63.8494 229.682 63.831 229.67 63.8209L229.648 63.8026C229.637 63.7925 229.618 63.7942 229.608 63.8059ZM228.982 63.2128C228.97 63.2245 228.97 63.2412 228.98 63.2529L229 63.2746C229.005 63.2813 229.014 63.2829 229.02 63.2829C229.027 63.2829 229.035 63.2796 229.04 63.2746C229.052 63.2629 229.052 63.2462 229.042 63.2345L229.022 63.2144C229.012 63.2027 228.993 63.2027 228.982 63.2128ZM229.719 63.8978C229.709 63.9095 229.71 63.9279 229.724 63.9379L229.747 63.9563C229.752 63.9613 229.759 63.963 229.765 63.963C229.774 63.963 229.782 63.9596 229.787 63.9529C229.797 63.9413 229.795 63.9229 229.782 63.9128L229.76 63.8945C229.747 63.8844 229.729 63.8861 229.719 63.8978ZM229.286 63.5185C229.274 63.5302 229.276 63.5486 229.288 63.5586L229.309 63.5787C229.314 63.5837 229.323 63.587 229.329 63.587C229.338 63.587 229.344 63.5837 229.351 63.5787C229.361 63.567 229.361 63.5486 229.349 63.5386L229.328 63.5185C229.316 63.5068 229.298 63.5068 229.286 63.5185ZM229.182 63.4183C229.171 63.43 229.172 63.4483 229.182 63.4584L229.202 63.4784C229.207 63.4834 229.216 63.4868 229.222 63.4868C229.229 63.4868 229.237 63.4834 229.242 63.4784C229.254 63.4667 229.252 63.4483 229.242 63.4383L229.222 63.4183C229.212 63.4066 229.194 63.4066 229.182 63.4183ZM234.716 65.5419L234.688 65.5436C234.673 65.5436 234.659 65.557 234.659 65.5737C234.659 65.5887 234.673 65.6021 234.688 65.6021C234.688 65.6021 234.688 65.6021 234.689 65.6021L234.718 65.6004C234.733 65.6004 234.746 65.587 234.746 65.5703C234.746 65.5553 234.733 65.5419 234.716 65.5419C234.718 65.5419 234.718 65.5419 234.716 65.5419ZM234.546 65.5469C234.531 65.5469 234.517 65.5603 234.517 65.5753C234.517 65.5904 234.531 65.6037 234.546 65.6037H234.574C234.589 65.6037 234.603 65.5904 234.603 65.5753C234.603 65.5603 234.589 65.5469 234.574 65.5469H234.546ZM233.687 65.5085C233.67 65.5068 233.657 65.5185 233.655 65.5336C233.653 65.5486 233.665 65.5636 233.68 65.5653L233.709 65.5687C233.71 65.5687 233.71 65.5687 233.712 65.5687C233.727 65.5687 233.739 65.557 233.74 65.5419C233.742 65.5269 233.73 65.5119 233.715 65.5102L233.687 65.5085ZM228.101 62.0799C228.088 62.0883 228.085 62.1067 228.093 62.12L228.108 62.1434C228.113 62.1518 228.123 62.1568 228.131 62.1568C228.136 62.1568 228.141 62.1551 228.146 62.1518C228.16 62.1434 228.163 62.125 228.155 62.1117L228.14 62.0883C228.133 62.0749 228.115 62.0716 228.101 62.0799ZM234.831 65.5386C234.816 65.5386 234.803 65.5536 234.805 65.5687C234.805 65.5837 234.818 65.5954 234.833 65.5954H234.835L234.863 65.5937C234.878 65.5921 234.892 65.5787 234.89 65.5636C234.888 65.5486 234.875 65.5352 234.86 65.5369L234.831 65.5386ZM234.115 65.5403C234.098 65.5386 234.086 65.5519 234.085 65.567C234.085 65.582 234.096 65.5971 234.113 65.5971L234.141 65.5987C234.141 65.5987 234.141 65.5987 234.143 65.5987C234.158 65.5987 234.171 65.587 234.171 65.572C234.171 65.557 234.16 65.5436 234.145 65.5419L234.115 65.5403ZM233.829 65.5219C233.812 65.5202 233.799 65.5319 233.797 65.5486C233.796 65.5636 233.807 65.5787 233.824 65.5804L233.852 65.582H233.854C233.869 65.582 233.881 65.5703 233.882 65.5553C233.884 65.5402 233.872 65.5252 233.856 65.5252L233.829 65.5219ZM233.973 65.5319C233.956 65.5319 233.943 65.5436 233.943 65.5586C233.941 65.5737 233.954 65.5887 233.969 65.5887L233.998 65.5904H233.999C234.014 65.5904 234.028 65.5787 234.028 65.5636C234.029 65.5486 234.016 65.5336 234.001 65.5336L233.973 65.5319ZM235.117 65.5185C235.102 65.5202 235.09 65.5336 235.09 65.5503C235.092 65.5653 235.104 65.577 235.119 65.577C235.12 65.577 235.12 65.577 235.122 65.577L235.151 65.5737C235.166 65.572 235.177 65.5586 235.177 65.5419C235.176 65.5269 235.162 65.5152 235.146 65.5152L235.117 65.5185ZM234.258 65.5453C234.242 65.5453 234.23 65.557 234.228 65.5737C234.228 65.5887 234.24 65.6021 234.257 65.6037H234.285C234.3 65.6037 234.313 65.592 234.313 65.5753C234.313 65.5603 234.302 65.5469 234.285 65.5453H234.258ZM235.827 65.4216C235.812 65.425 235.801 65.44 235.804 65.455C235.807 65.4684 235.819 65.4784 235.832 65.4784C235.834 65.4784 235.836 65.4784 235.837 65.4784L235.866 65.4734C235.881 65.4701 235.891 65.455 235.889 65.44C235.886 65.425 235.871 65.4149 235.856 65.4166L235.827 65.4216ZM231.739 65.0407C231.724 65.0357 231.707 65.0423 231.702 65.0574C231.697 65.0724 231.704 65.0891 231.719 65.0941L231.745 65.1042C231.749 65.1058 231.752 65.1058 231.755 65.1058C231.767 65.1058 231.777 65.0991 231.782 65.0875C231.787 65.0724 231.78 65.0557 231.765 65.0507L231.739 65.0407ZM241.331 61.0239L241.319 61.0507C241.313 61.0657 241.319 61.0824 241.334 61.0891C241.338 61.0908 241.343 61.0908 241.346 61.0908C241.358 61.0908 241.368 61.0841 241.373 61.0741L241.384 61.0473C241.391 61.0323 241.384 61.0156 241.369 61.0089C241.353 61.0022 241.336 61.0089 241.331 61.0239ZM235.261 65.5035C235.246 65.5052 235.234 65.5185 235.236 65.5352C235.237 65.5503 235.249 65.5603 235.264 65.5603C235.266 65.5603 235.266 65.5603 235.268 65.5603L235.296 65.557C235.311 65.5553 235.323 65.5402 235.321 65.5252C235.319 65.5102 235.306 65.4985 235.289 65.5002L235.261 65.5035ZM235.685 65.4467C235.67 65.45 235.659 65.4634 235.662 65.4801C235.664 65.4935 235.677 65.5035 235.69 65.5035C235.692 65.5035 235.694 65.5035 235.695 65.5035L235.724 65.4985C235.739 65.4951 235.75 65.4818 235.747 65.4651C235.744 65.45 235.73 65.4383 235.714 65.4417L235.685 65.4467ZM235.403 65.4885C235.388 65.4901 235.376 65.5052 235.378 65.5202C235.379 65.5352 235.391 65.5453 235.406 65.5453C235.408 65.5453 235.408 65.5453 235.41 65.5453L235.438 65.5419C235.453 65.5403 235.465 65.5252 235.463 65.5102C235.461 65.4951 235.446 65.4834 235.431 65.4851L235.403 65.4885ZM235.545 65.4684C235.53 65.4701 235.518 65.4851 235.52 65.5002C235.521 65.5152 235.535 65.5252 235.548 65.5252C235.55 65.5252 235.552 65.5252 235.552 65.5252L235.58 65.5202C235.595 65.5185 235.607 65.5035 235.603 65.4868C235.602 65.4717 235.587 65.46 235.57 65.4634L235.545 65.4684ZM235.996 65.3882L235.968 65.3932C235.953 65.3966 235.943 65.4116 235.946 65.4266C235.949 65.44 235.961 65.45 235.974 65.45C235.976 65.45 235.978 65.45 235.979 65.45L236.008 65.4433C236.023 65.44 236.033 65.425 236.029 65.4099C236.026 65.3949 236.011 65.3849 235.996 65.3882ZM232.559 65.3063C232.544 65.303 232.527 65.3113 232.524 65.3264C232.521 65.3414 232.529 65.3581 232.544 65.3615L232.572 65.3682C232.574 65.3682 232.577 65.3698 232.579 65.3698C232.592 65.3698 232.604 65.3615 232.608 65.3481C232.611 65.3331 232.603 65.3164 232.587 65.313L232.559 65.3063ZM240.323 62.7984L240.342 62.7767C240.352 62.765 240.35 62.7466 240.337 62.7366C240.325 62.7265 240.307 62.7282 240.297 62.7416L240.278 62.7633C240.268 62.775 240.27 62.7934 240.283 62.8034C240.288 62.8084 240.295 62.8101 240.302 62.8101C240.31 62.8101 240.318 62.8051 240.323 62.7984ZM232.282 65.2278C232.267 65.2228 232.25 65.2311 232.247 65.2462C232.242 65.2612 232.25 65.2779 232.265 65.2813L232.293 65.2896C232.297 65.2896 232.298 65.2913 232.302 65.2913C232.313 65.2913 232.325 65.2829 232.328 65.2712C232.334 65.2562 232.325 65.2395 232.308 65.2362L232.282 65.2278ZM232.42 65.2679C232.405 65.2646 232.389 65.2729 232.385 65.288C232.38 65.303 232.39 65.3197 232.405 65.323L232.434 65.3314C232.437 65.3314 232.439 65.3331 232.442 65.3331C232.455 65.3331 232.465 65.3247 232.471 65.3113C232.476 65.2963 232.465 65.2796 232.45 65.2763L232.42 65.2679ZM232.145 65.1844C232.13 65.1793 232.113 65.1877 232.108 65.2027C232.103 65.2178 232.111 65.2345 232.126 65.2395L232.155 65.2479C232.158 65.2495 232.161 65.2495 232.163 65.2495C232.175 65.2495 232.186 65.2412 232.19 65.2295C232.195 65.2144 232.186 65.1977 232.171 65.1927L232.145 65.1844ZM231.874 65.0908C231.859 65.0858 231.842 65.0925 231.837 65.1075C231.832 65.1225 231.839 65.1393 231.854 65.1443L231.881 65.1543C231.884 65.156 231.887 65.156 231.891 65.156C231.902 65.156 231.914 65.1493 231.917 65.1376C231.922 65.1225 231.916 65.1058 231.901 65.1008L231.874 65.0908ZM232.009 65.1392C231.994 65.1342 231.978 65.1426 231.973 65.1576C231.968 65.1727 231.976 65.1894 231.991 65.1944L232.018 65.2044C232.021 65.2061 232.024 65.2061 232.028 65.2061C232.039 65.2061 232.051 65.1994 232.054 65.186C232.059 65.171 232.051 65.1543 232.036 65.1493L232.009 65.1392ZM234.402 65.6037H234.43C234.445 65.6037 234.459 65.5904 234.459 65.5753C234.459 65.5603 234.445 65.5469 234.43 65.5469H234.402C234.387 65.5469 234.374 65.5603 234.374 65.5753C234.374 65.592 234.385 65.6037 234.402 65.6037ZM233.261 65.4534C233.244 65.45 233.231 65.4617 233.227 65.4768C233.224 65.4918 233.236 65.5068 233.251 65.5102L233.279 65.5152C233.281 65.5152 233.283 65.5152 233.284 65.5152C233.298 65.5152 233.311 65.5052 233.313 65.4901C233.314 65.4751 233.304 65.4601 233.289 65.4567L233.261 65.4534ZM232.698 65.3397C232.683 65.3364 232.668 65.3448 232.663 65.3615C232.659 65.3765 232.668 65.3915 232.684 65.3966L232.713 65.4032C232.714 65.4032 232.718 65.4032 232.719 65.4032C232.733 65.4032 232.745 65.3949 232.748 65.3815C232.751 65.3665 232.741 65.3514 232.726 65.3464L232.698 65.3397ZM233.119 65.4283C233.104 65.425 233.089 65.4367 233.085 65.4517C233.082 65.4667 233.094 65.4818 233.109 65.4851L233.137 65.4901C233.139 65.4901 233.141 65.4901 233.142 65.4901C233.156 65.4901 233.167 65.4801 233.171 65.4667C233.174 65.4517 233.162 65.4367 233.147 65.4333L233.119 65.4283ZM233.403 65.4734C233.386 65.4717 233.373 65.4818 233.371 65.4985C233.369 65.5135 233.379 65.5286 233.396 65.5302L233.425 65.5336C233.426 65.5336 233.428 65.5336 233.428 65.5336C233.441 65.5336 233.455 65.5235 233.456 65.5085C233.458 65.4935 233.448 65.4784 233.431 65.4768L233.403 65.4734ZM232.838 65.3732C232.823 65.3698 232.808 65.3799 232.805 65.3949C232.801 65.4099 232.811 65.425 232.826 65.4283L232.855 65.435C232.856 65.435 232.858 65.435 232.862 65.435C232.875 65.435 232.887 65.425 232.89 65.4116C232.893 65.3966 232.883 65.3815 232.868 65.3782L232.838 65.3732ZM232.967 65.4584L232.995 65.4634C232.997 65.4634 232.999 65.4634 233 65.4634C233.014 65.4634 233.025 65.4534 233.029 65.44C233.032 65.425 233.022 65.4099 233.005 65.4066L232.977 65.4016C232.962 65.3982 232.947 65.4083 232.943 65.4233C232.942 65.44 232.952 65.455 232.967 65.4584ZM233.545 65.4935C233.53 65.4918 233.515 65.5035 233.513 65.5185C233.511 65.5336 233.523 65.5486 233.538 65.5503L233.567 65.5536C233.568 65.5536 233.568 65.5536 233.57 65.5536C233.585 65.5536 233.597 65.5436 233.598 65.5286C233.6 65.5135 233.588 65.4985 233.573 65.4968L233.545 65.4935ZM234.975 65.5302C234.96 65.5319 234.947 65.5453 234.948 65.5603C234.95 65.5753 234.962 65.587 234.977 65.587H234.978L235.007 65.5854C235.022 65.5837 235.035 65.5703 235.034 65.5553C235.032 65.5402 235.019 65.5269 235.004 65.5286L234.975 65.5302ZM239.638 63.5402L239.658 63.5202C239.67 63.5085 239.67 63.4918 239.66 63.4801C239.648 63.4684 239.632 63.4684 239.62 63.4784L239.6 63.4985C239.588 63.5102 239.588 63.5269 239.598 63.5386C239.603 63.5453 239.612 63.5469 239.618 63.5469C239.625 63.5486 239.633 63.5453 239.638 63.5402ZM239.425 63.7357L239.446 63.7174C239.458 63.7073 239.46 63.6889 239.448 63.6773C239.438 63.6656 239.42 63.6639 239.408 63.6756L239.386 63.694C239.374 63.704 239.373 63.7224 239.383 63.7341C239.388 63.7408 239.396 63.7441 239.405 63.7441C239.413 63.7424 239.42 63.7391 239.425 63.7357ZM239.844 63.3381L239.864 63.318C239.876 63.3063 239.874 63.2879 239.864 63.2779C239.852 63.2662 239.834 63.2662 239.824 63.2779L239.804 63.298C239.792 63.3097 239.794 63.3281 239.804 63.3381C239.809 63.3431 239.817 63.3464 239.824 63.3464C239.831 63.3464 239.839 63.3431 239.844 63.3381ZM239.533 63.6388L239.555 63.6188C239.567 63.6088 239.567 63.5904 239.557 63.5787C239.547 63.567 239.528 63.567 239.516 63.577L239.495 63.5971C239.483 63.6071 239.481 63.6255 239.493 63.6372C239.498 63.6438 239.506 63.6472 239.515 63.6472C239.52 63.6455 239.527 63.6438 239.533 63.6388ZM239.742 63.44L239.762 63.4199C239.774 63.4083 239.774 63.3899 239.762 63.3798C239.75 63.3682 239.732 63.3682 239.722 63.3798L239.702 63.3999C239.69 63.4116 239.69 63.43 239.702 63.44C239.707 63.445 239.715 63.4483 239.722 63.4483C239.729 63.4483 239.737 63.445 239.742 63.44ZM239.923 63.2428C239.931 63.2428 239.938 63.2395 239.943 63.2345L239.963 63.2128C239.973 63.2011 239.973 63.1827 239.961 63.1727C239.949 63.1626 239.931 63.1626 239.921 63.1743L239.901 63.196C239.889 63.2077 239.891 63.2261 239.902 63.2361C239.909 63.2412 239.916 63.2428 239.923 63.2428ZM240.138 63.0206L240.156 62.9989C240.166 62.9872 240.165 62.9688 240.153 62.9588C240.141 62.9488 240.123 62.9504 240.113 62.9621L240.095 62.9839C240.085 62.9956 240.086 63.0139 240.098 63.024C240.103 63.029 240.11 63.0306 240.116 63.0306C240.125 63.0306 240.133 63.0273 240.138 63.0206ZM240.043 63.1276L240.063 63.1058C240.073 63.0941 240.073 63.0758 240.061 63.0657C240.049 63.0557 240.031 63.0557 240.021 63.0674L240.001 63.0891C239.991 63.1008 239.991 63.1192 240.003 63.1292C240.008 63.1342 240.014 63.1359 240.021 63.1359C240.029 63.1376 240.036 63.1342 240.043 63.1276ZM238.743 64.2671L238.766 64.2504C238.78 64.242 238.783 64.2236 238.773 64.2103C238.765 64.1969 238.746 64.1936 238.733 64.2036L238.709 64.2203C238.696 64.2286 238.693 64.247 238.703 64.2604C238.708 64.2687 238.718 64.2721 238.726 64.2721C238.733 64.2721 238.738 64.2704 238.743 64.2671ZM238.86 64.1835L238.883 64.1668C238.897 64.1568 238.898 64.1401 238.89 64.1267C238.88 64.1133 238.863 64.1117 238.85 64.12L238.826 64.1367C238.813 64.1468 238.811 64.1635 238.82 64.1768C238.825 64.1852 238.835 64.1885 238.843 64.1885C238.85 64.1902 238.855 64.1885 238.86 64.1835ZM239.316 63.8293L239.338 63.8109C239.349 63.8009 239.351 63.7825 239.341 63.7708C239.331 63.7591 239.313 63.7575 239.301 63.7675L239.279 63.7859C239.268 63.7959 239.266 63.8143 239.276 63.826C239.281 63.8326 239.289 63.836 239.298 63.836C239.303 63.836 239.309 63.8343 239.316 63.8293ZM238.608 64.3523C238.613 64.3523 238.619 64.3506 238.623 64.3473L238.646 64.3306C238.659 64.3222 238.663 64.3038 238.654 64.2905C238.646 64.2771 238.628 64.2737 238.614 64.2821L238.591 64.2988C238.577 64.3072 238.574 64.3255 238.582 64.3389C238.589 64.3489 238.598 64.3523 238.608 64.3523ZM238.487 64.4308C238.492 64.4308 238.497 64.4291 238.502 64.4258L238.527 64.4108C238.541 64.4024 238.544 64.384 238.536 64.3707C238.527 64.3573 238.509 64.354 238.496 64.3623L238.472 64.3773C238.459 64.3857 238.455 64.4041 238.464 64.4174C238.469 64.4258 238.477 64.4308 238.487 64.4308ZM240.207 62.8519L240.188 62.8736C240.178 62.8853 240.18 62.9037 240.192 62.9137C240.197 62.9187 240.203 62.9204 240.21 62.9204C240.218 62.9204 240.227 62.917 240.232 62.9103L240.25 62.8886C240.26 62.8769 240.258 62.8585 240.247 62.8485C240.235 62.8368 240.217 62.8385 240.207 62.8519ZM239.204 63.9212L239.226 63.9028C239.237 63.8928 239.239 63.8744 239.229 63.8627C239.219 63.851 239.201 63.8494 239.189 63.8594L239.167 63.8778C239.156 63.8878 239.154 63.9062 239.164 63.9179C239.169 63.9245 239.177 63.9279 239.186 63.9279C239.192 63.9279 239.199 63.9245 239.204 63.9212ZM228.026 61.958C228.013 61.9663 228.008 61.9847 228.016 61.9981L228.031 62.0231C228.036 62.0315 228.046 62.0365 228.056 62.0365C228.061 62.0365 228.066 62.0348 228.071 62.0315C228.085 62.0231 228.09 62.0047 228.081 61.9914L228.066 61.9663C228.056 61.9529 228.039 61.9496 228.026 61.958ZM239.092 64.0114L239.115 63.993C239.127 63.983 239.131 63.9646 239.12 63.9529C239.11 63.9413 239.092 63.9379 239.08 63.9479L239.059 63.9663C239.047 63.9763 239.044 63.9947 239.054 64.0064C239.059 64.0131 239.067 64.0181 239.077 64.0181C239.08 64.0164 239.085 64.0148 239.092 64.0114ZM238.977 64.0983L239 64.0816C239.014 64.0716 239.015 64.0549 239.005 64.0415C238.995 64.0281 238.978 64.0265 238.965 64.0365L238.942 64.0532C238.928 64.0632 238.927 64.0799 238.937 64.0933C238.942 64.1 238.952 64.105 238.96 64.105C238.965 64.105 238.972 64.1017 238.977 64.0983ZM240.983 61.7825C240.97 61.7742 240.952 61.7792 240.945 61.7925L240.93 61.8176C240.922 61.831 240.927 61.8494 240.94 61.856C240.945 61.8594 240.95 61.8594 240.955 61.8594C240.965 61.8594 240.975 61.8544 240.98 61.8443L240.995 61.8193C241.002 61.8092 240.997 61.7909 240.983 61.7825ZM241.054 61.6572C241.04 61.6489 241.022 61.6539 241.015 61.6689L241.002 61.694C240.994 61.7073 240.999 61.7257 241.014 61.7324C241.019 61.7341 241.024 61.7357 241.027 61.7357C241.037 61.7357 241.047 61.7307 241.052 61.7207L241.065 61.6956C241.072 61.6823 241.067 61.6656 241.054 61.6572ZM240.586 62.4542L240.603 62.4308C240.613 62.4174 240.609 62.4007 240.596 62.3907C240.582 62.3823 240.566 62.384 240.556 62.3974L240.539 62.4208C240.529 62.4341 240.532 62.4509 240.546 62.4609C240.551 62.4642 240.557 62.4659 240.562 62.4659C240.572 62.4659 240.581 62.4625 240.586 62.4542ZM241.386 60.892L241.374 60.9187C241.368 60.9337 241.376 60.9504 241.389 60.9554C241.393 60.9571 241.396 60.9571 241.401 60.9571C241.413 60.9571 241.423 60.9504 241.428 60.9387L241.44 60.912C241.446 60.897 241.438 60.8803 241.425 60.8752C241.41 60.8702 241.393 60.8769 241.386 60.892ZM241.122 61.5302C241.109 61.5235 241.09 61.5286 241.084 61.5419L241.07 61.567C241.064 61.5803 241.069 61.5987 241.082 61.6054C241.087 61.6071 241.09 61.6087 241.095 61.6087C241.105 61.6087 241.115 61.6037 241.12 61.5937L241.134 61.5686C241.141 61.5553 241.136 61.5386 241.122 61.5302ZM241.187 61.4016C241.174 61.3949 241.156 61.3999 241.149 61.4149L241.136 61.44C241.129 61.4534 241.134 61.4717 241.149 61.4784C241.154 61.4801 241.157 61.4818 241.162 61.4818C241.172 61.4818 241.182 61.4768 241.187 61.4667L241.201 61.4417C241.207 61.4266 241.201 61.4082 241.187 61.4016ZM241.273 61.156L241.261 61.1827C241.254 61.1977 241.261 61.2144 241.274 61.2211C241.278 61.2228 241.283 61.2245 241.286 61.2245C241.298 61.2245 241.308 61.2178 241.313 61.2077L241.324 61.181C241.331 61.166 241.324 61.1493 241.309 61.1426C241.296 61.1342 241.279 61.1409 241.273 61.156ZM241.212 61.2863L241.201 61.3113C241.194 61.3264 241.199 61.3431 241.214 61.3498C241.217 61.3514 241.222 61.3531 241.226 61.3531C241.236 61.3531 241.247 61.3464 241.251 61.3364L241.264 61.3097C241.271 61.2946 241.264 61.2779 241.251 61.2712C241.236 61.2662 241.219 61.2712 241.212 61.2863ZM241.44 60.7583L241.43 60.785C241.425 60.8001 241.431 60.8168 241.446 60.8218C241.45 60.8235 241.453 60.8234 241.456 60.8234C241.468 60.8234 241.478 60.8168 241.483 60.8051L241.493 60.7783C241.498 60.7633 241.491 60.7466 241.476 60.7416C241.461 60.7366 241.445 60.7433 241.44 60.7583ZM240.805 62.1083C240.815 62.1083 240.823 62.1033 240.83 62.095L240.845 62.0699C240.853 62.0565 240.85 62.0382 240.836 62.0298C240.823 62.0215 240.805 62.0248 240.796 62.0382L240.781 62.0632C240.773 62.0766 240.776 62.095 240.79 62.1033C240.795 62.1067 240.8 62.1083 240.805 62.1083ZM240.882 61.9864C240.892 61.9864 240.9 61.9813 240.907 61.973L240.922 61.9479C240.93 61.9346 240.925 61.9162 240.912 61.9078C240.898 61.8995 240.88 61.9045 240.872 61.9179L240.857 61.9429C240.848 61.9563 240.853 61.9747 240.867 61.983C240.87 61.9847 240.877 61.9864 240.882 61.9864ZM240.751 62.2153L240.768 62.1902C240.776 62.1768 240.773 62.1585 240.76 62.1501C240.746 62.1417 240.728 62.1451 240.719 62.1585L240.704 62.1818C240.696 62.1952 240.699 62.2136 240.713 62.2219C240.718 62.2253 240.723 62.227 240.728 62.227C240.736 62.2286 240.745 62.2236 240.751 62.2153ZM240.669 62.3356L240.686 62.3122C240.694 62.2988 240.691 62.2804 240.678 62.2721C240.664 62.2637 240.646 62.2671 240.638 62.2804L240.621 62.3038C240.613 62.3172 240.616 62.3339 240.628 62.3439C240.633 62.3473 240.638 62.3489 240.644 62.3489C240.656 62.3489 240.664 62.3439 240.669 62.3356ZM241.49 60.6229L241.48 60.6497C241.475 60.6647 241.481 60.6814 241.496 60.6864C241.5 60.6881 241.503 60.6881 241.506 60.6881C241.518 60.6881 241.53 60.6814 241.533 60.6697L241.543 60.643C241.548 60.628 241.542 60.6113 241.527 60.6062C241.511 60.6012 241.495 60.6096 241.49 60.6229ZM241.625 60.2136L241.617 60.2403C241.612 60.2554 241.62 60.2721 241.635 60.2754C241.638 60.2771 241.64 60.2771 241.643 60.2771C241.655 60.2771 241.667 60.2687 241.67 60.257L241.679 60.2286C241.684 60.2136 241.675 60.1969 241.66 60.1935C241.647 60.1902 241.63 60.1986 241.625 60.2136ZM241.538 60.4876L241.528 60.5143C241.523 60.5294 241.532 60.5461 241.547 60.5511C241.55 60.5528 241.553 60.5528 241.557 60.5528C241.568 60.5528 241.58 60.5461 241.583 60.5327L241.593 60.506C241.598 60.491 241.59 60.4742 241.575 60.4692C241.558 60.4659 241.543 60.4726 241.538 60.4876ZM241.583 60.3523L241.575 60.379C241.57 60.394 241.578 60.4108 241.593 60.4158C241.597 60.4174 241.6 60.4174 241.602 60.4174C241.613 60.4174 241.625 60.4091 241.628 60.3974L241.637 60.3707C241.642 60.3556 241.633 60.3389 241.618 60.3339C241.603 60.3289 241.588 60.3372 241.583 60.3523ZM238.365 64.5077C238.37 64.5077 238.375 64.506 238.38 64.5027L238.405 64.4876C238.419 64.4793 238.424 64.4609 238.415 64.4475C238.407 64.4341 238.389 64.4291 238.375 64.4375L238.35 64.4525C238.337 64.4609 238.332 64.4793 238.34 64.4926C238.347 64.5027 238.355 64.5077 238.365 64.5077ZM227.44 60.6848C227.435 60.6697 227.418 60.6631 227.403 60.6681C227.388 60.6731 227.381 60.6898 227.386 60.7048L227.396 60.7316C227.401 60.7432 227.411 60.7499 227.423 60.7499C227.426 60.7499 227.43 60.7499 227.433 60.7483C227.448 60.7433 227.455 60.7265 227.45 60.7115L227.44 60.6848ZM236.394 65.3514C236.395 65.3514 236.399 65.3514 236.4 65.3498L236.429 65.3431C236.444 65.3398 236.454 65.323 236.449 65.308C236.445 65.293 236.429 65.2829 236.414 65.288L236.385 65.2946C236.37 65.298 236.36 65.3147 236.365 65.3297C236.369 65.3431 236.38 65.3514 236.394 65.3514ZM227.344 60.4158C227.339 60.4007 227.323 60.3924 227.308 60.3974C227.293 60.4024 227.284 60.4191 227.289 60.4341L227.298 60.4609C227.301 60.4726 227.313 60.4809 227.324 60.4809C227.328 60.4809 227.331 60.4809 227.333 60.4793C227.348 60.4742 227.356 60.4575 227.351 60.4425L227.344 60.4158ZM227.49 60.8184C227.485 60.8034 227.468 60.7967 227.453 60.8017C227.438 60.8067 227.431 60.8235 227.436 60.8385L227.446 60.8652C227.451 60.8769 227.461 60.8836 227.473 60.8836C227.476 60.8836 227.48 60.8836 227.483 60.8819C227.498 60.8752 227.505 60.8585 227.5 60.8452L227.49 60.8184ZM227.391 60.5511C227.386 60.5361 227.369 60.5277 227.354 60.5344C227.339 60.5394 227.331 60.5561 227.338 60.5712L227.348 60.5979C227.353 60.6096 227.363 60.6163 227.374 60.6163C227.378 60.6163 227.381 60.6163 227.384 60.6146C227.4 60.6096 227.408 60.5929 227.401 60.5778L227.391 60.5511ZM236.115 65.4199C236.116 65.4199 236.12 65.4199 236.121 65.4199L236.15 65.4133C236.165 65.4099 236.175 65.3949 236.171 65.3782C236.168 65.3631 236.153 65.3531 236.136 65.3565L236.108 65.3631C236.093 65.3665 236.083 65.3815 236.086 65.3982C236.09 65.4116 236.101 65.4199 236.115 65.4199ZM236.253 65.3882C236.255 65.3882 236.258 65.3882 236.26 65.3865L236.288 65.3798C236.303 65.3765 236.313 65.3598 236.308 65.3448C236.305 65.3297 236.288 65.3197 236.273 65.3247L236.245 65.3314C236.23 65.3347 236.22 65.3514 236.223 65.3665C236.23 65.3782 236.242 65.3882 236.253 65.3882ZM227.259 60.1417C227.254 60.1267 227.239 60.1184 227.224 60.1217C227.209 60.1267 227.201 60.1417 227.204 60.1568L227.212 60.1852C227.216 60.1969 227.227 60.2052 227.239 60.2052C227.242 60.2052 227.244 60.2052 227.247 60.2036C227.262 60.1986 227.271 60.1835 227.267 60.1685L227.259 60.1417ZM227.301 60.2788C227.296 60.2637 227.281 60.2554 227.266 60.2604C227.251 60.2654 227.242 60.2804 227.247 60.2955L227.256 60.3239C227.259 60.3356 227.271 60.3439 227.283 60.3439C227.286 60.3439 227.288 60.3439 227.291 60.3422C227.306 60.3372 227.314 60.3222 227.309 60.3055L227.301 60.2788ZM227.545 60.9504C227.538 60.9354 227.521 60.9287 227.508 60.9354C227.493 60.9421 227.486 60.9588 227.493 60.9722L227.505 60.9989C227.51 61.0106 227.52 61.0156 227.531 61.0156C227.535 61.0156 227.54 61.0156 227.543 61.0139C227.558 61.0072 227.565 60.9905 227.558 60.9755L227.545 60.9504ZM227.672 61.2378L227.66 61.2128C227.653 61.1977 227.637 61.1927 227.622 61.1994C227.607 61.2061 227.602 61.2228 227.608 61.2378L227.62 61.2646C227.625 61.2746 227.635 61.2813 227.647 61.2813C227.65 61.2813 227.655 61.2796 227.658 61.2779C227.672 61.2696 227.679 61.2512 227.672 61.2378ZM227.682 61.3915C227.687 61.4016 227.697 61.4082 227.707 61.4082C227.712 61.4082 227.715 61.4066 227.72 61.4049C227.735 61.3982 227.74 61.3815 227.734 61.3665L227.72 61.3414C227.714 61.3264 227.697 61.3214 227.682 61.328C227.667 61.3347 227.662 61.3514 227.669 61.3665L227.682 61.3915ZM238.242 64.5812C238.247 64.5812 238.252 64.5795 238.257 64.5778L238.282 64.5628C238.295 64.5544 238.3 64.5377 238.292 64.5227C238.283 64.5093 238.267 64.5043 238.252 64.5127L238.227 64.5277C238.213 64.5361 238.208 64.5528 238.217 64.5661C238.223 64.5762 238.232 64.5812 238.242 64.5812ZM227.563 61.0674C227.548 61.0741 227.542 61.0908 227.548 61.1058L227.56 61.1326C227.565 61.1426 227.575 61.1493 227.587 61.1493C227.59 61.1493 227.595 61.1493 227.598 61.1476C227.613 61.1409 227.62 61.1242 227.613 61.1092L227.602 61.0824C227.595 61.0674 227.578 61.0607 227.563 61.0674ZM227.953 61.8343C227.939 61.8427 227.934 61.8594 227.943 61.8727L227.958 61.8978C227.963 61.9062 227.973 61.9112 227.983 61.9112C227.988 61.9112 227.993 61.9095 227.998 61.9078C228.011 61.8995 228.016 61.8828 228.008 61.8677L227.993 61.8427C227.984 61.831 227.966 61.826 227.953 61.8343ZM227.884 61.7742C227.889 61.7842 227.899 61.7892 227.909 61.7892C227.914 61.7892 227.919 61.7875 227.922 61.7859C227.936 61.7775 227.941 61.7608 227.933 61.7474L227.919 61.7224C227.911 61.709 227.894 61.704 227.881 61.7107C227.867 61.719 227.862 61.7357 227.869 61.7491L227.884 61.7742ZM227.816 61.6472C227.821 61.6572 227.831 61.6622 227.841 61.6622C227.846 61.6622 227.851 61.6605 227.854 61.6589C227.867 61.6505 227.872 61.6338 227.866 61.6204L227.852 61.5954C227.846 61.582 227.827 61.5753 227.814 61.5837C227.8 61.5904 227.795 61.6087 227.802 61.6221L227.816 61.6472ZM227.747 61.5202C227.752 61.5302 227.762 61.5352 227.772 61.5352C227.777 61.5352 227.78 61.5336 227.785 61.5319C227.799 61.5252 227.806 61.5068 227.797 61.4935L227.784 61.4684C227.777 61.455 227.759 61.4483 227.745 61.4567C227.732 61.4634 227.725 61.4818 227.734 61.4951L227.747 61.5202ZM236.689 65.2078L236.663 65.2161C236.648 65.2211 236.639 65.2362 236.644 65.2512C236.648 65.2629 236.659 65.2712 236.671 65.2712C236.674 65.2712 236.676 65.2712 236.679 65.2696L236.708 65.2612C236.723 65.2562 236.731 65.2412 236.726 65.2245C236.719 65.2111 236.704 65.2027 236.689 65.2078ZM237.607 64.9137C237.61 64.9137 237.615 64.912 237.618 64.9103L237.645 64.8986C237.66 64.892 237.665 64.8753 237.658 64.8602C237.652 64.8452 237.635 64.8402 237.62 64.8468L237.595 64.8585C237.58 64.8652 237.575 64.8819 237.582 64.897C237.585 64.907 237.595 64.9137 237.607 64.9137ZM237.476 64.9722C237.48 64.9722 237.485 64.9722 237.488 64.9705L237.515 64.9588C237.53 64.9521 237.537 64.9354 237.53 64.9204C237.523 64.9053 237.506 64.8987 237.491 64.9053L237.465 64.917C237.45 64.9237 237.443 64.9404 237.45 64.9555C237.455 64.9655 237.465 64.9722 237.476 64.9722ZM237.735 64.8519C237.74 64.8519 237.744 64.8502 237.747 64.8485L237.772 64.8352C237.787 64.8285 237.792 64.8118 237.785 64.7967C237.779 64.7817 237.762 64.7767 237.747 64.7834L237.722 64.7967C237.707 64.8034 237.702 64.8201 237.709 64.8352C237.715 64.8452 237.725 64.8519 237.735 64.8519ZM237.211 65.0824C237.214 65.0824 237.217 65.0824 237.221 65.0808L237.247 65.0707C237.263 65.0641 237.269 65.0473 237.264 65.034C237.257 65.0189 237.242 65.0123 237.227 65.0173L237.201 65.0273C237.186 65.0323 237.179 65.049 237.184 65.0641C237.189 65.0758 237.199 65.0824 237.211 65.0824ZM237.344 65.029C237.348 65.029 237.351 65.029 237.356 65.0273L237.383 65.0156C237.398 65.0089 237.405 64.9922 237.398 64.9788C237.391 64.9638 237.374 64.9571 237.361 64.9638L237.334 64.9755C237.319 64.9822 237.313 64.9989 237.319 65.0123C237.321 65.0223 237.333 65.029 237.344 65.029ZM238.118 64.653C238.123 64.653 238.128 64.6514 238.131 64.6497L238.156 64.6363C238.17 64.628 238.175 64.6113 238.166 64.5979C238.158 64.5845 238.141 64.5795 238.128 64.5879L238.103 64.6012C238.09 64.6096 238.085 64.6263 238.091 64.6397C238.098 64.6463 238.108 64.653 238.118 64.653ZM237.864 64.7884C237.869 64.7884 237.872 64.7867 237.877 64.785L237.902 64.7717C237.916 64.765 237.923 64.7466 237.914 64.7332C237.907 64.7199 237.889 64.7132 237.876 64.7215L237.851 64.7349C237.837 64.7416 237.831 64.76 237.839 64.7733C237.844 64.7817 237.854 64.7884 237.864 64.7884ZM237.991 64.7215C237.996 64.7215 237.999 64.7199 238.004 64.7182L238.029 64.7048C238.043 64.6965 238.048 64.6798 238.041 64.6664C238.034 64.653 238.016 64.648 238.003 64.6547L237.978 64.6681C237.964 64.6748 237.958 64.6931 237.966 64.7065C237.971 64.7165 237.981 64.7215 237.991 64.7215ZM237.094 65.0691L237.067 65.0791C237.052 65.0841 237.045 65.1008 237.05 65.1159C237.055 65.1275 237.065 65.1342 237.077 65.1342C237.08 65.1342 237.084 65.1342 237.087 65.1326L237.114 65.1225C237.129 65.1175 237.136 65.1008 237.131 65.0858C237.125 65.0707 237.109 65.0624 237.094 65.0691ZM236.825 65.1643L236.798 65.1727C236.783 65.1777 236.775 65.1944 236.78 65.2094C236.783 65.2211 236.795 65.2295 236.806 65.2295C236.81 65.2295 236.813 65.2295 236.815 65.2278L236.841 65.2194C236.856 65.2144 236.865 65.1977 236.86 65.1827C236.856 65.1677 236.84 65.1593 236.825 65.1643ZM240.414 62.6864L240.432 62.6631C240.442 62.6514 240.439 62.633 240.427 62.623C240.414 62.6129 240.397 62.6163 240.387 62.628L240.369 62.6514C240.359 62.663 240.362 62.6814 240.374 62.6915C240.379 62.6948 240.385 62.6981 240.392 62.6981C240.4 62.6965 240.409 62.6931 240.414 62.6864ZM236.96 65.1175L236.933 65.1275C236.918 65.1326 236.91 65.1493 236.915 65.1643C236.918 65.176 236.93 65.1827 236.942 65.1827C236.945 65.1827 236.948 65.1827 236.952 65.181L236.978 65.171C236.993 65.166 237.002 65.1493 236.995 65.1342C236.992 65.1192 236.975 65.1125 236.96 65.1175ZM240.501 62.5712L240.517 62.5478C240.527 62.5344 240.524 62.5177 240.511 62.5077C240.497 62.4976 240.481 62.501 240.471 62.5143L240.454 62.5377C240.444 62.5511 240.447 62.5678 240.459 62.5778C240.464 62.5812 240.471 62.5829 240.476 62.5829C240.487 62.5829 240.496 62.5778 240.501 62.5712ZM236.552 65.2495L236.526 65.2579C236.511 65.2629 236.502 65.2779 236.506 65.293C236.509 65.3063 236.521 65.313 236.534 65.313C236.537 65.313 236.539 65.313 236.542 65.3113L236.571 65.303C236.586 65.298 236.594 65.2829 236.591 65.2679C236.582 65.2529 236.567 65.2445 236.552 65.2495ZM227.189 59.993C227.174 59.9964 227.164 60.0131 227.169 60.0281L227.172 60.0398L227.201 60.0348L227.227 60.0248L227.224 60.0131C227.219 59.9981 227.204 59.988 227.189 59.993ZM237.344 51.0891C237.329 51.0824 237.313 51.0891 237.308 51.1041C237.301 51.1192 237.308 51.1359 237.323 51.1409L237.336 51.1459C237.339 51.1476 237.343 51.1476 237.348 51.1476C237.359 51.1476 237.369 51.1409 237.374 51.1292C237.381 51.1142 237.374 51.0974 237.359 51.0924L237.344 51.0891ZM241.787 56.5478C241.79 56.5611 241.802 56.5711 241.816 56.5711C241.817 56.5711 241.819 56.5711 241.821 56.5711C241.836 56.5678 241.846 56.5528 241.842 56.5377L241.837 56.5093C241.834 56.4943 241.819 56.4843 241.804 56.4876C241.789 56.4909 241.779 56.506 241.782 56.521L241.787 56.5478ZM241.757 56.4091C241.76 56.4224 241.772 56.4308 241.784 56.4308C241.785 56.4308 241.789 56.4308 241.79 56.4308C241.806 56.4275 241.816 56.4107 241.812 56.3957L241.807 56.3706C241.804 56.3556 241.789 56.3456 241.772 56.3489C241.757 56.3523 241.747 56.3673 241.75 56.384L241.757 56.4091ZM241.725 56.2704C241.729 56.2838 241.74 56.2921 241.754 56.2921C241.755 56.2921 241.759 56.2921 241.76 56.2921C241.775 56.2888 241.785 56.2721 241.782 56.257L241.775 56.2286C241.772 56.2136 241.755 56.2036 241.74 56.2069C241.725 56.2102 241.715 56.2269 241.719 56.242L241.725 56.2704ZM241.689 56.1317C241.692 56.1451 241.704 56.1534 241.717 56.1534C241.719 56.1534 241.722 56.1534 241.724 56.1518C241.739 56.1484 241.749 56.1317 241.744 56.1167L241.737 56.0883C241.734 56.0732 241.717 56.0632 241.702 56.0682C241.687 56.0716 241.677 56.0883 241.682 56.1033L241.689 56.1317ZM241.652 55.9947C241.655 56.0081 241.667 56.0148 241.68 56.0148C241.684 56.0148 241.685 56.0148 241.689 56.0131C241.704 56.0081 241.712 55.993 241.709 55.978L241.7 55.9496C241.695 55.9346 241.68 55.9262 241.665 55.9295C241.65 55.9346 241.642 55.9496 241.645 55.9646L241.652 55.9947ZM241.612 55.8594C241.615 55.8711 241.627 55.8794 241.638 55.8794C241.642 55.8794 241.643 55.8794 241.647 55.8777C241.662 55.8727 241.67 55.8577 241.665 55.8427L241.657 55.8159C241.652 55.8009 241.637 55.7925 241.622 55.7975C241.607 55.8026 241.598 55.8176 241.603 55.8326L241.612 55.8594ZM241.842 56.7115C241.844 56.7115 241.846 56.7115 241.847 56.7115C241.862 56.7082 241.872 56.6931 241.871 56.6781L241.866 56.6497C241.862 56.6346 241.847 56.6246 241.832 56.6263C241.817 56.6296 241.807 56.6447 241.809 56.6597L241.814 56.6881C241.817 56.7015 241.829 56.7115 241.842 56.7115ZM240.771 53.988C240.758 53.9964 240.755 54.0147 240.763 54.0281L240.778 54.0515C240.783 54.0599 240.793 54.0649 240.803 54.0649C240.808 54.0649 240.813 54.0632 240.818 54.0599C240.831 54.0515 240.835 54.0331 240.826 54.0198L240.811 53.9947C240.801 53.983 240.785 53.9797 240.771 53.988ZM240.611 53.7508C240.598 53.7591 240.594 53.7775 240.604 53.7909L240.621 53.8142C240.626 53.8226 240.636 53.8259 240.644 53.8259C240.649 53.8259 240.656 53.8243 240.661 53.8209C240.674 53.8126 240.678 53.7942 240.668 53.7808L240.651 53.7574C240.641 53.7441 240.624 53.7407 240.611 53.7508ZM240.527 53.6338C240.514 53.6438 240.512 53.6605 240.521 53.6739L240.537 53.6973C240.542 53.7056 240.552 53.709 240.561 53.709C240.566 53.709 240.572 53.7073 240.577 53.704C240.591 53.6939 240.593 53.6772 240.584 53.6639L240.567 53.6405C240.557 53.6271 240.541 53.6238 240.527 53.6338ZM240.691 53.8677C240.678 53.8761 240.674 53.8944 240.683 53.9078L240.698 53.9312C240.703 53.9396 240.713 53.9446 240.721 53.9446C240.726 53.9446 240.733 53.9429 240.736 53.9396C240.75 53.9312 240.753 53.9128 240.745 53.8995L240.728 53.8761C240.723 53.8627 240.704 53.8594 240.691 53.8677ZM241.867 56.8535C241.869 56.8535 241.871 56.8535 241.872 56.8535C241.887 56.8502 241.899 56.8368 241.896 56.8201L241.891 56.7917C241.887 56.7767 241.874 56.765 241.857 56.7683C241.842 56.7716 241.831 56.785 241.834 56.8017L241.839 56.8301C241.842 56.8435 241.854 56.8535 241.867 56.8535ZM241.568 55.7224C241.572 55.7341 241.583 55.7424 241.595 55.7424C241.598 55.7424 241.602 55.7424 241.603 55.7407C241.618 55.7357 241.627 55.719 241.622 55.704L241.613 55.6772C241.608 55.6622 241.592 55.6539 241.577 55.6589C241.562 55.6639 241.553 55.6806 241.558 55.6956L241.568 55.7224ZM240.846 54.1083C240.833 54.1167 240.828 54.135 240.836 54.1484L240.851 54.1735C240.856 54.1818 240.867 54.1868 240.877 54.1868C240.882 54.1868 240.887 54.1852 240.892 54.1835C240.905 54.1751 240.91 54.1584 240.902 54.1434L240.887 54.1183C240.878 54.105 240.862 54.1 240.846 54.1083ZM237.463 51.1409C237.448 51.1342 237.431 51.1409 237.425 51.1559C237.418 51.171 237.425 51.1877 237.44 51.1944L237.466 51.2061C237.47 51.2077 237.475 51.2077 237.478 51.2077C237.49 51.2077 237.5 51.201 237.505 51.191C237.511 51.176 237.505 51.1593 237.49 51.1526L237.463 51.1409ZM237.854 51.3882C237.859 51.3899 237.862 51.3915 237.867 51.3915C237.877 51.3915 237.887 51.3865 237.892 51.3765C237.899 51.3631 237.894 51.3447 237.881 51.3381L237.856 51.3247C237.841 51.318 237.824 51.323 237.817 51.3381C237.811 51.3514 237.816 51.3698 237.831 51.3765L237.854 51.3882ZM238.106 51.5235C238.111 51.5252 238.116 51.5269 238.12 51.5269C238.13 51.5269 238.14 51.5218 238.145 51.5118C238.153 51.4985 238.148 51.4801 238.133 51.4734L238.108 51.46C238.095 51.4517 238.076 51.4567 238.07 51.4717C238.061 51.4851 238.066 51.5035 238.081 51.5101L238.106 51.5235ZM237.981 51.455C237.986 51.4567 237.989 51.4584 237.994 51.4584C238.004 51.4584 238.014 51.4533 238.019 51.4433C238.026 51.4299 238.021 51.4116 238.008 51.4049L237.983 51.3915C237.969 51.3848 237.951 51.3898 237.944 51.4032C237.938 51.4166 237.943 51.435 237.956 51.4416L237.981 51.455ZM238.23 51.5954C238.235 51.5987 238.24 51.5987 238.245 51.5987C238.255 51.5987 238.265 51.5937 238.27 51.5837C238.278 51.5703 238.273 51.5519 238.26 51.5452L238.235 51.5302C238.222 51.5218 238.203 51.5269 238.197 51.5402C238.188 51.5536 238.193 51.572 238.207 51.5787L238.23 51.5954ZM239.722 52.7299C239.729 52.7299 239.737 52.7265 239.742 52.7215C239.754 52.7098 239.754 52.6914 239.742 52.6814L239.722 52.6614C239.71 52.6497 239.692 52.6513 239.682 52.6614C239.67 52.6731 239.67 52.6914 239.682 52.7015L239.702 52.7215C239.709 52.7282 239.715 52.7299 239.722 52.7299ZM237.725 51.3247C237.729 51.3264 237.734 51.328 237.737 51.328C237.747 51.328 237.757 51.3213 237.762 51.3113C237.769 51.2963 237.764 51.2796 237.749 51.2729L237.722 51.2595C237.707 51.2528 237.69 51.2579 237.684 51.2729C237.677 51.2879 237.682 51.3046 237.697 51.3113L237.725 51.3247ZM239.618 52.6313C239.627 52.6313 239.633 52.6279 239.638 52.6229C239.65 52.6112 239.648 52.5929 239.637 52.5828L239.615 52.5628C239.603 52.5528 239.585 52.5528 239.575 52.5645C239.565 52.5762 239.565 52.5945 239.577 52.6046L239.597 52.6246C239.605 52.6279 239.612 52.6313 239.618 52.6313ZM238.354 51.6689C238.359 51.6722 238.364 51.6739 238.369 51.6739C238.379 51.6739 238.387 51.6689 238.394 51.6605C238.402 51.6472 238.397 51.6288 238.384 51.6204L238.359 51.6054C238.345 51.597 238.327 51.602 238.318 51.6154C238.31 51.6288 238.315 51.6472 238.329 51.6555L238.354 51.6689ZM237.635 51.2495C237.642 51.2345 237.635 51.2178 237.622 51.2111L237.595 51.1994C237.58 51.1927 237.563 51.1994 237.557 51.2127C237.55 51.2278 237.557 51.2445 237.57 51.2512L237.597 51.2629C237.6 51.2645 237.605 51.2662 237.608 51.2662C237.62 51.2662 237.63 51.2595 237.635 51.2495ZM238.945 52.0699C238.95 52.0732 238.957 52.0749 238.962 52.0749C238.97 52.0749 238.978 52.0716 238.985 52.0632C238.995 52.0498 238.992 52.0331 238.98 52.0231L238.957 52.0064C238.943 51.9964 238.927 51.9997 238.917 52.0131C238.907 52.0264 238.91 52.0431 238.923 52.0532L238.945 52.0699ZM239.298 52.3439C239.306 52.3439 239.314 52.3406 239.319 52.3339C239.329 52.3222 239.328 52.3038 239.316 52.2938L239.294 52.2754C239.283 52.2654 239.264 52.267 239.254 52.2787C239.244 52.2904 239.246 52.3088 239.257 52.3188L239.279 52.3372C239.286 52.3422 239.291 52.3439 239.298 52.3439ZM238.474 51.7441C238.479 51.7474 238.484 51.7491 238.489 51.7491C238.499 51.7491 238.507 51.7441 238.512 51.7357C238.521 51.7223 238.517 51.704 238.504 51.6956L238.479 51.6806C238.466 51.6722 238.447 51.6756 238.439 51.6889C238.43 51.7023 238.434 51.7207 238.447 51.729L238.474 51.7441ZM239.075 52.1634C239.084 52.1634 239.092 52.1601 239.099 52.1518C239.109 52.1401 239.107 52.1217 239.094 52.1117L239.07 52.0933C239.057 52.0833 239.04 52.0866 239.03 52.0983C239.02 52.1117 239.024 52.1284 239.035 52.1384L239.059 52.1551C239.064 52.1601 239.069 52.1634 239.075 52.1634ZM239.406 52.4375C239.415 52.4375 239.423 52.4341 239.428 52.4274C239.438 52.4157 239.438 52.3974 239.425 52.3873L239.403 52.369C239.391 52.3589 239.373 52.3606 239.363 52.3723C239.353 52.384 239.354 52.4024 239.366 52.4124L239.388 52.4308C239.393 52.4358 239.4 52.4375 239.406 52.4375ZM239.187 52.252C239.196 52.252 239.204 52.2487 239.209 52.242C239.219 52.2303 239.217 52.2119 239.204 52.2019L239.182 52.1835C239.171 52.1735 239.152 52.1751 239.142 52.1885C239.132 52.2002 239.134 52.2186 239.147 52.2286L239.169 52.247C239.176 52.2503 239.181 52.252 239.187 52.252ZM238.594 51.8226C238.599 51.8259 238.604 51.8276 238.609 51.8276C238.619 51.8276 238.628 51.8226 238.633 51.8142C238.641 51.8009 238.638 51.7825 238.624 51.7741L238.601 51.7574C238.587 51.7491 238.569 51.7524 238.561 51.7658C238.552 51.7792 238.556 51.7975 238.569 51.8059L238.594 51.8226ZM238.73 51.9078C238.738 51.9078 238.748 51.9028 238.753 51.8961C238.761 51.8828 238.758 51.866 238.746 51.856L238.723 51.8393C238.709 51.8309 238.693 51.8343 238.683 51.846C238.674 51.8594 238.678 51.8777 238.689 51.8861L238.713 51.9028C238.718 51.9061 238.723 51.9078 238.73 51.9078ZM238.846 51.9897C238.855 51.9897 238.865 51.9863 238.87 51.978C238.88 51.9646 238.877 51.9479 238.863 51.9379L238.84 51.9212C238.826 51.9112 238.81 51.9145 238.8 51.9279C238.79 51.9412 238.793 51.9579 238.806 51.968L238.83 51.9847C238.835 51.988 238.84 51.9897 238.846 51.9897ZM239.824 52.8318C239.831 52.8318 239.839 52.8284 239.844 52.8234C239.856 52.8117 239.856 52.7934 239.844 52.7833L239.824 52.7633C239.812 52.7516 239.794 52.7516 239.784 52.7633C239.772 52.775 239.772 52.7934 239.784 52.8034L239.804 52.8234C239.809 52.8284 239.816 52.8318 239.824 52.8318ZM240.389 53.4784C240.395 53.4784 240.4 53.4767 240.407 53.4717C240.419 53.4617 240.422 53.4433 240.412 53.4316L240.394 53.4082C240.384 53.3965 240.365 53.3932 240.354 53.4032C240.342 53.4132 240.339 53.4316 240.349 53.4433L240.367 53.465C240.372 53.4751 240.38 53.4784 240.389 53.4784ZM241.254 54.927C241.259 54.9371 241.269 54.9437 241.281 54.9437C241.284 54.9437 241.289 54.9421 241.293 54.9404C241.308 54.9337 241.313 54.917 241.306 54.902L241.294 54.8752C241.288 54.8602 241.271 54.8552 241.256 54.8619C241.241 54.8686 241.236 54.8853 241.242 54.9003L241.254 54.927ZM241.194 54.7984C241.199 54.8084 241.209 54.8151 241.219 54.8151C241.224 54.8151 241.227 54.8134 241.231 54.8117C241.246 54.8051 241.251 54.7884 241.244 54.7733L241.231 54.7482C241.224 54.7332 241.207 54.7282 241.192 54.7349C241.177 54.7416 241.172 54.7583 241.179 54.7733L241.194 54.7984ZM239.923 52.9354C239.929 52.9354 239.936 52.932 239.943 52.927C239.954 52.9153 239.954 52.8986 239.944 52.8869L239.924 52.8652C239.912 52.8535 239.896 52.8535 239.884 52.8635C239.872 52.8752 239.872 52.8919 239.882 52.9036L239.902 52.9237C239.907 52.932 239.916 52.9354 239.923 52.9354ZM241.313 55.0574C241.318 55.0674 241.328 55.0741 241.339 55.0741C241.343 55.0741 241.348 55.0741 241.351 55.0724C241.366 55.0657 241.373 55.049 241.366 55.034L241.354 55.0072C241.348 54.9922 241.331 54.9855 241.316 54.9922C241.301 54.9989 241.294 55.0156 241.301 55.0306L241.313 55.0574ZM239.513 52.5327C239.521 52.5327 239.528 52.5294 239.535 52.5227C239.545 52.511 239.545 52.4926 239.533 52.4826L239.511 52.4625C239.5 52.4525 239.481 52.4525 239.471 52.4642C239.461 52.4759 239.461 52.4943 239.473 52.5043L239.495 52.5244C239.5 52.531 239.506 52.5327 239.513 52.5327ZM241.369 55.1894C241.374 55.201 241.384 55.2077 241.396 55.2077C241.4 55.2077 241.403 55.2077 241.408 55.2061C241.423 55.1994 241.43 55.1827 241.423 55.1693L241.411 55.1426C241.405 55.1275 241.388 55.1208 241.374 55.1275C241.359 55.1342 241.353 55.1509 241.359 55.1643L241.369 55.1894ZM241.473 55.4533C241.478 55.465 241.488 55.4717 241.5 55.4717C241.503 55.4717 241.506 55.4717 241.51 55.4701C241.525 55.465 241.532 55.4483 241.527 55.4333L241.516 55.4066C241.511 55.3915 241.495 55.3848 241.48 55.3899C241.465 55.3949 241.458 55.4116 241.463 55.4266L241.473 55.4533ZM241.065 54.5444C241.07 54.5544 241.08 54.5594 241.09 54.5594C241.095 54.5594 241.099 54.5578 241.104 54.5561C241.117 54.5494 241.124 54.531 241.115 54.5177L241.102 54.4926C241.095 54.4792 241.077 54.4742 241.064 54.4809C241.05 54.4876 241.044 54.506 241.052 54.5193L241.065 54.5444ZM241.423 55.3214C241.428 55.333 241.438 55.3397 241.45 55.3397C241.453 55.3397 241.456 55.3397 241.46 55.3381C241.475 55.333 241.481 55.3163 241.476 55.3013L241.466 55.2746C241.46 55.2595 241.443 55.2528 241.43 55.2579C241.415 55.2645 241.408 55.2796 241.413 55.2946L241.423 55.3214ZM241.131 54.6714C241.136 54.6814 241.146 54.6864 241.156 54.6864C241.161 54.6864 241.164 54.6848 241.169 54.6831C241.182 54.6764 241.189 54.658 241.182 54.6447L241.169 54.6196C241.162 54.6062 241.144 54.5995 241.131 54.6079C241.117 54.6146 241.11 54.633 241.119 54.6463L241.131 54.6714ZM240.208 53.2562C240.215 53.2562 240.222 53.2545 240.227 53.2495C240.238 53.2395 240.24 53.2211 240.23 53.2094L240.212 53.1877C240.202 53.176 240.183 53.1743 240.171 53.1843C240.16 53.1944 240.158 53.2127 240.168 53.2244L240.186 53.2462C240.193 53.2528 240.202 53.2562 240.208 53.2562ZM241.521 55.5887C241.525 55.6004 241.537 55.6087 241.548 55.6087C241.552 55.6087 241.555 55.6087 241.558 55.6071C241.573 55.6021 241.582 55.5853 241.577 55.5703L241.567 55.5436C241.562 55.5285 241.545 55.5202 241.53 55.5269C241.515 55.5319 241.506 55.5486 241.513 55.5636L241.521 55.5887ZM240.3 53.3665C240.307 53.3665 240.313 53.3648 240.318 53.3598C240.33 53.3498 240.334 53.3314 240.323 53.3197L240.305 53.298C240.295 53.2863 240.277 53.2846 240.265 53.2946C240.253 53.3046 240.252 53.323 240.26 53.3347L240.278 53.3564C240.283 53.3631 240.292 53.3665 240.3 53.3665ZM240.96 54.242C240.952 54.2286 240.935 54.2236 240.922 54.232C240.908 54.2403 240.903 54.257 240.912 54.2721L240.927 54.2971C240.932 54.3055 240.942 54.3122 240.952 54.3122C240.957 54.3122 240.962 54.3105 240.967 54.3088C240.98 54.3005 240.985 54.2838 240.977 54.2704L240.96 54.242ZM240.116 53.1476C240.123 53.1476 240.13 53.1459 240.135 53.1409C240.146 53.1309 240.148 53.1125 240.138 53.1008L240.12 53.0791C240.11 53.0674 240.091 53.0657 240.08 53.0757C240.068 53.0858 240.066 53.1041 240.076 53.1158L240.095 53.1376C240.1 53.1442 240.108 53.1476 240.116 53.1476ZM240.021 53.0406C240.028 53.0406 240.034 53.039 240.041 53.034C240.053 53.0239 240.055 53.0056 240.043 52.9939L240.023 52.9721C240.013 52.9604 239.994 52.9604 239.983 52.9705C239.971 52.9805 239.969 52.9989 239.981 53.0106L240.001 53.0323C240.004 53.0373 240.013 53.0406 240.021 53.0406ZM240.997 54.4191C241.002 54.4291 241.012 54.4341 241.022 54.4341C241.027 54.4341 241.032 54.4325 241.035 54.4308C241.049 54.4224 241.054 54.4057 241.047 54.3924L241.034 54.3673C241.025 54.3539 241.009 54.3489 240.995 54.3556C240.982 54.364 240.977 54.3807 240.983 54.394L240.997 54.4191ZM240.499 53.5469L240.482 53.5235C240.472 53.5102 240.456 53.5085 240.442 53.5185C240.429 53.5285 240.427 53.5452 240.437 53.5586L240.454 53.582C240.459 53.5904 240.469 53.5937 240.477 53.5937C240.484 53.5937 240.489 53.592 240.494 53.5887C240.506 53.5787 240.509 53.5603 240.499 53.5469ZM241.889 56.9872C241.891 56.9872 241.892 56.9872 241.894 56.9872C241.909 56.9855 241.921 56.9705 241.917 56.9538L241.916 56.9404C241.914 56.9254 241.899 56.9137 241.882 56.917C241.867 56.9187 241.856 56.9337 241.859 56.9504L241.861 56.9638C241.862 56.9755 241.874 56.9872 241.889 56.9872ZM227.207 56.0582C227.192 56.0549 227.176 56.0632 227.172 56.0782L227.169 56.0916C227.166 56.1066 227.174 56.1234 227.189 56.1267C227.192 56.1267 227.194 56.1284 227.196 56.1284C227.209 56.1284 227.221 56.12 227.224 56.1066L227.227 56.0933C227.231 56.0782 227.222 56.0632 227.207 56.0582ZM229.338 52.516L229.316 52.536C229.304 52.5461 229.304 52.5645 229.314 52.5761C229.319 52.5828 229.328 52.5845 229.336 52.5845C229.343 52.5845 229.349 52.5812 229.356 52.5761L229.378 52.5561C229.389 52.5461 229.389 52.5277 229.379 52.516C229.366 52.506 229.349 52.506 229.338 52.516ZM229.445 52.4191L229.423 52.4391C229.411 52.4492 229.41 52.4675 229.421 52.4792C229.426 52.4859 229.435 52.4893 229.443 52.4893C229.45 52.4893 229.456 52.4876 229.461 52.4826L229.483 52.4642C229.495 52.4542 229.496 52.4358 229.485 52.4241C229.475 52.4091 229.456 52.4074 229.445 52.4191ZM229.894 52.0498L229.871 52.0682C229.857 52.0782 229.856 52.0966 229.866 52.1083C229.871 52.115 229.879 52.12 229.889 52.12C229.896 52.12 229.901 52.1183 229.906 52.1133L229.929 52.0966C229.943 52.0866 229.944 52.0682 229.934 52.0565C229.924 52.0415 229.907 52.0398 229.894 52.0498ZM230.011 51.963L229.988 51.9797C229.974 51.9897 229.973 52.0064 229.981 52.0198C229.986 52.0281 229.996 52.0315 230.004 52.0315C230.011 52.0315 230.016 52.0298 230.021 52.0264L230.044 52.0097C230.058 51.9997 230.059 51.983 230.051 51.9696C230.041 51.9563 230.024 51.9529 230.011 51.963ZM229.555 52.3222L229.533 52.3406C229.521 52.3506 229.52 52.369 229.53 52.3807C229.535 52.3873 229.543 52.3907 229.552 52.3907C229.558 52.3907 229.565 52.389 229.57 52.384L229.592 52.3656C229.603 52.3556 229.605 52.3372 229.595 52.3255C229.585 52.3138 229.567 52.3122 229.555 52.3222ZM229.667 52.2286L229.645 52.247C229.633 52.257 229.632 52.2754 229.642 52.2871C229.647 52.2938 229.655 52.2971 229.663 52.2971C229.67 52.2971 229.677 52.2954 229.682 52.2904L229.704 52.2721C229.715 52.262 229.717 52.2436 229.707 52.232C229.697 52.2203 229.679 52.2186 229.667 52.2286ZM229.779 52.1384L229.755 52.1568C229.744 52.1668 229.74 52.1852 229.75 52.1969C229.755 52.2036 229.764 52.2069 229.772 52.2069C229.779 52.2069 229.785 52.2052 229.79 52.2002L229.814 52.1818C229.826 52.1718 229.829 52.1534 229.819 52.1417C229.811 52.13 229.792 52.1284 229.779 52.1384ZM230.13 51.8777L230.106 51.8944C230.093 51.9028 230.09 51.9212 230.1 51.9345C230.105 51.9429 230.115 51.9462 230.123 51.9462C230.128 51.9462 230.135 51.9446 230.14 51.9412L230.163 51.9245C230.176 51.9162 230.18 51.8978 230.17 51.8844C230.16 51.8711 230.141 51.8677 230.13 51.8777ZM230.494 51.6371L230.469 51.6522C230.455 51.6605 230.45 51.6789 230.459 51.6923C230.464 51.7006 230.474 51.7056 230.484 51.7056C230.489 51.7056 230.494 51.704 230.499 51.7006L230.524 51.6856C230.537 51.6772 230.542 51.6589 230.534 51.6455C230.524 51.6338 230.507 51.6288 230.494 51.6371ZM230.743 51.4901L230.718 51.5051C230.704 51.5135 230.699 51.5302 230.708 51.5436C230.713 51.5536 230.723 51.5586 230.733 51.5586C230.738 51.5586 230.743 51.5569 230.748 51.5553L230.773 51.5402C230.786 51.5319 230.791 51.5152 230.783 51.5018C230.775 51.4868 230.758 51.4817 230.743 51.4901ZM230.248 51.7959L230.225 51.8126C230.212 51.8209 230.208 51.8393 230.217 51.8527C230.222 51.861 230.232 51.866 230.24 51.866C230.245 51.866 230.252 51.8644 230.257 51.861L230.28 51.8443C230.293 51.836 230.297 51.8176 230.288 51.8042C230.28 51.7892 230.262 51.7858 230.248 51.7959ZM230.37 51.7157L230.345 51.7307C230.332 51.7391 230.328 51.7574 230.337 51.7708C230.342 51.7792 230.352 51.7842 230.36 51.7842C230.365 51.7842 230.37 51.7825 230.375 51.7792L230.399 51.7641C230.412 51.7558 230.415 51.7374 230.407 51.724C230.402 51.7107 230.384 51.7073 230.37 51.7157ZM230.618 51.5619L230.592 51.577C230.579 51.5853 230.574 51.602 230.582 51.6171C230.587 51.6254 230.598 51.6304 230.608 51.6304C230.613 51.6304 230.618 51.6288 230.623 51.6271L230.648 51.6121C230.661 51.6037 230.666 51.587 230.658 51.572C230.649 51.5586 230.631 51.5553 230.618 51.5619ZM228.546 53.3681L228.527 53.3915C228.517 53.4032 228.519 53.4216 228.532 53.4316C228.537 53.435 228.544 53.4383 228.551 53.4383C228.559 53.4383 228.567 53.435 228.572 53.4266L228.591 53.4032C228.601 53.3915 228.599 53.3731 228.586 53.3631C228.572 53.3531 228.556 53.3564 228.546 53.3681ZM229.231 52.6163L229.209 52.6363C229.197 52.648 229.197 52.6647 229.209 52.6764C229.214 52.6814 229.222 52.6848 229.229 52.6848C229.236 52.6848 229.244 52.6814 229.249 52.6764L229.269 52.6563C229.281 52.6447 229.281 52.6279 229.271 52.6163C229.261 52.6046 229.242 52.6046 229.231 52.6163ZM228.455 53.4834L228.437 53.5068C228.427 53.5202 228.43 53.5369 228.442 53.5469C228.447 53.5503 228.454 53.5519 228.459 53.5519C228.467 53.5519 228.476 53.5486 228.482 53.5402L228.499 53.5168C228.509 53.5035 228.506 53.4868 228.494 53.4767C228.484 53.4684 228.466 53.4701 228.455 53.4834ZM228.731 53.1442L228.713 53.166C228.703 53.1777 228.704 53.196 228.716 53.2061C228.721 53.2111 228.728 53.2127 228.734 53.2127C228.743 53.2127 228.751 53.2094 228.756 53.2027L228.775 53.181C228.785 53.1693 228.783 53.1509 228.771 53.1409C228.76 53.1309 228.741 53.1325 228.731 53.1442ZM228.375 53.6689C228.384 53.6689 228.394 53.6655 228.399 53.6572L228.415 53.6338C228.425 53.6204 228.422 53.6037 228.409 53.5937C228.395 53.5837 228.379 53.587 228.369 53.6004L228.352 53.6238C228.342 53.6371 228.345 53.6538 228.359 53.6639C228.364 53.6672 228.369 53.6689 228.375 53.6689ZM228.638 53.2545L228.619 53.2762C228.609 53.2879 228.611 53.3063 228.623 53.3163C228.628 53.3214 228.634 53.323 228.641 53.323C228.649 53.323 228.658 53.3197 228.663 53.313L228.681 53.2913C228.691 53.2796 228.689 53.2612 228.678 53.2512C228.666 53.2411 228.648 53.2428 228.638 53.2545ZM228.826 53.034L228.806 53.0557C228.796 53.0674 228.796 53.0858 228.808 53.0958C228.813 53.1008 228.82 53.1025 228.826 53.1025C228.835 53.1025 228.841 53.0991 228.848 53.0924L228.867 53.0707C228.877 53.059 228.877 53.0406 228.865 53.0306C228.855 53.0223 228.838 53.0223 228.826 53.034ZM229.025 52.8218L229.005 52.8435C228.993 52.8552 228.995 52.8736 229.007 52.8836C229.012 52.8886 229.02 52.8919 229.027 52.8919C229.035 52.8919 229.042 52.8886 229.047 52.8836L229.067 52.8635C229.079 52.8518 229.077 52.8335 229.067 52.8234C229.054 52.8101 229.035 52.8101 229.025 52.8218ZM229.127 52.7182L229.107 52.7382C229.095 52.7499 229.095 52.7683 229.107 52.7783C229.112 52.7833 229.12 52.7867 229.127 52.7867C229.134 52.7867 229.142 52.7833 229.147 52.7783L229.167 52.7583C229.179 52.7466 229.179 52.7282 229.167 52.7182C229.157 52.7065 229.139 52.7065 229.127 52.7182ZM228.925 52.927L228.905 52.9487C228.895 52.9604 228.895 52.9788 228.907 52.9888C228.912 52.9939 228.918 52.9972 228.927 52.9972C228.935 52.9972 228.942 52.9939 228.948 52.9872L228.968 52.9655C228.978 52.9538 228.978 52.9354 228.967 52.9254C228.953 52.9153 228.935 52.9153 228.925 52.927ZM227.344 55.7056L227.353 55.6789C227.358 55.6639 227.349 55.6472 227.334 55.6422C227.319 55.6371 227.303 55.6455 227.298 55.6605L227.288 55.6889C227.283 55.704 227.291 55.7207 227.306 55.7257C227.309 55.7274 227.313 55.7274 227.314 55.7274C227.329 55.7257 227.339 55.7173 227.344 55.7056ZM227.466 55.3163C227.478 55.3163 227.488 55.3097 227.493 55.298L227.503 55.2712C227.51 55.2562 227.501 55.2395 227.488 55.2345C227.473 55.2278 227.456 55.2361 227.451 55.2495L227.441 55.2762C227.435 55.2913 227.443 55.308 227.458 55.313C227.458 55.3163 227.463 55.3163 227.466 55.3163ZM227.299 55.8443L227.308 55.8159C227.313 55.8009 227.304 55.7842 227.289 55.7792C227.274 55.7742 227.257 55.7825 227.252 55.7975L227.244 55.8259C227.239 55.841 227.247 55.8577 227.262 55.861C227.266 55.8627 227.268 55.8627 227.271 55.8627C227.284 55.8644 227.296 55.856 227.299 55.8443ZM228.283 53.7173L228.267 53.7407C228.258 53.7541 228.26 53.7708 228.273 53.7808C228.278 53.7842 228.283 53.7858 228.29 53.7858C228.298 53.7858 228.308 53.7808 228.313 53.7741L228.33 53.7508C228.339 53.7374 228.337 53.7207 228.323 53.7107C228.31 53.7023 228.293 53.704 228.283 53.7173ZM227.413 55.4517C227.425 55.4517 227.435 55.445 227.44 55.4333L227.45 55.4066C227.455 55.3915 227.448 55.3748 227.433 55.3698C227.418 55.3648 227.401 55.3715 227.396 55.3865L227.386 55.4132C227.381 55.4283 227.388 55.445 227.403 55.45C227.406 55.4517 227.41 55.4517 227.413 55.4517ZM227.391 55.5686L227.401 55.5419C227.406 55.5269 227.4 55.5102 227.384 55.5051C227.369 55.5001 227.353 55.5068 227.348 55.5219L227.338 55.5486C227.333 55.5636 227.341 55.5803 227.354 55.5853C227.358 55.587 227.361 55.587 227.364 55.587C227.376 55.5887 227.386 55.5803 227.391 55.5686ZM227.259 55.983L227.267 55.9546C227.273 55.9396 227.262 55.9229 227.247 55.9195C227.232 55.9145 227.216 55.9245 227.212 55.9396L227.204 55.968C227.199 55.983 227.209 55.9997 227.224 56.0031C227.227 56.0031 227.229 56.0047 227.232 56.0047C227.244 56.0031 227.254 55.9947 227.259 55.983ZM227.966 54.2069L227.951 54.232C227.943 54.2453 227.948 54.2637 227.961 54.2721C227.966 54.2754 227.971 54.2754 227.976 54.2754C227.986 54.2754 227.996 54.2704 228.001 54.262L228.016 54.237C228.024 54.2236 228.019 54.2052 228.006 54.1969C227.993 54.1885 227.974 54.1919 227.966 54.2069ZM228.202 53.8376L228.185 53.861C228.176 53.8744 228.18 53.8928 228.193 53.9011C228.198 53.9045 228.203 53.9061 228.21 53.9061C228.22 53.9061 228.228 53.9011 228.233 53.8928L228.25 53.8694C228.258 53.856 228.255 53.8376 228.242 53.8293C228.227 53.8209 228.21 53.8243 228.202 53.8376ZM228.12 53.9596L228.105 53.9847C228.096 53.998 228.1 54.0164 228.113 54.0248C228.118 54.0281 228.123 54.0298 228.128 54.0298C228.138 54.0298 228.146 54.0248 228.151 54.0164L228.166 53.9914C228.175 53.978 228.171 53.9596 228.158 53.9513C228.146 53.9412 228.13 53.9462 228.12 53.9596ZM228.043 54.0816L228.028 54.1066C228.019 54.12 228.024 54.1384 228.038 54.1467C228.043 54.1501 228.048 54.1518 228.053 54.1518C228.063 54.1518 228.071 54.1467 228.078 54.1384L228.093 54.1133C228.101 54.1 228.098 54.0816 228.083 54.0732C228.068 54.0649 228.051 54.0682 228.043 54.0816ZM227.52 55.181C227.531 55.181 227.542 55.1743 227.547 55.1626L227.558 55.1359C227.565 55.1208 227.558 55.1041 227.543 55.0975C227.528 55.0908 227.511 55.0975 227.505 55.1125L227.493 55.1392C227.486 55.1543 227.493 55.171 227.508 55.176C227.513 55.181 227.516 55.181 227.52 55.181ZM227.821 54.5244C227.826 54.526 227.829 54.5277 227.834 54.5277C227.844 54.5277 227.854 54.5227 227.859 54.5127L227.872 54.4876C227.881 54.4742 227.874 54.4559 227.861 54.4492C227.847 54.4408 227.829 54.4475 227.822 54.4609L227.809 54.4859C227.801 54.4993 227.806 54.516 227.821 54.5244ZM227.889 54.3957C227.894 54.399 227.899 54.399 227.902 54.399C227.912 54.399 227.922 54.394 227.927 54.384L227.943 54.3589C227.951 54.3456 227.946 54.3272 227.933 54.3205C227.919 54.3122 227.901 54.3172 227.894 54.3305L227.879 54.3556C227.871 54.3706 227.876 54.389 227.889 54.3957ZM231.129 51.2863L231.102 51.2996C231.089 51.3063 231.082 51.3247 231.089 51.3381C231.094 51.3481 231.104 51.3548 231.114 51.3548C231.119 51.3548 231.122 51.3531 231.127 51.3514L231.154 51.3381C231.169 51.3314 231.174 51.3147 231.167 51.2996C231.161 51.2846 231.144 51.2796 231.129 51.2863ZM231 51.3514L230.975 51.3648C230.962 51.3715 230.955 51.3898 230.963 51.4032C230.968 51.4132 230.978 51.4183 230.988 51.4183C230.993 51.4183 230.997 51.4166 231.002 51.4149L231.027 51.4015C231.04 51.3949 231.047 51.3765 231.039 51.3631C231.03 51.3498 231.014 51.3447 231 51.3514ZM227.578 55.049C227.59 55.049 227.6 55.0423 227.605 55.0323L227.617 55.0056C227.623 54.9905 227.617 54.9738 227.602 54.9671C227.587 54.9604 227.57 54.9671 227.563 54.9822L227.552 55.0089C227.545 55.0239 227.552 55.0406 227.567 55.0473C227.57 55.0473 227.575 55.049 227.578 55.049ZM227.638 54.917C227.648 54.917 227.66 54.9103 227.665 54.9003L227.677 54.8736C227.684 54.8585 227.677 54.8418 227.663 54.8351C227.648 54.8285 227.632 54.8351 227.625 54.8485L227.613 54.8752C227.607 54.8903 227.613 54.907 227.627 54.9137C227.63 54.9153 227.633 54.917 227.638 54.917ZM230.872 51.4199L230.846 51.4333C230.833 51.4416 230.828 51.4584 230.835 51.4717C230.84 51.4817 230.85 51.4868 230.86 51.4868C230.865 51.4868 230.87 51.4851 230.873 51.4834L230.898 51.47C230.912 51.4617 230.917 51.445 230.91 51.4316C230.902 51.4166 230.885 51.4116 230.872 51.4199ZM227.752 54.653C227.757 54.6547 227.76 54.6564 227.765 54.6564C227.775 54.6564 227.785 54.6513 227.79 54.6413L227.804 54.6163C227.811 54.6029 227.806 54.5845 227.792 54.5778C227.779 54.5711 227.76 54.5762 227.754 54.5895L227.74 54.6146C227.734 54.6279 227.739 54.6447 227.752 54.653ZM227.7 54.785C227.71 54.785 227.72 54.7783 227.725 54.7683L227.739 54.7416C227.745 54.7282 227.74 54.7098 227.725 54.7031C227.712 54.6965 227.694 54.7015 227.687 54.7165L227.674 54.7432C227.667 54.7583 227.672 54.775 227.687 54.7817C227.692 54.785 227.697 54.785 227.7 54.785ZM231.246 51.2294L231.232 51.2361C231.217 51.2428 231.212 51.2595 231.219 51.2746C231.224 51.2846 231.234 51.2913 231.246 51.2913C231.249 51.2913 231.254 51.2896 231.257 51.2879L231.271 51.2812C231.286 51.2746 231.291 51.2579 231.284 51.2428C231.278 51.2295 231.261 51.2228 231.246 51.2294Z" fill="white"/>
</svg>
