<svg xmlns="http://www.w3.org/2000/svg" viewBox="0 0 40 26"><title>menu-like-active</title><path d="M29.33594,4.62451l-.001-.00146a6.34124,6.34124,0,0,0-8.79541-.00049l-.541.519-.53125-.51855a6.34057,6.34057,0,0,0-8.79639.001,6.03593,6.03593,0,0,0,0,8.64063l8.82715,8.68457a.72129.72129,0,0,0,1.00049-.001l8.8374-8.67334a6.06232,6.06232,0,0,0,0-8.65039Zm.32715,4.3501A4.64565,4.64565,0,0,1,28.333,12.28613l-8.33545,8.17578-8.33643-8.17773a4.66185,4.66185,0,0,1-1.04443-1.52979,4.58956,4.58956,0,0,1-.36279-1.80566,4.66938,4.66938,0,0,1,1.416-3.32812,4.85529,4.85529,0,0,1,3.39649-1.38868h.01513a4.82377,4.82377,0,0,1,1.82617.35645,4.73866,4.73866,0,0,1,1.5586,1.02637l1.03027,1.00683a.70122.70122,0,0,0,.22949.15235.71956.71956,0,0,0,.54346,0,.70677.70677,0,0,0,.229-.15137L21.52637,5.6167a4.83753,4.83753,0,0,1,3.32519-1.30762h.05469a4.83271,4.83271,0,0,1,3.34863,1.38281A4.65252,4.65252,0,0,1,29.66309,8.97461Z" style="fill:#786453"/></svg>