<svg xmlns="http://www.w3.org/2000/svg" viewBox="0 0 40 26"><title>menu-card</title><path d="M27.38477,8.04346a.64969.64969,0,0,0-.23536-.41211.75187.75187,0,0,0-.45019-.15674H24.21875V6.76367a3.87022,3.87022,0,0,0-1.24023-2.80713,4.4131,4.4131,0,0,0-5.957,0,3.8721,3.8721,0,0,0-1.24072,2.80713v.71094H13.29688a.79037.79037,0,0,0-.45118.15723.64921.64921,0,0,0-.23486.41162L10.80566,20.86523a.62456.62456,0,0,0,.02832.29.65148.65148,0,0,0,.15479.248c.23193.23242.456.43945.68408.63184a.70728.70728,0,0,0,.45508.165H27.87207a.71237.71237,0,0,0,.457-.167l.04688-.04a7.25948,7.25948,0,0,0,.63476-.58984.64659.64659,0,0,0,.1543-.24707.613.613,0,0,0,.0293-.292ZM17.15723,7.46533l.01172-.71094a2.5466,2.5466,0,0,1,.82861-1.8706,2.97325,2.97325,0,0,1,2.01709-.78125,2.93241,2.93241,0,0,1,2.0166.78125,2.54527,2.54527,0,0,1,.8291,1.8706v.71094ZM12.395,20.88867l-.18555-.16894,1.68311-11.9336h12.21l1.68359,11.93262-.18945.16992Z" style="fill:#b7a39d"/></svg>