<svg xmlns="http://www.w3.org/2000/svg" viewBox="0 0 40 26"><title>menu-look</title><path d="M36.58319,20.97821v-.00043a.86943.86943,0,0,0-.32086-.82861c-.85022-.853-1.69653-1.70966-2.54761-2.57135q-.48633-.49219-.97522-.98669l-.2417-.24451.20533-.2757a8.63271,8.63271,0,0,0-1.56366-11.912,8.29623,8.29623,0,0,0-10.97376.6709A8.57729,8.57729,0,0,0,19.298,15.94489a8.06743,8.06743,0,0,0,4.97016,3.23669,8.26235,8.26235,0,0,0,6.8609-1.53821l.27869-.20416.24255.246.69647.70642q.81912.83066,1.63013,1.65259c.13226.13391.26306.269.39245.40253h0l.00031.0003.002.002c.31348.32355.61841.638.93763.934l.00555.00512-.00006.00006a.75637.75637,0,0,0,.35229.19214.74542.74542,0,0,0,.398-.01593.76045.76045,0,0,0,.33667-.21991v-.00006A.7818.7818,0,0,0,36.58319,20.97821ZM30.82782,15.8429a6.80454,6.80454,0,0,1-10.54224-1.16559,6.99279,6.99279,0,0,1-1.10614-3.86823h-.00012l.00006-.001-.00006-.001h.00012A6.88766,6.88766,0,0,1,26.061,3.96722V3.96716l.00049.00006.00086-.00006v.00013A6.79058,6.79058,0,0,1,29.8681,5.15961a6.916,6.916,0,0,1,2.50562,3.13305,6.9926,6.9926,0,0,1-1.5459,7.55024Z" style="fill:#b7a39d"/><path d="M10.70117,11.222h-.00366c-1.2193-.00048-1.84723-.00067-3.60492-.00067h0q-1.93112.00073-3.86237-.00012a.86339.86339,0,0,0-.46936.11609.79054.79054,0,0,0,.48084,1.44464q1.90393.00669,3.80926.00269.79075-.00065,1.58179-.0008c.54071,0,.9032.00147,1.19483.00281h.00006c.66668.00281.96325.004,2.19256-.01849a1.19253,1.19253,0,0,0,.68067-.26422.649.649,0,0,0,.14264-.79511.76391.76391,0,0,0-.77582-.48633h0Z" style="fill:#b7a39d"/><path d="M14.48761,17.83289a.87146.87146,0,0,0-.47052-.11481H14.017q-3.35211.00045-6.7041.00043H7.31268q-2.04053.001-4.081-.00013a.86542.86542,0,0,0-.47.11585.79026.79026,0,0,0,.47851,1.44488q1.90412.00687,3.80957.00269.79056-.00065,1.58149-.00067.70605,0,1.41229-.00043,1.97158-.00064,3.94482.00238a.788.788,0,0,0,.64691-.24817.83843.83843,0,0,0,.2118-.405.73826.73826,0,0,0-.06549-.43457A.77373.77373,0,0,0,14.48761,17.83289Z" style="fill:#b7a39d"/><path d="M2.63477,4.9505a.7144.7144,0,0,0-.22828.56116.71916.71916,0,0,0,.23322.55121.99831.99831,0,0,0,.67865.22338L4.795,6.28674h0l1.39063.00037,1.57776-.00037h0l1.28949-.00036a1.03343,1.03343,0,0,0,.70141-.23011.77021.77021,0,0,0-.00671-1.1076,1.073,1.073,0,0,0-.7146-.22418h0l-.4881-.00006-.07055-.00006H8.46924L8.46613,4.7243l-.00458-.00012q-2.56329-.00127-5.12647.00037A1.02876,1.02876,0,0,0,2.63477,4.9505Z" style="fill:#b7a39d"/></svg>