<svg xmlns="http://www.w3.org/2000/svg" viewBox="0 0 40 26"><title>menu-home</title><path d="M28.5332,12.73389a.78764.78764,0,0,0-.26953-.47461.81183.81183,0,0,0-.51269-.18848h-.02149a.78515.78515,0,0,0-.5625.2168.94791.94791,0,0,0-.25879.69678v8.57714H22.31836V16.99316c0-.26074.001-.52246-.01856-.78222a3.2146,3.2146,0,0,0-1.34863-2.38428,3.33717,3.33717,0,0,0-2.79394-.51709,3.25436,3.25436,0,0,0-2.47657,3.21973q-.00585,1.604-.00244,3.209l.00049,1.73633c0,.03223-.00146.06445-.00293.09668H11.08936v-8.479l.00048-.06348c.00049-.06836.001-.13672-.0039-.20068a.79184.79184,0,0,0-.24658-.53125.84331.84331,0,0,0-1.09961-.04151.78107.78107,0,0,0-.28223.5166,2.323,2.323,0,0,0-.01563.32178l-.00048,9.10449a2.29547,2.29547,0,0,0,.0083.24024.80059.80059,0,0,0,.832.75879q3.10547.00585,6.21191,0a.79957.79957,0,0,0,.83106-.82032c.002-.05078.00146-.10156.001-.15136l-.001-1.85645q-.00147-1.94238.00342-3.88574a1.648,1.648,0,0,1,.51025-1.2002,1.58868,1.58868,0,0,1,1.2373-.457,1.65679,1.65679,0,0,1,1.59473,1.68653q.00513,1.77539.00244,3.55175l-.00049,2.24317a.8076.8076,0,0,0,.8628.89062q1.541.00147,3.082.002,1.541,0,3.083-.002a.80582.80582,0,0,0,.85156-.79c.00488-.05566.00488-.11132.00488-.20312l-.001-9.1377A1.91059,1.91059,0,0,0,28.5332,12.73389Z" style="fill:#b7a39d"/><path d="M30.75391,10.05371Q25.18458,6.05615,19.61816,2.05566a.874.874,0,0,0-1.24365.00684L7.24316,10.05908a1.58263,1.58263,0,0,0-.21045.1709.79711.79711,0,0,0-.07617,1.03809.81985.81985,0,0,0,.46436.30859.84794.84794,0,0,0,.56494-.06152,2.13327,2.13327,0,0,0,.27393-.17823q5.332-3.82983,10.66064-7.66455c.07813-.05468.07764-.05713.165.00537Q24.11792,7.304,29.15918,10.92139l.20117.145c.18555.13525.3711.27.55762.395a.79349.79349,0,0,0,.42578.145l.03418.001a.76731.76731,0,0,0,.3916-.105.80154.80154,0,0,0,.30567-.27832.7917.7917,0,0,0,.125-.394v-.00781A.91841.91841,0,0,0,30.75391,10.05371Z" style="fill:#b7a39d"/></svg>