<svg xmlns="http://www.w3.org/2000/svg" viewBox="0 0 20 20"><title>nav-contacts-phone</title><path d="M16.61523,16.11133c.17872-.1709.31934-.31055.44434-.44043a1.47618,1.47618,0,0,0-.00586-2.19824L15.1582,11.57617a1.49116,1.49116,0,0,0-1.07519-.49609,1.54091,1.54091,0,0,0-1.08789.49316l-1.15625,1.15723-.03321-.01953c-.10058-.0586-.2041-.11035-.30957-.16211-.11328-.05762-.24121-.12207-.35156-.19238a12.01,12.01,0,0,1-2.8667-2.60938A6.89787,6.89787,0,0,1,7.30518,8.1958L7.291,8.1626l.02636-.02393c.29737-.26806.57813-.55273.84033-.82129.09473-.09814.19239-.1958.291-.29394a1.56619,1.56619,0,0,0,.50879-1.1001,1.555,1.555,0,0,0-.50879-1.1001l-.93994-.94043c-.11133-.11035-.21533-.21728-.32275-.32861-.20411-.21-.42334-.43213-.63868-.63184a1.52693,1.52693,0,0,0-1.07617-.47265,1.57744,1.57744,0,0,0-1.08838.47509L3.20361,4.104a2.37592,2.37592,0,0,0-.70752,1.521,5.78652,5.78652,0,0,0,.43555,2.50146A14.60884,14.60884,0,0,0,5.54443,12.4873a16.09666,16.09666,0,0,0,5.35547,4.19532,8.37072,8.37072,0,0,0,2.98682.88476c.07812.00293.14355.00586.21191.00586a2.44343,2.44343,0,0,0,1.89356-.81347l.01074-.01368a7.39239,7.39239,0,0,1,.57129-.59472Zm-.46679-.47363-.03223.03125a8.2219,8.2219,0,0,0-.623.64941,1.77659,1.77659,0,0,1-1.3916.5918c-.04492,0-.09179-.00293-.13769-.00489l-.0293-.002a7.64312,7.64312,0,0,1-2.7373-.81836,15.40383,15.40383,0,0,1-5.13038-4.01953A14.09772,14.09772,0,0,1,3.56641,7.90332,5.1431,5.1431,0,0,1,3.166,5.68311V5.68262A1.71747,1.71747,0,0,1,3.68213,4.5791L4.85547,3.40576a.80131.80131,0,0,1,1.21924.00635c.18457.17041.35986.34912.54541.53809l.0791.08007c.05029.05176.10058.10254.15137.1543q.08789.08936.17724.18066l.939.93946a.90078.90078,0,0,1,.311.625.899.899,0,0,1-.311.625c-.04541.04541-.09082.09179-.13623.13818-.05225.05322-.1045.10645-.15723.15869l-.04443.04492c-.27735.28125-.53955.54688-.82813.80274l-.01367.01318a.56812.56812,0,0,0-.14551.64942l.00977.02588A7.37556,7.37556,0,0,0,7.75,10.17285a12.53824,12.53824,0,0,0,3.02881,2.75879,3.8134,3.8134,0,0,0,.353.19531l.05859.0293c.11719.05859.24219.12207.35156.19141l.03125.01757a.57621.57621,0,0,0,.71778-.127l1.17968-1.17969a.88142.88142,0,0,1,.61231-.29589.85738.85738,0,0,1,.5957.29687L16.57813,13.957a.80545.80545,0,0,1-.00782,1.25879C16.43164,15.36328,16.28613,15.50586,16.14844,15.6377Z" style="fill:#786453"/></svg>