<svg width="25" height="25" viewBox="0 0 25 25" fill="none" xmlns="http://www.w3.org/2000/svg">
<path fill-rule="evenodd" clip-rule="evenodd" d="M12.5 25C19.4036 25 25 19.4036 25 12.5C25 5.59644 19.4036 0 12.5 0C5.59644 0 0 5.59644 0 12.5C0 19.4036 5.59644 25 12.5 25Z" fill="#5C7762" fill-opacity="0.8"/>
<path fill-rule="evenodd" clip-rule="evenodd" d="M18.5968 7.23716C18.7837 7.04129 18.9986 6.94336 19.2416 6.94336C19.4845 6.94336 19.6994 7.04129 19.8863 7.23716C20.0545 7.41345 20.1386 7.6338 20.1386 7.89822C20.1386 8.16264 20.0545 8.383 19.8863 8.55928L10.9439 17.9904C10.9252 18.01 10.9065 18.0295 10.8879 18.0491C10.8692 18.0687 10.8505 18.0883 10.8318 18.1079C10.6636 18.3038 10.4533 18.4017 10.2011 18.4017C9.94876 18.4017 9.73852 18.3038 9.57032 18.1079L5.11313 13.4658C4.94494 13.2895 4.86084 13.0692 4.86084 12.8047C4.86084 12.5403 4.94494 12.32 5.11313 12.1437C5.30002 11.9478 5.51493 11.8499 5.75788 11.8499C6.00083 11.8499 6.21575 11.9478 6.40263 12.1437L10.187 16.11L18.5968 7.23716Z" fill="white"/>
</svg>
