<svg width="41" height="40" viewBox="0 0 41 40" fill="none" xmlns="http://www.w3.org/2000/svg">
<path fill-rule="evenodd" clip-rule="evenodd" d="M27.0178 15.3625C26.9753 15.7008 26.0344 16.488 25.6226 16.8706L24.0565 18.2376C23.5409 18.7307 23.0663 19.194 22.5289 19.6343L17.8619 23.8381C17.5065 24.1464 17.5965 24.3705 17.5581 24.9504C17.4968 25.8732 17.2403 28.6282 17.3057 29.1612C18.1363 29.0797 18.626 28.3078 19.0855 27.9018L20.6367 26.3662C20.9956 26.5027 24.853 29.3999 25.4745 29.8644C26.0531 30.2967 26.9782 30.493 27.3382 29.6848C27.5988 29.0998 29.9713 17.5053 30.3314 15.8116C30.5734 14.6727 31.624 11.5382 29.467 12.1126L13.2689 18.3566C11.1297 19.1925 6.90511 20.2635 10.4098 21.3284L14.6649 22.6581C15.0971 22.7233 22.4032 17.9021 23.335 17.3365C24.0362 16.9108 26.3185 15.2278 27.0178 15.3625V15.3625Z" fill="white"/>
</svg>
