<svg width="23" height="13" viewBox="0 0 23 13" fill="none" xmlns="http://www.w3.org/2000/svg">
<g clip-path="url(#clip0_209_287)">
<path d="M2.09863 12.3066C1.52897 12.209 1.11393 11.8753 0.853516 11.3057C0.0559896 9.80827 0.422201 7.90397 1.95215 5.59277C2.65202 4.486 3.63672 3.4362 4.90625 2.44336C6.11068 1.54818 7.19303 1.01921 8.15332 0.856445L8.73926 0.758789C9.37402 0.758789 9.82975 0.872721 10.1064 1.10059C10.4808 1.361 10.6598 1.79232 10.6436 2.39453C10.6761 3.12695 10.4645 3.94889 10.0088 4.86035C9.24382 6.29264 8.03939 7.85514 6.39551 9.54785C5.32129 10.6221 4.47493 11.3545 3.85645 11.7451C3.25423 12.152 2.66829 12.3392 2.09863 12.3066ZM2.00098 11.9893C2.83105 12.152 4.06803 11.4521 5.71191 9.88965C7.11165 8.48991 8.07194 7.35872 8.59277 6.49609C8.69043 6.33333 8.88574 6.0485 9.17871 5.6416C9.48796 5.21842 9.7321 4.85221 9.91113 4.54297C10.1064 4.21745 10.2529 3.88379 10.3506 3.54199C10.5133 3.10254 10.5459 2.66309 10.4482 2.22363C10.3506 1.7679 10.1146 1.45866 9.74023 1.2959C9.47982 1.23079 9.26823 1.19824 9.10547 1.19824C7.47786 1.26335 5.79329 2.37826 4.05176 4.54297C2.87988 6.00781 2.08236 7.32617 1.65918 8.49805C1.02441 10.3698 1.04069 11.501 1.70801 11.8916C1.74056 11.8916 1.78939 11.9079 1.85449 11.9404C1.9196 11.973 1.96842 11.9893 2.00098 11.9893ZM13.5488 12.5996C12.9792 12.1602 13.4105 10.9232 14.8428 8.88867L15.8438 7.44824L14.1836 7.35059C13.321 7.31803 12.4583 7.46452 11.5957 7.79004C10.2285 8.32715 9.29264 8.46549 8.78809 8.20508C8.38118 8.00977 8.66602 7.72493 9.64258 7.35059C10.2773 7.22038 10.8633 7.139 11.4004 7.10645L12.6943 7.05762L13.8418 6.34961C15.0788 5.58464 17.0645 4.08724 19.7988 1.85742C20.6289 1.125 21.109 0.840169 21.2393 1.00293C21.2393 1.03548 21.2637 1.04362 21.3125 1.02734C21.3613 1.01107 21.4346 0.970378 21.5322 0.905273C21.6462 0.840169 21.752 0.775065 21.8496 0.709961C22.0124 0.579753 22.1589 0.482096 22.2891 0.416992C22.4193 0.335612 22.5169 0.30306 22.582 0.319336C22.6634 0.335612 22.7204 0.376302 22.7529 0.441406C22.7529 0.473958 22.7122 0.530924 22.6309 0.612305C22.5658 0.677409 22.5332 0.726237 22.5332 0.758789L22.1426 1.19824L22.0938 1.24707C20.8568 2.48405 19.3757 4.21745 17.6504 6.44727L17.0889 7.15527L18.1387 7.10645C21.1335 7.10645 22.6309 7.17155 22.6309 7.30176C22.6309 7.43197 22.582 7.51335 22.4844 7.5459L21.9961 7.49707C21.459 7.46452 19.9616 7.44824 17.5039 7.44824L16.8936 7.49707C16.4215 8.16439 16.1042 8.62826 15.9414 8.88867L14.7451 10.793C14.3057 11.5579 14.0859 12.1113 14.0859 12.4531C14.1022 12.8112 13.9232 12.86 13.5488 12.5996ZM16.0879 7.15527C18.1875 4.45345 19.4733 2.86654 19.9453 2.39453C20.0755 2.29688 20.1895 2.19108 20.2871 2.07715C20.3848 1.96322 20.4661 1.8737 20.5312 1.80859C20.6126 1.74349 20.6289 1.71094 20.5801 1.71094C20.5475 1.71094 20.4824 1.75977 20.3848 1.85742C19.1478 2.7526 18.4316 3.28158 18.2363 3.44434L16.2832 5.00684L14.8428 6.00781L13.793 6.64258L13.1826 7.05762L16.0879 7.15527ZM8.88574 7.96094C8.85319 8.05859 8.94271 8.10742 9.1543 8.10742C9.72396 8.13997 10.4238 8.00163 11.2539 7.69238L11.8887 7.49707L12.499 7.2041L11.7422 7.25293C10.0007 7.43197 9.0485 7.66797 8.88574 7.96094Z" fill="#B39D96"/>
<path d="M2.09863 12.3066L2.08163 12.4058L2.09293 12.4065L2.09863 12.3066ZM0.853516 11.3057L0.94463 11.264L0.941777 11.2587L0.853516 11.3057ZM1.95215 5.59277L2.03555 5.64798L2.03667 5.64622L1.95215 5.59277ZM4.90625 2.44336L4.84658 2.36308L4.84465 2.36459L4.90625 2.44336ZM8.15332 0.856445L8.13688 0.757806L8.13661 0.757851L8.15332 0.856445ZM8.73926 0.758789V0.658789H8.73098L8.72282 0.66015L8.73926 0.758789ZM10.1064 1.10059L10.0427 1.17803L10.0493 1.18268L10.1064 1.10059ZM10.6436 2.39453L10.5433 2.39182L10.5437 2.39897L10.6436 2.39453ZM10.0088 4.86035L10.097 4.90748L10.0982 4.90507L10.0088 4.86035ZM6.39551 9.54785L6.46623 9.61857L6.46725 9.61752L6.39551 9.54785ZM3.85645 11.7451L3.80302 11.6605L3.80046 11.6623L3.85645 11.7451ZM2.00098 11.9893L2.02022 11.8911L2.01069 11.8893H2.00098V11.9893ZM5.71191 9.88965L5.78083 9.96215L5.78262 9.96036L5.71191 9.88965ZM8.59277 6.49609L8.67838 6.54778L8.67852 6.54754L8.59277 6.49609ZM9.17871 5.6416L9.09797 5.5826L9.09756 5.58317L9.17871 5.6416ZM9.91113 4.54297L9.82537 4.49151L9.82459 4.49287L9.91113 4.54297ZM10.3506 3.54199L10.2565 3.50716L10.2544 3.51452L10.3506 3.54199ZM10.4482 2.22363L10.3505 2.24459L10.3506 2.24533L10.4482 2.22363ZM9.74023 1.2959L9.78011 1.20419L9.77252 1.20089L9.76449 1.19888L9.74023 1.2959ZM9.10547 1.19824V1.09816L9.10147 1.09832L9.10547 1.19824ZM4.05176 4.54297L3.97384 4.48028L3.97367 4.4805L4.05176 4.54297ZM1.65918 8.49805L1.56511 8.46408L1.56448 8.46593L1.65918 8.49805ZM1.70801 11.8916L1.65749 11.9779L1.68089 11.9916H1.70801V11.8916ZM2.11553 12.2081C1.58155 12.1165 1.19249 11.8067 0.944463 11.2641L0.762568 11.3472C1.03537 11.944 1.4764 12.3014 2.08174 12.4052L2.11553 12.2081ZM0.941777 11.2587C0.170607 9.81074 0.512235 7.94912 2.03553 5.64797L1.86876 5.53757C0.332166 7.85882 -0.0586283 9.80579 0.765254 11.3527L0.941777 11.2587ZM2.03667 5.64622C2.72918 4.55109 3.70535 3.50948 4.96785 2.52213L4.84465 2.36459C3.56809 3.36292 2.57486 4.42092 1.86763 5.53933L2.03667 5.64622ZM4.9659 2.52362C6.16388 1.63323 7.23147 1.11412 8.17003 0.955039L8.13661 0.757851C7.1546 0.924294 6.05748 1.46312 4.8466 2.3631L4.9659 2.52362ZM8.16976 0.955085L8.7557 0.857428L8.72282 0.66015L8.13688 0.757806L8.16976 0.955085ZM8.73926 0.858789C9.36685 0.858789 9.79344 0.972362 10.0429 1.17778L10.17 1.02339C9.86607 0.773081 9.3812 0.658789 8.73926 0.658789V0.858789ZM10.0493 1.18268C10.3874 1.41785 10.5593 1.81124 10.5436 2.39183L10.7435 2.39723C10.7604 1.7734 10.5742 1.30415 10.1636 1.0185L10.0493 1.18268ZM10.5437 2.39897C10.5752 3.10903 10.3703 3.91376 9.91935 4.81563L10.0982 4.90507C10.5588 3.98403 10.777 3.14487 10.7435 2.39009L10.5437 2.39897ZM9.92058 4.81324C9.16151 6.23447 7.9638 7.78944 6.32377 9.47818L6.46725 9.61752C8.11498 7.92085 9.32612 6.35081 10.097 4.90746L9.92058 4.81324ZM6.3248 9.47714C5.25147 10.5505 4.41162 11.2762 3.80305 11.6606L3.90984 11.8297C4.53825 11.4328 5.39111 10.6937 6.46622 9.61856L6.3248 9.47714ZM3.80046 11.6623C3.21137 12.0603 2.64677 12.2378 2.10434 12.2068L2.09293 12.4065C2.68982 12.4406 3.29709 12.2437 3.91243 11.828L3.80046 11.6623ZM1.98174 12.0874C2.43158 12.1756 2.97428 12.0278 3.60051 11.6735C4.22905 11.3178 4.95601 10.7461 5.78081 9.96213L5.64302 9.81717C4.82394 10.5957 4.11047 11.1551 3.50203 11.4994C2.89128 11.8449 2.40045 11.9657 2.02022 11.8911L1.98174 12.0874ZM5.78262 9.96036C7.18371 8.55927 8.15107 7.42114 8.67838 6.54778L8.50717 6.44441C7.99281 7.29631 7.0396 8.42055 5.6412 9.81894L5.78262 9.96036ZM8.67852 6.54754C8.77374 6.38884 8.96672 6.10717 9.25986 5.70003L9.09756 5.58317C8.80476 5.98983 8.60712 6.27782 8.50702 6.44464L8.67852 6.54754ZM9.25945 5.7006C9.56992 5.27575 9.81625 4.90644 9.99768 4.59307L9.82459 4.49287C9.64794 4.79799 9.40599 5.1611 9.09797 5.5826L9.25945 5.7006ZM9.99688 4.59442C10.1964 4.2619 10.3465 3.92023 10.4467 3.56946L10.2544 3.51452C10.1593 3.84735 10.0165 4.17299 9.82538 4.49152L9.99688 4.59442ZM10.4444 3.57672C10.6135 3.12 10.6479 2.66097 10.5459 2.20194L10.3506 2.24533C10.4439 2.6652 10.4132 3.08507 10.2568 3.50726L10.4444 3.57672ZM10.546 2.20268C10.4427 1.72056 10.1886 1.38178 9.78011 1.20419L9.70036 1.38761C10.0406 1.53554 10.2585 1.81525 10.3505 2.24459L10.546 2.20268ZM9.76449 1.19888C9.50055 1.1329 9.27996 1.09824 9.10547 1.09824V1.29824C9.2565 1.29824 9.45908 1.32869 9.71598 1.39291L9.76449 1.19888ZM9.10147 1.09832C7.43002 1.16518 5.72127 2.30825 3.97384 4.48029L4.12967 4.60565C5.86532 2.44826 7.52571 1.36151 9.10947 1.29816L9.10147 1.09832ZM3.97367 4.4805C2.79805 5.95003 1.9934 7.27808 1.56512 8.46408L1.75324 8.53201C2.17131 7.37427 2.96172 6.0656 4.12984 4.60544L3.97367 4.4805ZM1.56448 8.46593C1.24574 9.40579 1.08694 10.1692 1.09532 10.7517C1.10371 11.3346 1.28101 11.7575 1.65749 11.9779L1.75853 11.8053C1.46769 11.6351 1.30319 11.297 1.2953 10.7488C1.28741 10.2001 1.43785 9.46205 1.75388 8.53016L1.56448 8.46593ZM1.70801 11.9916C1.70794 11.9916 1.70856 11.9916 1.70993 11.9918C1.71131 11.9919 1.71326 11.9922 1.71586 11.9927C1.72114 11.9938 1.72826 11.9956 1.73742 11.9987C1.75593 12.0048 1.77987 12.0149 1.80977 12.0299L1.89921 11.851C1.83333 11.818 1.76604 11.7916 1.70801 11.7916V11.9916ZM1.80977 12.0299C1.87566 12.0628 1.94294 12.0893 2.00098 12.0893V11.8893C2.00104 11.8893 2.00043 11.8893 1.99905 11.8891C1.99768 11.889 1.99572 11.8887 1.99312 11.8881C1.98784 11.8871 1.98073 11.8852 1.97156 11.8822C1.95305 11.876 1.92912 11.8659 1.89921 11.851L1.80977 12.0299ZM13.5488 12.5996L13.4877 12.6789L13.4917 12.6817L13.5488 12.5996ZM14.8428 8.88867L14.9245 8.94624L14.9249 8.94574L14.8428 8.88867ZM15.8438 7.44824L15.9259 7.50531L16.0276 7.35889L15.8496 7.34841L15.8438 7.44824ZM14.1836 7.35059L14.1895 7.25074L14.1874 7.25066L14.1836 7.35059ZM11.5957 7.79004L11.5604 7.69647L11.5591 7.69696L11.5957 7.79004ZM8.78809 8.20508L8.83397 8.11618L8.83136 8.11493L8.78809 8.20508ZM9.64258 7.35059L9.62248 7.25263L9.61445 7.25427L9.60678 7.25721L9.64258 7.35059ZM11.4004 7.10645L11.3966 7.00649L11.3943 7.00663L11.4004 7.10645ZM12.6943 7.05762L12.6981 7.15755L12.7244 7.15655L12.7468 7.14272L12.6943 7.05762ZM13.8418 6.34961L13.8943 6.43471L13.8944 6.43466L13.8418 6.34961ZM19.7988 1.85742L19.8621 1.93498L19.865 1.93241L19.7988 1.85742ZM21.2393 1.00293H21.3393V0.967852L21.3173 0.94046L21.2393 1.00293ZM21.5322 0.905273L21.4825 0.818243L21.4768 0.822068L21.5322 0.905273ZM21.8496 0.709961L21.9053 0.79348L21.9121 0.788048L21.8496 0.709961ZM22.2891 0.416992L22.334 0.50684L22.3421 0.501792L22.2891 0.416992ZM22.582 0.319336L22.5578 0.41646L22.5624 0.417394L22.582 0.319336ZM22.7529 0.441406H22.8529V0.417799L22.8424 0.396685L22.7529 0.441406ZM22.6309 0.612305L22.7016 0.683015L22.6309 0.612305ZM22.5332 0.758789L22.6079 0.825225L22.6332 0.796809V0.758789H22.5332ZM22.1426 1.19824L22.2134 1.26908L22.2173 1.26468L22.1426 1.19824ZM22.0938 1.24707L22.1645 1.31778L22.0938 1.24707ZM17.6504 6.44727L17.7287 6.50941L17.7295 6.50846L17.6504 6.44727ZM17.0889 7.15527L17.0105 7.09313L16.8739 7.26538L17.0935 7.25517L17.0889 7.15527ZM18.1387 7.10645V7.00634L18.134 7.00655L18.1387 7.10645ZM22.4844 7.5459L22.4744 7.6454L22.4957 7.64753L22.516 7.64077L22.4844 7.5459ZM21.9961 7.49707L22.0061 7.39749L22.0021 7.39725L21.9961 7.49707ZM17.5039 7.44824V7.34792L17.4959 7.34856L17.5039 7.44824ZM16.8936 7.49707L16.8856 7.39739L16.8389 7.40112L16.8119 7.43932L16.8936 7.49707ZM15.9414 8.88867L16.0261 8.94187L16.0262 8.94167L15.9414 8.88867ZM14.7451 10.793L14.6604 10.7397L14.6584 10.7432L14.7451 10.793ZM14.0859 12.4531H13.9858L13.986 12.4577L14.0859 12.4531ZM16.0879 7.15527L16.0845 7.25522L16.1355 7.25693L16.1669 7.21663L16.0879 7.15527ZM19.9453 2.39453L19.8853 2.31453L19.8796 2.3188L19.8746 2.32382L19.9453 2.39453ZM20.5312 1.80859L20.4684 1.73003L20.4605 1.73788L20.5312 1.80859ZM20.3848 1.85742L20.4434 1.93843L20.4498 1.93376L20.4555 1.92813L20.3848 1.85742ZM18.2363 3.44434L18.2988 3.52244L18.3003 3.52116L18.2363 3.44434ZM16.2832 5.00684L16.3404 5.08914L16.3457 5.08492L16.2832 5.00684ZM14.8428 6.00781L14.8946 6.09356L14.8998 6.08993L14.8428 6.00781ZM13.793 6.64258L13.7412 6.55688L13.7367 6.55989L13.793 6.64258ZM13.1826 7.05762L13.1264 6.97492L12.8729 7.14726L13.1793 7.15756L13.1826 7.05762ZM8.88574 7.96094L8.79833 7.91237L8.79381 7.9205L8.79087 7.92931L8.88574 7.96094ZM9.1543 8.10742L9.16001 8.00742H9.1543V8.10742ZM11.2539 7.69238L11.2244 7.59664L11.219 7.59867L11.2539 7.69238ZM11.8887 7.49707L11.9181 7.59265L11.9252 7.59045L11.9319 7.58722L11.8887 7.49707ZM12.499 7.2041L12.5423 7.29425L12.4926 7.10431L12.499 7.2041ZM11.7422 7.25293L11.7357 7.15306L11.732 7.15345L11.7422 7.25293ZM13.6099 12.5204C13.382 12.3446 13.3253 11.9895 13.5395 11.3752C13.7505 10.7701 14.2099 9.96141 14.9245 8.94624L14.761 8.83111C14.0434 9.85044 13.571 10.6775 13.3506 11.3094C13.1335 11.9321 13.146 12.4151 13.4877 12.6788L13.6099 12.5204ZM14.9249 8.94574L15.9259 7.50531L15.7616 7.39118L14.7607 8.83161L14.9249 8.94574ZM15.8496 7.34841L14.1895 7.25076L14.1777 7.45041L15.8379 7.54807L15.8496 7.34841ZM14.1874 7.25066C13.3105 7.21757 12.4346 7.36658 11.5604 7.69648L11.631 7.8836C12.482 7.56246 13.3314 7.4185 14.1798 7.45051L14.1874 7.25066ZM11.5591 7.69696C10.8792 7.96409 10.3113 8.13008 9.85378 8.19771C9.39406 8.26566 9.05888 8.23231 8.83395 8.11622L8.74222 8.29394C9.02185 8.43827 9.40688 8.46594 9.88303 8.39556C10.3614 8.32484 10.945 8.1531 11.6323 7.88311L11.5591 7.69696ZM8.83136 8.11493C8.73584 8.06908 8.71331 8.03203 8.70953 8.01717C8.70743 8.00894 8.70467 7.97826 8.76724 7.91568C8.82779 7.85513 8.93172 7.7839 9.08617 7.70319C9.23925 7.62319 9.43633 7.53674 9.67837 7.44396L9.60678 7.25721C9.36055 7.3516 9.15581 7.44114 8.99354 7.52594C8.83264 7.61002 8.70769 7.69239 8.62582 7.77426C8.54598 7.8541 8.48727 7.95464 8.51569 8.06645C8.54243 8.17162 8.63688 8.24342 8.74481 8.29523L8.83136 8.11493ZM9.66267 7.44855C10.2937 7.3191 10.8749 7.23848 11.4064 7.20626L11.3943 7.00663C10.8517 7.03952 10.261 7.12165 9.62248 7.25263L9.66267 7.44855ZM11.4042 7.20637L12.6981 7.15755L12.6906 6.95769L11.3966 7.00652L11.4042 7.20637ZM12.7468 7.14272L13.8943 6.43471L13.7893 6.26451L12.6418 6.97251L12.7468 7.14272ZM13.8944 6.43466C15.1375 5.66589 17.1277 4.16471 19.862 1.93492L19.7356 1.77992C17.0012 4.00976 15.02 5.50338 13.7892 6.26456L13.8944 6.43466ZM19.865 1.93241C20.279 1.56714 20.6008 1.31794 20.8325 1.18049C20.9493 1.11123 21.0359 1.07478 21.0956 1.06284C21.1249 1.05698 21.1423 1.05816 21.1513 1.06025C21.1583 1.0619 21.16 1.06388 21.1612 1.0654L21.3173 0.94046C21.2509 0.857446 21.1492 0.848153 21.0564 0.866725C20.9635 0.885301 20.8538 0.935323 20.7305 1.00848C20.482 1.15585 20.1488 1.41528 19.7327 1.78244L19.865 1.93241ZM21.1393 1.00293C21.1393 1.02272 21.1429 1.04884 21.1581 1.07422C21.1745 1.10157 21.1993 1.11942 21.2259 1.12832C21.271 1.14332 21.3164 1.13147 21.3441 1.12221L21.2809 0.932475C21.2771 0.933735 21.2742 0.934534 21.2722 0.935022C21.2701 0.935517 21.2692 0.935605 21.2694 0.935585C21.2696 0.935568 21.2714 0.935367 21.2745 0.935576C21.2777 0.935785 21.2828 0.936453 21.2892 0.938579C21.3037 0.943404 21.3193 0.95414 21.3296 0.971317C21.3387 0.986517 21.3393 0.999418 21.3393 1.00293H21.1393ZM21.3441 1.12221C21.4067 1.10134 21.4896 1.05386 21.5877 0.988478L21.4768 0.822068C21.3795 0.886897 21.3159 0.920798 21.2809 0.932475L21.3441 1.12221ZM21.5818 0.992098C21.6975 0.925985 21.8053 0.859682 21.9051 0.793166L21.7941 0.626756C21.6986 0.690449 21.5948 0.754353 21.4826 0.818449L21.5818 0.992098ZM21.9121 0.788048C22.0715 0.660524 22.2119 0.567362 22.3338 0.506435L22.2443 0.327549C22.1058 0.396831 21.9533 0.498981 21.7871 0.631874L21.9121 0.788048ZM22.3421 0.501792C22.4034 0.463456 22.4529 0.43929 22.4916 0.426411C22.5313 0.413177 22.5511 0.41467 22.5578 0.41635L22.6063 0.222322C22.5479 0.207725 22.4863 0.217357 22.4283 0.236675C22.3693 0.256348 22.3049 0.289148 22.2361 0.332192L22.3421 0.501792ZM22.5624 0.417394C22.6184 0.428581 22.6468 0.452736 22.6635 0.486128L22.8424 0.396685C22.794 0.299868 22.7085 0.242643 22.6016 0.221278L22.5624 0.417394ZM22.6529 0.441406C22.6529 0.429877 22.6562 0.424804 22.6543 0.429018C22.6527 0.432438 22.6489 0.439423 22.641 0.450421C22.6253 0.472495 22.5991 0.50266 22.5601 0.541594L22.7016 0.683015C22.744 0.640569 22.7789 0.601561 22.8038 0.566669C22.8251 0.536879 22.8529 0.491838 22.8529 0.441406H22.6529ZM22.5601 0.541594C22.5252 0.576495 22.4958 0.610217 22.4744 0.642284C22.4548 0.671679 22.4332 0.712455 22.4332 0.758789H22.6332C22.6332 0.766946 22.6313 0.770669 22.6322 0.768462C22.633 0.76646 22.6353 0.761476 22.6408 0.753224C22.652 0.736463 22.6714 0.713218 22.7016 0.683015L22.5601 0.541594ZM22.4585 0.692353L22.0678 1.13181L22.2173 1.26468L22.6079 0.825225L22.4585 0.692353ZM22.0719 1.12753L22.023 1.17636L22.1645 1.31778L22.2133 1.26895L22.0719 1.12753ZM22.023 1.17636C20.7818 2.41757 19.2978 4.15466 17.5713 6.38607L17.7295 6.50846C19.4535 4.28023 20.9317 2.55053 22.1645 1.31778L22.023 1.17636ZM17.572 6.38513L17.0105 7.09313L17.1672 7.21741L17.7287 6.50941L17.572 6.38513ZM17.0935 7.25517L18.1433 7.20634L18.134 7.00655L17.0842 7.05538L17.0935 7.25517ZM18.1387 7.20645C19.6357 7.20645 20.757 7.22272 21.5035 7.25518C21.8772 7.27143 22.1544 7.29163 22.3372 7.31547C22.4293 7.32749 22.4929 7.33988 22.5316 7.35165C22.5409 7.35448 22.5477 7.35699 22.5526 7.35904C22.5577 7.36118 22.5593 7.36227 22.5587 7.36187C22.5585 7.36172 22.5526 7.358 22.5462 7.34933C22.539 7.33968 22.5309 7.32328 22.5309 7.30176H22.7309C22.7309 7.2412 22.6876 7.20719 22.6679 7.19435C22.6446 7.1791 22.6165 7.16845 22.5898 7.16031C22.5349 7.1436 22.4581 7.12954 22.363 7.11715C22.1714 7.09216 21.8872 7.07167 21.5122 7.05537C20.7612 7.02272 19.6364 7.00645 18.1387 7.00645V7.20645ZM22.5309 7.30176C22.5309 7.35521 22.5207 7.3886 22.5085 7.409C22.4974 7.42743 22.481 7.44161 22.4528 7.45103L22.516 7.64077C22.5854 7.61763 22.6422 7.57485 22.68 7.5119C22.7166 7.45092 22.7309 7.37851 22.7309 7.30176H22.5309ZM22.4943 7.44639L22.006 7.39757L21.9861 7.59657L22.4744 7.6454L22.4943 7.44639ZM22.0021 7.39725C21.4613 7.36447 19.9602 7.34824 17.5039 7.34824V7.54824C19.963 7.54824 21.4567 7.56456 21.99 7.59689L22.0021 7.39725ZM17.4959 7.34856L16.8856 7.39739L16.9015 7.59675L17.5119 7.54792L17.4959 7.34856ZM16.8119 7.43932C16.34 8.10646 16.0211 8.57251 15.8566 8.83567L16.0262 8.94167C16.1873 8.684 16.5031 8.22231 16.9752 7.55482L16.8119 7.43932ZM15.8567 8.83548L14.6604 10.7398L14.8298 10.8462L16.0261 8.94187L15.8567 8.83548ZM14.6584 10.7432C14.4373 11.128 14.27 11.4621 14.1578 11.7448C14.0462 12.0259 13.9859 12.2635 13.9859 12.4531H14.1859C14.1859 12.3009 14.2355 12.091 14.3437 11.8186C14.4512 11.548 14.6135 11.2229 14.8318 10.8428L14.6584 10.7432ZM13.986 12.4577C13.9898 12.5409 13.9814 12.5947 13.9687 12.6266C13.9576 12.6542 13.9464 12.6594 13.9376 12.6618C13.9222 12.666 13.889 12.6666 13.8287 12.6435C13.77 12.6211 13.696 12.5802 13.6059 12.5175L13.4917 12.6817C13.5888 12.7492 13.6776 12.7999 13.7573 12.8303C13.8353 12.8602 13.916 12.875 13.9902 12.8548C14.0709 12.8328 14.1248 12.7749 14.1544 12.7008C14.1823 12.6309 14.1902 12.5444 14.1858 12.4486L13.986 12.4577ZM16.1669 7.21663C18.2685 4.51217 19.5496 2.93167 20.016 2.46524L19.8746 2.32382C19.397 2.8014 18.1065 4.39473 16.0089 7.09391L16.1669 7.21663ZM20.0053 2.47453C20.1409 2.37286 20.2602 2.26214 20.363 2.14223L20.2112 2.01207C20.1187 2.12002 20.0102 2.22089 19.8853 2.31453L20.0053 2.47453ZM20.363 2.14223C20.4599 2.0292 20.5394 1.94184 20.602 1.8793L20.4605 1.73788C20.3929 1.80556 20.3096 1.89724 20.2112 2.01207L20.363 2.14223ZM20.5937 1.88668C20.6157 1.86913 20.635 1.85235 20.6508 1.83658C20.6651 1.82231 20.6825 1.80295 20.6939 1.78007C20.7042 1.75962 20.7262 1.69737 20.6752 1.64633C20.6558 1.62691 20.6337 1.61897 20.6196 1.61545C20.6049 1.61177 20.591 1.61094 20.5801 1.61094V1.81094C20.5814 1.81094 20.5776 1.81112 20.5711 1.80948C20.5651 1.80799 20.5491 1.8031 20.5338 1.78775C20.5158 1.76981 20.5075 1.74635 20.5075 1.72467C20.5075 1.70646 20.5133 1.69419 20.515 1.69063C20.5184 1.68403 20.5195 1.68502 20.5094 1.69516C20.5007 1.7038 20.4875 1.7155 20.4688 1.73051L20.5937 1.88668ZM20.5801 1.61094C20.5493 1.61094 20.5227 1.62172 20.5048 1.63065C20.4853 1.6404 20.4658 1.65332 20.4468 1.66756C20.4088 1.69609 20.3643 1.7365 20.3141 1.78671L20.4555 1.92813C20.5029 1.88069 20.5398 1.84785 20.5668 1.82756C20.5804 1.81738 20.5894 1.812 20.5943 1.80954C20.6008 1.80626 20.5946 1.81094 20.5801 1.81094V1.61094ZM20.3261 1.77641C19.0909 2.67034 18.371 3.20196 18.1723 3.36751L18.3003 3.52116C18.4923 3.36119 19.2047 2.83487 20.4434 1.93843L20.3261 1.77641ZM18.1739 3.36625L16.2207 4.92875L16.3457 5.08492L18.2988 3.52242L18.1739 3.36625ZM16.2261 4.92472L14.7857 5.92569L14.8998 6.08993L16.3403 5.08895L16.2261 4.92472ZM14.791 5.92224L13.7412 6.557L13.8447 6.72815L14.8945 6.09339L14.791 5.92224ZM13.7367 6.55989L13.1264 6.97492L13.2388 7.14031L13.8492 6.72527L13.7367 6.55989ZM13.1793 7.15756L16.0845 7.25522L16.0913 7.05533L13.186 6.95767L13.1793 7.15756ZM8.79087 7.92931C8.77767 7.96891 8.77312 8.01526 8.79102 8.06127C8.80896 8.10742 8.84376 8.13851 8.88058 8.15859C8.94888 8.19585 9.04612 8.20742 9.1543 8.20742V8.00742C9.05089 8.00742 8.99757 7.99458 8.97635 7.98301C8.96841 7.97868 8.97371 7.97925 8.97742 7.98878C8.98107 7.99817 8.97753 8.00179 8.98061 7.99256L8.79087 7.92931ZM9.14859 8.20726C9.73757 8.24092 10.4522 8.09778 11.2888 7.78609L11.219 7.59867C10.3955 7.90548 9.71034 8.03903 9.16 8.00758L9.14859 8.20726ZM11.2833 7.78796L11.9181 7.59265L11.8593 7.40149L11.2245 7.5968L11.2833 7.78796ZM11.9319 7.58722L12.5423 7.29425L12.4558 7.11395L11.8454 7.40692L11.9319 7.58722ZM12.4926 7.10431L11.7357 7.15314L11.7486 7.35272L12.5055 7.30389L12.4926 7.10431ZM11.732 7.15345C10.8595 7.24314 10.1807 7.34747 9.69787 7.46715C9.45666 7.52693 9.2608 7.5914 9.11296 7.66155C8.96847 7.7301 8.85462 7.81104 8.79833 7.91237L8.97316 8.0095C8.99824 7.96435 9.06445 7.90593 9.19869 7.84224C9.32957 7.78014 9.51111 7.71949 9.74598 7.66127C10.2153 7.54495 10.8833 7.44175 11.7524 7.35241L11.732 7.15345Z" fill="#B39D96"/>
</g>
<defs>
<clipPath id="clip0_209_287">
<rect width="23" height="13" fill="white"/>
</clipPath>
</defs>
</svg>
