<svg width="23" height="13" viewBox="0 0 23 13" fill="none" xmlns="http://www.w3.org/2000/svg">
<g clip-path="url(#clip0_209_288)">
<path d="M2.09863 12.3066C1.52897 12.209 1.11393 11.8753 0.853516 11.3057C0.0559896 9.80827 0.422201 7.90397 1.95215 5.59277C2.65202 4.486 3.63672 3.4362 4.90625 2.44336C6.11068 1.54818 7.19303 1.01921 8.15332 0.856445L8.73926 0.758789C9.37402 0.758789 9.82975 0.872721 10.1064 1.10059C10.4808 1.361 10.6598 1.79232 10.6436 2.39453C10.6761 3.12695 10.4645 3.94889 10.0088 4.86035C9.24382 6.29264 8.03939 7.85514 6.39551 9.54785C5.32129 10.6221 4.47493 11.3545 3.85645 11.7451C3.25423 12.152 2.66829 12.3392 2.09863 12.3066ZM2.00098 11.9893C2.83105 12.152 4.06803 11.4521 5.71191 9.88965C7.11165 8.48991 8.07194 7.35872 8.59277 6.49609C8.69043 6.33333 8.88574 6.0485 9.17871 5.6416C9.48796 5.21842 9.7321 4.85221 9.91113 4.54297C10.1064 4.21745 10.2529 3.88379 10.3506 3.54199C10.5133 3.10254 10.5459 2.66309 10.4482 2.22363C10.3506 1.7679 10.1146 1.45866 9.74023 1.2959C9.47982 1.23079 9.26823 1.19824 9.10547 1.19824C7.47786 1.26335 5.79329 2.37826 4.05176 4.54297C2.87988 6.00781 2.08236 7.32617 1.65918 8.49805C1.02441 10.3698 1.04069 11.501 1.70801 11.8916C1.74056 11.8916 1.78939 11.9079 1.85449 11.9404C1.9196 11.973 1.96842 11.9893 2.00098 11.9893ZM9.93555 12.6973C9.67513 12.5345 9.72396 12.1357 10.082 11.501C11.8887 8.47363 13.8906 5.69043 16.0879 3.15137L16.8936 2.19922C15.9984 2.60612 15.0462 2.95605 14.0371 3.24902C12.6048 3.65592 11.6771 3.89193 11.2539 3.95703H10.8877V3.9082C10.8877 3.77799 11.2376 3.65592 11.9375 3.54199C13.7441 3.13509 15.2985 2.63867 16.6006 2.05273C17.333 1.64583 17.7806 1.37728 17.9434 1.24707C18.041 1.18197 18.1875 1.0599 18.3828 0.880859C18.5944 0.685547 18.7653 0.555339 18.8955 0.490234C19.335 0.229818 19.5872 0.213542 19.6523 0.441406C19.7174 0.571615 19.6605 0.742513 19.4814 0.954102C19.3187 1.14941 19.0908 1.361 18.7979 1.58887L18.334 2.00391C16.8366 3.4362 15.4694 5.03125 14.2324 6.78906C13.4674 7.89583 12.3525 9.5804 10.8877 11.8428C10.79 12.0055 10.6598 12.209 10.4971 12.4531C10.3018 12.7461 10.1309 12.8438 9.98438 12.7461L9.93555 12.6973Z" fill="#B39D96"/>
<path d="M2.09863 12.3066L2.08163 12.4058L2.09293 12.4065L2.09863 12.3066ZM0.853516 11.3057L0.94463 11.264L0.941777 11.2587L0.853516 11.3057ZM1.95215 5.59277L2.03555 5.64798L2.03667 5.64622L1.95215 5.59277ZM4.90625 2.44336L4.84658 2.36308L4.84465 2.36459L4.90625 2.44336ZM8.15332 0.856445L8.13688 0.757806L8.13661 0.757851L8.15332 0.856445ZM8.73926 0.758789V0.658789H8.73098L8.72282 0.66015L8.73926 0.758789ZM10.1064 1.10059L10.0427 1.17803L10.0493 1.18268L10.1064 1.10059ZM10.6436 2.39453L10.5433 2.39182L10.5437 2.39897L10.6436 2.39453ZM10.0088 4.86035L10.097 4.90748L10.0982 4.90507L10.0088 4.86035ZM6.39551 9.54785L6.46623 9.61857L6.46725 9.61752L6.39551 9.54785ZM3.85645 11.7451L3.80302 11.6605L3.80046 11.6623L3.85645 11.7451ZM2.00098 11.9893L2.02022 11.8911L2.01069 11.8893H2.00098V11.9893ZM5.71191 9.88965L5.78083 9.96215L5.78262 9.96036L5.71191 9.88965ZM8.59277 6.49609L8.67838 6.54778L8.67852 6.54754L8.59277 6.49609ZM9.17871 5.6416L9.09797 5.5826L9.09756 5.58317L9.17871 5.6416ZM9.91113 4.54297L9.82537 4.49151L9.82459 4.49287L9.91113 4.54297ZM10.3506 3.54199L10.2565 3.50716L10.2544 3.51452L10.3506 3.54199ZM10.4482 2.22363L10.3505 2.24459L10.3506 2.24533L10.4482 2.22363ZM9.74023 1.2959L9.78011 1.20419L9.77252 1.20089L9.76449 1.19888L9.74023 1.2959ZM9.10547 1.19824V1.09816L9.10147 1.09832L9.10547 1.19824ZM4.05176 4.54297L3.97384 4.48028L3.97367 4.4805L4.05176 4.54297ZM1.65918 8.49805L1.56511 8.46408L1.56448 8.46593L1.65918 8.49805ZM1.70801 11.8916L1.65749 11.9779L1.68089 11.9916H1.70801V11.8916ZM2.11553 12.2081C1.58155 12.1165 1.19249 11.8067 0.944463 11.2641L0.762568 11.3472C1.03537 11.944 1.4764 12.3014 2.08174 12.4052L2.11553 12.2081ZM0.941777 11.2587C0.170607 9.81074 0.512235 7.94912 2.03553 5.64797L1.86876 5.53757C0.332166 7.85882 -0.0586283 9.80579 0.765254 11.3527L0.941777 11.2587ZM2.03667 5.64622C2.72918 4.55109 3.70535 3.50948 4.96785 2.52213L4.84465 2.36459C3.56809 3.36292 2.57486 4.42092 1.86763 5.53933L2.03667 5.64622ZM4.9659 2.52362C6.16388 1.63323 7.23147 1.11412 8.17003 0.955039L8.13661 0.757851C7.1546 0.924294 6.05748 1.46312 4.8466 2.3631L4.9659 2.52362ZM8.16976 0.955085L8.7557 0.857428L8.72282 0.66015L8.13688 0.757806L8.16976 0.955085ZM8.73926 0.858789C9.36685 0.858789 9.79344 0.972362 10.0429 1.17778L10.17 1.02339C9.86607 0.773081 9.3812 0.658789 8.73926 0.658789V0.858789ZM10.0493 1.18268C10.3874 1.41785 10.5593 1.81124 10.5436 2.39183L10.7435 2.39723C10.7604 1.7734 10.5742 1.30415 10.1636 1.0185L10.0493 1.18268ZM10.5437 2.39897C10.5752 3.10903 10.3703 3.91376 9.91935 4.81563L10.0982 4.90507C10.5588 3.98403 10.777 3.14487 10.7435 2.39009L10.5437 2.39897ZM9.92058 4.81324C9.16151 6.23447 7.9638 7.78944 6.32377 9.47818L6.46725 9.61752C8.11498 7.92085 9.32612 6.35081 10.097 4.90746L9.92058 4.81324ZM6.3248 9.47714C5.25147 10.5505 4.41162 11.2762 3.80305 11.6606L3.90984 11.8297C4.53825 11.4328 5.39111 10.6937 6.46622 9.61856L6.3248 9.47714ZM3.80046 11.6623C3.21137 12.0603 2.64677 12.2378 2.10434 12.2068L2.09293 12.4065C2.68982 12.4406 3.29709 12.2437 3.91243 11.828L3.80046 11.6623ZM1.98174 12.0874C2.43158 12.1756 2.97428 12.0278 3.60051 11.6735C4.22905 11.3178 4.95601 10.7461 5.78081 9.96213L5.64302 9.81717C4.82394 10.5957 4.11047 11.1551 3.50203 11.4994C2.89128 11.8449 2.40045 11.9657 2.02022 11.8911L1.98174 12.0874ZM5.78262 9.96036C7.18371 8.55927 8.15107 7.42114 8.67838 6.54778L8.50717 6.44441C7.99281 7.29631 7.0396 8.42055 5.6412 9.81894L5.78262 9.96036ZM8.67852 6.54754C8.77374 6.38884 8.96672 6.10717 9.25986 5.70003L9.09756 5.58317C8.80476 5.98983 8.60712 6.27782 8.50702 6.44464L8.67852 6.54754ZM9.25945 5.7006C9.56992 5.27575 9.81625 4.90644 9.99768 4.59307L9.82459 4.49287C9.64794 4.79799 9.40599 5.1611 9.09797 5.5826L9.25945 5.7006ZM9.99688 4.59442C10.1964 4.2619 10.3465 3.92023 10.4467 3.56946L10.2544 3.51452C10.1593 3.84735 10.0165 4.17299 9.82538 4.49152L9.99688 4.59442ZM10.4444 3.57672C10.6135 3.12 10.6479 2.66097 10.5459 2.20194L10.3506 2.24533C10.4439 2.6652 10.4132 3.08507 10.2568 3.50726L10.4444 3.57672ZM10.546 2.20268C10.4427 1.72056 10.1886 1.38178 9.78011 1.20419L9.70036 1.38761C10.0406 1.53554 10.2585 1.81525 10.3505 2.24459L10.546 2.20268ZM9.76449 1.19888C9.50055 1.1329 9.27996 1.09824 9.10547 1.09824V1.29824C9.2565 1.29824 9.45908 1.32869 9.71598 1.39291L9.76449 1.19888ZM9.10147 1.09832C7.43002 1.16518 5.72127 2.30825 3.97384 4.48029L4.12967 4.60565C5.86532 2.44826 7.52571 1.36151 9.10947 1.29816L9.10147 1.09832ZM3.97367 4.4805C2.79805 5.95003 1.9934 7.27808 1.56512 8.46408L1.75324 8.53201C2.17131 7.37427 2.96172 6.0656 4.12984 4.60544L3.97367 4.4805ZM1.56448 8.46593C1.24574 9.40579 1.08694 10.1692 1.09532 10.7517C1.10371 11.3346 1.28101 11.7575 1.65749 11.9779L1.75853 11.8053C1.46769 11.6351 1.30319 11.297 1.2953 10.7488C1.28741 10.2001 1.43785 9.46205 1.75388 8.53016L1.56448 8.46593ZM1.70801 11.9916C1.70794 11.9916 1.70856 11.9916 1.70993 11.9918C1.71131 11.9919 1.71326 11.9922 1.71586 11.9927C1.72114 11.9938 1.72826 11.9956 1.73742 11.9987C1.75593 12.0048 1.77987 12.0149 1.80977 12.0299L1.89921 11.851C1.83333 11.818 1.76604 11.7916 1.70801 11.7916V11.9916ZM1.80977 12.0299C1.87566 12.0628 1.94294 12.0893 2.00098 12.0893V11.8893C2.00104 11.8893 2.00043 11.8893 1.99905 11.8891C1.99768 11.889 1.99572 11.8887 1.99312 11.8881C1.98784 11.8871 1.98073 11.8852 1.97156 11.8822C1.95305 11.876 1.92912 11.8659 1.89921 11.851L1.80977 12.0299ZM9.93555 12.6973L10.0063 12.6266L9.9982 12.6185L9.98855 12.6125L9.93555 12.6973ZM10.082 11.501L9.99613 11.4497L9.99493 11.4518L10.082 11.501ZM16.0879 3.15137L16.1635 3.21681L16.1642 3.21596L16.0879 3.15137ZM16.8936 2.19922L16.9699 2.26381L16.8522 2.10818L16.8936 2.19922ZM14.0371 3.24902L14.0644 3.34522L14.065 3.34506L14.0371 3.24902ZM11.2539 3.95703V4.05703H11.2616L11.2691 4.05587L11.2539 3.95703ZM10.8877 3.95703H10.7877V4.05703H10.8877V3.95703ZM11.9375 3.54199L11.9536 3.64087L11.9595 3.63955L11.9375 3.54199ZM16.6006 2.05273L16.6418 2.14425L16.6492 2.14015L16.6006 2.05273ZM17.9434 1.24707L17.8877 1.16355L17.8809 1.16898L17.9434 1.24707ZM18.3828 0.880859L18.4504 0.954575L18.4506 0.95434L18.3828 0.880859ZM18.8955 0.490234L18.9403 0.579905L18.9465 0.576264L18.8955 0.490234ZM19.6523 0.441406L19.5562 0.468878L19.5587 0.477815L19.5629 0.486128L19.6523 0.441406ZM19.4814 0.954102L19.4051 0.889506L19.4046 0.890083L19.4814 0.954102ZM18.7979 1.58887L18.7363 1.50974L18.7312 1.51434L18.7979 1.58887ZM18.334 2.00391L18.2673 1.92934L18.2649 1.93164L18.334 2.00391ZM14.2324 6.78906L14.1506 6.73151L14.1502 6.7322L14.2324 6.78906ZM10.8877 11.8428L10.8037 11.7884L10.8019 11.7913L10.8877 11.8428ZM9.98438 12.7461L9.91366 12.8168L9.92067 12.8238L9.9289 12.8293L9.98438 12.7461ZM9.98855 12.6125C9.90188 12.5583 9.85469 12.4633 9.87611 12.2883C9.89813 12.1085 9.99215 11.8638 10.1691 11.5501L9.99493 11.4518C9.81384 11.7729 9.70441 12.045 9.6776 12.264C9.6502 12.4877 9.7088 12.6735 9.88255 12.7821L9.98855 12.6125ZM10.1679 11.5522C11.9717 8.52965 13.9703 5.75123 16.1635 3.2168L16.0123 3.08593C13.811 5.62963 11.8056 8.41761 9.99616 11.4497L10.1679 11.5522ZM16.1642 3.21596L16.9699 2.26381L16.8172 2.13462L16.0116 3.08677L16.1642 3.21596ZM16.8522 2.10818C15.9617 2.51296 15.014 2.86127 14.0092 3.15299L14.065 3.34506C15.0784 3.05084 16.0351 2.69927 16.9349 2.29026L16.8522 2.10818ZM14.0098 3.15283C12.5758 3.5602 11.6545 3.79422 11.2387 3.85819L11.2691 4.05587C11.6997 3.98963 12.6338 3.75165 14.0644 3.34522L14.0098 3.15283ZM11.2539 3.85703H10.8877V4.05703H11.2539V3.85703ZM10.9877 3.95703V3.9082H10.7877V3.95703H10.9877ZM10.9877 3.9082C10.9877 3.92428 10.977 3.91828 11.0118 3.89319C11.0441 3.86993 11.0992 3.84268 11.1831 3.81341C11.3496 3.75531 11.6052 3.69741 11.9536 3.64069L11.9214 3.44329C11.5699 3.50051 11.3006 3.56061 11.1172 3.62457C11.0261 3.65634 10.95 3.69115 10.8948 3.73096C10.8421 3.76894 10.7877 3.82703 10.7877 3.9082H10.9877ZM11.9595 3.63955C13.7708 3.23158 15.3319 2.73329 16.6416 2.14393L16.5595 1.96154C15.2651 2.54405 13.7174 3.0386 11.9155 3.44444L11.9595 3.63955ZM16.6492 2.14015C17.3788 1.7348 17.835 1.46181 18.0058 1.32516L17.8809 1.16898C17.7262 1.29275 17.2872 1.55687 16.552 1.96532L16.6492 2.14015ZM17.9988 1.33028C18.1034 1.26054 18.2548 1.13387 18.4504 0.954575L18.3152 0.807144C18.1202 0.985919 17.9786 1.10339 17.8879 1.16387L17.9988 1.33028ZM18.4506 0.95434C18.6607 0.760461 18.8231 0.638232 18.9402 0.579677L18.8508 0.400792C18.7075 0.472445 18.5281 0.610633 18.315 0.807379L18.4506 0.95434ZM18.9465 0.576264C19.1638 0.447494 19.3195 0.389038 19.4207 0.382507C19.469 0.379392 19.4967 0.388647 19.513 0.399489C19.5284 0.409814 19.5448 0.429009 19.5562 0.468878L19.7485 0.413934C19.7273 0.339871 19.6877 0.275651 19.6239 0.233079C19.5608 0.191024 19.4857 0.177899 19.4079 0.182922C19.2568 0.192667 19.0667 0.272558 18.8445 0.404205L18.9465 0.576264ZM19.5629 0.486128C19.598 0.556258 19.5822 0.680166 19.4051 0.889507L19.5578 1.0187C19.7387 0.80486 19.8369 0.586971 19.7418 0.396685L19.5629 0.486128ZM19.4046 0.890083C19.248 1.078 19.0261 1.28466 18.7365 1.50993L18.8592 1.6678C19.1555 1.43735 19.3893 1.22083 19.5583 1.01812L19.4046 0.890083ZM18.7312 1.51434L18.2673 1.92938L18.4007 2.07843L18.8645 1.66339L18.7312 1.51434ZM18.2649 1.93164C16.7626 3.36858 15.3912 4.96859 14.1506 6.73151L14.3142 6.84661C15.5476 5.09391 16.9106 3.50382 18.4031 2.07617L18.2649 1.93164ZM14.1502 6.7322C13.3843 7.84026 12.2687 9.52587 10.8038 11.7884L10.9716 11.8971C12.4364 9.63494 13.5506 7.9514 14.3147 6.84592L14.1502 6.7322ZM10.8019 11.7913C10.7054 11.9522 10.5762 12.1542 10.4139 12.3977L10.5803 12.5086C10.7435 12.2638 10.8747 12.0589 10.9734 11.8942L10.8019 11.7913ZM10.4139 12.3977C10.319 12.5399 10.238 12.622 10.1728 12.6593C10.1416 12.6771 10.1174 12.6827 10.0988 12.6827C10.081 12.6827 10.0619 12.6776 10.0398 12.6629L9.9289 12.8293C9.98009 12.8634 10.0373 12.8827 10.0988 12.8827C10.1596 12.8827 10.2178 12.8639 10.272 12.8329C10.3778 12.7725 10.4798 12.6593 10.5803 12.5086L10.4139 12.3977ZM10.0551 12.6754L10.0063 12.6266L9.86484 12.768L9.91366 12.8168L10.0551 12.6754Z" fill="#B39D96"/>
</g>
<defs>
<clipPath id="clip0_209_288">
<rect width="23" height="13" fill="white"/>
</clipPath>
</defs>
</svg>
