<svg width="23" height="13" viewBox="0 0 23 13" fill="none" xmlns="http://www.w3.org/2000/svg">
<g clip-path="url(#clip0_209_292)">
<path d="M2.09863 12.3066C1.52897 12.209 1.11393 11.8753 0.853516 11.3057C0.0559896 9.80827 0.422201 7.90397 1.95215 5.59277C2.65202 4.486 3.63672 3.4362 4.90625 2.44336C6.11068 1.54818 7.19303 1.01921 8.15332 0.856445L8.73926 0.758789C9.37402 0.758789 9.82975 0.872721 10.1064 1.10059C10.4808 1.361 10.6598 1.79232 10.6436 2.39453C10.6761 3.12695 10.4645 3.94889 10.0088 4.86035C9.24382 6.29264 8.03939 7.85514 6.39551 9.54785C5.32129 10.6221 4.47493 11.3545 3.85645 11.7451C3.25423 12.152 2.66829 12.3392 2.09863 12.3066ZM2.00098 11.9893C2.83105 12.152 4.06803 11.4521 5.71191 9.88965C7.11165 8.48991 8.07194 7.35872 8.59277 6.49609C8.69043 6.33333 8.88574 6.0485 9.17871 5.6416C9.48796 5.21842 9.7321 4.85221 9.91113 4.54297C10.1064 4.21745 10.2529 3.88379 10.3506 3.54199C10.5133 3.10254 10.5459 2.66309 10.4482 2.22363C10.3506 1.7679 10.1146 1.45866 9.74023 1.2959C9.47982 1.23079 9.26823 1.19824 9.10547 1.19824C7.47786 1.26335 5.79329 2.37826 4.05176 4.54297C2.87988 6.00781 2.08236 7.32617 1.65918 8.49805C1.02441 10.3698 1.04069 11.501 1.70801 11.8916C1.74056 11.8916 1.78939 11.9079 1.85449 11.9404C1.9196 11.973 1.96842 11.9893 2.00098 11.9893ZM10.1064 12.502C10.9691 12.5996 11.8643 12.4206 12.792 11.9648C13.736 11.4928 14.6068 10.7686 15.4043 9.79199C16.4785 8.45736 17.0156 7.3099 17.0156 6.34961C17.0156 5.94271 16.8366 5.60905 16.4785 5.34863C16.1367 5.08822 15.7298 4.95801 15.2578 4.95801C14.7533 4.95801 14.501 4.86849 14.501 4.68945C14.501 4.55924 14.6393 4.49414 14.916 4.49414C15.0788 4.49414 15.2741 4.41276 15.502 4.25L16.3564 3.76172C16.9587 3.4362 17.4795 3.00488 17.9189 2.46777C18.3747 1.93066 18.5374 1.54004 18.4072 1.2959C18.277 1.03548 17.7887 1.03548 16.9424 1.2959C16.4378 1.39355 15.9902 1.61328 15.5996 1.95508C15.3392 2.15039 15.1927 2.16667 15.1602 2.00391C15.2253 1.90625 15.3229 1.80859 15.4531 1.71094C16.2507 1.27148 16.9017 1.01921 17.4062 0.954102C18.0085 0.823893 18.4561 0.888997 18.749 1.14941C19.2861 1.68652 19.0745 2.40267 18.1143 3.29785C17.6423 3.7373 17.0726 4.08724 16.4053 4.34766L15.7949 4.64062L16.0146 4.73828C16.0798 4.80339 16.21 4.90918 16.4053 5.05566C16.6006 5.18587 16.7308 5.28353 16.7959 5.34863C16.861 5.41374 16.9505 5.51953 17.0645 5.66602C17.1947 5.79622 17.2842 5.93457 17.333 6.08105C17.3818 6.22754 17.4225 6.38216 17.4551 6.54492C17.5527 7.21224 17.5039 7.83073 17.3086 8.40039C16.9831 9.47461 16.332 10.3372 15.3555 10.9883C14.7207 11.4928 13.9801 11.9404 13.1338 12.3311C12.2874 12.7054 11.3678 12.8926 10.375 12.8926C9.39844 12.8926 8.65788 12.5264 8.15332 11.7939C7.8929 11.4196 7.7627 11.0046 7.7627 10.5488C7.73014 9.81641 7.93359 9.12467 8.37305 8.47363C8.79622 7.82259 9.37402 7.36686 10.1064 7.10645C10.3669 7.00879 10.5459 7.00879 10.6436 7.10645C10.8714 7.23665 10.9121 7.38314 10.7656 7.5459C10.5378 7.31803 10.2367 7.26921 9.8623 7.39941C9.56934 7.49707 9.30078 7.66797 9.05664 7.91211C8.55208 8.48177 8.2347 9.02702 8.10449 9.54785C7.87663 10.4105 7.95801 11.1104 8.34863 11.6475C8.75553 12.2171 9.34147 12.502 10.1064 12.502Z" fill="#B39D96"/>
<path d="M2.09863 12.3066L2.08163 12.4058L2.09293 12.4065L2.09863 12.3066ZM0.853516 11.3057L0.94463 11.264L0.941777 11.2587L0.853516 11.3057ZM1.95215 5.59277L2.03555 5.64798L2.03667 5.64622L1.95215 5.59277ZM4.90625 2.44336L4.84658 2.36308L4.84465 2.36459L4.90625 2.44336ZM8.15332 0.856445L8.13688 0.757806L8.13661 0.757851L8.15332 0.856445ZM8.73926 0.758789V0.658789H8.73098L8.72282 0.66015L8.73926 0.758789ZM10.1064 1.10059L10.0427 1.17803L10.0493 1.18268L10.1064 1.10059ZM10.6436 2.39453L10.5433 2.39182L10.5437 2.39897L10.6436 2.39453ZM10.0088 4.86035L10.097 4.90748L10.0982 4.90507L10.0088 4.86035ZM6.39551 9.54785L6.46623 9.61857L6.46725 9.61752L6.39551 9.54785ZM3.85645 11.7451L3.80302 11.6605L3.80046 11.6623L3.85645 11.7451ZM2.00098 11.9893L2.02022 11.8911L2.01069 11.8893H2.00098V11.9893ZM5.71191 9.88965L5.78083 9.96215L5.78262 9.96036L5.71191 9.88965ZM8.59277 6.49609L8.67838 6.54778L8.67852 6.54754L8.59277 6.49609ZM9.17871 5.6416L9.09797 5.5826L9.09756 5.58317L9.17871 5.6416ZM9.91113 4.54297L9.82537 4.49151L9.82459 4.49287L9.91113 4.54297ZM10.3506 3.54199L10.2565 3.50716L10.2544 3.51452L10.3506 3.54199ZM10.4482 2.22363L10.3505 2.24459L10.3506 2.24533L10.4482 2.22363ZM9.74023 1.2959L9.78011 1.20419L9.77252 1.20089L9.76449 1.19888L9.74023 1.2959ZM9.10547 1.19824V1.09816L9.10147 1.09832L9.10547 1.19824ZM4.05176 4.54297L3.97384 4.48028L3.97367 4.4805L4.05176 4.54297ZM1.65918 8.49805L1.56511 8.46408L1.56448 8.46593L1.65918 8.49805ZM1.70801 11.8916L1.65749 11.9779L1.68089 11.9916H1.70801V11.8916ZM2.11553 12.2081C1.58155 12.1165 1.19249 11.8067 0.944463 11.2641L0.762568 11.3472C1.03537 11.944 1.4764 12.3014 2.08174 12.4052L2.11553 12.2081ZM0.941777 11.2587C0.170607 9.81074 0.512235 7.94912 2.03553 5.64797L1.86876 5.53757C0.332166 7.85882 -0.0586283 9.80579 0.765254 11.3527L0.941777 11.2587ZM2.03667 5.64622C2.72918 4.55109 3.70535 3.50948 4.96785 2.52213L4.84465 2.36459C3.56809 3.36292 2.57486 4.42092 1.86763 5.53933L2.03667 5.64622ZM4.9659 2.52362C6.16388 1.63323 7.23147 1.11412 8.17003 0.955039L8.13661 0.757851C7.1546 0.924294 6.05748 1.46312 4.8466 2.3631L4.9659 2.52362ZM8.16976 0.955085L8.7557 0.857428L8.72282 0.66015L8.13688 0.757806L8.16976 0.955085ZM8.73926 0.858789C9.36685 0.858789 9.79344 0.972362 10.0429 1.17778L10.17 1.02339C9.86607 0.773081 9.3812 0.658789 8.73926 0.658789V0.858789ZM10.0493 1.18268C10.3874 1.41785 10.5593 1.81124 10.5436 2.39183L10.7435 2.39723C10.7604 1.7734 10.5742 1.30415 10.1636 1.0185L10.0493 1.18268ZM10.5437 2.39897C10.5752 3.10903 10.3703 3.91376 9.91935 4.81563L10.0982 4.90507C10.5588 3.98403 10.777 3.14487 10.7435 2.39009L10.5437 2.39897ZM9.92058 4.81324C9.16151 6.23447 7.9638 7.78944 6.32377 9.47818L6.46725 9.61752C8.11498 7.92085 9.32612 6.35081 10.097 4.90746L9.92058 4.81324ZM6.3248 9.47714C5.25147 10.5505 4.41162 11.2762 3.80305 11.6606L3.90984 11.8297C4.53825 11.4328 5.39111 10.6937 6.46622 9.61856L6.3248 9.47714ZM3.80046 11.6623C3.21137 12.0603 2.64677 12.2378 2.10434 12.2068L2.09293 12.4065C2.68982 12.4406 3.29709 12.2437 3.91243 11.828L3.80046 11.6623ZM1.98174 12.0874C2.43158 12.1756 2.97428 12.0278 3.60051 11.6735C4.22905 11.3178 4.95601 10.7461 5.78081 9.96213L5.64302 9.81717C4.82394 10.5957 4.11047 11.1551 3.50203 11.4994C2.89128 11.8449 2.40045 11.9657 2.02022 11.8911L1.98174 12.0874ZM5.78262 9.96036C7.18371 8.55927 8.15107 7.42114 8.67838 6.54778L8.50717 6.44441C7.99281 7.29631 7.0396 8.42055 5.6412 9.81894L5.78262 9.96036ZM8.67852 6.54754C8.77374 6.38884 8.96672 6.10717 9.25986 5.70003L9.09756 5.58317C8.80476 5.98983 8.60712 6.27782 8.50702 6.44464L8.67852 6.54754ZM9.25945 5.7006C9.56992 5.27575 9.81625 4.90644 9.99768 4.59307L9.82459 4.49287C9.64794 4.79799 9.40599 5.1611 9.09797 5.5826L9.25945 5.7006ZM9.99688 4.59442C10.1964 4.2619 10.3465 3.92023 10.4467 3.56946L10.2544 3.51452C10.1593 3.84735 10.0165 4.17299 9.82538 4.49152L9.99688 4.59442ZM10.4444 3.57672C10.6135 3.12 10.6479 2.66097 10.5459 2.20194L10.3506 2.24533C10.4439 2.6652 10.4132 3.08507 10.2568 3.50726L10.4444 3.57672ZM10.546 2.20268C10.4427 1.72056 10.1886 1.38178 9.78011 1.20419L9.70036 1.38761C10.0406 1.53554 10.2585 1.81525 10.3505 2.24459L10.546 2.20268ZM9.76449 1.19888C9.50055 1.1329 9.27996 1.09824 9.10547 1.09824V1.29824C9.2565 1.29824 9.45908 1.32869 9.71598 1.39291L9.76449 1.19888ZM9.10147 1.09832C7.43002 1.16518 5.72127 2.30825 3.97384 4.48029L4.12967 4.60565C5.86532 2.44826 7.52571 1.36151 9.10947 1.29816L9.10147 1.09832ZM3.97367 4.4805C2.79805 5.95003 1.9934 7.27808 1.56512 8.46408L1.75324 8.53201C2.17131 7.37427 2.96172 6.0656 4.12984 4.60544L3.97367 4.4805ZM1.56448 8.46593C1.24574 9.40579 1.08694 10.1692 1.09532 10.7517C1.10371 11.3346 1.28101 11.7575 1.65749 11.9779L1.75853 11.8053C1.46769 11.6351 1.30319 11.297 1.2953 10.7488C1.28741 10.2001 1.43785 9.46205 1.75388 8.53016L1.56448 8.46593ZM1.70801 11.9916C1.70794 11.9916 1.70856 11.9916 1.70993 11.9918C1.71131 11.9919 1.71326 11.9922 1.71586 11.9927C1.72114 11.9938 1.72826 11.9956 1.73742 11.9987C1.75593 12.0048 1.77987 12.0149 1.80977 12.0299L1.89921 11.851C1.83333 11.818 1.76604 11.7916 1.70801 11.7916V11.9916ZM1.80977 12.0299C1.87566 12.0628 1.94294 12.0893 2.00098 12.0893V11.8893C2.00104 11.8893 2.00043 11.8893 1.99905 11.8891C1.99768 11.889 1.99572 11.8887 1.99312 11.8881C1.98784 11.8871 1.98073 11.8852 1.97156 11.8822C1.95305 11.876 1.92912 11.8659 1.89921 11.851L1.80977 12.0299ZM10.1064 12.502L10.1178 12.402H10.1064V12.502ZM12.792 11.9648L12.8361 12.0546L12.8367 12.0543L12.792 11.9648ZM15.4043 9.79199L15.4818 9.85525L15.4822 9.85469L15.4043 9.79199ZM16.4785 5.34863L16.4179 5.4282L16.4197 5.42951L16.4785 5.34863ZM15.502 4.25L15.4521 4.16273L15.4438 4.16863L15.502 4.25ZM16.3564 3.76172L16.3089 3.67372L16.3068 3.67489L16.3564 3.76172ZM17.9189 2.46777L17.8427 2.40307L17.8415 2.40445L17.9189 2.46777ZM18.4072 1.2959L18.3178 1.34064L18.319 1.34296L18.4072 1.2959ZM16.9424 1.2959L16.9615 1.39464L16.9718 1.39148L16.9424 1.2959ZM15.5996 1.95508L15.6598 2.03531L15.6655 2.03034L15.5996 1.95508ZM15.1602 2.00391L15.077 1.94844L15.054 1.9829L15.0621 2.02352L15.1602 2.00391ZM15.4531 1.71094L15.4044 1.62249L15.3931 1.63094L15.4531 1.71094ZM17.4062 0.954102L17.4191 1.05364L17.4274 1.05184L17.4062 0.954102ZM18.749 1.14941L18.8199 1.07858L18.8155 1.07467L18.749 1.14941ZM18.1143 3.29785L18.1824 3.37104L18.1824 3.371L18.1143 3.29785ZM16.4053 4.34766L16.3688 4.25423L16.362 4.2575L16.4053 4.34766ZM15.7949 4.64062L15.7516 4.55047L15.5566 4.64412L15.7543 4.73201L15.7949 4.64062ZM16.0146 4.73828L16.0854 4.66757L16.0722 4.65444L16.0553 4.6469L16.0146 4.73828ZM16.4053 5.05566L16.3452 5.13579L16.3498 5.13887L16.4053 5.05566ZM17.0645 5.66602L16.9849 5.72789L16.9937 5.73673L17.0645 5.66602ZM17.4551 6.54492L17.5542 6.53042L17.5531 6.52531L17.4551 6.54492ZM17.3086 8.40039L17.2139 8.36794L17.2129 8.37139L17.3086 8.40039ZM15.3555 10.9883L15.2998 10.9048L15.2932 10.91L15.3555 10.9883ZM13.1338 12.3311L13.1742 12.4225L13.1757 12.4219L13.1338 12.3311ZM8.15332 11.7939L8.23567 11.7372L8.23541 11.7368L8.15332 11.7939ZM7.7627 10.5488H7.86279L7.8626 10.5444L7.7627 10.5488ZM8.37305 8.47363L8.45594 8.52959L8.45689 8.52813L8.37305 8.47363ZM10.1064 7.10645L10.14 7.20068L10.1416 7.20008L10.1064 7.10645ZM10.6436 7.10645L10.5728 7.17716L10.5823 7.18663L10.5939 7.19327L10.6436 7.10645ZM10.7656 7.5459L10.6949 7.61661L10.7694 7.69114L10.84 7.61279L10.7656 7.5459ZM9.8623 7.39941L9.89393 7.49429L9.89516 7.49386L9.8623 7.39941ZM9.05664 7.91211L8.9858 7.84127L8.98178 7.84581L9.05664 7.91211ZM8.10449 9.54785L8.20118 9.57339L8.20151 9.57211L8.10449 9.54785ZM8.34863 11.6475L8.43001 11.5893L8.42951 11.5886L8.34863 11.6475ZM10.0952 12.6013C10.9802 12.7015 11.8945 12.5171 12.8361 12.0546L12.7479 11.8751C11.834 12.324 10.958 12.4977 10.1177 12.4026L10.0952 12.6013ZM12.8367 12.0543C13.7956 11.5749 14.677 10.8407 15.4818 9.85525L15.3268 9.72874C14.5365 10.6965 13.6764 11.4108 12.7473 11.8754L12.8367 12.0543ZM15.4822 9.85469C16.5607 8.5147 17.1156 7.34471 17.1156 6.34961H16.9156C16.9156 7.27508 16.3963 8.40002 15.3264 9.72929L15.4822 9.85469ZM17.1156 6.34961C17.1156 5.90757 16.9186 5.54506 16.5373 5.26776L16.4197 5.42951C16.7546 5.67304 16.9156 5.97785 16.9156 6.34961H17.1156ZM16.5391 5.26909C16.1782 4.99408 15.7494 4.85801 15.2578 4.85801V5.05801C15.7102 5.05801 16.0953 5.18235 16.4179 5.42818L16.5391 5.26909ZM15.2578 4.85801C15.0087 4.85801 14.8333 4.83556 14.7236 4.79663C14.6693 4.77733 14.638 4.75638 14.6212 4.73848C14.6065 4.72286 14.601 4.70796 14.601 4.68945H14.401C14.401 4.76046 14.427 4.8239 14.4754 4.87541C14.5216 4.92465 14.585 4.95965 14.6567 4.98511C14.7993 5.0357 15.0024 5.05801 15.2578 5.05801V4.85801ZM14.601 4.68945C14.601 4.67569 14.6043 4.66782 14.6085 4.66181C14.6134 4.65486 14.6241 4.64438 14.6473 4.63345C14.6964 4.61037 14.7823 4.59414 14.916 4.59414V4.39414C14.773 4.39414 14.6515 4.41047 14.5622 4.45249C14.5162 4.47411 14.475 4.50432 14.4453 4.5462C14.415 4.58901 14.401 4.63811 14.401 4.68945H14.601ZM14.916 4.59414C15.1099 4.59414 15.3262 4.49846 15.5601 4.33137L15.4438 4.16863C15.222 4.32706 15.0477 4.39414 14.916 4.39414V4.59414ZM15.5516 4.33682L16.4061 3.84854L16.3068 3.67489L15.4523 4.16318L15.5516 4.33682ZM16.404 3.84969C17.0178 3.51789 17.5488 3.07815 17.9963 2.5311L17.8415 2.40445C17.4102 2.93162 16.8995 3.35451 16.3089 3.67375L16.404 3.84969ZM17.9952 2.53247C18.2259 2.26054 18.388 2.0195 18.4751 1.81043C18.5618 1.60228 18.5808 1.40887 18.4955 1.24884L18.319 1.34296C18.3639 1.42707 18.3665 1.55104 18.2905 1.73351C18.2149 1.91507 18.0677 2.1379 17.8427 2.40308L17.9952 2.53247ZM18.4967 1.25118C18.4052 1.06816 18.1981 1.00059 17.9434 1.00059C17.6842 1.00059 17.3393 1.06915 16.913 1.20032L16.9718 1.39148C17.3918 1.26223 17.7142 1.20059 17.9434 1.20059C18.1769 1.20059 18.2791 1.26322 18.3178 1.34062L18.4967 1.25118ZM16.9234 1.19772C16.4013 1.29877 15.9376 1.5265 15.5338 1.87982L15.6655 2.03034C16.0429 1.70007 16.4744 1.48834 16.9614 1.39408L16.9234 1.19772ZM15.5396 1.87508C15.4103 1.97209 15.3275 2.00948 15.2834 2.01438C15.2658 2.01634 15.2655 2.01193 15.2693 2.01501C15.2712 2.01658 15.2637 2.01194 15.2582 1.98429L15.0621 2.02352C15.0728 2.07725 15.0959 2.13162 15.1426 2.1698C15.1911 2.20951 15.2498 2.21934 15.3055 2.21316C15.4079 2.20178 15.5285 2.13338 15.6596 2.03508L15.5396 1.87508ZM15.2434 2.05938C15.3003 1.97402 15.3887 1.88423 15.5131 1.79094L15.3931 1.63094C15.2571 1.73296 15.1503 1.83848 15.077 1.94844L15.2434 2.05938ZM15.5014 1.79852C16.2952 1.36111 16.9331 1.11598 17.419 1.05328L17.3935 0.854924C16.8702 0.922434 16.2061 1.18186 15.4049 1.62335L15.5014 1.79852ZM17.4274 1.05184C18.0166 0.92444 18.4246 0.994846 18.6826 1.22415L18.8155 1.07467C18.4875 0.783149 18.0003 0.723346 17.3851 0.85636L17.4274 1.05184ZM18.6783 1.22012C18.8022 1.34401 18.8792 1.47432 18.9147 1.61096C18.9501 1.74748 18.9458 1.89668 18.8973 2.06102C18.7991 2.39339 18.5217 2.78128 18.0461 3.2247L18.1824 3.371C18.6671 2.91924 18.9757 2.50147 19.0891 2.11769C19.1463 1.92396 19.1542 1.73746 19.1083 1.56068C19.0624 1.38399 18.9644 1.22337 18.8197 1.0787L18.6783 1.22012ZM18.0461 3.22466C17.5843 3.65461 17.0258 3.99816 16.3689 4.2545L16.4416 4.44081C17.1194 4.17632 17.7002 3.82 18.1824 3.37104L18.0461 3.22466ZM16.362 4.2575L15.7516 4.55047L15.8382 4.73078L16.4485 4.43781L16.362 4.2575ZM15.7543 4.73201L15.974 4.82966L16.0553 4.6469L15.8355 4.54924L15.7543 4.73201ZM15.9439 4.80899C16.0147 4.87979 16.1504 4.9895 16.3453 5.13566L16.4653 4.97566C16.2695 4.82886 16.1448 4.72698 16.0854 4.66757L15.9439 4.80899ZM16.3498 5.13887C16.5455 5.26933 16.6679 5.36209 16.7252 5.41934L16.8666 5.27792C16.7936 5.20496 16.6557 5.10241 16.4607 4.97246L16.3498 5.13887ZM16.7252 5.41934C16.7857 5.47987 16.8721 5.58162 16.9855 5.72741L17.1434 5.60462C17.0289 5.45745 16.9363 5.34761 16.8666 5.27792L16.7252 5.41934ZM16.9937 5.73673C17.1151 5.85805 17.1951 5.9835 17.2381 6.11268L17.4279 6.04943C17.3733 5.88564 17.2743 5.73439 17.1352 5.5953L16.9937 5.73673ZM17.2381 6.11268C17.2856 6.25495 17.3252 6.40554 17.357 6.56453L17.5531 6.52531C17.5198 6.35878 17.4781 6.20013 17.4279 6.04943L17.2381 6.11268ZM17.3561 6.5594C17.4518 7.21287 17.4036 7.81509 17.214 8.36796L17.4032 8.43282C17.6043 7.84637 17.6537 7.21161 17.554 6.53044L17.3561 6.5594ZM17.2129 8.37139C16.8944 9.42235 16.2582 10.2663 15.3 10.9051L15.4109 11.0715C16.4058 10.4082 17.0717 9.52687 17.4043 8.42939L17.2129 8.37139ZM15.2932 10.91C14.6656 11.4089 13.932 11.8525 13.0919 12.2403L13.1757 12.4219C14.0282 12.0284 14.7758 11.5768 15.4177 11.0666L15.2932 10.91ZM13.0933 12.2396C12.2606 12.6079 11.3549 12.7926 10.375 12.7926V12.9926C11.3807 12.9926 12.3142 12.8029 13.1742 12.4225L13.0933 12.2396ZM10.375 12.7926C9.42755 12.7926 8.71952 12.4396 8.23567 11.7372L8.07097 11.8507C8.59624 12.6132 9.36932 12.9926 10.375 12.9926V12.7926ZM8.23541 11.7368C7.98665 11.3792 7.8627 10.9841 7.8627 10.5488H7.6627C7.6627 11.025 7.79916 11.46 8.07123 11.8511L8.23541 11.7368ZM7.8626 10.5444C7.83107 9.83497 8.02757 9.16419 8.45593 8.52958L8.29016 8.41769C7.83962 9.08516 7.62922 9.79784 7.66279 10.5533L7.8626 10.5444ZM8.45689 8.52813C8.86809 7.89552 9.42819 7.45374 10.1399 7.20067L10.0729 7.01222C9.31986 7.27999 8.72436 7.74966 8.2892 8.41913L8.45689 8.52813ZM10.1416 7.20008C10.2661 7.15339 10.3633 7.1332 10.436 7.1332C10.5072 7.1332 10.5479 7.15218 10.5728 7.17716L10.7143 7.03573C10.6416 6.96306 10.5439 6.9332 10.436 6.9332C10.3298 6.9332 10.2072 6.96184 10.0713 7.01281L10.1416 7.20008ZM10.5939 7.19327C10.7004 7.25413 10.739 7.30601 10.7486 7.34073C10.7562 7.3679 10.7526 7.41089 10.6913 7.479L10.84 7.61279C10.9251 7.51815 10.9745 7.40651 10.9413 7.2872C10.9103 7.17543 10.8145 7.08897 10.6932 7.01962L10.5939 7.19327ZM10.8363 7.47519C10.7084 7.3473 10.5574 7.26764 10.3849 7.23967C10.2138 7.21192 10.0278 7.23599 9.82945 7.30496L9.89516 7.49386C10.0712 7.43263 10.2229 7.41601 10.3529 7.43709C10.4815 7.45795 10.5949 7.51663 10.6949 7.61661L10.8363 7.47519ZM9.83068 7.30455C9.52132 7.40767 9.23974 7.58759 8.98593 7.8414L9.12735 7.98282C9.36182 7.74835 9.61735 7.58648 9.89393 7.49428L9.83068 7.30455ZM8.98178 7.84581C8.47074 8.42279 8.14287 8.98204 8.00748 9.5236L8.20151 9.57211C8.32653 9.072 8.63343 8.54075 9.1315 7.97841L8.98178 7.84581ZM8.00781 9.52231C7.77508 10.4034 7.85386 11.1372 8.26776 11.7063L8.42951 11.5886C8.06215 11.0835 7.97818 10.4176 8.20118 9.57339L8.00781 9.52231ZM8.26726 11.7056C8.69487 12.3042 9.31267 12.602 10.1064 12.602V12.402C9.37027 12.402 8.81619 12.13 8.43001 11.5893L8.26726 11.7056Z" fill="#B39D96"/>
</g>
<defs>
<clipPath id="clip0_209_292">
<rect width="23" height="13" fill="white"/>
</clipPath>
</defs>
</svg>
