<svg width="23" height="13" viewBox="0 0 23 13" fill="none" xmlns="http://www.w3.org/2000/svg">
<g clip-path="url(#clip0_209_290)">
<path d="M2.09863 12.3066C1.52897 12.209 1.11393 11.8753 0.853516 11.3057C0.0559896 9.80827 0.422201 7.90397 1.95215 5.59277C2.65202 4.486 3.63672 3.4362 4.90625 2.44336C6.11068 1.54818 7.19303 1.01921 8.15332 0.856445L8.73926 0.758789C9.37402 0.758789 9.82975 0.872721 10.1064 1.10059C10.4808 1.361 10.6598 1.79232 10.6436 2.39453C10.6761 3.12695 10.4645 3.94889 10.0088 4.86035C9.24382 6.29264 8.03939 7.85514 6.39551 9.54785C5.32129 10.6221 4.47493 11.3545 3.85645 11.7451C3.25423 12.152 2.66829 12.3392 2.09863 12.3066ZM2.00098 11.9893C2.83105 12.152 4.06803 11.4521 5.71191 9.88965C7.11165 8.48991 8.07194 7.35872 8.59277 6.49609C8.69043 6.33333 8.88574 6.0485 9.17871 5.6416C9.48796 5.21842 9.7321 4.85221 9.91113 4.54297C10.1064 4.21745 10.2529 3.88379 10.3506 3.54199C10.5133 3.10254 10.5459 2.66309 10.4482 2.22363C10.3506 1.7679 10.1146 1.45866 9.74023 1.2959C9.47982 1.23079 9.26823 1.19824 9.10547 1.19824C7.47786 1.26335 5.79329 2.37826 4.05176 4.54297C2.87988 6.00781 2.08236 7.32617 1.65918 8.49805C1.02441 10.3698 1.04069 11.501 1.70801 11.8916C1.74056 11.8916 1.78939 11.9079 1.85449 11.9404C1.9196 11.973 1.96842 11.9893 2.00098 11.9893ZM15.0381 12.8438C14.8428 12.974 14.2894 13.0228 13.3779 12.9902C12.4827 12.9577 11.7747 12.86 11.2539 12.6973C10.8796 12.5996 10.5296 12.5345 10.2041 12.502C9.89486 12.4694 9.65072 12.4775 9.47168 12.5264C9.29264 12.5752 9.20312 12.6647 9.20312 12.7949C9.20312 12.86 9.18685 12.9089 9.1543 12.9414C9.02409 12.974 8.88574 12.8926 8.73926 12.6973C8.51139 12.2253 8.56022 11.6963 8.88574 11.1104C9.01595 10.8499 9.4554 10.3779 10.2041 9.69434C10.8714 9.05957 11.8643 8.31087 13.1826 7.44824C15.445 5.9834 16.8285 4.86849 17.333 4.10352C17.6585 3.63151 17.8864 3.13509 18.0166 2.61426C18.1631 2.07715 18.0898 1.54004 17.7969 1.00293C17.569 0.775065 17.3167 0.636719 17.04 0.587891C15.5101 0.18099 14.0615 0.555339 12.6943 1.71094C12.0596 2.31315 11.6445 2.99674 11.4492 3.76172C11.3516 3.95703 11.3271 4.32324 11.376 4.86035C11.4248 5.38118 11.5957 5.69043 11.8887 5.78809C12.084 5.85319 12.1165 5.92643 11.9863 6.00781C11.9538 6.00781 11.9212 6.00781 11.8887 6.00781C11.5957 6.00781 11.3841 5.77995 11.2539 5.32422C11.14 4.86849 11.0993 4.47786 11.1318 4.15234C11.1644 3.41992 11.4329 2.73633 11.9375 2.10156C12.8978 0.929688 14.151 0.311198 15.6973 0.246094C16.1042 0.213542 16.5355 0.246094 16.9912 0.34375C17.9515 0.571615 18.4886 1.125 18.6025 2.00391C18.7653 3.81055 17.7969 5.44629 15.6973 6.91113C15.4043 7.139 14.9648 7.43197 14.3789 7.79004C13.793 8.13184 13.4349 8.35156 13.3047 8.44922C12.4746 9.01888 11.6689 9.62109 10.8877 10.2559C9.99251 11.0534 9.52865 11.6149 9.49609 11.9404C9.49609 12.0055 9.5612 12.0381 9.69141 12.0381L10.9365 12.3555C11.4411 12.4857 11.9945 12.5915 12.5967 12.6729C13.1989 12.7542 13.6953 12.7786 14.0859 12.7461C14.4928 12.7135 14.6963 12.6484 14.6963 12.5508C14.6963 12.2904 14.8265 12.2904 15.0869 12.5508C15.152 12.681 15.1357 12.7786 15.0381 12.8438Z" fill="#B39D96"/>
<path d="M2.09863 12.3066L2.08163 12.4058L2.09293 12.4065L2.09863 12.3066ZM0.853516 11.3057L0.94463 11.264L0.941777 11.2587L0.853516 11.3057ZM1.95215 5.59277L2.03555 5.64798L2.03667 5.64622L1.95215 5.59277ZM4.90625 2.44336L4.84658 2.36308L4.84465 2.36459L4.90625 2.44336ZM8.15332 0.856445L8.13688 0.757806L8.13661 0.757851L8.15332 0.856445ZM8.73926 0.758789V0.658789H8.73098L8.72282 0.66015L8.73926 0.758789ZM10.1064 1.10059L10.0427 1.17803L10.0493 1.18268L10.1064 1.10059ZM10.6436 2.39453L10.5433 2.39182L10.5437 2.39897L10.6436 2.39453ZM10.0088 4.86035L10.097 4.90748L10.0982 4.90507L10.0088 4.86035ZM6.39551 9.54785L6.46623 9.61857L6.46725 9.61752L6.39551 9.54785ZM3.85645 11.7451L3.80302 11.6605L3.80046 11.6623L3.85645 11.7451ZM2.00098 11.9893L2.02022 11.8911L2.01069 11.8893H2.00098V11.9893ZM5.71191 9.88965L5.78083 9.96215L5.78262 9.96036L5.71191 9.88965ZM8.59277 6.49609L8.67838 6.54778L8.67852 6.54754L8.59277 6.49609ZM9.17871 5.6416L9.09797 5.5826L9.09756 5.58317L9.17871 5.6416ZM9.91113 4.54297L9.82537 4.49151L9.82459 4.49287L9.91113 4.54297ZM10.3506 3.54199L10.2565 3.50716L10.2544 3.51452L10.3506 3.54199ZM10.4482 2.22363L10.3505 2.24459L10.3506 2.24533L10.4482 2.22363ZM9.74023 1.2959L9.78011 1.20419L9.77252 1.20089L9.76449 1.19888L9.74023 1.2959ZM9.10547 1.19824V1.09816L9.10147 1.09832L9.10547 1.19824ZM4.05176 4.54297L3.97384 4.48028L3.97367 4.4805L4.05176 4.54297ZM1.65918 8.49805L1.56511 8.46408L1.56448 8.46593L1.65918 8.49805ZM1.70801 11.8916L1.65749 11.9779L1.68089 11.9916H1.70801V11.8916ZM2.11553 12.2081C1.58155 12.1165 1.19249 11.8067 0.944463 11.2641L0.762568 11.3472C1.03537 11.944 1.4764 12.3014 2.08174 12.4052L2.11553 12.2081ZM0.941777 11.2587C0.170607 9.81074 0.512235 7.94912 2.03553 5.64797L1.86876 5.53757C0.332166 7.85882 -0.0586283 9.80579 0.765254 11.3527L0.941777 11.2587ZM2.03667 5.64622C2.72918 4.55109 3.70535 3.50948 4.96785 2.52213L4.84465 2.36459C3.56809 3.36292 2.57486 4.42092 1.86763 5.53933L2.03667 5.64622ZM4.9659 2.52362C6.16388 1.63323 7.23147 1.11412 8.17003 0.955039L8.13661 0.757851C7.1546 0.924294 6.05748 1.46312 4.8466 2.3631L4.9659 2.52362ZM8.16976 0.955085L8.7557 0.857428L8.72282 0.66015L8.13688 0.757806L8.16976 0.955085ZM8.73926 0.858789C9.36685 0.858789 9.79344 0.972362 10.0429 1.17778L10.17 1.02339C9.86607 0.773081 9.3812 0.658789 8.73926 0.658789V0.858789ZM10.0493 1.18268C10.3874 1.41785 10.5593 1.81124 10.5436 2.39183L10.7435 2.39723C10.7604 1.7734 10.5742 1.30415 10.1636 1.0185L10.0493 1.18268ZM10.5437 2.39897C10.5752 3.10903 10.3703 3.91376 9.91935 4.81563L10.0982 4.90507C10.5588 3.98403 10.777 3.14487 10.7435 2.39009L10.5437 2.39897ZM9.92058 4.81324C9.16151 6.23447 7.9638 7.78944 6.32377 9.47818L6.46725 9.61752C8.11498 7.92085 9.32612 6.35081 10.097 4.90746L9.92058 4.81324ZM6.3248 9.47714C5.25147 10.5505 4.41162 11.2762 3.80305 11.6606L3.90984 11.8297C4.53825 11.4328 5.39111 10.6937 6.46622 9.61856L6.3248 9.47714ZM3.80046 11.6623C3.21137 12.0603 2.64677 12.2378 2.10434 12.2068L2.09293 12.4065C2.68982 12.4406 3.29709 12.2437 3.91243 11.828L3.80046 11.6623ZM1.98174 12.0874C2.43158 12.1756 2.97428 12.0278 3.60051 11.6735C4.22905 11.3178 4.95601 10.7461 5.78081 9.96213L5.64302 9.81717C4.82394 10.5957 4.11047 11.1551 3.50203 11.4994C2.89128 11.8449 2.40045 11.9657 2.02022 11.8911L1.98174 12.0874ZM5.78262 9.96036C7.18371 8.55927 8.15107 7.42114 8.67838 6.54778L8.50717 6.44441C7.99281 7.29631 7.0396 8.42055 5.6412 9.81894L5.78262 9.96036ZM8.67852 6.54754C8.77374 6.38884 8.96672 6.10717 9.25986 5.70003L9.09756 5.58317C8.80476 5.98983 8.60712 6.27782 8.50702 6.44464L8.67852 6.54754ZM9.25945 5.7006C9.56992 5.27575 9.81625 4.90644 9.99768 4.59307L9.82459 4.49287C9.64794 4.79799 9.40599 5.1611 9.09797 5.5826L9.25945 5.7006ZM9.99688 4.59442C10.1964 4.2619 10.3465 3.92023 10.4467 3.56946L10.2544 3.51452C10.1593 3.84735 10.0165 4.17299 9.82538 4.49152L9.99688 4.59442ZM10.4444 3.57672C10.6135 3.12 10.6479 2.66097 10.5459 2.20194L10.3506 2.24533C10.4439 2.6652 10.4132 3.08507 10.2568 3.50726L10.4444 3.57672ZM10.546 2.20268C10.4427 1.72056 10.1886 1.38178 9.78011 1.20419L9.70036 1.38761C10.0406 1.53554 10.2585 1.81525 10.3505 2.24459L10.546 2.20268ZM9.76449 1.19888C9.50055 1.1329 9.27996 1.09824 9.10547 1.09824V1.29824C9.2565 1.29824 9.45908 1.32869 9.71598 1.39291L9.76449 1.19888ZM9.10147 1.09832C7.43002 1.16518 5.72127 2.30825 3.97384 4.48029L4.12967 4.60565C5.86532 2.44826 7.52571 1.36151 9.10947 1.29816L9.10147 1.09832ZM3.97367 4.4805C2.79805 5.95003 1.9934 7.27808 1.56512 8.46408L1.75324 8.53201C2.17131 7.37427 2.96172 6.0656 4.12984 4.60544L3.97367 4.4805ZM1.56448 8.46593C1.24574 9.40579 1.08694 10.1692 1.09532 10.7517C1.10371 11.3346 1.28101 11.7575 1.65749 11.9779L1.75853 11.8053C1.46769 11.6351 1.30319 11.297 1.2953 10.7488C1.28741 10.2001 1.43785 9.46205 1.75388 8.53016L1.56448 8.46593ZM1.70801 11.9916C1.70794 11.9916 1.70856 11.9916 1.70993 11.9918C1.71131 11.9919 1.71326 11.9922 1.71586 11.9927C1.72114 11.9938 1.72826 11.9956 1.73742 11.9987C1.75593 12.0048 1.77987 12.0149 1.80977 12.0299L1.89921 11.851C1.83333 11.818 1.76604 11.7916 1.70801 11.7916V11.9916ZM1.80977 12.0299C1.87566 12.0628 1.94294 12.0893 2.00098 12.0893V11.8893C2.00104 11.8893 2.00043 11.8893 1.99905 11.8891C1.99768 11.889 1.99572 11.8887 1.99312 11.8881C1.98784 11.8871 1.98073 11.8852 1.97156 11.8822C1.95305 11.876 1.92912 11.8659 1.89921 11.851L1.80977 12.0299ZM15.0381 12.8438L15.0936 12.927L15.0381 12.8438ZM13.3779 12.9902L13.3743 13.0902L13.3744 13.0902L13.3779 12.9902ZM11.2539 12.6973L11.2838 12.6017L11.2791 12.6005L11.2539 12.6973ZM10.2041 12.502L10.1936 12.6014L10.1942 12.6015L10.2041 12.502ZM9.1543 12.9414L9.17855 13.0384L9.20542 13.0317L9.22501 13.0121L9.1543 12.9414ZM8.73926 12.6973L8.6492 12.7407L8.65343 12.7495L8.65926 12.7573L8.73926 12.6973ZM8.88574 11.1104L8.97324 11.159L8.97518 11.1551L8.88574 11.1104ZM10.2041 9.69434L10.2715 9.7682L10.273 9.76679L10.2041 9.69434ZM13.1826 7.44824L13.1283 7.3643L13.1279 7.36456L13.1826 7.44824ZM17.333 4.10352L17.2507 4.04673L17.2495 4.04846L17.333 4.10352ZM18.0166 2.61426L17.9201 2.58794L17.9196 2.59L18.0166 2.61426ZM17.7969 1.00293L17.8847 0.955044L17.8778 0.942402L17.8676 0.932219L17.7969 1.00293ZM17.04 0.587891L17.0142 0.684884L17.0227 0.686369L17.04 0.587891ZM12.6943 1.71094L12.6297 1.63444L12.6255 1.63839L12.6943 1.71094ZM11.4492 3.76172L11.5387 3.80644L11.5435 3.79685L11.5461 3.78646L11.4492 3.76172ZM11.376 4.86035L11.2764 4.86941L11.2764 4.86969L11.376 4.86035ZM11.8887 5.78809L11.857 5.88295L11.8887 5.78809ZM11.9863 6.00781V6.10781H12.015L12.0393 6.09261L11.9863 6.00781ZM11.2539 5.32422L11.1568 5.34849L11.1578 5.35169L11.2539 5.32422ZM11.1318 4.15234L11.2315 4.16231L11.2317 4.15678L11.1318 4.15234ZM11.9375 2.10156L11.8601 2.03817L11.8592 2.03934L11.9375 2.10156ZM15.6973 0.246094L15.7015 0.346076L15.7052 0.345775L15.6973 0.246094ZM16.9912 0.34375L17.0143 0.246428L17.0122 0.24597L16.9912 0.34375ZM18.6025 2.00391L18.7022 1.99493L18.7017 1.99105L18.6025 2.00391ZM15.6973 6.91113L15.64 6.82901L15.6359 6.8322L15.6973 6.91113ZM14.3789 7.79004L14.4293 7.87644L14.4311 7.87537L14.3789 7.79004ZM13.3047 8.44922L13.3613 8.53174L13.3647 8.52922L13.3047 8.44922ZM10.8877 10.2559L10.8246 10.1782L10.8212 10.1812L10.8877 10.2559ZM9.49609 11.9404L9.39609 11.9304V11.9404H9.49609ZM9.69141 12.0381L9.71611 11.9412L9.70395 11.9381H9.69141V12.0381ZM10.9365 12.3555L10.9615 12.2586L10.9612 12.2586L10.9365 12.3555ZM14.0859 12.7461L14.078 12.6464L14.0776 12.6464L14.0859 12.7461ZM15.0869 12.5508L15.1764 12.5061L15.1691 12.4915L15.1576 12.4801L15.0869 12.5508ZM14.9826 12.7605C14.9479 12.7837 14.8897 12.8077 14.8012 12.8289C14.714 12.8498 14.6032 12.8665 14.4678 12.8784C14.1969 12.9023 13.8354 12.9065 13.3815 12.8903L13.3744 13.0902C13.832 13.1065 14.2028 13.1026 14.4854 13.0776C14.6266 13.0652 14.7478 13.0473 14.8477 13.0234C14.9464 12.9998 15.0306 12.9689 15.0936 12.927L14.9826 12.7605ZM13.3816 12.8903C12.4904 12.8579 11.7924 12.7608 11.2837 12.6018L11.2241 12.7927C11.7571 12.9593 12.4751 13.0575 13.3743 13.0902L13.3816 12.8903ZM11.2791 12.6005C10.9007 12.5018 10.5456 12.4356 10.2141 12.4024L10.1942 12.6015C10.5137 12.6334 10.8585 12.6975 11.2287 12.794L11.2791 12.6005ZM10.2146 12.4025C9.90018 12.3694 9.64179 12.3763 9.44537 12.4299L9.49799 12.6228C9.65964 12.5788 9.88953 12.5694 10.1936 12.6014L10.2146 12.4025ZM9.44537 12.4299C9.34636 12.4569 9.26104 12.4979 9.19955 12.5594C9.13545 12.6235 9.10312 12.7041 9.10312 12.7949H9.30313C9.30313 12.7555 9.31556 12.7263 9.34097 12.7008C9.369 12.6728 9.41796 12.6447 9.49799 12.6228L9.44537 12.4299ZM9.10312 12.7949C9.10312 12.8446 9.09077 12.8635 9.08359 12.8707L9.22501 13.0121C9.28293 12.9542 9.30313 12.8754 9.30313 12.7949H9.10312ZM9.13004 12.8444C9.06404 12.8609 8.96241 12.8281 8.81926 12.6373L8.65926 12.7573C8.80908 12.957 8.98413 13.087 9.17855 13.0384L9.13004 12.8444ZM8.82931 12.6538C8.61947 12.2191 8.65853 11.7253 8.97316 11.1589L8.79833 11.0618C8.46192 11.6673 8.40332 12.2314 8.6492 12.7407L8.82931 12.6538ZM8.97518 11.1551C9.03336 11.0387 9.16703 10.8646 9.38618 10.6292C9.60333 10.3959 9.89819 10.1091 10.2715 9.76818L10.1367 9.62049C9.76132 9.96321 9.4621 10.2541 9.2398 10.4929C9.01949 10.7295 8.86833 10.9216 8.7963 11.0656L8.97518 11.1551ZM10.273 9.76679C10.934 9.13809 11.921 8.39322 13.2374 7.53192L13.1279 7.36456C11.8075 8.22853 10.8089 8.98105 10.1352 9.62188L10.273 9.76679ZM13.237 7.53218C14.3697 6.79873 15.2843 6.15172 15.9797 5.59129C16.6735 5.03224 17.1554 4.5544 17.4165 4.15858L17.2495 4.04846C17.006 4.41761 16.544 4.87971 15.8542 5.43556C15.1662 5.99005 14.2579 6.63291 13.1283 7.3643L13.237 7.53218ZM17.4153 4.16029C17.7472 3.67909 17.9803 3.17175 18.1136 2.63851L17.9196 2.59C17.7925 3.09843 17.5699 3.58393 17.2507 4.04674L17.4153 4.16029ZM18.1131 2.64057C18.2671 2.07596 18.1887 1.51238 17.8847 0.955044L17.7091 1.05081C17.991 1.56769 18.0591 2.07833 17.9201 2.58795L18.1131 2.64057ZM17.8676 0.932219C17.6274 0.692052 17.3572 0.542312 17.0574 0.489412L17.0227 0.686369C17.2763 0.731125 17.5106 0.858079 17.7262 1.07364L17.8676 0.932219ZM17.0657 0.49125C15.4997 0.0747487 14.0181 0.461066 12.6298 1.63456L12.7589 1.78731C14.1049 0.649611 15.5205 0.28723 17.0143 0.684531L17.0657 0.49125ZM12.6255 1.63839C11.9786 2.25213 11.5528 2.9518 11.3523 3.73698L11.5461 3.78646C11.7363 3.04169 12.1405 2.37418 12.7632 1.78348L12.6255 1.63839ZM11.3598 3.717C11.3023 3.83195 11.2705 3.98766 11.2579 4.17621C11.2452 4.36636 11.2517 4.59781 11.2764 4.86941L11.4756 4.8513C11.4514 4.58578 11.4457 4.36558 11.4574 4.18951C11.4693 4.01186 11.4985 3.8868 11.5387 3.80644L11.3598 3.717ZM11.2764 4.86969C11.3262 5.40037 11.5047 5.7655 11.857 5.88295L11.9203 5.69322C11.6867 5.61536 11.5234 5.362 11.4755 4.85102L11.2764 4.86969ZM11.857 5.88295C11.9022 5.898 11.9331 5.912 11.9527 5.92392C11.9742 5.93697 11.9722 5.94147 11.9682 5.93246C11.9655 5.92648 11.9637 5.9181 11.9647 5.90894C11.9657 5.90036 11.9685 5.89549 11.9689 5.8949C11.9691 5.89458 11.9674 5.89737 11.9612 5.90284C11.9551 5.90821 11.9461 5.915 11.9333 5.92301L12.0393 6.09261C12.0771 6.06902 12.1141 6.03957 12.138 6.0017C12.1651 5.95878 12.1747 5.90475 12.151 5.85123C12.1307 5.8056 12.092 5.7745 12.0565 5.75296C12.0192 5.73029 11.9728 5.71073 11.9203 5.69322L11.857 5.88295ZM11.9863 5.90781C11.9863 5.90781 11.9862 5.90781 11.9861 5.90781C11.9861 5.90781 11.986 5.90781 11.9859 5.90781C11.9859 5.90781 11.9858 5.90781 11.9858 5.90781C11.9857 5.90781 11.9856 5.90781 11.9856 5.90781C11.9855 5.90781 11.9854 5.90781 11.9854 5.90781C11.9853 5.90781 11.9852 5.90781 11.9852 5.90781C11.9851 5.90781 11.9851 5.90781 11.985 5.90781C11.9849 5.90781 11.9849 5.90781 11.9848 5.90781C11.9847 5.90781 11.9847 5.90781 11.9846 5.90781C11.9845 5.90781 11.9845 5.90781 11.9844 5.90781C11.9844 5.90781 11.9843 5.90781 11.9842 5.90781C11.9842 5.90781 11.9841 5.90781 11.984 5.90781C11.984 5.90781 11.9839 5.90781 11.9838 5.90781C11.9838 5.90781 11.9837 5.90781 11.9837 5.90781C11.9836 5.90781 11.9835 5.90781 11.9835 5.90781C11.9834 5.90781 11.9833 5.90781 11.9833 5.90781C11.9832 5.90781 11.9831 5.90781 11.9831 5.90781C11.983 5.90781 11.983 5.90781 11.9829 5.90781C11.9828 5.90781 11.9828 5.90781 11.9827 5.90781C11.9826 5.90781 11.9826 5.90781 11.9825 5.90781C11.9824 5.90781 11.9824 5.90781 11.9823 5.90781C11.9823 5.90781 11.9822 5.90781 11.9821 5.90781C11.9821 5.90781 11.982 5.90781 11.9819 5.90781C11.9819 5.90781 11.9818 5.90781 11.9818 5.90781C11.9817 5.90781 11.9816 5.90781 11.9816 5.90781C11.9815 5.90781 11.9814 5.90781 11.9814 5.90781C11.9813 5.90781 11.9812 5.90781 11.9812 5.90781C11.9811 5.90781 11.9811 5.90781 11.981 5.90781C11.9809 5.90781 11.9809 5.90781 11.9808 5.90781C11.9807 5.90781 11.9807 5.90781 11.9806 5.90781C11.9805 5.90781 11.9805 5.90781 11.9804 5.90781C11.9804 5.90781 11.9803 5.90781 11.9802 5.90781C11.9802 5.90781 11.9801 5.90781 11.98 5.90781C11.98 5.90781 11.9799 5.90781 11.9798 5.90781C11.9798 5.90781 11.9797 5.90781 11.9797 5.90781C11.9796 5.90781 11.9795 5.90781 11.9795 5.90781C11.9794 5.90781 11.9793 5.90781 11.9793 5.90781C11.9792 5.90781 11.9791 5.90781 11.9791 5.90781C11.979 5.90781 11.979 5.90781 11.9789 5.90781C11.9788 5.90781 11.9788 5.90781 11.9787 5.90781C11.9786 5.90781 11.9786 5.90781 11.9785 5.90781C11.9784 5.90781 11.9784 5.90781 11.9783 5.90781C11.9783 5.90781 11.9782 5.90781 11.9781 5.90781C11.9781 5.90781 11.978 5.90781 11.9779 5.90781C11.9779 5.90781 11.9778 5.90781 11.9777 5.90781C11.9777 5.90781 11.9776 5.90781 11.9776 5.90781C11.9775 5.90781 11.9774 5.90781 11.9774 5.90781C11.9773 5.90781 11.9772 5.90781 11.9772 5.90781C11.9771 5.90781 11.977 5.90781 11.977 5.90781C11.9769 5.90781 11.9769 5.90781 11.9768 5.90781C11.9767 5.90781 11.9767 5.90781 11.9766 5.90781C11.9765 5.90781 11.9765 5.90781 11.9764 5.90781C11.9763 5.90781 11.9763 5.90781 11.9762 5.90781C11.9762 5.90781 11.9761 5.90781 11.976 5.90781C11.976 5.90781 11.9759 5.90781 11.9758 5.90781C11.9758 5.90781 11.9757 5.90781 11.9756 5.90781C11.9756 5.90781 11.9755 5.90781 11.9755 5.90781C11.9754 5.90781 11.9753 5.90781 11.9753 5.90781C11.9752 5.90781 11.9751 5.90781 11.9751 5.90781C11.975 5.90781 11.9749 5.90781 11.9749 5.90781C11.9748 5.90781 11.9748 5.90781 11.9747 5.90781C11.9746 5.90781 11.9746 5.90781 11.9745 5.90781C11.9744 5.90781 11.9744 5.90781 11.9743 5.90781C11.9742 5.90781 11.9742 5.90781 11.9741 5.90781C11.9741 5.90781 11.974 5.90781 11.9739 5.90781C11.9739 5.90781 11.9738 5.90781 11.9737 5.90781C11.9737 5.90781 11.9736 5.90781 11.9735 5.90781C11.9735 5.90781 11.9734 5.90781 11.9734 5.90781C11.9733 5.90781 11.9732 5.90781 11.9732 5.90781C11.9731 5.90781 11.973 5.90781 11.973 5.90781C11.9729 5.90781 11.9728 5.90781 11.9728 5.90781C11.9727 5.90781 11.9727 5.90781 11.9726 5.90781C11.9725 5.90781 11.9725 5.90781 11.9724 5.90781C11.9723 5.90781 11.9723 5.90781 11.9722 5.90781C11.9722 5.90781 11.9721 5.90781 11.972 5.90781C11.972 5.90781 11.9719 5.90781 11.9718 5.90781C11.9718 5.90781 11.9717 5.90781 11.9716 5.90781C11.9716 5.90781 11.9715 5.90781 11.9715 5.90781C11.9714 5.90781 11.9713 5.90781 11.9713 5.90781C11.9712 5.90781 11.9711 5.90781 11.9711 5.90781C11.971 5.90781 11.9709 5.90781 11.9709 5.90781C11.9708 5.90781 11.9708 5.90781 11.9707 5.90781C11.9706 5.90781 11.9706 5.90781 11.9705 5.90781C11.9704 5.90781 11.9704 5.90781 11.9703 5.90781C11.9702 5.90781 11.9702 5.90781 11.9701 5.90781C11.9701 5.90781 11.97 5.90781 11.9699 5.90781C11.9699 5.90781 11.9698 5.90781 11.9697 5.90781C11.9697 5.90781 11.9696 5.90781 11.9695 5.90781C11.9695 5.90781 11.9694 5.90781 11.9694 5.90781C11.9693 5.90781 11.9692 5.90781 11.9692 5.90781C11.9691 5.90781 11.969 5.90781 11.969 5.90781C11.9689 5.90781 11.9688 5.90781 11.9688 5.90781C11.9687 5.90781 11.9687 5.90781 11.9686 5.90781C11.9685 5.90781 11.9685 5.90781 11.9684 5.90781C11.9683 5.90781 11.9683 5.90781 11.9682 5.90781C11.9681 5.90781 11.9681 5.90781 11.968 5.90781C11.968 5.90781 11.9679 5.90781 11.9678 5.90781C11.9678 5.90781 11.9677 5.90781 11.9676 5.90781C11.9676 5.90781 11.9675 5.90781 11.9674 5.90781C11.9674 5.90781 11.9673 5.90781 11.9673 5.90781C11.9672 5.90781 11.9671 5.90781 11.9671 5.90781C11.967 5.90781 11.9669 5.90781 11.9669 5.90781C11.9668 5.90781 11.9667 5.90781 11.9667 5.90781C11.9666 5.90781 11.9666 5.90781 11.9665 5.90781C11.9664 5.90781 11.9664 5.90781 11.9663 5.90781C11.9662 5.90781 11.9662 5.90781 11.9661 5.90781C11.966 5.90781 11.966 5.90781 11.9659 5.90781C11.9659 5.90781 11.9658 5.90781 11.9657 5.90781C11.9657 5.90781 11.9656 5.90781 11.9655 5.90781C11.9655 5.90781 11.9654 5.90781 11.9653 5.90781C11.9653 5.90781 11.9652 5.90781 11.9652 5.90781C11.9651 5.90781 11.965 5.90781 11.965 5.90781C11.9649 5.90781 11.9648 5.90781 11.9648 5.90781C11.9647 5.90781 11.9646 5.90781 11.9646 5.90781C11.9645 5.90781 11.9645 5.90781 11.9644 5.90781C11.9643 5.90781 11.9643 5.90781 11.9642 5.90781C11.9641 5.90781 11.9641 5.90781 11.964 5.90781C11.9639 5.90781 11.9639 5.90781 11.9638 5.90781C11.9638 5.90781 11.9637 5.90781 11.9636 5.90781C11.9636 5.90781 11.9635 5.90781 11.9634 5.90781C11.9634 5.90781 11.9633 5.90781 11.9632 5.90781C11.9632 5.90781 11.9631 5.90781 11.9631 5.90781C11.963 5.90781 11.9629 5.90781 11.9629 5.90781C11.9628 5.90781 11.9627 5.90781 11.9627 5.90781C11.9626 5.90781 11.9625 5.90781 11.9625 5.90781C11.9624 5.90781 11.9624 5.90781 11.9623 5.90781C11.9622 5.90781 11.9622 5.90781 11.9621 5.90781C11.962 5.90781 11.962 5.90781 11.9619 5.90781C11.9619 5.90781 11.9618 5.90781 11.9617 5.90781C11.9617 5.90781 11.9616 5.90781 11.9615 5.90781C11.9615 5.90781 11.9614 5.90781 11.9613 5.90781C11.9613 5.90781 11.9612 5.90781 11.9612 5.90781C11.9611 5.90781 11.961 5.90781 11.961 5.90781C11.9609 5.90781 11.9608 5.90781 11.9608 5.90781C11.9607 5.90781 11.9606 5.90781 11.9606 5.90781C11.9605 5.90781 11.9605 5.90781 11.9604 5.90781C11.9603 5.90781 11.9603 5.90781 11.9602 5.90781C11.9601 5.90781 11.9601 5.90781 11.96 5.90781C11.9599 5.90781 11.9599 5.90781 11.9598 5.90781C11.9598 5.90781 11.9597 5.90781 11.9596 5.90781C11.9596 5.90781 11.9595 5.90781 11.9594 5.90781C11.9594 5.90781 11.9593 5.90781 11.9592 5.90781C11.9592 5.90781 11.9591 5.90781 11.9591 5.90781C11.959 5.90781 11.9589 5.90781 11.9589 5.90781C11.9588 5.90781 11.9587 5.90781 11.9587 5.90781C11.9586 5.90781 11.9585 5.90781 11.9585 5.90781C11.9584 5.90781 11.9584 5.90781 11.9583 5.90781C11.9582 5.90781 11.9582 5.90781 11.9581 5.90781C11.958 5.90781 11.958 5.90781 11.9579 5.90781C11.9578 5.90781 11.9578 5.90781 11.9577 5.90781C11.9577 5.90781 11.9576 5.90781 11.9575 5.90781C11.9575 5.90781 11.9574 5.90781 11.9573 5.90781C11.9573 5.90781 11.9572 5.90781 11.9571 5.90781C11.9571 5.90781 11.957 5.90781 11.957 5.90781C11.9569 5.90781 11.9568 5.90781 11.9568 5.90781C11.9567 5.90781 11.9566 5.90781 11.9566 5.90781C11.9565 5.90781 11.9564 5.90781 11.9564 5.90781C11.9563 5.90781 11.9563 5.90781 11.9562 5.90781C11.9561 5.90781 11.9561 5.90781 11.956 5.90781C11.9559 5.90781 11.9559 5.90781 11.9558 5.90781C11.9557 5.90781 11.9557 5.90781 11.9556 5.90781C11.9556 5.90781 11.9555 5.90781 11.9554 5.90781C11.9554 5.90781 11.9553 5.90781 11.9552 5.90781C11.9552 5.90781 11.9551 5.90781 11.955 5.90781C11.955 5.90781 11.9549 5.90781 11.9549 5.90781C11.9548 5.90781 11.9547 5.90781 11.9547 5.90781C11.9546 5.90781 11.9545 5.90781 11.9545 5.90781C11.9544 5.90781 11.9543 5.90781 11.9543 5.90781C11.9542 5.90781 11.9542 5.90781 11.9541 5.90781C11.954 5.90781 11.954 5.90781 11.9539 5.90781C11.9538 5.90781 11.9538 5.90781 11.9537 5.90781C11.9536 5.90781 11.9536 5.90781 11.9535 5.90781C11.9535 5.90781 11.9534 5.90781 11.9533 5.90781C11.9533 5.90781 11.9532 5.90781 11.9531 5.90781C11.9531 5.90781 11.953 5.90781 11.9529 5.90781C11.9529 5.90781 11.9528 5.90781 11.9528 5.90781C11.9527 5.90781 11.9526 5.90781 11.9526 5.90781C11.9525 5.90781 11.9524 5.90781 11.9524 5.90781C11.9523 5.90781 11.9523 5.90781 11.9522 5.90781C11.9521 5.90781 11.9521 5.90781 11.952 5.90781C11.9519 5.90781 11.9519 5.90781 11.9518 5.90781C11.9517 5.90781 11.9517 5.90781 11.9516 5.90781C11.9516 5.90781 11.9515 5.90781 11.9514 5.90781C11.9514 5.90781 11.9513 5.90781 11.9512 5.90781C11.9512 5.90781 11.9511 5.90781 11.951 5.90781C11.951 5.90781 11.9509 5.90781 11.9509 5.90781C11.9508 5.90781 11.9507 5.90781 11.9507 5.90781C11.9506 5.90781 11.9505 5.90781 11.9505 5.90781C11.9504 5.90781 11.9503 5.90781 11.9503 5.90781C11.9502 5.90781 11.9502 5.90781 11.9501 5.90781C11.95 5.90781 11.95 5.90781 11.9499 5.90781C11.9498 5.90781 11.9498 5.90781 11.9497 5.90781C11.9496 5.90781 11.9496 5.90781 11.9495 5.90781C11.9495 5.90781 11.9494 5.90781 11.9493 5.90781C11.9493 5.90781 11.9492 5.90781 11.9491 5.90781C11.9491 5.90781 11.949 5.90781 11.9489 5.90781C11.9489 5.90781 11.9488 5.90781 11.9488 5.90781C11.9487 5.90781 11.9486 5.90781 11.9486 5.90781C11.9485 5.90781 11.9484 5.90781 11.9484 5.90781C11.9483 5.90781 11.9482 5.90781 11.9482 5.90781C11.9481 5.90781 11.9481 5.90781 11.948 5.90781C11.9479 5.90781 11.9479 5.90781 11.9478 5.90781C11.9477 5.90781 11.9477 5.90781 11.9476 5.90781C11.9475 5.90781 11.9475 5.90781 11.9474 5.90781C11.9474 5.90781 11.9473 5.90781 11.9472 5.90781C11.9472 5.90781 11.9471 5.90781 11.947 5.90781C11.947 5.90781 11.9469 5.90781 11.9468 5.90781C11.9468 5.90781 11.9467 5.90781 11.9467 5.90781C11.9466 5.90781 11.9465 5.90781 11.9465 5.90781C11.9464 5.90781 11.9463 5.90781 11.9463 5.90781C11.9462 5.90781 11.9461 5.90781 11.9461 5.90781C11.946 5.90781 11.946 5.90781 11.9459 5.90781C11.9458 5.90781 11.9458 5.90781 11.9457 5.90781C11.9456 5.90781 11.9456 5.90781 11.9455 5.90781C11.9454 5.90781 11.9454 5.90781 11.9453 5.90781C11.9453 5.90781 11.9452 5.90781 11.9451 5.90781C11.9451 5.90781 11.945 5.90781 11.9449 5.90781C11.9449 5.90781 11.9448 5.90781 11.9447 5.90781C11.9447 5.90781 11.9446 5.90781 11.9446 5.90781C11.9445 5.90781 11.9444 5.90781 11.9444 5.90781C11.9443 5.90781 11.9442 5.90781 11.9442 5.90781C11.9441 5.90781 11.944 5.90781 11.944 5.90781C11.9439 5.90781 11.9439 5.90781 11.9438 5.90781C11.9437 5.90781 11.9437 5.90781 11.9436 5.90781C11.9435 5.90781 11.9435 5.90781 11.9434 5.90781C11.9433 5.90781 11.9433 5.90781 11.9432 5.90781C11.9432 5.90781 11.9431 5.90781 11.943 5.90781C11.943 5.90781 11.9429 5.90781 11.9428 5.90781C11.9428 5.90781 11.9427 5.90781 11.9426 5.90781C11.9426 5.90781 11.9425 5.90781 11.9425 5.90781C11.9424 5.90781 11.9423 5.90781 11.9423 5.90781C11.9422 5.90781 11.9421 5.90781 11.9421 5.90781C11.942 5.90781 11.942 5.90781 11.9419 5.90781C11.9418 5.90781 11.9418 5.90781 11.9417 5.90781C11.9416 5.90781 11.9416 5.90781 11.9415 5.90781C11.9414 5.90781 11.9414 5.90781 11.9413 5.90781C11.9413 5.90781 11.9412 5.90781 11.9411 5.90781C11.9411 5.90781 11.941 5.90781 11.9409 5.90781C11.9409 5.90781 11.9408 5.90781 11.9407 5.90781C11.9407 5.90781 11.9406 5.90781 11.9406 5.90781C11.9405 5.90781 11.9404 5.90781 11.9404 5.90781C11.9403 5.90781 11.9402 5.90781 11.9402 5.90781C11.9401 5.90781 11.94 5.90781 11.94 5.90781C11.9399 5.90781 11.9399 5.90781 11.9398 5.90781C11.9397 5.90781 11.9397 5.90781 11.9396 5.90781C11.9395 5.90781 11.9395 5.90781 11.9394 5.90781C11.9393 5.90781 11.9393 5.90781 11.9392 5.90781C11.9392 5.90781 11.9391 5.90781 11.939 5.90781C11.939 5.90781 11.9389 5.90781 11.9388 5.90781C11.9388 5.90781 11.9387 5.90781 11.9386 5.90781C11.9386 5.90781 11.9385 5.90781 11.9385 5.90781C11.9384 5.90781 11.9383 5.90781 11.9383 5.90781C11.9382 5.90781 11.9381 5.90781 11.9381 5.90781C11.938 5.90781 11.9379 5.90781 11.9379 5.90781C11.9378 5.90781 11.9378 5.90781 11.9377 5.90781C11.9376 5.90781 11.9376 5.90781 11.9375 5.90781C11.9374 5.90781 11.9374 5.90781 11.9373 5.90781C11.9372 5.90781 11.9372 5.90781 11.9371 5.90781C11.9371 5.90781 11.937 5.90781 11.9369 5.90781C11.9369 5.90781 11.9368 5.90781 11.9367 5.90781C11.9367 5.90781 11.9366 5.90781 11.9365 5.90781C11.9365 5.90781 11.9364 5.90781 11.9364 5.90781C11.9363 5.90781 11.9362 5.90781 11.9362 5.90781C11.9361 5.90781 11.936 5.90781 11.936 5.90781C11.9359 5.90781 11.9358 5.90781 11.9358 5.90781C11.9357 5.90781 11.9357 5.90781 11.9356 5.90781C11.9355 5.90781 11.9355 5.90781 11.9354 5.90781C11.9353 5.90781 11.9353 5.90781 11.9352 5.90781C11.9351 5.90781 11.9351 5.90781 11.935 5.90781C11.935 5.90781 11.9349 5.90781 11.9348 5.90781C11.9348 5.90781 11.9347 5.90781 11.9346 5.90781C11.9346 5.90781 11.9345 5.90781 11.9344 5.90781C11.9344 5.90781 11.9343 5.90781 11.9343 5.90781C11.9342 5.90781 11.9341 5.90781 11.9341 5.90781C11.934 5.90781 11.9339 5.90781 11.9339 5.90781C11.9338 5.90781 11.9337 5.90781 11.9337 5.90781C11.9336 5.90781 11.9336 5.90781 11.9335 5.90781C11.9334 5.90781 11.9334 5.90781 11.9333 5.90781C11.9332 5.90781 11.9332 5.90781 11.9331 5.90781C11.933 5.90781 11.933 5.90781 11.9329 5.90781C11.9329 5.90781 11.9328 5.90781 11.9327 5.90781C11.9327 5.90781 11.9326 5.90781 11.9325 5.90781C11.9325 5.90781 11.9324 5.90781 11.9324 5.90781C11.9323 5.90781 11.9322 5.90781 11.9322 5.90781C11.9321 5.90781 11.932 5.90781 11.932 5.90781C11.9319 5.90781 11.9318 5.90781 11.9318 5.90781C11.9317 5.90781 11.9317 5.90781 11.9316 5.90781C11.9315 5.90781 11.9315 5.90781 11.9314 5.90781C11.9313 5.90781 11.9313 5.90781 11.9312 5.90781C11.9311 5.90781 11.9311 5.90781 11.931 5.90781C11.931 5.90781 11.9309 5.90781 11.9308 5.90781C11.9308 5.90781 11.9307 5.90781 11.9306 5.90781C11.9306 5.90781 11.9305 5.90781 11.9304 5.90781C11.9304 5.90781 11.9303 5.90781 11.9303 5.90781C11.9302 5.90781 11.9301 5.90781 11.9301 5.90781C11.93 5.90781 11.9299 5.90781 11.9299 5.90781C11.9298 5.90781 11.9297 5.90781 11.9297 5.90781C11.9296 5.90781 11.9296 5.90781 11.9295 5.90781C11.9294 5.90781 11.9294 5.90781 11.9293 5.90781C11.9292 5.90781 11.9292 5.90781 11.9291 5.90781C11.929 5.90781 11.929 5.90781 11.9289 5.90781C11.9289 5.90781 11.9288 5.90781 11.9287 5.90781C11.9287 5.90781 11.9286 5.90781 11.9285 5.90781C11.9285 5.90781 11.9284 5.90781 11.9283 5.90781C11.9283 5.90781 11.9282 5.90781 11.9282 5.90781C11.9281 5.90781 11.928 5.90781 11.928 5.90781C11.9279 5.90781 11.9278 5.90781 11.9278 5.90781C11.9277 5.90781 11.9276 5.90781 11.9276 5.90781C11.9275 5.90781 11.9275 5.90781 11.9274 5.90781C11.9273 5.90781 11.9273 5.90781 11.9272 5.90781C11.9271 5.90781 11.9271 5.90781 11.927 5.90781C11.9269 5.90781 11.9269 5.90781 11.9268 5.90781C11.9268 5.90781 11.9267 5.90781 11.9266 5.90781C11.9266 5.90781 11.9265 5.90781 11.9264 5.90781C11.9264 5.90781 11.9263 5.90781 11.9262 5.90781C11.9262 5.90781 11.9261 5.90781 11.9261 5.90781C11.926 5.90781 11.9259 5.90781 11.9259 5.90781C11.9258 5.90781 11.9257 5.90781 11.9257 5.90781C11.9256 5.90781 11.9255 5.90781 11.9255 5.90781C11.9254 5.90781 11.9254 5.90781 11.9253 5.90781C11.9252 5.90781 11.9252 5.90781 11.9251 5.90781C11.925 5.90781 11.925 5.90781 11.9249 5.90781C11.9248 5.90781 11.9248 5.90781 11.9247 5.90781C11.9247 5.90781 11.9246 5.90781 11.9245 5.90781C11.9245 5.90781 11.9244 5.90781 11.9243 5.90781C11.9243 5.90781 11.9242 5.90781 11.9241 5.90781C11.9241 5.90781 11.924 5.90781 11.924 5.90781C11.9239 5.90781 11.9238 5.90781 11.9238 5.90781C11.9237 5.90781 11.9236 5.90781 11.9236 5.90781C11.9235 5.90781 11.9234 5.90781 11.9234 5.90781C11.9233 5.90781 11.9233 5.90781 11.9232 5.90781C11.9231 5.90781 11.9231 5.90781 11.923 5.90781C11.9229 5.90781 11.9229 5.90781 11.9228 5.90781C11.9227 5.90781 11.9227 5.90781 11.9226 5.90781C11.9226 5.90781 11.9225 5.90781 11.9224 5.90781C11.9224 5.90781 11.9223 5.90781 11.9222 5.90781C11.9222 5.90781 11.9221 5.90781 11.9221 5.90781C11.922 5.90781 11.9219 5.90781 11.9219 5.90781C11.9218 5.90781 11.9217 5.90781 11.9217 5.90781C11.9216 5.90781 11.9215 5.90781 11.9215 5.90781C11.9214 5.90781 11.9214 5.90781 11.9213 5.90781C11.9212 5.90781 11.9212 5.90781 11.9211 5.90781C11.921 5.90781 11.921 5.90781 11.9209 5.90781C11.9208 5.90781 11.9208 5.90781 11.9207 5.90781C11.9207 5.90781 11.9206 5.90781 11.9205 5.90781C11.9205 5.90781 11.9204 5.90781 11.9203 5.90781C11.9203 5.90781 11.9202 5.90781 11.9201 5.90781C11.9201 5.90781 11.92 5.90781 11.92 5.90781C11.9199 5.90781 11.9198 5.90781 11.9198 5.90781C11.9197 5.90781 11.9196 5.90781 11.9196 5.90781C11.9195 5.90781 11.9194 5.90781 11.9194 5.90781C11.9193 5.90781 11.9193 5.90781 11.9192 5.90781C11.9191 5.90781 11.9191 5.90781 11.919 5.90781C11.9189 5.90781 11.9189 5.90781 11.9188 5.90781C11.9187 5.90781 11.9187 5.90781 11.9186 5.90781C11.9186 5.90781 11.9185 5.90781 11.9184 5.90781C11.9184 5.90781 11.9183 5.90781 11.9182 5.90781C11.9182 5.90781 11.9181 5.90781 11.918 5.90781C11.918 5.90781 11.9179 5.90781 11.9179 5.90781C11.9178 5.90781 11.9177 5.90781 11.9177 5.90781C11.9176 5.90781 11.9175 5.90781 11.9175 5.90781C11.9174 5.90781 11.9173 5.90781 11.9173 5.90781C11.9172 5.90781 11.9172 5.90781 11.9171 5.90781C11.917 5.90781 11.917 5.90781 11.9169 5.90781C11.9168 5.90781 11.9168 5.90781 11.9167 5.90781C11.9166 5.90781 11.9166 5.90781 11.9165 5.90781C11.9165 5.90781 11.9164 5.90781 11.9163 5.90781C11.9163 5.90781 11.9162 5.90781 11.9161 5.90781C11.9161 5.90781 11.916 5.90781 11.9159 5.90781C11.9159 5.90781 11.9158 5.90781 11.9158 5.90781C11.9157 5.90781 11.9156 5.90781 11.9156 5.90781C11.9155 5.90781 11.9154 5.90781 11.9154 5.90781C11.9153 5.90781 11.9152 5.90781 11.9152 5.90781C11.9151 5.90781 11.9151 5.90781 11.915 5.90781C11.9149 5.90781 11.9149 5.90781 11.9148 5.90781C11.9147 5.90781 11.9147 5.90781 11.9146 5.90781C11.9145 5.90781 11.9145 5.90781 11.9144 5.90781C11.9144 5.90781 11.9143 5.90781 11.9142 5.90781C11.9142 5.90781 11.9141 5.90781 11.914 5.90781C11.914 5.90781 11.9139 5.90781 11.9138 5.90781C11.9138 5.90781 11.9137 5.90781 11.9137 5.90781C11.9136 5.90781 11.9135 5.90781 11.9135 5.90781C11.9134 5.90781 11.9133 5.90781 11.9133 5.90781C11.9132 5.90781 11.9131 5.90781 11.9131 5.90781C11.913 5.90781 11.913 5.90781 11.9129 5.90781C11.9128 5.90781 11.9128 5.90781 11.9127 5.90781C11.9126 5.90781 11.9126 5.90781 11.9125 5.90781C11.9125 5.90781 11.9124 5.90781 11.9123 5.90781C11.9123 5.90781 11.9122 5.90781 11.9121 5.90781C11.9121 5.90781 11.912 5.90781 11.9119 5.90781C11.9119 5.90781 11.9118 5.90781 11.9118 5.90781C11.9117 5.90781 11.9116 5.90781 11.9116 5.90781C11.9115 5.90781 11.9114 5.90781 11.9114 5.90781C11.9113 5.90781 11.9112 5.90781 11.9112 5.90781C11.9111 5.90781 11.9111 5.90781 11.911 5.90781C11.9109 5.90781 11.9109 5.90781 11.9108 5.90781C11.9107 5.90781 11.9107 5.90781 11.9106 5.90781C11.9105 5.90781 11.9105 5.90781 11.9104 5.90781C11.9104 5.90781 11.9103 5.90781 11.9102 5.90781C11.9102 5.90781 11.9101 5.90781 11.91 5.90781C11.91 5.90781 11.9099 5.90781 11.9098 5.90781C11.9098 5.90781 11.9097 5.90781 11.9097 5.90781C11.9096 5.90781 11.9095 5.90781 11.9095 5.90781C11.9094 5.90781 11.9093 5.90781 11.9093 5.90781C11.9092 5.90781 11.9091 5.90781 11.9091 5.90781C11.909 5.90781 11.909 5.90781 11.9089 5.90781C11.9088 5.90781 11.9088 5.90781 11.9087 5.90781C11.9086 5.90781 11.9086 5.90781 11.9085 5.90781C11.9084 5.90781 11.9084 5.90781 11.9083 5.90781C11.9083 5.90781 11.9082 5.90781 11.9081 5.90781C11.9081 5.90781 11.908 5.90781 11.9079 5.90781C11.9079 5.90781 11.9078 5.90781 11.9077 5.90781C11.9077 5.90781 11.9076 5.90781 11.9076 5.90781C11.9075 5.90781 11.9074 5.90781 11.9074 5.90781C11.9073 5.90781 11.9072 5.90781 11.9072 5.90781C11.9071 5.90781 11.907 5.90781 11.907 5.90781C11.9069 5.90781 11.9069 5.90781 11.9068 5.90781C11.9067 5.90781 11.9067 5.90781 11.9066 5.90781C11.9065 5.90781 11.9065 5.90781 11.9064 5.90781C11.9063 5.90781 11.9063 5.90781 11.9062 5.90781C11.9062 5.90781 11.9061 5.90781 11.906 5.90781C11.906 5.90781 11.9059 5.90781 11.9058 5.90781C11.9058 5.90781 11.9057 5.90781 11.9056 5.90781C11.9056 5.90781 11.9055 5.90781 11.9055 5.90781C11.9054 5.90781 11.9053 5.90781 11.9053 5.90781C11.9052 5.90781 11.9051 5.90781 11.9051 5.90781C11.905 5.90781 11.9049 5.90781 11.9049 5.90781C11.9048 5.90781 11.9048 5.90781 11.9047 5.90781C11.9046 5.90781 11.9046 5.90781 11.9045 5.90781C11.9044 5.90781 11.9044 5.90781 11.9043 5.90781C11.9042 5.90781 11.9042 5.90781 11.9041 5.90781C11.9041 5.90781 11.904 5.90781 11.9039 5.90781C11.9039 5.90781 11.9038 5.90781 11.9037 5.90781C11.9037 5.90781 11.9036 5.90781 11.9035 5.90781C11.9035 5.90781 11.9034 5.90781 11.9034 5.90781C11.9033 5.90781 11.9032 5.90781 11.9032 5.90781C11.9031 5.90781 11.903 5.90781 11.903 5.90781C11.9029 5.90781 11.9028 5.90781 11.9028 5.90781C11.9027 5.90781 11.9027 5.90781 11.9026 5.90781C11.9025 5.90781 11.9025 5.90781 11.9024 5.90781C11.9023 5.90781 11.9023 5.90781 11.9022 5.90781C11.9022 5.90781 11.9021 5.90781 11.902 5.90781C11.902 5.90781 11.9019 5.90781 11.9018 5.90781C11.9018 5.90781 11.9017 5.90781 11.9016 5.90781C11.9016 5.90781 11.9015 5.90781 11.9015 5.90781C11.9014 5.90781 11.9013 5.90781 11.9013 5.90781C11.9012 5.90781 11.9011 5.90781 11.9011 5.90781C11.901 5.90781 11.9009 5.90781 11.9009 5.90781C11.9008 5.90781 11.9008 5.90781 11.9007 5.90781C11.9006 5.90781 11.9006 5.90781 11.9005 5.90781C11.9004 5.90781 11.9004 5.90781 11.9003 5.90781C11.9002 5.90781 11.9002 5.90781 11.9001 5.90781C11.9001 5.90781 11.9 5.90781 11.8999 5.90781C11.8999 5.90781 11.8998 5.90781 11.8997 5.90781C11.8997 5.90781 11.8996 5.90781 11.8995 5.90781C11.8995 5.90781 11.8994 5.90781 11.8994 5.90781C11.8993 5.90781 11.8992 5.90781 11.8992 5.90781C11.8991 5.90781 11.899 5.90781 11.899 5.90781C11.8989 5.90781 11.8988 5.90781 11.8988 5.90781C11.8987 5.90781 11.8987 5.90781 11.8986 5.90781C11.8985 5.90781 11.8985 5.90781 11.8984 5.90781C11.8983 5.90781 11.8983 5.90781 11.8982 5.90781C11.8981 5.90781 11.8981 5.90781 11.898 5.90781C11.898 5.90781 11.8979 5.90781 11.8978 5.90781C11.8978 5.90781 11.8977 5.90781 11.8976 5.90781C11.8976 5.90781 11.8975 5.90781 11.8974 5.90781C11.8974 5.90781 11.8973 5.90781 11.8973 5.90781C11.8972 5.90781 11.8971 5.90781 11.8971 5.90781C11.897 5.90781 11.8969 5.90781 11.8969 5.90781C11.8968 5.90781 11.8967 5.90781 11.8967 5.90781C11.8966 5.90781 11.8966 5.90781 11.8965 5.90781C11.8964 5.90781 11.8964 5.90781 11.8963 5.90781C11.8962 5.90781 11.8962 5.90781 11.8961 5.90781C11.896 5.90781 11.896 5.90781 11.8959 5.90781C11.8959 5.90781 11.8958 5.90781 11.8957 5.90781C11.8957 5.90781 11.8956 5.90781 11.8955 5.90781C11.8955 5.90781 11.8954 5.90781 11.8953 5.90781C11.8953 5.90781 11.8952 5.90781 11.8952 5.90781C11.8951 5.90781 11.895 5.90781 11.895 5.90781C11.8949 5.90781 11.8948 5.90781 11.8948 5.90781C11.8947 5.90781 11.8946 5.90781 11.8946 5.90781C11.8945 5.90781 11.8945 5.90781 11.8944 5.90781C11.8943 5.90781 11.8943 5.90781 11.8942 5.90781C11.8941 5.90781 11.8941 5.90781 11.894 5.90781C11.8939 5.90781 11.8939 5.90781 11.8938 5.90781C11.8938 5.90781 11.8937 5.90781 11.8936 5.90781C11.8936 5.90781 11.8935 5.90781 11.8934 5.90781C11.8934 5.90781 11.8933 5.90781 11.8932 5.90781C11.8932 5.90781 11.8931 5.90781 11.8931 5.90781C11.893 5.90781 11.8929 5.90781 11.8929 5.90781C11.8928 5.90781 11.8927 5.90781 11.8927 5.90781C11.8926 5.90781 11.8926 5.90781 11.8925 5.90781C11.8924 5.90781 11.8924 5.90781 11.8923 5.90781C11.8922 5.90781 11.8922 5.90781 11.8921 5.90781C11.892 5.90781 11.892 5.90781 11.8919 5.90781C11.8919 5.90781 11.8918 5.90781 11.8917 5.90781C11.8917 5.90781 11.8916 5.90781 11.8915 5.90781C11.8915 5.90781 11.8914 5.90781 11.8913 5.90781C11.8913 5.90781 11.8912 5.90781 11.8912 5.90781C11.8911 5.90781 11.891 5.90781 11.891 5.90781C11.8909 5.90781 11.8908 5.90781 11.8908 5.90781C11.8907 5.90781 11.8906 5.90781 11.8906 5.90781C11.8905 5.90781 11.8905 5.90781 11.8904 5.90781C11.8903 5.90781 11.8903 5.90781 11.8902 5.90781C11.8901 5.90781 11.8901 5.90781 11.89 5.90781C11.8899 5.90781 11.8899 5.90781 11.8898 5.90781C11.8898 5.90781 11.8897 5.90781 11.8896 5.90781C11.8896 5.90781 11.8895 5.90781 11.8894 5.90781C11.8894 5.90781 11.8893 5.90781 11.8892 5.90781C11.8892 5.90781 11.8891 5.90781 11.8891 5.90781C11.889 5.90781 11.8889 5.90781 11.8889 5.90781C11.8888 5.90781 11.8887 5.90781 11.8887 5.90781V6.10781C11.8887 6.10781 11.8888 6.10781 11.8889 6.10781C11.8889 6.10781 11.889 6.10781 11.8891 6.10781C11.8891 6.10781 11.8892 6.10781 11.8892 6.10781C11.8893 6.10781 11.8894 6.10781 11.8894 6.10781C11.8895 6.10781 11.8896 6.10781 11.8896 6.10781C11.8897 6.10781 11.8898 6.10781 11.8898 6.10781C11.8899 6.10781 11.8899 6.10781 11.89 6.10781C11.8901 6.10781 11.8901 6.10781 11.8902 6.10781C11.8903 6.10781 11.8903 6.10781 11.8904 6.10781C11.8905 6.10781 11.8905 6.10781 11.8906 6.10781C11.8906 6.10781 11.8907 6.10781 11.8908 6.10781C11.8908 6.10781 11.8909 6.10781 11.891 6.10781C11.891 6.10781 11.8911 6.10781 11.8912 6.10781C11.8912 6.10781 11.8913 6.10781 11.8913 6.10781C11.8914 6.10781 11.8915 6.10781 11.8915 6.10781C11.8916 6.10781 11.8917 6.10781 11.8917 6.10781C11.8918 6.10781 11.8919 6.10781 11.8919 6.10781C11.892 6.10781 11.892 6.10781 11.8921 6.10781C11.8922 6.10781 11.8922 6.10781 11.8923 6.10781C11.8924 6.10781 11.8924 6.10781 11.8925 6.10781C11.8926 6.10781 11.8926 6.10781 11.8927 6.10781C11.8927 6.10781 11.8928 6.10781 11.8929 6.10781C11.8929 6.10781 11.893 6.10781 11.8931 6.10781C11.8931 6.10781 11.8932 6.10781 11.8932 6.10781C11.8933 6.10781 11.8934 6.10781 11.8934 6.10781C11.8935 6.10781 11.8936 6.10781 11.8936 6.10781C11.8937 6.10781 11.8938 6.10781 11.8938 6.10781C11.8939 6.10781 11.8939 6.10781 11.894 6.10781C11.8941 6.10781 11.8941 6.10781 11.8942 6.10781C11.8943 6.10781 11.8943 6.10781 11.8944 6.10781C11.8945 6.10781 11.8945 6.10781 11.8946 6.10781C11.8946 6.10781 11.8947 6.10781 11.8948 6.10781C11.8948 6.10781 11.8949 6.10781 11.895 6.10781C11.895 6.10781 11.8951 6.10781 11.8952 6.10781C11.8952 6.10781 11.8953 6.10781 11.8953 6.10781C11.8954 6.10781 11.8955 6.10781 11.8955 6.10781C11.8956 6.10781 11.8957 6.10781 11.8957 6.10781C11.8958 6.10781 11.8959 6.10781 11.8959 6.10781C11.896 6.10781 11.896 6.10781 11.8961 6.10781C11.8962 6.10781 11.8962 6.10781 11.8963 6.10781C11.8964 6.10781 11.8964 6.10781 11.8965 6.10781C11.8966 6.10781 11.8966 6.10781 11.8967 6.10781C11.8967 6.10781 11.8968 6.10781 11.8969 6.10781C11.8969 6.10781 11.897 6.10781 11.8971 6.10781C11.8971 6.10781 11.8972 6.10781 11.8973 6.10781C11.8973 6.10781 11.8974 6.10781 11.8974 6.10781C11.8975 6.10781 11.8976 6.10781 11.8976 6.10781C11.8977 6.10781 11.8978 6.10781 11.8978 6.10781C11.8979 6.10781 11.898 6.10781 11.898 6.10781C11.8981 6.10781 11.8981 6.10781 11.8982 6.10781C11.8983 6.10781 11.8983 6.10781 11.8984 6.10781C11.8985 6.10781 11.8985 6.10781 11.8986 6.10781C11.8987 6.10781 11.8987 6.10781 11.8988 6.10781C11.8988 6.10781 11.8989 6.10781 11.899 6.10781C11.899 6.10781 11.8991 6.10781 11.8992 6.10781C11.8992 6.10781 11.8993 6.10781 11.8994 6.10781C11.8994 6.10781 11.8995 6.10781 11.8995 6.10781C11.8996 6.10781 11.8997 6.10781 11.8997 6.10781C11.8998 6.10781 11.8999 6.10781 11.8999 6.10781C11.9 6.10781 11.9001 6.10781 11.9001 6.10781C11.9002 6.10781 11.9002 6.10781 11.9003 6.10781C11.9004 6.10781 11.9004 6.10781 11.9005 6.10781C11.9006 6.10781 11.9006 6.10781 11.9007 6.10781C11.9008 6.10781 11.9008 6.10781 11.9009 6.10781C11.9009 6.10781 11.901 6.10781 11.9011 6.10781C11.9011 6.10781 11.9012 6.10781 11.9013 6.10781C11.9013 6.10781 11.9014 6.10781 11.9015 6.10781C11.9015 6.10781 11.9016 6.10781 11.9016 6.10781C11.9017 6.10781 11.9018 6.10781 11.9018 6.10781C11.9019 6.10781 11.902 6.10781 11.902 6.10781C11.9021 6.10781 11.9022 6.10781 11.9022 6.10781C11.9023 6.10781 11.9023 6.10781 11.9024 6.10781C11.9025 6.10781 11.9025 6.10781 11.9026 6.10781C11.9027 6.10781 11.9027 6.10781 11.9028 6.10781C11.9028 6.10781 11.9029 6.10781 11.903 6.10781C11.903 6.10781 11.9031 6.10781 11.9032 6.10781C11.9032 6.10781 11.9033 6.10781 11.9034 6.10781C11.9034 6.10781 11.9035 6.10781 11.9035 6.10781C11.9036 6.10781 11.9037 6.10781 11.9037 6.10781C11.9038 6.10781 11.9039 6.10781 11.9039 6.10781C11.904 6.10781 11.9041 6.10781 11.9041 6.10781C11.9042 6.10781 11.9042 6.10781 11.9043 6.10781C11.9044 6.10781 11.9044 6.10781 11.9045 6.10781C11.9046 6.10781 11.9046 6.10781 11.9047 6.10781C11.9048 6.10781 11.9048 6.10781 11.9049 6.10781C11.9049 6.10781 11.905 6.10781 11.9051 6.10781C11.9051 6.10781 11.9052 6.10781 11.9053 6.10781C11.9053 6.10781 11.9054 6.10781 11.9055 6.10781C11.9055 6.10781 11.9056 6.10781 11.9056 6.10781C11.9057 6.10781 11.9058 6.10781 11.9058 6.10781C11.9059 6.10781 11.906 6.10781 11.906 6.10781C11.9061 6.10781 11.9062 6.10781 11.9062 6.10781C11.9063 6.10781 11.9063 6.10781 11.9064 6.10781C11.9065 6.10781 11.9065 6.10781 11.9066 6.10781C11.9067 6.10781 11.9067 6.10781 11.9068 6.10781C11.9069 6.10781 11.9069 6.10781 11.907 6.10781C11.907 6.10781 11.9071 6.10781 11.9072 6.10781C11.9072 6.10781 11.9073 6.10781 11.9074 6.10781C11.9074 6.10781 11.9075 6.10781 11.9076 6.10781C11.9076 6.10781 11.9077 6.10781 11.9077 6.10781C11.9078 6.10781 11.9079 6.10781 11.9079 6.10781C11.908 6.10781 11.9081 6.10781 11.9081 6.10781C11.9082 6.10781 11.9083 6.10781 11.9083 6.10781C11.9084 6.10781 11.9084 6.10781 11.9085 6.10781C11.9086 6.10781 11.9086 6.10781 11.9087 6.10781C11.9088 6.10781 11.9088 6.10781 11.9089 6.10781C11.909 6.10781 11.909 6.10781 11.9091 6.10781C11.9091 6.10781 11.9092 6.10781 11.9093 6.10781C11.9093 6.10781 11.9094 6.10781 11.9095 6.10781C11.9095 6.10781 11.9096 6.10781 11.9097 6.10781C11.9097 6.10781 11.9098 6.10781 11.9098 6.10781C11.9099 6.10781 11.91 6.10781 11.91 6.10781C11.9101 6.10781 11.9102 6.10781 11.9102 6.10781C11.9103 6.10781 11.9104 6.10781 11.9104 6.10781C11.9105 6.10781 11.9105 6.10781 11.9106 6.10781C11.9107 6.10781 11.9107 6.10781 11.9108 6.10781C11.9109 6.10781 11.9109 6.10781 11.911 6.10781C11.9111 6.10781 11.9111 6.10781 11.9112 6.10781C11.9112 6.10781 11.9113 6.10781 11.9114 6.10781C11.9114 6.10781 11.9115 6.10781 11.9116 6.10781C11.9116 6.10781 11.9117 6.10781 11.9118 6.10781C11.9118 6.10781 11.9119 6.10781 11.9119 6.10781C11.912 6.10781 11.9121 6.10781 11.9121 6.10781C11.9122 6.10781 11.9123 6.10781 11.9123 6.10781C11.9124 6.10781 11.9125 6.10781 11.9125 6.10781C11.9126 6.10781 11.9126 6.10781 11.9127 6.10781C11.9128 6.10781 11.9128 6.10781 11.9129 6.10781C11.913 6.10781 11.913 6.10781 11.9131 6.10781C11.9131 6.10781 11.9132 6.10781 11.9133 6.10781C11.9133 6.10781 11.9134 6.10781 11.9135 6.10781C11.9135 6.10781 11.9136 6.10781 11.9137 6.10781C11.9137 6.10781 11.9138 6.10781 11.9138 6.10781C11.9139 6.10781 11.914 6.10781 11.914 6.10781C11.9141 6.10781 11.9142 6.10781 11.9142 6.10781C11.9143 6.10781 11.9144 6.10781 11.9144 6.10781C11.9145 6.10781 11.9145 6.10781 11.9146 6.10781C11.9147 6.10781 11.9147 6.10781 11.9148 6.10781C11.9149 6.10781 11.9149 6.10781 11.915 6.10781C11.9151 6.10781 11.9151 6.10781 11.9152 6.10781C11.9152 6.10781 11.9153 6.10781 11.9154 6.10781C11.9154 6.10781 11.9155 6.10781 11.9156 6.10781C11.9156 6.10781 11.9157 6.10781 11.9158 6.10781C11.9158 6.10781 11.9159 6.10781 11.9159 6.10781C11.916 6.10781 11.9161 6.10781 11.9161 6.10781C11.9162 6.10781 11.9163 6.10781 11.9163 6.10781C11.9164 6.10781 11.9165 6.10781 11.9165 6.10781C11.9166 6.10781 11.9166 6.10781 11.9167 6.10781C11.9168 6.10781 11.9168 6.10781 11.9169 6.10781C11.917 6.10781 11.917 6.10781 11.9171 6.10781C11.9172 6.10781 11.9172 6.10781 11.9173 6.10781C11.9173 6.10781 11.9174 6.10781 11.9175 6.10781C11.9175 6.10781 11.9176 6.10781 11.9177 6.10781C11.9177 6.10781 11.9178 6.10781 11.9179 6.10781C11.9179 6.10781 11.918 6.10781 11.918 6.10781C11.9181 6.10781 11.9182 6.10781 11.9182 6.10781C11.9183 6.10781 11.9184 6.10781 11.9184 6.10781C11.9185 6.10781 11.9186 6.10781 11.9186 6.10781C11.9187 6.10781 11.9187 6.10781 11.9188 6.10781C11.9189 6.10781 11.9189 6.10781 11.919 6.10781C11.9191 6.10781 11.9191 6.10781 11.9192 6.10781C11.9193 6.10781 11.9193 6.10781 11.9194 6.10781C11.9194 6.10781 11.9195 6.10781 11.9196 6.10781C11.9196 6.10781 11.9197 6.10781 11.9198 6.10781C11.9198 6.10781 11.9199 6.10781 11.92 6.10781C11.92 6.10781 11.9201 6.10781 11.9201 6.10781C11.9202 6.10781 11.9203 6.10781 11.9203 6.10781C11.9204 6.10781 11.9205 6.10781 11.9205 6.10781C11.9206 6.10781 11.9207 6.10781 11.9207 6.10781C11.9208 6.10781 11.9208 6.10781 11.9209 6.10781C11.921 6.10781 11.921 6.10781 11.9211 6.10781C11.9212 6.10781 11.9212 6.10781 11.9213 6.10781C11.9214 6.10781 11.9214 6.10781 11.9215 6.10781C11.9215 6.10781 11.9216 6.10781 11.9217 6.10781C11.9217 6.10781 11.9218 6.10781 11.9219 6.10781C11.9219 6.10781 11.922 6.10781 11.9221 6.10781C11.9221 6.10781 11.9222 6.10781 11.9222 6.10781C11.9223 6.10781 11.9224 6.10781 11.9224 6.10781C11.9225 6.10781 11.9226 6.10781 11.9226 6.10781C11.9227 6.10781 11.9227 6.10781 11.9228 6.10781C11.9229 6.10781 11.9229 6.10781 11.923 6.10781C11.9231 6.10781 11.9231 6.10781 11.9232 6.10781C11.9233 6.10781 11.9233 6.10781 11.9234 6.10781C11.9234 6.10781 11.9235 6.10781 11.9236 6.10781C11.9236 6.10781 11.9237 6.10781 11.9238 6.10781C11.9238 6.10781 11.9239 6.10781 11.924 6.10781C11.924 6.10781 11.9241 6.10781 11.9241 6.10781C11.9242 6.10781 11.9243 6.10781 11.9243 6.10781C11.9244 6.10781 11.9245 6.10781 11.9245 6.10781C11.9246 6.10781 11.9247 6.10781 11.9247 6.10781C11.9248 6.10781 11.9248 6.10781 11.9249 6.10781C11.925 6.10781 11.925 6.10781 11.9251 6.10781C11.9252 6.10781 11.9252 6.10781 11.9253 6.10781C11.9254 6.10781 11.9254 6.10781 11.9255 6.10781C11.9255 6.10781 11.9256 6.10781 11.9257 6.10781C11.9257 6.10781 11.9258 6.10781 11.9259 6.10781C11.9259 6.10781 11.926 6.10781 11.9261 6.10781C11.9261 6.10781 11.9262 6.10781 11.9262 6.10781C11.9263 6.10781 11.9264 6.10781 11.9264 6.10781C11.9265 6.10781 11.9266 6.10781 11.9266 6.10781C11.9267 6.10781 11.9268 6.10781 11.9268 6.10781C11.9269 6.10781 11.9269 6.10781 11.927 6.10781C11.9271 6.10781 11.9271 6.10781 11.9272 6.10781C11.9273 6.10781 11.9273 6.10781 11.9274 6.10781C11.9275 6.10781 11.9275 6.10781 11.9276 6.10781C11.9276 6.10781 11.9277 6.10781 11.9278 6.10781C11.9278 6.10781 11.9279 6.10781 11.928 6.10781C11.928 6.10781 11.9281 6.10781 11.9282 6.10781C11.9282 6.10781 11.9283 6.10781 11.9283 6.10781C11.9284 6.10781 11.9285 6.10781 11.9285 6.10781C11.9286 6.10781 11.9287 6.10781 11.9287 6.10781C11.9288 6.10781 11.9289 6.10781 11.9289 6.10781C11.929 6.10781 11.929 6.10781 11.9291 6.10781C11.9292 6.10781 11.9292 6.10781 11.9293 6.10781C11.9294 6.10781 11.9294 6.10781 11.9295 6.10781C11.9296 6.10781 11.9296 6.10781 11.9297 6.10781C11.9297 6.10781 11.9298 6.10781 11.9299 6.10781C11.9299 6.10781 11.93 6.10781 11.9301 6.10781C11.9301 6.10781 11.9302 6.10781 11.9303 6.10781C11.9303 6.10781 11.9304 6.10781 11.9304 6.10781C11.9305 6.10781 11.9306 6.10781 11.9306 6.10781C11.9307 6.10781 11.9308 6.10781 11.9308 6.10781C11.9309 6.10781 11.931 6.10781 11.931 6.10781C11.9311 6.10781 11.9311 6.10781 11.9312 6.10781C11.9313 6.10781 11.9313 6.10781 11.9314 6.10781C11.9315 6.10781 11.9315 6.10781 11.9316 6.10781C11.9317 6.10781 11.9317 6.10781 11.9318 6.10781C11.9318 6.10781 11.9319 6.10781 11.932 6.10781C11.932 6.10781 11.9321 6.10781 11.9322 6.10781C11.9322 6.10781 11.9323 6.10781 11.9324 6.10781C11.9324 6.10781 11.9325 6.10781 11.9325 6.10781C11.9326 6.10781 11.9327 6.10781 11.9327 6.10781C11.9328 6.10781 11.9329 6.10781 11.9329 6.10781C11.933 6.10781 11.933 6.10781 11.9331 6.10781C11.9332 6.10781 11.9332 6.10781 11.9333 6.10781C11.9334 6.10781 11.9334 6.10781 11.9335 6.10781C11.9336 6.10781 11.9336 6.10781 11.9337 6.10781C11.9337 6.10781 11.9338 6.10781 11.9339 6.10781C11.9339 6.10781 11.934 6.10781 11.9341 6.10781C11.9341 6.10781 11.9342 6.10781 11.9343 6.10781C11.9343 6.10781 11.9344 6.10781 11.9344 6.10781C11.9345 6.10781 11.9346 6.10781 11.9346 6.10781C11.9347 6.10781 11.9348 6.10781 11.9348 6.10781C11.9349 6.10781 11.935 6.10781 11.935 6.10781C11.9351 6.10781 11.9351 6.10781 11.9352 6.10781C11.9353 6.10781 11.9353 6.10781 11.9354 6.10781C11.9355 6.10781 11.9355 6.10781 11.9356 6.10781C11.9357 6.10781 11.9357 6.10781 11.9358 6.10781C11.9358 6.10781 11.9359 6.10781 11.936 6.10781C11.936 6.10781 11.9361 6.10781 11.9362 6.10781C11.9362 6.10781 11.9363 6.10781 11.9364 6.10781C11.9364 6.10781 11.9365 6.10781 11.9365 6.10781C11.9366 6.10781 11.9367 6.10781 11.9367 6.10781C11.9368 6.10781 11.9369 6.10781 11.9369 6.10781C11.937 6.10781 11.9371 6.10781 11.9371 6.10781C11.9372 6.10781 11.9372 6.10781 11.9373 6.10781C11.9374 6.10781 11.9374 6.10781 11.9375 6.10781C11.9376 6.10781 11.9376 6.10781 11.9377 6.10781C11.9378 6.10781 11.9378 6.10781 11.9379 6.10781C11.9379 6.10781 11.938 6.10781 11.9381 6.10781C11.9381 6.10781 11.9382 6.10781 11.9383 6.10781C11.9383 6.10781 11.9384 6.10781 11.9385 6.10781C11.9385 6.10781 11.9386 6.10781 11.9386 6.10781C11.9387 6.10781 11.9388 6.10781 11.9388 6.10781C11.9389 6.10781 11.939 6.10781 11.939 6.10781C11.9391 6.10781 11.9392 6.10781 11.9392 6.10781C11.9393 6.10781 11.9393 6.10781 11.9394 6.10781C11.9395 6.10781 11.9395 6.10781 11.9396 6.10781C11.9397 6.10781 11.9397 6.10781 11.9398 6.10781C11.9399 6.10781 11.9399 6.10781 11.94 6.10781C11.94 6.10781 11.9401 6.10781 11.9402 6.10781C11.9402 6.10781 11.9403 6.10781 11.9404 6.10781C11.9404 6.10781 11.9405 6.10781 11.9406 6.10781C11.9406 6.10781 11.9407 6.10781 11.9407 6.10781C11.9408 6.10781 11.9409 6.10781 11.9409 6.10781C11.941 6.10781 11.9411 6.10781 11.9411 6.10781C11.9412 6.10781 11.9413 6.10781 11.9413 6.10781C11.9414 6.10781 11.9414 6.10781 11.9415 6.10781C11.9416 6.10781 11.9416 6.10781 11.9417 6.10781C11.9418 6.10781 11.9418 6.10781 11.9419 6.10781C11.942 6.10781 11.942 6.10781 11.9421 6.10781C11.9421 6.10781 11.9422 6.10781 11.9423 6.10781C11.9423 6.10781 11.9424 6.10781 11.9425 6.10781C11.9425 6.10781 11.9426 6.10781 11.9426 6.10781C11.9427 6.10781 11.9428 6.10781 11.9428 6.10781C11.9429 6.10781 11.943 6.10781 11.943 6.10781C11.9431 6.10781 11.9432 6.10781 11.9432 6.10781C11.9433 6.10781 11.9433 6.10781 11.9434 6.10781C11.9435 6.10781 11.9435 6.10781 11.9436 6.10781C11.9437 6.10781 11.9437 6.10781 11.9438 6.10781C11.9439 6.10781 11.9439 6.10781 11.944 6.10781C11.944 6.10781 11.9441 6.10781 11.9442 6.10781C11.9442 6.10781 11.9443 6.10781 11.9444 6.10781C11.9444 6.10781 11.9445 6.10781 11.9446 6.10781C11.9446 6.10781 11.9447 6.10781 11.9447 6.10781C11.9448 6.10781 11.9449 6.10781 11.9449 6.10781C11.945 6.10781 11.9451 6.10781 11.9451 6.10781C11.9452 6.10781 11.9453 6.10781 11.9453 6.10781C11.9454 6.10781 11.9454 6.10781 11.9455 6.10781C11.9456 6.10781 11.9456 6.10781 11.9457 6.10781C11.9458 6.10781 11.9458 6.10781 11.9459 6.10781C11.946 6.10781 11.946 6.10781 11.9461 6.10781C11.9461 6.10781 11.9462 6.10781 11.9463 6.10781C11.9463 6.10781 11.9464 6.10781 11.9465 6.10781C11.9465 6.10781 11.9466 6.10781 11.9467 6.10781C11.9467 6.10781 11.9468 6.10781 11.9468 6.10781C11.9469 6.10781 11.947 6.10781 11.947 6.10781C11.9471 6.10781 11.9472 6.10781 11.9472 6.10781C11.9473 6.10781 11.9474 6.10781 11.9474 6.10781C11.9475 6.10781 11.9475 6.10781 11.9476 6.10781C11.9477 6.10781 11.9477 6.10781 11.9478 6.10781C11.9479 6.10781 11.9479 6.10781 11.948 6.10781C11.9481 6.10781 11.9481 6.10781 11.9482 6.10781C11.9482 6.10781 11.9483 6.10781 11.9484 6.10781C11.9484 6.10781 11.9485 6.10781 11.9486 6.10781C11.9486 6.10781 11.9487 6.10781 11.9488 6.10781C11.9488 6.10781 11.9489 6.10781 11.9489 6.10781C11.949 6.10781 11.9491 6.10781 11.9491 6.10781C11.9492 6.10781 11.9493 6.10781 11.9493 6.10781C11.9494 6.10781 11.9495 6.10781 11.9495 6.10781C11.9496 6.10781 11.9496 6.10781 11.9497 6.10781C11.9498 6.10781 11.9498 6.10781 11.9499 6.10781C11.95 6.10781 11.95 6.10781 11.9501 6.10781C11.9502 6.10781 11.9502 6.10781 11.9503 6.10781C11.9503 6.10781 11.9504 6.10781 11.9505 6.10781C11.9505 6.10781 11.9506 6.10781 11.9507 6.10781C11.9507 6.10781 11.9508 6.10781 11.9509 6.10781C11.9509 6.10781 11.951 6.10781 11.951 6.10781C11.9511 6.10781 11.9512 6.10781 11.9512 6.10781C11.9513 6.10781 11.9514 6.10781 11.9514 6.10781C11.9515 6.10781 11.9516 6.10781 11.9516 6.10781C11.9517 6.10781 11.9517 6.10781 11.9518 6.10781C11.9519 6.10781 11.9519 6.10781 11.952 6.10781C11.9521 6.10781 11.9521 6.10781 11.9522 6.10781C11.9523 6.10781 11.9523 6.10781 11.9524 6.10781C11.9524 6.10781 11.9525 6.10781 11.9526 6.10781C11.9526 6.10781 11.9527 6.10781 11.9528 6.10781C11.9528 6.10781 11.9529 6.10781 11.9529 6.10781C11.953 6.10781 11.9531 6.10781 11.9531 6.10781C11.9532 6.10781 11.9533 6.10781 11.9533 6.10781C11.9534 6.10781 11.9535 6.10781 11.9535 6.10781C11.9536 6.10781 11.9536 6.10781 11.9537 6.10781C11.9538 6.10781 11.9538 6.10781 11.9539 6.10781C11.954 6.10781 11.954 6.10781 11.9541 6.10781C11.9542 6.10781 11.9542 6.10781 11.9543 6.10781C11.9543 6.10781 11.9544 6.10781 11.9545 6.10781C11.9545 6.10781 11.9546 6.10781 11.9547 6.10781C11.9547 6.10781 11.9548 6.10781 11.9549 6.10781C11.9549 6.10781 11.955 6.10781 11.955 6.10781C11.9551 6.10781 11.9552 6.10781 11.9552 6.10781C11.9553 6.10781 11.9554 6.10781 11.9554 6.10781C11.9555 6.10781 11.9556 6.10781 11.9556 6.10781C11.9557 6.10781 11.9557 6.10781 11.9558 6.10781C11.9559 6.10781 11.9559 6.10781 11.956 6.10781C11.9561 6.10781 11.9561 6.10781 11.9562 6.10781C11.9563 6.10781 11.9563 6.10781 11.9564 6.10781C11.9564 6.10781 11.9565 6.10781 11.9566 6.10781C11.9566 6.10781 11.9567 6.10781 11.9568 6.10781C11.9568 6.10781 11.9569 6.10781 11.957 6.10781C11.957 6.10781 11.9571 6.10781 11.9571 6.10781C11.9572 6.10781 11.9573 6.10781 11.9573 6.10781C11.9574 6.10781 11.9575 6.10781 11.9575 6.10781C11.9576 6.10781 11.9577 6.10781 11.9577 6.10781C11.9578 6.10781 11.9578 6.10781 11.9579 6.10781C11.958 6.10781 11.958 6.10781 11.9581 6.10781C11.9582 6.10781 11.9582 6.10781 11.9583 6.10781C11.9584 6.10781 11.9584 6.10781 11.9585 6.10781C11.9585 6.10781 11.9586 6.10781 11.9587 6.10781C11.9587 6.10781 11.9588 6.10781 11.9589 6.10781C11.9589 6.10781 11.959 6.10781 11.9591 6.10781C11.9591 6.10781 11.9592 6.10781 11.9592 6.10781C11.9593 6.10781 11.9594 6.10781 11.9594 6.10781C11.9595 6.10781 11.9596 6.10781 11.9596 6.10781C11.9597 6.10781 11.9598 6.10781 11.9598 6.10781C11.9599 6.10781 11.9599 6.10781 11.96 6.10781C11.9601 6.10781 11.9601 6.10781 11.9602 6.10781C11.9603 6.10781 11.9603 6.10781 11.9604 6.10781C11.9605 6.10781 11.9605 6.10781 11.9606 6.10781C11.9606 6.10781 11.9607 6.10781 11.9608 6.10781C11.9608 6.10781 11.9609 6.10781 11.961 6.10781C11.961 6.10781 11.9611 6.10781 11.9612 6.10781C11.9612 6.10781 11.9613 6.10781 11.9613 6.10781C11.9614 6.10781 11.9615 6.10781 11.9615 6.10781C11.9616 6.10781 11.9617 6.10781 11.9617 6.10781C11.9618 6.10781 11.9619 6.10781 11.9619 6.10781C11.962 6.10781 11.962 6.10781 11.9621 6.10781C11.9622 6.10781 11.9622 6.10781 11.9623 6.10781C11.9624 6.10781 11.9624 6.10781 11.9625 6.10781C11.9625 6.10781 11.9626 6.10781 11.9627 6.10781C11.9627 6.10781 11.9628 6.10781 11.9629 6.10781C11.9629 6.10781 11.963 6.10781 11.9631 6.10781C11.9631 6.10781 11.9632 6.10781 11.9632 6.10781C11.9633 6.10781 11.9634 6.10781 11.9634 6.10781C11.9635 6.10781 11.9636 6.10781 11.9636 6.10781C11.9637 6.10781 11.9638 6.10781 11.9638 6.10781C11.9639 6.10781 11.9639 6.10781 11.964 6.10781C11.9641 6.10781 11.9641 6.10781 11.9642 6.10781C11.9643 6.10781 11.9643 6.10781 11.9644 6.10781C11.9645 6.10781 11.9645 6.10781 11.9646 6.10781C11.9646 6.10781 11.9647 6.10781 11.9648 6.10781C11.9648 6.10781 11.9649 6.10781 11.965 6.10781C11.965 6.10781 11.9651 6.10781 11.9652 6.10781C11.9652 6.10781 11.9653 6.10781 11.9653 6.10781C11.9654 6.10781 11.9655 6.10781 11.9655 6.10781C11.9656 6.10781 11.9657 6.10781 11.9657 6.10781C11.9658 6.10781 11.9659 6.10781 11.9659 6.10781C11.966 6.10781 11.966 6.10781 11.9661 6.10781C11.9662 6.10781 11.9662 6.10781 11.9663 6.10781C11.9664 6.10781 11.9664 6.10781 11.9665 6.10781C11.9666 6.10781 11.9666 6.10781 11.9667 6.10781C11.9667 6.10781 11.9668 6.10781 11.9669 6.10781C11.9669 6.10781 11.967 6.10781 11.9671 6.10781C11.9671 6.10781 11.9672 6.10781 11.9673 6.10781C11.9673 6.10781 11.9674 6.10781 11.9674 6.10781C11.9675 6.10781 11.9676 6.10781 11.9676 6.10781C11.9677 6.10781 11.9678 6.10781 11.9678 6.10781C11.9679 6.10781 11.968 6.10781 11.968 6.10781C11.9681 6.10781 11.9681 6.10781 11.9682 6.10781C11.9683 6.10781 11.9683 6.10781 11.9684 6.10781C11.9685 6.10781 11.9685 6.10781 11.9686 6.10781C11.9687 6.10781 11.9687 6.10781 11.9688 6.10781C11.9688 6.10781 11.9689 6.10781 11.969 6.10781C11.969 6.10781 11.9691 6.10781 11.9692 6.10781C11.9692 6.10781 11.9693 6.10781 11.9694 6.10781C11.9694 6.10781 11.9695 6.10781 11.9695 6.10781C11.9696 6.10781 11.9697 6.10781 11.9697 6.10781C11.9698 6.10781 11.9699 6.10781 11.9699 6.10781C11.97 6.10781 11.9701 6.10781 11.9701 6.10781C11.9702 6.10781 11.9702 6.10781 11.9703 6.10781C11.9704 6.10781 11.9704 6.10781 11.9705 6.10781C11.9706 6.10781 11.9706 6.10781 11.9707 6.10781C11.9708 6.10781 11.9708 6.10781 11.9709 6.10781C11.9709 6.10781 11.971 6.10781 11.9711 6.10781C11.9711 6.10781 11.9712 6.10781 11.9713 6.10781C11.9713 6.10781 11.9714 6.10781 11.9715 6.10781C11.9715 6.10781 11.9716 6.10781 11.9716 6.10781C11.9717 6.10781 11.9718 6.10781 11.9718 6.10781C11.9719 6.10781 11.972 6.10781 11.972 6.10781C11.9721 6.10781 11.9722 6.10781 11.9722 6.10781C11.9723 6.10781 11.9723 6.10781 11.9724 6.10781C11.9725 6.10781 11.9725 6.10781 11.9726 6.10781C11.9727 6.10781 11.9727 6.10781 11.9728 6.10781C11.9728 6.10781 11.9729 6.10781 11.973 6.10781C11.973 6.10781 11.9731 6.10781 11.9732 6.10781C11.9732 6.10781 11.9733 6.10781 11.9734 6.10781C11.9734 6.10781 11.9735 6.10781 11.9735 6.10781C11.9736 6.10781 11.9737 6.10781 11.9737 6.10781C11.9738 6.10781 11.9739 6.10781 11.9739 6.10781C11.974 6.10781 11.9741 6.10781 11.9741 6.10781C11.9742 6.10781 11.9742 6.10781 11.9743 6.10781C11.9744 6.10781 11.9744 6.10781 11.9745 6.10781C11.9746 6.10781 11.9746 6.10781 11.9747 6.10781C11.9748 6.10781 11.9748 6.10781 11.9749 6.10781C11.9749 6.10781 11.975 6.10781 11.9751 6.10781C11.9751 6.10781 11.9752 6.10781 11.9753 6.10781C11.9753 6.10781 11.9754 6.10781 11.9755 6.10781C11.9755 6.10781 11.9756 6.10781 11.9756 6.10781C11.9757 6.10781 11.9758 6.10781 11.9758 6.10781C11.9759 6.10781 11.976 6.10781 11.976 6.10781C11.9761 6.10781 11.9762 6.10781 11.9762 6.10781C11.9763 6.10781 11.9763 6.10781 11.9764 6.10781C11.9765 6.10781 11.9765 6.10781 11.9766 6.10781C11.9767 6.10781 11.9767 6.10781 11.9768 6.10781C11.9769 6.10781 11.9769 6.10781 11.977 6.10781C11.977 6.10781 11.9771 6.10781 11.9772 6.10781C11.9772 6.10781 11.9773 6.10781 11.9774 6.10781C11.9774 6.10781 11.9775 6.10781 11.9776 6.10781C11.9776 6.10781 11.9777 6.10781 11.9777 6.10781C11.9778 6.10781 11.9779 6.10781 11.9779 6.10781C11.978 6.10781 11.9781 6.10781 11.9781 6.10781C11.9782 6.10781 11.9783 6.10781 11.9783 6.10781C11.9784 6.10781 11.9784 6.10781 11.9785 6.10781C11.9786 6.10781 11.9786 6.10781 11.9787 6.10781C11.9788 6.10781 11.9788 6.10781 11.9789 6.10781C11.979 6.10781 11.979 6.10781 11.9791 6.10781C11.9791 6.10781 11.9792 6.10781 11.9793 6.10781C11.9793 6.10781 11.9794 6.10781 11.9795 6.10781C11.9795 6.10781 11.9796 6.10781 11.9797 6.10781C11.9797 6.10781 11.9798 6.10781 11.9798 6.10781C11.9799 6.10781 11.98 6.10781 11.98 6.10781C11.9801 6.10781 11.9802 6.10781 11.9802 6.10781C11.9803 6.10781 11.9804 6.10781 11.9804 6.10781C11.9805 6.10781 11.9805 6.10781 11.9806 6.10781C11.9807 6.10781 11.9807 6.10781 11.9808 6.10781C11.9809 6.10781 11.9809 6.10781 11.981 6.10781C11.9811 6.10781 11.9811 6.10781 11.9812 6.10781C11.9812 6.10781 11.9813 6.10781 11.9814 6.10781C11.9814 6.10781 11.9815 6.10781 11.9816 6.10781C11.9816 6.10781 11.9817 6.10781 11.9818 6.10781C11.9818 6.10781 11.9819 6.10781 11.9819 6.10781C11.982 6.10781 11.9821 6.10781 11.9821 6.10781C11.9822 6.10781 11.9823 6.10781 11.9823 6.10781C11.9824 6.10781 11.9824 6.10781 11.9825 6.10781C11.9826 6.10781 11.9826 6.10781 11.9827 6.10781C11.9828 6.10781 11.9828 6.10781 11.9829 6.10781C11.983 6.10781 11.983 6.10781 11.9831 6.10781C11.9831 6.10781 11.9832 6.10781 11.9833 6.10781C11.9833 6.10781 11.9834 6.10781 11.9835 6.10781C11.9835 6.10781 11.9836 6.10781 11.9837 6.10781C11.9837 6.10781 11.9838 6.10781 11.9838 6.10781C11.9839 6.10781 11.984 6.10781 11.984 6.10781C11.9841 6.10781 11.9842 6.10781 11.9842 6.10781C11.9843 6.10781 11.9844 6.10781 11.9844 6.10781C11.9845 6.10781 11.9845 6.10781 11.9846 6.10781C11.9847 6.10781 11.9847 6.10781 11.9848 6.10781C11.9849 6.10781 11.9849 6.10781 11.985 6.10781C11.9851 6.10781 11.9851 6.10781 11.9852 6.10781C11.9852 6.10781 11.9853 6.10781 11.9854 6.10781C11.9854 6.10781 11.9855 6.10781 11.9856 6.10781C11.9856 6.10781 11.9857 6.10781 11.9858 6.10781C11.9858 6.10781 11.9859 6.10781 11.9859 6.10781C11.986 6.10781 11.9861 6.10781 11.9861 6.10781C11.9862 6.10781 11.9863 6.10781 11.9863 6.10781V5.90781ZM11.8887 5.90781C11.7719 5.90781 11.6717 5.86383 11.5835 5.76887C11.4926 5.67094 11.4129 5.5167 11.3501 5.29675L11.1578 5.35169C11.2251 5.58746 11.3163 5.77502 11.437 5.90496C11.5604 6.03786 11.7125 6.10781 11.8887 6.10781V5.90781ZM11.3509 5.29997C11.2387 4.85096 11.2003 4.47254 11.2313 4.16229L11.0323 4.14239C10.9983 4.48319 11.0413 4.88602 11.1569 5.34847L11.3509 5.29997ZM11.2317 4.15678C11.2633 3.44765 11.5229 2.78389 12.0158 2.16379L11.8592 2.03934C11.343 2.68877 11.0655 3.3922 11.0319 4.1479L11.2317 4.15678ZM12.0148 2.16494C12.9566 1.01565 14.183 0.40994 15.7015 0.346005L15.6931 0.146182C14.1191 0.212456 12.8389 0.843729 11.8602 2.03818L12.0148 2.16494ZM15.7052 0.345775C16.1012 0.314099 16.5227 0.345627 16.9703 0.44153L17.0122 0.24597C16.5483 0.146561 16.1071 0.112985 15.6893 0.146412L15.7052 0.345775ZM16.9681 0.441048C17.4349 0.551802 17.7905 0.739649 18.0425 0.999335C18.2939 1.2583 18.4487 1.59538 18.5034 2.01676L18.7017 1.99105C18.6424 1.53353 18.4718 1.15446 18.186 0.86004C17.901 0.56634 17.5078 0.363563 17.0143 0.246452L16.9681 0.441048ZM18.5029 2.01288C18.6612 3.76995 17.7237 5.37538 15.64 6.82912L15.7545 6.99315C17.87 5.5172 18.8694 3.85114 18.7021 1.99493L18.5029 2.01288ZM15.6359 6.8322C15.3474 7.05659 14.9117 7.34725 14.3268 7.70471L14.4311 7.87537C15.018 7.51668 15.4612 7.22141 15.7587 6.99007L15.6359 6.8322ZM14.3285 7.70366C13.7446 8.04429 13.3806 8.26729 13.2447 8.36922L13.3647 8.52922C13.4892 8.43584 13.8413 8.21939 14.4293 7.87642L14.3285 7.70366ZM13.2481 8.36677C12.4158 8.93795 11.608 9.54178 10.8246 10.1782L10.9508 10.3335C11.7299 9.70041 12.5334 9.09981 13.3613 8.53167L13.2481 8.36677ZM10.8212 10.1812C10.3719 10.5815 10.0279 10.9251 9.79131 11.2115C9.67301 11.3547 9.58006 11.4854 9.51412 11.6032C9.44868 11.7201 9.40664 11.83 9.39659 11.9305L9.5956 11.9504C9.60182 11.8881 9.62997 11.8057 9.68864 11.7009C9.7468 11.597 9.83187 11.4764 9.9455 11.3388C10.1728 11.0637 10.5083 10.7278 10.9542 10.3305L10.8212 10.1812ZM9.39609 11.9404C9.39609 11.9742 9.40482 12.0082 9.4251 12.0386C9.44495 12.0684 9.47206 12.089 9.5002 12.1031C9.55365 12.1298 9.62119 12.1381 9.69141 12.1381V11.9381C9.63141 11.9381 9.6013 11.9301 9.58964 11.9242C9.58523 11.922 9.58793 11.9223 9.59151 11.9277C9.5955 11.9337 9.59609 11.9392 9.59609 11.9404H9.39609ZM9.66671 12.135L10.9118 12.4524L10.9612 12.2586L9.71611 11.9412L9.66671 12.135ZM10.9115 12.4523C11.4205 12.5836 11.9778 12.6901 12.5833 12.772L12.6101 12.5738C12.0111 12.4928 11.4617 12.3877 10.9615 12.2586L10.9115 12.4523ZM12.5833 12.772C13.1892 12.8538 13.6936 12.8791 14.0942 12.8457L14.0776 12.6464C13.697 12.6782 13.2086 12.6546 12.6101 12.5738L12.5833 12.772ZM14.0939 12.8458C14.2994 12.8293 14.4613 12.8042 14.5742 12.7681C14.6302 12.7502 14.6815 12.7273 14.7206 12.696C14.7613 12.6635 14.7963 12.615 14.7963 12.5508H14.5963C14.5963 12.5354 14.6059 12.5317 14.5957 12.5398C14.5839 12.5492 14.5589 12.563 14.5132 12.5776C14.4227 12.6066 14.2794 12.6303 14.078 12.6464L14.0939 12.8458ZM14.7963 12.5508C14.7963 12.4908 14.8043 12.4607 14.8101 12.449C14.8124 12.4446 14.8121 12.4473 14.8067 12.4509C14.8007 12.4549 14.7952 12.4555 14.7939 12.4555C14.7939 12.4555 14.7994 12.4556 14.8117 12.4605C14.8239 12.4654 14.8401 12.4739 14.8605 12.4875C14.9017 12.515 14.9534 12.5587 15.0162 12.6215L15.1576 12.4801C15.0902 12.4126 15.028 12.3587 14.9715 12.3211C14.9177 12.2852 14.8566 12.2555 14.7939 12.2555C14.7602 12.2555 14.7262 12.2642 14.6958 12.2845C14.666 12.3043 14.6453 12.3314 14.6313 12.3596C14.6045 12.413 14.5963 12.4806 14.5963 12.5508H14.7963ZM14.9975 12.5955C15.0248 12.6502 15.0283 12.685 15.0249 12.7052C15.0221 12.7218 15.0131 12.7402 14.9826 12.7605L15.0936 12.927C15.1608 12.8822 15.2087 12.8193 15.2222 12.7381C15.2351 12.6607 15.2141 12.5816 15.1764 12.5061L14.9975 12.5955Z" fill="#B39D96"/>
</g>
<defs>
<clipPath id="clip0_209_290">
<rect width="23" height="13" fill="white"/>
</clipPath>
</defs>
</svg>
