<svg xmlns="http://www.w3.org/2000/svg" xmlns:xlink="http://www.w3.org/1999/xlink" viewBox="0 0 13 15"><defs><clipPath id="a"><rect width="13" height="15" style="fill:none"/></clipPath></defs><title>tab-slash</title><g style="clip-path:url(#a)"><path d="M12.42682.9599l-.35364.35364h0V1.31348L12.42682.9599,12.31348.84662,12.1554.82025A1.69124,1.69124,0,0,0,11.65.79993a.77157.77157,0,0,0-.23944.08,1.57259,1.57259,0,0,0-.17315.10541,4.6744,4.6744,0,0,0-.38019.30109l-.00006-.00006-.001.00091-.00037.00031h0a8.282,8.282,0,0,0-.67035.632l-.001.00109.28235.26062h0l-.28235-.26062q-.21762.23567-.66132.69794l-.0003.00031c-.28443.29681-.48523.50366-.60486.62323l-.00073.00079a59.29775,59.29775,0,0,0-7.16651,8.5896l-.00262.00391c-.54889.82946-.89777,1.37915-1.01361,1.6109a1.947,1.947,0,0,0-.14917.39917.75694.75694,0,0,0,.20568.73462l.35358.35345.35358-.35345.14844-.14844.04016-.04028.03021-.04822-.424-.26508H1.293l.42389.26508a68.83639,68.83639,0,0,1,9.7265-11.73084,3.76092,3.76092,0,0,1,.60248-.452l-.2301-.3595.00006-.00006.23.35956.01868-.012.01751-.01355a1.829,1.829,0,0,0,.383-.37451.70908.70908,0,0,0,.12811-.32269A.57934.57934,0,0,0,12.42682.9599Z" style="fill:#786453;opacity:0.8"/></g></svg>