<svg width="18" height="18" viewBox="0 0 18 18" fill="none" xmlns="http://www.w3.org/2000/svg">
<path d="M6.56681 10.8857H3.81055V13.642H6.56681V10.8857Z" fill="white"/>
<path d="M10.3783 14.6958H7.62207V17.4521H10.3783V14.6958Z" fill="white"/>
<path d="M2.75625 14.6958H0V17.4521H2.75625V14.6958Z" fill="white"/>
<path d="M10.3783 10.8857H7.62207V13.642H10.3783V10.8857Z" fill="white"/>
<path d="M6.56681 7.07422H3.81055V9.83045H6.56681V7.07422Z" fill="white"/>
<path d="M2.75625 10.8857H0V13.642H2.75625V10.8857Z" fill="white"/>
<path d="M6.56681 14.6958H3.81055V17.4521H6.56681V14.6958Z" fill="white"/>
<path d="M2.75625 7.07422H0V9.83045H2.75625V7.07422Z" fill="white"/>
<path d="M10.3783 7.07422H7.62207V9.83045H10.3783V7.07422Z" fill="white"/>
<path d="M18.0004 7.07422H15.2441V9.83045H18.0004V7.07422Z" fill="white"/>
<path d="M13.9177 1.81152V3.07616H12.863V1.81152H5.137V3.07616H4.08231V1.81152H0V6.01951H18V1.81152H13.9177Z" fill="white"/>
<path d="M14.1889 14.6958H11.4326V17.4521H14.1889V14.6958Z" fill="white"/>
<path d="M18.0004 10.8857H15.2441V13.642H18.0004V10.8857Z" fill="white"/>
<path d="M18.0004 14.6958H15.2441V17.4521H18.0004V14.6958Z" fill="white"/>
<path d="M14.1889 7.07422H11.4326V9.83045H14.1889V7.07422Z" fill="white"/>
<path d="M14.1889 10.8857H11.4326V13.642H14.1889V10.8857Z" fill="white"/>
<path d="M5.13671 0.547363H4.08203V1.812H5.13671V0.547363Z" fill="white"/>
<path d="M13.918 0.547363H12.8633V1.812H13.918V0.547363Z" fill="white"/>
</svg>
