<svg width="22" height="22" viewBox="0 0 22 22" fill="none" xmlns="http://www.w3.org/2000/svg">
<path d="M12.2891 18.0898C13.357 18.0898 14.2227 17.2241 14.2227 16.1562C14.2227 15.0884 13.357 14.2227 12.2891 14.2227C11.2212 14.2227 10.3555 15.0884 10.3555 16.1562C10.3555 17.2241 11.2212 18.0898 12.2891 18.0898Z" fill="white"/>
<path d="M9.15879 15.4217C9.43748 14.236 10.3689 13.3046 11.5546 13.0259C11.3152 12.2299 10.584 11.6445 9.71094 11.6445C8.64471 11.6445 7.77734 12.5119 7.77734 13.5781C7.77734 14.4512 8.36271 15.1824 9.15879 15.4217Z" fill="white"/>
<path d="M5.00599 10.6129C4.29915 11.5552 3.91016 12.7227 3.91016 13.9004V20.0664C3.91016 21.1326 4.77752 22 5.84375 22H16.1562C17.2225 22 18.0898 21.1326 18.0898 20.0664V13.9004C18.0898 12.7227 17.7008 11.5552 16.994 10.6129C16.454 9.89282 16.1562 9.00032 16.1562 8.09961V7.77734C16.5125 7.77734 16.8008 7.48907 16.8008 7.13281C16.8008 6.77656 16.5125 6.48828 16.1562 6.48828H5.84375C5.4875 6.48828 5.19922 6.77656 5.19922 7.13281C5.19922 7.48907 5.4875 7.77734 5.84375 7.77734V8.09961C5.84375 9.00032 5.54602 9.89282 5.00599 10.6129ZM9.71094 10.3555C11.2874 10.3555 12.5976 11.4952 12.8743 12.9928C14.372 13.2696 15.5117 14.5798 15.5117 16.1562C15.5117 17.9331 14.0659 19.3789 12.2891 19.3789C10.7126 19.3789 9.40242 18.2392 9.12566 16.7415C7.62803 16.4648 6.48828 15.1546 6.48828 13.5781C6.48828 11.8012 7.93405 10.3555 9.71094 10.3555Z" fill="white"/>
<path d="M13.5781 2.62109C13.5781 1.1972 12.4239 0 11 0C9.57614 0 8.42188 1.1972 8.42188 2.62109C8.42188 4.04495 9.57614 5.19922 11 5.19922C12.4239 5.19922 13.5781 4.04495 13.5781 2.62109Z" fill="white"/>
</svg>
