<svg width="37" height="33" viewBox="0 0 37 33" fill="none" xmlns="http://www.w3.org/2000/svg">
<path opacity="0.5" d="M33.157 3.4C31.8237 5.13333 30.5237 7.53333 29.257 10.6C27.9904 13.7333 27.3904 16.6 27.457 19.2C28.057 19 28.757 18.9 29.557 18.9C31.4904 18.9 33.1237 19.4333 34.457 20.5C35.7904 21.6333 36.457 23.3 36.457 25.5C36.457 27.6333 35.7904 29.4 34.457 30.8C33.057 32.2667 31.257 33 29.057 33C26.1904 33 23.9904 32 22.457 30C20.857 28.0667 20.057 25.5667 20.057 22.5C20.057 19.2333 20.857 15.7 22.457 11.9C23.9904 8.1 26.257 4.33333 29.257 0.599999L33.157 3.4ZM13.157 3.4C11.8237 5.13333 10.5237 7.53333 9.25703 10.6C7.99036 13.7333 7.39036 16.6 7.45703 19.2C8.05703 19 8.75703 18.9 9.55703 18.9C11.4904 18.9 13.1237 19.4333 14.457 20.5C15.7904 21.6333 16.457 23.3 16.457 25.5C16.457 27.6333 15.7904 29.4 14.457 30.8C13.057 32.2667 11.257 33 9.05703 33C6.19036 33 3.99036 32 2.45703 30C0.857029 28.0667 0.0570253 25.5667 0.057025 22.5C0.0570247 19.2333 0.857027 15.7 2.45703 11.9C3.99036 8.1 6.25703 4.33333 9.25703 0.600001L13.157 3.4Z" fill="#51ACBF"/>
</svg>
