<svg width="187" height="312" viewBox="0 0 187 312" fill="none" xmlns="http://www.w3.org/2000/svg">
<path d="M47.5668 11.8857H44.8105V14.642H47.5668V11.8857Z" fill="white"/>
<path d="M51.3783 15.6961H48.6221V18.4524H51.3783V15.6961Z" fill="white"/>
<path d="M43.7563 15.6961H41V18.4524H43.7563V15.6961Z" fill="white"/>
<path d="M51.3783 11.8857H48.6221V14.642H51.3783V11.8857Z" fill="white"/>
<path d="M47.5668 8.07452H44.8105V10.8308H47.5668V8.07452Z" fill="white"/>
<path d="M43.7563 11.8857H41V14.642H43.7563V11.8857Z" fill="white"/>
<path d="M47.5668 15.6961H44.8105V18.4524H47.5668V15.6961Z" fill="white"/>
<path d="M43.7563 8.07452H41V10.8308H43.7563V8.07452Z" fill="white"/>
<path d="M51.3783 8.07452H48.6221V10.8308H51.3783V8.07452Z" fill="white"/>
<path d="M59.0004 8.07452H56.2441V10.8308H59.0004V8.07452Z" fill="white"/>
<path d="M54.9177 2.81195V4.07659H53.863V2.81195H46.137V4.07659H45.0823V2.81195H41V7.01993H59V2.81195H54.9177Z" fill="white"/>
<path d="M55.1889 15.6961H52.4326V18.4524H55.1889V15.6961Z" fill="white"/>
<path d="M59.0004 11.8857H56.2441V14.642H59.0004V11.8857Z" fill="white"/>
<path d="M59.0004 15.6961H56.2441V18.4524H59.0004V15.6961Z" fill="white"/>
<path d="M55.1889 8.07452H52.4326V10.8308H55.1889V8.07452Z" fill="white"/>
<path d="M55.1889 11.8857H52.4326V14.642H55.1889V11.8857Z" fill="white"/>
<path d="M46.1367 1.54755H45.082V2.81219H46.1367V1.54755Z" fill="white"/>
<path d="M54.918 1.54755H53.8633V2.81219H54.918V1.54755Z" fill="white"/>
<path d="M36.75 3.25H35.0625V1.5625C35.0625 1.252 34.8105 1 34.5 1H24.375C23.4446 1 22.6875 1.75712 22.6875 2.6875V16.75C22.6875 17.9909 23.6966 19 24.9375 19H36.75C37.0605 19 37.3125 18.748 37.3125 18.4375V3.8125C37.3125 3.502 37.0605 3.25 36.75 3.25ZM30.4185 16.5632C30.3116 16.6814 30.1597 16.75 30 16.75C29.8403 16.75 29.6884 16.6814 29.5815 16.5632C29.2215 16.1616 26.0625 12.583 26.0625 10.5625C26.0625 8.39125 27.8288 6.625 30 6.625C32.1713 6.625 33.9375 8.39125 33.9375 10.5625C33.9375 12.583 30.7785 16.1616 30.4185 16.5632ZM33.9375 3.25H24.375C24.0645 3.25 23.8125 2.998 23.8125 2.6875C23.8125 2.377 24.0645 2.125 24.375 2.125H33.9375V3.25Z" fill="white"/>
<path d="M30 12.25C30.932 12.25 31.6875 11.4945 31.6875 10.5625C31.6875 9.63052 30.932 8.875 30 8.875C29.068 8.875 28.3125 9.63052 28.3125 10.5625C28.3125 11.4945 29.068 12.25 30 12.25Z" fill="white"/>
<path d="M75.2759 3.48277V1H61V16.2069C61 17.747 62.253 19 63.7931 19H76.2069C77.747 19 79 17.747 79 16.2069V3.48277H75.2759ZM72.7931 14.6552H63.4828V12.7931H72.7931V14.6552H72.7931ZM72.7931 10.931H63.4828V9.06896H72.7931V10.931H72.7931ZM72.7931 5.34482V7.20691H63.4828V5.34482V3.48277H72.7931V5.34482H72.7931ZM77.1379 16.2069C77.1379 16.7203 76.7203 17.1379 76.2069 17.1379C75.6935 17.1379 75.2758 16.7203 75.2758 16.2069V5.34482H77.1379V16.2069Z" fill="white"/>
<path d="M3.26351 3.26358C4.7232 1.80389 6.66394 1 8.72822 1C10.7925 1 12.7332 1.80389 14.1929 3.26358C15.6525 4.72324 16.4565 6.66398 16.4565 8.72822C16.4565 10.6155 15.7841 12.3993 14.5534 13.8068L18.8454 18.0989C19.0515 18.305 19.0515 18.6393 18.8454 18.8455C18.7423 18.9485 18.6072 19.0001 18.4721 19.0001C18.3371 19.0001 18.2019 18.9485 18.0989 18.8454L13.8068 14.5534C12.3993 15.7841 10.6155 16.4565 8.72822 16.4565C6.66391 16.4565 4.72324 15.6526 3.26354 14.1929C1.80388 12.7333 1 10.7925 1 8.72825C1 6.66398 1.80385 4.72324 3.26351 3.26358ZM4.01009 13.4464C6.6117 16.048 10.8447 16.048 13.4463 13.4464C16.0479 10.8448 16.0479 6.61173 13.4463 4.01016C12.1454 2.70923 10.4371 2.05898 8.72818 2.05898C7.01972 2.05898 5.3107 2.70955 4.01005 4.01016C1.40855 6.6117 1.40855 10.8448 4.01009 13.4464Z" fill="white"/>
<path d="M90 1C85.0373 1 81 5.03729 81 10V25.8824C81 30.8451 85.0373 34.8824 90 34.8824C94.9627 34.8824 99 30.8451 99 25.8824V10C99 5.03729 94.9627 1 90 1ZM97.9412 25.8824C97.9412 30.2611 94.3788 33.8235 90 33.8235C85.6212 33.8235 82.0588 30.2611 82.0588 25.8824V10C82.0588 5.62124 85.6212 2.05882 90 2.05882C94.3788 2.05882 97.9412 5.62124 97.9412 10V25.8824Z" fill="white"/>
<path d="M90.5295 6.29395H89.4707V10.5292H90.5295V6.29395Z" fill="white"/>
<path d="M105.646 20.3536C105.842 20.5488 106.158 20.5488 106.354 20.3536L109.536 17.1716C109.731 16.9763 109.731 16.6597 109.536 16.4645C109.34 16.2692 109.024 16.2692 108.828 16.4645L106 19.2929L103.172 16.4645C102.976 16.2692 102.66 16.2692 102.464 16.4645C102.269 16.6597 102.269 16.9763 102.464 17.1716L105.646 20.3536ZM105.5 1L105.5 20L106.5 20L106.5 1L105.5 1Z" fill="white"/>
<path opacity="0.5" d="M66.7 23.4C65.3667 25.1333 64.0667 27.5333 62.8 30.6C61.5333 33.7333 60.9333 36.6 61 39.2C61.6 39 62.3 38.9 63.1 38.9C65.0333 38.9 66.6667 39.4333 68 40.5C69.3333 41.6333 70 43.3 70 45.5C70 47.6333 69.3333 49.4 68 50.8C66.6 52.2667 64.8 53 62.6 53C59.7333 53 57.5333 52 56 50C54.4 48.0667 53.6 45.5667 53.6 42.5C53.6 39.2333 54.4 35.7 56 31.9C57.5333 28.1 59.8 24.3333 62.8 20.6L66.7 23.4ZM46.7 23.4C45.3667 25.1333 44.0667 27.5333 42.8 30.6C41.5333 33.7333 40.9333 36.6 41 39.2C41.6 39 42.3 38.9 43.1 38.9C45.0333 38.9 46.6667 39.4333 48 40.5C49.3333 41.6333 50 43.3 50 45.5C50 47.6333 49.3333 49.4 48 50.8C46.6 52.2667 44.8 53 42.6 53C39.7333 53 37.5333 52 36 50C34.4 48.0667 33.6 45.5667 33.6 42.5C33.6 39.2333 34.4 35.7 36 31.9C37.5333 28.1 39.8 24.3333 42.8 20.6L46.7 23.4Z" fill="#51ACBF"/>
<circle cx="16.5" cy="36.5" r="1.5" fill="#B6860A" fill-opacity="0.2"/>
<circle cx="16.5" cy="69.5" r="1.5" fill="#1E1C1B" fill-opacity="0.1"/>
<circle cx="3" cy="161" r="1" fill="#51ACBF"/>
<circle cx="15" cy="161" r="1" fill="#51ACBF"/>
<circle cx="27" cy="161" r="1" fill="#51ACBF"/>
<circle cx="39" cy="161" r="1" fill="#51ACBF"/>
<circle cx="51" cy="161" r="1" fill="#51ACBF"/>
<circle cx="63" cy="161" r="1" fill="#51ACBF"/>
<circle cx="75" cy="161" r="1" fill="#51ACBF"/>
<circle cx="87" cy="161" r="1" fill="#51ACBF"/>
<circle cx="3" cy="173" r="1" fill="#51ACBF"/>
<circle cx="15" cy="173" r="1" fill="#51ACBF"/>
<circle cx="27" cy="173" r="1" fill="#51ACBF"/>
<circle cx="39" cy="173" r="1" fill="#51ACBF"/>
<circle cx="51" cy="173" r="1" fill="#51ACBF"/>
<circle cx="63" cy="173" r="1" fill="#51ACBF"/>
<circle cx="75" cy="173" r="1" fill="#51ACBF"/>
<circle cx="87" cy="173" r="1" fill="#51ACBF"/>
<circle cx="3" cy="185" r="1" fill="#51ACBF"/>
<circle cx="15" cy="185" r="1" fill="#51ACBF"/>
<circle cx="27" cy="185" r="1" fill="#51ACBF"/>
<circle cx="39" cy="185" r="1" fill="#51ACBF"/>
<circle cx="51" cy="185" r="1" fill="#51ACBF"/>
<circle cx="63" cy="185" r="1" fill="#51ACBF"/>
<circle cx="75" cy="185" r="1" fill="#51ACBF"/>
<circle cx="87" cy="185" r="1" fill="#51ACBF"/>
<circle cx="3" cy="197" r="1" fill="#51ACBF"/>
<circle cx="15" cy="197" r="1" fill="#51ACBF"/>
<circle cx="27" cy="197" r="1" fill="#51ACBF"/>
<circle cx="39" cy="197" r="1" fill="#51ACBF"/>
<circle cx="51" cy="197" r="1" fill="#51ACBF"/>
<circle cx="63" cy="197" r="1" fill="#51ACBF"/>
<circle cx="75" cy="197" r="1" fill="#51ACBF"/>
<circle cx="87" cy="197" r="1" fill="#51ACBF"/>
<circle cx="3" cy="209" r="1" fill="#51ACBF"/>
<circle cx="15" cy="209" r="1" fill="#51ACBF"/>
<circle cx="27" cy="209" r="1" fill="#51ACBF"/>
<circle cx="39" cy="209" r="1" fill="#51ACBF"/>
<circle cx="51" cy="209" r="1" fill="#51ACBF"/>
<circle cx="63" cy="209" r="1" fill="#51ACBF"/>
<circle cx="75" cy="209" r="1" fill="#51ACBF"/>
<circle cx="87" cy="209" r="1" fill="#51ACBF"/>
<circle cx="3" cy="221" r="1" fill="#51ACBF"/>
<circle cx="15" cy="221" r="1" fill="#51ACBF"/>
<circle cx="27" cy="221" r="1" fill="#51ACBF"/>
<circle cx="39" cy="221" r="1" fill="#51ACBF"/>
<circle cx="51" cy="221" r="1" fill="#51ACBF"/>
<circle cx="63" cy="221" r="1" fill="#51ACBF"/>
<circle cx="75" cy="221" r="1" fill="#51ACBF"/>
<circle cx="87" cy="221" r="1" fill="#51ACBF"/>
<circle cx="3" cy="233" r="1" fill="#51ACBF"/>
<circle cx="15" cy="233" r="1" fill="#51ACBF"/>
<circle cx="27" cy="233" r="1" fill="#51ACBF"/>
<circle cx="39" cy="233" r="1" fill="#51ACBF"/>
<circle cx="51" cy="233" r="1" fill="#51ACBF"/>
<circle cx="63" cy="233" r="1" fill="#51ACBF"/>
<circle cx="75" cy="233" r="1" fill="#51ACBF"/>
<circle cx="87" cy="233" r="1" fill="#51ACBF"/>
<circle cx="99" cy="161" r="1" fill="#51ACBF"/>
<circle cx="99" cy="173" r="1" fill="#51ACBF"/>
<circle cx="99" cy="185" r="1" fill="#51ACBF"/>
<circle cx="99" cy="197" r="1" fill="#51ACBF"/>
<circle cx="99" cy="209" r="1" fill="#51ACBF"/>
<circle cx="99" cy="221" r="1" fill="#51ACBF"/>
<circle cx="99" cy="233" r="1" fill="#51ACBF"/>
<circle cx="111" cy="161" r="1" fill="#51ACBF"/>
<circle cx="111" cy="173" r="1" fill="#51ACBF"/>
<circle cx="111" cy="185" r="1" fill="#51ACBF"/>
<circle cx="111" cy="197" r="1" fill="#51ACBF"/>
<circle cx="111" cy="209" r="1" fill="#51ACBF"/>
<circle cx="111" cy="221" r="1" fill="#51ACBF"/>
<circle cx="111" cy="233" r="1" fill="#51ACBF"/>
<circle cx="123" cy="161" r="1" fill="#51ACBF"/>
<circle cx="123" cy="173" r="1" fill="#51ACBF"/>
<circle cx="123" cy="185" r="1" fill="#51ACBF"/>
<circle cx="123" cy="197" r="1" fill="#51ACBF"/>
<circle cx="123" cy="209" r="1" fill="#51ACBF"/>
<circle cx="123" cy="221" r="1" fill="#51ACBF"/>
<circle cx="123" cy="233" r="1" fill="#51ACBF"/>
<path d="M118.789 58V46.2422H124.062V42.7266H118.789V38H115.273V42.7266H110V46.2422H115.273V58H118.789Z" fill="#ECAB00"/>
<path d="M87.2814 43.2846C87.2058 43.0013 87.0523 42.6995 86.9388 42.4352C85.5802 39.1701 82.6116 38 80.2147 38C77.0059 38 73.4718 40.1516 73 44.5866V45.4927C73 45.5305 73.013 45.8702 73.0315 46.0401C73.296 48.1537 74.9638 50.4 76.2094 52.5136C77.5495 54.7781 78.94 57.0058 80.3176 59.2325C81.1671 57.7794 82.0135 56.3072 82.8436 54.8917C83.0698 54.4763 83.3325 54.0611 83.5589 53.6646C83.7099 53.4006 83.9983 53.1366 84.13 52.891C85.4701 50.4376 87.627 47.9652 87.627 45.5305V44.5302C87.627 44.2663 87.2998 43.3415 87.2814 43.2846ZM80.2734 47.8331C79.3302 47.8331 78.2978 47.3615 77.7882 46.059C77.7123 45.8517 77.7184 45.4362 77.7184 45.3981V44.813C77.7184 43.1526 79.1283 42.3975 80.3548 42.3975C81.8647 42.3975 83.0326 43.6056 83.0326 45.1155C83.0326 46.6255 81.7834 47.8331 80.2734 47.8331Z" fill="#ECAB00"/>
<path d="M164.014 51.7345L161.326 49.0465C160.791 48.5133 159.904 48.5295 159.35 49.0837L157.996 50.4375C157.91 50.3903 157.822 50.3411 157.729 50.2888C156.874 49.815 155.703 49.1656 154.472 47.9332C153.237 46.6981 152.587 45.526 152.111 44.6703C152.061 44.5796 152.013 44.4922 151.966 44.4092L152.874 43.5018L153.321 43.0544C153.876 42.4994 153.891 41.6131 153.357 41.0784L150.67 38.39C150.135 37.856 149.248 37.8722 148.694 38.4272L147.936 39.1891L147.957 39.2096C147.703 39.5337 147.491 39.9075 147.333 40.3106C147.187 40.6943 147.096 41.0605 147.055 41.4274C146.7 44.3696 148.045 47.0586 151.693 50.7074C156.737 55.7508 160.802 55.3698 160.977 55.3512C161.359 55.3056 161.725 55.2143 162.097 55.0699C162.497 54.9138 162.87 54.7018 163.194 54.4484L163.211 54.4631L163.978 53.7116C164.532 53.1567 164.548 52.2701 164.014 51.7345Z" fill="#ECAB00"/>
<path d="M106.793 42.4824C105.988 41.1035 104.897 40.0118 103.518 39.207C102.139 38.4023 100.633 38 99.0003 38C97.3674 38 95.8615 38.4023 94.4826 39.207C93.1037 40.0117 92.012 41.1034 91.2072 42.4824C90.4023 43.8614 90 45.3673 90 47C90 48.6329 90.4024 50.1385 91.207 51.5176C92.0118 52.8965 93.1035 53.9882 94.4825 54.793C95.8615 55.5977 97.3673 56.0001 99.0001 56.0001C100.633 56.0001 102.139 55.5977 103.518 54.793C104.897 53.9885 105.988 52.8965 106.793 51.5176C107.598 50.1387 108 48.6328 108 47C108 45.3671 107.598 43.8612 106.793 42.4824ZM104.52 50.1992C103.949 51.1757 103.176 51.9494 102.199 52.5197C101.223 53.09 100.157 53.3749 99.0002 53.3749C97.844 53.3749 96.7776 53.09 95.8009 52.5197C94.8244 51.9494 94.051 51.1757 93.4807 50.1992C92.9103 49.2227 92.6252 48.1563 92.6252 47C92.6252 45.8437 92.9104 44.7773 93.4807 43.8008C94.0509 42.8243 94.8245 42.0507 95.8009 41.4805C96.7774 40.9101 97.8439 40.6251 99.0002 40.6251C100.157 40.6251 101.223 40.9101 102.199 41.4805C103.176 42.0508 103.949 42.8243 104.52 43.8008C105.09 44.7773 105.375 45.8437 105.375 47C105.375 48.1563 105.09 49.2227 104.52 50.1992Z" fill="#ECAB00"/>
<path d="M100.123 42.5H99.373C99.2634 42.5 99.1738 42.5353 99.1033 42.6055C99.0333 42.6758 98.998 42.7656 98.998 42.875V47.0001H96.373C96.2635 47.0001 96.1738 47.0352 96.1035 47.1053C96.0332 47.1756 95.998 47.2654 95.998 47.375V48.125C95.998 48.2344 96.0332 48.3243 96.1035 48.3945C96.1738 48.4648 96.2637 48.4998 96.373 48.4998H100.123C100.233 48.4998 100.322 48.4648 100.393 48.3945C100.463 48.3243 100.498 48.2344 100.498 48.125V42.875C100.498 42.7656 100.463 42.6759 100.393 42.6055C100.322 42.5353 100.232 42.5 100.123 42.5Z" fill="#ECAB00"/>
<path d="M128.423 38.7533L134.907 43.9501C135.201 44.1854 135.606 44.2901 135.999 44.2704C136.392 44.2901 136.797 44.1861 137.091 43.9501L143.575 38.7533C144.094 38.3394 143.977 38.0001 143.318 38.0001H136H128.682C128.022 38.0001 127.905 38.3394 128.423 38.7533Z" fill="#ECAB00"/>
<path d="M144.044 40.1239L136.959 45.5672C136.694 45.7686 136.347 45.8667 136.001 45.8621C135.655 45.8667 135.308 45.7679 135.043 45.5672L127.956 40.1239C127.43 39.7205 127 39.9369 127 40.6045V49.5354C127 50.203 127.54 50.7496 128.2 50.7496H136H143.8C144.46 50.7496 145 50.203 145 49.5354V40.6045C145 39.9369 144.57 39.7205 144.044 40.1239Z" fill="#ECAB00"/>
<path d="M142.298 83.0874C141.649 82.3151 140.449 82 138.158 82H129.842C127.498 82 126.278 82.3354 125.631 83.1577C125 83.9594 125 85.1408 125 86.7758V89.892C125 93.0595 125.749 94.6677 129.842 94.6677H138.158C140.145 94.6677 141.246 94.3897 141.958 93.7081C142.688 93.0091 143 91.8678 143 89.892V86.7758C143 85.0515 142.951 83.8632 142.298 83.0874ZM136.556 88.7641L132.78 90.7378C132.695 90.7819 132.603 90.8038 132.511 90.8038C132.406 90.8038 132.302 90.7757 132.21 90.7198C132.036 90.6146 131.93 90.4263 131.93 90.2232V86.2885C131.93 86.0857 132.036 85.8976 132.209 85.7923C132.383 85.6869 132.598 85.6797 132.778 85.7732L136.555 87.7342C136.747 87.8339 136.868 88.0323 136.868 88.2487C136.868 88.4653 136.748 88.6639 136.556 88.7641Z" fill="#ECAB00"/>
<path d="M118.252 82.004L115.788 82C113.02 82 111.231 83.8353 111.231 86.6759V88.8318H108.754C108.54 88.8318 108.366 89.0054 108.366 89.2195V92.3431C108.366 92.5572 108.54 92.7306 108.754 92.7306H111.231V100.613C111.231 100.827 111.404 101 111.618 101H114.85C115.065 101 115.238 100.826 115.238 100.613V92.7306H118.134C118.349 92.7306 118.522 92.5572 118.522 92.3431L118.523 89.2195C118.523 89.1167 118.482 89.0182 118.41 88.9455C118.337 88.8728 118.238 88.8318 118.135 88.8318H115.238V87.0042C115.238 86.1258 115.447 85.6799 116.591 85.6799L118.251 85.6793C118.465 85.6793 118.638 85.5058 118.638 85.2919V82.3914C118.638 82.1777 118.465 82.0043 118.252 82.004Z" fill="#ECAB00"/>
<path d="M94.0016 92.6667C95.4744 92.6667 96.6683 91.4728 96.6683 90C96.6683 88.5273 95.4744 87.3333 94.0016 87.3333C92.5289 87.3333 91.335 88.5273 91.335 90C91.335 91.4728 92.5289 92.6667 94.0016 92.6667Z" fill="#ECAB00"/>
<path d="M97.3327 82H90.666C88.0933 82 86 84.094 86 86.6673V93.334C86 95.9067 88.094 98 90.6673 98H97.334C99.9067 98 102 95.906 102 93.3327V86.666C102 84.0933 99.906 82 97.3327 82ZM94 94C91.794 94 90 92.206 90 90C90 87.794 91.794 86 94 86C96.206 86 98 87.794 98 90C98 92.206 96.206 94 94 94ZM98.6667 86C98.2987 86 98 85.7013 98 85.3333C98 84.9653 98.2987 84.6667 98.6667 84.6667C99.0347 84.6667 99.3333 84.9653 99.3333 85.3333C99.3333 85.7013 99.0347 86 98.6667 86Z" fill="#ECAB00"/>
<path d="M73.6877 97.6249H75.2102C75.2102 97.6249 75.5489 97.5862 75.7214 97.3912C75.8802 97.2124 75.8752 96.8762 75.8752 96.8762C75.8752 96.8762 75.9589 95.3562 76.6564 95.1249C77.3439 94.8974 78.1214 96.5924 79.0589 97.2649C79.7677 97.7737 80.3052 97.6624 80.3052 97.6624L82.4064 97.6249C82.4064 97.6249 83.7477 97.5124 83.1264 96.4337C83.0752 96.3462 82.8189 95.5862 81.3189 94.1287C79.7489 92.6024 79.9589 93.5674 81.8502 90.9274C83.0027 89.3199 83.4952 88.3262 83.3189 87.9174C83.1927 87.6249 82.3352 87.6249 82.3352 87.6249L79.8352 87.6437C79.8352 87.6437 79.6252 87.6137 79.4702 87.7112C79.3177 87.8062 79.2214 88.0287 79.2214 88.0287C79.2214 88.0287 78.7752 88.6474 78.1802 89.7062C76.9252 91.9374 76.4227 91.3362 76.2177 91.1987C75.7389 90.8762 75.8602 90.1249 75.8602 89.2099C75.8602 87.0462 76.1739 86.7699 75.2502 86.5362C74.9439 86.4587 74.3989 86.4074 73.6139 86.3987C72.6089 86.3874 71.9139 86.4574 71.4314 86.7062C71.1114 86.8712 70.8639 87.2362 71.0139 87.2587C71.2002 87.2849 71.6227 87.3774 71.8452 87.6962C72.1352 88.1074 72.1252 88.4062 72.1252 88.4062C72.1252 88.4062 72.2914 90.9524 71.7377 91.2699C71.3577 91.4862 70.6777 91.7037 69.5589 89.6799C68.9852 88.6424 68.5514 88.1199 68.5514 88.1199C68.5514 88.1199 68.4689 87.9062 68.3189 87.7912C68.1377 87.6524 67.8864 87.6249 67.8864 87.6249L65.2064 87.6262C65.2064 87.6262 64.8039 87.6374 64.6577 87.8212C64.5252 87.9849 64.6464 88.3212 64.6464 88.3212C64.6464 88.3212 66.7439 92.7412 69.1189 95.3299C71.3002 97.7024 73.6877 97.6249 73.6877 97.6249Z" fill="#ECAB00"/>
<path d="M105.831 136.812C104.748 135.525 102.748 135 98.9301 135H85.0696C81.1639 135 79.1307 135.559 78.0518 136.929C77 138.266 77 140.235 77 142.96V148.153C77 153.433 78.248 156.113 85.0696 156.113H98.9302C102.241 156.113 104.076 155.65 105.263 154.513C106.481 153.349 107 151.446 107 148.153V142.96C107 140.086 106.919 138.105 105.831 136.812ZM96.2601 146.274L89.9661 149.563C89.8254 149.637 89.6715 149.673 89.5178 149.673C89.3438 149.673 89.1702 149.626 89.0165 149.533C88.7269 149.358 88.5501 149.044 88.5501 148.705V142.147C88.5501 141.81 88.7264 141.496 89.0154 141.32C89.3045 141.145 89.664 141.133 89.9639 141.289L96.2579 144.557C96.5781 144.723 96.7792 145.054 96.7797 145.414C96.7801 145.775 96.5798 146.106 96.2601 146.274Z" fill="white"/>
<path d="M98.7524 104.006L94.9918 104C90.7668 104 88.0365 106.801 88.0365 111.137V114.428H84.2554C83.9286 114.428 83.6641 114.692 83.6641 115.019V119.787C83.6641 120.114 83.9289 120.378 84.2554 120.378H88.0365V132.409C88.0365 132.735 88.3011 133 88.6278 133H93.5611C93.8879 133 94.1524 132.735 94.1524 132.409V120.378H98.5735C98.9002 120.378 99.1648 120.114 99.1648 119.787L99.1666 115.019C99.1666 114.862 99.1041 114.712 98.9934 114.601C98.8827 114.49 98.7319 114.428 98.575 114.428H94.1524V111.638C94.1524 110.297 94.4719 109.617 96.2184 109.617L98.7518 109.616C99.0782 109.616 99.3428 109.351 99.3428 109.024V104.597C99.3428 104.271 99.0785 104.007 98.7524 104.006Z" fill="white"/>
<path d="M163.002 19.3336C165.395 19.3336 167.336 17.3935 167.336 15.0003C167.336 12.607 165.395 10.6669 163.002 10.6669C160.609 10.6669 158.669 12.607 158.669 15.0003C158.669 17.3935 160.609 19.3336 163.002 19.3336Z" fill="white"/>
<path d="M168.416 2H157.582C153.402 2 150 5.40275 150 9.58442V20.4177C150 24.5983 153.403 28 157.584 28H168.418C172.598 28 176 24.5973 176 20.4156V9.58225C176 5.40167 172.597 2 168.416 2ZM163 21.5C159.415 21.5 156.5 18.5848 156.5 15C156.5 11.4153 159.415 8.5 163 8.5C166.585 8.5 169.5 11.4153 169.5 15C169.5 18.5848 166.585 21.5 163 21.5ZM170.583 8.5C169.985 8.5 169.5 8.01467 169.5 7.41667C169.5 6.81867 169.985 6.33333 170.583 6.33333C171.181 6.33333 171.667 6.81867 171.667 7.41667C171.667 8.01467 171.181 8.5 170.583 8.5Z" fill="white"/>
<path d="M129.953 28.3437H132.617C132.617 28.3437 133.21 28.2759 133.512 27.9346C133.79 27.6218 133.781 27.0333 133.781 27.0333C133.781 27.0333 133.928 24.3734 135.148 23.9687C136.351 23.5705 137.712 26.5368 139.353 27.7137C140.593 28.604 141.534 28.4093 141.534 28.4093L145.211 28.3437C145.211 28.3437 147.558 28.1468 146.471 26.259C146.381 26.1059 145.933 24.7759 143.308 22.2252C140.56 19.5543 140.928 21.243 144.237 16.623C146.254 13.8099 147.116 12.0709 146.808 11.3555C146.587 10.8437 145.086 10.8437 145.086 10.8437L140.711 10.8765C140.711 10.8765 140.344 10.824 140.072 10.9946C139.805 11.1609 139.637 11.5502 139.637 11.5502C139.637 11.5502 138.856 12.633 137.815 14.4859C135.619 18.3905 134.739 17.3384 134.38 17.0977C133.543 16.5334 133.755 15.2187 133.755 13.6174C133.755 9.83086 134.304 9.34742 132.687 8.93836C132.151 8.80273 131.198 8.71304 129.824 8.69773C128.065 8.67804 126.849 8.80054 126.004 9.23586C125.444 9.52461 125.011 10.1634 125.274 10.2027C125.6 10.2487 126.339 10.4105 126.729 10.9684C127.236 11.688 127.219 12.2109 127.219 12.2109C127.219 12.2109 127.509 16.6668 126.54 17.2224C125.875 17.6009 124.685 17.9815 122.728 14.4399C121.724 12.6243 120.964 11.7099 120.964 11.7099C120.964 11.7099 120.82 11.3359 120.558 11.1346C120.24 10.8918 119.801 10.8437 119.801 10.8437L115.111 10.8459C115.111 10.8459 114.406 10.8655 114.15 11.1871C113.919 11.4737 114.131 12.0621 114.131 12.0621C114.131 12.0621 117.801 19.7971 121.958 24.3274C125.775 28.4793 129.953 28.3437 129.953 28.3437Z" fill="white"/>
<path d="M32.7071 94.2929C33.0976 94.6834 33.0976 95.3166 32.7071 95.7071L26.3431 102.071C25.9526 102.462 25.3195 102.462 24.9289 102.071C24.5384 101.681 24.5384 101.047 24.9289 100.657L30.5858 95L24.9289 89.3431C24.5384 88.9526 24.5384 88.3195 24.9289 87.9289C25.3195 87.5384 25.9526 87.5384 26.3431 87.9289L32.7071 94.2929ZM2 94L32 94L32 96L2 96L2 94Z" fill="#51ACBF"/>
<path d="M1.29289 112.707C0.902367 112.317 0.902367 111.683 1.29289 111.293L7.65685 104.929C8.04738 104.538 8.68054 104.538 9.07107 104.929C9.46159 105.319 9.46159 105.953 9.07107 106.343L3.41421 112L9.07107 117.657C9.46159 118.047 9.46159 118.681 9.07107 119.071C8.68054 119.462 8.04738 119.462 7.65685 119.071L1.29289 112.707ZM32 113L2 113L2 111L32 111L32 113Z" fill="#51ACBF"/>
<path d="M32.7071 128.293C33.0976 128.683 33.0976 129.317 32.7071 129.707L26.3431 136.071C25.9526 136.462 25.3195 136.462 24.9289 136.071C24.5384 135.681 24.5384 135.047 24.9289 134.657L30.5858 129L24.9289 123.343C24.5384 122.953 24.5384 122.319 24.9289 121.929C25.3195 121.538 25.9526 121.538 26.3431 121.929L32.7071 128.293ZM2 128L32 128L32 130L2 130L2 128Z" fill="white"/>
<path d="M1.29289 146.707C0.902367 146.317 0.902367 145.683 1.29289 145.293L7.65685 138.929C8.04738 138.538 8.68054 138.538 9.07107 138.929C9.46159 139.319 9.46159 139.953 9.07107 140.343L3.41421 146L9.07107 151.657C9.46159 152.047 9.46159 152.681 9.07107 153.071C8.68054 153.462 8.04738 153.462 7.65685 153.071L1.29289 146.707ZM32 147L2 147L2 145L32 145L32 147Z" fill="white"/>
<path d="M186 142C186 158.569 172.569 172 156 172C139.431 172 126 158.569 126 142C126 125.431 139.431 112 156 112C172.569 112 186 125.431 186 142Z" fill="#ECAB00"/>
<path d="M166.8 142L151.105 151.353L151.105 132.647L166.8 142Z" fill="white"/>
<path opacity="0.8" d="M186 204C186 220.569 172.569 234 156 234C139.431 234 126 220.569 126 204C126 187.431 139.431 174 156 174C172.569 174 186 187.431 186 204Z" fill="black"/>
<path d="M166.799 204L151.104 213.353L151.104 194.647L166.799 204Z" fill="#ECAB00"/>
<path opacity="0.5" d="M59.2802 57.6044C58.1813 59.033 57.1099 61.011 56.0659 63.5385C55.022 66.1209 54.5275 68.4835 54.5824 70.6264C55.0769 70.4615 55.6538 70.3791 56.3132 70.3791C57.9066 70.3791 59.2527 70.8187 60.3516 71.6978C61.4505 72.6319 62 74.0055 62 75.8187C62 77.5769 61.4505 79.033 60.3516 80.1868C59.1978 81.3956 57.7143 82 55.9011 82C53.5385 82 51.7253 81.1758 50.4615 79.5275C49.1429 77.9341 48.4835 75.8736 48.4835 73.3462C48.4835 70.6538 49.1429 67.7418 50.4615 64.6099C51.7253 61.478 53.5934 58.3736 56.0659 55.2967L59.2802 57.6044ZM42.7967 57.6044C41.6978 59.033 40.6264 61.011 39.5824 63.5385C38.5385 66.1209 38.044 68.4835 38.0989 70.6264C38.5934 70.4615 39.1703 70.3791 39.8297 70.3791C41.4231 70.3791 42.7692 70.8187 43.8681 71.6978C44.967 72.6319 45.5165 74.0055 45.5165 75.8187C45.5165 77.5769 44.967 79.033 43.8681 80.1868C42.7143 81.3956 41.2308 82 39.4176 82C37.0549 82 35.2418 81.1758 33.978 79.5275C32.6593 77.9341 32 75.8736 32 73.3462C32 70.6538 32.6593 67.7418 33.978 64.6099C35.2418 61.478 37.1099 58.3736 39.5824 55.2967L42.7967 57.6044Z" fill="#51ACBF"/>
<path opacity="0.5" d="M52.3681 87.3626C51.7088 88.2198 51.0659 89.4066 50.4396 90.9231C49.8132 92.4725 49.5165 93.8901 49.5494 95.1758C49.8462 95.0769 50.1923 95.0275 50.5879 95.0275C51.544 95.0275 52.3516 95.2912 53.011 95.8187C53.6703 96.3791 54 97.2033 54 98.2912C54 99.3462 53.6703 100.22 53.011 100.912C52.3187 101.637 51.4286 102 50.3407 102C48.9231 102 47.8352 101.505 47.0769 100.516C46.2857 99.5604 45.8901 98.3242 45.8901 96.8077C45.8901 95.1923 46.2857 93.4451 47.0769 91.5659C47.8352 89.6868 48.956 87.8242 50.4396 85.978L52.3681 87.3626ZM42.478 87.3626C41.8187 88.2198 41.1758 89.4066 40.5495 90.9231C39.9231 92.4725 39.6264 93.8901 39.6593 95.1758C39.956 95.0769 40.3022 95.0275 40.6978 95.0275C41.6538 95.0275 42.4615 95.2912 43.1209 95.8187C43.7802 96.3791 44.1099 97.2033 44.1099 98.2912C44.1099 99.3462 43.7802 100.22 43.1209 100.912C42.4286 101.637 41.5385 102 40.4506 102C39.033 102 37.9451 101.505 37.1868 100.516C36.3956 99.5604 36 98.3242 36 96.8077C36 95.1923 36.3956 93.4451 37.1868 91.5659C37.9451 89.6868 39.0659 87.8242 40.5495 85.978L42.478 87.3626Z" fill="#51ACBF"/>
<path d="M75 124C75 135.046 66.0457 144 55 144C43.9543 144 35 135.046 35 124C35 112.954 43.9543 104 55 104C66.0457 104 75 112.954 75 124Z" fill="#ECAB00"/>
<path d="M62.2002 124L51.7367 130.235L51.7367 117.765L62.2002 124Z" fill="white"/>
<path d="M157.289 77.0898C158.357 77.0898 159.223 76.2241 159.223 75.1562C159.223 74.0884 158.357 73.2227 157.289 73.2227C156.221 73.2227 155.355 74.0884 155.355 75.1562C155.355 76.2241 156.221 77.0898 157.289 77.0898Z" fill="white"/>
<path d="M154.159 74.4217C154.437 73.236 155.369 72.3046 156.555 72.0259C156.315 71.2299 155.584 70.6445 154.711 70.6445C153.645 70.6445 152.777 71.5119 152.777 72.5781C152.777 73.4512 153.363 74.1824 154.159 74.4217Z" fill="white"/>
<path d="M150.006 69.6129C149.299 70.5552 148.91 71.7227 148.91 72.9004V79.0664C148.91 80.1326 149.778 81 150.844 81H161.156C162.222 81 163.09 80.1326 163.09 79.0664V72.9004C163.09 71.7227 162.701 70.5552 161.994 69.6129C161.454 68.8928 161.156 68.0003 161.156 67.0996V66.7773C161.513 66.7773 161.801 66.4891 161.801 66.1328C161.801 65.7766 161.513 65.4883 161.156 65.4883H150.844C150.487 65.4883 150.199 65.7766 150.199 66.1328C150.199 66.4891 150.487 66.7773 150.844 66.7773V67.0996C150.844 68.0003 150.546 68.8928 150.006 69.6129ZM154.711 69.3555C156.287 69.3555 157.598 70.4952 157.874 71.9928C159.372 72.2696 160.512 73.5798 160.512 75.1562C160.512 76.9331 159.066 78.3789 157.289 78.3789C155.713 78.3789 154.402 77.2392 154.126 75.7415C152.628 75.4648 151.488 74.1546 151.488 72.5781C151.488 70.8012 152.934 69.3555 154.711 69.3555Z" fill="white"/>
<path d="M158.578 61.6211C158.578 60.1972 157.424 59 156 59C154.576 59 153.422 60.1972 153.422 61.6211C153.422 63.0449 154.576 64.1992 156 64.1992C157.424 64.1992 158.578 63.0449 158.578 61.6211Z" fill="white"/>
<path d="M157.143 94.2143C156.946 94.2143 156.786 94.0544 156.786 93.8571V86H153.214V93.8571C153.214 94.0544 153.054 94.2143 152.857 94.2143H145V97.7857H152.857C153.054 97.7857 153.214 97.9456 153.214 98.1429V106H156.786V98.1429C156.786 97.9456 156.946 97.7857 157.143 97.7857H165V94.2143H157.143Z" fill="#51ACBF"/>
<path d="M125 115.571H105V118.429H125V115.571Z" fill="#51ACBF"/>
<path d="M181.281 43.2846C181.206 43.0013 181.052 42.6995 180.939 42.4352C179.58 39.1701 176.612 38 174.215 38C171.006 38 167.472 40.1516 167 44.5866V45.4927C167 45.5305 167.013 45.8702 167.032 46.0401C167.296 48.1537 168.964 50.4 170.209 52.5136C171.549 54.7781 172.94 57.0058 174.318 59.2325C175.167 57.7794 176.013 56.3072 176.844 54.8917C177.07 54.4763 177.332 54.0611 177.559 53.6646C177.71 53.4006 177.998 53.1366 178.13 52.891C179.47 50.4376 181.627 47.9652 181.627 45.5305V44.5302C181.627 44.2663 181.3 43.3415 181.281 43.2846ZM174.273 47.8331C173.33 47.8331 172.298 47.3615 171.788 46.059C171.712 45.8517 171.718 45.4362 171.718 45.3981V44.813C171.718 43.1526 173.128 42.3975 174.355 42.3975C175.865 42.3975 177.033 43.6056 177.033 45.1155C177.033 46.6255 175.783 47.8331 174.273 47.8331Z" fill="#E75F4F"/>
<path d="M114.831 240.812C113.748 239.525 111.748 239 107.93 239H94.0696C90.1639 239 88.1307 239.559 87.0518 240.929C86 242.266 86 244.235 86 246.96V252.153C86 257.433 87.248 260.113 94.0696 260.113H107.93C111.241 260.113 113.076 259.65 114.263 258.513C115.481 257.349 116 255.446 116 252.153V246.96C116 244.086 115.919 242.105 114.831 240.812ZM105.26 250.274L98.9661 253.563C98.8254 253.637 98.6715 253.673 98.5178 253.673C98.3438 253.673 98.1702 253.626 98.0165 253.533C97.7269 253.358 97.5501 253.044 97.5501 252.705V246.147C97.5501 245.81 97.7264 245.496 98.0154 245.32C98.3045 245.145 98.664 245.133 98.9639 245.289L105.258 248.557C105.578 248.723 105.779 249.054 105.78 249.414C105.78 249.775 105.58 250.106 105.26 250.274Z" fill="white" fill-opacity="0.5"/>
<path d="M114.831 271.812C113.748 270.525 111.748 270 107.93 270H94.0696C90.1639 270 88.1307 270.559 87.0518 271.929C86 273.266 86 275.235 86 277.96V283.153C86 288.433 87.248 291.113 94.0696 291.113H107.93C111.241 291.113 113.076 290.65 114.263 289.513C115.481 288.349 116 286.446 116 283.153V277.96C116 275.086 115.919 273.105 114.831 271.812ZM105.26 281.274L98.9661 284.563C98.8254 284.637 98.6715 284.673 98.5178 284.673C98.3438 284.673 98.1702 284.626 98.0165 284.533C97.7269 284.358 97.5501 284.044 97.5501 283.705V277.147C97.5501 276.81 97.7264 276.496 98.0154 276.32C98.3045 276.145 98.664 276.133 98.9639 276.289L105.258 279.557C105.578 279.723 105.779 280.054 105.78 280.414C105.78 280.775 105.58 281.106 105.26 281.274Z" fill="#ECAB00"/>
<path d="M82.7524 239.006L78.9918 239C74.7668 239 72.0365 241.801 72.0365 246.137V249.428H68.2554C67.9286 249.428 67.6641 249.692 67.6641 250.019V254.787C67.6641 255.114 67.9289 255.378 68.2554 255.378H72.0365V267.409C72.0365 267.735 72.3011 268 72.6278 268H77.5611C77.8879 268 78.1524 267.735 78.1524 267.409V255.378H82.5735C82.9002 255.378 83.1648 255.114 83.1648 254.787L83.1666 250.019C83.1666 249.862 83.1041 249.712 82.9934 249.601C82.8827 249.49 82.7319 249.428 82.575 249.428H78.1524V246.638C78.1524 245.297 78.4719 244.617 80.2184 244.617L82.7518 244.616C83.0782 244.616 83.3428 244.351 83.3428 244.024V239.597C83.3428 239.271 83.0785 239.007 82.7524 239.006Z" fill="white" fill-opacity="0.5"/>
<path d="M82.7524 270.006L78.9918 270C74.7668 270 72.0365 272.801 72.0365 277.137V280.428H68.2554C67.9286 280.428 67.6641 280.692 67.6641 281.019V285.787C67.6641 286.114 67.9289 286.378 68.2554 286.378H72.0365V298.409C72.0365 298.735 72.3011 299 72.6278 299H77.5611C77.8879 299 78.1524 298.735 78.1524 298.409V286.378H82.5735C82.9002 286.378 83.1648 286.114 83.1648 285.787L83.1666 281.019C83.1666 280.862 83.1041 280.712 82.9934 280.601C82.8827 280.49 82.7319 280.428 82.575 280.428H78.1524V277.638C78.1524 276.297 78.4719 275.617 80.2184 275.617L82.7518 275.616C83.0782 275.616 83.3428 275.351 83.3428 275.024V270.597C83.3428 270.271 83.0785 270.007 82.7524 270.006Z" fill="#ECAB00"/>
<path d="M52.0023 256.334C54.3955 256.334 56.3356 254.394 56.3356 252C56.3356 249.607 54.3955 247.667 52.0023 247.667C49.609 247.667 47.6689 249.607 47.6689 252C47.6689 254.394 49.609 256.334 52.0023 256.334Z" fill="white" fill-opacity="0.5"/>
<path d="M57.4156 239H46.5822C42.4017 239 39 242.403 39 246.584V257.418C39 261.598 42.4028 265 46.5844 265H57.4177C61.5983 265 65 261.597 65 257.416V246.582C65 242.402 61.5973 239 57.4156 239ZM52 258.5C48.4153 258.5 45.5 255.585 45.5 252C45.5 248.415 48.4153 245.5 52 245.5C55.5848 245.5 58.5 248.415 58.5 252C58.5 255.585 55.5848 258.5 52 258.5ZM59.5833 245.5C58.9853 245.5 58.5 245.015 58.5 244.417C58.5 243.819 58.9853 243.333 59.5833 243.333C60.1813 243.333 60.6667 243.819 60.6667 244.417C60.6667 245.015 60.1813 245.5 59.5833 245.5Z" fill="white" fill-opacity="0.5"/>
<path d="M52.0023 287.334C54.3955 287.334 56.3356 285.394 56.3356 283C56.3356 280.607 54.3955 278.667 52.0023 278.667C49.609 278.667 47.6689 280.607 47.6689 283C47.6689 285.394 49.609 287.334 52.0023 287.334Z" fill="#ECAB00"/>
<path d="M57.4156 270H46.5822C42.4017 270 39 273.403 39 277.584V288.418C39 292.598 42.4028 296 46.5844 296H57.4177C61.5983 296 65 292.597 65 288.416V277.582C65 273.402 61.5973 270 57.4156 270ZM52 289.5C48.4153 289.5 45.5 286.585 45.5 283C45.5 279.415 48.4153 276.5 52 276.5C55.5848 276.5 58.5 279.415 58.5 283C58.5 286.585 55.5848 289.5 52 289.5ZM59.5833 276.5C58.9853 276.5 58.5 276.015 58.5 275.417C58.5 274.819 58.9853 274.333 59.5833 274.333C60.1813 274.333 60.6667 274.819 60.6667 275.417C60.6667 276.015 60.1813 276.5 59.5833 276.5Z" fill="#ECAB00"/>
<path d="M18.9644 259.949H21.8051C21.8051 259.949 22.4372 259.876 22.7591 259.513C23.0553 259.179 23.0459 258.552 23.0459 258.552C23.0459 258.552 23.2022 255.716 24.5036 255.284C25.7864 254.86 27.2371 258.022 28.9864 259.277C30.3088 260.226 31.3117 260.019 31.3117 260.019L35.2324 259.949C35.2324 259.949 37.7349 259.739 36.5758 257.726C36.4802 257.563 36.002 256.145 33.2032 253.425C30.2738 250.577 30.6657 252.378 34.1945 247.452C36.3449 244.453 37.2638 242.599 36.935 241.836C36.6994 241.29 35.0994 241.29 35.0994 241.29L30.4348 241.325C30.4348 241.325 30.0429 241.269 29.7537 241.451C29.4692 241.628 29.2896 242.043 29.2896 242.043C29.2896 242.043 28.4569 243.198 27.3467 245.173C25.0051 249.337 24.0675 248.215 23.685 247.958C22.7917 247.357 23.0179 245.955 23.0179 244.248C23.0179 240.21 23.6034 239.695 21.8798 239.259C21.3083 239.114 20.2914 239.018 18.8267 239.002C16.9516 238.981 15.6548 239.112 14.7545 239.576C14.1574 239.884 13.6956 240.565 13.9755 240.607C14.323 240.656 15.1113 240.828 15.5265 241.423C16.0676 242.19 16.0489 242.748 16.0489 242.748C16.0489 242.748 16.3591 247.499 15.3259 248.091C14.6169 248.495 13.3481 248.901 11.2607 245.124C10.1901 243.189 9.38081 242.214 9.38081 242.214C9.38081 242.214 9.22687 241.815 8.94699 241.6C8.60881 241.341 8.14001 241.29 8.14001 241.29L3.13949 241.292C3.13949 241.292 2.38848 241.313 2.1156 241.656C1.86837 241.962 2.09461 242.589 2.09461 242.589C2.09461 242.589 6.00826 250.836 10.4397 255.667C14.5096 260.093 18.9644 259.949 18.9644 259.949Z" fill="white" fill-opacity="0.5"/>
<path d="M18.9644 290.949H21.8051C21.8051 290.949 22.4372 290.876 22.7591 290.513C23.0553 290.179 23.0459 289.552 23.0459 289.552C23.0459 289.552 23.2022 286.716 24.5036 286.284C25.7864 285.86 27.2371 289.022 28.9864 290.277C30.3088 291.226 31.3117 291.019 31.3117 291.019L35.2324 290.949C35.2324 290.949 37.7349 290.739 36.5758 288.726C36.4802 288.563 36.002 287.145 33.2032 284.425C30.2738 281.577 30.6657 283.378 34.1945 278.452C36.3449 275.453 37.2638 273.599 36.935 272.836C36.6994 272.29 35.0994 272.29 35.0994 272.29L30.4348 272.325C30.4348 272.325 30.0429 272.269 29.7537 272.451C29.4692 272.628 29.2896 273.043 29.2896 273.043C29.2896 273.043 28.4569 274.198 27.3467 276.173C25.0051 280.337 24.0675 279.215 23.685 278.958C22.7917 278.357 23.0179 276.955 23.0179 275.248C23.0179 271.21 23.6034 270.695 21.8798 270.259C21.3083 270.114 20.2914 270.018 18.8267 270.002C16.9516 269.981 15.6548 270.112 14.7545 270.576C14.1574 270.884 13.6956 271.565 13.9755 271.607C14.323 271.656 15.1113 271.828 15.5265 272.423C16.0676 273.19 16.0489 273.748 16.0489 273.748C16.0489 273.748 16.3591 278.499 15.3259 279.091C14.6169 279.495 13.3481 279.901 11.2607 276.124C10.1901 274.189 9.38081 273.214 9.38081 273.214C9.38081 273.214 9.22687 272.815 8.94699 272.6C8.60881 272.341 8.14001 272.29 8.14001 272.29L3.13949 272.292C3.13949 272.292 2.38848 272.313 2.1156 272.656C1.86837 272.962 2.09461 273.589 2.09461 273.589C2.09461 273.589 6.00826 281.836 10.4397 286.667C14.5096 291.093 18.9644 290.949 18.9644 290.949Z" fill="#ECAB00"/>
<circle cx="140" cy="260" r="15" fill="#51ACBF"/>
<path d="M141.317 268V258.594H145.536V255.781H141.317V252H138.505V255.781H134.286V258.594H138.505V268H141.317Z" fill="white"/>
</svg>
