<svg width="18" height="34" viewBox="0 0 18 34" fill="none" xmlns="http://www.w3.org/2000/svg">
<path d="M9 0C4.03729 0 0 4.03729 0 9V24.8824C0 29.8451 4.03729 33.8824 9 33.8824C13.9627 33.8824 18 29.8451 18 24.8824V9C18 4.03729 13.9627 0 9 0ZM16.9412 24.8824C16.9412 29.2611 13.3788 32.8235 9 32.8235C4.62124 32.8235 1.05882 29.2611 1.05882 24.8824V9C1.05882 4.62124 4.62124 1.05882 9 1.05882C13.3788 1.05882 16.9412 4.62124 16.9412 9V24.8824Z" fill="white"/>
<path d="M9.52953 5.29395H8.4707V9.52924H9.52953V5.29395Z" fill="white"/>
</svg>
