<svg width="18" height="18" viewBox="0 0 18 18" fill="none" xmlns="http://www.w3.org/2000/svg">
<path d="M14.2759 2.48277V0H0V15.2069C0 16.747 1.253 18 2.79309 18H15.2069C16.747 18 18 16.747 18 15.2069V2.48277H14.2759ZM11.7931 13.6552H2.48277V11.7931H11.7931V13.6552H11.7931ZM11.7931 9.93104H2.48277V8.06896H11.7931V9.93104H11.7931ZM11.7931 4.34482V6.20691H2.48277V4.34482V2.48277H11.7931V4.34482H11.7931ZM16.1379 15.2069C16.1379 15.7203 15.7203 16.1379 15.2069 16.1379C14.6935 16.1379 14.2758 15.7203 14.2758 15.2069V4.34482H16.1379V15.2069Z" fill="white"/>
</svg>
