<svg width="512" height="512" viewBox="0 0 512 512" fill="none" xmlns="http://www.w3.org/2000/svg">
<path d="M489.828 29.0132C488.975 28.1602 488.975 28.1602 488.975 28.1602L463.375 2.56024C459.962 -0.852762 454.842 -0.852762 451.428 2.56024C448.015 5.97324 448.015 11.0932 451.428 14.5072L462.521 25.6002H374.014L385.107 14.5072C386.814 12.8002 387.667 11.0942 387.667 8.53424C387.667 5.97424 386.814 4.26724 385.107 2.56124C381.694 -0.851762 376.574 -0.851762 373.16 2.56124L347.56 28.1612C345.853 29.0142 345 31.5742 345 33.2812C345 34.1342 345 34.1342 345 34.9882C345 36.6952 345.853 38.4012 346.707 39.2552C347.56 40.1082 347.56 40.1082 347.56 40.1082L373.16 65.7082C376.573 69.1212 381.693 69.1212 385.107 65.7082C388.521 62.2952 388.52 57.1752 385.107 53.7612L374.014 42.6682H462.521L451.428 53.7602C449.721 55.4672 448.868 57.1732 448.868 59.7332C448.868 62.2932 449.721 64.0002 451.428 65.7062C453.135 67.4122 454.841 68.2662 457.401 68.2662C459.961 68.2662 461.668 67.4132 463.374 65.7062L488.974 40.1062C490.681 39.2532 491.534 36.6932 491.534 34.9862C491.534 34.1332 491.534 34.1332 491.534 33.2792C491.534 31.5732 490.681 29.8672 489.828 29.0132Z" fill="white"/>
<path d="M332.692 179.2C325.012 179.2 317.332 181.76 311.359 186.88V179.2C311.359 158.72 295.146 136.533 272.959 136.533C265.279 136.533 257.599 139.093 251.626 144.213V42.667C251.626 22.187 235.413 0 213.226 0C203.839 0 195.306 4.267 188.479 11.093C181.652 17.066 177.386 25.6 175.679 34.133C169.706 29.013 162.026 25.6 153.492 25.6C131.305 25.6 115.092 47.787 115.092 68.267V223.574C107.412 207.361 97.1721 192.001 86.9321 181.761C73.2791 168.108 45.9721 167.254 30.6121 180.054C26.3451 184.321 11.8391 199.681 31.4651 226.987C49.3851 252.587 63.8921 308.907 63.8921 341.334C63.8921 409.601 108.265 440.321 123.625 448.854V503.467C123.625 508.587 127.038 512 132.158 512C137.278 512 140.691 508.587 140.691 503.467V443.734C140.691 440.321 138.984 437.761 135.571 436.054C133.011 435.201 80.9581 410.454 80.9581 341.334C80.9581 309.761 67.3051 247.467 45.1181 216.747C39.1451 209.067 34.0251 198.827 41.7051 192.854C50.2381 186.027 67.3051 186.027 74.9851 193.707C96.3181 215.04 115.092 260.267 115.092 281.6C115.092 286.72 118.505 290.133 123.625 290.133C128.745 290.133 132.158 286.72 132.158 281.6V68.267C132.158 56.32 141.545 42.667 153.491 42.667C165.438 42.667 174.824 56.32 174.824 68.267V230.4C174.824 235.52 178.237 238.933 183.357 238.933C188.477 238.933 191.89 235.52 191.89 230.4V42.667C191.89 35.84 195.303 28.16 200.423 23.04C203.836 19.627 208.956 17.067 213.223 17.067C225.17 17.067 234.556 30.72 234.556 42.667V238.934C234.556 244.054 237.969 247.467 243.089 247.467C248.209 247.467 251.622 244.054 251.622 238.934V179.2C251.622 167.253 261.009 153.6 272.955 153.6C284.902 153.6 294.288 167.253 294.288 179.2V220.16C294.288 221.013 294.288 221.013 294.288 221.867V256C294.288 261.12 297.701 264.533 302.821 264.533C307.941 264.533 311.354 261.12 311.354 256V220.16C312.207 209.067 321.594 196.267 332.687 196.267C344.634 196.267 354.02 209.92 354.02 221.867V341.334C354.02 406.187 354.02 406.187 330.127 438.614C328.42 440.321 328.42 442.881 328.42 444.587V503.467C328.42 508.587 331.833 512 336.953 512C342.073 512 345.486 508.587 345.486 503.467V446.294C371.086 412.161 371.086 407.894 371.086 341.334V221.867C371.092 201.387 354.878 179.2 332.692 179.2Z" fill="white"/>
</svg>
