<svg width="18" height="18" viewBox="0 0 18 18" fill="none" xmlns="http://www.w3.org/2000/svg">
<path d="M2.26351 2.26358C3.7232 0.803886 5.66394 0 7.72822 0C9.7925 0 11.7332 0.803886 13.1929 2.26358C14.6525 3.72324 15.4565 5.66398 15.4565 7.72822C15.4565 9.61552 14.7841 11.3993 13.5534 12.8068L17.8454 17.0989C18.0515 17.305 18.0515 17.6393 17.8454 17.8455C17.7423 17.9485 17.6072 18.0001 17.4721 18.0001C17.3371 18.0001 17.2019 17.9485 17.0989 17.8454L12.8068 13.5534C11.3993 14.7841 9.61552 15.4565 7.72822 15.4565C5.66391 15.4565 3.72324 14.6526 2.26354 13.1929C0.803885 11.7333 0 9.79253 0 7.72825C0 5.66398 0.80385 3.72324 2.26351 2.26358ZM3.01009 12.4464C5.6117 15.048 9.8447 15.048 12.4463 12.4464C15.0479 9.84481 15.0479 5.61173 12.4463 3.01016C11.1454 1.70923 9.43706 1.05898 7.72818 1.05898C6.01972 1.05898 4.3107 1.70955 3.01005 3.01016C0.408552 5.6117 0.408552 9.84477 3.01009 12.4464Z" fill="white"/>
</svg>
