<svg xmlns="http://www.w3.org/2000/svg" viewBox="0 0 50 50"><title>about-trigger-icon-3</title><g style="opacity:0.8"><path d="M22.17529,18.812l-.08838.09229c-.084.08789-.09668.10205-.09668.28613,0,.18506.0127.19873.09717.28662l.08838.09229h3.00684l.10156-.09668c.0918-.08838.0918-.08838.0918-.28223,0-.19336,0-.19336-.09278-.28223l-.10058-.09619Z" style="fill:#5c7762"/><path d="M38.15625,45.79c2.6709,1.33984,2.72363,1.28027,2.915,1.10156.09277-.08887.09277-.08887.09277-.249a20.19273,20.19273,0,0,0-.64941-2.92285.49648.49648,0,0,0-.28418-.09278h-.001a.43525.43525,0,0,0-.33594.16211.76123.76123,0,0,0-.08789.11524,2.50093,2.50093,0,0,0,.01954.2998c.05078.47461.01269.71485-.14063.88477l-.14941.165-.24121.00976c-.12207,0-.21,0-1.97657-.88867a11.80256,11.80256,0,0,0-1.77539-.78125,19.74815,19.74815,0,0,0-2.00976.59082c-1.94825.65527-2.12793.63184-2.23243.61426l-.27636-.044-.168-.293c-.13965-.335.06152-.61132.39551-1.07031a12.62718,12.62718,0,0,0,.82812-1.38281,10.30631,10.30631,0,0,0,1.19141-5.55566c0-1.75782,0-1.94141.27832-2.39063a3.2257,3.2257,0,0,0,.2168-.39258.71253.71253,0,0,1,.64062-.47851c.14941,0,.26758,0,1.79492,1.02929l1.56153,1.05274.19531.80371c.15137.6289.25976.6289.498.6289.13086,0,.35743-.03125.39649-.2373A6.07792,6.07792,0,0,0,38.47168,34.75c-.05762-.041-.78906-.56543-1.84863-1.27441-1.95606-1.31153-1.99414-1.41211-2.05274-1.56543-.06836-.17481-.10644-.27246.627-2.42286l.65039-1.9082.10839-2.93262.82129-.44482a6.607,6.607,0,0,0,1.25586-1.01611c.98243-.97217,1.26563-1.54053,1.78321-3.57715.417-1.64111.5664-1.8125.623-1.877a5.188,5.188,0,0,0,.6045-1.314,5.53446,5.53446,0,0,0-.0293-2.45264,4.56513,4.56513,0,0,0-1.79883-2.40918l-.68164-.45507L38.53027,9.938a3.944,3.944,0,0,0-.6289-2.30225,4.512,4.512,0,0,0-3.14063-2.00586c-.4248,0-.75781-.23242-1.36621-.72607a9.08268,9.08268,0,0,0-3.91992-1.7876,14.39338,14.39338,0,0,0-3.66895.00342,8.90536,8.90536,0,0,0-4.74658,2.54053l-.728.79394-.9707-.3999a5.01046,5.01046,0,0,0-2.28955-.42432,5.02752,5.02752,0,0,0-3.9585,1.64991,4.94048,4.94048,0,0,0-1.49023,2.50878,7.46766,7.46766,0,0,0-.0415,2.82569c.081.33545.1416.63965.14355.67431.021.32276-.20361.48682-.80469.83887A4.165,4.165,0,0,0,8.8335,17.87256a3.93737,3.93737,0,0,0,.58886,2.24756A4.34369,4.34369,0,0,0,11.55957,21.938c.75.27441.93848.55176,1.19775,1.36279a5.97156,5.97156,0,0,0,3.25391,3.76465l.71533.31152.00586,1.84766a6.69109,6.69109,0,0,0,.16065,2.001l.07763.26562c.32618,1.0918.102,1.28418-1.00976,2.01465l-.36133.23828c-.79443.5293-1.36328.94336-1.45264,1.02734-.10595.2461-.76611,3.124-1.37158,5.79688-.75342,3.32422-1.28711,5.8457-1.3125,6.11621a.3028.3028,0,0,0,.34668.30371c.13965-.01758,1.168-.30078,3.981-1.24219l3.9458-1.32129,3.94531,1.32032c2.24512.75293,3.78223,1.21484,3.98731,1.24707.11328-.03125,1.63671-.48731,3.86035-1.23047l3.94824-1.31836ZM34.05859,30.1543c-1.06347,3.20215-1.10546,3.32715-1.56836,3.77734a1.9866,1.9866,0,0,1-1.10839.59863c-.24707.05176-1.76465.08789-3.39746.08789a28.17638,28.17638,0,0,1-4.36719-.19043,2.57032,2.57032,0,0,1-1.12842-1.04687c-.14209-.27148-1.08936-4.05469-1.27783-4.81055l-1.08155-4.33789-1.11084-1.13818c-1.04394-1.06934-1.31835-1.396-1.40917-1.82764-.08252-.39355-.0835-4.06006-.0835-4.09717V13.38672l.31152-.53125c.21094-.35986.55127-.83838,1.06543-.83838.25049,0,.44776.12207.82813.7876a3.0837,3.0837,0,0,0,1.34961,1.25293,2.25376,2.25376,0,0,0,1.105.22461,2.71478,2.71478,0,0,0,1.77881-.39991l.55615-.3623.87207.36035a7.43871,7.43871,0,0,0,1.00683.32959,8.63515,8.63515,0,0,0,2.60743-.03613A5.86941,5.86941,0,0,0,31.374,12.9126l.84571-.77686.61132.32959a5.188,5.188,0,0,1,1.791,2.05469,6.79132,6.79132,0,0,1,.50781,3.12305l-.0459,1.10986-1.82324.05859c-1.252.04-1.28418.05616-1.68164.25147a3.4603,3.4603,0,0,0-1.44336,1.4458l-.209.42725L29.833,26.665l-1.53125.03711a5.57522,5.57522,0,0,0-.8877.05469.4397.4397,0,0,0-.06347.62988l.08789.0918h3.01465l.17578-.18457.02636-2.83545c.02637-2.84278.03614-3.16846.25-3.56983.57618-1.08056,1.251-1.25928,2.64258-1.26855l1.55176-.01026.05078,7.25537ZM21.38672,34.16309a.5884.5884,0,0,1-.397.1455,2.02824,2.02824,0,0,1-.8584-.30566,4.90687,4.90687,0,0,1-2.55469-3.76465c-.0625-.51074-.23926-2.20508.11035-2.55469.09815-.09863.26123-.26171,1.38281-.19531.58008.03613.80176.10449.94922.293l.00147.002a11.62407,11.62407,0,0,1,.77246,2.71192c.34863,1.41113.65039,2.56543.70312,2.71875C21.56445,33.41113,21.72412,33.87305,21.38672,34.16309ZM12.229,21.1001c-.68554.2583-1.76318-.99219-1.77392-1.00489a3.57335,3.57335,0,0,1-.5625-3.50292,3.80525,3.80525,0,0,1,1.98584-1.99024,3.34353,3.34353,0,0,1,.8374-.21777.90253.90253,0,0,0,.2627-.33887c.01416-.07422.01367-.16748-.14356-.50439a5.00142,5.00142,0,0,1-.52734-2.3169,4.45906,4.45906,0,0,1,1.4956-3.44287,4.34094,4.34094,0,0,1,3.53711-1.2876,4.49056,4.49056,0,0,1,2.66748.92285c.22217.15821.37744.228.46778.21436.16211-.02832.43847-.3252.82226-.88184a7.46759,7.46759,0,0,1,2.3667-1.99365,8.71724,8.71724,0,0,1,5.48682-.80957,8.02413,8.02413,0,0,1,4.37207,2.24072c.20019.19434.36133.28565.96875.2876a3.56833,3.56833,0,0,1,2.9834,2.2124,4.0534,4.0534,0,0,1,.05468,2.41309.592.592,0,0,0,.03321.59375,2.709,2.709,0,0,0,.54687.27,3.681,3.681,0,0,1,1.99121,1.98144,4.05136,4.05136,0,0,1,.05957,2.43311,4.96591,4.96591,0,0,1-.50781.9624,5.47673,5.47673,0,0,0-.63184,1.854,16.33342,16.33342,0,0,1-.66113,2.13769c-.11035.22656-1.19433,1.874-1.83691,1.874-.62207,0-.62207,0-.62207-4.03173,0-3.99512-.02246-4.041-.58985-5.21436a4.30419,4.30419,0,0,0-1.05761-1.40625,4.447,4.447,0,0,0-1.41016-1.06982,2.476,2.476,0,0,0-.86621-.31787,2.557,2.557,0,0,0-.67774.59179A4.64141,4.64141,0,0,1,29.709,12.98438l-.85253.42285H27.63672a3.29282,3.29282,0,0,1-1.915-.332,7.76356,7.76356,0,0,1-.92236-.50635.62868.62868,0,0,0-.34473-.08447c-.17236,0-.17236,0-.32764.16162a2.35943,2.35943,0,0,1-1.76025.80517A2.15482,2.15482,0,0,1,20.165,11.37988c-.03565-.26465-.085-.32373-.1626-.39843a.80988.80988,0,0,0-.09082-.08155c-.04394-.00635-.30664.00928-.48291.01905a2.2573,2.2573,0,0,0-1.01953.24218,3.42474,3.42474,0,0,0-1.43066,1.43848l-.209.42725-.09375,5.71484-1.29785.07129a2.6616,2.6616,0,0,0-1.1543.23535A3.45,3.45,0,0,0,12.811,20.37207C12.51855,20.98877,12.31543,21.06641,12.229,21.1001Zm4.32813,5.24072a5.18914,5.18914,0,0,1-2.81738-2.82422,3.65523,3.65523,0,0,1-.36817-2.28125A2.44279,2.44279,0,0,1,15.854,19.59912l.80274.03369.07129,1.24268c.05859,1.01269.20459,1.38623,1.51025,2.73047,1.022,1.05273,1.15332,1.188,1.29541,1.87646.13965.68067.07764.89844-.08594,1.06153a1.013,1.013,0,0,1-.67968.166A10.51682,10.51682,0,0,1,16.55713,26.34082Zm7.84766,18.12207-.1084.25879-.33838.07715c-.09863.01855-.269.04394-2.23-.61426a19.24827,19.24827,0,0,0-2.01172-.5918c-.12647.02539-1.37061.39063-3.21485,1.00586a19.52021,19.52021,0,0,1-3.3457,1.00293.37383.37383,0,0,1-.30957-.14843c-.48437-.49024,2.12256-10.18946,2.18408-10.252a19.17764,19.17764,0,0,1,2.68116-1.74023c.16845-.00684.291-.01953.97558.60254a6.00319,6.00319,0,0,0,2.21533,1.16992,2.72712,2.72712,0,0,1,.77637.28027c.271.2041.31152.54492.31152,1.61133a10.73693,10.73693,0,0,0,.55567,3.458,13.74069,13.74069,0,0,0,1.46338,2.80859C24.34326,43.85059,24.54492,44.127,24.40479,44.46289Zm3.22314,1.15234c-.18359,0-.35742,0-1.63965-1.31445a9.87321,9.87321,0,0,1-2.87256-4.81348,14.62323,14.62323,0,0,1-.30566-3.64746c.17285-.44921.17285-.44921,4.74853-.47363,2.40235-.01367,4.00977-.03223,4.24219-.041a.62066.62066,0,0,1,.65137.42773c.03125.083.09082.23535-.01172,1.64453a9.91836,9.91836,0,0,1-1.62891,5.10059C30.65332,42.74316,28.29883,45.61523,27.62793,45.61523Z" style="fill:#5c7762"/><path d="M39.2959,40.57324c.28223,0,.37695-.09863.37695-.38965,0-.23339-.06347-.36816-.38672-.36816-.18164,0-.18261,0-.2705.0918-.084.08789-.09668.10156-.09668.28711C38.919,40.47363,39.01758,40.57324,39.2959,40.57324Z" style="fill:#5c7762"/></g></svg>