<svg width="50" height="50" viewBox="0 0 50 50" fill="none" xmlns="http://www.w3.org/2000/svg">
<g opacity="0.8">
<path d="M42.1446 26.7949C42.1161 26.7987 42.0872 26.7987 42.0586 26.7949C42.0086 26.7834 41.9613 26.7621 41.9195 26.7324C41.8777 26.7026 41.8422 26.6648 41.815 26.6213C41.7878 26.5777 41.7694 26.5293 41.761 26.4786C41.7525 26.428 41.7541 26.3762 41.7657 26.3262C42.0809 24.9544 42.2536 23.5537 42.2813 22.1465C42.2813 22.0429 42.3225 21.9435 42.3957 21.8703C42.469 21.797 42.5683 21.7559 42.6719 21.7559C42.7755 21.7559 42.8749 21.797 42.9481 21.8703C43.0214 21.9435 43.0625 22.0429 43.0625 22.1465C43.0353 23.6086 42.8586 25.0641 42.5352 26.4902C42.5154 26.5784 42.4656 26.6569 42.3944 26.7124C42.3232 26.768 42.2349 26.7971 42.1446 26.7949Z" fill="#5C7762"/>
<path d="M42.6761 22.5316C42.5725 22.5316 42.4731 22.4905 42.3999 22.4172C42.3266 22.344 42.2855 22.2446 42.2855 22.141V21.9652C42.2855 21.8832 42.2855 21.8051 42.2855 21.7231C42.2883 19.662 41.9775 17.6125 41.3636 15.6449C41.3325 15.546 41.342 15.4388 41.39 15.3468C41.438 15.2549 41.5205 15.1858 41.6194 15.1547C41.7184 15.1236 41.8256 15.1331 41.9176 15.1811C42.0095 15.2291 42.0786 15.3116 42.1097 15.4106C42.7477 17.4526 43.0717 19.5797 43.0706 21.7191V21.9848V22.1488C43.0686 22.2518 43.026 22.3497 42.9521 22.4214C42.8782 22.4931 42.779 22.5327 42.6761 22.5316Z" fill="#5C7762"/>
<path d="M41.7541 15.9186C41.6679 15.9225 41.5829 15.8979 41.5122 15.8484C41.4415 15.7989 41.3892 15.7275 41.3634 15.6452C40.0507 11.4945 37.4513 7.86909 33.9416 5.2936C33.8946 5.26471 33.8544 5.22622 33.8234 5.18065C33.7924 5.13508 33.7714 5.08347 33.7617 5.02921C33.7521 4.97495 33.754 4.91927 33.7675 4.86581C33.7809 4.81236 33.8055 4.76236 33.8396 4.71908C33.8737 4.6758 33.9166 4.64024 33.9654 4.61472C34.0143 4.5892 34.068 4.5743 34.123 4.57101C34.178 4.56772 34.2331 4.5761 34.2846 4.59562C34.3362 4.61513 34.383 4.64532 34.422 4.68422C38.0631 7.35832 40.7583 11.1221 42.1174 15.4303C42.148 15.5287 42.1386 15.6353 42.091 15.7268C42.0434 15.8182 41.9616 15.8872 41.8634 15.9186C41.8273 15.9251 41.7902 15.9251 41.7541 15.9186Z" fill="#5C7762"/>
<path d="M38.4768 34.63C38.3923 34.63 38.3101 34.6026 38.2424 34.5519C38.2012 34.5208 38.1664 34.4818 38.1403 34.4372C38.1142 34.3926 38.0972 34.3432 38.0903 34.292C38.0834 34.2407 38.0867 34.1887 38.1001 34.1387C38.1135 34.0888 38.1366 34.042 38.1682 34.0011C38.7442 33.2403 39.2663 32.4401 39.7307 31.6066C39.7564 31.5617 39.7906 31.5223 39.8315 31.4906C39.8724 31.459 39.9191 31.4357 39.9689 31.4221C40.0188 31.4085 40.0709 31.4048 40.1222 31.4113C40.1735 31.4179 40.223 31.4344 40.2678 31.4601C40.3127 31.4857 40.3521 31.52 40.3838 31.5608C40.4154 31.6017 40.4387 31.6484 40.4523 31.6983C40.4659 31.7482 40.4696 31.8002 40.463 31.8515C40.4565 31.9028 40.44 31.9523 40.4143 31.9972C39.9322 32.864 39.3892 33.6955 38.7893 34.4855C38.7517 34.5318 38.704 34.569 38.6499 34.594C38.5957 34.6191 38.5365 34.6314 38.4768 34.63Z" fill="#5C7762"/>
<path d="M40.0742 32.1856C40.0074 32.1866 39.9415 32.1705 39.8828 32.1387C39.8379 32.1139 39.7983 32.0804 39.7664 32.0403C39.7344 32.0001 39.7107 31.954 39.6965 31.9047C39.6824 31.8554 39.6781 31.8037 39.6839 31.7527C39.6897 31.7017 39.7055 31.6524 39.7304 31.6075C40.0703 31.002 40.375 30.377 40.6445 29.7598C40.6865 29.6645 40.7646 29.5898 40.8616 29.5521C40.9097 29.5334 40.961 29.5244 41.0125 29.5255C41.0641 29.5266 41.1149 29.5379 41.1621 29.5587C41.2093 29.5794 41.2519 29.6093 41.2876 29.6466C41.3232 29.6838 41.3512 29.7277 41.3699 29.7758C41.3885 29.8239 41.3976 29.8751 41.3964 29.9267C41.3953 29.9782 41.384 30.0291 41.3633 30.0763C41.0813 30.7314 40.7658 31.3716 40.418 31.9942C40.3827 32.0537 40.3323 32.1027 40.2719 32.1364C40.2115 32.17 40.1433 32.187 40.0742 32.1856Z" fill="#5C7762"/>
<path d="M41.0001 30.3011C40.9476 30.302 40.8956 30.2914 40.8478 30.2698C40.7532 30.2286 40.6788 30.1517 40.6407 30.0558C40.6027 29.96 40.6041 29.8529 40.6446 29.7581C41.1139 28.6441 41.4851 27.4913 41.754 26.3128C41.7655 26.2628 41.7868 26.2155 41.8166 26.1737C41.8464 26.1319 41.8841 26.0964 41.9276 26.0691C41.9712 26.0419 42.0197 26.0236 42.0703 26.0151C42.1209 26.0066 42.1727 26.0083 42.2228 26.0198C42.2728 26.0313 42.3201 26.0526 42.3619 26.0824C42.4037 26.1122 42.4392 26.1499 42.4664 26.1935C42.4936 26.237 42.512 26.2855 42.5204 26.3361C42.5289 26.3868 42.5273 26.4386 42.5157 26.4886C42.2393 27.7159 41.8537 28.916 41.3634 30.0745C41.3315 30.1435 41.2801 30.2017 41.2155 30.242C41.151 30.2822 41.0761 30.3028 41.0001 30.3011Z" fill="#5C7762"/>
<path d="M21.9296 42.8543C17.0065 42.8567 12.2369 41.1412 8.44327 38.0035C4.6496 34.8659 2.06967 30.5029 1.14835 25.6668C1.12919 25.5632 1.15196 25.4562 1.21167 25.3694C1.27137 25.2826 1.36311 25.2231 1.46671 25.2039C1.57031 25.1847 1.67728 25.2075 1.76409 25.2672C1.8509 25.3269 1.91044 25.4187 1.9296 25.5223C2.67054 29.3894 4.51635 32.959 7.24368 35.799C9.97101 38.639 13.463 40.6278 17.297 41.5246C21.131 42.4214 25.1428 42.1879 28.8468 40.8523C32.5509 39.5166 35.7885 37.1361 38.1679 33.9988C38.1979 33.9555 38.2365 33.9187 38.2811 33.8906C38.3258 33.8626 38.3757 33.8438 38.4278 33.8356C38.4799 33.8273 38.5331 33.8297 38.5843 33.8426C38.6354 33.8555 38.6835 33.8786 38.7254 33.9106C38.7674 33.9425 38.8025 33.9826 38.8285 34.0285C38.8546 34.0744 38.8711 34.125 38.877 34.1774C38.883 34.2299 38.8782 34.2829 38.8631 34.3335C38.848 34.384 38.8227 34.4309 38.789 34.4715C36.8255 37.0849 34.2788 39.2037 31.3518 40.6591C28.4248 42.1144 25.1984 42.8661 21.9296 42.8543Z" fill="#5C7762"/>
<path d="M11.8479 3.97661C11.7621 3.9737 11.6797 3.9426 11.6133 3.88812C11.547 3.83365 11.5004 3.75883 11.4808 3.67523C11.4613 3.59163 11.4698 3.50392 11.5051 3.42565C11.5404 3.34739 11.6005 3.28292 11.6761 3.24224C14.8185 1.50004 18.3525 0.585938 21.9456 0.585938C25.5387 0.585938 29.0727 1.50004 32.2151 3.24224C32.3058 3.29404 32.3721 3.37973 32.3996 3.48045C32.4271 3.58118 32.4134 3.6887 32.3616 3.77935C32.3098 3.87 32.2241 3.93636 32.1234 3.96383C32.0227 3.9913 31.9151 3.97763 31.8245 3.92583C28.7981 2.24758 25.3944 1.36701 21.9339 1.36701C18.4733 1.36701 15.0696 2.24758 12.0432 3.92583C11.9842 3.96067 11.9165 3.97826 11.8479 3.97661Z" fill="#5C7762"/>
<path d="M1.172 22.1106C1.0684 22.1106 0.969042 22.0695 0.895786 21.9962C0.822529 21.923 0.781374 21.8236 0.781374 21.72C0.770135 18.4524 1.52215 15.2273 2.97751 12.3017C4.43286 9.37606 6.55135 6.83072 9.16419 4.86846C9.24687 4.81113 9.34848 4.7879 9.44786 4.80363C9.54723 4.81936 9.63671 4.87283 9.69764 4.9529C9.75857 5.03296 9.78626 5.13345 9.77493 5.23342C9.7636 5.3334 9.71414 5.42515 9.63684 5.48956C7.12001 7.37924 5.07937 9.8307 3.67756 12.6486C2.27575 15.4664 1.55153 18.5728 1.56262 21.72C1.56262 21.8236 1.52147 21.923 1.44821 21.9962C1.37496 22.0695 1.2756 22.1106 1.172 22.1106Z" fill="#5C7762"/>
<path d="M9.40242 5.56945C9.34178 5.56945 9.28197 5.55533 9.22773 5.52821C9.17349 5.50109 9.12631 5.46171 9.08992 5.4132C9.02734 5.3308 9.00001 5.22694 9.01393 5.12441C9.02784 5.02188 9.08186 4.92906 9.16414 4.86632C9.96292 4.2674 10.8022 3.72443 11.6759 3.24132C11.7207 3.21567 11.7702 3.19912 11.8215 3.1926C11.8728 3.18608 11.9249 3.18972 11.9748 3.20332C12.0246 3.21693 12.0713 3.24022 12.1122 3.27187C12.1531 3.30353 12.1873 3.34292 12.213 3.38781C12.2386 3.43269 12.2552 3.48219 12.2617 3.53347C12.2682 3.58476 12.2646 3.63682 12.251 3.6867C12.2374 3.73657 12.2141 3.78328 12.1824 3.82415C12.1508 3.86503 12.1114 3.89927 12.0665 3.92492C11.2316 4.38934 10.4302 4.91144 9.66805 5.48742C9.59256 5.54641 9.49803 5.5756 9.40242 5.56945Z" fill="#5C7762"/>
<path d="M41.7539 15.918C41.6898 15.9176 41.6269 15.9015 41.5705 15.871C41.5141 15.8405 41.4661 15.7967 41.4307 15.7433C41.3953 15.6899 41.3735 15.6286 41.3674 15.5648C41.3612 15.501 41.3709 15.4367 41.3954 15.3776C41.42 15.3184 41.4588 15.2662 41.5083 15.2255C41.5578 15.1848 41.6165 15.157 41.6794 15.1444C41.7422 15.1317 41.8071 15.1348 41.8685 15.1532C41.9299 15.1716 41.9858 15.2049 42.0313 15.25C42.0604 15.2819 42.0853 15.3173 42.1055 15.3555C42.1347 15.4151 42.1482 15.4811 42.1448 15.5474C42.1414 15.6137 42.1211 15.6781 42.086 15.7344C42.0508 15.7907 42.0018 15.8371 41.9437 15.8692C41.8856 15.9013 41.8203 15.9181 41.7539 15.918Z" fill="#5C7762"/>
<path d="M41.7541 15.9197C41.6905 15.9202 41.6277 15.9052 41.5712 15.8759C41.5147 15.8467 41.4662 15.804 41.4299 15.7517C39.6891 13.2167 37.397 11.1087 34.7254 9.58581C32.0538 8.0629 29.072 7.16459 26.0038 6.95827C22.9356 6.75194 19.8604 7.24294 17.009 8.39445C14.1575 9.54596 11.6038 11.3281 9.53927 13.6072C9.50464 13.6465 9.46263 13.6785 9.41562 13.7015C9.36861 13.7245 9.31753 13.738 9.2653 13.7413C9.21307 13.7445 9.1607 13.7375 9.1112 13.7205C9.06169 13.7035 9.01601 13.677 8.97677 13.6424C8.93753 13.6077 8.90549 13.5657 8.88248 13.5187C8.85948 13.4717 8.84596 13.4206 8.8427 13.3684C8.83943 13.3162 8.84649 13.2638 8.86346 13.2143C8.88043 13.1648 8.90699 13.1191 8.94161 13.0799C11.0853 10.7141 13.7367 8.86432 16.6971 7.66912C19.6574 6.47392 22.8499 5.96432 26.0353 6.17853C29.2206 6.39274 32.3161 7.3252 35.0898 8.90601C37.8635 10.4868 40.2433 12.675 42.051 15.3064C42.0916 15.365 42.1154 15.4335 42.1199 15.5046C42.1244 15.5758 42.1093 15.6468 42.0763 15.7099C42.0433 15.7731 41.9936 15.826 41.9327 15.863C41.8718 15.9 41.8019 15.9196 41.7307 15.9197H41.7541Z" fill="#5C7762"/>
<path d="M42.6758 22.5333C42.607 22.5336 42.5393 22.5157 42.4796 22.4814C42.42 22.4471 42.3704 22.3976 42.336 22.338C40.5513 19.2159 37.9743 16.6201 34.8652 14.8128C31.7561 13.0055 28.2251 12.0508 24.629 12.045C21.8938 12.0354 19.1851 12.5813 16.6671 13.6496C14.1491 14.7179 11.8743 16.2863 9.98052 18.2599C9.908 18.3345 9.80882 18.3772 9.70479 18.3787C9.60077 18.3801 9.50042 18.3402 9.42583 18.2677C9.35124 18.1952 9.30851 18.096 9.30705 17.992C9.30558 17.8879 9.3455 17.7876 9.41802 17.713C11.3858 15.6656 13.7483 14.0385 16.3627 12.93C18.9772 11.8215 21.7892 11.2547 24.629 11.2638C28.3632 11.2694 32.0298 12.2606 35.2583 14.1372C38.4867 16.0137 41.1627 18.7092 43.0157 21.9513C43.0666 22.041 43.08 22.1472 43.0529 22.2467C43.0258 22.3462 42.9605 22.431 42.8711 22.4825C42.8116 22.5163 42.7443 22.5338 42.6758 22.5333Z" fill="#5C7762"/>
<path d="M10.9609 22.3066C11.1767 22.3066 11.3516 22.1318 11.3516 21.916C11.3516 21.7003 11.1767 21.5254 10.9609 21.5254C10.7452 21.5254 10.5703 21.7003 10.5703 21.916C10.5703 22.1318 10.7452 22.3066 10.9609 22.3066Z" fill="#5C7762"/>
<path d="M42.1447 26.7902C42.079 26.7897 42.0145 26.7726 41.9571 26.7405C41.8998 26.7084 41.8514 26.6624 41.8166 26.6066C40.2397 24.1308 38.1466 22.0248 35.6804 20.4328C33.2142 18.8407 30.4331 17.8003 27.5276 17.3826C24.6221 16.965 21.6606 17.1799 18.8458 18.0128C16.031 18.8456 13.4294 20.2768 11.219 22.2082C11.1412 22.2765 11.0396 22.3111 10.9363 22.3045C10.833 22.2979 10.7366 22.2507 10.6682 22.173C10.5999 22.0953 10.5652 21.9936 10.5718 21.8904C10.5784 21.7871 10.6257 21.6907 10.7033 21.6223C12.9983 19.6156 15.6997 18.1286 18.6228 17.2631C21.5458 16.3976 24.6214 16.1741 27.6389 16.6077C30.6563 17.0414 33.5445 18.1221 36.1055 19.7757C38.6665 21.4294 40.8398 23.617 42.4768 26.1887C42.5326 26.2757 42.5516 26.3814 42.5296 26.4824C42.5076 26.5835 42.4465 26.6717 42.3596 26.7277C42.2956 26.7691 42.2209 26.7908 42.1447 26.7902Z" fill="#5C7762"/>
<path d="M41.0042 30.3034C40.9448 30.3037 40.8862 30.2905 40.8327 30.2648C40.7793 30.239 40.7324 30.2015 40.6956 30.1549C39.9868 29.2481 39.2027 28.4026 38.3518 27.6276C38.2752 27.5577 38.2294 27.4601 38.2247 27.3565C38.2199 27.2528 38.2565 27.1515 38.3264 27.0749C38.3964 26.9982 38.4939 26.9524 38.5975 26.9477C38.7012 26.9429 38.8025 26.9795 38.8792 27.0495C39.7614 27.8589 40.5741 28.7409 41.3089 29.6862C41.3723 29.7676 41.4009 29.8708 41.3885 29.9733C41.376 30.0758 41.3235 30.1692 41.2425 30.2331C41.1728 30.2818 41.0891 30.3065 41.0042 30.3034Z" fill="#5C7762"/>
<path d="M24.8477 34.1426C24.7441 34.1426 24.6447 34.1014 24.5714 34.0282C24.4982 33.9549 24.457 33.8556 24.457 33.752C24.457 33.6484 24.4982 33.549 24.5714 33.4757C24.6447 33.4025 24.7441 33.3613 24.8477 33.3613C24.9513 33.3613 25.0506 33.4025 25.1239 33.4757C25.1971 33.549 25.2383 33.6484 25.2383 33.752C25.2383 33.8556 25.1971 33.9549 25.1239 34.0282C25.0506 34.1014 24.9513 34.1426 24.8477 34.1426Z" fill="#5C7762"/>
<path d="M9.65649 9.91993C9.55289 9.93029 9.44942 9.89908 9.36884 9.83314C9.28825 9.76721 9.23716 9.67197 9.2268 9.56837C9.21644 9.46477 9.24766 9.3613 9.31359 9.28072C9.37952 9.20014 9.47477 9.14904 9.57837 9.13868C11.2138 8.81545 12.8813 8.68435 14.5471 8.74806C14.6507 8.74806 14.7501 8.78921 14.8233 8.86247C14.8966 8.93573 14.9377 9.03508 14.9377 9.13868C14.9377 9.24228 14.8966 9.34164 14.8233 9.4149C14.7501 9.48816 14.6507 9.52931 14.5471 9.52931C12.9423 9.47135 11.3362 9.60246 9.76196 9.91993H9.65649Z" fill="#5C7762"/>
<path d="M9.65247 9.92076C9.55388 9.90834 9.46373 9.85882 9.40038 9.78227C9.33702 9.70573 9.30521 9.60791 9.31144 9.50874C9.31766 9.40957 9.36144 9.3165 9.43387 9.24847C9.5063 9.18045 9.60193 9.14258 9.70129 9.14258C9.80066 9.14258 9.89629 9.18045 9.96872 9.24847C10.0411 9.3165 10.0849 9.40957 10.0912 9.50874C10.0974 9.60791 10.0656 9.70573 10.0022 9.78227C9.93886 9.85882 9.84871 9.90834 9.75012 9.92076H9.69934H9.65247Z" fill="#5C7762"/>
<path d="M25.8789 6.95106C25.8279 6.95044 25.7774 6.93983 25.7305 6.91981C20.9409 4.93914 15.5776 4.85256 10.7266 6.67762C10.6784 6.69574 10.6271 6.70415 10.5756 6.70236C10.5241 6.70057 10.4735 6.68862 10.4267 6.6672C10.3799 6.64578 10.3377 6.61532 10.3027 6.57755C10.2677 6.53979 10.2405 6.49547 10.2227 6.44716C10.1873 6.35027 10.1917 6.24332 10.2348 6.14965C10.278 6.05598 10.3565 5.98319 10.4531 5.94716C15.4897 4.0521 21.0581 4.14146 26.0313 6.19716C26.1166 6.23081 26.1874 6.29341 26.2312 6.37399C26.275 6.45458 26.289 6.54801 26.2708 6.63791C26.2527 6.72782 26.2034 6.80846 26.1318 6.86571C26.0601 6.92297 25.9706 6.95318 25.8789 6.95106Z" fill="#5C7762"/>
<path d="M10.5823 6.70143C10.5004 6.70164 10.4205 6.67611 10.3539 6.62845C10.2873 6.58078 10.2374 6.51339 10.2112 6.43581C10.1786 6.3389 10.1853 6.23309 10.2298 6.14107C10.2744 6.04904 10.3532 5.97816 10.4495 5.94362C10.5463 5.90824 10.6533 5.91262 10.747 5.95579C10.8406 5.99897 10.9134 6.07744 10.9495 6.17409C10.9845 6.26853 10.9818 6.37286 10.9417 6.46531C10.9017 6.55775 10.8275 6.63115 10.7346 6.67018H10.7073C10.6672 6.68607 10.6251 6.69658 10.5823 6.70143Z" fill="#5C7762"/>
<path d="M20.7893 38.1728C20.757 38.1787 20.7239 38.1787 20.6916 38.1728C17.3221 37.3054 14.2187 35.6197 11.657 33.2651C9.09536 30.9106 7.15455 27.96 6.00685 24.6754C4.85915 21.3907 4.54007 17.8735 5.07792 14.436C5.61577 10.9984 6.99391 7.74676 9.09005 4.96964C9.15441 4.90076 9.24151 4.85747 9.33528 4.84778C9.42906 4.83808 9.52317 4.86262 9.60027 4.91687C9.67737 4.97113 9.73224 5.05143 9.75477 5.14297C9.7773 5.23451 9.76597 5.33111 9.72286 5.41495C7.70239 8.0898 6.37366 11.2222 5.85463 14.5339C5.33561 17.8457 5.64235 21.2344 6.74763 24.3991C7.8529 27.5638 9.72251 30.4066 12.1905 32.6752C14.6584 34.9438 17.6483 36.5678 20.8947 37.4032C20.9983 37.4157 21.0928 37.4687 21.1572 37.5508C21.2217 37.6328 21.2509 37.7371 21.2385 37.8407C21.2261 37.9443 21.173 38.0387 21.0909 38.1032C21.0089 38.1677 20.9046 38.1969 20.801 38.1845L20.7893 38.1728Z" fill="#5C7762"/>
<path d="M25.9649 38.8195C25.0232 38.8192 24.0824 38.7579 23.1485 38.6359C23.0974 38.6292 23.0481 38.6124 23.0035 38.5866C22.9589 38.5607 22.9199 38.5263 22.8886 38.4852C22.8574 38.4442 22.8346 38.3974 22.8215 38.3475C22.8085 38.2976 22.8055 38.2456 22.8126 38.1945C22.8262 38.092 22.8799 37.9991 22.9619 37.9362C23.0439 37.8732 23.1476 37.8453 23.2501 37.8586C28.569 38.5683 33.9535 37.1552 38.2384 33.925C38.3213 33.8623 38.4257 33.8351 38.5286 33.8494C38.6315 33.8637 38.7245 33.9183 38.7872 34.0012C38.8499 34.0841 38.8771 34.1884 38.8628 34.2914C38.8485 34.3943 38.7939 34.4873 38.711 34.55C35.0454 37.3323 30.5669 38.8325 25.9649 38.8195Z" fill="#5C7762"/>
<path d="M30.3831 34.7593C30.2795 34.7593 30.1801 34.7182 30.1068 34.6449C30.0336 34.5716 29.9924 34.4723 29.9924 34.3687C29.9924 34.2651 30.0336 34.1657 30.1068 34.0925C30.1801 34.0192 30.2795 33.9781 30.3831 33.9781C31.6164 33.96 32.8454 33.8292 34.0549 33.5874C34.1062 33.5774 34.159 33.5776 34.2102 33.588C34.2614 33.5984 34.3101 33.6188 34.3535 33.648C34.3968 33.6772 34.434 33.7146 34.4628 33.7582C34.4917 33.8018 34.5117 33.8506 34.5217 33.9019C34.5317 33.9532 34.5315 34.006 34.5211 34.0572C34.5108 34.1084 34.4904 34.1571 34.4612 34.2004C34.432 34.2438 34.3945 34.2809 34.351 34.3098C34.3074 34.3387 34.2586 34.3587 34.2073 34.3687C32.952 34.6126 31.6773 34.7433 30.3987 34.7593H30.3831Z" fill="#5C7762"/>
<path d="M9.65622 9.91984H9.57809C9.52782 9.90959 9.48005 9.88954 9.43753 9.86083C9.39501 9.83211 9.35856 9.7953 9.33026 9.7525C9.30197 9.70969 9.28238 9.66173 9.27263 9.61136C9.26287 9.56098 9.26314 9.50918 9.27341 9.45891C9.49992 8.34113 9.81738 7.24373 10.2226 6.17766C10.2594 6.08027 10.3334 6.00149 10.4282 5.95863C10.5231 5.91578 10.6311 5.91236 10.7285 5.94914C10.8259 5.98592 10.9047 6.05988 10.9475 6.15474C10.9904 6.24961 10.9938 6.35762 10.957 6.455C10.5635 7.48097 10.2565 8.53804 10.039 9.61516C10.0195 9.70195 9.97085 9.77945 9.90124 9.83486C9.83163 9.89026 9.74519 9.92024 9.65622 9.91984Z" fill="#5C7762"/>
<path d="M9.69948 18.3769C9.60864 18.3789 9.51994 18.3492 9.44864 18.2929C9.37734 18.2365 9.32791 18.1571 9.30885 18.0683C8.70663 15.2368 8.69201 12.3119 9.26589 9.47453C9.28661 9.37093 9.34763 9.27981 9.43554 9.2212C9.52345 9.1626 9.63104 9.14131 9.73464 9.16203C9.83824 9.18275 9.92936 9.24378 9.98797 9.33169C10.0466 9.4196 10.0679 9.52718 10.0471 9.63078C9.491 12.3686 9.50563 15.1918 10.0901 17.9238C10.103 18.0216 10.0783 18.1208 10.0211 18.2012C9.96382 18.2817 9.87822 18.3375 9.78151 18.3573L9.69948 18.3769Z" fill="#5C7762"/>
<path d="M12.9649 25.8899C12.9019 25.8898 12.8399 25.8745 12.7841 25.8452C12.7283 25.816 12.6805 25.7737 12.6446 25.722C11.8449 24.5762 11.1606 23.3541 10.6016 22.0735C10.5601 21.9782 10.5583 21.8703 10.5964 21.7736C10.6345 21.6769 10.7094 21.5993 10.8047 21.5579C10.9 21.5164 11.0079 21.5146 11.1046 21.5527C11.2013 21.5908 11.2789 21.6657 11.3203 21.761C11.8535 22.9946 12.5077 24.1723 13.2735 25.2766C13.3141 25.3352 13.3379 25.4037 13.3424 25.4749C13.3468 25.546 13.3317 25.617 13.2988 25.6801C13.2658 25.7433 13.2161 25.7962 13.1552 25.8332C13.0943 25.8702 13.0244 25.8898 12.9532 25.8899H12.9649Z" fill="#5C7762"/>
<path d="M10.5899 6.70031C10.5433 6.70071 10.497 6.69278 10.4532 6.67687C10.4049 6.65905 10.3606 6.63185 10.3228 6.59683C10.285 6.56182 10.2546 6.51969 10.2331 6.47285C10.2117 6.42602 10.1998 6.37542 10.198 6.32395C10.1962 6.27248 10.2046 6.22117 10.2227 6.17296C10.582 5.2174 11.0102 4.28918 11.504 3.39562C11.5558 3.30497 11.6415 3.23861 11.7422 3.21114C11.8429 3.18367 11.9504 3.19733 12.0411 3.24913C12.1317 3.30093 12.1981 3.38662 12.2256 3.48735C12.253 3.58808 12.2394 3.69559 12.1876 3.78624C11.7132 4.64722 11.302 5.5415 10.9571 6.46203C10.9267 6.53387 10.8755 6.59496 10.81 6.63743C10.7446 6.6799 10.6679 6.7018 10.5899 6.70031Z" fill="#5C7762"/>
<path d="M30 34.7847C28.2307 34.7863 26.4683 34.5659 24.7539 34.1285C24.7028 34.1166 24.6547 34.0945 24.6123 34.0636C24.57 34.0328 24.5343 33.9936 24.5074 33.9487C24.4804 33.9037 24.4628 33.8537 24.4556 33.8018C24.4484 33.7499 24.4517 33.697 24.4654 33.6464C24.479 33.5958 24.5027 33.5484 24.535 33.5072C24.5673 33.4659 24.6076 33.4316 24.6535 33.4062C24.6994 33.3808 24.7499 33.365 24.8021 33.3595C24.8542 33.3541 24.9069 33.3592 24.957 33.3746C26.6093 33.793 28.3073 34.0043 30.0117 34.0035H30.2109H30.3867C30.4903 34.0035 30.5897 34.0446 30.6629 34.1179C30.7362 34.1911 30.7773 34.2905 30.7773 34.3941C30.7773 34.4977 30.7362 34.5971 30.6629 34.6703C30.5897 34.7436 30.4903 34.7847 30.3867 34.7847H30.2305H30Z" fill="#5C7762"/>
<path d="M37.3478 33.4425C37.268 33.4428 37.1901 33.4186 37.1244 33.3732C37.0588 33.3278 37.0086 33.2634 36.9807 33.1886C36.9624 33.1406 36.9538 33.0895 36.9554 33.0383C36.9569 32.987 36.9685 32.9365 36.9896 32.8897C37.0106 32.8429 37.0406 32.8007 37.078 32.7655C37.1153 32.7304 37.1593 32.7029 37.2072 32.6847C38.1284 32.3414 39.0228 31.9301 39.883 31.4542C39.9736 31.4024 40.0812 31.3887 40.1819 31.4162C40.2826 31.4437 40.3683 31.51 40.4201 31.6007C40.4719 31.6913 40.4856 31.7989 40.4581 31.8996C40.4306 32.0003 40.3643 32.086 40.2736 32.1378C39.3799 32.6301 38.4517 33.057 37.4963 33.4152C37.4493 33.4348 37.3987 33.4441 37.3478 33.4425Z" fill="#5C7762"/>
<path d="M10.9612 22.3074C10.8849 22.3076 10.8103 22.2856 10.7464 22.2439C10.6826 22.2023 10.6323 22.1428 10.6018 22.073C10.0474 20.7822 9.62219 19.4397 9.33225 18.0652C9.3105 17.9616 9.33079 17.8536 9.38866 17.7649C9.44653 17.6763 9.53725 17.6143 9.64085 17.5925C9.74445 17.5708 9.85245 17.591 9.94109 17.6489C10.0297 17.7068 10.0917 17.7975 10.1135 17.9011C10.3952 19.226 10.8101 20.519 11.3518 21.7605C11.387 21.8579 11.382 21.9652 11.3381 22.059C11.2941 22.1527 11.2148 22.2252 11.1174 22.2605C11.0687 22.2856 11.0157 22.3015 10.9612 22.3074Z" fill="#5C7762"/>
<path d="M34.1213 34.3731C34.0177 34.383 33.9144 34.3512 33.8342 34.2849C33.754 34.2186 33.7034 34.1232 33.6935 34.0196C33.6837 33.916 33.7154 33.8127 33.7817 33.7325C33.848 33.6523 33.9434 33.6017 34.047 33.5919C35.124 33.3739 36.1811 33.0669 37.2072 32.6739C37.2552 32.6557 37.3062 32.6471 37.3575 32.6486C37.4088 32.6501 37.4593 32.6618 37.5061 32.6828C37.5529 32.7038 37.5951 32.7339 37.6303 32.7712C37.6654 32.8086 37.6929 32.8525 37.7111 32.9005C37.7293 32.9484 37.7379 32.9995 37.7364 33.0508C37.7349 33.1021 37.7232 33.1525 37.7022 33.1993C37.6812 33.2461 37.6511 33.2883 37.6138 33.3235C37.5764 33.3587 37.5325 33.3862 37.4845 33.4044C36.4177 33.8162 35.319 34.1402 34.1994 34.3731H34.1213Z" fill="#5C7762"/>
<path d="M24.8475 34.1399C24.8164 34.1437 24.7849 34.1437 24.7538 34.1399C19.8402 32.8798 15.5428 29.8966 12.6444 25.7336C12.5855 25.6486 12.5627 25.5438 12.581 25.442C12.5993 25.3402 12.6572 25.2498 12.7421 25.1907C12.8271 25.1318 12.932 25.109 13.0337 25.1273C13.1355 25.1456 13.2259 25.2035 13.285 25.2883C16.0827 29.2935 20.2241 32.1625 24.9569 33.3743C25.0605 33.3872 25.1547 33.4408 25.2188 33.5232C25.2829 33.6056 25.3117 33.7101 25.2987 33.8137C25.2858 33.9173 25.2322 34.0115 25.1498 34.0756C25.0674 34.1397 24.9629 34.1685 24.8593 34.1555L24.8475 34.1399Z" fill="#5C7762"/>
<path d="M40.2226 49.4088C35.9258 49.2917 34.6484 47.7057 34.2773 46.7682C33.8281 45.6354 34.1836 44.3034 35.2031 43.2917C36.3476 42.1549 38.6484 41.3112 41.0859 40.4167C44.1172 39.3034 47.5508 38.0417 48.2343 36.2213C48.3448 35.8881 48.3789 35.5343 48.3343 35.1862C48.2897 34.838 48.1674 34.5042 47.9765 34.2096C46.5195 31.5417 40.4062 31.7213 40.3437 31.7252C40.2924 31.727 40.2413 31.7187 40.1932 31.7007C40.1451 31.6828 40.101 31.6555 40.0635 31.6205C39.9877 31.5498 39.9431 31.4519 39.9394 31.3483C39.9358 31.2447 39.9735 31.1439 40.0442 31.0681C40.1149 30.9923 40.2128 30.9476 40.3164 30.944C40.5859 30.944 46.957 30.7448 48.664 33.8385C48.9093 34.2307 49.0637 34.6729 49.1157 35.1325C49.1678 35.5922 49.1162 36.0577 48.9648 36.4948C48.1562 38.651 44.6992 39.9206 41.3554 41.151C39.0117 42.0143 36.7773 42.8307 35.7539 43.8463C34.9726 44.6276 34.6718 45.6432 35.0039 46.4792C35.3047 47.237 36.3828 48.5221 40.2422 48.6276C40.3458 48.6276 40.4451 48.6687 40.5184 48.742C40.5916 48.8153 40.6328 48.9146 40.6328 49.0182C40.6328 49.1218 40.5916 49.2212 40.5184 49.2944C40.4451 49.3677 40.3458 49.4088 40.2422 49.4088H40.2226Z" fill="#5C7762"/>
<path d="M38.6289 27.7296C38.5307 27.7304 38.4359 27.6941 38.3633 27.6281C36.919 26.3094 35.2915 25.2068 33.5312 24.3546C33.4409 24.3078 33.3724 24.2277 33.3403 24.1312C33.3082 24.0346 33.315 23.9294 33.3592 23.8378C33.4035 23.7462 33.4817 23.6755 33.5773 23.6407C33.6729 23.606 33.7783 23.6098 33.8711 23.6515C35.6981 24.5385 37.3885 25.683 38.8906 27.05C38.9291 27.0844 38.9603 27.1262 38.9825 27.1728C39.0047 27.2194 39.0175 27.27 39.02 27.3216C39.0226 27.3732 39.0148 27.4248 38.9973 27.4733C38.9798 27.5219 38.9528 27.5666 38.9179 27.6046C38.8811 27.6444 38.8363 27.676 38.7866 27.6976C38.7368 27.7191 38.6831 27.73 38.6289 27.7296Z" fill="#5C7762"/>
<path d="M21.5001 22.543C21.3965 22.5507 21.2941 22.517 21.2153 22.4493C21.1366 22.3815 21.088 22.2852 21.0802 22.1816C21.0724 22.078 21.1061 21.9756 21.1739 21.8968C21.2417 21.8181 21.3379 21.7695 21.4415 21.7617C22.4968 21.6043 23.5621 21.5246 24.629 21.5234C25.2345 21.5234 25.879 21.5547 26.5822 21.625C26.6858 21.6348 26.7812 21.6854 26.8475 21.7657C26.9138 21.8459 26.9455 21.9491 26.9357 22.0527C26.9258 22.1563 26.8752 22.2518 26.795 22.3181C26.7148 22.3844 26.6115 22.4161 26.5079 22.4062C25.8126 22.3398 25.1876 22.3086 24.6095 22.3086C23.5818 22.3091 22.5555 22.3861 21.5392 22.5391L21.5001 22.543Z" fill="#5C7762"/>
<path d="M33.6877 24.3924C33.6295 24.392 33.5721 24.3787 33.5197 24.3533C31.3264 23.2844 28.9572 22.6227 26.5275 22.4002C26.4762 22.3953 26.4264 22.3804 26.3809 22.3563C26.3353 22.3321 26.295 22.2993 26.2622 22.2595C26.2293 22.2198 26.2047 22.174 26.1895 22.1248C26.1744 22.0755 26.1691 22.0238 26.174 21.9725C26.1789 21.9212 26.1938 21.8713 26.2179 21.8258C26.2421 21.7803 26.2749 21.7399 26.3147 21.7071C26.3949 21.6408 26.4981 21.6091 26.6017 21.6189C29.1232 21.848 31.5822 22.5323 33.8595 23.6385C33.9393 23.6771 34.0035 23.7416 34.0417 23.8215C34.0799 23.9014 34.0898 23.9919 34.0698 24.0782C34.0499 24.1644 34.0012 24.2414 33.9317 24.2963C33.8623 24.3513 33.7762 24.381 33.6877 24.3807V24.3924Z" fill="#5C7762"/>
<path d="M12.9651 25.8891C12.8813 25.8893 12.7997 25.8626 12.7323 25.8128C12.6649 25.7631 12.6152 25.6929 12.5907 25.6128C12.5662 25.5327 12.5681 25.4468 12.5961 25.3679C12.6241 25.2889 12.6768 25.221 12.7464 25.1743C15.3505 23.3964 18.3232 22.2306 21.4417 21.7641C21.5453 21.7486 21.6508 21.7748 21.735 21.8371C21.8193 21.8994 21.8753 21.9926 21.8909 22.0962C21.9064 22.1998 21.8802 22.3053 21.8179 22.3895C21.7556 22.4738 21.6625 22.5298 21.5589 22.5454C18.5552 22.995 15.6921 24.118 13.1839 25.8305C13.1183 25.8712 13.0422 25.8916 12.9651 25.8891Z" fill="#5C7762"/>
<path d="M30.3831 34.7599C30.2795 34.7599 30.1801 34.7187 30.1068 34.6455C30.0336 34.5722 29.9924 34.4729 29.9924 34.3693C29.9924 34.2482 29.9924 34.1232 29.9924 34.0021C29.9968 29.7934 28.6871 25.6884 26.2463 22.2599C26.2166 22.2181 26.1954 22.1708 26.1839 22.1208C26.1724 22.0708 26.1709 22.019 26.1794 21.9684C26.1879 21.9178 26.2063 21.8694 26.2336 21.8259C26.2608 21.7824 26.2963 21.7447 26.3381 21.715C26.3799 21.6852 26.4272 21.664 26.4772 21.6525C26.5272 21.641 26.579 21.6395 26.6296 21.648C26.6802 21.6565 26.7286 21.6749 26.7721 21.7022C26.8156 21.7294 26.8533 21.765 26.8831 21.8068C29.4289 25.3734 30.7949 29.6474 30.7893 34.0294V34.42C30.7767 34.5174 30.7279 34.6064 30.6526 34.6693C30.5773 34.7323 30.4811 34.7646 30.3831 34.7599Z" fill="#5C7762"/>
<path d="M24.8479 34.1404C24.7443 34.1404 24.645 34.0993 24.5717 34.026C24.4985 33.9528 24.4573 33.8534 24.4573 33.7498C24.4573 29.1365 23.4182 25.5193 21.1839 22.3787C21.1242 22.2947 21.1001 22.1904 21.1169 22.0887C21.1338 21.987 21.1901 21.8961 21.2737 21.8357C21.3155 21.8056 21.3628 21.784 21.4129 21.7721C21.463 21.7603 21.515 21.7585 21.5658 21.7669C21.6167 21.7752 21.6653 21.7936 21.7091 21.8208C21.7528 21.848 21.7907 21.8836 21.8206 21.9256C24.1643 25.2068 25.2386 28.9568 25.2386 33.7498C25.2386 33.8534 25.1974 33.9528 25.1241 34.026C25.0509 34.0993 24.9515 34.1404 24.8479 34.1404Z" fill="#5C7762"/>
<path d="M34.1251 34.3707H34.047C33.9967 34.3604 33.949 34.3404 33.9064 34.3116C33.8639 34.2829 33.8275 34.2461 33.7992 34.2033C33.7709 34.1605 33.7513 34.1126 33.7415 34.0622C33.7318 34.0118 33.732 33.96 33.7423 33.9097C34.3923 30.6562 34.2462 27.2938 33.3165 24.1089C33.2962 24.0584 33.2866 24.0041 33.2884 23.9496C33.2903 23.8951 33.3035 23.8416 33.3273 23.7926C33.3511 23.7435 33.3849 23.7 33.4265 23.6647C33.4681 23.6295 33.5166 23.6034 33.5689 23.588C33.6212 23.5727 33.6762 23.5685 33.7302 23.5757C33.7843 23.5828 33.8362 23.6013 33.8827 23.6297C33.9292 23.6582 33.9693 23.6961 34.0003 23.7409C34.0312 23.7858 34.0525 23.8366 34.0626 23.8902C34.6339 25.8309 34.9233 27.8437 34.922 29.8668C34.9214 31.2754 34.7827 32.6805 34.5079 34.0621C34.4891 34.1496 34.4409 34.228 34.3712 34.2842C34.3015 34.3403 34.2146 34.3709 34.1251 34.3707Z" fill="#5C7762"/>
<path d="M37.3479 33.4425C37.2997 33.4429 37.2518 33.4336 37.2073 33.4152C37.1113 33.3784 37.0338 33.3053 36.9914 33.2117C36.949 33.1181 36.9451 33.0115 36.9807 32.9152C37.6639 31.1158 38.0875 29.2284 38.2385 27.3097C38.2463 27.2061 38.2949 27.1098 38.3737 27.0421C38.4524 26.9743 38.5549 26.9406 38.6585 26.9484C38.7621 26.9561 38.8583 27.0047 38.9261 27.0835C38.9938 27.1622 39.0276 27.2647 39.0198 27.3683C38.863 29.3646 38.4224 31.3284 37.7112 33.2003C37.6816 33.2723 37.6313 33.3338 37.5665 33.3769C37.5018 33.4201 37.4257 33.4429 37.3479 33.4425Z" fill="#5C7762"/>
</g>
</svg>
