<svg width="18" height="18" viewBox="0 0 18 18" fill="none" xmlns="http://www.w3.org/2000/svg">
<path d="M10.203 12.6821C10.019 12.6992 9.83427 12.6577 9.6753 12.5634C9.55914 12.4442 9.50345 12.2786 9.52395 12.1134C9.52824 11.9759 9.54465 11.839 9.57303 11.7043C9.60048 11.5499 9.63596 11.3969 9.67937 11.2462L10.1621 9.58523C10.2119 9.4213 10.2448 9.25269 10.2603 9.08204C10.2603 8.89796 10.2848 8.77112 10.2848 8.6975C10.2951 8.36939 10.155 8.05453 9.90437 7.8425C9.59609 7.60583 9.21218 7.4895 8.82437 7.51523C8.54646 7.51941 8.2707 7.56491 8.00618 7.65023C7.71709 7.74023 7.41299 7.84795 7.09391 7.97342L6.95483 8.51342C7.04891 8.48069 7.16349 8.44388 7.29437 8.40296C7.41925 8.36598 7.54869 8.34668 7.67891 8.34569C7.86158 8.3259 8.04545 8.37076 8.19845 8.4725C8.30237 8.5965 8.35113 8.75758 8.33345 8.91842C8.33299 9.05599 8.31791 9.19313 8.28845 9.3275C8.2598 9.47069 8.22299 9.62204 8.17799 9.78158L7.69118 11.4507C7.65195 11.6058 7.62055 11.7628 7.5971 11.9211C7.57798 12.0566 7.56842 12.1933 7.56845 12.3302C7.56645 12.6606 7.71751 12.9732 7.97753 13.177C8.29056 13.4174 8.67995 13.5365 9.07388 13.5125C9.35126 13.5182 9.62769 13.4781 9.89207 13.3938C10.1239 13.3147 10.4334 13.2015 10.8207 13.0543L10.9516 12.5388C10.8467 12.5823 10.7387 12.6179 10.6285 12.6452C10.489 12.677 10.3459 12.6894 10.203 12.6821Z" fill="#5C7762"/>
<path d="M10.7137 4.80718C10.491 4.60272 10.1977 4.49271 9.89548 4.50038C9.59345 4.49355 9.30039 4.60345 9.07729 4.80718C8.66835 5.1598 8.62268 5.77718 8.97534 6.18615C9.00677 6.22261 9.04083 6.25668 9.07729 6.28811C9.54318 6.70481 10.2478 6.70481 10.7136 6.28811C11.1226 5.93201 11.1654 5.31185 10.8093 4.90291C10.7797 4.86885 10.7477 4.83686 10.7137 4.80718Z" fill="#5C7762"/>
<path d="M9 0C4.02943 0 0 4.02943 0 9C0 13.9706 4.02943 18 9 18C13.9706 18 18 13.9706 18 9C18 4.02943 13.9706 0 9 0ZM9 17.1818C4.4813 17.1818 0.818191 13.5187 0.818191 9C0.818191 4.4813 4.4813 0.818191 9 0.818191C13.5187 0.818191 17.1818 4.4813 17.1818 9C17.1818 13.5187 13.5187 17.1818 9 17.1818Z" fill="#5C7762"/>
</svg>
