<svg xmlns="http://www.w3.org/2000/svg" viewBox="0 0 20 20"><title>cart-registration</title><polygon points="17.507 14.268 17.507 11.868 16.467 11.868 16.467 14.268 14.067 14.268 14.067 15.307 16.467 15.307 16.467 17.707 17.507 17.707 17.507 15.307 19.906 15.307 19.906 14.268 17.507 14.268" style="fill:#5c7762"/><path d="M3.3667,17.667H1.96631A8.03611,8.03611,0,0,1,13.80762,10.5918l-.66407,1.23242A6.63647,6.63647,0,0,0,3.3667,17.667Z" style="fill:#5c7762"/><path d="M10,9.001a3.3335,3.3335,0,1,1,3.333-3.3335A3.33754,3.33754,0,0,1,10,9.001Zm0-5.2666a1.93311,1.93311,0,1,0,1.93262,1.9331A1.93529,1.93529,0,0,0,10,3.73438Z" style="fill:#5c7762"/></svg>