<svg xmlns="http://www.w3.org/2000/svg" viewBox="0 0 25 25"><title>first-contacts-phone</title><polygon points="8.242 10.472 8.242 10.472 8.242 10.472 8.242 10.472" style="fill:#5c7762"/><path d="M9.35791,4.88086c-.13428-.13477-.26172-.26611-.39209-.40039-.26758-.27588-.542-.55469-.80762-.79981A1.87453,1.87453,0,0,0,6.83838,3.1001a1.93532,1.93532,0,0,0-1.335.58349L4.03076,5.15674a2.93745,2.93745,0,0,0-.874,1.87744,7.19519,7.19519,0,0,0,.542,3.11133A18.24152,18.24152,0,0,0,6.9585,15.585a20.09727,20.09727,0,0,0,6.68213,5.23438,10.38539,10.38539,0,0,0,3.7207,1.10254c.09375.0039.17578.00781.26172.00781a3.01943,3.01943,0,0,0,2.33984-1.00489,9.1879,9.1879,0,0,1,.72461-.75878l.05566-.05372c.21875-.209.39454-.38378.55274-.5498A1.81073,1.81073,0,0,0,21.29,16.86719L18.9209,14.49707a1.82573,1.82573,0,0,0-1.31836-.60937,1.88892,1.88892,0,0,0-1.333.60546L14.80371,15.96l-.06641-.03808c-.12792-.07422-.25976-.14063-.38476-.20215-.13965-.07032-.30078-.15235-.44238-.24121A15.05724,15.05724,0,0,1,10.31738,12.207a8.65471,8.65471,0,0,1-1.2207-1.94775l-.02832-.06592.05322-.04785c.37549-.33936.72363-.69238,1.04785-1.0249.09717-.1001.19678-.2002.29737-.30079l.0664-.06689a1.917,1.917,0,0,0,.625-1.34863,1.90634,1.90634,0,0,0-.62451-1.34864ZM9.98486,8.2207c-.06884.06836-.13769.13819-.206.208L9.54443,8.666c-.3413.34521-.66406.67089-1.019.98584l-.01807.01757a.66646.66646,0,0,0-.17041.771l-.083.06348h0l.09228-.03858a9.22567,9.22567,0,0,0,1.36963,2.228,15.66138,15.66138,0,0,0,3.77734,3.43945,4.46108,4.46108,0,0,0,.42676.23535l.08594.04395c.14648.07324.30176.15332.44043.24023h.001l.03515.02051a.68232.68232,0,0,0,.85254-.15137l1.47559-1.4746a1.14075,1.14075,0,0,1,.792-.38086,1.09668,1.09668,0,0,1,.77148.38378l2.375,2.3711a1.05045,1.05045,0,0,1-.00976,1.626c-.168.17871-.34473.35156-.52735.52734l-.03222.03125a10.394,10.394,0,0,0-.78418.81641,2.2607,2.2607,0,0,1-1.76856.75292c-.06933,0-.14257-.0039-.21093-.00781a9.59947,9.59947,0,0,1-3.43653-1.02734,19.25635,19.25635,0,0,1-6.42529-5.0332A17.66364,17.66364,0,0,1,4.42188,9.8916a6.45763,6.45763,0,0,1-.50245-2.79053v-.001A2.18855,2.18855,0,0,1,4.5752,5.69727L6.042,4.23047a1.04024,1.04024,0,0,1,1.57715.0083c.22754.21045.44482.43164.67481.66553l.28564.29c.07666.07812.15381.15625.231.23584L9.98486,6.604a1.16669,1.16669,0,0,1,.39991.80811A1.16764,1.16764,0,0,1,9.98486,8.2207Z" style="fill:#5c7762"/></svg>