<svg xmlns="http://www.w3.org/2000/svg" viewBox="0 0 25 25"><title>first-contacts-map</title><path d="M10.37579,12.93518a3.85793,3.85793,0,0,0,2.1435.65033h.00018l-.00018-.125h.00006l.00012.125a3.86266,3.86266,0,0,0,3.85815-3.858V9.72742a3.85828,3.85828,0,1,0-6.00183,3.20776ZM9.6405,8.53473a3.116,3.116,0,1,1-.17737,1.80035A3.11542,3.11542,0,0,1,9.6405,8.53473Zm2.87879-1.986v-.0625h.00006Z" style="fill:#5c7762"/><path d="M18.07178,4.17493A7.85236,7.85236,0,0,0,4.667,9.72736a9.51032,9.51032,0,0,0,1.14728,3.824,36.08373,36.08373,0,0,0,2.52826,4.26624c1.84979,2.73419,3.73767,4.99084,3.89246,5.175v.00012l.0957-.08051h0l-.0957.08051a.37134.37134,0,0,0,.28411.13214V23.125l.00019-.00006.00018.00006v-.00006a.37057.37057,0,0,0,.28412-.132l.00012-.00006-.08069-.06781-.015-.01263h0l.0957.08044c.15491-.1842,2.04266-2.441,3.89252-5.17511a36.09159,36.09159,0,0,0,2.5282-4.26642,9.51083,9.51083,0,0,0,1.14727-3.824A7.85234,7.85234,0,0,0,18.07178,4.17493Zm1.68274,5.55243h0Zm-14.47034,0h0Zm7.23517-7.11017a7.11831,7.11831,0,0,1,7.11017,7.11023,8.31518,8.31518,0,0,1-.95594,3.2558,32.42156,32.42156,0,0,1-2.20739,3.82849c-1.58673,2.41156-3.29328,4.55523-3.94684,5.35772-.65351-.80249-2.36023-2.946-3.9469-5.35754a32.42139,32.42139,0,0,1-2.2074-3.82837,8.31637,8.31637,0,0,1-.95587-3.2561,7.11831,7.11831,0,0,1,7.11017-7.11023Zm0,20.38281Z" style="fill:#5c7762"/></svg>