<svg xmlns="http://www.w3.org/2000/svg" viewBox="0 0 50 50"><title>heder-bedspreads</title><path d="M45.083,44.55176a.471.471,0,0,0-.14258-.335L42.46484,41.794v-.31543c0-4.63477.00391-8.16016.00684-10.84473.00684-6.25488.00879-8.17334-.05859-8.48486l-.00293.002c-.11719-.1416-1.124-1.146-5.36133-5.374L27.92578,7.67041a.47493.47493,0,0,0-.33789-.13965H8.15332l-2.418-2.47119a.47847.47847,0,0,0-.67578-.00732.47389.47389,0,0,0-.00732.67138L7.47461,8.19971V41.7998L5.05225,44.27539a.47511.47511,0,0,0,.00781.67285.47834.47834,0,0,0,.67529-.00879l2.418-2.4707H41.792l2.47949,2.42676a.479.479,0,0,0,.67579-.00684A.47236.47236,0,0,0,45.083,44.55176ZM28.06543,9.15576,40.83691,21.90967H28.06543Zm-8.50928-.67383h7.61573l-.0625.84327c0,.03955.001.31738.001,1.98828v3.40673h-7.5542Zm-.95459,33.03565H8.4292V34.626H18.60156Zm0-7.84278H8.4292V15.67139H18.60156Zm0-18.95459H8.4292V8.48193H18.60156Zm15.709,26.79737H19.55615V34.626h14.7544Zm0-7.84278H19.55615V15.67139h7.5542v6.71386a.4769.4769,0,0,0,.47754.47559h6.72266Zm7.20019,7.84278H35.26465V34.626h6.24609Zm0-7.84278H35.26465v-10.814h6.24609Z" style="fill:#5c7762"/></svg>