<svg xmlns="http://www.w3.org/2000/svg" viewBox="0 0 50 50"><title>heder-bed</title><path d="M43.87305,43.2334a1.94134,1.94134,0,0,0,1.93847-1.93848V28.54883a1.94478,1.94478,0,0,0-1.415-1.86621L44.335,26.665l-.00976-.06348a4.87483,4.87483,0,0,0-.74707-1.93847l-.01563-.02491V7.87109a1.93848,1.93848,0,0,0-3.877,0V9.09082h-29.293V7.87109a1.93824,1.93824,0,0,0-3.87647,0V24.63818l-.0166.02491a4.89656,4.89656,0,0,0-.74609,1.93847l-.00977.06348-.062.01758a1.94609,1.94609,0,0,0-1.41455,1.86621V41.29492a1.93823,1.93823,0,1,0,3.87646,0V38.19141h33.791v3.10351A1.94135,1.94135,0,0,0,43.87305,43.2334Zm0-15.59961a.91566.91566,0,0,1,.915.915V41.29492a.915.915,0,1,1-1.83008,0V28.54883A.91565.91565,0,0,1,43.87305,27.63379ZM40.709,7.87109a.915.915,0,1,1,1.83008,0V23.51367l-.15918-.11816a4.9138,4.9138,0,0,0-1.59863-.78613l-.07227-.02051Zm-30.3164,2.24268h29.293V22.4292l-.13184-.00391c-.03906-.00146-.0791-.00244-.11816-.00244H37.38867V17.64648a2.553,2.553,0,0,0-2.5498-2.5498H27.07715a2.54354,2.54354,0,0,0-1.96094.92236l-.07715.09229L24.9624,16.019a2.54524,2.54524,0,0,0-1.96142-.92236H15.23975a2.55233,2.55233,0,0,0-2.54981,2.5498v4.77637H10.64307c-.03907,0-.07764.001-.1167.00244l-.13379.00391Zm25.97265,7.53271v4.77637H25.55078V17.64648a1.52831,1.52831,0,0,1,1.52637-1.52685h7.76172A1.52831,1.52831,0,0,1,36.36523,17.64648Zm-11.8374,0v4.77637H13.71289V17.64648a1.52873,1.52873,0,0,1,1.52686-1.52685H23.001A1.52873,1.52873,0,0,1,24.52783,17.64648ZM7.53906,7.87109a.91553.91553,0,0,1,1.83106,0V22.58887l-.07276.02051a4.91862,4.91862,0,0,0-1.59863.78613l-.15967.11816ZM7.12061,41.29492a.91529.91529,0,0,1-1.83057,0V28.54883a.91529.91529,0,0,1,1.83057,0ZM6.85547,26.72266l-.08106-.02832.01661-.085A3.87883,3.87883,0,0,1,7.45264,25.083a3.9403,3.9403,0,0,1,3.19043-1.6377H39.43555a3.937,3.937,0,0,1,3.18652,1.63282l-.001.001.001.001.001-.001.00683.00977a3.86923,3.86923,0,0,1,.65723,1.52051l.01758.085-.082.02832a1.94375,1.94375,0,0,0-1.28809,1.82617v1.98242H8.14355V28.54883A1.94374,1.94374,0,0,0,6.85547,26.72266Zm30.33008,4.832L32.791,34.93262l-.06055-.04688-4.334-3.331ZM8.14355,37.168V31.55469h18.5752l.02637.02051L32.23047,35.793a.94956.94956,0,0,0,1.12109,0l5.5127-4.23828h3.07031V37.168Z" style="fill:#5c7762"/></svg>