<svg xmlns="http://www.w3.org/2000/svg" viewBox="0 0 18 19"><title>icon-card-title</title><path d="M15.55371,5.6377a.67182.67182,0,0,0-.23047-.42041.70011.70011,0,0,0-.44726-.16163H12.75684V4.46631a3.65143,3.65143,0,0,0-1.11621-2.62988,3.86423,3.86423,0,0,0-5.37256,0A3.65076,3.65076,0,0,0,5.15283,4.46631v.58935H3.0249a.685.685,0,0,0-.44385.1626.666.666,0,0,0-.22949.41895L.75537,17.44824a.6645.6645,0,0,0,.1792.54492c.18555.19336.38867.39258.60791.584a.68121.68121,0,0,0,.45459.17285h13.915a.71364.71364,0,0,0,.4834-.19824,6.92919,6.92919,0,0,0,.5791-.5586.67711.67711,0,0,0,.15137-.252.6578.6578,0,0,0,.02734-.29394ZM6.5166,5.04736,6.52539,4.458A2.331,2.331,0,0,1,7.23877,2.7793a2.45925,2.45925,0,0,1,1.72852-.69825,2.4934,2.4934,0,0,1,1.729.69825A2.32966,2.32966,0,0,1,11.40918,4.458v.58935ZM2.26416,17.41113l-.11816-.1123L3.62109,6.395H14.2832l1.47657,10.90283-.12207.11328Z" style="fill:#a58c84"/></svg>