<svg width="16" height="14" viewBox="0 0 16 14" fill="none" xmlns="http://www.w3.org/2000/svg">
<path d="M14.7133 1.27528C13.8818 0.458217 12.7598 0 11.5907 0C10.4216 0 9.29963 0.458217 8.4681 1.27528L7.99836 1.73152L7.53676 1.27528C6.70523 0.458217 5.58326 0 4.41416 0C3.24506 0 2.12309 0.458217 1.29156 1.27528C0.464499 2.09925 0 3.2158 0 4.37989C0 5.54398 0.464499 6.66052 1.29156 7.48449L7.71054 13.8827C7.78725 13.9579 7.89064 14 7.99836 14C8.10607 14 8.20946 13.9579 8.28618 13.8827L14.7133 7.49259C15.5376 6.66551 16 5.54827 16 4.38393C16 3.2196 15.5376 2.10236 14.7133 1.27528Z" fill="#B39D96"/>
</svg>
