<svg width="30" height="30" viewBox="0 0 30 30" fill="none" xmlns="http://www.w3.org/2000/svg">
<path d="M25.5558 6.00401C24.2566 4.72006 22.5037 4 20.6771 4C18.8506 4 17.0976 4.72006 15.7985 6.00401L15.0645 6.72097L14.3433 6.00401C13.0442 4.72006 11.2913 4 9.46469 4C7.63812 4 5.88518 4.72006 4.58602 6.00401C3.29384 7.29883 2.56812 9.05339 2.56812 10.8827C2.56812 12.712 3.29384 14.4665 4.58602 15.7613L14.6149 25.8156C14.7347 25.9338 14.8962 26 15.0645 26C15.2328 26 15.3944 25.9338 15.5142 25.8156L25.5558 15.7741C26.8436 14.4744 27.5661 12.7187 27.5661 10.889C27.5661 9.05937 26.8436 7.30372 25.5558 6.00401V6.00401ZM24.6564 14.8747L15.0645 24.4623L5.47267 14.8747C4.94768 14.3521 4.53153 13.7305 4.24827 13.046C3.965 12.3616 3.82026 11.6277 3.8224 10.8869C3.83022 9.39442 4.42686 7.96533 5.48263 6.91036C6.5384 5.85538 7.96794 5.25981 9.46044 5.25312C10.2007 5.25037 10.9341 5.39485 11.618 5.67816C12.3018 5.96147 12.9226 6.37796 13.444 6.90338L14.6149 8.07002C14.6737 8.12954 14.7437 8.17679 14.8209 8.20904C14.8981 8.24129 14.9809 8.2579 15.0645 8.2579C15.1482 8.2579 15.231 8.24129 15.3082 8.20904C15.3854 8.17679 15.4554 8.12954 15.5142 8.07002L16.6851 6.90338C17.7502 5.88586 19.1712 5.32557 20.6441 5.34238C22.117 5.3592 23.5249 5.95178 24.5664 6.99336C25.608 8.03493 26.2006 9.44278 26.2174 10.9157C26.2342 12.3886 25.6739 13.8096 24.6564 14.8747Z" fill="white"/>
</svg>
