<svg width="40" height="40" viewBox="0 0 40 40" fill="none" xmlns="http://www.w3.org/2000/svg">
<mask id="path-1-inside-1_603_1420" fill="white">
<path fill-rule="evenodd" clip-rule="evenodd" d="M9.84372 7.96313C7.54785 9.04736 7.07384 9.28965 6.88801 9.47385L6.66666 9.69332L6.66686 10.118C6.66723 10.8519 7.02025 12.7426 7.39785 14.033C8.39727 17.4481 10.02 20.488 12.3895 23.384C16.1224 27.9461 21.0645 31.264 26.2294 32.6754C27.5256 33.0296 29.2029 33.3323 29.8748 33.3333C30.2002 33.3338 30.2695 33.3159 30.452 33.1837C30.566 33.101 30.7026 32.9428 30.7556 32.832C30.8085 32.7213 31.41 31.4468 32.0923 29.9999C33.4344 27.1539 33.4413 27.1341 33.2345 26.7289C33.1803 26.6226 33.0924 26.4976 33.0392 26.4511C32.8655 26.2993 27.8128 23.0662 27.6295 22.9897C27.399 22.8933 27.1798 22.8952 26.9383 22.9955C26.8138 23.0473 26.3263 23.4919 25.5728 24.241C24.1916 25.6142 24.2371 25.5881 23.4616 25.4507C20.3076 24.8917 17.0297 22.2918 15.4175 19.0705C15.0418 18.3196 14.6742 17.2509 14.5503 16.5491C14.4106 15.7576 14.3818 15.8083 15.7576 14.4238C16.5066 13.6701 16.9511 13.1826 17.0028 13.058C17.1032 12.8165 17.105 12.5972 17.0087 12.3667C16.9322 12.1834 13.6998 7.12958 13.548 6.95584C13.3989 6.78518 13.0908 6.66156 12.8276 6.66683C12.6151 6.67105 12.1722 6.86343 9.84372 7.96313ZM22.1789 12.4623C20.7083 13.6183 19.4705 14.6058 19.4282 14.6568C19.303 14.8077 19.3302 15.1328 19.4803 15.2782C19.5512 15.347 20.7922 16.3316 22.2381 17.4661C24.6115 19.3287 24.8854 19.529 25.0578 19.529C25.1681 19.529 25.3007 19.487 25.3717 19.4296C25.4925 19.3319 25.4951 19.3101 25.5207 18.2008L25.5467 17.0714L25.6929 16.9458L25.839 16.8201L27.4116 16.8203C28.2766 16.8203 29.1952 16.8462 29.453 16.8776C30.4936 17.0047 31.3992 17.325 32.1555 17.8336C32.6302 18.1528 32.8152 18.1911 33.0377 18.0161C33.2394 17.8574 33.2545 17.6442 33.1013 17.118C32.5946 15.3776 31.3373 14.1666 29.4152 13.5673C28.6278 13.3219 27.8152 13.1842 26.7239 13.1114C25.9096 13.0571 25.8039 13.0392 25.6822 12.9346L25.5467 12.8181L25.5207 11.6887C25.4951 10.5794 25.4925 10.5576 25.3717 10.4599C25.2989 10.4011 25.168 10.3605 25.0507 10.3605C24.8689 10.3605 24.6344 10.5321 22.1789 12.4623Z"/>
</mask>
<path d="M9.84372 7.96313L10.2707 8.86737L10.2708 8.86736L9.84372 7.96313ZM6.88801 9.47385L6.18402 8.76364L6.18393 8.76373L6.88801 9.47385ZM6.66666 9.69332L5.96257 8.98321L5.66645 9.27681L5.66666 9.69381L6.66666 9.69332ZM6.66686 10.118L5.66686 10.1185V10.1185L6.66686 10.118ZM7.39785 14.033L6.4381 14.3139L6.4381 14.3139L7.39785 14.033ZM12.3895 23.384L13.1635 22.7507L13.1635 22.7507L12.3895 23.384ZM26.2294 32.6754L25.9658 33.6401L25.9658 33.6401L26.2294 32.6754ZM29.8748 33.3333L29.8764 32.3333H29.8763L29.8748 33.3333ZM30.452 33.1837L31.0388 33.9934L31.0388 33.9934L30.452 33.1837ZM30.7556 32.832L31.6578 33.2633L31.6579 33.2631L30.7556 32.832ZM32.0923 29.9999L31.1879 29.5734L31.1879 29.5734L32.0923 29.9999ZM33.2345 26.7289L32.3437 27.1834L32.3438 27.1835L33.2345 26.7289ZM33.0392 26.4511L32.381 27.204L32.3812 27.2042L33.0392 26.4511ZM27.6295 22.9897L27.2439 23.9123L27.244 23.9124L27.6295 22.9897ZM26.9383 22.9955L27.3219 23.919L27.322 23.919L26.9383 22.9955ZM25.5728 24.241L24.8678 23.5318L24.8678 23.5318L25.5728 24.241ZM23.4616 25.4507L23.287 26.4353L23.2871 26.4353L23.4616 25.4507ZM15.4175 19.0705L14.5233 19.518L14.5233 19.518L15.4175 19.0705ZM14.5503 16.5491L13.5655 16.7229L13.5655 16.7229L14.5503 16.5491ZM15.7576 14.4238L16.467 15.1287L16.467 15.1287L15.7576 14.4238ZM17.0028 13.058L16.0793 12.6745L16.0793 12.6745L17.0028 13.058ZM17.0087 12.3667L16.086 12.7521L16.086 12.7522L17.0087 12.3667ZM13.548 6.95584L12.7948 7.61368L12.795 7.61387L13.548 6.95584ZM12.8276 6.66683L12.8474 7.66663L12.8475 7.66663L12.8276 6.66683ZM22.1789 12.4623L21.5609 11.6761L21.5609 11.6761L22.1789 12.4623ZM19.4282 14.6568L20.1978 15.2953L20.198 15.2951L19.4282 14.6568ZM19.4803 15.2782L20.1766 14.5604L20.1763 14.5602L19.4803 15.2782ZM22.2381 17.4661L22.8554 16.6794L22.8554 16.6794L22.2381 17.4661ZM25.3717 19.4296L26.0005 20.2071L26.0005 20.2071L25.3717 19.4296ZM25.5207 18.2008L24.521 18.1777V18.1777L25.5207 18.2008ZM25.5467 17.0714L24.8948 16.3132L24.5573 16.6034L24.547 17.0484L25.5467 17.0714ZM25.6929 16.9458L26.3448 17.7041L26.3448 17.7041L25.6929 16.9458ZM25.839 16.8201L25.8391 15.8201L25.4683 15.8201L25.1871 16.0619L25.839 16.8201ZM27.4116 16.8203L27.4115 17.8203H27.4116L27.4116 16.8203ZM29.453 16.8776L29.5742 15.885L29.5741 15.885L29.453 16.8776ZM32.1555 17.8336L31.5974 18.6634L31.5975 18.6634L32.1555 17.8336ZM33.0377 18.0161L33.656 18.802L33.6561 18.802L33.0377 18.0161ZM33.1013 17.118L34.0614 16.8385L34.0614 16.8385L33.1013 17.118ZM29.4152 13.5673L29.7128 12.6127L29.7128 12.6127L29.4152 13.5673ZM26.7239 13.1114L26.7905 12.1136L26.7904 12.1136L26.7239 13.1114ZM25.6822 12.9346L25.0302 13.6928L25.0304 13.693L25.6822 12.9346ZM25.5467 12.8181L24.547 12.8411L24.5573 13.2861L24.8948 13.5763L25.5467 12.8181ZM25.5207 11.6887L24.521 11.7118V11.7118L25.5207 11.6887ZM25.3717 10.4599L24.7427 11.2374L24.7429 11.2375L25.3717 10.4599ZM9.41669 7.05889C8.27241 7.59928 7.56485 7.93793 7.11948 8.16557C6.71027 8.37473 6.40445 8.54514 6.18402 8.76364L7.592 10.1841C7.5574 10.2184 7.5815 10.1755 8.02972 9.94643C8.44178 9.73582 9.11916 9.41121 10.2707 8.86737L9.41669 7.05889ZM6.18393 8.76373L5.96257 8.98321L7.37074 10.4034L7.59209 10.184L6.18393 8.76373ZM5.66666 9.69381L5.66686 10.1185L7.66686 10.1176L7.66666 9.69283L5.66666 9.69381ZM5.66686 10.1185C5.6671 10.5862 5.77189 11.3221 5.90788 12.0504C6.04799 12.8008 6.23786 13.6296 6.4381 14.3139L8.3576 13.7522C8.18024 13.1461 8.0048 12.3843 7.87391 11.6833C7.73889 10.9602 7.667 10.3838 7.66686 10.1175L5.66686 10.1185ZM6.4381 14.3139C7.47713 17.8643 9.16554 21.0228 11.6156 24.0172L13.1635 22.7507C10.8744 19.9531 9.31742 17.0319 8.3576 13.7521L6.4381 14.3139ZM11.6156 24.0172C15.4661 28.7232 20.5803 32.1683 25.9658 33.6401L26.493 31.7108C21.5487 30.3597 16.7787 27.1691 13.1635 22.7507L11.6156 24.0172ZM25.9658 33.6401C27.2802 33.9992 29.063 34.3321 29.8734 34.3333L29.8763 32.3333C29.3427 32.3325 27.771 32.06 26.493 31.7108L25.9658 33.6401ZM29.8732 34.3333C30.0228 34.3336 30.2453 34.334 30.468 34.2762C30.7341 34.2072 30.92 34.0794 31.0388 33.9934L29.8652 32.3739C29.8495 32.3853 29.8417 32.3905 29.8388 32.3925C29.8362 32.3942 29.8414 32.3906 29.8525 32.3846C29.8643 32.3782 29.8812 32.3697 29.9026 32.3612C29.9242 32.3525 29.9456 32.3456 29.966 32.3403C30.0054 32.3301 30.0268 32.3299 30.01 32.331C30.0019 32.3315 29.9877 32.3322 29.9646 32.3327C29.9415 32.3332 29.913 32.3334 29.8764 32.3333L29.8732 34.3333ZM31.0388 33.9934C31.1754 33.8944 31.294 33.7757 31.3836 33.6719C31.4691 33.5728 31.5783 33.4297 31.6578 33.2633L29.8534 32.4007C29.8624 32.3817 29.8699 32.3687 29.8738 32.3622C29.8779 32.3553 29.8804 32.3517 29.8807 32.3513C29.8811 32.3508 29.8802 32.352 29.8781 32.3548C29.876 32.3575 29.8732 32.361 29.8698 32.3649C29.8625 32.3733 29.8558 32.3802 29.8513 32.3844C29.8494 32.3863 29.849 32.3865 29.8506 32.3852C29.852 32.384 29.8568 32.38 29.8652 32.3739L31.0388 33.9934ZM31.6579 33.2631C31.7122 33.1493 32.3156 31.8711 32.9968 30.4264L31.1879 29.5734C30.5045 31.0225 29.9047 32.2932 29.8533 32.4009L31.6579 33.2631ZM32.9968 30.4264C33.6519 29.0372 34.0224 28.254 34.1883 27.7788C34.2735 27.5349 34.3518 27.2492 34.3294 26.9387C34.3055 26.6074 34.17 26.3622 34.1252 26.2744L32.3438 27.1835C32.4024 27.2982 32.3436 27.2074 32.3346 27.0827C32.3271 26.9789 32.3586 26.9519 32.3001 27.1194C32.1788 27.4669 31.8748 28.1166 31.1879 29.5734L32.9968 30.4264ZM34.1253 26.2745C34.0738 26.1735 34.0129 26.0754 33.9545 25.9924C33.9079 25.9262 33.817 25.8028 33.6972 25.6981L32.3812 27.2042C32.3686 27.1932 32.3585 27.1836 32.3509 27.1762C32.3432 27.1687 32.3371 27.1623 32.3325 27.1575C32.3235 27.148 32.3179 27.1413 32.3157 27.1387C32.3117 27.1339 32.313 27.135 32.3185 27.1428C32.3235 27.1499 32.3293 27.1587 32.3347 27.1677C32.3374 27.172 32.3395 27.1757 32.3412 27.1787C32.342 27.1802 32.3427 27.1813 32.3431 27.1821C32.3435 27.183 32.3438 27.1834 32.3437 27.1834L34.1253 26.2745ZM33.6974 25.6983C33.6326 25.6416 33.5458 25.5829 33.5184 25.5641C33.4654 25.5276 33.3971 25.4817 33.3178 25.4291C33.1585 25.3232 32.9429 25.182 32.6914 25.0186C32.1878 24.6912 31.532 24.269 30.8769 23.8498C30.2218 23.4307 29.5654 23.0132 29.0605 22.6953C28.8084 22.5365 28.592 22.4012 28.4316 22.3025C28.3518 22.2534 28.2826 22.2113 28.2284 22.1792C28.21 22.1683 28.1069 22.1054 28.015 22.067L27.244 23.9124C27.175 23.8835 27.1328 23.8548 27.2087 23.8998C27.2488 23.9235 27.307 23.9588 27.3833 24.0058C27.535 24.0991 27.7447 24.2302 27.9948 24.3877C28.4942 24.7022 29.1463 25.1169 29.799 25.5345C30.4517 25.9521 31.1031 26.3715 31.6014 26.6954C31.8509 26.8576 32.06 26.9945 32.211 27.0948C32.2869 27.1453 32.3451 27.1844 32.3852 27.2121C32.4511 27.2573 32.4241 27.2417 32.381 27.204L33.6974 25.6983ZM28.0151 22.067C27.526 21.8626 27.0295 21.8748 26.5547 22.0721L27.322 23.919C27.3338 23.9141 27.3363 23.9142 27.3306 23.9154C27.3243 23.9168 27.3124 23.9187 27.2966 23.9188C27.2806 23.919 27.266 23.9173 27.2546 23.9149C27.2436 23.9126 27.2396 23.9105 27.2439 23.9123L28.0151 22.067ZM26.5547 22.0721C26.369 22.1492 26.207 22.2826 26.1494 22.3292C26.0526 22.4076 25.94 22.5062 25.8175 22.6179C25.5708 22.843 25.2491 23.1527 24.8678 23.5318L26.2778 24.9502C26.65 24.5802 26.9489 24.293 27.1653 24.0956C27.2744 23.9961 27.3542 23.927 27.4073 23.8841C27.4342 23.8624 27.4459 23.8541 27.4455 23.8543C27.4451 23.8546 27.4362 23.8608 27.4207 23.87C27.4077 23.8777 27.3727 23.8979 27.3219 23.919L26.5547 22.0721ZM24.8678 23.5318C24.5158 23.8818 24.2744 24.1227 24.0872 24.2974C23.8923 24.4791 23.8151 24.5319 23.7929 24.5446C23.7912 24.5456 23.8113 24.5341 23.8479 24.5243C23.8856 24.5142 23.9155 24.5127 23.9268 24.5127C23.9321 24.5128 23.9182 24.5132 23.8645 24.5052C23.8072 24.4968 23.7436 24.4851 23.636 24.466L23.2871 26.4353C23.4363 26.4618 23.6863 26.5122 23.9219 26.5127C24.2267 26.5135 24.5088 26.4395 24.7872 26.28C25.0232 26.1448 25.2421 25.9552 25.4514 25.7599C25.6683 25.5576 25.9392 25.2868 26.2778 24.9502L24.8678 23.5318ZM23.6361 24.466C20.8354 23.9697 17.8027 21.602 16.3118 18.6229L14.5233 19.518C16.2567 22.9816 19.7797 25.8137 23.287 26.4353L23.6361 24.466ZM16.3118 18.6229C15.9718 17.9435 15.6395 16.9668 15.5351 16.3753L13.5655 16.7229C13.7089 17.535 14.1118 18.6957 14.5233 19.518L16.3118 18.6229ZM15.5351 16.3754C15.5157 16.2653 15.5036 16.1998 15.4948 16.1401C15.4864 16.084 15.4865 16.068 15.4865 16.0712C15.4866 16.0804 15.4855 16.1092 15.4757 16.1466C15.4661 16.1831 15.4546 16.2036 15.4551 16.2028C15.4671 16.1818 15.5186 16.1055 15.7004 15.9106C15.8751 15.7232 16.1161 15.4818 16.467 15.1287L15.0483 13.7189C14.7113 14.0581 14.4399 14.3296 14.2374 14.5468C14.042 14.7564 13.8515 14.9766 13.7161 15.2149C13.3608 15.8405 13.5095 16.4054 13.5655 16.7229L15.5351 16.3754ZM16.467 15.1287C16.846 14.7473 17.1556 14.4256 17.3807 14.1787C17.4924 14.0562 17.591 13.9437 17.6694 13.8468C17.716 13.7891 17.8493 13.6271 17.9264 13.4415L16.0793 12.6745C16.1004 12.6237 16.1206 12.5888 16.1283 12.5758C16.1375 12.5602 16.1437 12.5514 16.144 12.551C16.1442 12.5506 16.1359 12.5623 16.1142 12.5892C16.0713 12.6423 16.0022 12.7221 15.9027 12.8313C15.7053 13.0478 15.4183 13.3466 15.0483 13.7189L16.467 15.1287ZM17.9264 13.4415C18.1236 12.9667 18.1358 12.4703 17.9314 11.9812L16.086 12.7522C16.0878 12.7564 16.0858 12.7525 16.0835 12.7416C16.0811 12.7302 16.0794 12.7156 16.0796 12.6997C16.0797 12.6838 16.0816 12.672 16.0829 12.6658C16.0842 12.6601 16.0842 12.6626 16.0793 12.6745L17.9264 13.4415ZM17.9315 11.9813C17.8931 11.8894 17.8302 11.7863 17.8193 11.7679C17.7872 11.7137 17.7451 11.6445 17.696 11.5647C17.5973 11.4043 17.462 11.1878 17.3033 10.9356C16.9854 10.4306 16.5681 9.77409 16.149 9.11885C15.7299 8.46361 15.3079 7.80772 14.9805 7.30396C14.8171 7.05241 14.676 6.83676 14.5701 6.67743C14.5175 6.59816 14.4716 6.5298 14.4351 6.47678C14.4163 6.44942 14.3576 6.36261 14.301 6.29782L12.795 7.61387C12.7573 7.5708 12.7417 7.54383 12.7869 7.60968C12.8145 7.64986 12.8537 7.70807 12.9041 7.78397C13.0044 7.93499 13.1413 8.1441 13.3035 8.39364C13.6273 8.89205 14.0466 9.54365 14.4641 10.1965C14.8817 10.8493 15.2963 11.5015 15.6107 12.001C15.7682 12.2512 15.8992 12.4609 15.9925 12.6126C16.0395 12.6889 16.0748 12.7472 16.0985 12.7873C16.1435 12.8632 16.1148 12.8211 16.086 12.7521L17.9315 11.9813ZM14.3011 6.298C14.0933 6.0601 13.8299 5.90832 13.6029 5.81727C13.3691 5.72345 13.0928 5.66132 12.8076 5.66703L12.8475 7.66663C12.8329 7.66692 12.8293 7.66539 12.8359 7.66671C12.842 7.66792 12.8503 7.6703 12.8582 7.67346C12.8665 7.67677 12.8669 7.67798 12.8599 7.67333C12.8559 7.67074 12.8482 7.66539 12.8378 7.6565C12.8274 7.6477 12.8123 7.63375 12.7948 7.61368L14.3011 6.298ZM12.8077 5.66702C12.6095 5.67096 12.4326 5.7181 12.2838 5.76753C12.1328 5.81771 11.952 5.89084 11.7307 5.98699C11.285 6.18063 10.5766 6.5111 9.41668 7.0589L10.2708 8.86736C11.4394 8.31545 12.1167 7.99988 12.5276 7.82136C12.7347 7.73142 12.85 7.68693 12.9145 7.66549C12.9813 7.64329 12.9394 7.6648 12.8474 7.66663L12.8077 5.66702ZM21.5609 11.6761C20.8243 12.2552 20.1452 12.7926 19.6443 13.1922C19.3941 13.3918 19.1868 13.5583 19.0384 13.6789C18.9646 13.7388 18.9026 13.7897 18.8562 13.8286C18.8335 13.8476 18.8104 13.8671 18.7901 13.885C18.7802 13.8937 18.7665 13.9058 18.7518 13.9196C18.7485 13.9227 18.7041 13.9633 18.6584 14.0185L20.198 15.2951C20.139 15.3663 20.077 15.4166 20.1097 15.3878C20.1129 15.3851 20.1222 15.377 20.1403 15.3619C20.1754 15.3325 20.2285 15.2889 20.2997 15.231C20.4412 15.116 20.6432 14.9538 20.8916 14.7556C21.3878 14.3597 22.063 13.8254 22.7969 13.2484L21.5609 11.6761ZM18.6586 14.0183C18.3674 14.3692 18.3323 14.788 18.3545 15.0531C18.3775 15.3275 18.4831 15.7043 18.7843 15.9962L20.1763 14.5602C20.2589 14.6402 20.2988 14.7183 20.3174 14.7638C20.3368 14.8115 20.3447 14.8524 20.3475 14.886C20.3503 14.9192 20.3499 14.9664 20.3358 15.0263C20.3224 15.0832 20.2881 15.1865 20.1978 15.2953L18.6586 14.0183ZM18.784 15.996C18.8453 16.0554 18.9912 16.1725 19.1113 16.2689C19.2626 16.3906 19.4715 16.5571 19.7221 16.7559C20.2236 17.1539 20.8968 17.6848 21.6207 18.2528L22.8554 16.6794C22.1335 16.113 21.4632 15.5843 20.9651 15.1891C20.7159 14.9914 20.5108 14.8279 20.3643 14.7102C20.1865 14.5672 20.1507 14.5354 20.1766 14.5604L18.784 15.996ZM21.6207 18.2528C22.8012 19.1792 23.4792 19.7077 23.8829 20.0031C24.0796 20.147 24.2484 20.2634 24.3961 20.3447C24.5548 20.432 24.7766 20.529 25.0578 20.529V18.529C25.2528 18.529 25.3757 18.6009 25.3604 18.5925C25.3341 18.578 25.2538 18.5279 25.0638 18.3889C24.6941 18.1185 24.0484 17.6156 22.8554 16.6794L21.6207 18.2528ZM25.0578 20.529C25.3478 20.529 25.7168 20.4366 26.0005 20.2071L24.7429 18.652C24.7941 18.6106 24.8376 18.5865 24.8627 18.5741C24.8896 18.5607 24.9114 18.5526 24.9274 18.5475C24.9538 18.5392 24.9954 18.529 25.0578 18.529V20.529ZM26.0005 20.2071C26.0378 20.177 26.2042 20.0492 26.325 19.8224C26.4308 19.6238 26.4608 19.4292 26.4746 19.3149C26.5012 19.0962 26.5084 18.7454 26.5204 18.2238L24.521 18.1777C24.5145 18.4572 24.5097 18.6594 24.5043 18.8111C24.4986 18.9691 24.4931 19.0418 24.4892 19.0741C24.4841 19.1162 24.4892 19.0147 24.5597 18.8823C24.6452 18.7218 24.766 18.6333 24.7429 18.652L26.0005 20.2071ZM26.5204 18.2238L26.5465 17.0945L24.547 17.0484L24.521 18.1777L26.5204 18.2238ZM26.1987 17.8297L26.3448 17.7041L25.041 16.1875L24.8948 16.3132L26.1987 17.8297ZM26.3448 17.7041L26.491 17.5784L25.1871 16.0619L25.041 16.1875L26.3448 17.7041ZM25.8389 17.8201L27.4115 17.8203L27.4117 15.8203L25.8391 15.8201L25.8389 17.8201ZM27.4116 17.8203C28.2914 17.8203 29.1459 17.8476 29.3318 17.8703L29.5741 15.885C29.2445 15.8448 28.2618 15.8203 27.4117 15.8203L27.4116 17.8203ZM29.3318 17.8703C30.2396 17.9811 30.9904 18.2552 31.5974 18.6634L32.7135 17.0037C31.8081 16.3949 30.7476 16.0283 29.5742 15.885L29.3318 17.8703ZM31.5975 18.6634C31.8287 18.8189 32.1409 19.0175 32.4886 19.0894C32.6938 19.1319 32.918 19.1335 33.1479 19.0677C33.3674 19.0049 33.5359 18.8965 33.656 18.802L32.4195 17.2301C32.4283 17.2231 32.4902 17.1756 32.5977 17.1448C32.7155 17.1112 32.822 17.116 32.8938 17.1309C32.9513 17.1428 32.968 17.1573 32.9253 17.135C32.8847 17.1138 32.8187 17.0745 32.7134 17.0037L31.5975 18.6634ZM33.6561 18.802C33.9679 18.5566 34.1694 18.2087 34.2001 17.7754C34.2235 17.4443 34.1405 17.1102 34.0614 16.8385L32.1411 17.3975C32.1741 17.5108 32.1912 17.5844 32.1995 17.6313C32.208 17.6798 32.2023 17.6737 32.2051 17.6343C32.2084 17.5864 32.2236 17.5014 32.275 17.4064C32.3259 17.3125 32.387 17.2556 32.4194 17.2301L33.6561 18.802ZM34.0614 16.8385C33.4494 14.7363 31.9132 13.2987 29.7128 12.6127L29.1175 14.522C30.7614 15.0345 31.7398 16.0189 32.1412 17.3975L34.0614 16.8385ZM29.7128 12.6127C28.8306 12.3376 27.9364 12.1901 26.7905 12.1136L26.6573 14.1092C27.694 14.1784 28.425 14.3061 29.1175 14.522L29.7128 12.6127ZM26.7904 12.1136C26.5871 12.1001 26.4365 12.0893 26.3211 12.0793C26.2026 12.069 26.1416 12.0612 26.1107 12.056C26.0803 12.0508 26.1172 12.0541 26.1798 12.0813C26.2576 12.1151 26.3127 12.1578 26.334 12.1761L25.0304 13.693C25.1126 13.7636 25.2265 13.8478 25.3838 13.9161C25.5259 13.9777 25.6629 14.0086 25.7759 14.0277C25.981 14.0626 26.27 14.0834 26.6574 14.1092L26.7904 12.1136ZM26.3342 12.1763L26.1987 12.0598L24.8948 13.5763L25.0302 13.6928L26.3342 12.1763ZM26.5465 12.795L26.5204 11.6657L24.521 11.7118L24.547 12.8411L26.5465 12.795ZM26.5204 11.6657C26.5084 11.1441 26.5012 10.7933 26.4746 10.5746C26.4608 10.4603 26.4308 10.2657 26.325 10.0671C26.2042 9.84034 26.0378 9.71255 26.0005 9.68238L24.7429 11.2375C24.766 11.2562 24.6452 11.1677 24.5597 11.0072C24.4892 10.8748 24.4841 10.7733 24.4892 10.8154C24.4931 10.8477 24.4986 10.9204 24.5043 11.0784C24.5097 11.2301 24.5145 11.4323 24.521 11.7118L26.5204 11.6657ZM26.0007 9.68251C25.7087 9.44633 25.3377 9.36049 25.0507 9.36049V11.3605C25.0005 11.3605 24.9628 11.3529 24.9319 11.3433C24.9146 11.338 24.8912 11.3294 24.8628 11.3153C24.8357 11.3019 24.7926 11.2777 24.7427 11.2374L26.0007 9.68251ZM25.0507 9.36049C24.7884 9.36049 24.575 9.44091 24.3966 9.53692C24.2449 9.61857 24.0739 9.73634 23.8768 9.88059C23.4711 10.1776 22.7817 10.7165 21.5609 11.6761L22.7969 13.2485C24.0316 12.2779 24.6872 11.7659 25.058 11.4945C25.2492 11.3546 25.3244 11.3088 25.3446 11.298C25.3493 11.2954 25.3174 11.3134 25.2595 11.3306C25.1906 11.3509 25.1182 11.3605 25.0507 11.3605V9.36049Z" fill="#786453" mask="url(#path-1-inside-1_603_1420)"/>
</svg>
