<svg xmlns="http://www.w3.org/2000/svg" viewBox="0 0 20 20"><title>nav-contacts-map</title><path d="M8.28711,10.36908a3.11151,3.11151,0,0,0,1.7287.52441H10.016l-.00018-.125h0l.00018.125a3.11486,3.11486,0,0,0,3.11139-3.11126l-.125-.00019h0l.125.00019V7.782a3.11156,3.11156,0,1,0-4.84027,2.587ZM7.73584,6.83752A2.46786,2.46786,0,1,1,7.5954,8.26337,2.46836,2.46836,0,0,1,7.73584,6.83752Zm2.28-1.62341v-.025h0Z" style="fill:#786453"/><path d="M14.47552,3.32233A6.30689,6.30689,0,0,0,3.709,7.782a7.631,7.631,0,0,0,.92035,3.07013,28.89775,28.89775,0,0,0,2.02436,3.41608C8.13428,16.4566,9.6452,18.2627,9.76923,18.4104h.00006l.0437-.03674.05194-.0437-.09564.08044a.32129.32129,0,0,0,.24634.11462v.00007l.00018-.00007.00018.00007V18.525a.32167.32167,0,0,0,.2464-.11444l.00012-.00006-.08069-.06781-.015-.01263h0l.0957.08044c.12409-.14764,1.635-1.95379,3.1156-4.14221a28.88994,28.88994,0,0,0,2.02429-3.41614A7.63055,7.63055,0,0,0,16.32269,7.782,6.30665,6.30665,0,0,0,14.47552,3.32233ZM15.804,7.782h0Zm-11.5763,0h0Zm5.78815-5.66314A5.66981,5.66981,0,0,1,15.679,7.782a6.62951,6.62951,0,0,1-.76233,2.59394,25.92053,25.92053,0,0,1-1.76416,3.05975c-1.25391,1.9057-2.60059,3.601-3.13666,4.26025-.53613-.65918-1.88275-2.35449-3.13666-4.26007a25.91351,25.91351,0,0,1-1.76416-3.05969A6.63,6.63,0,0,1,4.35272,7.782a5.66981,5.66981,0,0,1,5.66315-5.6632Zm-.00006,16.28125h.00006v.00964Z" style="fill:#786453"/></svg>