<svg xmlns="http://www.w3.org/2000/svg" viewBox="0 0 23 26"><title>slash</title><path d="M22.06738.38171,21.9541.26837l-.158-.0263a2.70638,2.70638,0,0,0-.80231-.036.9985.9985,0,0,0-.30865.10534,2.46582,2.46582,0,0,0-.27191.166,8.1409,8.1409,0,0,0-.666.52814A14.84268,14.84268,0,0,0,18.5448,2.13818l-.001.0011q-.40521.43872-1.22412,1.292-.786.82023-1.12048,1.15455l-.00079.00073A108.81916,108.81916,0,0,0,3.04755,20.348l-.00257.00391c-1.0177,1.53778-1.64264,2.52508-1.84179,2.92334a3.17163,3.17163,0,0,0-.24292.64923.9735.9735,0,0,0,.26825.95337l.35351.35351.66724-.66717.03015-.04822q6.1809-9.88275,17.9765-21.684a7.32082,7.32082,0,0,1,1.1806-.88947l.01868-.012.01752-.01355a2.98235,2.98235,0,0,0,.61749-.59717A.889.889,0,0,0,22.25342.918.64555.64555,0,0,0,22.06738.38171Z" style="fill:#786453;opacity:0.800000011920929;isolation:isolate"/></svg>