<svg width="41" height="40" viewBox="0 0 41 40" fill="none" xmlns="http://www.w3.org/2000/svg">
<path fill-rule="evenodd" clip-rule="evenodd" d="M16.4492 10.356C13.8649 10.7331 11.8765 12.6747 11.3643 15.0889C11.1348 16.1715 11.1196 23.6072 11.2985 24.8013C11.6779 27.3334 13.6933 29.3835 16.1003 29.8496C17.2053 30.0638 24.5584 30.0778 25.7267 29.8998C28.3356 29.5028 30.2174 27.6215 30.7674 25.1792C30.9949 24.1694 31.0109 16.5992 30.8369 15.449C30.4506 12.8962 28.4999 10.8928 26.0456 10.4039C24.8776 10.1713 17.7021 10.1731 16.4492 10.356V10.356ZM16.632 12.6688C14.2116 13.2211 13.5144 14.9721 13.5168 17.2055C13.5183 18.4681 13.4291 23.9309 13.5924 24.7314C14.0672 27.0591 15.8702 27.88 18.0963 27.8763C19.4255 27.8741 24.8866 27.9722 25.7468 27.7845C28.0813 27.2749 28.8206 25.4336 28.8177 23.2396C28.8161 21.9423 28.9085 16.5512 28.7369 15.7052C28.2603 13.3533 26.444 12.5656 24.2164 12.5686C22.525 12.5711 17.9693 12.3638 16.632 12.6688V12.6688Z" fill="white"/>
<path fill-rule="evenodd" clip-rule="evenodd" d="M20.5294 15.2362C17.9851 15.5999 15.744 17.853 16.1804 20.9132C16.5409 23.4418 18.8608 25.6037 21.8377 25.203C24.3732 24.8619 26.5518 22.506 26.1444 19.5208C25.8026 17.0161 23.4656 14.8167 20.5294 15.2362V15.2362ZM20.4185 17.2717C16.4968 18.2852 18.0117 24.1704 21.9352 23.1754C23.3462 22.8178 24.5696 21.3273 24.1364 19.5007C23.7934 18.0542 22.2774 16.7914 20.4185 17.2717V17.2717Z" fill="white"/>
<path d="M26.6088 16.2563C27.0935 16.2563 27.4865 15.8632 27.4865 15.3782C27.4865 14.8932 27.0935 14.5 26.6088 14.5C26.124 14.5 25.731 14.8932 25.731 15.3782C25.731 15.8632 26.124 16.2563 26.6088 16.2563Z" fill="#FEFEFE"/>
</svg>
