<svg width="41" height="40" viewBox="0 0 41 40" fill="none" xmlns="http://www.w3.org/2000/svg">
<path fill-rule="evenodd" clip-rule="evenodd" d="M19.6206 10.1096C13.6648 10.9168 9.9838 16.6933 11.3291 22.2701C11.511 23.0239 11.7312 23.5047 12.0084 24.1677C12.2342 24.7075 11.4633 27.688 11.3043 28.4709C11.1449 29.2562 10.6733 30.2207 11.8764 29.9352C13.2968 29.598 14.6879 29.2592 16.1023 28.9185C16.9703 28.7094 17.8352 29.664 20.2769 29.832C26.237 30.2423 31.1282 25.3616 30.883 19.5259C30.6473 13.9109 25.7148 9.28342 19.6206 10.1096ZM13.7556 27.2524C14.4199 27.1453 16.5578 26.4651 16.9855 26.6325C18.1138 27.0742 18.3941 27.4485 20.043 27.646C25.9415 28.3522 30.4289 22.4922 28.0936 16.8539C26.2543 12.4125 20.4069 10.6222 16.2401 13.798C15.8411 14.1021 15.5322 14.462 15.1898 14.7875C14.6404 15.3099 14.0096 16.377 13.6861 17.2789C12.7962 19.7604 13.1914 21.6374 14.2257 23.8117C14.5655 24.5257 13.8857 26.3814 13.7556 27.2524V27.2524Z" fill="white"/>
<path fill-rule="evenodd" clip-rule="evenodd" d="M23.5621 24.7737C25.4401 24.7737 26.7193 22.9775 26.1139 22.3007C25.8606 22.0177 24.6478 21.7466 24.1383 21.607C22.9563 21.2834 23.0999 22.1132 22.4177 22.3808C21.6021 22.7006 19.5324 20.6153 19.2473 20.2928C18.8947 19.8944 18.1918 19.2976 18.728 18.5985C19.399 17.7236 19.3181 17.8522 18.8309 16.718C18.5988 16.178 18.3646 15.2019 17.7044 15.1789C17.0458 15.1559 14.5878 17.2225 16.9938 20.5092C18.0342 21.9303 20.7308 24.7737 23.5621 24.7737V24.7737Z" fill="white"/>
<path fill-rule="evenodd" clip-rule="evenodd" d="M23.5621 24.7737C25.4401 24.7737 26.7193 22.9775 26.1139 22.3007C25.8606 22.0177 24.6478 21.7466 24.1383 21.607C22.9563 21.2834 23.0999 22.1132 22.4177 22.3808C21.6021 22.7006 19.5324 20.6153 19.2473 20.2928C18.8947 19.8944 18.1918 19.2976 18.728 18.5985C19.399 17.7236 19.3181 17.8522 18.8309 16.718C18.5988 16.178 18.3646 15.2019 17.7044 15.1789C17.0458 15.1559 14.5878 17.2225 16.9938 20.5092C18.0342 21.9303 20.7308 24.7737 23.5621 24.7737V24.7737Z" fill="white"/>
</svg>
