<svg xmlns="http://www.w3.org/2000/svg" viewBox="0 0 41 40"><title>soc_instagram-footer</title><path d="M30.83691,15.449a6.07217,6.07217,0,0,0-4.79132-5.0451,73.88866,73.88866,0,0,0-9.59637-.04785,6.08455,6.08455,0,0,0-5.0849,4.73291,76.92934,76.92934,0,0,0-.0658,9.71234,6.135,6.135,0,0,0,4.80176,5.04834,78.76567,78.76567,0,0,0,9.6264.05017A6.02463,6.02463,0,0,0,30.7674,25.1792,78.48184,78.48184,0,0,0,30.83691,15.449Zm-2.01922,7.79065c.00293,2.194-.73639,4.03528-3.07086,4.54486-.86023.18775-6.32135.0896-7.65052.0918-2.22613.00372-4.02911-.8172-4.5039-3.1449-.16333-.80047-.0741-6.2633-.07563-7.52587-.00238-2.2334.69483-3.98444,3.11524-4.53669,1.33728-.305,5.893-.09771,7.58441-.10022,2.2276-.003,4.04388.78467,4.52045,3.1366C28.90851,16.55121,28.8161,21.94232,28.81769,23.23962Z" style="fill:#4f6654"/><path d="M26.14441,19.52081a5.0304,5.0304,0,1,0-4.3067,5.68219A4.99352,4.99352,0,0,0,26.14441,19.52081Zm-4.20923,3.65461c-3.92346.995-5.43835-4.8902-1.51666-5.90369a3.0477,3.0477,0,0,1,1.51666,5.90369Z" style="fill:#4f6654"/><path d="M26.6088,16.2563a.87815.87815,0,1,0-.8778-.8781A.8779.8779,0,0,0,26.6088,16.2563Z" style="fill:#4f6654"/></svg>