<svg width="38" height="38" viewBox="0 0 38 38" fill="none" xmlns="http://www.w3.org/2000/svg">
<path fill-rule="evenodd" clip-rule="evenodd" d="M28.6296 22.9533L28.6236 22.9772C28.1372 24.9434 25.9444 27.0532 23.9306 27.4925L23.9081 27.497C22.2904 27.8064 20.6472 27.9622 19.0002 27.9626C18.518 27.9626 18.0353 27.9476 17.5528 27.9205L15.3292 30.2322C15.2073 30.3591 15.0501 30.4466 14.878 30.4835C14.7059 30.5204 14.5267 30.505 14.3634 30.4393C14.2002 30.3735 14.0603 30.2605 13.9618 30.1146C13.8633 29.9687 13.8107 29.7967 13.8107 29.6207V27.4262C11.8724 26.8723 9.84302 24.8594 9.37667 22.9772L9.37119 22.9533C8.76982 20.2271 8.76982 17.4027 9.37119 14.6765L9.37667 14.6526C9.86345 12.6864 12.0563 10.5766 14.0693 10.1377L14.0928 10.1328C17.3353 9.51172 20.6662 9.51172 23.9087 10.1328L23.9315 10.1377C25.9453 10.5766 28.1378 12.6864 28.6242 14.6526L28.6301 14.6765C29.2312 17.4027 29.231 20.2272 28.6296 22.9533ZM14.4418 11.9031C17.453 11.3279 20.5458 11.3279 23.557 11.9031C24.8805 12.1976 26.5445 13.7925 26.869 15.0747C27.411 17.5387 27.411 20.091 26.869 22.555C26.5444 23.8378 24.8796 25.4325 23.5568 25.7273C21.8368 26.0554 20.0864 26.1968 18.336 26.1492C18.3189 26.1486 18.3019 26.1516 18.286 26.158C18.2701 26.1644 18.2557 26.174 18.2437 26.1863L16.6202 27.8535L14.8928 29.6262C14.8649 29.6553 14.8289 29.6754 14.7895 29.6839C14.7501 29.6924 14.709 29.6889 14.6716 29.6738C14.6342 29.6588 14.6022 29.6329 14.5796 29.5995C14.557 29.5661 14.5449 29.5267 14.5449 29.4864V25.8505C14.5447 25.8214 14.5345 25.7932 14.5158 25.7708C14.4972 25.7484 14.4704 25.7332 14.4418 25.7277C13.119 25.4329 11.4549 23.8382 11.1296 22.5554C10.5883 20.0913 10.5883 17.5391 11.1296 15.0751C11.4549 13.7925 13.119 12.1976 14.4418 11.9031ZM23.6028 22.7407C23.3382 23.3025 22.9532 23.7694 22.398 24.0681C22.2911 24.1254 22.1699 24.1563 22.0474 24.1874C21.9905 24.2019 21.9333 24.2164 21.8772 24.2337C21.8113 24.2137 21.7464 24.1958 21.6827 24.1783C21.5497 24.1416 21.4217 24.1064 21.2999 24.0559C19.4347 23.282 17.7186 22.2838 16.359 20.7534C15.5859 19.8834 14.9803 18.9008 14.4688 17.8614C14.2538 17.4244 14.0691 16.9723 13.8846 16.5209C13.8609 16.4629 13.8372 16.4049 13.8134 16.3469C13.6234 15.8827 13.9033 15.4028 14.198 15.0533C14.4794 14.7293 14.8262 14.4686 15.2156 14.2883C15.5165 14.1439 15.813 14.2272 16.0328 14.4821C16.5141 15.0268 16.9378 15.6198 17.297 16.2517C17.5143 16.6448 17.4545 17.1252 17.0608 17.3926C16.9857 17.4437 16.9158 17.5019 16.8459 17.56C16.827 17.5758 16.8081 17.5915 16.7891 17.6071C16.709 17.6674 16.6396 17.7406 16.5838 17.8239C16.5379 17.9019 16.5104 17.9894 16.5035 18.0796C16.4966 18.1699 16.5104 18.2605 16.5439 18.3446C17.0292 19.6785 17.8476 20.7163 19.1905 21.2746C19.2094 21.2825 19.2284 21.2905 19.2473 21.2985C19.4436 21.3814 19.6428 21.4655 19.8686 21.4394C20.137 21.408 20.2879 21.2066 20.4396 21.0039C20.5224 20.8933 20.6055 20.7824 20.7081 20.6985C20.8407 20.5888 21.0056 20.5253 21.1776 20.5178C21.3495 20.5103 21.5193 20.5592 21.661 20.6569C21.9669 20.8506 22.2637 21.0582 22.5581 21.2683C22.8504 21.4679 23.1323 21.6825 23.4025 21.9113C23.659 22.1371 23.7476 22.4339 23.6028 22.7407ZM21.1946 18.3932C21.0781 18.3954 21.125 18.3932 21.1693 18.3918C21.1295 18.3932 21.0898 18.3866 21.0526 18.3725C21.0154 18.3583 20.9814 18.3369 20.9526 18.3094C20.9238 18.2819 20.9008 18.2489 20.885 18.2124C20.8691 18.1758 20.8607 18.1365 20.8603 18.0967C20.8496 17.9658 20.8305 17.8356 20.803 17.7072C20.7472 17.4544 20.604 17.2296 20.3985 17.0722C20.2987 17.0003 20.1871 16.9465 20.0687 16.9132C19.9892 16.8901 19.908 16.8827 19.8269 16.8753C19.7555 16.8688 19.6842 16.8623 19.6143 16.8451C19.5782 16.8387 19.5437 16.8254 19.5127 16.8057C19.4818 16.786 19.455 16.7604 19.434 16.7304C19.413 16.7004 19.3981 16.6665 19.3902 16.6307C19.3822 16.5949 19.3815 16.5579 19.3879 16.5218C19.4017 16.4515 19.4409 16.3888 19.4979 16.3454C19.5549 16.3021 19.6258 16.2811 19.6972 16.2864C20.643 16.3545 21.319 16.8437 21.4154 17.9572C21.4268 18.0357 21.426 18.1156 21.4131 18.1939C21.4039 18.2441 21.3793 18.2901 21.3426 18.3254C21.3059 18.3608 21.2591 18.3838 21.2086 18.3912C21.2161 18.3913 21.2148 18.3919 21.1946 18.3932ZM20.6066 15.8466C20.3146 15.7079 20.0039 15.6126 19.6844 15.5636C19.6005 15.5498 19.516 15.5392 19.4315 15.5287C19.376 15.5218 19.3206 15.5148 19.2653 15.507C19.2287 15.5055 19.1928 15.4964 19.1598 15.4802C19.1269 15.4641 19.0977 15.4413 19.0741 15.4133C19.0504 15.3853 19.0328 15.3527 19.0224 15.3176C19.012 15.2825 19.009 15.2455 19.0136 15.2092C19.0137 15.1723 19.0216 15.1359 19.0368 15.1023C19.0519 15.0687 19.074 15.0387 19.1016 15.0142C19.1292 14.9897 19.1616 14.9713 19.1967 14.9602C19.2319 14.9491 19.269 14.9456 19.3056 14.9498C19.8623 14.9711 20.4078 15.1133 20.9041 15.3665C21.9161 15.9027 22.4946 16.7484 22.6633 17.8781C22.6659 17.8951 22.669 17.9121 22.672 17.929C22.6782 17.9632 22.6843 17.9972 22.6868 18.0316C22.6939 18.1236 22.699 18.2158 22.7049 18.3235C22.7071 18.364 22.7095 18.4067 22.7121 18.4524C22.7083 18.5095 22.7004 18.5662 22.6882 18.6222C22.6233 18.8669 22.2519 18.8975 22.1664 18.6503C22.1439 18.574 22.1341 18.4944 22.1373 18.4149C22.1449 17.8965 22.0161 17.3852 21.7636 16.9323C21.4925 16.465 21.0902 16.0875 20.6066 15.8466ZM23.4378 19.001C23.4507 19.1764 23.5386 19.3399 23.7343 19.3376C23.9236 19.3354 24.0228 19.1691 24.0093 18.9933C24.0052 18.9413 24.0013 18.8893 23.9973 18.8373C23.9695 18.4718 23.9416 18.1051 23.8774 17.7452C23.6817 16.6463 23.1593 15.712 22.4177 15.014C22.199 14.8081 21.9613 14.6229 21.7072 14.46C21.508 14.3322 21.2987 14.2182 21.0808 14.1188C20.7345 13.961 20.3662 13.8401 19.9813 13.7598C19.6819 13.6974 19.3725 13.6594 19.0556 13.6477H19.0543L19.0046 13.6463C18.9888 13.6463 18.973 13.646 18.9573 13.6457C18.9259 13.645 18.8946 13.6444 18.8634 13.6463C18.8212 13.6465 18.7795 13.6556 18.7411 13.6731C18.7027 13.6906 18.6685 13.7161 18.6407 13.7479C18.6129 13.7796 18.5922 13.8169 18.58 13.8573C18.5677 13.8977 18.5642 13.9402 18.5696 13.982C18.6061 14.1871 18.8123 14.2077 18.9821 14.2246C18.9917 14.2256 19.0012 14.2265 19.0106 14.2275C19.0976 14.2367 19.1848 14.2442 19.2719 14.2517C19.4614 14.2681 19.6508 14.2844 19.8372 14.3176C20.7286 14.4843 21.5458 14.9248 22.1751 15.5778C22.8043 16.2308 23.2142 17.0638 23.3477 17.9608C23.386 18.2369 23.4048 18.5157 23.4236 18.7944C23.4282 18.8633 23.4329 18.9322 23.4378 19.001Z" fill="white"/>
</svg>
