<svg width="40" height="40" viewBox="0 0 40 40" fill="none" xmlns="http://www.w3.org/2000/svg">
<path fill-rule="evenodd" clip-rule="evenodd" d="M14.5157 29.3134C14.4795 30.5876 14.283 32.0732 15.4221 32.1064C15.8851 32.12 16.0904 31.8737 16.2927 31.6559L18.2536 29.6255C18.4671 29.4046 18.4806 29.4081 19.4983 29.4341C21.1794 29.4772 22.9094 29.3307 24.515 29.0635C26.2688 28.7717 27.1678 28.1223 28.1617 27.2891C30.4136 25.4011 30.6952 21.8677 30.5812 18.9752C30.524 17.5206 30.3345 15.5993 29.7409 14.4078C27.5968 10.1058 22.45 9.88253 17.8606 10.2531C16.3057 10.3787 14.6445 10.5313 13.4082 11.1998C12.2795 11.8101 11.2492 12.8015 10.5932 13.7964C8.97436 16.2521 9.05479 22.7711 10.2163 25.1577C10.4722 25.6833 11.0222 26.4721 11.3394 26.7894C11.9564 27.4065 12.7171 28.062 13.5076 28.4706C14.048 28.7502 14.5352 28.6244 14.5157 29.3134ZM11.2496 19.6004C11.2496 22.6851 11.3991 24.4339 13.4751 26.1586C13.8687 26.4855 14.3136 26.7563 14.8203 26.9398C15.1658 27.0648 15.1118 26.9601 15.2848 27.2318C15.2848 27.7859 15.2224 29.4182 15.2702 30.421C15.3175 31.4125 15.4997 31.4241 16.2188 30.6345C16.4452 30.3858 16.6868 30.0894 16.9476 29.8266C17.2203 29.5517 17.4292 29.3496 17.6959 29.0667C17.953 28.7939 18.1999 28.483 18.4704 28.244C19.5844 27.26 18.9936 27.5585 20.8299 27.4973C26.7686 27.2994 28.7229 25.7489 28.7229 19.6004C28.7229 18.4294 28.5698 17.0953 28.3237 15.9998C28.0674 14.8591 27.3309 14.1608 26.7354 13.6006C25.9865 12.8961 25.2784 12.5682 23.9804 12.3701C21.2668 11.9558 18.7741 11.9487 16.0624 12.3595C14.7044 12.5652 14.1546 12.8078 13.2939 13.5685C12.7244 14.0716 11.9117 14.8747 11.6613 15.9293C11.4005 17.0279 11.2496 18.4303 11.2496 19.6004Z" fill="#4F6654"/>
<path fill-rule="evenodd" clip-rule="evenodd" d="M15.972 15.0638C13.8699 16.0576 14.4438 17.228 15.1146 18.5706C15.4523 19.247 15.743 19.8297 16.1201 20.4092C17.2533 22.1503 18.7611 23.457 20.6662 24.4694C22.2109 25.2905 23.3704 26.1095 24.4963 24.5137C25.1254 23.6219 25.0578 23.3186 24.2621 22.7332C23.967 22.5162 22.8531 21.6913 22.546 21.6135C21.4869 21.3453 21.6413 22.5686 20.7456 22.5388C19.5876 22.5002 18.1804 21.0188 17.6347 19.8673C17.4842 19.5495 17.2476 19.1401 17.4292 18.7793C17.5693 18.5005 18.0155 18.3091 18.1646 18.087C18.68 17.3186 17.5338 16.0214 16.9804 15.3778C16.7174 15.0718 16.5358 14.7975 15.972 15.0638Z" fill="#4F6654"/>
</svg>
