<svg width="41" height="40" viewBox="0 0 41 40" fill="none" xmlns="http://www.w3.org/2000/svg">
<path fill-rule="evenodd" clip-rule="evenodd" d="M19.6205 10.1096C13.6647 10.9168 9.98374 16.6933 11.329 22.2701C11.5109 23.0239 11.7311 23.5047 12.0083 24.1677C12.2341 24.7075 11.4632 27.688 11.3042 28.4709C11.1448 29.2562 10.6732 30.2207 11.8763 29.9352C13.2967 29.598 14.6878 29.2592 16.1022 28.9185C16.9702 28.7094 17.8351 29.664 20.2768 29.832C26.2369 30.2423 31.1281 25.3616 30.8829 19.5259C30.6472 13.9109 25.7147 9.2834 19.6205 10.1096ZM13.7555 27.2524C14.4198 27.1453 16.5577 26.4651 16.9854 26.6325C18.1137 27.0742 18.394 27.4485 20.0429 27.646C25.9414 28.3522 30.4288 22.4922 28.0935 16.8539C26.2542 12.4125 20.4068 10.6222 16.24 13.798C15.841 14.1021 15.5321 14.462 15.1897 14.7875C14.6403 15.3099 14.0095 16.377 13.686 17.2789C12.7961 19.7604 13.1913 21.6374 14.2256 23.8117C14.5654 24.5257 13.8856 26.3814 13.7555 27.2524Z" fill="#4F6654"/>
<path fill-rule="evenodd" clip-rule="evenodd" d="M23.5621 24.7737C25.4401 24.7737 26.7193 22.9775 26.1139 22.3007C25.8606 22.0177 24.6478 21.7466 24.1383 21.607C22.9563 21.2834 23.0999 22.1132 22.4177 22.3808C21.6021 22.7006 19.5324 20.6153 19.2473 20.2928C18.8947 19.8944 18.1918 19.2976 18.728 18.5985C19.399 17.7236 19.3181 17.8522 18.8309 16.718C18.5988 16.178 18.3646 15.2019 17.7044 15.1789C17.0458 15.1559 14.5878 17.2225 16.9938 20.5092C18.0342 21.9303 20.7308 24.7737 23.5621 24.7737Z" fill="#4F6654"/>
<path fill-rule="evenodd" clip-rule="evenodd" d="M23.5621 24.7737C25.4401 24.7737 26.7193 22.9775 26.1139 22.3007C25.8606 22.0177 24.6478 21.7466 24.1383 21.607C22.9563 21.2834 23.0999 22.1132 22.4177 22.3808C21.6021 22.7006 19.5324 20.6153 19.2473 20.2928C18.8947 19.8944 18.1918 19.2976 18.728 18.5985C19.399 17.7236 19.3181 17.8522 18.8309 16.718C18.5988 16.178 18.3646 15.2019 17.7044 15.1789C17.0458 15.1559 14.5878 17.2225 16.9938 20.5092C18.0342 21.9303 20.7308 24.7737 23.5621 24.7737Z" fill="#4F6654"/>
</svg>
