<svg width="355" height="238" viewBox="0 0 355 238" fill="none" xmlns="http://www.w3.org/2000/svg">
<path d="M17.1979 109.429C14.3757 111.348 12.2874 111.478 10.933 109.818C10.4478 109.14 10.1036 108.044 9.90051 106.531C9.84228 105.182 10.166 103.655 10.8716 101.949C11.8594 99.4096 13.1259 97.2504 14.6713 95.4714C16.3143 93.8685 17.7789 92.92 19.065 92.626C20.4328 92.2595 21.3356 92.4219 21.7737 93.1134C22.2117 93.8048 22.117 94.8665 21.4897 96.2983C20.9878 97.4438 20.4826 98.388 19.9739 99.1309C19.4526 99.8266 19.0677 100.183 18.8193 100.199C18.5708 100.215 18.3868 100.188 18.2672 100.119C19.4075 98.9036 20.2441 97.5925 20.7771 96.186C21.3573 94.7667 21.5025 93.8937 21.2128 93.567C20.1354 92.1875 18.3033 93.4619 15.7162 97.3904C14.8589 98.53 13.8892 100.382 12.8072 102.947C11.55 106.367 11.4112 108.679 12.3909 109.883C13.1785 110.935 14.4254 110.778 16.1316 109.411C19.4187 106.963 22.648 103.545 25.8195 99.1569C26.19 98.6533 27.2936 97.0179 29.1303 94.251C29.4065 93.7726 29.6895 93.6968 29.9793 94.0236C30.0298 94.2122 29.9515 94.4859 29.7444 94.8448C25.3459 101.634 21.1638 106.496 17.1979 109.429Z" fill="#B39D96"/>
<path d="M43.0193 89.7712C43.3208 89.3871 43.5095 89.3366 43.5853 89.6196C43.6611 89.9026 43.63 90.1637 43.4919 90.4029C42.6346 91.5425 41.9844 92.3233 41.5414 92.7453C39.735 94.4931 37.4791 95.2239 34.7738 94.9378C34.4985 96.1742 34.179 97.2456 33.8152 98.1519C33.2822 99.5585 32.3689 101.244 31.0754 103.208C29.4138 105.119 28.2057 106.176 27.4511 106.378C26.2282 106.908 25.3173 106.621 24.7184 105.518C24.1632 104.201 24.7218 101.852 26.3942 98.4722C28.0195 95.1047 29.3981 93.2694 30.53 92.9661C30.9073 92.865 31.2535 93.025 31.5685 93.4461C31.4237 93.2827 31.288 92.9652 31.1616 92.4935C30.9847 91.8332 31.039 91.1868 31.3245 90.5543C31.732 89.434 32.3763 89.0087 33.2573 89.2781C34.3775 89.6856 34.8607 91.3002 34.7068 94.1217C36.4401 94.3649 38.0345 94.0894 39.4898 93.295C40.5838 92.8502 41.7603 91.6756 43.0193 89.7712ZM33.9235 94.0283C33.9925 93.9087 34.0254 93.7482 34.022 93.5469C34.0186 93.3456 34.0215 93.1679 34.0308 93.0138C34.04 92.8597 34.0366 92.6584 34.0206 92.4099C34.0046 92.1614 33.965 91.9193 33.9018 91.6835C33.826 91.4005 33.7565 91.1411 33.6933 90.9053C33.6301 90.6694 33.5261 90.4698 33.3812 90.3065C32.9903 89.6024 32.6004 89.6563 32.2113 90.4683C31.9789 90.7328 31.8661 91.0663 31.8728 91.4689C31.9369 92.4627 32.2271 93.1685 32.7435 93.5862C33.1023 93.7934 33.3887 93.9188 33.6026 93.9626L33.9235 94.0283ZM30.1506 103.153C31.8307 100.933 33.0572 98.1528 33.8301 94.8116L33.0089 94.5766C32.581 94.4891 32.1986 94.2882 31.8617 93.9741L30.7121 95.3437C29.8296 96.389 28.9929 97.7 28.2022 99.2768C26.1256 103.978 25.8184 106.133 27.2805 105.741C27.3495 105.622 27.4784 105.537 27.667 105.486C28.3964 105.19 29.2243 104.412 30.1506 103.153Z" fill="#B39D96"/>
<path d="M21.9595 153.8C19.7428 154.394 18.5989 152.577 18.5278 148.35C18.3937 146.718 18.6715 144.925 19.3611 142.971C19.8689 141.47 21.4613 138.263 24.1383 133.35C26.7624 128.805 29.1123 125.218 31.1882 122.589C33.6818 119.444 35.5379 117.127 36.7565 115.638L41.2701 110.41C43.4218 108.064 44.8556 106.34 45.5714 105.238C45.8837 103.385 45.833 101.781 45.4193 100.426C45.2424 99.7659 44.577 99.6409 43.4232 100.051C43.0964 100.341 42.8699 100.25 42.7435 99.7783L42.2797 98.6135C41.99 98.2868 42.203 97.5725 42.9188 96.4708C48.5956 88.2265 51.2129 83.279 50.7706 81.6282C50.5246 81.0875 49.7153 81.5571 48.3425 83.0371C47.8086 83.6856 45.9029 86.5722 42.6253 91.6966C42.4872 91.9358 42.2623 91.9455 41.9507 91.7257C41.8058 91.5624 42.0332 90.9959 42.6327 90.0265L45.6985 85.3379C46.7941 83.5783 47.7032 82.349 48.4258 81.6499L48.7744 81.2532C50.0596 80.2011 50.9574 80.0616 51.4679 80.8348C51.8773 81.2306 52.0668 81.938 52.0366 82.9572C51.8507 85.2818 50.524 88.4428 48.0566 92.4403L45.7917 96.156L44.8594 97.7707L45.7098 98.6802C46.4089 99.4028 46.8566 100.319 47.053 101.429L47.4422 103.448C48.3501 102.497 49.6912 100.899 51.4656 98.6544C53.171 96.5293 55.1963 93.7119 57.5417 90.2021L60.188 85.9291C60.6529 85.4002 60.9233 85.2772 60.9991 85.5602C61.0749 85.8432 60.8711 86.4033 60.3878 87.2405C58.8341 89.9316 57.0083 92.645 54.9105 95.3808L52.6355 98.4926C51.4641 99.9692 50.6459 100.972 50.181 101.501L48.89 102.908L47.5851 104.547L47.3265 109.242C47.2281 111.138 46.9141 112.891 46.3845 114.499C45.6107 117.082 44.3535 120.502 42.613 124.76C40.8413 129.279 38.6999 133.644 36.1887 137.855C32.5658 143.578 29.724 147.499 27.6633 149.618C25.3482 152.109 23.4469 153.503 21.9595 153.8ZM19.9468 151.382C20.149 152.137 20.5348 152.539 21.1041 152.589C21.6735 152.638 22.3212 152.414 23.0471 151.916C23.7259 151.431 24.3277 150.941 24.8524 150.447C25.3299 149.965 25.7194 149.532 26.0208 149.148C29.2876 145.492 31.7571 141.975 33.4295 138.595C39.9415 126.487 43.8049 116.757 45.0196 109.405L45.526 106.767L43.1372 109.454C34.8488 119.46 30.4502 124.834 29.9416 125.577C27.1532 129.509 24.6374 133.798 22.3941 138.443C19.7331 143.604 18.9173 147.917 19.9468 151.382Z" fill="#B39D96"/>
<path d="M82.7663 80.4859C83.4569 79.2899 83.9142 79.0157 84.1383 79.6633C84.2141 79.9463 83.8579 80.5978 83.0696 81.6179C76.6887 90.253 73.0161 95.1295 72.0519 96.2472L67.6748 101.136C66.0385 103.141 64.7517 105.508 63.8145 108.236C59.8444 120.775 56.123 130.846 52.6503 138.449C42.9713 158.735 36.8348 169.226 34.2408 169.921C33.3918 170.148 32.5769 169.937 31.7961 169.287C30.9808 168.696 30.5066 167.964 30.3734 167.09C29.797 163.807 31.2827 158.126 34.8303 150.048C38.3435 142.03 42.4904 134.018 47.2711 126.014C48.6867 123.562 50.9946 120.29 54.1947 116.197C57.3823 112.057 59.5082 109.238 60.5727 107.74C61.2195 106.758 62.1777 104.58 63.4476 101.207C66.244 93.5319 68.19 88.8148 69.2856 87.0553L66.7655 90.3844C61.8263 97.4201 58.8759 101.218 57.9141 101.779C57.141 102.29 56.3375 102.404 55.5036 102.122C53.9337 101.734 53.5385 100.07 54.3182 97.1319C56.1411 90.729 59.3277 85.8311 63.878 82.4382C67.096 80.1099 69.1221 80.5022 69.9561 83.6151C70.0067 83.8037 70.1406 84.0206 70.3579 84.2657C70.5753 84.5108 70.7092 84.7276 70.7597 84.9163C71.2012 85.809 70.3057 89.2589 68.0735 95.266C67.9859 95.6938 67.7384 96.4679 67.3308 97.5881C66.9233 98.7083 66.5549 99.6916 66.2256 100.538C65.9435 101.372 65.768 101.849 65.6989 101.968C70.8849 96.2313 74.0228 92.6608 75.1126 91.2567C79.6374 84.9387 82.1886 81.3484 82.7663 80.4859ZM65.8786 90.4704C67.8349 87.7726 68.8816 85.925 69.0188 84.9278C69.2183 83.4084 68.843 82.5738 67.893 82.4239C64.3446 82.0098 60.5667 86.9651 56.5594 97.2896C56.2647 98.0763 56.0533 98.8911 55.9254 99.7342C55.7376 100.543 55.8956 101.132 56.3993 101.503C56.7076 101.521 56.9969 101.469 57.2672 101.346C57.4904 101.236 57.7826 101.006 58.1439 100.656C58.5052 100.307 58.8193 99.9698 59.0863 99.6455C59.3533 99.3212 59.771 98.8049 60.3394 98.0965C60.8481 97.3536 61.3222 96.6705 61.7618 96.0473C62.2486 95.4113 62.8797 94.5598 63.6553 93.4926C64.4655 92.3656 65.2066 91.3582 65.8786 90.4704ZM58.9144 113.719C59.9459 110.966 60.3455 109.722 60.113 109.986C58.8288 111.796 57.0624 114.165 54.8139 117.093C52.5182 120.033 50.5337 122.815 48.8604 125.437C47.1871 128.059 45.0855 131.63 42.5558 136.149C38.9339 142.63 36.3925 147.86 34.9316 151.841C32.6867 157.801 31.4591 162.275 31.2488 165.263C31.0628 167.588 31.7152 168.702 33.206 168.606C34.1998 168.542 36.0387 166.254 38.7225 161.744C45.0754 150.74 51.0836 136.847 56.7471 120.063C57.9663 116.501 58.6888 114.386 58.9144 113.719Z" fill="#B39D96"/>
<path d="M93.0196 93.2829C91.0741 94.5119 89.6415 94.5419 88.7217 93.3729C87.9779 92.1063 87.5878 90.7448 87.5514 89.2886C87.5025 87.7852 87.6771 86.5505 88.0754 85.5844C86.7406 87.2058 85.7919 88.193 85.2293 88.5459C84.0132 89.4784 82.9899 89.9042 82.1595 89.8235C81.329 89.7427 80.7983 89.1772 80.5675 88.1269C80.324 87.0295 80.3744 85.8028 80.7188 84.4467C81.7435 81.2908 83.8051 78.5141 86.9035 76.1169C89.6498 73.915 91.48 73.5763 92.3939 75.1006C93.0619 76.0843 93.1104 77.2087 92.5395 78.4738C92.4082 79.1156 92.4103 79.5953 92.546 79.9128C92.7414 80.2648 92.5882 81.0136 92.0863 82.1591C91.8791 82.5179 91.5983 83.0734 91.2438 83.8255C90.9238 84.5179 90.6446 85.174 90.4063 85.7939C90.1554 86.3666 89.9516 86.9267 89.795 87.4742C88.9666 91.7402 89.3433 93.7119 90.925 93.3892C92.2489 93.2366 94.5691 91.0478 97.8855 86.8229C100.03 84.0745 102.421 80.4514 105.058 75.9536L106.386 73.5506C106.919 72.902 107.273 72.8072 107.447 73.2662C107.472 73.3605 107.254 73.7728 106.792 74.5031L102.677 81.2169C101.236 83.5745 99.8028 85.6773 98.377 87.5253C96.2355 90.475 94.4496 92.3942 93.0196 93.2829ZM82.5687 88.8039C82.7389 89.0616 83.5154 88.7524 84.8983 87.8764C85.0616 87.7315 85.7417 86.968 86.9384 85.5857C87.0074 85.4661 87.7532 84.3817 89.1755 82.3324C89.3136 82.0932 89.7014 81.5596 90.3389 80.7316C91.011 79.8438 91.4253 79.1262 91.5819 78.5787C92.413 76.5868 92.2575 75.4405 91.1154 75.1399C90.637 74.8637 89.6643 75.4782 88.1972 76.9834C86.5541 78.5863 85.0455 80.7851 83.6712 83.5798C82.3314 86.3147 81.9639 88.056 82.5687 88.8039Z" fill="#B39D96"/>
<path d="M120.692 59.0258C117.826 61.1585 115.562 61.3861 113.899 59.7085C112.372 58.3485 112.146 56.5638 113.222 54.3545C113.517 53.5678 113.981 53.3172 114.613 53.6027C114.733 53.6717 114.79 53.884 114.784 54.2394C114.715 54.359 114.585 54.7224 114.394 55.3297C114.25 55.9243 114.181 56.4229 114.188 56.8255C114.361 59.3573 115.42 60.3877 117.367 59.9167C117.838 59.7903 119.297 58.8183 121.741 57.0005C121.905 56.8556 122.464 56.3014 123.419 55.3378C123.582 55.1929 123.784 55.1895 124.023 55.3276C124.309 55.4531 124.431 55.6228 124.387 55.8367C124.412 55.931 124.337 56.0271 124.161 56.1248C124.032 56.2099 123.909 56.3185 123.793 56.4508C123.677 56.583 123.584 56.7089 123.515 56.8285C123.295 57.1402 122.354 57.8726 120.692 59.0258ZM113.155 88.3427C111.819 89.2061 110.707 89.3018 109.819 88.6297C108.154 87.5089 108.14 84.9093 109.777 80.831L110.846 78.8765C106.85 82.8286 104.217 84.4186 102.949 83.6464C102.231 83.232 102.054 82.1927 102.417 80.5284C102.617 79.767 103.764 77.5388 105.857 73.8437C105.927 73.7241 106.041 73.4912 106.201 73.145C106.408 72.7862 106.557 72.4935 106.648 72.267C106.726 71.9932 106.888 71.7477 107.133 71.5304C107.378 71.3131 107.608 71.2263 107.822 71.2701C108.891 71.489 109.078 72.3741 108.382 73.9256C108.105 74.404 107.471 75.4333 106.479 77.0134C105.534 78.5809 104.787 79.9437 104.238 81.1018C103.63 82.2254 103.457 82.9035 103.722 83.1359C104.276 83.6951 105.889 82.7323 108.559 80.2474C110.077 78.9309 111.719 76.949 113.487 74.3017C114.677 72.5168 115.665 71.7718 116.452 72.0665C116.811 72.2737 116.72 72.8793 116.18 73.8832L113.953 77.7405C111.586 81.3573 110.369 84.3625 110.303 86.7561C110.336 88.0111 110.918 88.4869 112.05 88.1836C114.267 87.5896 119.107 81.6927 126.57 70.4928C127.967 68.3491 128.82 67.2866 129.128 67.3051C129.436 67.3236 129.452 67.5721 129.176 68.0505C128.9 68.5289 127.456 70.6851 124.843 74.5192C119.443 82.2852 115.546 86.893 113.155 88.3427Z" fill="#B39D96"/>
<path d="M141.551 83.3879C140.971 82.7343 140.874 81.5219 141.259 79.7507C142.044 76.4566 144.26 71.6165 147.908 65.2303C149.116 63.1372 149.635 61.9618 149.465 61.7041C149.175 61.3774 148.261 61.9257 146.721 63.3493C145.169 64.7256 143.754 66.1411 142.475 67.5958C140.694 69.4379 139.294 71.3802 138.274 73.4228C137.652 74.4992 137.275 74.6003 137.142 73.7261C136.87 72.333 137.234 70.7694 138.236 69.0351C138.418 68.582 138.979 67.471 139.921 65.7022C140.897 63.8736 141.769 62.2245 142.538 60.7547C143.354 59.2723 143.784 58.4241 143.828 58.2102C143.915 57.7823 143.927 57.4505 143.864 57.2146C143.801 56.9788 143.593 56.9586 143.241 57.154C141.409 58.0495 138.859 60.704 135.594 65.1177C132.315 69.4841 130.167 73.0676 129.148 75.8681C128.802 76.4662 128.702 76.8469 128.847 77.0102C128.898 77.1989 128.76 77.4381 128.433 77.7279C128.131 78.112 127.831 78.2177 127.532 78.045C127.186 77.885 126.864 77.4404 126.568 76.711C125.59 74.1928 126.821 69.92 130.261 63.8927C131.953 60.9624 133.278 59.1161 134.236 58.3537C134.752 58.0134 135.215 57.7628 135.627 57.6019C136.124 57.5699 136.412 57.796 136.491 58.2803C136.558 58.7174 136.381 59.0935 135.96 59.4085C135.375 59.8684 134.351 61.3306 132.889 63.7952C130.783 67.4431 129.43 70.1308 128.831 71.8583L128.062 75.7798C128.451 74.9678 128.98 74.0173 129.649 72.9283C132.644 67.8796 135.518 63.7983 138.273 60.6843C140.142 58.4143 141.97 56.9385 143.759 56.257C144.206 56.0363 144.544 56.0721 144.774 56.3643C145.051 56.6439 145.223 57.0023 145.289 57.4394C145.356 57.8765 145.339 58.2854 145.239 58.6661C145.133 59.4022 144.308 61.4178 142.764 64.7128L141.447 67.7197C146.055 62.8452 148.879 60.648 149.917 61.128C150.131 61.1718 150.311 61.2754 150.456 61.4387C150.966 62.2119 150.513 63.8244 149.098 66.2763L146.344 71.5637L145.624 73.1214C145.072 74.0783 144.607 74.9862 144.231 75.8454C143.842 76.6573 143.392 77.7131 142.881 79.0127C142.404 80.2525 142.188 81.1445 142.233 81.6886C142.265 82.1855 142.438 82.6445 142.753 83.0656C144.109 83.41 147.345 80.0154 152.46 72.8821C154.046 70.6879 156.105 67.4316 158.638 63.1133L161.426 58.8024C161.564 58.5632 161.681 58.431 161.775 58.4057C162.058 58.3299 162.225 58.3863 162.275 58.575C162.395 58.644 162.386 58.7981 162.248 59.0373C161.808 59.6606 160.913 61.0378 159.563 63.1688C158.213 65.2997 157.157 66.9224 156.394 68.0368C153.926 72.0342 151.702 75.3347 149.72 77.9383C145.66 82.9693 142.936 84.7859 141.551 83.3879Z" fill="#B39D96"/>
<path d="M165.379 69.8754C162.793 71.7311 160.789 71.9899 159.369 70.6517C158.507 70.074 157.987 69.0759 157.809 67.6576C157.707 66.5223 158.147 64.8626 159.129 62.6786L159.9 61.0311C160.782 59.2278 161.675 57.75 162.58 56.5978C164.768 53.6354 166.537 52.1251 167.887 52.0669C168.931 52.1915 169.459 52.9347 169.47 54.2966C169.481 55.6585 169.059 57.0099 168.205 58.3508C166.136 61.3822 163.769 63.2046 161.102 63.818C160.913 63.8685 160.662 64.4413 160.349 65.5362C159.976 66.5966 159.825 67.4461 159.895 68.0845C160.105 69.9997 160.764 70.8592 161.875 70.6628C164.047 70.2828 167.293 67.4922 171.612 62.291C173.55 59.9014 175.437 57.3231 177.274 54.5562C177.713 53.9329 178.065 53.7375 178.33 53.9699C178.38 54.1585 178.164 54.6715 177.68 55.5087C176.848 56.7427 175.25 58.8897 172.885 61.9497C172.213 62.8375 170.952 64.2623 169.102 66.224C167.299 68.1731 166.058 69.3903 165.379 69.8754ZM161.375 63.1383C162.674 62.8914 163.871 62.2672 164.968 61.2657C167.82 58.3277 169.118 55.9074 168.861 54.0048C168.829 53.5079 168.577 53.3226 168.105 53.449C167.495 53.8146 166.581 54.742 165.363 56.2312C164.131 57.6732 163.265 58.9669 162.763 60.1124L161.375 63.1383Z" fill="#B39D96"/>
<path d="M107.518 168.05C104.696 169.969 102.608 170.098 101.253 168.439C100.768 167.761 100.424 166.665 100.221 165.152C100.162 163.803 100.486 162.275 101.192 160.57C102.179 158.03 103.446 155.871 104.991 154.092C106.634 152.489 108.099 151.541 109.385 151.247C110.753 150.88 111.656 151.043 112.094 151.734C112.532 152.426 112.437 153.487 111.81 154.919C111.308 156.065 110.803 157.009 110.294 157.752C109.773 158.448 109.388 158.803 109.139 158.819C108.891 158.835 108.707 158.809 108.587 158.74C109.728 157.524 110.564 156.213 111.097 154.807C111.677 153.388 111.823 152.515 111.533 152.188C110.456 150.808 108.623 152.083 106.036 156.011C105.179 157.151 104.209 159.003 103.127 161.568C101.87 164.988 101.731 167.3 102.711 168.504C103.499 169.556 104.745 169.399 106.452 168.032C109.739 165.584 112.968 162.166 116.14 157.778C116.51 157.274 117.614 155.639 119.45 152.872C119.727 152.394 120.01 152.318 120.299 152.644C120.35 152.833 120.272 153.107 120.064 153.466C115.666 160.255 111.484 165.117 107.518 168.05Z" fill="#B39D96"/>
<path d="M117.129 176.469C114.48 178.089 112.461 178.478 111.073 177.637C109.596 176.466 109.016 175.054 109.331 173.402C109.393 172.122 110.072 170.601 111.369 168.838C112.666 167.075 114.161 165.486 115.855 164.072C115.99 161.559 116.796 158.436 118.273 154.704C122.303 145.03 127.779 134.717 134.702 123.763C139.979 115.727 145.438 107.895 151.078 100.267C156.765 92.6263 160.434 88.5849 162.085 88.1426C163.452 87.7761 164.182 88.8949 164.273 91.4991C164.283 94.9338 161.15 100.879 154.873 109.335C152.916 112.033 149.987 115.345 146.085 119.272C142.218 123.139 138.794 126.205 135.811 128.47C135.227 128.93 133.924 130.669 131.902 133.688L128.884 139.122L125.203 146.326C123.211 150.398 121.765 153.49 120.864 155.602C119.782 158.167 119.274 160.325 119.339 162.077L119.753 161.359C119.91 160.812 120.176 160.108 120.553 159.249C120.964 158.33 121.288 157.561 121.526 156.941C123.569 153.057 125.604 150.086 127.63 148.026C129.691 145.907 131.228 145.04 132.241 145.426C132.839 145.771 133.227 146.274 133.404 146.934C133.984 148.346 133.983 150.419 133.402 153.152L133.13 154.969L132.731 156.593C137.201 154.03 140.708 151.271 143.252 148.314C143.415 148.169 144.029 147.348 145.093 145.849C145.508 145.132 145.791 145.056 145.942 145.622C146.062 145.691 145.915 146.084 145.5 146.802C143.707 149.355 141.917 151.351 140.129 152.791C138.328 154.183 135.797 155.771 132.534 157.555L131.49 159.883C127.809 167.087 123.022 172.615 117.129 176.469ZM135.178 127.806C144.671 119.651 151.456 112.525 155.534 106.428C161.218 98.586 163.764 93.2784 163.172 90.5049C163.02 89.181 162.507 88.9645 161.634 89.8557C160.886 90.4605 158.959 92.7966 155.853 96.8641C152.735 100.884 150.014 104.596 147.69 107.999C147.32 108.502 146.714 109.448 145.872 110.836C145.078 112.212 143.741 114.39 141.861 117.371C139.968 120.305 137.74 123.783 135.178 127.806ZM120.367 161.953L124.46 160.25L128.992 158.201C129.55 156.889 130.131 155.191 130.736 153.108C131.522 149.814 131.845 147.908 131.706 147.389C131.674 146.892 131.544 146.598 131.318 146.507C131.091 146.416 130.65 146.56 129.993 146.938C128.072 148.262 126.219 150.401 124.433 153.357C122.634 156.265 121.279 159.13 120.367 161.953ZM113.483 177.294C115.845 176.864 119.436 173.475 124.256 167.129C125.239 165.703 126.11 164.332 126.87 163.016C127.664 161.641 128.174 160.619 128.399 159.952L128.776 159.093C124.588 160.822 122.072 161.901 121.226 162.329L120.029 162.953C119.545 163.791 119.197 165.603 118.983 168.39C118.971 169.101 118.849 169.588 118.617 169.853C118.384 170.117 118.076 170.099 117.692 169.797C117.308 169.496 116.891 168.976 116.44 168.237L115.728 165.016C111.348 168.666 109.477 171.872 110.116 174.633C110.282 176.762 111.405 177.649 113.483 177.294Z" fill="#B39D96"/>
<path d="M158.667 141.606C158.968 141.222 159.157 141.171 159.233 141.454C159.308 141.737 159.277 141.998 159.139 142.237C158.282 143.377 157.632 144.158 157.189 144.58C155.382 146.328 153.126 147.058 150.421 146.772C150.146 148.009 149.826 149.08 149.463 149.986C148.93 151.393 148.016 153.078 146.723 155.043C145.061 156.954 143.853 158.01 143.098 158.213C141.876 158.743 140.965 158.456 140.366 157.353C139.811 156.035 140.369 153.687 142.042 150.307C143.667 146.939 145.045 145.104 146.177 144.801C146.555 144.699 146.901 144.859 147.216 145.281C147.071 145.117 146.935 144.8 146.809 144.328C146.632 143.668 146.686 143.021 146.972 142.389C147.379 141.269 148.024 140.843 148.905 141.113C150.025 141.52 150.508 143.135 150.354 145.956C152.087 146.199 153.682 145.924 155.137 145.13C156.231 144.685 157.408 143.51 158.667 141.606ZM149.571 145.863C149.64 145.743 149.673 145.583 149.669 145.381C149.666 145.18 149.669 145.002 149.678 144.848C149.687 144.694 149.684 144.493 149.668 144.244C149.652 143.996 149.612 143.754 149.549 143.518C149.473 143.235 149.404 142.976 149.341 142.74C149.277 142.504 149.173 142.304 149.029 142.141C148.638 141.437 148.248 141.491 147.859 142.303C147.626 142.567 147.513 142.901 147.52 143.303C147.584 144.297 147.874 145.003 148.391 145.421C148.75 145.628 149.036 145.753 149.25 145.797L149.571 145.863ZM145.798 154.987C147.478 152.768 148.705 149.987 149.477 146.646L148.656 146.411C148.228 146.324 147.846 146.123 147.509 145.809L146.359 147.178C145.477 148.223 144.64 149.534 143.85 151.111C141.773 155.813 141.466 157.968 142.928 157.576C142.997 157.456 143.126 157.371 143.314 157.321C144.044 157.024 144.872 156.246 145.798 154.987Z" fill="#B39D96"/>
<path d="M172.101 128.073C169.235 130.206 166.971 130.433 165.308 128.756C163.781 127.395 163.556 125.611 164.632 123.401C164.927 122.615 165.39 122.364 166.023 122.65C166.142 122.719 166.199 122.931 166.193 123.286C166.124 123.406 165.994 123.769 165.803 124.377C165.659 124.971 165.591 125.47 165.597 125.872C165.77 128.404 166.83 129.435 168.776 128.964C169.248 128.837 170.706 127.865 173.151 126.047C173.314 125.903 173.874 125.348 174.829 124.385C174.992 124.24 175.193 124.236 175.432 124.375C175.719 124.5 175.84 124.67 175.796 124.884C175.822 124.978 175.746 125.074 175.57 125.172C175.441 125.257 175.319 125.365 175.203 125.498C175.086 125.63 174.994 125.756 174.925 125.875C174.705 126.187 173.764 126.92 172.101 128.073ZM164.564 157.39C163.228 158.253 162.117 158.349 161.229 157.677C159.564 156.556 159.55 153.956 161.187 149.878L162.255 147.923C158.259 151.876 155.627 153.466 154.358 152.693C153.641 152.279 153.463 151.24 153.826 149.575C154.027 148.814 155.173 146.586 157.267 142.891C157.336 142.771 157.451 142.538 157.611 142.192C157.818 141.833 157.967 141.54 158.058 141.314C158.136 141.04 158.298 140.795 158.543 140.577C158.788 140.36 159.017 140.273 159.231 140.317C160.301 140.536 160.488 141.421 159.791 142.973C159.515 143.451 158.881 144.48 157.889 146.06C156.944 147.628 156.197 148.991 155.648 150.149C155.039 151.272 154.867 151.95 155.131 152.183C155.686 152.742 157.298 151.779 159.969 149.294C161.486 147.978 163.129 145.996 164.896 143.349C166.086 141.564 167.075 140.819 167.861 141.113C168.22 141.321 168.13 141.926 167.59 142.93L165.363 146.787C162.996 150.404 161.779 153.409 161.713 155.803C161.746 157.058 162.328 157.534 163.46 157.231C165.677 156.637 170.516 150.74 177.979 139.54C179.377 137.396 180.229 136.334 180.537 136.352C180.846 136.371 180.862 136.619 180.586 137.097C180.309 137.576 178.865 139.732 176.253 143.566C170.852 151.332 166.956 155.94 164.564 157.39Z" fill="#B39D96"/>
<path d="M231.154 122.638C231.513 122.845 231.451 123.367 230.967 124.204C226.946 130.893 223.681 135.685 221.171 138.582C218.709 141.466 214.846 145.256 209.583 149.952C208.556 150.834 207.803 151.516 207.326 151.998C207.257 152.117 207.069 152.547 206.761 153.286C206.441 153.979 206.132 154.618 205.834 155.203C205.232 156.729 203.044 161.865 199.271 170.61C193.581 183.711 187.478 193.005 180.961 198.492C177.888 200.983 175.76 202.286 174.578 202.401C172.757 202.586 171.656 201.591 171.276 199.418C170.479 195.689 172.113 190.373 176.178 183.471C178.965 178.781 183.273 173.633 189.101 168.028C190.455 166.856 195.274 162.203 203.559 154.069L204.339 151.888C204.408 151.768 205.32 148.946 207.075 143.421C208.864 137.836 209.85 134.817 210.032 134.364C205.961 138.791 203.282 141.151 201.996 141.445C201.147 141.673 200.499 141.518 200.052 140.981C199.604 140.443 199.398 139.766 199.431 138.948C199.452 138.083 199.576 137.317 199.801 136.65C200.538 134.683 201.503 132.529 202.695 130.187C203.935 127.833 204.801 126.54 205.295 126.306C206.518 125.776 207.207 125.895 207.362 126.662C207.437 126.945 207.326 127.379 207.028 127.965C206.717 128.503 206.284 129.15 205.728 129.905C205.22 130.648 204.909 131.187 204.796 131.52C202.292 136.134 201.1 138.855 201.22 139.682C201.202 139.99 201.265 140.226 201.41 140.389C201.87 140.974 203.306 140.109 205.719 137.794L209.107 134.308C209.899 133.489 211.019 131.824 212.47 129.312C213.816 126.98 214.998 125.071 216.015 123.585C217.721 121.46 218.816 120.737 219.301 121.416C219.497 121.768 219.243 122.518 218.54 123.667C216.427 126.913 213.785 132.903 210.616 141.638C209.948 143.485 209.412 145.069 209.008 146.391C208.591 147.665 208.253 148.666 207.993 149.393C207.78 150.107 207.645 150.547 207.589 150.714L210.756 147.818C216.351 142.477 220.521 137.948 223.265 134.23C225.222 131.532 227.688 127.813 230.664 123.072C230.871 122.714 231.034 122.569 231.154 122.638ZM200.417 162.72C201.87 159.652 202.849 157.267 203.353 155.565C192.231 166.127 185.857 172.334 184.23 174.186C180.442 178.537 177.462 182.697 175.29 186.666C173.718 189.665 172.797 191.984 172.529 193.623C171.475 198.556 171.921 201.167 173.869 201.454C174.297 201.541 174.787 201.485 175.341 201.287C179.082 199.779 183.073 195.904 187.315 189.661C191.359 183.624 195.726 174.644 200.417 162.72Z" fill="#B39D96"/>
<path d="M228.69 133.534C228.175 133.875 227.769 133.68 227.472 132.951C227.087 131.891 227.095 130.6 227.496 129.077C227.972 127.08 229.995 123.782 233.566 119.186C234.737 117.709 235.747 116.857 236.596 116.63C237.452 116.805 237.062 117.895 235.425 119.901C233.186 122.675 232.186 124.13 232.425 124.269C233.913 123.971 235.444 123.46 237.019 122.734C237.534 122.394 237.955 122.079 238.282 121.789C239.473 120.763 240.21 120.211 240.493 120.135C240.87 120.034 241.162 119.425 241.368 118.309C241.687 116.858 242.499 115.832 243.803 115.23C245.121 114.674 246.051 115.032 246.593 116.302C246.694 116.679 246.754 117.093 246.774 117.543C246.781 117.945 246.768 118.277 246.737 118.538C246.706 118.799 246.576 119.163 246.347 119.628C246.118 120.094 245.928 120.423 245.777 120.615C245.674 120.794 245.456 121.207 245.123 121.852C244.778 122.45 244.571 122.809 244.502 122.928L243.739 124.043C243.858 124.112 244.132 124.19 244.56 124.278C246.601 124.539 248.681 123.906 250.799 122.378C252.917 120.85 254.719 118.801 256.203 116.229C256.668 115.7 256.951 115.624 257.052 116.002C257.172 116.071 257.025 116.464 256.61 117.182C252.918 123.024 248.817 125.639 244.306 125.028L243.216 124.638C241.655 126.926 240.183 128.509 238.801 129.385C237.452 130.201 236.419 130.023 235.7 128.851C235.076 127.653 235.619 125.814 237.331 123.333C236.463 123.869 235.723 124.219 235.11 124.383L231.502 125.35C230.735 126.263 230.018 127.643 229.351 129.49C228.45 131.602 228.24 132.796 228.718 133.072C228.957 133.21 228.948 133.364 228.69 133.534ZM243.054 123.468C244.658 120.966 245.628 119.113 245.963 117.911C246.068 116.417 245.66 115.743 244.738 115.889C243.864 116.022 243.159 116.691 242.622 117.897C242.121 119.042 241.919 120.082 242.018 121.016C242.104 121.903 242.291 122.51 242.581 122.836L243.054 123.468ZM237.833 128.886C238.028 129.238 238.644 128.896 239.681 127.86C240.718 126.824 241.657 125.612 242.498 124.224C241.994 123.853 241.597 123.125 241.306 122.041C241.256 121.852 240.748 122.316 239.784 123.434C237.67 125.921 237.02 127.739 237.833 128.886Z" fill="#B39D96"/>
<path d="M269.225 132C268.645 131.346 268.548 130.134 268.933 128.363C269.718 125.068 271.935 120.228 275.582 113.842C276.79 111.749 277.309 110.574 277.139 110.316C276.85 109.989 275.935 110.538 274.395 111.961C272.843 113.337 271.428 114.753 270.15 116.208C268.368 118.05 266.968 119.992 265.948 122.035C265.327 123.111 264.949 123.212 264.816 122.338C264.544 120.945 264.909 119.381 265.91 117.647C266.092 117.194 266.654 116.083 267.595 114.314C268.571 112.486 269.443 110.836 270.212 109.367C271.028 107.884 271.458 107.036 271.502 106.822C271.589 106.394 271.602 106.062 271.538 105.827C271.475 105.591 271.268 105.57 270.916 105.766C269.083 106.661 266.534 109.316 263.268 113.73C259.989 118.096 257.841 121.679 256.822 124.48C256.477 125.078 256.376 125.459 256.521 125.622C256.572 125.811 256.434 126.05 256.107 126.34C255.806 126.724 255.505 126.83 255.206 126.657C254.86 126.497 254.539 126.052 254.242 125.323C253.264 122.805 254.495 118.532 257.935 112.505C259.627 109.574 260.952 107.728 261.91 106.966C262.426 106.625 262.89 106.375 263.301 106.214C263.798 106.182 264.086 106.408 264.166 106.892C264.232 107.329 264.055 107.705 263.634 108.02C263.049 108.48 262.026 109.943 260.563 112.407C258.457 116.055 257.104 118.743 256.506 120.47L255.737 124.392C256.126 123.58 256.655 122.629 257.323 121.54C260.318 116.491 263.192 112.41 265.947 109.296C267.816 107.026 269.645 105.55 271.434 104.869C271.88 104.648 272.218 104.684 272.448 104.976C272.725 105.256 272.897 105.614 272.964 106.051C273.03 106.488 273.013 106.897 272.913 107.278C272.807 108.014 271.982 110.03 270.439 113.325L269.121 116.332C273.73 111.457 276.553 109.26 277.592 109.74C277.806 109.784 277.985 109.887 278.13 110.051C278.64 110.824 278.188 112.436 276.772 114.888L274.018 120.176L273.298 121.733C272.746 122.69 272.282 123.598 271.905 124.457C271.516 125.269 271.066 126.325 270.555 127.625C270.078 128.864 269.862 129.756 269.907 130.3C269.939 130.797 270.113 131.256 270.428 131.677C271.784 132.022 275.019 128.627 280.134 121.494C281.72 119.3 283.78 116.044 286.313 111.725L289.101 107.414C289.239 107.175 289.355 107.043 289.449 107.018C289.732 106.942 289.899 106.998 289.95 107.187C290.069 107.256 290.06 107.41 289.922 107.649C289.482 108.273 288.587 109.65 287.237 111.781C285.888 113.912 284.831 115.534 284.068 116.649C281.601 120.646 279.376 123.947 277.395 126.55C273.334 131.581 270.611 133.398 269.225 132Z" fill="#B39D96"/>
<path d="M298.073 110.621C297.413 110.798 297.11 110.045 297.165 108.362C297.836 104.644 300.483 97.5402 305.103 87.0514C309.771 76.5499 313.894 68.1659 317.472 61.8993C320.441 56.7564 322.367 53.6622 323.25 52.6169C324.98 50.5861 326.097 49.756 326.601 50.1266C327.079 50.4028 326.847 51.0463 325.905 52.057C324.67 53.2978 322.387 56.9427 319.054 62.992C315.755 68.9815 312.534 75.3545 309.39 82.1113C307.869 85.2993 305.716 90.3752 302.931 97.3391C300.146 104.303 298.646 108.42 298.431 109.691C298.356 110.166 298.237 110.476 298.073 110.621ZM295.104 121.047C294.821 121.123 294.623 120.948 294.509 120.524C294.383 120.052 294.354 119.756 294.423 119.637C294.598 118.781 295.077 118.4 295.861 118.493C295.98 118.562 296.053 118.644 296.078 118.738C296.372 120.025 296.047 120.794 295.104 121.047Z" fill="#B39D96"/>
</svg>
