<svg width="258" height="154" viewBox="0 0 258 154" fill="none" xmlns="http://www.w3.org/2000/svg">
<g opacity="0.9">
<path d="M16.5235 82.4707C16.0324 81.9169 15.9499 80.8896 16.2759 79.3886C16.9416 76.5973 18.8197 72.4959 21.9102 67.0843C22.9343 65.3107 23.3742 64.3147 23.23 64.0963C22.9844 63.8194 22.2094 64.2841 20.9049 65.4904C19.5896 66.6567 18.3904 67.8561 17.3071 69.0888C15.7977 70.6498 14.611 72.2957 13.7468 74.0265C13.2202 74.9386 12.9005 75.0243 12.7877 74.2835C12.557 73.103 12.8659 71.778 13.7144 70.3085C13.8685 69.9245 14.3445 68.9831 15.1423 67.4842C15.9693 65.9347 16.7086 64.5372 17.3601 63.2918C18.0516 62.0356 18.4158 61.3169 18.4529 61.1356C18.5271 60.773 18.5375 60.4918 18.4839 60.292C18.4304 60.0922 18.2544 60.0751 17.9561 60.2407C16.4032 60.9995 14.243 63.2489 11.4756 66.9889C8.69749 70.6889 6.87675 73.7255 6.01338 76.0986C5.7208 76.6054 5.6359 76.928 5.75867 77.0664C5.80151 77.2263 5.68448 77.429 5.40758 77.6745C5.15211 78 4.89768 78.0896 4.64431 77.9433C4.35096 77.8077 4.07865 77.4309 3.82738 76.8129C2.99859 74.679 4.04171 71.0583 6.95673 65.9508C8.39034 63.4678 9.51321 61.9032 10.3253 61.2573C10.7621 60.9689 11.155 60.7565 11.504 60.6202C11.925 60.593 12.1691 60.7846 12.2363 61.195C12.2927 61.5654 12.1425 61.8841 11.7856 62.151C11.2904 62.5408 10.423 63.7798 9.18346 65.8682C7.39877 68.9594 6.25276 71.2369 5.74545 72.7007L5.09377 76.0238C5.42344 75.3357 5.87157 74.5303 6.43817 73.6074C8.97572 69.3293 11.4116 65.8709 13.7459 63.2321C15.3294 61.3086 16.8791 60.058 18.395 59.4805C18.7732 59.2935 19.0598 59.3238 19.2546 59.5715C19.4895 59.8084 19.6351 60.112 19.6915 60.4825C19.7479 60.8529 19.7337 61.1994 19.6488 61.522C19.5589 62.1457 18.86 63.8537 17.552 66.6458L16.4356 69.1938C20.3406 65.0633 22.7332 63.2014 23.6132 63.6081C23.7945 63.6452 23.9465 63.733 24.0693 63.8714C24.5018 64.5266 24.1183 65.893 22.9188 67.9707L20.5854 72.4511L19.9753 73.7711C19.5072 74.5819 19.1136 75.3513 18.7947 76.0793C18.465 76.7674 18.0836 77.662 17.6505 78.7633C17.2466 79.8139 17.0636 80.5697 17.1015 81.0308C17.1286 81.4519 17.2757 81.8408 17.5426 82.1976C18.6917 82.4894 21.4335 79.613 25.768 73.5683C27.1117 71.709 28.8568 68.9497 31.0033 65.2904L33.3657 61.6375C33.4827 61.4348 33.5812 61.3227 33.6612 61.3013C33.901 61.237 34.0423 61.2848 34.0851 61.4447C34.1865 61.5032 34.1786 61.6338 34.0616 61.8365C33.6891 62.3647 32.9309 63.5317 31.787 65.3374C30.6431 67.1432 29.7479 68.5182 29.1013 69.4625C27.0105 72.8499 25.1255 75.6467 23.4463 77.8528C20.0052 82.1161 17.6976 83.6554 16.5235 82.4707Z" fill="#B39D96"/>
<path d="M45.0151 57.8735C45.2706 57.548 45.4304 57.5052 45.4947 57.745C45.5589 57.9848 45.5326 58.206 45.4155 58.4087C44.6891 59.3744 44.1381 60.0361 43.7628 60.3937C42.232 61.8747 40.3204 62.494 38.028 62.2516C37.7947 63.2993 37.5239 64.2071 37.2157 64.9751C36.764 66.167 35.9901 67.5952 34.894 69.2596C33.4861 70.8791 32.4623 71.7746 31.8229 71.9459C30.7866 72.3949 30.0147 72.152 29.5072 71.2171C29.0368 70.1009 29.5102 68.1107 30.9273 65.2465C32.3045 62.393 33.4727 60.8378 34.4319 60.5807C34.7516 60.4951 35.045 60.6307 35.3119 60.9875C35.1891 60.849 35.0742 60.58 34.9671 60.1803C34.8172 59.6208 34.8632 59.073 35.1051 58.537C35.4504 57.5878 35.9964 57.2273 36.7429 57.4556C37.6922 57.801 38.1016 59.1691 37.9712 61.56C39.44 61.7661 40.791 61.5326 42.0242 60.8595C42.9513 60.4826 43.9483 59.4873 45.0151 57.8735ZM37.3075 61.4808C37.366 61.3795 37.3938 61.2435 37.3909 61.0729C37.3881 60.9024 37.3905 60.7518 37.3984 60.6212C37.4062 60.4906 37.4034 60.32 37.3898 60.1095C37.3762 59.8989 37.3426 59.6937 37.2891 59.4939C37.2248 59.2541 37.1659 59.0343 37.1124 58.8345C37.0588 58.6346 36.9707 58.4655 36.8479 58.327C36.5167 57.7304 36.1863 57.7761 35.8566 58.4641C35.6596 58.6883 35.564 58.9709 35.5698 59.312C35.6241 60.1542 35.87 60.7523 36.3075 61.1062C36.6116 61.2818 36.8543 61.3881 37.0355 61.4252L37.3075 61.4808ZM34.1104 69.2126C35.5341 67.3319 36.5734 64.9759 37.2283 62.1446L36.5324 61.9455C36.1699 61.8713 35.8458 61.7011 35.5603 61.4349L34.5862 62.5955C33.8383 63.4813 33.1294 64.5922 32.4593 65.9283C30.6997 69.9123 30.4393 71.7383 31.6783 71.4064C31.7368 71.305 31.846 71.2329 32.0059 71.1901C32.6239 70.9388 33.3254 70.2797 34.1104 69.2126Z" fill="#B39D96"/>
<path d="M50.9502 69.7122C49.6898 69.9642 48.9307 69.2895 48.6729 67.688C48.388 65.6654 48.8264 63.3847 49.9881 60.846L51.0049 58.6459L49.7181 59.1192C49.18 59.3491 48.2715 59.6353 46.9926 59.978C46.4331 60.1279 46.0348 60.3203 45.7979 60.5551C45.561 60.79 45.1806 61.4488 44.6569 62.5315C44.0111 64.1181 43.791 65.0552 43.9966 65.3428C44.1037 65.7425 44.0027 66.0051 43.6937 66.1307C42.2949 66.5056 41.8937 65.328 42.4901 62.598C42.702 61.4704 43.59 59.6689 45.1542 57.1937C46.7184 54.7184 47.9466 53.1471 48.8386 52.4797C49.2754 52.1914 49.8149 52.0468 50.4573 52.046C51.081 52.1359 50.9259 52.7558 49.9917 53.9056C49.1639 54.8128 48.4335 55.8438 47.8006 56.9986C47.0692 58.2655 46.7902 58.9828 46.9636 59.1505C47.1663 59.2675 47.9364 59.104 49.2738 58.66C50.5499 58.1467 51.5404 57.3673 52.2454 56.3216C53.2966 54.9691 54.1555 54.4177 54.8221 54.6674C55.1633 54.6617 55.3021 54.8601 55.2386 55.2626C55.1059 55.7265 54.3813 57.0987 53.0647 59.3791C51.397 62.2675 50.4529 64.0198 50.2325 64.6357C49.5982 66.9046 49.5758 68.2599 50.1654 68.7016C50.9177 69.2711 52.1045 68.8246 53.7259 67.3621C55.475 65.7368 57.9688 62.7341 61.2072 58.3538L64.8391 53.2042C65.1902 52.5961 65.43 52.5318 65.5585 53.0114C65.6013 53.1713 65.5057 53.4539 65.2717 53.8593C59.8118 61.6191 55.8783 66.4427 53.4712 68.3299C52.5898 69.0372 51.7495 69.498 50.9502 69.7122Z" fill="#B39D96"/>
<path d="M72.0558 66.9483C70.6256 67.8456 69.4355 67.8004 68.4855 66.8127C67.4984 66.0063 67.1075 64.5475 67.3129 62.4364C67.5033 61.2288 67.9371 59.5705 68.6142 57.4614C69.3655 54.9898 69.3908 53.8051 68.6899 53.9072C68.0505 54.0786 67.0072 55.3005 65.56 57.573C64.1527 59.8349 63.2793 61.611 62.9397 62.9014C62.8441 63.184 62.7139 63.4973 62.5491 63.8414C61.814 64.2953 61.5095 63.7986 61.6357 62.3512C61.8032 59.7791 62.9341 56.0063 65.0284 51.0331C66.0624 48.6571 66.939 47.3727 67.6584 47.18C68.5991 47.0136 68.9659 47.3437 68.759 48.1701C68.6634 48.4528 68.3591 49.1554 67.846 50.2781C67.5378 51.0461 67.2827 51.6927 67.0808 52.218C66.4564 53.8846 66.1949 54.7471 66.2963 54.8056C66.3177 54.8855 66.5146 54.6614 66.8872 54.1333C67.2889 53.5544 67.7053 52.9502 68.1363 52.3207L69.5054 50.476C71.3972 47.7845 73.4253 45.442 75.5898 43.4484C77.7835 41.4042 79.2223 41.0187 79.9061 42.2919C80.5579 43.4452 80.4795 44.7512 79.671 46.2101C79.5539 46.4128 79.3555 46.5516 79.0758 46.6266C78.5962 46.7551 78.4734 46.6167 78.7075 46.2113C79.907 44.1336 79.9761 42.8728 78.9148 42.429C77.5845 42.1001 74.9461 44.5633 70.9998 49.8186C70.5474 50.3682 70.1057 50.9577 69.6746 51.5873C69.2729 52.1661 68.9789 52.5876 68.7926 52.8516C68.6064 53.1157 68.4733 53.2585 68.3933 53.2799C69.2055 52.6339 69.8171 52.5986 70.2282 53.1738C70.5751 53.5092 70.3041 55.2952 69.4151 58.5319C67.6264 64.9654 68.0681 67.6528 70.7401 66.5941C70.8999 66.5513 71.0398 66.5138 71.1597 66.4817C72.5956 65.9256 74.2252 64.6536 76.0486 62.6658C79.3969 58.8558 83.0542 53.7208 87.0204 47.2607C87.43 46.5513 87.719 46.431 87.8875 46.8999C87.9303 47.0598 87.7269 47.4998 87.2774 48.2199C83.992 53.3838 81.9022 56.5353 81.008 57.6745C77.6233 62.3081 74.6392 65.3994 72.0558 66.9483Z" fill="#B39D96"/>
<path d="M98.7297 43.4807C98.9852 43.1552 99.145 43.1124 99.2093 43.3522C99.2735 43.592 99.2472 43.8132 99.1301 44.0159C98.4037 44.9816 97.8527 45.6433 97.4774 46.0009C95.9466 47.4819 94.035 48.1012 91.7426 47.8588C91.5093 48.9065 91.2385 49.8144 90.9303 50.5823C90.4786 51.7742 89.7047 53.2024 88.6086 54.8669C87.2007 56.4864 86.1769 57.3818 85.5375 57.5531C84.5012 58.0021 83.7293 57.7592 83.2218 56.8243C82.7514 55.7081 83.2248 53.7179 84.6419 50.8537C86.0191 48.0002 87.1873 46.445 88.1465 46.188C88.4662 46.1023 88.7596 46.2379 89.0265 46.5947C88.9037 46.4562 88.7888 46.1872 88.6817 45.7875C88.5318 45.228 88.5778 44.6802 88.8197 44.1442C89.165 43.195 89.711 42.8345 90.4575 43.0628C91.4068 43.4082 91.8162 44.7763 91.6858 47.1672C93.1546 47.3733 94.5056 47.1398 95.7388 46.4667C96.6659 46.0898 97.6629 45.0945 98.7297 43.4807ZM91.0221 47.088C91.0806 46.9867 91.1084 46.8507 91.1055 46.6802C91.1027 46.5096 91.1051 46.359 91.113 46.2284C91.1208 46.0978 91.118 45.9272 91.1044 45.7167C91.0908 45.5061 91.0572 45.3009 91.0037 45.1011C90.9394 44.8613 90.8805 44.6415 90.827 44.4417C90.7735 44.2418 90.6853 44.0727 90.5625 43.9342C90.2313 43.3376 89.9009 43.3833 89.5712 44.0714C89.3742 44.2955 89.2786 44.5781 89.2844 44.9193C89.3387 45.7614 89.5846 46.3595 90.0221 46.7134C90.3262 46.889 90.5689 46.9953 90.7501 47.0324L91.0221 47.088ZM87.825 54.8198C89.2487 52.9391 90.288 50.5831 90.9429 47.7518L90.247 47.5527C89.8845 47.4785 89.5604 47.3083 89.2749 47.0422L88.3008 48.2027C87.5529 49.0885 86.844 50.1994 86.1739 51.5355C84.4143 55.5195 84.1539 57.3456 85.3929 57.0136C85.4514 56.9122 85.5606 56.8401 85.7205 56.7973C86.3385 56.546 87.04 55.8869 87.825 54.8198Z" fill="#B39D96"/>
<path d="M101.788 53.4558C99.3966 55.0818 97.627 55.1919 96.4792 53.786C96.0681 53.2108 95.7765 52.2823 95.6043 51.0005C95.555 49.8572 95.8293 48.5628 96.4273 47.1176C97.2642 44.9657 98.3375 43.136 99.647 41.6286C101.039 40.2703 102.28 39.4666 103.37 39.2174C104.529 38.9068 105.294 39.0445 105.665 39.6304C106.037 40.2163 105.956 41.116 105.425 42.3293C105 43.3 104.571 44.1001 104.14 44.7296C103.699 45.3191 103.372 45.6207 103.162 45.6343C102.951 45.6478 102.795 45.6254 102.694 45.5669C103.66 44.5369 104.369 43.426 104.821 42.2341C105.313 41.0314 105.436 40.2917 105.19 40.0148C104.277 38.8458 102.725 39.9258 100.532 43.2547C99.806 44.2204 98.9843 45.7899 98.0674 47.9631C97.0021 50.8616 96.8845 52.8207 97.7146 53.8405C98.382 54.7326 99.4386 54.5994 100.884 53.4409C103.67 51.3667 106.406 48.4702 109.094 44.7516C109.408 44.3248 110.343 42.9391 111.899 40.5944C112.133 40.189 112.373 40.1248 112.619 40.4017C112.662 40.5616 112.595 40.7935 112.42 41.0976C108.693 46.851 105.149 50.9704 101.788 53.4558Z" fill="#B39D96"/>
<path d="M122.994 53.9422C122.502 53.3884 122.42 52.361 122.746 50.8601C123.412 48.0687 125.29 43.9673 128.38 38.5558C129.404 36.7821 129.844 35.7861 129.7 35.5678C129.454 35.2909 128.679 35.7556 127.375 36.9618C126.06 38.1281 124.86 39.3276 123.777 40.5602C122.268 42.1212 121.081 43.7671 120.217 45.4979C119.69 46.4101 119.37 46.4957 119.258 45.7549C119.027 44.5745 119.336 43.2495 120.184 41.7799C120.339 41.3959 120.814 40.4545 121.612 38.9557C122.439 37.4062 123.179 36.0087 123.83 34.7632C124.522 33.507 124.886 32.7883 124.923 32.607C124.997 32.2445 125.007 31.9633 124.954 31.7634C124.9 31.5636 124.724 31.5465 124.426 31.7121C122.873 32.4709 120.713 34.7203 117.946 38.4603C115.167 42.1604 113.347 45.197 112.483 47.5701C112.191 48.0768 112.106 48.3994 112.229 48.5379C112.272 48.6978 112.154 48.9005 111.878 49.146C111.622 49.4715 111.368 49.561 111.114 49.4148C110.821 49.2792 110.549 48.9024 110.297 48.2843C109.469 46.1504 110.512 42.5298 113.427 37.4223C114.86 34.9392 115.983 33.3747 116.795 32.7287C117.232 32.4403 117.625 32.228 117.974 32.0916C118.395 32.0645 118.639 32.2561 118.706 32.6665C118.763 33.0369 118.612 33.3555 118.256 33.6225C117.76 34.0122 116.893 35.2513 115.653 37.3397C113.869 40.4308 112.723 42.7084 112.215 44.1722L111.564 47.4952C111.893 46.8072 112.342 46.0017 112.908 45.0789C115.446 40.8008 117.882 37.3423 120.216 34.7036C121.799 32.78 123.349 31.5295 124.865 30.952C125.243 30.765 125.53 30.7953 125.725 31.0429C125.959 31.2798 126.105 31.5835 126.162 31.9539C126.218 32.3243 126.204 32.6708 126.119 32.9934C126.029 33.6172 125.33 35.3251 124.022 38.1172L122.906 40.6652C126.811 36.5347 129.203 34.6728 130.083 35.0796C130.264 35.1167 130.417 35.2044 130.539 35.3429C130.972 35.998 130.588 37.3644 129.389 39.4421L127.055 43.9226L126.445 45.2426C125.977 46.0534 125.584 46.8228 125.265 47.5508C124.935 48.2388 124.554 49.1335 124.12 50.2348C123.717 51.2854 123.534 52.0412 123.571 52.5022C123.599 52.9233 123.746 53.3123 124.013 53.6691C125.162 53.9609 127.904 51.0844 132.238 45.0398C133.582 43.1805 135.327 40.4211 137.473 36.7618L139.836 33.1089C139.953 32.9062 140.051 32.7942 140.131 32.7727C140.371 32.7085 140.512 32.7563 140.555 32.9162C140.656 32.9747 140.649 33.1053 140.532 33.308C140.159 33.8361 139.401 35.0031 138.257 36.8089C137.113 38.6146 136.218 39.9896 135.571 40.9339C133.48 44.3213 131.595 47.1181 129.916 49.3243C126.475 53.5875 124.168 55.1268 122.994 53.9422Z" fill="#B39D96"/>
<path d="M145.452 45.6756C144.32 46.4072 143.378 46.4883 142.626 45.9189C141.215 44.969 141.203 42.7662 142.59 39.3104L143.495 37.6541C140.109 41.0031 137.878 42.3504 136.804 41.696C136.195 41.345 136.045 40.4643 136.353 39.054C136.522 38.4088 137.494 36.5206 139.268 33.3894C139.327 33.2881 139.424 33.0908 139.559 32.7974C139.735 32.4934 139.861 32.2453 139.938 32.0533C140.005 31.8214 140.147 31.6333 140.366 31.4891C140.584 31.3449 140.784 31.2914 140.965 31.3285C141.77 31.4555 141.918 32.1656 141.407 33.4588C141.173 33.8643 140.636 34.7364 139.795 36.0754C138.995 37.4037 138.362 38.5585 137.896 39.5399C137.381 40.492 137.235 41.0665 137.459 41.2635C137.928 41.7373 139.295 40.9215 141.558 38.8159C142.844 37.7002 144.236 36.0208 145.733 33.7775C146.742 32.2651 147.579 31.6337 148.246 31.8835C148.55 32.059 148.473 32.5722 148.016 33.423L146.129 36.6915C144.123 39.7563 143.092 42.3029 143.035 44.3312C143.063 45.3946 143.557 45.7978 144.516 45.5408C146.395 45.0375 150.496 40.0405 156.82 30.5499C158.004 28.7335 158.726 27.8331 158.987 27.8487C159.249 27.8644 159.218 28.151 158.896 28.7084C158.575 29.2658 157.395 31.017 155.357 33.9619C150.86 40.5212 147.559 44.4257 145.452 45.6756Z" fill="#B39D96"/>
<path d="M97.3294 133.454C95.421 134.621 93.9669 134.901 92.9671 134.295C91.9036 133.452 91.4855 132.435 91.7129 131.245C91.7571 130.323 92.2463 129.227 93.1804 127.957C94.1145 126.688 95.1915 125.543 96.4114 124.525C96.5089 122.715 97.0896 120.465 98.1534 117.777C101.056 110.81 105.001 103.381 109.986 95.4912C113.788 89.7028 117.72 84.0616 121.782 78.5675C125.878 73.0643 128.521 70.1534 129.71 69.8348C130.695 69.5708 131.22 70.3767 131.286 72.2524C131.293 74.7263 129.036 79.0085 124.515 85.099C123.106 87.0422 120.996 89.428 118.186 92.2564C115.4 95.0418 112.934 97.2502 110.786 98.8816C110.365 99.2129 109.426 100.466 107.97 102.64L105.796 106.554L103.145 111.743C101.71 114.676 100.668 116.903 100.02 118.424C99.2404 120.271 98.8741 121.826 98.9209 123.088L99.2194 122.571C99.3322 122.177 99.5241 121.67 99.7952 121.051C100.091 120.389 100.325 119.835 100.497 119.389C101.968 116.591 103.434 114.451 104.893 112.967C106.377 111.441 107.484 110.817 108.214 111.094C108.645 111.343 108.924 111.705 109.052 112.181C109.47 113.198 109.469 114.691 109.05 116.66L108.855 117.968L108.567 119.138C111.786 117.292 114.312 115.304 116.145 113.175C116.263 113.071 116.705 112.479 117.471 111.399C117.77 110.883 117.974 110.828 118.083 111.236C118.169 111.285 118.063 111.569 117.764 112.086C116.473 113.924 115.183 115.362 113.896 116.399C112.599 117.402 110.775 118.546 108.425 119.831L107.673 121.507C105.022 126.696 101.574 130.678 97.3294 133.454ZM110.33 98.403C117.167 92.5295 122.054 87.3969 124.992 83.0051C129.085 77.3569 130.919 73.534 130.493 71.5364C130.383 70.5827 130.014 70.4268 129.385 71.0687C128.846 71.5043 127.458 73.187 125.221 76.1167C122.975 79.0124 121.015 81.6857 119.342 84.1367C119.075 84.4995 118.638 85.1808 118.033 86.1806C117.461 87.1713 116.497 88.7402 115.143 90.8872C113.779 93.0002 112.175 95.5055 110.33 98.403ZM99.6616 122.998L102.61 121.772L105.874 120.296C106.276 119.351 106.695 118.128 107.13 116.628C107.696 114.255 107.929 112.882 107.829 112.509C107.806 112.151 107.712 111.939 107.549 111.873C107.386 111.808 107.068 111.911 106.595 112.184C105.212 113.137 103.877 114.678 102.59 116.807C101.295 118.902 100.318 120.966 99.6616 122.998ZM94.7033 134.049C96.4043 133.738 98.9908 131.298 102.463 126.726C103.171 125.699 103.798 124.712 104.345 123.764C104.917 122.774 105.285 122.038 105.447 121.558L105.718 120.939C102.702 122.184 100.889 122.961 100.28 123.27L99.4178 123.719C99.0697 124.322 98.8186 125.627 98.6647 127.635C98.6563 128.147 98.5683 128.498 98.4009 128.689C98.2335 128.879 98.0115 128.866 97.7348 128.649C97.4582 128.431 97.1575 128.057 96.8329 127.525L96.3204 125.205C93.1655 127.834 91.818 130.143 92.278 132.132C92.3977 133.665 93.2061 134.304 94.7033 134.049Z" fill="#B39D96"/>
<path d="M127.248 108.343C127.465 108.066 127.601 108.03 127.655 108.234C127.71 108.438 127.688 108.626 127.588 108.798C126.971 109.619 126.502 110.181 126.183 110.485C124.882 111.744 123.257 112.27 121.309 112.064C121.111 112.955 120.88 113.727 120.618 114.379C120.234 115.392 119.577 116.606 118.645 118.021C117.448 119.398 116.578 120.159 116.034 120.304C115.154 120.686 114.498 120.48 114.066 119.685C113.666 118.736 114.069 117.045 115.273 114.61C116.444 112.185 117.437 110.863 118.252 110.644C118.524 110.571 118.773 110.687 119 110.99C118.896 110.872 118.798 110.643 118.707 110.304C118.58 109.828 118.619 109.363 118.824 108.907C119.118 108.1 119.582 107.794 120.216 107.988C121.023 108.281 121.371 109.444 121.261 111.476C122.509 111.652 123.657 111.453 124.706 110.881C125.494 110.561 126.341 109.715 127.248 108.343ZM120.696 111.409C120.746 111.323 120.77 111.207 120.767 111.062C120.765 110.917 120.767 110.789 120.774 110.678C120.78 110.567 120.778 110.422 120.766 110.244C120.755 110.065 120.726 109.89 120.681 109.72C120.626 109.516 120.576 109.33 120.531 109.16C120.485 108.99 120.41 108.846 120.306 108.728C120.024 108.221 119.743 108.26 119.463 108.845C119.296 109.036 119.214 109.276 119.219 109.566C119.265 110.282 119.475 110.79 119.846 111.091C120.105 111.24 120.311 111.33 120.465 111.362L120.696 111.409ZM117.979 117.981C119.189 116.383 120.072 114.38 120.629 111.973L120.038 111.804C119.729 111.741 119.454 111.596 119.211 111.37L118.383 112.357C117.748 113.11 117.145 114.054 116.575 115.19C115.08 118.576 114.858 120.128 115.912 119.846C115.961 119.76 116.054 119.698 116.19 119.662C116.715 119.448 117.312 118.888 117.979 117.981Z" fill="#B39D96"/>
<path d="M141.662 121.575C139.754 122.742 138.299 123.022 137.3 122.417C136.236 121.573 135.818 120.556 136.045 119.366C136.09 118.444 136.579 117.348 137.513 116.079C138.447 114.809 139.524 113.665 140.744 112.646C140.841 110.836 141.422 108.587 142.486 105.898C145.389 98.9308 149.333 91.5021 154.319 83.6123C158.12 77.824 162.052 72.1828 166.114 66.6886C170.211 61.1854 172.853 58.2745 174.042 57.9559C175.027 57.6919 175.553 58.4978 175.618 60.3736C175.626 62.8475 173.369 67.1296 168.848 73.2201C167.438 75.1633 165.329 77.5491 162.518 80.3776C159.733 83.1629 157.266 85.3713 155.118 87.0028C154.697 87.334 153.759 88.5868 152.302 90.7612L150.129 94.6751L147.477 99.864C146.042 102.797 145.001 105.024 144.352 106.545C143.573 108.392 143.207 109.947 143.253 111.209L143.552 110.692C143.665 110.298 143.857 109.791 144.128 109.172C144.424 108.51 144.658 107.956 144.829 107.51C146.301 104.712 147.766 102.572 149.226 101.089C150.71 99.5622 151.817 98.9378 152.547 99.2156C152.978 99.4643 153.257 99.8265 153.384 100.302C153.802 101.319 153.802 102.812 153.383 104.781L153.187 106.089L152.9 107.259C156.119 105.413 158.645 103.426 160.477 101.296C160.595 101.192 161.037 100.6 161.804 99.5206C162.102 99.0037 162.306 98.9491 162.415 99.3567C162.502 99.4065 162.395 99.6898 162.097 100.207C160.806 102.046 159.516 103.483 158.228 104.52C156.931 105.523 155.108 106.667 152.758 107.952L152.005 109.628C149.354 114.817 145.906 118.8 141.662 121.575ZM154.662 86.5241C161.499 80.6506 166.387 75.518 169.324 71.1263C173.418 65.4781 175.252 61.6551 174.826 59.6575C174.716 58.7039 174.346 58.548 173.717 59.1899C173.179 59.6255 171.791 61.3081 169.554 64.2378C167.308 67.1335 165.348 69.8069 163.674 72.2578C163.407 72.6206 162.971 73.3019 162.365 74.3017C161.793 75.2924 160.83 76.8613 159.475 79.0083C158.112 81.1214 156.507 83.6267 154.662 86.5241ZM143.994 111.12L146.942 109.893L150.206 108.417C150.608 107.472 151.027 106.249 151.463 104.749C152.028 102.377 152.261 101.003 152.161 100.63C152.138 100.272 152.045 100.06 151.882 99.9946C151.719 99.9291 151.4 100.033 150.927 100.305C149.544 101.258 148.209 102.799 146.923 104.928C145.627 107.023 144.651 109.087 143.994 111.12ZM139.036 122.17C140.737 121.86 143.323 119.419 146.795 114.848C147.503 113.82 148.131 112.833 148.678 111.885C149.25 110.895 149.617 110.159 149.78 109.679L150.051 109.06C147.035 110.305 145.222 111.082 144.613 111.391L143.75 111.84C143.402 112.443 143.151 113.749 142.997 115.756C142.989 116.268 142.901 116.619 142.733 116.81C142.566 117 142.344 116.987 142.067 116.77C141.791 116.553 141.49 116.178 141.165 115.646L140.653 113.326C137.498 115.955 136.151 118.264 136.611 120.253C136.73 121.786 137.539 122.425 139.036 122.17Z" fill="#B39D96"/>
<path d="M164.804 107.455C162.771 108.837 161.267 108.931 160.291 107.736C159.942 107.247 159.694 106.458 159.548 105.368C159.506 104.396 159.739 103.296 160.247 102.068C160.959 100.239 161.871 98.6834 162.984 97.4021C164.167 96.2475 165.222 95.5644 166.149 95.3526C167.134 95.0886 167.784 95.2056 168.1 95.7036C168.415 96.2017 168.347 96.9664 167.895 97.9977C167.534 98.8228 167.17 99.5028 166.803 100.038C166.428 100.539 166.151 100.795 165.972 100.807C165.793 100.818 165.66 100.799 165.574 100.75C166.395 99.8742 166.998 98.9299 167.382 97.9167C167.8 96.8945 167.904 96.2657 167.696 96.0304C166.92 95.0367 165.6 95.9547 163.737 98.7843C163.119 99.6051 162.421 100.939 161.641 102.786C160.736 105.25 160.636 106.915 161.341 107.782C161.909 108.54 162.807 108.427 164.036 107.443C166.403 105.679 168.729 103.217 171.014 100.057C171.281 99.6939 172.076 98.516 173.398 96.5231C173.597 96.1785 173.801 96.1239 174.01 96.3592C174.046 96.4951 173.99 96.6923 173.841 96.9507C170.673 101.841 167.66 105.343 164.804 107.455Z" fill="#B39D96"/>
<path d="M178.371 88.5823C178.18 88.4149 178.234 88.0727 178.533 87.5558C178.768 87.3471 178.997 87.2494 179.219 87.2628C179.305 87.3125 179.393 87.5072 179.484 87.8469C179.141 88.7399 178.77 88.9851 178.371 88.5823ZM180.82 88.1444C180.29 88.068 180.326 87.6579 180.928 86.9141C181.045 86.8097 181.138 86.7485 181.206 86.7303C181.342 86.6938 181.453 86.7005 181.539 86.7502C181.711 86.8497 181.774 87.015 181.727 87.2462C181.679 87.4773 181.555 87.6927 181.354 87.8923C181.152 88.0919 180.974 88.1759 180.82 88.1444ZM176.347 104.471C174.485 105.808 173.042 105.994 172.019 105.03C171.398 104.614 171.023 103.896 170.895 102.874C170.821 102.056 171.138 100.861 171.845 99.2877L172.401 98.101C173.036 96.8022 173.68 95.7377 174.331 94.9078C175.908 92.7741 177.182 91.6863 178.154 91.6443C178.906 91.734 179.286 92.2694 179.294 93.2503C179.302 94.2313 178.998 95.2047 178.383 96.1705C176.893 98.3539 175.187 99.6665 173.267 100.108C173.131 100.145 172.95 100.557 172.725 101.346C172.456 102.11 172.347 102.722 172.397 103.181C172.548 104.561 173.024 105.18 173.823 105.038C175.388 104.765 177.726 102.755 180.837 99.0085C182.232 97.2873 183.592 95.4302 184.915 93.4373C185.231 92.9883 185.485 92.8476 185.675 93.015C185.712 93.1509 185.556 93.5203 185.208 94.1234C184.609 95.0122 183.457 96.5586 181.754 98.7627C181.27 99.4021 180.362 100.428 179.029 101.841C177.73 103.245 176.836 104.122 176.347 104.471ZM173.463 99.6188C174.399 99.4409 175.261 98.9913 176.051 98.27C178.106 96.1538 179.04 94.4106 178.855 93.0402C178.832 92.6822 178.651 92.5488 178.311 92.6398C177.872 92.9031 177.213 93.5711 176.336 94.6437C175.449 95.6824 174.825 96.6142 174.463 97.4393L173.463 99.6188Z" fill="#B39D96"/>
<path d="M200.966 102.79C199.853 102.579 199.175 101.814 198.931 100.496C198.721 99.1683 198.922 97.6762 199.534 96.0194L201.652 91.0827L199.178 93.8756C197.327 95.9371 195.933 96.9843 194.995 97.0171C194.177 97.0906 193.603 96.7164 193.274 95.8944C192.944 95.0724 192.899 94.1561 193.138 93.1454L194.138 90.9659L188.943 97.055C187.06 99.2706 185.341 99.9863 183.783 99.202C183.008 98.7544 182.742 97.8972 182.985 96.6305C183.587 94.3938 184.415 93.1343 185.468 92.8521C186.267 92.7107 186.268 93.2567 185.47 94.4901C185.04 95.3333 184.748 95.9397 184.592 96.3092C184.294 97.372 184.315 98.1309 184.656 98.5859C184.996 99.0409 185.598 99.0435 186.46 98.5939C187.762 97.881 191.831 93.0224 198.666 84.018C199.374 82.9909 199.818 82.4715 199.996 82.46C200.286 82.4551 200.399 82.8073 200.334 83.5164C200.26 84.1916 200.149 84.6585 199.999 84.9169C197.869 88.1092 196.655 89.9639 196.356 90.4807C195.536 91.9022 194.956 93.2044 194.618 94.3874C194.537 94.6276 194.504 94.9822 194.521 95.4511C194.562 95.877 194.763 96.1509 195.123 96.2728C196.027 96.249 198.478 93.8447 202.475 89.0598C203.803 87.3568 204.575 86.367 204.792 86.0903L205.444 85.2604C205.561 85.156 205.671 85.0902 205.773 85.0629C205.909 85.0265 206.023 85.1781 206.114 85.5179C206.168 85.7217 206.184 85.9176 206.162 86.1057C206.139 86.2938 206.041 86.5385 205.867 86.8401C205.718 87.0985 205.618 87.2708 205.569 87.3569C205.388 87.7695 205.066 88.4019 204.602 89.2543C204.164 90.0636 203.854 90.6745 203.673 91.0871C200.742 96.8607 199.787 100.43 200.808 101.795C201.688 102.906 204.449 100.91 209.089 95.8075C212.806 91.6074 215.789 87.859 218.037 84.5623C218.335 84.0454 218.539 83.9908 218.648 84.3984C218.685 84.5343 218.554 84.8607 218.255 85.3776C215.989 88.6063 212.813 92.5158 208.727 97.1061C205.277 100.943 202.69 102.838 200.966 102.79Z" fill="#B39D96"/>
<path d="M224.601 86.8448C224.126 86.9723 223.908 86.4299 223.947 85.2179C224.431 82.5395 226.337 77.4229 229.665 69.8681C233.027 62.3041 235.996 56.2653 238.574 51.7517C240.712 48.0473 242.1 45.8187 242.735 45.0658C243.982 43.6031 244.786 43.0052 245.149 43.2721C245.494 43.471 245.327 43.9345 244.648 44.6625C243.759 45.5562 242.114 48.1816 239.713 52.5387C237.337 56.8528 235.017 61.4431 232.753 66.3098C231.657 68.6061 230.106 72.2621 228.1 77.278C226.095 82.294 225.014 85.2596 224.859 86.1751C224.805 86.5172 224.719 86.7405 224.601 86.8448ZM222.463 94.354C222.259 94.4087 222.116 94.2831 222.034 93.9774C221.943 93.6376 221.922 93.4247 221.972 93.3386C222.098 92.7222 222.443 92.4477 223.008 92.515C223.094 92.5647 223.146 92.6235 223.164 92.6915C223.376 93.6178 223.142 94.172 222.463 94.354Z" fill="#B39D96"/>
</g>
<path opacity="0.9" d="M30.3914 66.0784C30.5214 65.7921 30.6621 65.4961 30.8133 65.1905L30.8921 65.2288L30.8939 65.2259L30.8967 65.2211L31.0718 64.9506C31.0246 65.0463 30.9771 65.1435 30.9294 65.2423L30.9275 65.2463C30.7756 65.5533 30.6345 65.8503 30.5043 66.1372C30.3361 66.4213 30.1705 66.6995 30.0075 66.9718C30.1231 66.6853 30.2511 66.3874 30.3914 66.0784Z" fill="#B39D96"/>
</svg>
