<svg width="383" height="251" viewBox="0 0 383 251" fill="none" xmlns="http://www.w3.org/2000/svg">
<path d="M23.3156 131.55C20.4934 133.469 18.4051 133.599 17.0507 131.94C16.5655 131.261 16.2213 130.165 16.0182 128.653C15.96 127.303 16.2837 125.776 16.9893 124.07C17.9771 121.531 19.2436 119.372 20.789 117.593C22.432 115.99 23.8966 115.041 25.1827 114.747C26.5505 114.381 27.4534 114.543 27.8914 115.235C28.3294 115.926 28.2347 116.988 27.6074 118.42C27.1055 119.565 26.6003 120.509 26.0916 121.252C25.5703 121.948 25.1855 122.304 24.937 122.32C24.6885 122.336 24.5045 122.309 24.3849 122.24C25.5252 121.025 26.3618 119.714 26.8949 118.307C27.475 116.888 27.6202 116.015 27.3305 115.688C26.2531 114.309 24.421 115.583 21.8339 119.512C20.9766 120.651 20.007 122.503 18.9249 125.068C17.6677 128.489 17.529 130.801 18.5086 132.004C19.2962 133.057 20.5431 132.9 22.2494 131.533C25.5364 129.085 28.7657 125.667 31.9372 121.278C32.3077 120.775 33.4113 119.139 35.248 116.372C35.5242 115.894 35.8072 115.818 36.097 116.145C36.1475 116.334 36.0692 116.607 35.8621 116.966C31.4636 123.756 27.2815 128.617 23.3156 131.55Z" fill="#B39D96"/>
<path d="M79.0276 117.077C77.1806 116.409 76.6203 114.79 77.347 112.22L77.4126 111.899C77.757 110.543 78.2618 109.219 78.9271 107.929C79.5797 106.592 80.3957 105.109 81.3751 103.482C82.389 101.795 83.194 100.366 83.7902 99.1951C83.162 99.8689 81.7754 101.58 79.6304 104.328L77.3175 107.299C71.7239 114.156 68.0942 118.061 66.4283 119.012C65.1617 119.756 64.2116 119.606 63.5781 118.563C62.5193 116.875 62.9739 114.327 64.9419 110.918C66.2632 108.492 67.2666 107.237 67.9522 107.154C68.946 107.09 68.9815 107.788 68.0585 109.249C67.17 110.65 66.6222 111.529 66.4151 111.888C64.8614 114.579 64.293 116.703 64.7101 118.26C64.887 118.92 65.6589 118.688 67.0258 117.563C68.3926 116.439 69.6382 115.145 70.7625 113.681C76.3375 107.132 80.2304 102.323 82.441 99.2533C82.7862 98.6553 82.9146 98.1912 82.8262 97.8611C82.7251 97.4837 83.1605 97.3165 84.1325 97.3594C84.7995 97.5851 85.3689 97.6347 85.8405 97.5083C86.6895 97.2808 86.6369 98.0279 85.6828 99.7495C85.5447 99.9887 85.3375 100.348 85.0613 100.826C81.9354 106.516 80.0264 110.617 79.3343 113.128C78.7828 114.843 78.913 115.895 79.725 116.284C81.0625 116.936 83.2076 115.603 86.1602 112.285C89.1599 108.953 91.672 105.5 93.6965 101.924L94.6994 100.291C94.9066 99.9319 95.1424 99.8687 95.4069 100.101C95.5518 100.265 95.5552 100.466 95.4171 100.705L93.2558 104.241C90.5121 108.717 87.4185 112.453 83.9748 115.448C81.9637 116.998 80.3146 117.541 79.0276 117.077Z" fill="#B39D96"/>
<path d="M96.9688 109.768C96.4534 110.108 96.0474 109.913 95.7509 109.184C95.3659 108.124 95.3738 106.833 95.7745 105.31C96.2502 103.313 98.2734 100.016 101.844 95.4191C103.016 93.9426 104.026 93.0906 104.875 92.8631C105.73 93.0382 105.34 94.1285 103.704 96.134C101.465 98.9077 100.465 100.364 100.704 100.502C102.191 100.204 103.722 99.6929 105.297 98.9676C105.813 98.6273 106.234 98.3123 106.56 98.0225C107.751 96.9957 108.488 96.4444 108.771 96.3686C109.149 96.2675 109.44 95.6585 109.647 94.5417C109.966 93.0913 110.777 92.065 112.082 91.4627C113.399 90.9075 114.329 91.265 114.872 92.535C114.973 92.9123 115.033 93.3259 115.052 93.7756C115.059 94.1782 115.047 94.5101 115.016 94.7712C114.985 95.0323 114.855 95.3957 114.626 95.8615C114.397 96.3272 114.207 96.6562 114.056 96.8482C113.952 97.0276 113.734 97.4399 113.402 98.0851C113.056 98.6831 112.849 99.0419 112.78 99.1615L112.017 100.276C112.137 100.345 112.41 100.423 112.838 100.511C114.88 100.773 116.96 100.139 119.078 98.6114C121.196 97.0834 122.997 95.0337 124.482 92.4622C124.947 91.9332 125.23 91.8574 125.331 92.2347C125.451 92.3038 125.303 92.6971 124.889 93.4147C121.197 99.2568 117.096 101.872 112.584 101.261L111.494 100.871C109.934 103.159 108.462 104.742 107.079 105.618C105.731 106.434 104.697 106.256 103.979 105.084C103.355 103.886 103.898 102.047 105.609 99.5664C104.742 100.102 104.002 100.452 103.388 100.616L99.7803 101.583C99.014 102.496 98.2969 103.876 97.6292 105.723C96.729 107.835 96.5181 109.029 96.9966 109.305C97.2358 109.443 97.2265 109.597 96.9688 109.768ZM111.332 99.7011C112.937 97.1987 113.906 95.3465 114.241 94.1446C114.347 92.6505 113.938 91.9763 113.017 92.1221C112.143 92.2552 111.437 92.9244 110.901 94.1297C110.399 95.2752 110.198 96.315 110.296 97.249C110.382 98.1359 110.57 98.7427 110.86 99.0695L111.332 99.7011ZM106.111 105.119C106.307 105.471 106.923 105.129 107.96 104.093C108.996 103.057 109.935 101.845 110.777 100.457C110.273 100.086 109.876 99.3584 109.585 98.2737C109.534 98.085 109.027 98.5495 108.063 99.6673C105.949 102.155 105.298 103.972 106.111 105.119Z" fill="#B39D96"/>
<path d="M128.575 103.649C127.414 103.657 126.536 103.21 125.94 102.308C125.332 101.359 125.024 100.304 125.017 99.1433C124.909 98.3634 125.077 97.4841 125.523 96.5053C126.297 93.9221 127.502 91.6278 129.138 89.6223C131.515 86.6094 133.978 84.7617 136.524 84.0793C137.468 83.8265 137.927 83.653 137.901 83.5586C137.913 82.8478 137.889 82.0961 137.828 81.3035C137.755 80.4638 137.689 79.7484 137.632 79.1571C137.575 78.5659 137.409 77.8521 137.134 77.0158C136.847 76.1323 136.646 75.4783 136.533 75.0538C136.406 74.5822 136.146 73.8937 135.752 72.9883C135.345 72.0358 135.073 71.4007 134.938 71.0832C134.802 70.7657 134.477 70.1197 133.964 69.1453C133.437 68.1237 133.125 67.5249 133.027 67.3489C132.93 67.1729 132.558 66.5395 131.912 65.4489C131.253 64.3111 130.911 63.695 130.886 63.6007C128.367 58.9172 127.394 55.2855 127.966 52.7057C128.69 49.9338 130.979 47.3488 134.836 44.9506C136.618 43.8665 138.432 42.9003 140.277 42.052C142.109 41.1566 144.304 40.2905 146.86 39.454C149.463 38.6048 151.342 37.975 152.496 37.5648C153.697 37.1419 155.971 36.4818 159.32 35.5845C162.716 34.6746 164.768 34.1249 165.475 33.9353C178.108 30.1458 187.282 25.615 192.997 20.343L194.152 19.2753C194.537 20.3348 193.98 21.3687 192.481 22.377C187.607 26.261 181.391 29.5694 173.833 32.3023C171.101 33.2366 167.113 34.4822 161.868 36.0391C156.658 37.5362 151.975 39.0185 147.819 40.4861C143.663 41.9536 139.871 43.6519 136.445 45.5809C132.736 47.5858 130.403 49.7273 129.447 52.0057C128.553 54.5199 129.209 57.9081 131.412 62.1705C131.942 63.3934 132.781 65.0138 133.928 67.0317C135.123 69.037 135.903 70.3445 136.268 70.9542C138.551 75.7009 139.372 80.8393 138.73 86.3695C138.089 91.8997 136.091 96.7066 132.737 100.79C131.286 102.544 129.899 103.497 128.575 103.649ZM127.747 101.976C127.848 102.353 128.27 102.417 129.012 102.167C129.706 101.931 130.404 101.516 131.105 100.924C131.363 100.754 131.827 100.225 132.499 99.3372C133.595 97.5777 134.709 95.5099 135.842 93.1338C136.469 91.702 137.085 89.5656 137.688 86.7246C137.757 86.605 137.818 86.3612 137.871 85.9931C137.924 85.6251 137.938 85.3939 137.913 85.2995L137.837 85.0166C137.598 84.8785 136.847 85.282 135.583 86.2271C134.32 87.1722 133.469 87.9564 133.029 88.5796C128.787 94.8219 127.027 99.2871 127.747 101.976Z" fill="#B39D96"/>
<path d="M162.982 81.3878C163.284 81.0037 163.472 80.9532 163.548 81.2361C163.624 81.5191 163.593 81.7802 163.455 82.0194C162.598 83.1591 161.947 83.9399 161.504 84.3619C159.698 86.1097 157.442 86.8405 154.737 86.5544C154.462 87.7908 154.142 88.8622 153.778 89.7685C153.245 91.175 152.332 92.8604 151.038 94.8247C149.377 96.7358 148.169 97.7925 147.414 97.9947C146.191 98.5246 145.28 98.2379 144.681 97.1346C144.126 95.8174 144.685 93.4688 146.357 90.0887C147.982 86.7213 149.361 84.886 150.493 84.5826C150.87 84.4815 151.217 84.6415 151.532 85.0626C151.387 84.8993 151.251 84.5817 151.125 84.1101C150.948 83.4498 151.002 82.8034 151.287 82.1708C151.695 81.0506 152.339 80.6252 153.22 80.8947C154.341 81.3022 154.824 82.9167 154.67 85.7383C156.403 85.9815 157.997 85.706 159.453 84.9116C160.547 84.4668 161.723 83.2922 162.982 81.3878ZM153.886 85.6448C153.956 85.5252 153.988 85.3648 153.985 85.1635C153.982 84.9622 153.985 84.7845 153.994 84.6304C154.003 84.4762 154 84.2749 153.984 84.0265C153.968 83.778 153.928 83.5359 153.865 83.3C153.789 83.0171 153.719 82.7577 153.656 82.5218C153.593 82.286 153.489 82.0864 153.344 81.923C152.953 81.219 152.563 81.2729 152.174 82.0848C151.942 82.3493 151.829 82.6829 151.836 83.0855C151.9 84.0793 152.19 84.7851 152.706 85.2028C153.065 85.4099 153.352 85.5354 153.566 85.5792L153.886 85.6448ZM150.114 94.7691C151.794 92.5497 153.02 89.7694 153.793 86.4281L152.972 86.1932C152.544 86.1057 152.162 85.9048 151.825 85.5907L150.675 86.9603C149.793 88.0056 148.956 89.3166 148.165 90.8933C146.089 95.5949 145.781 97.7498 147.243 97.358C147.313 97.2384 147.441 97.1533 147.63 97.1028C148.359 96.8063 149.187 96.0284 150.114 94.7691Z" fill="#B39D96"/>
<path d="M164.136 104.812C161.487 106.432 159.468 106.821 158.08 105.98C156.603 104.809 156.023 103.397 156.338 101.745C156.4 100.465 157.079 98.9436 158.376 97.1807C159.673 95.4178 161.168 93.8292 162.862 92.4149C162.997 89.9017 163.803 86.779 165.28 83.0469C169.31 73.3734 174.786 63.0597 181.709 52.1058C186.986 44.0695 192.445 36.2375 198.085 28.6097C203.772 20.9693 207.441 16.9279 209.091 16.4856C210.459 16.1191 211.189 17.2379 211.28 19.8421C211.29 23.2768 208.157 29.222 201.879 37.6778C199.923 40.3756 196.994 43.688 193.092 47.6148C189.225 51.4819 185.8 54.548 182.818 56.813C182.234 57.2729 180.931 59.0122 178.909 62.031L175.891 67.465L172.21 74.669C170.218 78.7414 168.771 81.8334 167.871 83.9449C166.789 86.5096 166.281 88.6679 166.346 90.4198L166.76 89.7022C166.917 89.1547 167.183 88.4514 167.56 87.5923C167.97 86.6734 168.295 85.9039 168.533 85.284C170.576 81.4003 172.611 78.4287 174.637 76.3692C176.698 74.25 178.235 73.3832 179.248 73.7688C179.846 74.1141 180.234 74.6169 180.411 75.2772C180.991 76.6887 180.99 78.7615 180.409 81.4955L180.137 83.3122L179.738 84.9356C184.208 82.3732 187.715 79.6137 190.259 76.6572C190.422 76.5123 191.036 75.6907 192.1 74.1922C192.515 73.4746 192.798 73.3988 192.949 73.9648C193.069 74.0338 192.922 74.4271 192.507 75.1448C190.714 77.6978 188.924 79.694 187.136 81.1336C185.335 82.5259 182.804 84.1142 179.541 85.8983L178.497 88.2255C174.816 95.4295 170.029 100.958 164.136 104.812ZM182.185 56.1485C191.677 47.994 198.463 40.868 202.541 34.7707C208.225 26.929 210.771 21.6214 210.179 18.8479C210.027 17.524 209.514 17.3075 208.641 18.1987C207.893 18.8035 205.966 21.1396 202.86 25.2071C199.742 29.2273 197.021 32.9389 194.697 36.3418C194.327 36.8454 193.721 37.7913 192.879 39.1794C192.085 40.5549 190.748 42.733 188.868 45.7139C186.974 48.6475 184.747 52.1258 182.185 56.1485ZM167.374 90.2959L171.467 88.5925L175.999 86.5442C176.557 85.232 177.138 83.5344 177.743 81.4515C178.528 78.1574 178.852 76.251 178.713 75.7322C178.681 75.2352 178.551 74.9413 178.325 74.8504C178.098 74.7594 177.656 74.9031 177 75.2813C175.079 76.6046 173.226 78.7441 171.44 81.6996C169.641 84.608 168.286 87.4735 167.374 90.2959ZM160.49 105.637C162.852 105.207 166.443 101.818 171.263 95.4715C172.246 94.0455 173.117 92.6747 173.877 91.3591C174.671 89.9836 175.181 88.9624 175.406 88.2953L175.783 87.4362C171.595 89.1648 169.079 90.2435 168.233 90.6723L167.036 91.2965C166.552 92.1337 166.204 93.9458 165.99 96.7328C165.978 97.4437 165.856 97.9313 165.624 98.1958C165.391 98.4603 165.083 98.4418 164.699 98.1403C164.315 97.8388 163.897 97.3188 163.447 96.5802L162.735 93.3587C158.355 97.0093 156.484 100.215 157.123 102.976C157.289 105.105 158.411 105.992 160.49 105.637Z" fill="#B39D96"/>
<path d="M194.789 83.2533C194.281 83.9962 193.729 84.2957 193.134 84.1517C192.54 84.0077 192.11 83.4405 191.844 82.4501C191.377 80.705 192.732 77.4606 195.909 72.7168C197.488 70.12 198.595 68.686 199.23 68.4148C199.513 68.339 199.787 68.4173 200.051 68.6497C200.29 68.7878 200.435 68.9512 200.486 69.1398L200.033 69.716C199.311 70.4151 198.76 71.0936 198.38 71.7514L195.079 77.2612C196.334 77.2282 198.079 76.7606 200.314 75.8584C204.288 74.086 206.879 72.1533 208.087 70.0602C208.226 69.821 208.413 69.6698 208.648 69.6066C208.884 69.5434 209.027 69.6061 209.078 69.7948C209.204 70.2664 208.719 71.003 207.623 72.0045C205.842 73.8467 203.209 75.4366 199.726 76.7744L196.259 77.7033C196.814 79.0205 196.324 80.8705 194.789 83.2533ZM195.769 78.1379C195.643 77.6663 195.313 77.7547 194.779 78.4033C194.615 78.5482 194.505 78.704 194.449 78.8708C193.517 80.4854 193.142 81.8242 193.326 82.8871C193.573 84.1858 194.153 83.8029 195.066 81.7385C195.668 80.2123 195.902 79.0121 195.769 78.1379Z" fill="#B39D96"/>
<path d="M210.39 79.3765C209.874 79.7168 209.468 79.5223 209.172 78.7929C208.787 77.7334 208.795 76.4423 209.195 74.9195C209.671 72.9216 211.694 69.6245 215.265 65.0281C216.436 63.5516 217.447 62.6995 218.296 62.4721C219.151 62.6472 218.761 63.7375 217.125 65.743C214.885 68.5167 213.885 69.9726 214.125 70.1107C215.612 69.8133 217.143 69.3019 218.718 68.5766C219.233 68.2363 219.655 67.9212 219.981 67.6315C221.172 66.6047 221.909 66.0534 222.192 65.9776C222.569 65.8765 222.861 65.2675 223.067 64.1507C223.386 62.7003 224.198 61.674 225.503 61.0716C226.82 60.5165 227.75 60.874 228.292 62.144C228.394 62.5213 228.454 62.9349 228.473 63.3846C228.48 63.7872 228.468 64.119 228.437 64.3801C228.406 64.6412 228.275 65.0047 228.046 65.4704C227.817 65.9362 227.627 66.2651 227.477 66.4572C227.373 66.6366 227.155 67.0489 226.822 67.6941C226.477 68.2921 226.27 68.6509 226.201 68.7705L225.438 69.8849C225.558 69.9539 225.831 70.0322 226.259 70.1198C228.301 70.3815 230.381 69.7484 232.499 68.2204C234.617 66.6924 236.418 64.6427 237.903 62.0712C238.368 61.5422 238.651 61.4664 238.752 61.8437C238.871 61.9127 238.724 62.3061 238.31 63.0237C234.618 68.8658 230.516 71.4813 226.005 70.8702L224.915 70.4799C223.354 72.7684 221.883 74.3507 220.5 75.2268C219.152 76.043 218.118 75.865 217.4 74.6926C216.775 73.495 217.319 71.6559 219.03 69.1754C218.163 69.7111 217.422 70.0611 216.809 70.2254L213.201 71.1922C212.435 72.1053 211.718 73.4853 211.05 75.3324C210.15 77.444 209.939 78.6379 210.417 78.9141C210.657 79.0522 210.647 79.2063 210.39 79.3765ZM224.753 69.3101C226.357 66.8076 227.327 64.9555 227.662 63.7536C227.767 62.2594 227.359 61.5853 226.438 61.731C225.564 61.8642 224.858 62.5334 224.322 63.7387C223.82 64.8842 223.618 65.924 223.717 66.858C223.803 67.7449 223.991 68.3517 224.281 68.6784L224.753 69.3101ZM219.532 74.7278C219.728 75.0799 220.344 74.7379 221.38 73.7018C222.417 72.6658 223.356 71.4537 224.197 70.0656C223.694 69.6951 223.296 68.9674 223.006 67.8826C222.955 67.694 222.448 68.1585 221.484 69.2763C219.37 71.7636 218.719 73.5808 219.532 74.7278Z" fill="#B39D96"/>
<path d="M148.751 154.329C147.415 155.192 146.304 155.288 145.416 154.616C143.751 153.495 143.736 150.896 145.373 146.817L146.442 144.863C142.446 148.815 139.814 150.405 138.545 149.633C137.828 149.218 137.65 148.179 138.013 146.515C138.213 145.753 139.36 143.525 141.454 139.83C141.523 139.71 141.637 139.478 141.797 139.131C142.005 138.773 142.154 138.48 142.245 138.253C142.323 137.98 142.491 137.758 142.749 137.587C143.006 137.417 143.242 137.354 143.456 137.398C144.406 137.548 144.58 138.386 143.978 139.912C143.702 140.39 143.068 141.42 142.076 143C141.131 144.567 140.384 145.93 139.835 147.088C139.226 148.212 139.054 148.89 139.318 149.122C139.873 149.681 141.485 148.719 144.155 146.234C145.673 144.917 147.316 142.935 149.083 140.288C150.273 138.503 151.262 137.758 152.048 138.053C152.407 138.26 152.317 138.866 151.777 139.87L149.55 143.727C147.183 147.344 145.966 150.349 145.899 152.742C145.932 153.997 146.515 154.473 147.647 154.17C149.864 153.576 154.703 147.679 162.166 136.479C163.563 134.335 164.416 133.273 164.724 133.291C165.033 133.31 164.997 133.648 164.617 134.306C164.237 134.964 162.845 137.03 160.44 140.506C155.133 148.246 151.237 152.854 148.751 154.329Z" fill="#B39D96"/>
<path d="M175.765 188.112C173.548 188.706 172.404 186.89 172.333 182.663C172.199 181.03 172.477 179.237 173.166 177.283C173.674 175.782 175.267 172.575 177.944 167.662C180.568 163.117 182.918 159.53 184.994 156.902C187.487 153.757 189.343 151.439 190.562 149.95L195.075 144.722C197.227 142.376 198.661 140.652 199.377 139.551C199.689 137.698 199.638 136.094 199.225 134.739C199.048 134.078 198.382 133.953 197.229 134.364C196.902 134.653 196.675 134.562 196.549 134.091L196.085 132.926C195.795 132.599 196.008 131.885 196.724 130.783C202.401 122.539 205.018 117.591 204.576 115.941C204.33 115.4 203.521 115.869 202.148 117.349C201.614 117.998 199.708 120.885 196.431 126.009C196.293 126.248 196.068 126.258 195.756 126.038C195.611 125.875 195.838 125.308 196.438 124.339L199.504 119.65C200.599 117.891 201.509 116.661 202.231 115.962L202.58 115.566C203.865 114.513 204.763 114.374 205.273 115.147C205.683 115.543 205.872 116.25 205.842 117.27C205.656 119.594 204.329 122.755 201.862 126.753L199.597 130.468L198.665 132.083L199.515 132.993C200.214 133.715 200.662 134.631 200.858 135.742L201.248 137.76C202.155 136.809 203.497 135.212 205.271 132.967C206.976 130.842 209.002 128.024 211.347 124.514L213.993 120.242C214.458 119.713 214.729 119.59 214.804 119.873C214.88 120.156 214.676 120.716 214.193 121.553C212.639 124.244 210.814 126.957 208.716 129.693L206.441 132.805C205.269 134.282 204.451 135.284 203.986 135.813L202.695 137.221L201.39 138.859L201.132 143.554C201.033 145.451 200.719 147.203 200.19 148.811C199.416 151.394 198.159 154.815 196.418 159.072C194.647 163.591 192.505 167.956 189.994 172.168C186.371 177.89 183.529 181.811 181.469 183.93C179.153 186.421 177.252 187.815 175.765 188.112ZM173.752 185.695C173.954 186.449 174.34 186.851 174.909 186.901C175.479 186.951 176.126 186.727 176.852 186.229C177.531 185.744 178.133 185.254 178.658 184.759C179.135 184.277 179.525 183.845 179.826 183.46C183.093 179.805 185.562 176.287 187.235 172.907C193.747 160.799 197.61 151.069 198.825 143.717L199.331 141.079L196.943 143.767C188.654 153.772 184.256 159.147 183.747 159.89C180.959 163.821 178.443 168.11 176.199 172.755C173.538 177.917 172.723 182.23 173.752 185.695Z" fill="#B39D96"/>
<path d="M227.967 132.648C226.021 133.877 224.589 133.907 223.669 132.738C222.925 131.472 222.535 130.11 222.499 128.654C222.45 127.151 222.624 125.916 223.023 124.95C221.688 126.571 220.739 127.558 220.176 127.911C218.96 128.844 217.937 129.27 217.107 129.189C216.276 129.108 215.745 128.543 215.515 127.492C215.271 126.395 215.322 125.168 215.666 123.812C216.691 120.656 218.752 117.88 221.851 115.482C224.597 113.28 226.427 112.942 227.341 114.466C228.009 115.45 228.058 116.574 227.487 117.839C227.355 118.481 227.357 118.961 227.493 119.278C227.689 119.63 227.535 120.379 227.033 121.524C226.826 121.883 226.545 122.439 226.191 123.191C225.871 123.883 225.592 124.539 225.353 125.159C225.103 125.732 224.899 126.292 224.742 126.84C223.914 131.106 224.29 133.077 225.872 132.755C227.196 132.602 229.516 130.413 232.833 126.188C234.978 123.44 237.368 119.817 240.005 115.319L241.333 112.916C241.867 112.267 242.22 112.173 242.394 112.632C242.419 112.726 242.201 113.138 241.74 113.869L237.624 120.582C236.183 122.94 234.75 125.043 233.324 126.891C231.183 129.84 229.397 131.76 227.967 132.648ZM217.516 128.169C217.686 128.427 218.462 128.118 219.845 127.242C220.009 127.097 220.689 126.333 221.886 124.951C221.955 124.832 222.7 123.747 224.123 121.698C224.261 121.459 224.649 120.925 225.286 120.097C225.958 119.209 226.372 118.492 226.529 117.944C227.36 115.952 227.205 114.806 226.063 114.505C225.584 114.229 224.611 114.844 223.144 116.349C221.501 117.952 219.993 120.151 218.618 122.945C217.279 125.68 216.911 127.421 217.516 128.169Z" fill="#B39D96"/>
<path d="M245.496 124.084C244.335 124.092 243.457 123.645 242.862 122.743C242.254 121.794 241.946 120.739 241.938 119.578C241.83 118.798 241.999 117.919 242.444 116.94C243.218 114.357 244.423 112.063 246.059 110.057C248.437 107.044 250.899 105.197 253.446 104.514C254.389 104.261 254.848 104.088 254.823 103.993C254.835 103.283 254.81 102.531 254.749 101.738C254.676 100.899 254.611 100.183 254.553 99.5919C254.496 99.0007 254.33 98.2869 254.055 97.4506C253.768 96.5671 253.568 95.9131 253.454 95.4886C253.328 95.017 253.067 94.3285 252.673 93.4231C252.266 92.4706 251.995 91.8356 251.859 91.518C251.724 91.2005 251.399 90.5546 250.885 89.5801C250.358 88.5585 250.046 87.9597 249.949 87.7837C249.851 87.6077 249.479 86.9744 248.833 85.8837C248.174 84.7459 247.832 84.1298 247.807 84.0355C245.288 79.352 244.315 75.7204 244.888 73.1405C245.611 70.3687 247.901 67.7836 251.757 65.3855C253.539 64.3013 255.353 63.3351 257.198 62.4868C259.031 61.5914 261.225 60.7254 263.781 59.8888C266.385 59.0396 268.263 58.4099 269.417 57.9996C270.618 57.5767 272.893 56.9166 276.242 56.0193C279.637 55.1094 281.689 54.5597 282.396 54.3701C295.03 50.5806 304.204 46.0499 309.919 40.7778L311.073 39.7101C311.458 40.7697 310.901 41.8036 309.402 42.8118C304.529 46.6958 298.313 50.0043 290.755 52.7371C288.023 53.6714 284.034 54.917 278.79 56.4739C273.58 57.971 268.897 59.4533 264.74 60.9209C260.584 62.3884 256.793 64.0867 253.367 66.0157C249.658 68.0206 247.325 70.1622 246.368 72.4405C245.475 74.9547 246.13 78.343 248.334 82.6053C248.864 83.8282 249.702 85.4486 250.849 87.4665C252.044 89.4718 252.824 90.7793 253.189 91.3891C255.472 96.1357 256.293 101.274 255.652 106.804C255.011 112.335 253.013 117.141 249.658 121.225C248.207 122.979 246.82 123.932 245.496 124.084ZM244.668 122.41C244.769 122.788 245.191 122.852 245.933 122.602C246.628 122.366 247.325 121.951 248.026 121.359C248.284 121.189 248.749 120.66 249.421 119.772C250.516 118.012 251.631 115.945 252.763 113.569C253.39 112.137 254.006 110 254.61 107.159C254.679 107.04 254.74 106.796 254.793 106.428C254.846 106.06 254.86 105.829 254.834 105.734L254.759 105.451C254.519 105.313 253.768 105.717 252.505 106.662C251.242 107.607 250.39 108.391 249.95 109.014C245.709 115.257 243.948 119.722 244.668 122.41Z" fill="#B39D96"/>
<path d="M279.904 101.823C280.205 101.439 280.394 101.388 280.47 101.671C280.545 101.954 280.514 102.215 280.376 102.454C279.519 103.594 278.869 104.375 278.426 104.797C276.619 106.545 274.363 107.275 271.658 106.989C271.383 108.226 271.063 109.297 270.7 110.203C270.167 111.61 269.253 113.295 267.96 115.259C266.298 117.171 265.09 118.227 264.335 118.43C263.113 118.959 262.202 118.673 261.603 117.569C261.048 116.252 261.606 113.904 263.279 110.524C264.904 107.156 266.282 105.321 267.414 105.017C267.792 104.916 268.138 105.076 268.453 105.497C268.308 105.334 268.172 105.017 268.046 104.545C267.869 103.885 267.923 103.238 268.209 102.606C268.616 101.485 269.261 101.06 270.142 101.329C271.262 101.737 271.745 103.352 271.591 106.173C273.324 106.416 274.919 106.141 276.374 105.346C277.468 104.902 278.645 103.727 279.904 101.823ZM270.808 106.08C270.877 105.96 270.91 105.8 270.906 105.598C270.903 105.397 270.906 105.219 270.915 105.065C270.924 104.911 270.921 104.71 270.905 104.461C270.889 104.213 270.849 103.971 270.786 103.735C270.71 103.452 270.641 103.192 270.578 102.957C270.514 102.721 270.41 102.521 270.266 102.358C269.875 101.654 269.485 101.708 269.096 102.52C268.863 102.784 268.75 103.118 268.757 103.52C268.821 104.514 269.112 105.22 269.628 105.638C269.987 105.845 270.273 105.97 270.487 106.014L270.808 106.08ZM267.035 115.204C268.715 112.985 269.942 110.204 270.714 106.863L269.893 106.628C269.465 106.54 269.083 106.34 268.746 106.026L267.596 107.395C266.714 108.44 265.877 109.751 265.087 111.328C263.01 116.03 262.703 118.185 264.165 117.793C264.234 117.673 264.363 117.588 264.551 117.538C265.281 117.241 266.109 116.463 267.035 115.204Z" fill="#B39D96"/>
<path d="M296.471 117.401C295.891 116.748 295.794 115.536 296.179 113.764C296.964 110.47 299.181 105.63 302.828 99.2439C304.036 97.1508 304.555 95.9754 304.385 95.7177C304.096 95.391 303.181 95.9393 301.641 97.3629C300.089 98.7392 298.674 100.155 297.396 101.609C295.614 103.452 294.214 105.394 293.194 107.436C292.573 108.513 292.195 108.614 292.062 107.74C291.79 106.347 292.155 104.783 293.156 103.049C293.338 102.596 293.9 101.485 294.841 99.7158C295.817 97.8872 296.689 96.2381 297.458 94.7683C298.274 93.2859 298.704 92.4377 298.748 92.2238C298.835 91.7959 298.848 91.4641 298.784 91.2282C298.721 90.9924 298.514 90.9722 298.162 91.1676C296.329 92.0631 293.78 94.7176 290.514 99.1313C287.235 103.498 285.087 107.081 284.068 109.882C283.723 110.48 283.622 110.86 283.767 111.024C283.818 111.213 283.68 111.452 283.353 111.741C283.052 112.126 282.751 112.231 282.452 112.059C282.106 111.899 281.785 111.454 281.488 110.725C280.51 108.206 281.741 103.934 285.181 97.9063C286.873 94.976 288.198 93.1297 289.157 92.3674C289.672 92.027 290.136 91.7764 290.547 91.6155C291.044 91.5835 291.332 91.8096 291.412 92.2939C291.478 92.731 291.301 93.1071 290.88 93.4221C290.295 93.882 289.272 95.3442 287.809 97.8088C285.703 101.457 284.35 104.144 283.752 105.872L282.983 109.793C283.372 108.981 283.901 108.031 284.569 106.942C287.564 101.893 290.438 97.8119 293.193 94.6979C295.062 92.4279 296.891 90.9521 298.68 90.2706C299.126 90.0499 299.464 90.0857 299.694 90.3779C299.971 90.6575 300.143 91.0159 300.21 91.453C300.276 91.8901 300.259 92.299 300.159 92.6797C300.053 93.4158 299.228 95.4314 297.685 98.7264L296.367 101.733C300.976 96.8588 303.799 94.6616 304.838 95.1416C305.052 95.1854 305.231 95.289 305.376 95.4523C305.886 96.2255 305.434 97.838 304.018 100.29L301.264 105.577L300.544 107.135C299.992 108.092 299.528 109 299.151 109.859C298.762 110.671 298.312 111.727 297.801 113.026C297.324 114.266 297.108 115.158 297.153 115.702C297.185 116.199 297.359 116.658 297.674 117.079C299.03 117.424 302.265 114.029 307.38 106.896C308.966 104.702 311.026 101.445 313.559 97.1269L316.347 92.816C316.485 92.5768 316.601 92.4446 316.695 92.4193C316.978 92.3435 317.145 92.3999 317.196 92.5886C317.315 92.6576 317.306 92.8117 317.168 93.051C316.728 93.6742 315.833 95.0514 314.484 97.1824C313.134 99.3134 312.077 100.936 311.314 102.05C308.847 106.048 306.622 109.348 304.641 111.952C300.58 116.983 297.857 118.799 296.471 117.401Z" fill="#B39D96"/>
<path d="M334.441 87.2095C334.742 86.8254 334.931 86.7748 335.007 87.0578C335.083 87.3408 335.051 87.6019 334.913 87.8411C334.056 88.9807 333.406 89.7615 332.963 90.1835C331.156 91.9313 328.901 92.6622 326.195 92.376C325.92 93.6125 325.6 94.6838 325.237 95.5901C324.704 96.9967 323.79 98.6821 322.497 100.646C320.835 102.558 319.627 103.614 318.873 103.816C317.65 104.346 316.739 104.06 316.14 102.956C315.585 101.639 316.143 99.2904 317.816 95.9104C319.441 92.543 320.82 90.7076 321.951 90.4043C322.329 90.3032 322.675 90.4632 322.99 90.8843C322.845 90.7209 322.709 90.4034 322.583 89.9318C322.406 89.2715 322.46 88.625 322.746 87.9925C323.153 86.8723 323.798 86.4469 324.679 86.7163C325.799 87.1239 326.282 88.7384 326.128 91.5599C327.862 91.8032 329.456 91.5276 330.911 90.7333C332.005 90.2885 333.182 89.1139 334.441 87.2095ZM325.345 91.4665C325.414 91.3469 325.447 91.1864 325.443 90.9852C325.44 90.7839 325.443 90.6061 325.452 90.452C325.461 90.2979 325.458 90.0966 325.442 89.8481C325.426 89.5997 325.386 89.3575 325.323 89.1217C325.247 88.8387 325.178 88.5793 325.115 88.3435C325.052 88.1077 324.948 87.9081 324.803 87.7447C324.412 87.0406 324.022 87.0945 323.633 87.9065C323.4 88.171 323.287 88.5045 323.294 88.9071C323.358 89.9009 323.649 90.6067 324.165 91.0244C324.524 91.2316 324.81 91.3571 325.024 91.4008L325.345 91.4665ZM321.572 100.591C323.252 98.3714 324.479 95.591 325.252 92.2498L324.43 92.0149C324.002 91.9273 323.62 91.7265 323.283 91.4124L322.134 92.7819C321.251 93.8272 320.414 95.1382 319.624 96.715C317.547 101.417 317.24 103.571 318.702 103.18C318.771 103.06 318.9 102.975 319.088 102.924C319.818 102.628 320.646 101.85 321.572 100.591Z" fill="#B39D96"/>
<path d="M352.222 72.5118C349.356 74.6446 347.092 74.8722 345.429 73.1946C343.902 71.8345 343.677 70.0498 344.753 67.8405C345.047 67.0538 345.511 66.8032 346.144 67.0887C346.263 67.1577 346.32 67.37 346.314 67.7254C346.245 67.845 346.115 68.2085 345.924 68.8157C345.78 69.4104 345.711 69.909 345.718 70.3116C345.891 72.8433 346.951 73.8737 348.897 73.4027C349.369 73.2764 350.827 72.3043 353.272 70.4865C353.435 70.3416 353.994 69.7874 354.949 68.8238C355.113 68.6789 355.314 68.6755 355.553 68.8136C355.84 68.9391 355.961 69.1088 355.917 69.3227C355.942 69.4171 355.867 69.5131 355.691 69.6108C355.562 69.6959 355.44 69.8045 355.323 69.9368C355.207 70.069 355.115 70.1949 355.046 70.3145C354.826 70.6262 353.885 71.3586 352.222 72.5118ZM344.685 101.829C343.349 102.692 342.237 102.788 341.35 102.116C339.684 100.995 339.67 98.3953 341.307 94.317L342.376 92.3625C338.38 96.3147 335.748 97.9046 334.479 97.1324C333.761 96.7181 333.584 95.6788 333.947 94.0145C334.147 93.2531 335.294 91.0248 337.388 87.3297C337.457 87.2101 337.571 86.9772 337.731 86.6311C337.938 86.2723 338.088 85.9796 338.178 85.753C338.257 85.4793 338.418 85.2337 338.664 85.0164C338.909 84.7991 339.138 84.7123 339.352 84.7561C340.422 84.975 340.608 85.8602 339.912 87.4116C339.636 87.89 339.002 88.9193 338.01 90.4994C337.065 92.0669 336.318 93.4297 335.769 94.5879C335.16 95.7115 334.988 96.3895 335.252 96.6219C335.806 97.1811 337.419 96.2183 340.089 93.7335C341.607 92.4169 343.25 90.435 345.017 87.7877C346.207 86.0029 347.195 85.2578 347.982 85.5525C348.341 85.7597 348.25 86.3653 347.711 87.3693L345.484 91.2265C343.116 94.8433 341.9 97.8485 341.833 100.242C341.866 101.497 342.449 101.973 343.581 101.67C345.797 101.076 350.637 95.1787 358.1 83.9788C359.497 81.8352 360.35 80.7726 360.658 80.7911C360.967 80.8096 360.983 81.0581 360.706 81.5365C360.43 82.0149 358.986 84.1712 356.374 88.0053C350.973 95.7712 347.077 100.379 344.685 101.829Z" fill="#B39D96"/>
<path d="M369.283 94.1762C369.188 94.2014 369.169 94.1307 369.226 93.9639C369.282 93.7972 369.408 93.5108 369.602 93.1048C369.853 92.5321 370.064 91.7172 370.236 90.6602C370.255 90.3519 370.415 90.0057 370.716 89.6216C371.005 89.1904 371.329 89.0783 371.688 89.2855C372.166 89.5617 371.847 90.6331 370.729 92.4996C370.142 93.5162 369.66 94.0751 369.283 94.1762Z" fill="#B39D96"/>
<path d="M253.525 182.575L246.498 180.898L246.669 180.184L252.584 181.595L252.589 181.575L247.597 176.293L247.789 175.489L254.816 177.166L254.645 177.881L248.671 176.455L248.666 176.475L253.717 181.771L253.525 182.575Z" fill="#B39D96"/>
<path d="M256.997 173.297L250.464 170.213L251.383 168.266C251.511 167.995 251.658 167.756 251.824 167.549C251.983 167.338 252.174 167.157 252.396 167.006C252.611 166.852 252.862 166.768 253.148 166.752C253.433 166.737 253.733 166.803 254.047 166.951C254.391 167.114 254.642 167.364 254.798 167.701C254.952 168.029 254.987 168.384 254.904 168.766L254.923 168.775C255.178 168.362 255.515 168.088 255.931 167.954C256.351 167.813 256.792 167.852 257.253 168.07C257.801 168.328 258.137 168.754 258.263 169.348C258.383 169.939 258.266 170.609 257.911 171.36L256.997 173.297ZM256.738 172.363L257.322 171.126C257.569 170.604 257.668 170.124 257.618 169.687C257.569 169.25 257.329 168.929 256.898 168.726C256.474 168.526 256.086 168.519 255.734 168.707C255.382 168.894 255.078 169.258 254.823 169.8L254.182 171.156L256.738 172.363ZM253.638 170.899L254.27 169.561C254.447 169.186 254.507 168.819 254.45 168.462C254.396 168.098 254.173 167.823 253.779 167.637C253.385 167.451 253.028 167.459 252.707 167.661C252.386 167.863 252.115 168.198 251.894 168.665L251.35 169.819L253.638 170.899Z" fill="#B39D96"/>
<path d="M260.772 166.982L256.644 160.282L257.053 159.697L264.751 161.297L264.283 161.966L262.271 161.53L260.13 164.59L261.235 166.321L260.772 166.982ZM259.736 163.978L261.562 161.37L257.506 160.474L259.736 163.978Z" fill="#B39D96"/>
<path d="M267.312 159.465L262.279 154.283L262.806 153.771L264.988 156.018L267.813 153.274L265.631 151.027L266.158 150.515L271.191 155.697L270.664 156.209L268.282 153.757L265.457 156.501L267.839 158.953L267.312 159.465Z" fill="#B39D96"/>
<path d="M279.832 149.483C279.613 150.469 279.047 151.252 278.135 151.833C277.222 152.413 276.273 152.594 275.287 152.375C274.297 152.15 273.509 151.576 272.921 150.652C272.333 149.728 272.148 148.773 272.368 147.787C272.583 146.795 273.147 146.009 274.06 145.428C274.972 144.847 275.923 144.67 276.913 144.895C277.899 145.114 278.686 145.685 279.274 146.609C279.862 147.533 280.048 148.491 279.832 149.483ZM275.463 151.682C276.253 151.897 277.027 151.764 277.784 151.282C278.542 150.8 278.988 150.157 279.122 149.355C279.258 148.542 279.091 147.766 278.62 147.026C278.148 146.285 277.516 145.805 276.723 145.584C275.935 145.36 275.162 145.488 274.405 145.97C273.647 146.452 273.2 147.1 273.064 147.912C272.934 148.721 273.104 149.495 273.575 150.235C274.046 150.976 274.675 151.458 275.463 151.682Z" fill="#B39D96"/>
<path d="M284.895 148.977L282.459 142.176L284.486 141.45C284.768 141.349 285.041 141.284 285.305 141.254C285.566 141.218 285.829 141.225 286.093 141.275C286.354 141.319 286.591 141.436 286.804 141.628C287.017 141.819 287.182 142.077 287.299 142.404C287.427 142.763 287.428 143.117 287.3 143.466C287.176 143.806 286.95 144.082 286.621 144.294L286.628 144.313C287.101 144.202 287.532 144.246 287.922 144.446C288.318 144.644 288.602 144.983 288.774 145.463C288.978 146.033 288.915 146.572 288.584 147.081C288.251 147.583 287.694 147.974 286.912 148.254L284.895 148.977ZM285.373 148.133L286.661 147.672C287.205 147.477 287.614 147.208 287.888 146.864C288.163 146.52 288.22 146.124 288.059 145.676C287.901 145.234 287.631 144.955 287.25 144.839C286.868 144.722 286.396 144.765 285.832 144.967L284.42 145.473L285.373 148.133ZM284.217 144.906L285.61 144.407C286.001 144.267 286.303 144.051 286.516 143.758C286.735 143.462 286.771 143.11 286.625 142.7C286.478 142.29 286.219 142.043 285.85 141.959C285.48 141.874 285.052 141.919 284.565 142.094L283.364 142.524L284.217 144.906Z" fill="#B39D96"/>
<path d="M296.264 146.636C295.192 146.823 294.243 146.627 293.416 146.046C292.595 145.458 292.09 144.624 291.901 143.546C291.713 142.467 291.909 141.514 292.489 140.687C293.068 139.854 293.891 139.344 294.956 139.158C295.479 139.066 295.986 139.085 296.478 139.213C296.975 139.333 297.378 139.542 297.686 139.841L297.16 140.388C296.948 140.163 296.652 139.99 296.272 139.87C295.897 139.742 295.499 139.715 295.077 139.789C294.186 139.945 293.521 140.372 293.084 141.07C292.654 141.767 292.514 142.548 292.665 143.412C292.816 144.276 293.216 144.963 293.864 145.471C294.513 145.979 295.279 146.155 296.163 146.001C297.088 145.839 297.723 145.365 298.069 144.58L298.695 144.843C298.509 145.276 298.206 145.657 297.787 145.986C297.375 146.314 296.867 146.53 296.264 146.636Z" fill="#B39D96"/>
<path d="M302.969 146.556L303.22 139.336L303.954 139.361L303.841 142.604L303.852 142.605L307.401 139.481L308.451 139.518L304.697 142.665L308.404 146.744L307.323 146.707L303.847 142.737L303.837 142.737L303.703 146.581L302.969 146.556Z" fill="#B39D96"/>
<path d="M311.124 147.709L312.586 140.635L313.306 140.783L312.075 146.739L312.095 146.743L317.223 141.593L318.032 141.76L316.57 148.835L315.851 148.686L317.094 142.671L317.074 142.666L311.934 147.877L311.124 147.709Z" fill="#B39D96"/>
<path d="M320.48 150.91L323.368 144.288L324.041 144.582L321.61 150.156L321.629 150.164L327.707 146.181L328.465 146.512L325.577 153.133L324.903 152.839L327.359 147.209L327.34 147.201L321.237 151.24L320.48 150.91ZM327.263 144.852C326.928 144.958 326.57 144.928 326.189 144.762C325.809 144.596 325.54 144.353 325.383 144.032C325.235 143.708 325.223 143.353 325.346 142.969L325.813 143.073C325.753 143.329 325.776 143.565 325.882 143.782C325.997 143.995 326.173 144.154 326.41 144.257C326.646 144.36 326.879 144.38 327.107 144.316C327.344 144.249 327.536 144.107 327.683 143.889L328.077 144.161C327.879 144.512 327.608 144.743 327.263 144.852Z" fill="#B39D96"/>
<path d="M336.253 162.498L340.9 157.851L339.19 156.141L339.652 155.68L343.591 159.619L343.129 160.081L341.419 158.371L336.773 163.017L336.253 162.498Z" fill="#B39D96"/>
<path d="M340.31 167.798L346.213 163.635L348.795 167.295L348.261 167.672L346.103 164.611L344.068 166.046L346.086 168.906L345.56 169.277L343.543 166.417L341.267 168.022L343.496 171.183L342.962 171.559L340.31 167.798Z" fill="#B39D96"/>
<path d="M344.335 175.043L350.867 171.959L351.181 172.623L348.247 174.009L348.251 174.018L352.654 175.742L353.102 176.692L348.585 174.797L346.657 179.961L346.195 178.983L348.131 174.075L348.127 174.065L344.649 175.708L344.335 175.043Z" fill="#B39D96"/>
<path d="M347.75 186.021C347.457 184.973 347.559 184.009 348.055 183.129C348.559 182.253 349.338 181.669 350.393 181.374C351.448 181.08 352.415 181.18 353.295 181.676C354.182 182.17 354.771 182.938 355.061 183.98C355.204 184.491 355.236 184.998 355.157 185.5C355.087 186.007 354.918 186.428 354.652 186.764L354.055 186.295C354.258 186.062 354.401 185.75 354.483 185.36C354.573 184.974 354.56 184.575 354.445 184.163C354.202 183.291 353.711 182.672 352.973 182.306C352.237 181.947 351.447 181.885 350.602 182.121C349.756 182.357 349.113 182.823 348.672 183.518C348.23 184.213 348.13 184.993 348.371 185.858C348.624 186.762 349.158 187.348 349.974 187.614L349.774 188.263C349.324 188.12 348.915 187.857 348.547 187.472C348.18 187.094 347.914 186.611 347.75 186.021Z" fill="#B39D96"/>
<path d="M348.585 194.093L355.142 193.663L354.983 191.25L355.635 191.207L356 196.766L355.349 196.809L355.19 194.396L348.633 194.827L348.585 194.093Z" fill="#B39D96"/>
<path d="M348.138 200.966L355.32 201.744L355.24 202.475L349.195 201.819L349.192 201.84L354.81 206.451L354.721 207.273L347.539 206.494L347.618 205.764L353.724 206.426L353.727 206.405L348.049 201.788L348.138 200.966Z" fill="#B39D96"/>
<path d="M345.896 210.302C345.971 210.07 346.072 209.859 346.197 209.671L346.787 210.002C346.681 210.153 346.61 210.284 346.574 210.394C346.446 210.789 346.5 211.149 346.738 211.477C346.973 211.81 347.419 212.141 348.078 212.47C348.741 212.806 349.671 213.169 350.868 213.557L352.353 214.039L351.018 218.154L344.146 215.924L344.373 215.226L350.633 217.257L351.521 214.52L350.298 214.123C348.545 213.554 347.307 212.974 346.583 212.381C345.867 211.791 345.637 211.098 345.896 210.302Z" fill="#B39D96"/>
<path d="M341.753 219.443L348.027 223.025L347.662 223.663L344.942 222.11L344.315 223.209C343.92 223.9 343.453 224.362 342.913 224.594C342.379 224.829 341.822 224.782 341.244 224.451C340.665 224.121 340.339 223.668 340.267 223.095C340.192 222.527 340.354 221.895 340.752 221.198L341.753 219.443ZM341.938 220.395L341.341 221.44C340.707 222.551 340.795 223.337 341.604 223.799C342.006 224.029 342.396 224.059 342.773 223.891C343.148 223.729 343.489 223.379 343.796 222.842L344.393 221.796L341.938 220.395Z" fill="#B39D96"/>
<path d="M330.948 232.029L335.652 237.512L331.547 241.033L326.844 235.55L327.401 235.072L331.68 240.059L334.669 237.494L330.39 232.507L330.948 232.029Z" fill="#B39D96"/>
<path d="M322.983 237.363L326.495 243.676L324.712 244.668C324.052 245.035 323.453 245.182 322.914 245.108C322.375 245.035 321.951 244.721 321.644 244.169C321.336 243.616 321.294 243.086 321.519 242.58C321.746 242.08 322.19 241.646 322.85 241.279L323.973 240.654L322.341 237.72L322.983 237.363ZM324.276 241.198L323.188 241.803C322.689 242.081 322.363 242.391 322.21 242.732C322.052 243.077 322.077 243.437 322.286 243.811C322.706 244.566 323.43 244.658 324.458 244.085L325.546 243.48L324.276 241.198Z" fill="#B39D96"/>
<path d="M309.684 243.525C310.126 242.616 310.858 241.986 311.881 241.632C312.903 241.279 313.868 241.324 314.776 241.765C315.687 242.214 316.321 242.955 316.679 243.991C317.036 245.026 316.994 245.997 316.552 246.906C316.113 247.82 315.382 248.454 314.36 248.808C313.337 249.161 312.371 249.113 311.46 248.665C310.552 248.223 309.919 247.485 309.561 246.45C309.204 245.414 309.245 244.439 309.684 243.525ZM314.445 242.398C313.726 242.006 312.942 241.956 312.094 242.25C311.245 242.543 310.662 243.064 310.346 243.814C310.025 244.573 310.008 245.367 310.294 246.196C310.581 247.026 311.085 247.64 311.805 248.038C312.52 248.439 313.301 248.493 314.15 248.2C314.998 247.907 315.583 247.381 315.904 246.622C316.218 245.866 316.232 245.073 315.946 244.244C315.659 243.414 315.159 242.799 314.445 242.398Z" fill="#B39D96"/>
<path d="M304.873 242.819L305.679 249.998L304.949 250.08L304.271 244.037L304.25 244.039L300.974 250.526L300.153 250.618L299.347 243.439L300.077 243.358L300.762 249.462L300.783 249.459L304.052 242.911L304.873 242.819Z" fill="#B39D96"/>
<path d="M292.93 242.366C293.404 242.412 293.845 242.547 294.254 242.771C294.663 242.995 294.986 243.293 295.223 243.665L294.549 244.071C294.405 243.79 294.185 243.551 293.89 243.351C293.589 243.151 293.245 243.032 292.859 242.995C292.392 242.95 291.968 243.053 291.589 243.303C291.202 243.553 290.987 243.908 290.942 244.368C290.894 244.869 291.051 245.253 291.415 245.521C291.778 245.795 292.241 245.959 292.803 246.014L293.219 246.054L293.158 246.684L292.742 246.643C292.207 246.592 291.766 246.662 291.42 246.854C291.073 247.046 290.876 247.382 290.83 247.863C290.795 248.222 290.921 248.542 291.209 248.822C291.496 249.103 291.846 249.263 292.259 249.303C292.95 249.37 293.491 249.18 293.883 248.732L294.397 249.243C294.183 249.482 293.888 249.666 293.513 249.793C293.138 249.928 292.71 249.972 292.23 249.925C291.539 249.859 291.004 249.636 290.623 249.258C290.243 248.879 290.083 248.382 290.142 247.766C290.182 247.353 290.338 247.012 290.61 246.745C290.875 246.477 291.206 246.31 291.601 246.246L291.603 246.226C291.158 246.094 290.802 245.854 290.535 245.507C290.268 245.16 290.156 244.757 290.201 244.296C290.265 243.633 290.56 243.128 291.085 242.783C291.611 242.437 292.226 242.298 292.93 242.366Z" fill="#B39D96"/>
<path d="M286.533 241.062L284.617 248.027L282.542 247.456C282.253 247.377 281.992 247.273 281.759 247.146C281.524 247.025 281.314 246.868 281.127 246.676C280.938 246.49 280.811 246.257 280.747 245.979C280.683 245.7 280.696 245.393 280.788 245.059C280.889 244.691 281.093 244.402 281.398 244.189C281.695 243.982 282.039 243.886 282.429 243.902L282.435 243.882C281.984 243.701 281.656 243.417 281.452 243.03C281.242 242.64 281.204 242.199 281.34 241.708C281.5 241.124 281.862 240.719 282.425 240.493C282.987 240.273 283.667 240.274 284.467 240.494L286.533 241.062ZM285.657 241.477L284.339 241.115C283.781 240.961 283.292 240.946 282.87 241.07C282.448 241.194 282.173 241.485 282.047 241.944C281.923 242.397 281.983 242.78 282.228 243.095C282.473 243.409 282.884 243.646 283.461 243.804L284.908 244.202L285.657 241.477ZM284.748 244.783L283.321 244.39C282.921 244.28 282.55 244.284 282.207 244.401C281.858 244.517 281.626 244.785 281.51 245.204C281.395 245.624 281.464 245.975 281.718 246.256C281.972 246.538 282.349 246.747 282.847 246.884L284.077 247.223L284.748 244.783Z" fill="#B39D96"/>
<path d="M272.943 236.239C273.893 235.898 274.858 235.959 275.836 236.42C276.814 236.882 277.473 237.589 277.814 238.539C278.152 239.496 278.087 240.47 277.62 241.46C277.152 242.451 276.443 243.116 275.492 243.457C274.539 243.804 273.573 243.747 272.595 243.285C271.617 242.823 270.959 242.114 270.621 241.157C270.28 240.206 270.343 239.236 270.811 238.245C271.278 237.255 271.989 236.586 272.943 236.239ZM277.135 238.76C276.895 237.977 276.369 237.394 275.557 237.011C274.745 236.628 273.964 236.593 273.213 236.909C272.454 237.227 271.886 237.783 271.512 238.576C271.137 239.37 271.068 240.161 271.305 240.95C271.536 241.736 272.057 242.32 272.869 242.704C273.681 243.087 274.467 243.12 275.226 242.801C275.98 242.48 276.544 241.923 276.919 241.129C277.293 240.336 277.365 239.546 277.135 238.76Z" fill="#B39D96"/>
<path d="M271.633 231.406L270.14 233.322L269.682 232.964C268.477 233.138 267.2 234.092 265.85 235.825L264.646 237.371L261.144 234.644L265.182 229.46L264.538 228.958L266.03 227.042L266.577 227.468L265.487 228.869L269.994 232.38L271.085 230.98L271.633 231.406ZM268.949 232.394L265.761 229.911L262.125 234.58L264.484 236.417L265.286 235.387C266.594 233.707 267.815 232.709 268.949 232.394Z" fill="#B39D96"/>
<path d="M260.859 222.671C261.565 223.499 261.877 224.417 261.797 225.424C261.706 226.43 261.244 227.288 260.411 227.998C259.577 228.708 258.656 229.023 257.65 228.942C256.638 228.866 255.781 228.416 255.08 227.593C254.736 227.189 254.494 226.742 254.355 226.253C254.206 225.764 254.182 225.311 254.283 224.894L255.021 225.069C254.935 225.366 254.936 225.709 255.026 226.097C255.106 226.485 255.285 226.842 255.562 227.168C256.149 227.857 256.854 228.212 257.677 228.235C258.496 228.252 259.24 227.977 259.908 227.408C260.576 226.839 260.964 226.146 261.073 225.33C261.182 224.513 260.945 223.763 260.363 223.08C259.755 222.365 259.024 222.058 258.171 222.158L258.081 221.485C258.549 221.426 259.031 221.494 259.526 221.688C260.018 221.877 260.462 222.205 260.859 222.671Z" fill="#B39D96"/>
<path d="M256.675 215.696L250.91 218.848L252.07 220.97L251.497 221.283L248.824 216.395L249.397 216.082L250.558 218.204L256.323 215.051L256.675 215.696Z" fill="#B39D96"/>
<path d="M254.261 209.483L247.424 211.816L246.729 209.779C246.632 209.496 246.571 209.222 246.545 208.957C246.513 208.695 246.524 208.433 246.578 208.17C246.626 207.909 246.747 207.674 246.941 207.464C247.136 207.254 247.397 207.093 247.725 206.981C248.086 206.858 248.44 206.863 248.787 206.996C249.125 207.124 249.398 207.355 249.605 207.687L249.624 207.68C249.52 207.206 249.57 206.775 249.776 206.388C249.98 205.996 250.323 205.717 250.806 205.552C251.379 205.356 251.917 205.428 252.421 205.766C252.918 206.107 253.301 206.67 253.569 207.455L254.261 209.483ZM253.425 208.992L252.983 207.698C252.797 207.151 252.533 206.738 252.194 206.458C251.854 206.179 251.459 206.116 251.008 206.27C250.564 206.422 250.281 206.687 250.159 207.067C250.037 207.446 250.072 207.919 250.266 208.486L250.75 209.905L253.425 208.992ZM250.18 210.099L249.702 208.699C249.568 208.307 249.356 208.002 249.067 207.784C248.775 207.56 248.423 207.519 248.011 207.659C247.599 207.8 247.348 208.055 247.258 208.423C247.168 208.792 247.207 209.22 247.374 209.71L247.785 210.917L250.18 210.099Z" fill="#B39D96"/>
<path d="M250.607 195.626C251.425 196.219 251.919 197.05 252.089 198.118C252.259 199.186 252.047 200.129 251.454 200.946C250.855 201.765 250.014 202.26 248.932 202.433C247.851 202.605 246.901 202.394 246.084 201.801C245.259 201.209 244.762 200.379 244.592 199.311C244.422 198.243 244.637 197.3 245.237 196.481C245.83 195.663 246.667 195.168 247.749 194.996C248.83 194.824 249.783 195.034 250.607 195.626ZM250.889 200.509C251.4 199.87 251.585 199.107 251.444 198.22C251.303 197.334 250.891 196.669 250.207 196.227C249.516 195.779 248.737 195.624 247.87 195.762C247.004 195.9 246.312 196.289 245.794 196.929C245.275 197.563 245.086 198.323 245.227 199.21C245.368 200.097 245.784 200.764 246.475 201.212C247.165 201.653 247.944 201.805 248.81 201.667C249.677 201.529 250.37 201.143 250.889 200.509Z" fill="#B39D96"/>
<path d="M275.878 186.678C274.028 187.133 272.475 186.938 271.217 186.092C270.436 185.554 269.975 184.777 269.835 183.763C269.692 182.74 269.918 181.83 270.513 181.034C271.436 179.836 272.869 178.881 274.811 178.168C275.169 178.032 275.541 177.912 275.928 177.809C276.314 177.705 276.657 177.623 276.954 177.564C277.261 177.502 277.646 177.449 278.11 177.406C278.573 177.363 278.925 177.334 279.164 177.321C279.41 177.295 279.799 177.277 280.332 177.265C280.874 177.252 281.236 177.245 281.419 177.247C281.611 177.246 282.002 177.253 282.592 177.267C283.179 177.271 283.549 177.273 283.7 177.273L284.237 177.296C284.32 177.001 284.423 176.629 284.545 176.182C284.678 175.732 284.778 175.407 284.845 175.207C285.385 173.525 285.843 172.291 286.218 171.502C285.847 171.663 285.412 171.815 284.915 171.958C283.585 172.314 282.293 172.529 281.039 172.602C279.784 172.676 278.196 172.692 276.274 172.65C274.651 172.63 272.999 172.765 271.317 173.054C269.163 173.429 267.199 174.117 265.425 175.118C263.642 176.121 262.389 177.483 261.667 179.203C261.418 179.745 261.32 180.343 261.374 180.995C261.385 181.265 261.432 181.551 261.513 181.853C261.523 181.891 261.546 181.96 261.584 182.061C261.618 182.153 261.641 182.218 261.651 182.256C261.666 182.312 261.706 182.388 261.772 182.481C261.835 182.565 261.871 182.626 261.882 182.664C261.821 182.741 261.748 182.75 261.662 182.693C261.564 182.628 261.482 182.513 261.418 182.349C261.354 182.184 261.301 182.046 261.262 181.935C261.219 181.815 261.188 181.718 261.168 181.642C260.822 179.976 261.496 178.283 263.19 176.566C264.266 175.489 265.82 174.552 267.85 173.755C268.392 173.549 268.939 173.367 269.493 173.209C270.038 173.053 270.612 172.929 271.214 172.839C271.826 172.745 272.369 172.676 272.842 172.63C273.312 172.575 273.9 172.544 274.606 172.536C275.319 172.517 275.866 172.502 276.247 172.491C276.628 172.48 277.225 172.482 278.038 172.496C278.848 172.502 279.419 172.5 279.75 172.493C281.231 172.47 282.825 172.25 284.533 171.833L286.369 171.159C286.503 170.981 286.632 170.8 286.754 170.616C287.615 169.263 288.609 168.067 289.736 167.027C290.869 165.975 291.974 165.305 293.049 165.017C293.661 164.812 293.965 164.928 293.961 165.364C293.91 165.853 293.672 166.361 293.247 166.889C292.789 167.406 292.249 167.935 291.625 168.477C291.175 168.87 290.217 169.521 288.752 170.429L287.173 171.216L286.826 171.901C286.32 173.108 285.936 174.298 285.674 175.47L285.148 177.355C285.333 177.366 285.801 177.377 286.552 177.388C288.454 177.394 289.717 177.314 290.339 177.147C291.83 176.747 292.777 176.266 293.182 175.703C293.224 175.631 293.263 175.59 293.301 175.58C293.49 175.529 293.48 175.643 293.271 175.921C293.165 176.051 293.04 176.17 292.897 176.279C291.589 177.206 289.794 177.642 287.515 177.585C285.868 177.551 285.03 177.594 285.001 177.713C284.277 179.878 283.094 181.783 281.452 183.426C279.807 185.059 277.949 186.144 275.878 186.678ZM287.267 170.888C287.991 170.573 288.479 170.336 288.73 170.178C289.745 169.552 290.513 169.042 291.035 168.65C291.554 168.248 292.15 167.679 292.822 166.943C293.127 166.608 293.366 166.276 293.541 165.946C293.722 165.605 293.757 165.378 293.646 165.266C293.479 165.169 293.083 165.275 292.458 165.584C291.842 165.891 291.349 166.2 290.978 166.512C289.896 167.418 288.845 168.61 287.826 170.086L287.267 170.888ZM277.529 185.766C278.969 185.026 280.217 184.08 281.273 182.928C281.917 182.239 282.446 181.496 282.859 180.698C283.279 179.888 283.707 178.843 284.142 177.564L283.744 177.549L283.086 177.528C280.825 177.427 278.973 177.478 277.532 177.682C274.755 178.072 272.597 179.095 271.059 180.751C270.508 181.333 270.167 181.986 270.037 182.708C269.898 183.433 270.01 184.136 270.375 184.817C270.791 185.615 271.448 186.162 272.346 186.457C273.241 186.743 274.127 186.784 275.002 186.579C275.887 186.373 276.729 186.101 277.529 185.766Z" fill="#B39D96"/>
<path d="M295.066 178.489C294.677 178.734 294.391 178.74 294.207 178.507C294.058 178.253 293.98 177.981 293.973 177.69C293.963 177.389 293.998 177.142 294.078 176.949C293.811 177.273 293.621 177.471 293.508 177.541C293.265 177.728 293.06 177.813 292.894 177.797C292.728 177.781 292.622 177.667 292.576 177.457C292.527 177.238 292.537 176.993 292.606 176.721C292.811 176.09 293.223 175.535 293.843 175.055C294.392 174.615 294.758 174.547 294.941 174.852C295.075 175.049 295.085 175.274 294.97 175.527C294.944 175.655 294.945 175.751 294.972 175.815C295.011 175.885 294.98 176.035 294.88 176.264C294.838 176.336 294.782 176.447 294.711 176.597C294.647 176.736 294.591 176.867 294.544 176.991C294.494 177.105 294.453 177.217 294.421 177.327C294.256 178.18 294.331 178.574 294.647 178.51C294.912 178.479 295.376 178.042 296.04 177.197C296.469 176.647 296.947 175.922 297.474 175.023L297.74 174.542C297.846 174.412 297.917 174.393 297.952 174.485C297.957 174.504 297.913 174.587 297.821 174.733L296.998 176.075C296.71 176.547 296.423 176.968 296.138 177.337C295.71 177.927 295.352 178.311 295.066 178.489ZM292.976 177.593C293.01 177.644 293.166 177.583 293.442 177.407C293.475 177.378 293.611 177.226 293.85 176.949C293.864 176.925 294.013 176.708 294.298 176.299C294.325 176.251 294.403 176.144 294.53 175.978C294.665 175.801 294.748 175.657 294.779 175.548C294.945 175.149 294.914 174.92 294.686 174.86C294.59 174.805 294.395 174.928 294.102 175.229C293.773 175.549 293.472 175.989 293.197 176.548C292.929 177.095 292.855 177.443 292.976 177.593Z" fill="#B39D96"/>
<path d="M297.424 176.704C297.282 176.702 297.211 176.514 297.212 176.139C297.229 175.902 297.356 175.489 297.593 174.9C297.829 174.311 298.07 173.852 298.316 173.523C298.516 173.176 298.681 173.056 298.811 173.163C298.888 173.224 298.75 173.634 298.398 174.396C298.149 174.938 298.016 175.252 297.998 175.337L298.047 175.294C298.08 175.265 298.131 175.211 298.201 175.131C298.27 175.052 298.338 174.983 298.403 174.925C299.007 174.309 299.415 174.002 299.628 174.006C299.922 174.008 299.904 174.377 299.576 175.112C299.534 175.184 299.474 175.301 299.397 175.463C299.31 175.668 299.238 175.834 299.181 175.961C298.968 176.412 298.837 176.771 298.787 177.037C298.735 177.293 298.787 177.451 298.944 177.51C299.252 177.488 299.946 176.721 301.027 175.208C301.142 175.036 301.251 174.875 301.353 174.727C301.461 174.566 301.608 174.36 301.794 174.108C301.976 173.847 302.163 173.579 302.352 173.306C302.38 173.258 302.422 173.227 302.479 173.212L302.529 173.229C302.547 173.224 302.559 173.23 302.564 173.249C302.57 173.268 302.565 173.29 302.551 173.314L302.496 173.389L301.937 174.191C301.918 174.196 301.793 174.371 301.562 174.716C301.338 175.049 301.126 175.353 300.927 175.629C300.726 175.895 300.489 176.201 300.218 176.547C299.956 176.89 299.709 177.159 299.478 177.352C299.247 177.545 299.06 177.641 298.918 177.639C298.388 177.659 298.336 177.107 298.762 175.982C298.96 175.474 299.189 175.028 299.45 174.645C299.636 174.393 299.651 174.262 299.497 174.253C299.417 174.255 299.327 174.299 299.229 174.386C298.844 174.721 298.469 175.115 298.105 175.566C297.738 176.009 297.567 176.312 297.591 176.478C297.608 176.655 297.553 176.731 297.424 176.704Z" fill="#B39D96"/>
<path d="M303.792 178.85C303.445 178.65 303.238 178.271 303.169 177.713C303.097 177.065 303.116 176.438 303.226 175.832L303.456 174.936L303.75 173.993L303.452 174.467C303.438 174.491 303.402 174.546 303.345 174.633C303.294 174.707 303.236 174.793 303.171 174.891C303.107 174.99 303.051 175.065 303.005 175.118C302.705 175.471 302.411 175.621 302.124 175.566C301.853 175.497 301.746 175.177 301.806 174.605C301.886 174.149 302.117 173.617 302.5 173.009C302.89 172.389 303.299 171.991 303.727 171.816C303.991 171.705 304.199 171.709 304.353 171.83C304.401 171.858 304.436 171.914 304.459 171.999L304.902 171.106C305.879 169.207 306.589 167.914 307.033 167.23C307.831 165.944 308.578 164.864 309.274 163.99C310.234 162.783 310.993 161.937 311.551 161.454C311.789 161.249 312.024 161.181 312.255 161.25C312.483 161.31 312.612 161.468 312.64 161.724C312.671 162.069 312.528 162.572 312.21 163.234C311.245 165.292 309.769 167.482 307.783 169.804C306.71 171.042 305.861 171.931 305.238 172.472L304.741 172.939C304.643 173.026 304.556 173.155 304.481 173.327C304.403 173.49 304.345 173.632 304.307 173.753C304.276 173.863 304.233 174.025 304.18 174.242C304.124 174.449 304.085 174.586 304.063 174.653C303.796 175.432 303.627 176.119 303.554 176.715C303.452 177.733 303.573 178.373 303.916 178.635C304.046 178.741 304.191 178.753 304.351 178.67C304.529 178.582 304.766 178.372 305.061 178.04C305.303 177.773 305.522 177.477 305.718 177.151C306.207 176.484 306.662 175.826 307.085 175.177C307.582 174.468 308.119 173.642 308.695 172.698L309.491 171.424C309.588 171.256 309.656 171.228 309.696 171.339C309.701 171.357 309.698 171.383 309.686 171.417C309.675 171.45 309.658 171.48 309.635 171.507C309.611 171.533 309.602 171.556 309.607 171.575L308.901 172.674L308.262 173.74C307.913 174.288 307.308 175.163 306.447 176.364C306.373 176.465 306.221 176.688 305.99 177.033C305.758 177.378 305.554 177.67 305.375 177.91C305.204 178.138 305.018 178.35 304.817 178.545C304.452 178.916 304.11 179.018 303.792 178.85ZM304.688 172.741L305.272 172.205C305.75 171.764 306.183 171.34 306.569 170.933C308.505 168.877 310.125 166.694 311.426 164.384C311.751 163.822 312.012 163.287 312.21 162.779C312.486 162.189 312.555 161.787 312.417 161.571C312.311 161.478 312.192 161.449 312.06 161.485C311.937 161.517 311.771 161.633 311.561 161.831C311.361 162.026 311.184 162.215 311.031 162.397C310.884 162.568 310.733 162.76 310.578 162.973C310.43 163.175 310.349 163.288 310.335 163.312C309.292 164.663 308.544 165.702 308.092 166.43C307.451 167.431 306.981 168.189 306.684 168.703C306.484 169.05 306.192 169.583 305.809 170.302C305.472 170.969 305.222 171.471 305.059 171.807L304.688 172.741ZM302.617 175.313C302.804 175.142 303.108 174.731 303.531 174.082C303.884 173.553 304.136 172.985 304.287 172.378C304.314 172.25 304.307 172.15 304.268 172.08C304.2 171.977 304.103 171.953 303.976 172.007C303.726 172.094 303.434 172.4 303.099 172.924C302.903 173.209 302.711 173.569 302.524 174.003C302.432 174.19 302.344 174.481 302.258 174.878C302.254 174.94 302.253 175.011 302.254 175.092C302.253 175.163 302.263 175.236 302.283 175.311C302.303 175.387 302.339 175.428 302.392 175.434C302.444 175.44 302.519 175.4 302.617 175.313Z" fill="#B39D96"/>
<path d="M310.084 174.768C310.567 174.345 310.985 173.905 311.337 173.446C311.697 172.976 312.292 172.104 313.123 170.83L313.403 170.345C313.51 170.215 313.576 170.198 313.601 170.292C313.606 170.311 313.567 170.392 313.484 170.536C313.429 170.631 313.341 170.776 313.221 170.97C313.108 171.152 313.002 171.322 312.903 171.48C312.811 171.626 312.721 171.761 312.633 171.886C311.669 173.307 310.923 174.26 310.396 174.745C309.764 175.329 309.306 175.411 309.022 174.992C308.737 174.532 308.907 173.734 309.532 172.596C309.815 172.105 309.959 171.829 309.962 171.768C309.942 171.692 309.914 171.624 309.877 171.563C309.795 171.484 309.735 171.449 309.698 171.459C309.684 171.483 309.665 171.508 309.642 171.535C309.619 171.561 309.6 171.586 309.587 171.61L309.465 171.552C309.46 171.533 309.488 171.47 309.55 171.362C309.622 171.252 309.644 171.145 309.616 171.041C309.548 170.938 309.552 170.877 309.627 170.856C309.711 170.793 309.78 170.785 309.833 170.832C309.886 170.878 309.941 170.97 309.997 171.106C310.047 171.214 310.136 171.377 310.265 171.595C310.338 171.717 310.358 171.828 310.324 171.928C310.299 172.026 310.199 172.235 310.022 172.555C309.429 173.664 309.202 174.438 309.34 174.876C309.418 175.169 309.666 175.133 310.084 174.768Z" fill="#B39D96"/>
<path d="M315.328 173.059C314.939 173.305 314.653 173.311 314.469 173.078C314.32 172.824 314.242 172.552 314.235 172.261C314.225 171.96 314.26 171.713 314.339 171.52C314.072 171.844 313.883 172.042 313.77 172.112C313.527 172.299 313.322 172.384 313.156 172.368C312.99 172.351 312.884 172.238 312.838 172.028C312.789 171.809 312.799 171.563 312.868 171.292C313.073 170.661 313.485 170.106 314.105 169.626C314.654 169.186 315.02 169.118 315.203 169.423C315.337 169.62 315.346 169.845 315.232 170.098C315.206 170.226 315.206 170.322 315.233 170.385C315.273 170.456 315.242 170.606 315.142 170.835C315.1 170.906 315.044 171.018 314.973 171.168C314.909 171.306 314.853 171.438 314.806 171.562C314.755 171.676 314.715 171.788 314.683 171.898C314.518 172.751 314.593 173.145 314.909 173.081C315.174 173.05 315.638 172.612 316.301 171.767C316.73 171.218 317.209 170.493 317.736 169.594L318.001 169.113C318.108 168.983 318.179 168.964 318.214 169.056C318.219 169.075 318.175 169.157 318.083 169.304L317.26 170.646C316.971 171.118 316.685 171.538 316.4 171.908C315.971 172.498 315.614 172.882 315.328 173.059ZM313.238 172.164C313.272 172.215 313.427 172.153 313.704 171.978C313.737 171.949 313.873 171.797 314.112 171.52C314.126 171.496 314.275 171.279 314.559 170.869C314.587 170.822 314.665 170.715 314.792 170.549C314.926 170.372 315.009 170.228 315.041 170.119C315.207 169.72 315.176 169.491 314.947 169.431C314.852 169.376 314.657 169.499 314.364 169.8C314.035 170.12 313.733 170.56 313.458 171.119C313.191 171.666 313.117 172.014 313.238 172.164Z" fill="#B39D96"/>
<path d="M301.852 203.359C301.135 203.551 300.431 203.583 299.739 203.455C298.691 203.241 297.941 202.668 297.489 201.738C297.035 200.798 296.875 199.688 297.007 198.409C297.149 197.128 297.521 195.8 298.123 194.425C296.916 195.163 296.162 195.633 295.862 195.835C295.671 195.987 295.264 196.243 294.642 196.601C294.501 196.679 294.302 196.991 294.043 197.535C293.531 198.795 292.865 200.045 292.045 201.286C291.235 202.524 290.423 203.55 289.61 204.365C288.558 205.455 287.6 206.106 286.736 206.317C286.411 206.425 286.146 206.415 285.94 206.288C285.731 206.152 285.643 205.918 285.676 205.586C285.763 204.592 286.331 203.428 287.379 202.096C288.425 200.754 289.559 199.647 290.781 198.773L292.603 197.481C292.936 197.251 293.147 197.078 293.238 196.963C293.335 196.835 293.431 196.648 293.527 196.4C294.486 193.868 295.168 192.169 295.573 191.302C295.987 190.433 296.499 189.628 297.11 188.888L297.489 188.377L296.507 188.731C295.875 188.941 295.239 189.112 294.597 189.243C294.016 189.379 293.055 189.545 291.713 189.743C290.304 189.959 289.273 190.129 288.619 190.253C283.735 191.269 280.337 192.999 278.423 195.442C277.472 196.607 276.883 197.958 276.658 199.494C276.567 200.55 276.674 201.421 276.979 202.108C277.157 202.394 277.324 202.546 277.481 202.565C277.34 202.643 277.199 202.625 277.057 202.511C276.975 202.432 276.898 202.332 276.824 202.21C276.097 200.666 276.25 198.876 277.281 196.84C278.694 194.076 281.517 192.065 285.75 190.81C287.363 190.337 289.456 189.923 292.029 189.567C293.994 189.314 295.671 188.915 297.062 188.37C297.528 188.185 297.859 187.949 298.056 187.664C298.485 187.115 298.979 186.618 299.537 186.175C300.227 185.657 300.688 185.432 300.919 185.502C301.171 185.576 301.201 185.78 301.007 186.115C300.814 186.45 300.598 186.72 300.36 186.926C299.986 187.228 299.441 187.551 298.724 187.895L297.884 188.211L297.506 188.782C296.722 190.044 296.143 191.24 295.768 192.372C295.588 192.794 295.315 193.585 294.949 194.745C294.589 195.893 294.428 196.462 294.466 196.452C295.692 195.708 296.725 195.073 297.564 194.545C297.986 194.27 298.257 194.076 298.378 193.962C298.507 193.837 298.715 193.539 299.003 193.067C299.746 191.918 300.525 190.936 301.338 190.121C302.158 189.295 302.829 188.933 303.352 189.036C304.006 189.174 303.645 189.902 302.269 191.221C301.96 191.537 301.441 191.959 300.713 192.488C299.771 193.235 299.272 193.657 299.217 193.753C299.203 193.777 299.142 193.869 299.033 194.03C298.932 194.178 298.835 194.346 298.743 194.532C298.044 195.771 297.624 197.107 297.482 198.54C297.414 199.155 297.428 199.773 297.524 200.394C297.617 201.006 297.835 201.594 298.179 202.16C298.529 202.713 298.996 203.078 299.579 203.255C300.599 203.437 301.549 203.36 302.429 203.023C303.316 202.674 304.156 202.166 304.947 201.498L305.103 201.457C305.156 201.503 305.102 201.584 304.94 201.698C303.909 202.53 302.88 203.084 301.852 203.359ZM298.072 188.009C298.595 187.808 299.05 187.6 299.437 187.385C299.742 187.202 300.079 186.95 300.447 186.629C300.765 186.342 300.942 186.077 300.978 185.835C301.018 185.683 300.928 185.631 300.709 185.68C300.397 185.763 299.916 186.079 299.264 186.628C299.134 186.744 298.968 186.919 298.769 187.155C298.566 187.381 298.398 187.583 298.263 187.76L298.072 188.009ZM299.439 193.223C300.203 192.604 300.781 192.136 301.171 191.819C301.568 191.49 302.003 191.116 302.477 190.695C302.949 190.266 303.24 189.94 303.353 189.718C303.472 189.484 303.441 189.33 303.26 189.257C302.723 189.027 301.689 189.997 300.157 192.166C300.069 192.291 300.011 192.377 299.984 192.425C299.602 192.962 299.42 193.228 299.439 193.223ZM286.513 206.165C287.189 206.045 287.947 205.573 288.788 204.752C289.637 203.918 290.349 203.029 290.925 202.086C291.315 201.466 291.728 200.703 292.162 199.798C292.604 198.881 292.878 198.242 292.983 197.88L293.191 197.354C292.689 197.63 292.219 197.933 291.781 198.263C290.736 199.079 289.724 199.961 288.745 200.911C287.946 201.702 287.27 202.555 286.717 203.472C286.164 204.388 285.898 205.132 285.919 205.702C285.937 206.072 286.135 206.226 286.513 206.165Z" fill="#B39D96"/>
<path d="M304.358 195.393C304.418 195.316 304.456 195.306 304.471 195.363C304.486 195.419 304.48 195.472 304.452 195.52C304.281 195.747 304.151 195.904 304.062 195.988C303.701 196.338 303.25 196.484 302.709 196.427C302.654 196.674 302.59 196.888 302.517 197.069C302.41 197.351 302.228 197.688 301.969 198.081C301.637 198.463 301.395 198.674 301.244 198.715C301 198.821 300.817 198.763 300.698 198.543C300.587 198.279 300.698 197.809 301.033 197.133C301.358 196.46 301.634 196.093 301.86 196.032C301.935 196.012 302.005 196.044 302.068 196.128C302.039 196.096 302.012 196.032 301.986 195.938C301.951 195.806 301.962 195.676 302.019 195.55C302.1 195.326 302.229 195.241 302.405 195.295C302.629 195.376 302.726 195.699 302.695 196.263C303.042 196.312 303.361 196.257 303.652 196.098C303.871 196.009 304.106 195.774 304.358 195.393ZM302.539 196.245C302.552 196.221 302.559 196.189 302.558 196.148C302.558 196.108 302.558 196.073 302.56 196.042C302.562 196.011 302.561 195.971 302.558 195.921C302.555 195.871 302.547 195.823 302.534 195.776C302.519 195.719 302.505 195.667 302.493 195.62C302.48 195.573 302.459 195.533 302.43 195.5C302.352 195.359 302.274 195.37 302.196 195.533C302.15 195.586 302.127 195.652 302.129 195.733C302.141 195.932 302.199 196.073 302.303 196.156C302.374 196.198 302.432 196.223 302.474 196.232L302.539 196.245ZM301.784 198.069C302.12 197.626 302.365 197.07 302.52 196.401L302.356 196.354C302.27 196.337 302.194 196.297 302.126 196.234L301.896 196.508C301.72 196.717 301.553 196.979 301.394 197.294C300.979 198.235 300.918 198.666 301.21 198.587C301.224 198.563 301.25 198.546 301.287 198.536C301.433 198.477 301.599 198.321 301.784 198.069Z" fill="#B39D96"/>
<path d="M306.802 198.742C306.686 198.611 306.667 198.369 306.744 198.014C306.901 197.356 307.344 196.388 308.073 195.11C308.315 194.692 308.419 194.457 308.385 194.405C308.327 194.34 308.144 194.45 307.836 194.734C307.526 195.009 307.243 195.293 306.987 195.584C306.631 195.952 306.351 196.34 306.147 196.749C306.022 196.964 305.947 196.984 305.92 196.81C305.866 196.531 305.939 196.218 306.139 195.871C306.175 195.781 306.288 195.559 306.476 195.205C306.671 194.839 306.846 194.509 306.999 194.215C307.163 193.919 307.249 193.749 307.257 193.706C307.275 193.621 307.277 193.554 307.265 193.507C307.252 193.46 307.21 193.456 307.14 193.495C306.774 193.674 306.264 194.205 305.611 195.088C304.955 195.961 304.525 196.678 304.321 197.238C304.252 197.358 304.232 197.434 304.261 197.466C304.271 197.504 304.244 197.552 304.178 197.61C304.118 197.687 304.058 197.708 303.998 197.673C303.929 197.641 303.865 197.552 303.805 197.407C303.61 196.903 303.856 196.048 304.544 194.843C304.882 194.257 305.147 193.888 305.339 193.735C305.442 193.667 305.535 193.617 305.617 193.585C305.717 193.578 305.774 193.624 305.79 193.72C305.803 193.808 305.768 193.883 305.684 193.946C305.567 194.038 305.362 194.33 305.07 194.823C304.648 195.553 304.378 196.091 304.258 196.436L304.104 197.22C304.182 197.058 304.288 196.868 304.422 196.65C305.021 195.64 305.595 194.824 306.146 194.201C306.52 193.747 306.886 193.452 307.244 193.316C307.333 193.272 307.401 193.279 307.447 193.337C307.502 193.393 307.536 193.465 307.55 193.552C307.563 193.64 307.56 193.721 307.54 193.798C307.518 193.945 307.353 194.348 307.045 195.007L306.781 195.608C307.703 194.633 308.268 194.194 308.475 194.29C308.518 194.299 308.554 194.319 308.583 194.352C308.685 194.507 308.594 194.829 308.311 195.32L307.761 196.377L307.617 196.689C307.506 196.88 307.413 197.062 307.338 197.233C307.26 197.396 307.17 197.607 307.068 197.867C306.973 198.115 306.929 198.293 306.938 198.402C306.945 198.501 306.979 198.593 307.042 198.677C307.314 198.746 307.961 198.067 308.984 196.641C309.301 196.202 309.713 195.551 310.219 194.687L310.777 193.825C310.805 193.777 310.828 193.751 310.847 193.746C310.903 193.73 310.937 193.742 310.947 193.779C310.971 193.793 310.969 193.824 310.941 193.872C310.853 193.996 310.674 194.272 310.404 194.698C310.134 195.124 309.923 195.449 309.771 195.672C309.277 196.471 308.832 197.131 308.436 197.652C307.624 198.658 307.079 199.022 306.802 198.742Z" fill="#B39D96"/>
<path d="M311.539 196.047C311.022 196.418 310.621 196.47 310.337 196.202C310.165 196.087 310.061 195.887 310.025 195.603C310.005 195.376 310.093 195.044 310.289 194.608L310.444 194.278C310.62 193.918 310.799 193.622 310.979 193.391C311.417 192.799 311.771 192.497 312.041 192.485C312.25 192.51 312.355 192.659 312.357 192.931C312.36 193.204 312.275 193.474 312.105 193.742C311.691 194.348 311.217 194.713 310.684 194.836C310.646 194.846 310.596 194.96 310.533 195.179C310.459 195.391 310.428 195.561 310.442 195.689C310.484 196.072 310.616 196.244 310.838 196.205C311.273 196.128 311.922 195.57 312.786 194.53C313.336 193.867 313.714 193.351 313.918 192.983C314.025 192.853 314.091 192.836 314.116 192.93C314.121 192.949 314.082 193.03 314 193.174L313.565 193.76C313.464 193.909 313.289 194.143 313.041 194.462C312.906 194.639 312.654 194.924 312.284 195.317C311.923 195.707 311.675 195.95 311.539 196.047ZM310.738 194.7C310.998 194.65 311.238 194.525 311.457 194.325C312.028 193.737 312.287 193.253 312.236 192.873C312.229 192.774 312.179 192.736 312.085 192.762C311.963 192.835 311.78 193.02 311.536 193.318C311.29 193.607 311.116 193.865 311.016 194.094L310.738 194.7Z" fill="#B39D96"/>
<path d="M289.439 229.082C290.474 228.946 291.642 228.325 292.943 227.218C293.94 226.375 294.803 225.067 295.531 223.294C295.906 222.466 296.371 221.315 296.927 219.842C297.074 219.449 297.304 218.78 297.618 217.837C297.941 216.891 298.206 216.148 298.415 215.606C298.633 215.063 298.921 214.419 299.278 213.677C299.642 212.922 300.06 212.274 300.532 211.733C301.013 211.19 301.561 210.725 302.175 210.338C301.06 210.515 299.425 210.604 297.272 210.605C295.126 210.594 293.694 210.608 292.977 210.649C289.546 210.901 286.542 211.781 283.964 213.291C282.982 213.888 282.189 214.722 281.586 215.794C281.3 216.346 281.158 216.929 281.161 217.545C281.162 218.152 281.322 218.71 281.641 219.222C281.393 219.166 281.225 218.974 281.137 218.644C280.898 217.98 280.878 217.282 281.077 216.552C281.273 215.812 281.628 215.156 282.142 214.583C282.913 213.689 284.129 212.908 285.791 212.241L286.433 211.978C288.893 211.045 291.366 210.524 293.854 210.414C294.531 210.374 295.539 210.362 296.877 210.377C298.226 210.39 299.239 210.381 299.919 210.351C302.25 210.262 304.18 209.785 305.708 208.921C305.62 209.045 305.52 209.163 305.408 209.274C305.294 209.375 305.146 209.466 304.965 209.544C304.793 209.621 304.653 209.684 304.545 209.733C304.447 209.779 304.27 209.837 304.015 209.905C303.77 209.971 303.619 210.011 303.562 210.026C302.539 210.321 301.685 210.888 301.001 211.729C300.586 212.255 300.206 212.877 299.863 213.596C299.527 214.303 299.274 214.926 299.106 215.467C298.947 216.005 298.738 216.718 298.481 217.606C298.223 218.494 298.026 219.153 297.889 219.584C297.221 221.735 296.488 223.412 295.689 224.617C294.712 226.143 293.444 227.352 291.884 228.245C289.897 229.394 288.314 229.581 287.135 228.805C287.016 228.736 286.958 228.69 286.962 228.669C286.961 228.588 287.061 228.602 287.262 228.71C287.867 229.043 288.592 229.167 289.439 229.082Z" fill="#B39D96"/>
<path d="M301.344 221.555C300.826 221.926 300.426 221.978 300.142 221.71C299.969 221.595 299.865 221.395 299.83 221.111C299.809 220.884 299.897 220.552 300.094 220.116L300.248 219.786C300.424 219.425 300.603 219.13 300.784 218.899C301.222 218.307 301.575 218.005 301.845 217.993C302.054 218.018 302.16 218.167 302.162 218.439C302.164 218.712 302.08 218.982 301.909 219.25C301.495 219.856 301.022 220.221 300.488 220.344C300.451 220.354 300.4 220.468 300.338 220.687C300.263 220.899 300.233 221.069 300.247 221.197C300.289 221.58 300.421 221.752 300.643 221.712C301.077 221.636 301.727 221.078 302.59 220.038C303.14 219.375 303.518 218.859 303.723 218.491C303.829 218.361 303.895 218.344 303.921 218.438C303.926 218.457 303.887 218.538 303.804 218.682L303.37 219.268C303.268 219.417 303.093 219.651 302.845 219.97C302.711 220.147 302.458 220.432 302.088 220.825C301.728 221.215 301.479 221.458 301.344 221.555ZM300.543 220.208C300.803 220.158 301.042 220.033 301.261 219.833C301.832 219.245 302.091 218.761 302.04 218.381C302.034 218.282 301.983 218.244 301.889 218.27C301.767 218.343 301.584 218.528 301.34 218.826C301.094 219.115 300.921 219.373 300.82 219.602L300.543 220.208Z" fill="#B39D96"/>
<path d="M302.244 222.087C302.189 222.183 302.155 222.207 302.143 222.16C302.13 222.113 302.139 222.034 302.171 221.925C302.188 221.839 302.424 221.382 302.88 220.552C302.962 220.409 303.055 220.262 303.156 220.114C303.246 219.958 303.313 219.849 303.357 219.787C303.392 219.727 303.432 219.651 303.478 219.558C303.521 219.455 303.539 219.354 303.533 219.255C303.526 219.155 303.521 219.02 303.515 218.85C303.487 218.443 303.461 218.268 303.436 218.325C303.417 218.33 303.414 218.301 303.427 218.237C303.438 218.163 303.449 218.074 303.462 217.97C303.594 217.52 303.715 217.386 303.824 217.569C303.874 217.677 303.909 217.885 303.931 218.193L303.96 218.867C304.016 218.852 304.176 218.673 304.438 218.33C304.633 218.116 304.739 218.001 304.755 217.987C304.781 217.97 304.822 217.974 304.88 217.999L304.741 218.218L303.964 219.109C303.979 219.166 304.003 219.255 304.036 219.378C304.066 219.491 304.088 219.571 304.1 219.618C304.113 219.665 304.131 219.732 304.153 219.816C304.176 219.901 304.203 219.965 304.235 220.007C304.264 220.04 304.297 220.086 304.333 220.147C304.37 220.208 304.412 220.253 304.46 220.28C304.508 220.308 304.565 220.333 304.632 220.356C304.959 220.409 305.369 220.128 305.861 219.511C306.362 218.891 306.793 218.255 307.154 217.602C307.182 217.554 307.248 217.516 307.351 217.489C307.375 217.502 307.363 217.551 307.315 217.635C307.276 217.716 307.179 217.883 307.025 218.137C306.569 218.815 306.18 219.344 305.857 219.724C305.558 220.077 305.308 220.296 305.108 220.38C304.855 220.528 304.597 220.567 304.335 220.496C304.083 220.422 303.88 220.249 303.726 219.976L303.581 219.773C303.51 219.812 303.299 220.136 302.947 220.746C302.585 221.359 302.351 221.806 302.244 222.087Z" fill="#B39D96"/>
<path d="M306.558 224.374C306.116 224.573 305.772 224.387 305.528 223.816C305.451 223.604 305.413 223.366 305.413 223.103C305.406 222.398 305.58 221.461 305.935 220.295C306.208 219.392 306.546 218.503 306.949 217.627C307.54 216.286 308.525 214.51 309.904 212.3L310.53 211.299L310.965 210.712L310.651 210.675C310.205 210.632 309.526 210.607 308.614 210.599L307.996 210.613C305.954 210.725 304.146 211.392 302.572 212.612C301.966 213.068 301.506 213.595 301.191 214.195C301.066 214.482 301.009 214.704 301.021 214.863C301.021 214.863 301.024 214.872 301.029 214.891L301.016 214.955C301.007 214.998 300.977 215.016 300.924 215.01C300.872 215.004 300.832 214.984 300.803 214.951C300.787 214.895 300.789 214.824 300.806 214.738C300.842 214.496 300.941 214.242 301.102 213.976C301.529 213.266 302.155 212.643 302.983 212.108C303.151 211.982 303.359 211.85 303.605 211.714C304.281 211.37 305.053 211.063 305.92 210.79C307.094 210.455 308.705 210.352 310.751 210.481L311.075 210.501L311.948 209.175C312.405 208.577 312.713 208.257 312.873 208.214C313.062 208.163 313.154 208.26 313.148 208.504C313.105 208.718 312.991 208.991 312.807 209.324L312.078 210.565C312.66 210.511 313.242 210.365 313.826 210.127C314.132 210.025 314.442 209.861 314.756 209.636C315.074 209.429 315.32 209.196 315.494 208.937C315.535 208.866 315.572 208.815 315.605 208.786C315.643 208.776 315.673 208.778 315.697 208.792C315.702 208.811 315.698 208.832 315.684 208.856C315.583 209.156 315.321 209.444 314.899 209.718C314.581 209.925 314.226 210.111 313.836 210.276C313.351 210.467 312.882 210.603 312.428 210.684L312.003 210.737L311.535 211.424C310.966 212.243 310.529 212.861 310.226 213.276L309.269 214.457C308.919 214.925 308.483 215.694 307.961 216.764C307.418 217.981 307.12 218.683 307.069 218.868C306.67 219.946 306.371 220.885 306.171 221.687C305.835 223.223 305.84 224.091 306.187 224.291C306.426 224.429 307.067 223.803 308.109 222.411C309.036 221.152 310.21 219.386 311.634 217.114L312.239 216.148C312.281 216.077 312.321 216.076 312.36 216.146C312.389 216.179 312.376 216.243 312.321 216.339C312.183 216.578 311.96 216.936 311.653 217.413C311.346 217.889 311.111 218.256 310.947 218.512C309.189 221.157 307.997 222.861 307.373 223.625C307.036 224.028 306.764 224.278 306.558 224.374ZM311.893 210.554C311.953 210.477 312.1 210.251 312.333 209.875L312.799 209.068C312.962 208.731 313.03 208.536 313.006 208.482C312.976 208.369 312.837 208.492 312.589 208.851L312.249 209.337C312.194 209.432 312.105 209.572 311.983 209.757C311.867 209.929 311.762 210.084 311.667 210.221C311.579 210.345 311.517 210.453 311.481 210.543L311.893 210.554ZM309.49 213.867C309.8 213.552 310.212 213.017 310.728 212.262L311.481 211.226L311.797 210.762L311.385 210.751L311.007 211.322L310.588 211.966L309.49 213.867Z" fill="#B39D96"/>
<path d="M313.477 214.543C313.258 214.743 313.138 214.785 313.117 214.67C313.107 214.632 313.104 214.582 313.107 214.521C313.129 214.373 313.18 214.264 313.262 214.191C313.341 214.109 313.412 214.11 313.475 214.195C313.594 214.335 313.594 214.451 313.477 214.543ZM311.821 219.339C311.503 219.323 311.31 219.152 311.243 218.827C311.176 218.501 311.23 218.117 311.405 217.676C311.585 217.254 311.71 216.983 311.779 216.863L312.204 216.128C312.245 216.056 312.325 215.939 312.443 215.775C312.56 215.683 312.682 215.63 312.81 215.616C312.885 215.596 312.933 215.624 312.953 215.699C312.958 215.718 312.948 215.756 312.923 215.814C312.803 216.119 312.56 216.573 312.196 217.176C312.037 217.451 311.938 217.645 311.897 217.757C311.435 218.75 311.405 219.223 311.807 219.176C312.185 219.115 312.662 218.78 313.236 218.171C314.321 217.051 315.121 216.094 315.636 215.299C315.733 215.131 315.801 215.103 315.841 215.214C315.856 215.27 315.829 215.338 315.759 215.418C315.243 216.132 314.793 216.718 314.41 217.174C313.138 218.617 312.275 219.339 311.821 219.339Z" fill="#B39D96"/>
<path d="M315.548 220.008C315.165 220.05 314.907 219.821 314.773 219.322C314.635 218.883 314.615 218.373 314.712 217.791C314.797 217.202 314.906 216.743 315.04 216.414C315.163 216.078 315.358 215.601 315.627 214.983C316.234 213.698 316.702 212.749 317.033 212.134C318.521 209.35 319.968 207.127 321.373 205.466C321.433 205.39 321.529 205.293 321.659 205.177C321.79 205.061 321.898 204.992 321.983 204.969C322.091 204.92 322.171 204.919 322.224 204.965C322.277 205.012 322.307 205.085 322.313 205.184C322.32 205.284 322.321 205.384 322.318 205.486C322.313 205.579 322.299 205.658 322.276 205.725C322.221 205.972 322.078 206.288 321.848 206.674C321.168 207.907 320.543 208.934 319.974 209.754C319.36 210.707 318.59 211.702 317.665 212.738C317.156 213.33 316.799 213.809 316.595 214.178C316.465 214.374 316.225 214.873 315.874 215.675C315.661 216.126 315.457 216.687 315.262 217.355C314.99 218.338 314.958 219.07 315.168 219.549C315.313 219.864 315.538 219.93 315.843 219.748C316.115 219.594 316.518 219.173 317.051 218.484C317.304 218.183 317.657 217.71 318.111 217.062C318.613 216.372 319.148 215.556 319.715 214.616L319.994 214.131C320.087 214.025 320.153 214.008 320.192 214.078C320.197 214.097 320.159 214.178 320.076 214.322C319.941 214.499 319.751 214.788 319.504 215.188C319.257 215.587 319.075 215.889 318.958 216.092L318.465 216.801C318.213 217.181 317.815 217.733 317.271 218.455C317.224 218.508 317.103 218.662 316.909 218.916C316.712 219.161 316.547 219.357 316.414 219.504C316.279 219.641 316.129 219.762 315.965 219.866C315.787 219.955 315.648 220.002 315.548 220.008ZM317.262 212.877L317.809 212.26C318.221 211.796 318.526 211.426 318.725 211.15C319.489 210.076 319.913 209.487 319.996 209.384C320.508 208.579 321.08 207.618 321.71 206.498C322.119 205.873 322.251 205.443 322.108 205.209C322.077 205.096 321.995 205.108 321.859 205.245C321.645 205.464 321.428 205.73 321.208 206.041C320.996 206.341 320.827 206.598 320.703 206.814C320.576 207.02 320.389 207.322 320.142 207.722C319.896 208.122 319.731 208.394 319.648 208.537C319.094 209.413 318.619 210.243 318.222 211.027L317.464 212.443L317.262 212.877Z" fill="#B39D96"/>
<path d="M320.813 216.338C320.296 216.709 319.895 216.761 319.611 216.493C319.439 216.378 319.335 216.178 319.299 215.895C319.279 215.668 319.367 215.336 319.563 214.899L319.717 214.569C319.894 214.209 320.072 213.913 320.253 213.683C320.691 213.09 321.045 212.788 321.315 212.776C321.523 212.801 321.629 212.95 321.631 213.222C321.633 213.495 321.549 213.765 321.378 214.033C320.965 214.64 320.491 215.004 319.958 215.127C319.92 215.137 319.87 215.251 319.807 215.47C319.733 215.682 319.702 215.852 319.716 215.98C319.758 216.363 319.89 216.535 320.112 216.496C320.547 216.42 321.196 215.862 322.06 214.821C322.61 214.158 322.987 213.643 323.192 213.274C323.299 213.145 323.365 213.127 323.39 213.221C323.395 213.24 323.356 213.321 323.273 213.465L322.839 214.051C322.737 214.2 322.562 214.434 322.314 214.753C322.18 214.931 321.928 215.216 321.558 215.608C321.197 215.998 320.949 216.241 320.813 216.338ZM320.012 214.991C320.272 214.941 320.512 214.817 320.731 214.616C321.301 214.029 321.561 213.545 321.509 213.164C321.503 213.065 321.453 213.028 321.358 213.053C321.236 213.126 321.054 213.312 320.81 213.609C320.564 213.898 320.39 214.156 320.29 214.386L320.012 214.991Z" fill="#B39D96"/>
</svg>
