<svg width="128" height="139" viewBox="0 0 128 139" fill="none" xmlns="http://www.w3.org/2000/svg">
<path d="M13.8536 103.195C12.8692 102.414 12.4823 101.473 12.6927 100.372C12.7337 99.5188 13.1665 98.493 13.9912 97.2947C14.8075 96.0649 15.7928 95.0258 16.9472 94.1773C17.0251 92.7073 17.317 91.2811 17.8228 89.8986C21.4027 81.6264 25.362 74.0782 29.7006 67.254C33.8113 60.9627 38.7799 54.0371 44.6065 46.4772L45.7215 45.1674C46.5906 44.2605 47.3039 43.7155 47.8615 43.5324C48.7733 43.2881 49.2596 44.034 49.3204 45.7701C49.3144 47.7601 47.1626 51.7404 42.8648 57.7111C38.9163 62.8469 34.6805 67.0991 30.1574 70.4679C29.1748 71.203 26.8175 75.171 23.0853 82.3719C20.9099 86.8304 19.6696 90.3137 19.3643 92.8219L19.6405 92.3435C19.7449 91.9785 19.9226 91.5096 20.1735 90.9369C20.4475 90.3243 20.6639 89.8113 20.8228 89.3981C22.1847 86.8089 23.5411 84.8278 24.892 83.4549C26.2658 82.042 27.2905 81.4642 27.966 81.7213C28.3647 81.9515 28.623 82.2867 28.7409 82.7269C29.1279 83.6679 29.1275 85.0497 28.7396 86.8724L28.5586 88.0835L28.2926 89.1658C31.2723 87.4575 33.6102 85.6178 35.3063 83.6469C35.4152 83.5503 35.8245 83.0025 36.5341 82.0035C36.8103 81.5251 36.999 81.4746 37.1001 81.8519C37.1798 81.8979 37.0816 82.1602 36.8054 82.6386C35.6101 84.3406 34.4165 85.6714 33.2245 86.6311C32.0241 87.5593 30.3364 88.6182 28.1613 89.8076C26.4261 94.1481 23.9948 97.7146 20.8675 100.507C17.7004 103.277 15.3624 104.173 13.8536 103.195ZM30.0622 69.7352C35.9675 64.985 40.4535 60.3456 43.5199 55.8169C47.309 50.589 48.998 47.0192 48.5868 45.1073C48.4514 44.0989 47.9376 44.0681 47.0455 45.0148C46.5638 45.4809 45.4196 46.9333 43.6129 49.372C40.8871 53.0343 36.3702 59.822 30.0622 69.7352ZM20.0499 92.7393L22.7787 91.6037L25.7997 90.2382C26.1718 89.3634 26.5595 88.2316 26.9625 86.843C27.4862 84.647 27.7017 83.376 27.609 83.0302C27.5876 82.6989 27.5014 82.5029 27.3504 82.4423C27.1993 82.3817 26.9048 82.4774 26.4669 82.7296C25.1868 83.6118 23.9513 85.0381 22.7606 87.0085C21.5614 88.9474 20.6578 90.8577 20.0499 92.7393ZM15.4606 102.967C17.4752 102.562 19.9321 100.286 22.8313 96.1392C23.5325 95.1088 24.1206 94.1593 24.5955 93.2906C25.0935 92.382 25.3947 91.7453 25.4991 91.3803L25.6557 90.8328C22.864 91.9853 21.1864 92.7044 20.6226 92.9902L19.8242 93.4064C19.502 93.9645 19.2696 95.1726 19.1272 97.0306C19.1193 97.5045 19.0495 97.8097 18.9175 97.9461C18.7856 98.0826 18.6115 98.0618 18.3953 97.8838C18.1791 97.7059 17.9366 97.3665 17.6676 96.8656L17.0736 94.6489C14.076 97.1708 12.7901 99.3521 13.2158 101.193C13.3266 102.612 14.0748 103.204 15.4606 102.967ZM38.2305 93.4284C39.8413 92.0195 41.234 90.551 42.4085 89.0231C43.606 87.4553 45.5904 84.5477 48.3616 80.3004L49.2938 78.6857C49.6497 78.2533 49.8698 78.1944 49.9541 78.5088C49.9709 78.5717 49.8413 78.8423 49.565 79.3207C49.3809 79.6397 49.089 80.1223 48.6892 80.7686C48.3125 81.3751 47.9588 81.9416 47.6282 82.4683C47.3205 82.9552 47.0201 83.4064 46.7271 83.8219C43.5141 88.5584 41.0289 91.735 39.2715 93.3516C37.1644 95.298 35.6372 95.5724 34.6898 94.1749C33.7402 92.6432 34.3074 89.9806 36.3913 86.187C37.335 84.5524 37.8131 83.6323 37.8254 83.4268C37.758 83.1753 37.6634 82.9479 37.5415 82.7446C37.2686 82.4807 37.0693 82.3657 36.9435 82.3994C36.8975 82.4791 36.8357 82.563 36.7582 82.6512C36.6807 82.7394 36.619 82.8233 36.573 82.9031L36.167 82.7085C36.1501 82.6456 36.2453 82.4348 36.4524 82.076C36.691 81.7087 36.764 81.3522 36.6713 81.0063C36.4445 80.6627 36.4568 80.4572 36.7083 80.3898C36.9891 80.1798 37.2176 80.1522 37.3939 80.3072C37.5702 80.4622 37.753 80.767 37.9423 81.2218C38.1063 81.5823 38.4036 82.1261 38.8344 82.8532C39.0781 83.2597 39.1435 83.6297 39.0307 83.9632C38.9493 84.2883 38.6136 84.9849 38.0236 86.0529C36.0485 89.7499 35.2905 92.3289 35.7493 93.7899C36.0105 94.7646 36.8376 94.6441 38.2305 93.4284ZM55.7116 87.7333C54.4146 88.5527 53.4595 88.5727 52.8463 87.7934C52.3504 86.9489 52.0904 86.0413 52.0661 85.0705C52.0335 84.0682 52.1499 83.2451 52.4155 82.601C51.5256 83.682 50.8931 84.3401 50.5181 84.5754C49.7073 85.197 49.0251 85.4809 48.4715 85.4271C47.9179 85.3732 47.5641 84.9962 47.4102 84.296C47.2478 83.5644 47.2815 82.7466 47.511 81.8426C48.1942 79.7386 49.5686 77.8875 51.6342 76.2893C53.4651 74.8214 54.6852 74.5956 55.2945 75.6119C55.7398 76.2676 55.7721 77.0172 55.3915 77.8606C55.304 78.2885 55.3054 78.6083 55.3958 78.8199C55.5261 79.0546 55.424 79.5538 55.0894 80.3175C54.9513 80.5567 54.764 80.927 54.5277 81.4284C54.3144 81.89 54.1283 82.3274 53.9694 82.7407C53.8021 83.1225 53.6663 83.4959 53.5619 83.8609C53.0096 86.7049 53.2607 88.0193 54.3152 87.8042C55.1978 87.7025 56.7446 86.2433 58.9555 83.4267C60.3855 81.5944 61.9794 79.179 63.7371 76.1805L64.6222 74.5785C64.9781 74.1461 65.214 74.0829 65.3297 74.3889C65.3465 74.4518 65.2011 74.7267 64.8934 75.2135L62.1498 79.6894C61.1892 81.2611 60.2337 82.6629 59.2832 83.8949C57.8555 85.8614 56.6649 87.1409 55.7116 87.7333ZM48.7443 84.7474C48.8578 84.9192 49.3754 84.713 50.2974 84.129C50.4063 84.0324 50.8596 83.5234 51.6574 82.6019C51.7035 82.5222 52.2006 81.7992 53.1489 80.433C53.2409 80.2736 53.4995 79.9178 53.9245 79.3658C54.3725 78.774 54.6487 78.2956 54.7531 77.9306C55.3072 76.6026 55.2035 75.8384 54.4421 75.638C54.1232 75.4539 53.4747 75.8636 52.4967 76.867C51.4013 77.9357 50.3955 79.4015 49.4793 81.2646C48.5861 83.0879 48.3411 84.2488 48.7443 84.7474ZM63.5709 81.7856C63.097 81.7778 62.8614 81.1501 62.8641 79.9024C62.9218 79.1118 63.3448 77.7347 64.133 75.7711C64.9211 73.8075 65.7245 72.2779 66.5431 71.1824C67.2106 70.0262 67.7605 69.6261 68.1929 69.9821C68.449 70.1831 67.9903 71.5529 66.817 74.0915C65.9867 75.8979 65.5424 76.9437 65.484 77.2289L65.6474 77.084C65.7563 76.9875 65.927 76.8069 66.1595 76.5424C66.3919 76.278 66.617 76.0491 66.8349 75.856C68.8454 73.8007 70.2061 72.779 70.9169 72.7907C71.8962 72.7979 71.8379 74.0267 70.7421 76.4772C70.604 76.7164 70.4052 77.1067 70.1459 77.648C69.8573 78.3319 69.6179 78.8847 69.4276 79.3064C68.7185 80.8107 68.2807 82.0064 68.114 82.8936C67.9389 83.7493 68.1135 84.2754 68.638 84.4719C69.6633 84.3994 71.9773 81.8416 75.5799 76.7985C75.9651 76.2235 76.3272 75.6884 76.6663 75.1931C77.0284 74.658 77.5182 73.9707 78.1358 73.1312C78.745 72.2603 79.3656 71.3694 79.9978 70.4586C80.0898 70.2991 80.2302 70.1941 80.4189 70.1436L80.5856 70.2C80.6485 70.1831 80.6884 70.2061 80.7052 70.269C80.7221 70.3319 80.7075 70.4032 80.6615 70.483L80.4762 70.7348L78.6142 73.4074C78.5513 73.4242 78.1348 74.0077 77.3645 75.1577C76.6172 76.2678 75.9118 77.2825 75.2482 78.2017C74.5762 79.0895 73.7879 80.1095 72.8835 81.2618C72.0104 82.4056 71.1885 83.2999 70.4176 83.9445C69.6467 84.5892 69.0243 84.9076 68.5504 84.8998C66.7829 84.969 66.6098 83.1282 68.0312 79.3773C68.6896 77.6843 69.4543 76.1988 70.325 74.9208C70.9426 74.0813 70.9945 73.6461 70.4807 73.6153C70.2123 73.6198 69.9148 73.7669 69.588 74.0567C68.304 75.1759 67.0547 76.4879 65.8404 77.9928C64.6176 79.4663 64.0463 80.4787 64.1267 81.0301C64.184 81.6213 63.9987 81.8732 63.5709 81.7856ZM84.7976 88.9378C83.6414 88.2703 82.949 87.0067 82.7203 85.147C82.4787 82.9875 82.5422 80.8979 82.911 78.8782L83.678 75.8924L84.6556 72.7491L83.6635 74.3292C83.6175 74.409 83.4982 74.5926 83.3056 74.8801C83.1361 75.1277 82.9435 75.4152 82.7279 75.7426C82.5123 76.0699 82.3271 76.3218 82.1721 76.4981C81.1733 77.6756 80.1947 78.1738 79.2362 77.9925C78.3322 77.7629 77.9786 76.695 78.1755 74.7887C78.4421 73.2682 79.2137 71.4943 80.4904 69.4672C81.7901 67.4003 83.1535 66.0745 84.5808 65.4898C85.459 65.1197 86.1541 65.1357 86.6662 65.5377C86.8257 65.6297 86.9433 65.8173 87.0192 66.1002L88.497 63.1262C91.7543 56.7939 94.1217 52.4862 95.5994 50.2031C98.2594 45.9181 100.749 42.319 103.069 39.4058C106.27 35.3801 108.801 32.5621 110.661 30.9515C111.455 30.267 112.237 30.0407 113.007 30.2725C113.768 30.4729 114.195 30.9987 114.289 31.8499C114.395 33.001 113.918 34.679 112.857 36.8841C109.641 43.7447 104.722 51.0445 98.1007 58.7836C94.5221 62.9103 91.6938 65.8755 89.6159 67.6792L87.9602 69.235C87.6334 69.5247 87.3446 69.956 87.0936 70.5287C86.8343 71.07 86.6409 71.5431 86.5135 71.948C86.4091 72.3129 86.2682 72.8562 86.0908 73.5777C85.905 74.2678 85.7745 74.724 85.6993 74.9464C84.8112 77.5434 84.2457 79.8349 84.0028 81.8209C83.665 85.214 84.0681 87.3471 85.2119 88.2201C85.6443 88.5761 86.1266 88.6154 86.6589 88.3379C87.2541 88.0437 88.0437 87.3434 89.0279 86.2372C89.8342 85.3471 90.5637 84.3597 91.2167 83.2748C92.8454 81.0523 94.364 78.8593 95.7726 76.6957C97.4305 74.3306 99.22 71.5763 101.141 68.4329L103.794 64.1836C104.116 63.6254 104.344 63.5308 104.476 63.8997C104.493 63.9625 104.483 64.0496 104.445 64.1608C104.407 64.2719 104.35 64.3716 104.272 64.4598C104.195 64.5479 104.165 64.6234 104.181 64.6863L101.827 68.3503L99.6954 71.9039C98.5338 73.7316 96.518 76.6476 93.648 80.6519C93.401 80.9877 92.8923 81.7306 92.122 82.8806C91.3518 84.0306 90.6694 85.0054 90.0748 85.805C89.5033 86.5648 88.8834 87.2701 88.2153 87.9209C86.9964 89.1574 85.8572 89.4964 84.7976 88.9378ZM87.7833 68.5747L89.7312 66.789C91.3252 65.3172 92.7661 63.9032 94.0541 62.5471C100.508 55.6952 105.905 48.4189 110.245 40.7182C111.327 38.8444 112.197 37.061 112.856 35.3681C113.778 33.4022 114.008 32.0599 113.546 31.3413C113.193 31.0313 112.797 30.9354 112.357 31.0533C111.948 31.1628 111.394 31.5472 110.694 32.2065C110.026 32.8573 109.436 33.4871 108.926 34.0958C108.438 34.6646 107.935 35.3048 107.418 36.0162C106.924 36.6878 106.654 37.0635 106.608 37.1432C103.131 41.6472 100.638 45.1121 99.1315 47.5379C96.9925 50.8745 95.4281 53.3999 94.4383 55.1143C93.7708 56.2704 92.7979 58.0477 91.5196 60.4459C90.3962 62.6678 89.5637 64.34 89.0219 65.4625L87.7833 68.5747ZM80.8802 77.1476C81.5023 76.5765 82.5176 75.2092 83.9262 73.0456C85.1046 71.2807 85.9453 69.3873 86.4482 67.3653C86.5358 66.9375 86.5144 66.6062 86.3841 66.3715C86.1573 66.0279 85.8321 65.9465 85.4088 66.1273C84.5767 66.4177 83.6029 67.4369 82.4873 69.1849C81.8321 70.1356 81.193 71.3347 80.5699 72.7823C80.2645 73.4033 79.9689 74.3756 79.6832 75.699C79.6709 75.9045 79.667 76.1415 79.6715 76.4099C79.6676 76.6468 79.6993 76.8911 79.7667 77.1426C79.8341 77.3942 79.9549 77.5303 80.1289 77.5511C80.303 77.5718 80.5534 77.4373 80.8802 77.1476Z" fill="#B39D96"/>
<path d="M13.8536 103.195L13.7912 103.274L13.7992 103.279L13.8536 103.195ZM12.6927 100.372L12.7919 100.391L12.7926 100.377L12.6927 100.372ZM13.9912 97.2947L14.0736 97.3514L14.0745 97.35L13.9912 97.2947ZM16.9472 94.1773L17.0064 94.2578L17.0446 94.2298L17.0471 94.1826L16.9472 94.1773ZM17.8228 89.8986L17.7308 89.8588L17.7289 89.8643L17.8228 89.8986ZM29.7006 67.254L29.6169 67.1993L29.6162 67.2003L29.7006 67.254ZM44.6065 46.4772L44.5302 46.4123L44.5273 46.4161L44.6065 46.4772ZM45.7215 45.1674L45.6492 45.0981L45.6453 45.1026L45.7215 45.1674ZM47.8615 43.5324L47.8356 43.4357L47.8303 43.4374L47.8615 43.5324ZM49.3204 45.7701L49.4205 45.7704L49.4204 45.7666L49.3204 45.7701ZM42.8648 57.7111L42.9442 57.7721L42.946 57.7695L42.8648 57.7111ZM30.1574 70.4679L30.0977 70.3877L30.0975 70.3879L30.1574 70.4679ZM23.0853 82.3719L22.9965 82.3259L22.9954 82.3281L23.0853 82.3719ZM19.3643 92.8219L19.2651 92.8098L19.4509 92.8719L19.3643 92.8219ZM19.6405 92.3435L19.7271 92.3935L19.7333 92.3828L19.7367 92.371L19.6405 92.3435ZM20.1735 90.9369L20.0823 90.8961L20.082 90.8968L20.1735 90.9369ZM20.8228 89.3981L20.7337 89.3512L20.7294 89.3622L20.8228 89.3981ZM24.892 83.4549L24.9633 83.525L24.9637 83.5246L24.892 83.4549ZM27.966 81.7213L28.016 81.6347L28.0091 81.6307L28.0016 81.6278L27.966 81.7213ZM28.7409 82.7269L28.6436 82.753L28.6485 82.7649L28.7409 82.7269ZM28.7396 86.8724L28.6416 86.8515L28.6407 86.8576L28.7396 86.8724ZM28.5586 88.0835L28.6562 88.1075L28.6575 88.0983L28.5586 88.0835ZM28.2926 89.1658L28.1955 89.1419L28.1397 89.3687L28.3423 89.2526L28.2926 89.1658ZM35.3063 83.6469L35.2393 83.5714L35.2305 83.5816L35.3063 83.6469ZM36.5341 82.0035L36.616 82.0617L36.6207 82.0535L36.5341 82.0035ZM37.1001 81.8519L37.0035 81.8778L37.0142 81.9178L37.0501 81.9385L37.1001 81.8519ZM36.8054 82.6386L36.8875 82.6963L36.892 82.6886L36.8054 82.6386ZM33.2245 86.6311L33.2857 86.7102L33.2872 86.709L33.2245 86.6311ZM28.1613 89.8076L28.1133 89.7199L28.0817 89.7371L28.0684 89.7705L28.1613 89.8076ZM20.8675 100.507L20.9334 100.582L20.9341 100.582L20.8675 100.507ZM30.0622 69.7352L29.9778 69.6815L30.1248 69.8131L30.0622 69.7352ZM43.5199 55.8169L43.4389 55.7581L43.4371 55.7608L43.5199 55.8169ZM48.5868 45.1073L48.4874 45.1207L48.489 45.1284L48.5868 45.1073ZM47.0455 45.0148L47.1151 45.0868L47.1183 45.0834L47.0455 45.0148ZM43.6129 49.372L43.6931 49.4317L43.6932 49.4316L43.6129 49.372ZM20.0499 92.7393L19.9547 92.7086L19.888 92.915L20.0883 92.8316L20.0499 92.7393ZM22.7787 91.6037L22.8171 91.6961L22.8198 91.6949L22.7787 91.6037ZM25.7997 90.2382L25.8408 90.3293L25.8764 90.3133L25.8917 90.2773L25.7997 90.2382ZM26.9625 86.843L27.0586 86.8709L27.0598 86.8662L26.9625 86.843ZM27.609 83.0302L27.5092 83.0366L27.5098 83.0465L27.5124 83.056L27.609 83.0302ZM26.4669 82.7296L26.4168 82.6426L26.4102 82.6472L26.4669 82.7296ZM22.7606 87.0085L22.8456 87.0611L22.8462 87.0602L22.7606 87.0085ZM15.4606 102.967L15.4774 103.066L15.4803 103.065L15.4606 102.967ZM22.8313 96.1392L22.9132 96.1965L22.9139 96.1955L22.8313 96.1392ZM24.5955 93.2906L24.5078 93.2425L24.5078 93.2426L24.5955 93.2906ZM25.4991 91.3803L25.5952 91.4078L25.4991 91.3803ZM25.6557 90.8328L25.7518 90.8603L25.8087 90.6615L25.6175 90.7404L25.6557 90.8328ZM20.6226 92.9902L20.5774 92.901L20.5764 92.9016L20.6226 92.9902ZM19.8242 93.4064L19.778 93.3177L19.7522 93.3312L19.7376 93.3564L19.8242 93.4064ZM19.1272 97.0306L19.0273 97.0229L19.0272 97.0289L19.1272 97.0306ZM18.9175 97.9461L18.9894 98.0156L18.9175 97.9461ZM17.6676 96.8656L17.571 96.8915L17.574 96.9027L17.5795 96.913L17.6676 96.8656ZM17.0736 94.6489L17.1702 94.623L17.1295 94.4712L17.0092 94.5724L17.0736 94.6489ZM13.2158 101.193L13.3155 101.185L13.315 101.177L13.3133 101.17L13.2158 101.193ZM13.9157 103.117C13.4338 102.735 13.1032 102.317 12.9176 101.866C12.7323 101.415 12.689 100.925 12.791 100.391L12.5945 100.354C12.486 100.921 12.531 101.452 12.7326 101.942C12.934 102.432 13.289 102.875 13.7914 103.274L13.9157 103.117ZM12.7926 100.377C12.8322 99.5511 13.2529 98.5438 14.0736 97.3514L13.9088 97.238C13.0801 98.4421 12.6351 99.4866 12.5929 100.368L12.7926 100.377ZM14.0745 97.35C14.8845 96.1297 15.8618 95.0992 17.0064 94.2578L16.888 94.0967C15.7239 94.9524 14.7305 96.0001 13.9079 97.2394L14.0745 97.35ZM17.0471 94.1826C17.1245 92.7225 17.4143 91.3061 17.9167 89.933L17.7289 89.8643C17.2197 91.256 16.9258 92.6921 16.8473 94.172L17.0471 94.1826ZM17.9145 89.9383C21.4926 81.6704 25.4495 74.1269 29.785 67.3076L29.6162 67.2003C25.2745 74.0294 21.3128 81.5824 17.731 89.8589L17.9145 89.9383ZM29.7843 67.3087C33.8933 61.02 38.8603 54.0966 44.6857 46.5382L44.5273 46.4161C38.6996 53.9775 33.7294 60.9053 29.6169 67.1993L29.7843 67.3087ZM44.6826 46.542L45.7976 45.2322L45.6453 45.1026L44.5303 46.4124L44.6826 46.542ZM45.7937 45.2366C46.6616 44.331 47.3604 43.8022 47.8927 43.6274L47.8303 43.4374C47.2475 43.6288 46.5196 44.1901 45.6493 45.0982L45.7937 45.2366ZM47.8874 43.629C48.101 43.5718 48.2808 43.5748 48.4318 43.629C48.5822 43.6829 48.7142 43.7913 48.8263 43.9632C49.0539 44.3122 49.1902 44.9094 49.2205 45.7736L49.4204 45.7666C49.3898 44.8947 49.2526 44.2509 48.9939 43.854C48.8628 43.653 48.6985 43.5122 48.4993 43.4407C48.3008 43.3695 48.0779 43.3709 47.8356 43.4358L47.8874 43.629ZM49.2204 45.7698C49.2175 46.7375 48.6897 48.2106 47.6141 50.2003C46.541 52.1851 44.9314 54.6689 42.7837 57.6527L42.946 57.7695C45.096 54.7826 46.7112 52.2909 47.79 50.2954C48.8662 48.3048 49.4173 46.7927 49.4204 45.7704L49.2204 45.7698ZM42.7856 57.6502C38.8418 62.7797 34.6124 67.0252 30.0977 70.3877L30.2171 70.5481C34.7486 67.1731 38.9908 62.914 42.9441 57.7721L42.7856 57.6502ZM30.0975 70.3879C29.8381 70.5819 29.4987 70.9795 29.0812 71.5675C28.6615 72.1585 28.1565 72.951 27.5665 73.9442C26.3863 75.9306 24.8629 78.7248 22.9965 82.3259L23.1741 82.4179C25.0398 78.8181 26.5612 76.0279 27.7384 74.0463C28.3271 73.0554 28.829 72.2681 29.2442 71.6833C29.6616 71.0956 29.9854 70.7215 30.2173 70.548L30.0975 70.3879ZM22.9954 82.3281C20.8189 86.7888 19.5724 90.2844 19.2651 92.8098L19.4636 92.834C19.7667 90.3429 21.0009 86.8719 23.1752 82.4158L22.9954 82.3281ZM19.4509 92.8719L19.7271 92.3935L19.5539 92.2935L19.2777 92.7719L19.4509 92.8719ZM19.7367 92.371C19.8393 92.0122 20.015 91.5479 20.2651 90.977L20.082 90.8968C19.8302 91.4714 19.6506 91.9448 19.5444 92.316L19.7367 92.371ZM20.2648 90.9777C20.5392 90.3642 20.7564 89.8495 20.9161 89.434L20.7294 89.3622C20.5715 89.7732 20.3558 90.2844 20.0823 90.8961L20.2648 90.9777ZM20.9113 89.4446C22.2708 86.8601 23.6219 84.8884 24.9633 83.525L24.8207 83.3847C23.4604 84.7673 22.0987 86.7577 20.7343 89.3515L20.9113 89.4446ZM24.9637 83.5246C25.6478 82.8211 26.2397 82.3311 26.74 82.049C27.2424 81.7656 27.634 81.7019 27.9304 81.8147L28.0016 81.6278C27.6226 81.4836 27.164 81.5802 26.6418 81.8748C26.1174 82.1705 25.51 82.6759 24.8203 83.3852L24.9637 83.5246ZM27.916 81.8079C28.292 82.025 28.5333 82.3384 28.6444 82.7527L28.8375 82.701C28.7126 82.2349 28.4374 81.878 28.016 81.6347L27.916 81.8079ZM28.6485 82.7649C29.0237 83.6773 29.0285 85.0345 28.6418 86.8515L28.8374 86.8932C29.2264 85.065 29.2321 83.6584 28.8334 82.6888L28.6485 82.7649ZM28.6407 86.8576L28.4597 88.0687L28.6575 88.0983L28.8385 86.8871L28.6407 86.8576ZM28.4615 88.0596L28.1955 89.1419L28.3897 89.1897L28.6558 88.1074L28.4615 88.0596ZM28.3423 89.2526C31.3289 87.5403 33.6766 85.6939 35.3821 83.7121L35.2305 83.5816C33.5437 85.5418 31.2157 87.3747 28.2429 89.0791L28.3423 89.2526ZM35.3726 83.7217C35.4071 83.6911 35.4581 83.6322 35.5222 83.5525C35.5881 83.4706 35.6724 83.3608 35.7751 83.2234C35.9804 82.9486 36.2607 82.5612 36.6157 82.0615L36.4526 81.9456C36.098 82.4449 35.8188 82.8308 35.6148 83.1037C35.5128 83.2403 35.4301 83.3479 35.3664 83.4272C35.3009 83.5085 35.2599 83.5543 35.2399 83.572L35.3726 83.7217ZM36.6207 82.0535C36.6881 81.9368 36.748 81.8502 36.8 81.791C36.8541 81.7293 36.8905 81.7083 36.9087 81.7034C36.9153 81.7016 36.9173 81.7026 36.9174 81.7026C36.9182 81.7029 36.9237 81.705 36.933 81.7155C36.9538 81.7388 36.9796 81.7884 37.0035 81.8778L37.1967 81.826C37.1701 81.7268 37.1344 81.6411 37.0827 81.5828C37.0558 81.5524 37.0223 81.527 36.9815 81.5132C36.9399 81.4991 36.8974 81.4994 36.8569 81.5102C36.7807 81.5306 36.7118 81.5883 36.6498 81.6589C36.5856 81.732 36.5182 81.8311 36.4475 81.9535L36.6207 82.0535ZM37.0501 81.9385C37.0189 81.9205 37.0284 81.893 37.0267 81.921C37.0253 81.9445 37.016 81.9855 36.9926 82.048C36.9465 82.1711 36.8562 82.3505 36.7188 82.5886L36.892 82.6886C37.0307 82.4482 37.1278 82.2573 37.1799 82.1182C37.2056 82.0496 37.2231 81.9864 37.2264 81.9329C37.2293 81.8838 37.2212 81.8063 37.1501 81.7653L37.0501 81.9385ZM36.7236 82.5811C35.5319 84.278 34.3444 85.6011 33.1618 86.5532L33.2872 86.709C34.4886 85.7417 35.6884 84.4031 36.8872 82.696L36.7236 82.5811ZM33.1634 86.552C31.9689 87.4757 30.2863 88.5316 28.1133 89.7199L28.2092 89.8954C30.3865 88.7048 32.0794 87.643 33.2857 86.7102L33.1634 86.552ZM28.0684 89.7705C26.3383 94.0983 23.9154 97.6515 20.8009 100.433L20.9341 100.582C24.0742 97.7778 26.5138 94.1979 28.2541 89.8447L28.0684 89.7705ZM20.8017 100.432C19.2218 101.813 17.8559 102.721 16.7029 103.163C15.5512 103.604 14.626 103.577 13.908 103.111L13.7992 103.279C14.59 103.792 15.5882 103.804 16.7745 103.35C17.9595 102.896 19.3461 101.97 20.9334 100.582L20.8017 100.432ZM30.1248 69.8131C36.0352 65.0589 40.529 60.4124 43.6028 55.8729L43.4371 55.7608C40.3779 60.2788 35.8998 64.9111 29.9995 69.6573L30.1248 69.8131ZM43.6009 55.8755C45.4971 53.2594 46.8706 51.0543 47.7189 49.2614C48.5647 47.4735 48.8976 46.0768 48.6846 45.0863L48.489 45.1284C48.6872 46.0498 48.3811 47.3939 47.5381 49.1758C46.6974 50.9528 45.3319 53.1465 43.439 55.7582L43.6009 55.8755ZM48.6859 45.094C48.6512 44.836 48.5912 44.6287 48.4991 44.4813C48.4045 44.3299 48.2731 44.2381 48.1059 44.2281C47.9463 44.2185 47.7724 44.2849 47.589 44.4043C47.4041 44.5248 47.1985 44.7066 46.9727 44.9463L47.1183 45.0834C47.3385 44.8497 47.5317 44.6803 47.6982 44.5719C47.8664 44.4623 47.9966 44.4219 48.0939 44.4277C48.1836 44.4331 48.2618 44.4789 48.3295 44.5873C48.3997 44.6997 48.4546 44.8745 48.4877 45.1207L48.6859 45.094ZM46.9759 44.943C46.4868 45.4162 45.337 46.8768 43.5325 49.3125L43.6932 49.4316C45.5022 46.9898 46.6407 45.5457 47.115 45.0867L46.9759 44.943ZM43.5327 49.3123C40.8045 52.9779 36.2858 59.7685 29.9778 69.6815L30.1465 69.7889C36.4547 59.8756 40.9698 53.0907 43.6931 49.4317L43.5327 49.3123ZM20.0883 92.8316L22.8171 91.6961L22.7402 91.5114L20.0115 92.647L20.0883 92.8316ZM22.8198 91.6949L25.8408 90.3293L25.7585 90.1471L22.7375 91.5126L22.8198 91.6949ZM25.8917 90.2773C26.266 89.3975 26.6549 88.2616 27.0585 86.8709L26.8665 86.8152C26.464 88.2017 26.0777 89.3293 25.7076 90.1991L25.8917 90.2773ZM27.0598 86.8662C27.3218 85.7674 27.5072 84.8982 27.6155 84.2595C27.6696 83.9403 27.7048 83.677 27.7204 83.4706C27.7358 83.2678 27.7335 83.1086 27.7056 83.0043L27.5124 83.056C27.5308 83.1247 27.5363 83.254 27.521 83.4554C27.506 83.6532 27.4719 83.9098 27.4183 84.2261C27.3111 84.8583 27.1269 85.7226 26.8652 86.8198L27.0598 86.8662ZM27.7088 83.0237C27.6977 82.8521 27.6695 82.7074 27.6199 82.5945C27.5697 82.4804 27.4943 82.3923 27.3876 82.3495L27.3131 82.5351C27.3575 82.5529 27.4008 82.5932 27.4368 82.675C27.4733 82.7581 27.4989 82.8769 27.5092 83.0366L27.7088 83.0237ZM27.3876 82.3495C27.2779 82.3054 27.1374 82.3241 26.9853 82.3735C26.8286 82.4245 26.6387 82.5153 26.417 82.6429L26.5168 82.8162C26.733 82.6918 26.9093 82.6086 27.0472 82.5637C27.1896 82.5174 27.2718 82.5185 27.3131 82.5351L27.3876 82.3495ZM26.4102 82.6472C25.1141 83.5404 23.8699 84.9796 22.675 86.9567L22.8462 87.0602C24.0328 85.0966 25.2594 83.6832 26.5236 82.8119L26.4102 82.6472ZM22.6755 86.9559C21.4727 88.9006 20.5655 90.8182 19.9547 92.7086L20.1451 92.7701C20.7502 90.8972 21.65 88.9942 22.8456 87.0611L22.6755 86.9559ZM15.4803 103.065C16.5137 102.857 17.6478 102.173 18.8821 101.03C20.1177 99.8851 21.4614 98.2731 22.9132 96.1965L22.7493 96.0819C21.3019 98.1521 19.9675 99.7516 18.7462 100.883C17.5236 102.015 16.4221 102.672 15.4409 102.869L15.4803 103.065ZM22.9139 96.1955C23.6165 95.163 24.2064 94.2107 24.6833 93.3386L24.5078 93.2426C24.0347 94.1078 23.4484 95.0546 22.7486 96.0829L22.9139 96.1955ZM24.6832 93.3386C25.1806 92.4311 25.4873 91.7851 25.5952 91.4078L25.4029 91.3528C25.302 91.7055 25.0063 92.333 24.5078 93.2425L24.6832 93.3386ZM25.5952 91.4078L25.7518 90.8603L25.5595 90.8053L25.4029 91.3528L25.5952 91.4078ZM25.6175 90.7404C22.8276 91.8921 21.1455 92.613 20.5774 92.9011L20.6679 93.0794C21.2272 92.7958 22.9004 92.0784 25.6938 90.9253L25.6175 90.7404ZM20.5764 92.9016L19.778 93.3177L19.8705 93.4951L20.6689 93.0789L20.5764 92.9016ZM19.7376 93.3564C19.5679 93.6503 19.4268 94.1052 19.3101 94.7122C19.1929 95.3213 19.0988 96.0919 19.0275 97.023L19.2269 97.0382C19.2979 96.1113 19.3913 95.3489 19.5065 94.7499C19.6221 94.1488 19.7583 93.7206 19.9108 93.4564L19.7376 93.3564ZM19.0272 97.0289C19.0233 97.2621 19.0042 97.4493 18.9714 97.5926C18.9382 97.7377 18.8932 97.8274 18.8456 97.8766L18.9894 98.0156C19.0738 97.9284 19.1297 97.7973 19.1664 97.6372C19.2034 97.4753 19.2232 97.273 19.2272 97.0322L19.0272 97.0289ZM18.8456 97.8766C18.7993 97.9245 18.753 97.9399 18.6999 97.9336C18.64 97.9265 18.5603 97.8901 18.4589 97.8066L18.3318 97.9611C18.4466 98.0556 18.5619 98.1186 18.6762 98.1322C18.7971 98.1466 18.9038 98.1042 18.9894 98.0156L18.8456 97.8766ZM18.4589 97.8066C18.2586 97.6417 18.0235 97.3171 17.7556 96.8183L17.5795 96.913C17.8496 97.4159 18.0997 97.77 18.3318 97.9611L18.4589 97.8066ZM17.7641 96.8398L17.1702 94.623L16.977 94.6748L17.571 96.8915L17.7641 96.8398ZM17.0092 94.5724C15.506 95.8371 14.4258 97.0213 13.7748 98.1255C13.1234 99.2305 12.898 100.262 13.1184 101.215L13.3133 101.17C13.1079 100.282 13.3126 99.3033 13.9471 98.2271C14.5821 97.15 15.6436 95.9827 17.138 94.7254L17.0092 94.5724ZM13.1161 101.2C13.1726 101.924 13.3932 102.459 13.7981 102.779C14.2032 103.1 14.77 103.186 15.4774 103.066L15.4437 102.868C14.7654 102.984 14.2652 102.894 13.9221 102.622C13.5787 102.351 13.3698 101.88 13.3155 101.185L13.1161 101.2ZM38.2305 93.4284L38.2963 93.5037L38.2964 93.5037L38.2305 93.4284ZM42.4085 89.0231L42.4878 89.0841L42.488 89.0838L42.4085 89.0231ZM48.3616 80.3004L48.4454 80.3551L48.4482 80.3504L48.3616 80.3004ZM49.2938 78.6857L49.2166 78.6221L49.2113 78.6285L49.2072 78.6357L49.2938 78.6857ZM49.565 79.3207L49.4784 79.2707L49.565 79.3207ZM48.6892 80.7686L48.7742 80.8214L48.7743 80.8212L48.6892 80.7686ZM47.6282 82.4683L47.7127 82.5218L47.7128 82.5215L47.6282 82.4683ZM46.7271 83.8219L46.6453 83.7643L46.6443 83.7658L46.7271 83.8219ZM39.2715 93.3516L39.2038 93.2781L39.2037 93.2782L39.2715 93.3516ZM34.6898 94.1749L34.6048 94.2276L34.6071 94.231L34.6898 94.1749ZM36.3913 86.187L36.3047 86.137L36.3037 86.1388L36.3913 86.187ZM37.8254 83.4268L37.9252 83.4328L37.9262 83.4166L37.922 83.4009L37.8254 83.4268ZM37.5415 82.7446L37.6273 82.6932L37.6205 82.6819L37.611 82.6727L37.5415 82.7446ZM36.9435 82.3994L36.9176 82.3028L36.8776 82.3135L36.8569 82.3494L36.9435 82.3994ZM36.573 82.9031L36.5297 82.9932L36.6133 83.0332L36.6596 82.9531L36.573 82.9031ZM36.167 82.7085L36.0704 82.7344L36.0823 82.7788L36.1238 82.7987L36.167 82.7085ZM36.4524 82.076L36.3685 82.0214L36.3658 82.026L36.4524 82.076ZM36.6713 81.0063L36.7679 80.9804L36.7637 80.9648L36.7548 80.9512L36.6713 81.0063ZM36.7083 80.3898L36.7342 80.4864L36.7528 80.4814L36.7682 80.4699L36.7083 80.3898ZM37.9423 81.2218L37.8499 81.2603L37.8513 81.2632L37.9423 81.2218ZM38.8344 82.8532L38.7483 82.9041L38.7486 82.9046L38.8344 82.8532ZM39.0307 83.9632L38.9357 83.9311L38.9337 83.9389L39.0307 83.9632ZM38.0236 86.0529L37.936 86.0045L37.9354 86.0058L38.0236 86.0529ZM35.7493 93.7899L35.846 93.764L35.8447 93.76L35.7493 93.7899ZM38.2964 93.5037C39.9116 92.0909 41.3089 90.6177 42.4878 89.0841L42.3292 88.9622C41.1591 90.4844 39.7711 91.948 38.1647 93.3531L38.2964 93.5037ZM42.488 89.0838C43.688 87.5127 45.6742 84.6022 48.4453 80.355L48.2778 80.2457C45.5065 84.4932 43.524 87.3979 42.329 88.9624L42.488 89.0838ZM48.4482 80.3504L49.3804 78.7357L49.2072 78.6357L48.275 80.2504L48.4482 80.3504ZM49.371 78.7493C49.4578 78.6438 49.5342 78.5638 49.6002 78.5075C49.6674 78.4502 49.7175 78.4229 49.7517 78.4138C49.7806 78.406 49.792 78.4119 49.8011 78.4196C49.8163 78.4323 49.8387 78.4644 49.8575 78.5347L50.0507 78.4829C50.0274 78.396 49.9906 78.3175 49.9297 78.2664C49.8627 78.2101 49.7811 78.1988 49.6999 78.2206C49.6241 78.2409 49.5471 78.2899 49.4704 78.3554C49.3923 78.4219 49.3077 78.5115 49.2166 78.6221L49.371 78.7493ZM49.8575 78.5347C49.854 78.5215 49.8566 78.5155 49.855 78.5251C49.8537 78.5325 49.8507 78.5447 49.8445 78.5629C49.8323 78.599 49.811 78.6495 49.7793 78.7157C49.7161 78.8476 49.6161 79.0322 49.4784 79.2707L49.6516 79.3707C49.7902 79.1308 49.8931 78.9409 49.9596 78.8021C49.9928 78.733 50.018 78.6742 50.034 78.6269C50.0419 78.6034 50.0484 78.5804 50.0521 78.5591C50.0554 78.54 50.0584 78.5118 50.0507 78.4829L49.8575 78.5347ZM49.4784 79.2707C49.2951 79.5883 49.0038 80.0699 48.6042 80.716L48.7743 80.8212C49.1741 80.1747 49.4667 79.6911 49.6516 79.3707L49.4784 79.2707ZM48.6043 80.7159C48.2276 81.3222 47.874 81.8886 47.5435 82.4152L47.7128 82.5215C48.0436 81.9947 48.3974 81.4279 48.7742 80.8214L48.6043 80.7159ZM47.5436 82.4149C47.2368 82.9005 46.9373 83.3503 46.6454 83.7643L46.8088 83.8795C47.103 83.4625 47.4042 83.0099 47.7127 82.5218L47.5436 82.4149ZM46.6443 83.7658C43.4313 88.5022 40.9518 91.67 39.2038 93.2781L39.3392 93.4252C41.106 91.7999 43.5968 88.6145 46.8098 83.878L46.6443 83.7658ZM39.2037 93.2782C38.154 94.2478 37.2629 94.7867 36.5281 94.9188C36.1633 94.9843 35.8387 94.9493 35.5504 94.8185C35.2615 94.6874 35.0016 94.4566 34.7726 94.1188L34.6071 94.231C34.8517 94.592 35.138 94.851 35.4678 95.0006C35.7981 95.1505 36.1646 95.1873 36.5635 95.1156C37.3559 94.9732 38.282 94.4018 39.3394 93.4251L39.2037 93.2782ZM34.7748 94.1222C34.3192 93.3873 34.2199 92.3687 34.5008 91.05C34.7815 89.7321 35.4393 88.1278 36.479 86.2351L36.3037 86.1388C35.2594 88.0398 34.5916 89.6635 34.3052 91.0083C34.0189 92.3523 34.1109 93.4309 34.6048 94.2276L34.7748 94.1222ZM36.4779 86.237C36.95 85.4192 37.3063 84.7791 37.5464 84.3171C37.6663 84.0862 37.7579 83.8986 37.8205 83.7549C37.8518 83.6831 37.8764 83.621 37.8938 83.5692C37.9105 83.5192 37.9229 83.4721 37.9252 83.4328L37.7256 83.4208C37.7249 83.4329 37.7196 83.4595 37.7041 83.5056C37.6893 83.5498 37.6672 83.6061 37.6372 83.675C37.5772 83.8127 37.488 83.9957 37.3689 84.2249C37.1309 84.6829 36.7763 85.3201 36.3047 86.137L36.4779 86.237ZM37.922 83.4009C37.8524 83.1413 37.7544 82.9052 37.6273 82.6932L37.4557 82.7961C37.5724 82.9906 37.6636 83.2093 37.7288 83.4527L37.922 83.4009ZM37.611 82.6727C37.472 82.5383 37.3472 82.4372 37.2373 82.3738C37.1309 82.3124 37.0198 82.2754 36.9176 82.3028L36.9694 82.496C36.9929 82.4896 37.0444 82.4933 37.1373 82.547C37.2268 82.5987 37.3382 82.6871 37.472 82.8165L37.611 82.6727ZM36.8569 82.3494C36.8149 82.4221 36.7574 82.5007 36.6831 82.5852L36.8333 82.7172C36.914 82.6254 36.98 82.5361 37.0301 82.4494L36.8569 82.3494ZM36.6831 82.5852C36.6024 82.677 36.5364 82.7663 36.4864 82.8531L36.6596 82.9531C36.7015 82.8803 36.7591 82.8017 36.8333 82.7172L36.6831 82.5852ZM36.6162 82.8129L36.2102 82.6183L36.1238 82.7987L36.5297 82.9932L36.6162 82.8129ZM36.2636 82.6826C36.267 82.6956 36.2621 82.6941 36.2715 82.6611C36.2794 82.6335 36.294 82.595 36.3169 82.5444C36.3624 82.4434 36.436 82.3044 36.539 82.126L36.3658 82.026C36.2617 82.2064 36.1842 82.3522 36.1346 82.4621C36.1098 82.5169 36.0909 82.5653 36.0792 82.6061C36.0691 82.6416 36.0585 82.69 36.0704 82.7344L36.2636 82.6826ZM36.5363 82.1305C36.7866 81.7452 36.8695 81.3597 36.7679 80.9804L36.5747 81.0322C36.6585 81.3447 36.5955 81.6723 36.3686 82.0215L36.5363 82.1305ZM36.7548 80.9512C36.6433 80.7824 36.6062 80.6687 36.6102 80.6005C36.612 80.5707 36.6215 80.5512 36.6364 80.5358C36.653 80.5186 36.6826 80.5002 36.7342 80.4864L36.6825 80.2932C36.6083 80.3131 36.5421 80.3456 36.4926 80.3967C36.4416 80.4495 36.415 80.5155 36.4106 80.5885C36.4024 80.7258 36.4725 80.8867 36.5879 81.0614L36.7548 80.9512ZM36.7682 80.4699C36.9013 80.3703 37.0122 80.3218 37.1022 80.3109C37.1876 80.3006 37.2606 80.3232 37.3279 80.3823L37.4599 80.2321C37.3509 80.1362 37.2215 80.0951 37.0783 80.1124C36.9399 80.129 36.7961 80.1993 36.6484 80.3097L36.7682 80.4699ZM37.3279 80.3823C37.4858 80.5211 37.6615 80.8074 37.85 81.2602L38.0346 81.1834C37.8446 80.7267 37.6546 80.4032 37.4599 80.2321L37.3279 80.3823ZM37.8513 81.2632C38.0176 81.6289 38.3173 82.1766 38.7483 82.9041L38.9204 82.8022C38.4899 82.0755 38.1949 81.5357 38.0333 81.1804L37.8513 81.2632ZM38.7486 82.9046C38.9828 83.2951 39.0364 83.6342 38.936 83.9312L39.1254 83.9953C39.2506 83.6252 39.1734 83.2242 38.9201 82.8017L38.7486 82.9046ZM38.9337 83.9389C38.8957 84.0907 38.7955 84.3381 38.6278 84.6861C38.4611 85.032 38.2306 85.4714 37.936 86.0045L38.1111 86.1013C38.4066 85.5664 38.639 85.1235 38.808 84.7729C38.976 84.4243 39.0843 84.1609 39.1277 83.9875L38.9337 83.9389ZM37.9354 86.0058C36.9462 87.8574 36.2595 89.4331 35.8778 90.7317C35.4969 92.0276 35.4156 93.061 35.6539 93.8199L35.8447 93.76C35.6242 93.0579 35.6925 92.0713 36.0697 90.7881C36.446 89.5078 37.1259 87.9455 38.1118 86.1L37.9354 86.0058ZM35.6527 93.8158C35.7212 94.0712 35.8303 94.2692 35.9896 94.3943C36.1515 94.5214 36.3522 94.5627 36.5799 94.5295C37.0248 94.4647 37.5991 94.1122 38.2963 93.5037L38.1648 93.353C37.469 93.9603 36.9333 94.2759 36.5511 94.3316C36.3654 94.3587 36.2232 94.3234 36.1131 94.2369C36.0003 94.1484 35.9081 93.996 35.8459 93.764L35.6527 93.8158ZM55.7116 87.7333L55.6588 87.6484L55.6582 87.6488L55.7116 87.7333ZM52.8463 87.7934L52.7593 87.8445L52.7677 87.8552L52.8463 87.7934ZM52.0661 85.0705L52.1661 85.068L52.1661 85.0672L52.0661 85.0705ZM52.4155 82.601L52.5079 82.6391L52.3383 82.5375L52.4155 82.601ZM50.5181 84.5754L50.4647 84.4903L50.4572 84.496L50.5181 84.5754ZM47.4102 84.296L47.5078 84.2746L47.5078 84.2744L47.4102 84.296ZM47.511 81.8426L47.4157 81.8116L47.4141 81.818L47.511 81.8426ZM51.6342 76.2893L51.6954 76.3684L51.6967 76.3674L51.6342 76.2893ZM55.2945 75.6119L55.2086 75.6634L55.2117 75.668L55.2945 75.6119ZM55.3915 77.8606L55.3004 77.8195L55.2958 77.8297L55.2936 77.8406L55.3915 77.8606ZM55.3958 78.8199L55.3034 78.8594L55.3084 78.8685L55.3958 78.8199ZM55.0894 80.3175L55.1765 80.3678L55.181 80.3576L55.0894 80.3175ZM54.5277 81.4284L54.4372 81.3858L54.4369 81.3865L54.5277 81.4284ZM53.9694 82.7407L54.0611 82.7809L54.0627 82.7766L53.9694 82.7407ZM53.5619 83.8609L53.4653 83.8333L53.4637 83.8418L53.5619 83.8609ZM54.3152 87.8042L54.3037 87.7045L54.2952 87.7062L54.3152 87.8042ZM58.9555 83.4267L59.0342 83.4884L59.0344 83.4882L58.9555 83.4267ZM63.7371 76.1805L63.8234 76.2311L63.8247 76.2288L63.7371 76.1805ZM64.6222 74.5785L64.545 74.5149L64.5391 74.522L64.5347 74.5301L64.6222 74.5785ZM65.3297 74.3889L65.4267 74.3629L65.4232 74.3535L65.3297 74.3889ZM64.8934 75.2135L64.8089 75.1601L64.8082 75.1612L64.8934 75.2135ZM62.1498 79.6894L62.0646 79.6371L62.0645 79.6372L62.1498 79.6894ZM59.2832 83.8949L59.204 83.8338L59.2023 83.8362L59.2832 83.8949ZM48.7443 84.7474L48.8282 84.692L48.8221 84.6845L48.7443 84.7474ZM50.2974 84.129L50.3509 84.2135L50.3577 84.2092L50.3637 84.2038L50.2974 84.129ZM51.6574 82.6019L51.733 82.6674L51.7393 82.6602L51.744 82.6519L51.6574 82.6019ZM53.1489 80.433L53.2313 80.4902L53.2355 80.483L53.1489 80.433ZM53.9245 79.3658L54.0037 79.4268L54.0042 79.4262L53.9245 79.3658ZM54.7531 77.9306L54.6602 77.8918L54.657 77.9031L54.7531 77.9306ZM54.4421 75.638L54.3921 75.7246L54.4037 75.7313L54.4167 75.7347L54.4421 75.638ZM52.4967 76.867L52.5665 76.9386L52.5683 76.9368L52.4967 76.867ZM49.4793 81.2646L49.3896 81.2205L49.3895 81.2206L49.4793 81.2646ZM55.6582 87.6488C55.0166 88.0541 54.4719 88.2534 54.0204 88.2629C53.5756 88.2722 53.2129 88.0976 52.9249 87.7315L52.7677 87.8552C53.0929 88.2684 53.5143 88.4735 54.0246 88.4628C54.5283 88.4523 55.1095 88.2319 55.765 87.8179L55.6582 87.6488ZM52.9325 87.7427C52.4452 86.9128 52.1899 86.0217 52.1661 85.068L51.9662 85.073C51.9908 86.0609 52.2557 86.9851 52.7601 87.844L52.9325 87.7427ZM52.1661 85.0672C52.1337 84.0734 52.2496 83.2656 52.5079 82.6391L52.323 82.5629C52.0502 83.2245 51.9333 84.0631 51.9662 85.0737L52.1661 85.0672ZM52.3383 82.5375C51.8942 83.0769 51.5154 83.5095 51.2016 83.836C50.8864 84.164 50.6415 84.3799 50.4649 84.4907L50.5712 84.6601C50.7697 84.5356 51.0286 84.3047 51.3458 83.9746C51.6645 83.643 52.0469 83.2061 52.4927 82.6646L52.3383 82.5375ZM50.4572 84.496C49.6515 85.1138 48.9955 85.3776 48.4812 85.3275L48.4618 85.5266C49.0547 85.5843 49.7631 85.2802 50.5789 84.6547L50.4572 84.496ZM48.4812 85.3275C48.2265 85.3028 48.0228 85.2049 47.8639 85.0355C47.7032 84.8643 47.5824 84.6135 47.5078 84.2746L47.3125 84.3175C47.3919 84.6787 47.5249 84.9666 47.718 85.1723C47.9128 85.38 48.1628 85.4975 48.4618 85.5266L48.4812 85.3275ZM47.5078 84.2744C47.3496 83.5613 47.3813 82.7597 47.608 81.8672L47.4141 81.818C47.1816 82.7335 47.1461 83.5675 47.3125 84.3177L47.5078 84.2744ZM47.6061 81.8735C48.282 79.7918 49.6427 77.9566 51.6954 76.3684L51.573 76.2102C49.4944 77.8185 48.1063 79.6854 47.4159 81.8117L47.6061 81.8735ZM51.6967 76.3674C52.6088 75.6361 53.3556 75.2256 53.9406 75.1174C54.2309 75.0636 54.4769 75.0852 54.6833 75.1744C54.8894 75.2634 55.0651 75.4237 55.2087 75.6633L55.3802 75.5604C55.2192 75.2919 55.0139 75.0993 54.7626 74.9908C54.5117 74.8823 54.2239 74.8615 53.9042 74.9207C53.2691 75.0383 52.4904 75.4747 51.5716 76.2113L51.6967 76.3674ZM55.2117 75.668C55.634 76.2898 55.6695 77.0016 55.3004 77.8195L55.4827 77.9018C55.8748 77.0329 55.8456 76.2455 55.3772 75.5557L55.2117 75.668ZM55.2936 77.8406C55.205 78.2732 55.201 78.6184 55.3039 78.8592L55.4878 78.7807C55.4098 78.5982 55.4029 78.3038 55.4895 77.8807L55.2936 77.8406ZM55.3084 78.8685C55.3553 78.953 55.369 79.1058 55.319 79.3503C55.2699 79.59 55.1638 79.8984 54.9978 80.2773L55.181 80.3576C55.3495 79.9728 55.4618 79.6498 55.5149 79.3904C55.567 79.1357 55.5666 78.9216 55.4833 78.7714L55.3084 78.8685ZM55.0028 80.2675C54.8625 80.5104 54.6738 80.8838 54.4372 81.3858L54.6182 81.4711C54.8542 80.9702 55.04 80.6029 55.176 80.3675L55.0028 80.2675ZM54.4369 81.3865C54.2228 81.8498 54.0358 82.2892 53.8761 82.7048L54.0627 82.7766C54.2207 82.3656 54.4059 81.9302 54.6185 81.4704L54.4369 81.3865ZM53.8778 82.7006C53.7089 83.0861 53.5715 83.4637 53.4657 83.8334L53.658 83.8884C53.7611 83.5281 53.8953 83.1589 54.061 82.7808L53.8778 82.7006ZM53.4637 83.8418C53.1873 85.2652 53.1084 86.3211 53.2378 86.9985C53.3025 87.3376 53.4222 87.5967 53.6105 87.7553C53.8031 87.9174 54.0502 87.9603 54.3351 87.9022L54.2952 87.7062C54.0529 87.7556 53.8732 87.715 53.7393 87.6023C53.6013 87.486 53.495 87.2791 53.4342 86.961C53.3125 86.324 53.3841 85.3006 53.66 83.88L53.4637 83.8418ZM54.3266 87.9036C54.5691 87.8756 54.8463 87.7563 55.1557 87.5575C55.4664 87.3579 55.8166 87.0735 56.2059 86.7063C56.9845 85.9718 57.9274 84.8984 59.0342 83.4884L58.8769 83.3649C57.7727 84.7716 56.8368 85.8362 56.0686 86.5608C55.6845 86.9231 55.3443 87.1987 55.0476 87.3893C54.7497 87.5807 54.5026 87.682 54.3037 87.7049L54.3266 87.9036ZM59.0344 83.4882C60.468 81.6512 62.0644 79.2317 63.8234 76.2311L63.6509 76.1299C61.8943 79.1263 60.303 81.5376 58.8767 83.3652L59.0344 83.4882ZM63.8247 76.2288L64.7097 74.6268L64.5347 74.5301L63.6496 76.1321L63.8247 76.2288ZM64.6994 74.642C64.7861 74.5368 64.8632 74.4567 64.9308 74.4001C64.9994 74.3426 65.0528 74.3139 65.0919 74.3034C65.127 74.294 65.1473 74.2997 65.1635 74.3109C65.184 74.3251 65.2108 74.3573 65.2361 74.4243L65.4232 74.3535C65.3907 74.2675 65.3446 74.1929 65.2772 74.1463C65.2055 74.0968 65.1229 74.088 65.0401 74.1102C64.9613 74.1313 64.8818 74.1803 64.8024 74.2467C64.7221 74.314 64.6363 74.404 64.545 74.5149L64.6994 74.642ZM65.2331 74.4148C65.2291 74.3999 65.2324 74.3926 65.2304 74.4024C65.2289 74.4096 65.2254 74.4218 65.2184 74.4402C65.2045 74.4769 65.1804 74.5282 65.1448 74.5955C65.074 74.7295 64.9623 74.9173 64.8089 75.1601L64.978 75.2669C65.1322 75.0228 65.2471 74.8298 65.3216 74.689C65.3588 74.6188 65.3871 74.5592 65.4053 74.5114C65.4144 74.4876 65.4219 74.4642 65.4263 74.4425C65.4303 74.4233 65.4344 74.3936 65.4263 74.363L65.2331 74.4148ZM64.8082 75.1612L62.0646 79.6371L62.2351 79.7417L64.9787 75.2658L64.8082 75.1612ZM62.0645 79.6372C61.1055 81.2064 60.152 82.6052 59.204 83.8339L59.3624 83.956C60.3154 82.7207 61.273 81.3158 62.2351 79.7415L62.0645 79.6372ZM59.2023 83.8362C57.7754 85.8016 56.5944 87.067 55.6588 87.6484L55.7644 87.8183C56.7355 87.2148 57.9356 85.9213 59.3641 83.9537L59.2023 83.8362ZM48.6609 84.8025C48.7179 84.8888 48.8166 84.9103 48.9106 84.9052C49.0056 84.9 49.1216 84.8675 49.2546 84.8145C49.5224 84.7079 49.8886 84.5063 50.3509 84.2135L50.2438 84.0445C49.7842 84.3358 49.4306 84.5292 49.1807 84.6287C49.0549 84.6788 48.9626 84.7021 48.8998 84.7055C48.8689 84.7072 48.8501 84.7037 48.8397 84.7C48.8309 84.6968 48.8288 84.6938 48.8278 84.6923L48.6609 84.8025ZM50.3637 84.2038C50.4237 84.1507 50.5689 83.9937 50.7937 83.7413C51.0209 83.4863 51.334 83.1282 51.733 82.6674L51.5818 82.5365C51.183 82.9971 50.8706 83.3543 50.6444 83.6083C50.4158 83.8649 50.28 84.0108 50.231 84.0542L50.3637 84.2038ZM51.744 82.6519C51.7645 82.6165 51.8968 82.4208 52.1472 82.0566C52.3957 81.6953 52.7569 81.1731 53.231 80.49L53.0667 80.376C52.5926 81.0591 52.2311 81.5816 51.9824 81.9432C51.7358 82.302 51.5964 82.5076 51.5708 82.5519L51.744 82.6519ZM53.2355 80.483C53.3235 80.3305 53.5773 79.9806 54.0037 79.4268L53.8452 79.3048C53.4216 79.855 53.1584 80.2166 53.0623 80.383L53.2355 80.483ZM54.0042 79.4262C54.4539 78.8321 54.7396 78.3415 54.8493 77.9581L54.657 77.9031C54.5578 78.2496 54.291 78.7159 53.8447 79.3055L54.0042 79.4262ZM54.8454 77.9691C55.1243 77.3007 55.2455 76.7572 55.19 76.348C55.1619 76.141 55.0882 75.9654 54.9643 75.8273C54.8405 75.6893 54.6727 75.5953 54.4676 75.5413L54.4167 75.7347C54.5922 75.7809 54.7229 75.8577 54.8154 75.9608C54.9078 76.0638 54.9681 76.1999 54.9918 76.3749C55.04 76.7299 54.936 77.2325 54.6608 77.8921L54.8454 77.9691ZM54.4921 75.5514C54.3837 75.4888 54.2553 75.482 54.1184 75.5139C53.9824 75.5456 53.8301 75.6171 53.6632 75.7226C53.3289 75.9338 52.9158 76.2937 52.425 76.7972L52.5683 76.9368C53.0555 76.4369 53.4557 76.0903 53.77 75.8917C53.9272 75.7924 54.058 75.7333 54.1638 75.7087C54.2688 75.6842 54.3411 75.6952 54.3921 75.7246L54.4921 75.5514ZM52.4268 76.7955C51.321 77.8743 50.3091 79.3506 49.3896 81.2205L49.569 81.3088C50.4819 79.4525 51.4816 77.997 52.5665 76.9386L52.4268 76.7955ZM49.3895 81.2206C48.9415 82.1352 48.6528 82.8898 48.5278 83.4821C48.404 84.0687 48.4349 84.5238 48.6666 84.8102L48.8221 84.6845C48.6505 84.4723 48.6023 84.0977 48.7235 83.5234C48.8435 82.9547 49.124 82.2173 49.5691 81.3086L49.3895 81.2206ZM63.5709 81.7856L63.5909 81.6876L63.5818 81.6858L63.5725 81.6856L63.5709 81.7856ZM62.8641 79.9024L62.7641 79.8951L62.7641 79.9022L62.8641 79.9024ZM64.133 75.7711L64.0402 75.7339L64.133 75.7711ZM66.5431 71.1824L66.6237 71.2427L66.6297 71.2324L66.5431 71.1824ZM68.1929 69.9821L68.1293 70.0593L68.1312 70.0607L68.1929 69.9821ZM66.817 74.0915L66.7263 74.0495L66.7262 74.0497L66.817 74.0915ZM65.484 77.2289L65.3861 77.2089L65.3259 77.5028L65.5504 77.3037L65.484 77.2289ZM65.6474 77.084L65.7138 77.1589L65.6474 77.084ZM66.8349 75.856L66.9014 75.931L66.9064 75.9259L66.8349 75.856ZM70.9169 72.7907L70.9153 72.8907L70.9162 72.8907L70.9169 72.7907ZM70.7421 76.4772L70.8291 76.5275L70.8334 76.518L70.7421 76.4772ZM70.1459 77.648L70.0556 77.6047L70.0537 77.6091L70.1459 77.648ZM69.4276 79.3064L69.518 79.349L69.5187 79.3475L69.4276 79.3064ZM68.114 82.8936L68.212 82.9137L68.2123 82.9121L68.114 82.8936ZM68.638 84.4719L68.6029 84.5656L68.6233 84.5732L68.6451 84.5717L68.638 84.4719ZM75.5799 76.7985L75.6613 76.8567L75.663 76.8542L75.5799 76.7985ZM76.6663 75.1931L76.7488 75.2496L76.7491 75.2492L76.6663 75.1931ZM78.1358 73.1312L78.2164 73.1905L78.2178 73.1885L78.1358 73.1312ZM79.9978 70.4586L80.0802 70.5158L80.0844 70.5086L79.9978 70.4586ZM80.4189 70.1436L80.4509 70.0488L80.4222 70.0391L80.393 70.047L80.4189 70.1436ZM80.5856 70.2L80.5536 70.2947L80.5823 70.3044L80.6115 70.2966L80.5856 70.2ZM80.6615 70.483L80.7425 70.5426L80.7481 70.533L80.6615 70.483ZM80.4762 70.7348L80.3956 70.6755L80.3941 70.6776L80.4762 70.7348ZM78.6142 73.4074L78.6401 73.504L78.6754 73.4945L78.6963 73.4646L78.6142 73.4074ZM77.3645 75.1577L77.4474 75.2135L77.4476 75.2133L77.3645 75.1577ZM75.2482 78.2017L75.328 78.2621L75.3293 78.2602L75.2482 78.2017ZM72.8835 81.2618L72.8048 81.2L72.804 81.2011L72.8835 81.2618ZM70.4176 83.9445L70.3535 83.8678L70.4176 83.9445ZM68.5504 84.8998L68.5521 84.7996L68.5465 84.7999L68.5504 84.8998ZM68.0312 79.3773L67.938 79.341L67.9376 79.3418L68.0312 79.3773ZM70.325 74.9208L70.2444 74.8615L70.2424 74.8645L70.325 74.9208ZM70.4807 73.6153L70.4867 73.5152L70.479 73.5153L70.4807 73.6153ZM69.588 74.0567L69.6537 74.1321L69.6543 74.1315L69.588 74.0567ZM65.8404 77.9928L65.9173 78.0567L65.9182 78.0556L65.8404 77.9928ZM64.1267 81.0301L64.2263 81.0204L64.2256 81.0156L64.1267 81.0301ZM63.5725 81.6856C63.4782 81.6841 63.3977 81.6525 63.3268 81.589C63.254 81.5238 63.1878 81.4214 63.1324 81.2738C63.021 80.9772 62.9627 80.5229 62.9641 79.9026L62.7641 79.9022C62.7627 80.5295 62.8208 81.013 62.9451 81.3441C63.0075 81.5103 63.0888 81.6443 63.1934 81.738C63.2999 81.8334 63.4265 81.8832 63.5692 81.8856L63.5725 81.6856ZM62.9638 79.9097C63.0203 79.1367 63.4371 77.7733 64.2258 75.8084L64.0402 75.7339C63.2525 77.6962 62.8234 79.0869 62.7643 79.8951L62.9638 79.9097ZM64.2258 75.8084C65.0123 73.8489 65.8118 72.3281 66.6232 71.2422L66.4629 71.1225C65.6372 72.2277 64.83 73.7661 64.0402 75.7339L64.2258 75.8084ZM66.6297 71.2324C66.9619 70.657 67.2577 70.2832 67.515 70.096C67.6425 70.0033 67.754 69.9611 67.8511 69.9568C67.9457 69.9525 68.0375 69.9837 68.1293 70.0593L68.2565 69.9049C68.1321 69.8025 67.993 69.7502 67.8421 69.757C67.6935 69.7636 67.5448 69.827 67.3973 69.9343C67.1047 70.1472 66.7918 70.5516 66.4565 71.1324L66.6297 71.2324ZM68.1312 70.0607C68.1349 70.0637 68.1488 70.0781 68.1566 70.1277C68.1642 70.1762 68.1638 70.2456 68.1518 70.3392C68.1277 70.5258 68.0601 70.788 67.9461 71.1284C67.7186 71.808 67.3125 72.7811 66.7263 74.0495L66.9078 74.1334C67.4949 72.8633 67.9047 71.8821 68.1358 71.1919C68.2511 70.8474 68.3235 70.5708 68.3501 70.3647C68.3634 70.262 68.366 70.1716 68.3542 70.0967C68.3426 70.023 68.3149 69.9507 68.2546 69.9034L68.1312 70.0607ZM66.7262 74.0497C66.3109 74.9532 65.9917 75.6673 65.769 76.1915C65.5483 76.7111 65.4177 77.0542 65.3861 77.2089L65.582 77.249C65.6087 77.1184 65.7295 76.796 65.9531 76.2697C66.1747 75.7481 66.4929 75.0361 66.9079 74.1332L66.7262 74.0497ZM65.5504 77.3037L65.7138 77.1589L65.5811 77.0092L65.4177 77.1541L65.5504 77.3037ZM65.7138 77.1589C65.8278 77.0577 66.0021 76.8729 66.2346 76.6085L66.0843 76.4764C65.8519 76.7409 65.6848 76.9172 65.5811 77.0092L65.7138 77.1589ZM66.2346 76.6085C66.4648 76.3465 66.687 76.1207 66.9012 75.9308L66.7685 75.7811C66.547 75.9776 66.319 76.2095 66.0843 76.4764L66.2346 76.6085ZM66.9064 75.9259C67.9101 74.8998 68.7489 74.1346 69.4233 73.6282C69.7606 73.3749 70.0545 73.1881 70.3058 73.0656C70.5584 72.9424 70.7602 72.8881 70.9153 72.8907L70.9186 72.6907C70.7183 72.6874 70.4834 72.7564 70.2181 72.8858C69.9515 73.0158 69.6463 73.2106 69.3032 73.4683C68.617 73.9835 67.7701 74.7569 66.7634 75.786L66.9064 75.9259ZM70.9162 72.8907C71.139 72.8923 71.2852 72.9622 71.3766 73.0849C71.4718 73.2126 71.5219 73.416 71.5078 73.713C71.4796 74.3072 71.1982 75.2123 70.6508 76.4364L70.8334 76.518C71.3818 75.2917 71.6774 74.3571 71.7075 73.7225C71.7226 73.4051 71.6721 73.1467 71.537 72.9654C71.3982 72.7791 71.1845 72.6927 70.9177 72.6907L70.9162 72.8907ZM70.6555 76.4272C70.5153 76.67 70.3152 77.0632 70.0557 77.6047L70.236 77.6912C70.4953 77.1502 70.6926 76.7629 70.8287 76.5272L70.6555 76.4272ZM70.0537 77.6091C69.7653 78.2926 69.5263 78.8446 69.3364 79.2653L69.5187 79.3475C69.7095 78.9248 69.9493 78.3711 70.238 77.6868L70.0537 77.6091ZM69.3371 79.2638C68.627 80.7705 68.1848 81.9753 68.0157 82.8751L68.2123 82.9121C68.3766 82.0375 68.8101 80.8509 69.518 79.349L69.3371 79.2638ZM68.016 82.8736C67.9268 83.3096 67.9236 83.6749 68.0188 83.9615C68.1157 84.2536 68.3127 84.4568 68.6029 84.5656L68.6731 84.3783C68.4388 84.2905 68.2863 84.1325 68.2086 83.8985C68.1291 83.659 68.1261 83.3333 68.212 82.9137L68.016 82.8736ZM68.6451 84.5717C68.9336 84.5513 69.291 84.3605 69.7105 84.0301C70.1341 83.6964 70.6364 83.2077 71.2166 82.5663C72.3774 81.2831 73.8592 79.3793 75.6613 76.8566L75.4986 76.7404C73.698 79.2608 72.2214 81.1574 71.0683 82.4321C70.4915 83.0696 69.9979 83.5491 69.5867 83.873C69.1714 84.2002 68.855 84.3563 68.6309 84.3722L68.6451 84.5717ZM75.663 76.8542C76.048 76.2794 76.4099 75.7446 76.7488 75.2496L76.5838 75.1366C76.2444 75.6322 75.8821 76.1676 75.4968 76.7429L75.663 76.8542ZM76.7491 75.2492C77.1102 74.7156 77.5992 74.0294 78.2164 73.1904L78.0553 73.0719C77.4373 73.9119 76.9466 74.6004 76.5835 75.1371L76.7491 75.2492ZM78.2178 73.1885C78.827 72.3175 79.4477 71.4265 80.0799 70.5156L79.9156 70.4016C79.2835 71.3123 78.6629 72.203 78.0539 73.0739L78.2178 73.1885ZM80.0844 70.5086C80.1623 70.3736 80.28 70.2843 80.4447 70.2402L80.393 70.047C80.1804 70.1039 80.0174 70.2247 79.9112 70.4086L80.0844 70.5086ZM80.3868 70.2383L80.5536 70.2947L80.6177 70.1053L80.4509 70.0488L80.3868 70.2383ZM80.6115 70.2966C80.6195 70.2944 80.6228 70.2947 80.6225 70.2946C80.6217 70.2946 80.6177 70.2941 80.6127 70.2912C80.6077 70.2883 80.6053 70.2851 80.6048 70.2844C80.6047 70.2842 80.6065 70.287 80.6086 70.2949L80.8018 70.2432C80.7894 70.1968 80.7637 70.1474 80.7127 70.118C80.6617 70.0886 80.6061 70.091 80.5598 70.1034L80.6115 70.2966ZM80.6086 70.2949C80.6162 70.3231 80.6132 70.3666 80.5749 70.433L80.7481 70.533C80.8018 70.4399 80.828 70.3407 80.8018 70.2432L80.6086 70.2949ZM80.5809 70.4237L80.3956 70.6756L80.5567 70.7941L80.742 70.5422L80.5809 70.4237ZM80.3941 70.6776L78.5322 73.3502L78.6963 73.4646L80.5582 70.792L80.3941 70.6776ZM78.5883 73.3108C78.5623 73.3178 78.543 73.3332 78.5349 73.3398C78.5238 73.3489 78.5126 73.3598 78.5017 73.3712C78.4798 73.3942 78.4533 73.4255 78.4226 73.4639C78.361 73.541 78.2777 73.6532 78.1732 73.7995C77.9641 74.0925 77.6667 74.5268 77.2814 75.102L77.4476 75.2133C77.8326 74.6385 78.1286 74.2062 78.336 73.9157C78.4398 73.7703 78.5206 73.6616 78.5789 73.5887C78.6081 73.552 78.6305 73.526 78.6464 73.5093C78.6545 73.5009 78.6594 73.4964 78.6616 73.4946C78.667 73.4902 78.6582 73.4991 78.6401 73.504L78.5883 73.3108ZM77.2815 75.1018C76.5348 76.2112 75.83 77.225 75.1671 78.1432L75.3293 78.2602C75.9936 77.34 76.6997 76.3244 77.4474 75.2135L77.2815 75.1018ZM75.1685 78.1414C74.4969 79.0286 73.709 80.0481 72.8048 81.2L72.9621 81.3235C73.8668 80.1709 74.6555 79.1504 75.3279 78.2621L75.1685 78.1414ZM72.804 81.2011C71.9337 82.3413 71.1168 83.2295 70.3535 83.8678L70.4818 84.0212C71.2602 83.3703 72.0872 82.4699 72.9629 81.3224L72.804 81.2011ZM70.3535 83.8678C69.9715 84.1872 69.6295 84.4231 69.3271 84.5778C69.0241 84.7328 68.7667 84.8033 68.5521 84.7998L68.5488 84.9998C68.8081 85.0041 69.0988 84.9193 69.4182 84.7559C69.7382 84.5921 70.0929 84.3465 70.4818 84.0212L70.3535 83.8678ZM68.5465 84.7999C68.1216 84.8165 67.8083 84.718 67.5912 84.5197C67.3732 84.3208 67.2364 84.0072 67.1945 83.5617C67.1103 82.666 67.4145 81.2868 68.1247 79.4127L67.9376 79.3418C67.2264 81.2186 66.9065 82.6353 66.9954 83.5804C67.04 84.0553 67.1891 84.4234 67.4563 84.6674C67.7243 84.912 68.0955 85.0177 68.5544 84.9997L68.5465 84.7999ZM68.1243 79.4135C68.7806 77.7264 69.5418 76.2479 70.4077 74.9771L70.2424 74.8645C69.3667 76.1497 68.5987 77.6422 67.938 79.341L68.1243 79.4135ZM70.4056 74.98C70.5618 74.7677 70.6839 74.5787 70.7707 74.4135C70.8569 74.2494 70.9114 74.1028 70.9264 73.9766C70.9417 73.8485 70.9169 73.7305 70.831 73.6438C70.7484 73.5605 70.6264 73.5239 70.4867 73.5155L70.4747 73.7151C70.592 73.7221 70.6561 73.7515 70.689 73.7846C70.7185 73.8144 70.7385 73.8635 70.7278 73.9529C70.7169 74.0443 70.6748 74.1659 70.5936 74.3205C70.513 74.4739 70.3971 74.6541 70.2445 74.8615L70.4056 74.98ZM70.479 73.5153C70.1758 73.5204 69.8558 73.6856 69.5217 73.9819L69.6543 74.1315C69.9737 73.8483 70.2489 73.7192 70.4824 73.7153L70.479 73.5153ZM69.5223 73.9813C68.2333 75.1048 66.9801 76.4212 65.7625 77.93L65.9182 78.0556C67.1294 76.5546 68.3746 75.2469 69.6537 74.1321L69.5223 73.9813ZM65.7634 77.9289C65.1503 78.6677 64.6976 79.2944 64.4077 79.8081C64.121 80.3164 63.9824 80.7332 64.0277 81.0445L64.2256 81.0156C64.1906 80.7756 64.2975 80.4105 64.5819 79.9064C64.8633 79.4076 65.3076 78.7913 65.9173 78.0567L65.7634 77.9289ZM64.0271 81.0397C64.0553 81.3302 64.0198 81.5085 63.9502 81.6031C63.8897 81.6853 63.7843 81.7272 63.5909 81.6876L63.5508 81.8836C63.7853 81.9316 63.9864 81.8913 64.1113 81.7216C64.2269 81.5644 64.2554 81.3212 64.2262 81.0204L64.0271 81.0397ZM84.7976 88.9378L84.7476 89.0244L84.751 89.0262L84.7976 88.9378ZM82.7203 85.147L82.6209 85.1581L82.6211 85.1592L82.7203 85.147ZM82.911 78.8782L82.8139 78.8533L82.8126 78.8603L82.911 78.8782ZM83.678 75.8924L83.5824 75.8627L83.5811 75.8675L83.678 75.8924ZM84.6556 72.7491L84.751 72.7788L84.5709 72.6959L84.6556 72.7491ZM83.6635 74.3292L83.5788 74.276L83.5769 74.2792L83.6635 74.3292ZM83.3056 74.8801L83.3881 74.9366L83.3887 74.9357L83.3056 74.8801ZM82.1721 76.4981L82.097 76.4321L82.0958 76.4334L82.1721 76.4981ZM79.2362 77.9925L79.2115 78.0896L79.2176 78.0908L79.2362 77.9925ZM78.1755 74.7887L78.0768 74.7714L78.0761 74.7784L78.1755 74.7887ZM80.4904 69.4672L80.575 69.5205L80.5751 69.5205L80.4904 69.4672ZM84.5808 65.4898L84.6187 65.5824L84.6197 65.582L84.5808 65.4898ZM86.6662 65.5377L86.6045 65.6163L86.61 65.6207L86.6162 65.6243L86.6662 65.5377ZM87.0192 66.1002L86.9226 66.1261L86.991 66.3816L87.1087 66.1447L87.0192 66.1002ZM88.497 63.1262L88.4081 63.0804L88.4075 63.0817L88.497 63.1262ZM95.5994 50.2031L95.6833 50.2574L95.6843 50.2558L95.5994 50.2031ZM103.069 39.4058L103.147 39.4681L103.147 39.468L103.069 39.4058ZM110.661 30.9515L110.596 30.8758L110.596 30.8759L110.661 30.9515ZM113.007 30.2725L112.978 30.3683L112.981 30.3692L113.007 30.2725ZM114.289 31.8499L114.388 31.8407L114.388 31.839L114.289 31.8499ZM112.857 36.8841L112.767 36.8408L112.767 36.8416L112.857 36.8841ZM98.1007 58.7836L98.1763 58.8491L98.1767 58.8486L98.1007 58.7836ZM89.6159 67.6792L89.5503 67.6036L89.5474 67.6063L89.6159 67.6792ZM87.9602 69.235L88.0266 69.3098L88.0287 69.3079L87.9602 69.235ZM87.0936 70.5287L87.1839 70.572L87.1852 70.5689L87.0936 70.5287ZM86.5135 71.948L86.418 71.9179L86.4173 71.9205L86.5135 71.948ZM86.0908 73.5777L86.1874 73.6037L86.1879 73.6016L86.0908 73.5777ZM85.6993 74.9464L85.7939 74.9788L85.794 74.9785L85.6993 74.9464ZM84.0028 81.8209L83.9035 81.8088L83.9032 81.811L84.0028 81.8209ZM85.2119 88.2201L85.2755 88.1429L85.2726 88.1407L85.2119 88.2201ZM86.6589 88.3379L86.6146 88.2483L86.6127 88.2493L86.6589 88.3379ZM89.0279 86.2372L88.9538 86.1701L88.9532 86.1707L89.0279 86.2372ZM91.2167 83.2748L91.1357 83.2155L91.131 83.2233L91.2167 83.2748ZM95.7726 76.6957L95.6907 76.6383L95.6888 76.6411L95.7726 76.6957ZM101.141 68.4329L101.056 68.3799L101.056 68.3807L101.141 68.4329ZM103.794 64.1836L103.879 64.2365L103.88 64.2336L103.794 64.1836ZM104.476 63.8997L104.573 63.8737L104.57 63.8658L104.476 63.8997ZM104.181 64.6863L104.265 64.7404L104.289 64.7032L104.278 64.6605L104.181 64.6863ZM101.827 68.3503L101.743 68.2962L101.741 68.2988L101.827 68.3503ZM99.6954 71.9039L99.7798 71.9575L99.7811 71.9553L99.6954 71.9039ZM93.648 80.6519L93.7285 80.7112L93.7293 80.7102L93.648 80.6519ZM90.0748 85.805L90.1547 85.8651L90.1551 85.8647L90.0748 85.805ZM88.2153 87.9209L88.1455 87.8493L88.1441 87.8507L88.2153 87.9209ZM87.7833 68.5747L87.6904 68.5377L87.8509 68.6484L87.7833 68.5747ZM89.7312 66.789L89.7988 66.8627L89.7991 66.8624L89.7312 66.789ZM94.0541 62.5471L94.1266 62.6159L94.1269 62.6156L94.0541 62.5471ZM110.245 40.7182L110.158 40.6682L110.158 40.6691L110.245 40.7182ZM112.856 35.3681L112.765 35.3255L112.762 35.3318L112.856 35.3681ZM113.546 31.3413L113.63 31.2872L113.622 31.2754L113.612 31.2661L113.546 31.3413ZM110.694 32.2065L110.626 32.1337L110.624 32.1348L110.694 32.2065ZM108.926 34.0958L109.001 34.1609L109.002 34.1601L108.926 34.0958ZM107.418 36.0162L107.499 36.0755L107.499 36.075L107.418 36.0162ZM106.608 37.1432L106.688 37.2049L106.695 37.1932L106.608 37.1432ZM99.1315 47.5379L99.2157 47.5919L99.2164 47.5907L99.1315 47.5379ZM94.4383 55.1143L94.3517 55.0643L94.4383 55.1143ZM91.5196 60.4459L91.4313 60.3989L91.4304 60.4008L91.5196 60.4459ZM89.0219 65.4625L88.9317 65.4189L88.929 65.4255L89.0219 65.4625ZM80.8802 77.1476L80.9465 77.2224L80.9478 77.2213L80.8802 77.1476ZM83.9262 73.0456L83.843 72.9901L83.8424 72.9911L83.9262 73.0456ZM86.4482 67.3653L86.5453 67.3895L86.5462 67.3854L86.4482 67.3653ZM86.3841 66.3715L86.4718 66.3228L86.4676 66.3164L86.3841 66.3715ZM85.4088 66.1273L85.4418 66.222L85.4481 66.2193L85.4088 66.1273ZM82.4873 69.1849L82.5697 69.2417L82.5716 69.2387L82.4873 69.1849ZM80.5699 72.7823L80.6597 72.8265L80.6617 72.8218L80.5699 72.7823ZM79.6832 75.699L79.5855 75.6779L79.5839 75.6854L79.5834 75.693L79.6832 75.699ZM79.6715 76.4099L79.7715 76.4115L79.7715 76.4082L79.6715 76.4099ZM84.8476 88.8512C83.7285 88.205 83.0461 86.9767 82.8196 85.1348L82.6211 85.1592C82.8519 87.0367 83.5544 88.3355 84.7476 89.0244L84.8476 88.8512ZM82.8197 85.1359C82.5791 82.9855 82.6425 80.9058 83.0093 78.8962L82.8126 78.8603C82.442 80.8901 82.3783 82.9895 82.6209 85.1581L82.8197 85.1359ZM83.0078 78.9031L83.7748 75.9173L83.5811 75.8675L82.8141 78.8533L83.0078 78.9031ZM83.7735 75.9221L84.751 72.7788L84.5601 72.7194L83.5825 75.8627L83.7735 75.9221ZM84.5709 72.6959L83.5788 74.276L83.7482 74.3824L84.7402 72.8023L84.5709 72.6959ZM83.5769 74.2792C83.5329 74.3554 83.4157 74.536 83.2225 74.8244L83.3887 74.9357C83.5807 74.6491 83.7021 74.4625 83.7501 74.3792L83.5769 74.2792ZM83.2231 74.8236C83.0531 75.0718 82.8602 75.3599 82.6444 75.6876L82.8114 75.7976C83.0268 75.4706 83.219 75.1836 83.3881 74.9366L83.2231 74.8236ZM82.6444 75.6876C82.4299 76.0133 82.2476 76.2608 82.097 76.4321L82.2472 76.5641C82.4066 76.3828 82.5948 76.1266 82.8114 75.7976L82.6444 75.6876ZM82.0958 76.4334C81.1059 77.6006 80.1604 78.0655 79.2548 77.8942L79.2176 78.0908C80.229 78.282 81.2408 77.7507 82.2484 76.5628L82.0958 76.4334ZM79.2608 77.8956C78.8491 77.791 78.5565 77.4972 78.3879 76.9879C78.2177 76.4737 78.1771 75.7466 78.275 74.799L78.0761 74.7784C77.977 75.7371 78.0148 76.4971 78.1981 77.0508C78.383 77.6094 78.7193 77.9644 79.2116 78.0894L79.2608 77.8956ZM78.274 74.806C78.5375 73.3033 79.3019 71.5421 80.575 69.5205L80.4058 69.4139C79.1256 71.4466 78.3467 73.233 78.077 74.7714L78.274 74.806ZM80.5751 69.5205C81.8696 67.4616 83.2191 66.1557 84.6187 65.5824L84.5429 65.3973C83.088 65.9932 81.7105 67.3389 80.4057 69.414L80.5751 69.5205ZM84.6197 65.582C85.4815 65.2188 86.1331 65.2463 86.6045 65.6163L86.7279 65.459C86.1751 65.025 85.4364 65.0207 84.542 65.3977L84.6197 65.582ZM86.6162 65.6243C86.7423 65.6971 86.8497 65.8542 86.9226 66.1261L87.1157 66.0744C87.037 65.7804 86.9091 65.5624 86.7162 65.4511L86.6162 65.6243ZM87.1087 66.1447L88.5866 63.1707L88.4075 63.0817L86.9296 66.0557L87.1087 66.1447ZM88.586 63.1719C91.8433 56.8394 94.2087 52.5359 95.6833 50.2574L95.5154 50.1487C94.0347 52.4366 91.6652 56.7485 88.4081 63.0804L88.586 63.1719ZM95.6843 50.2558C98.3429 45.9731 100.831 42.3774 103.147 39.4681L102.991 39.3435C100.668 42.2606 98.1758 45.8631 95.5144 50.1503L95.6843 50.2558ZM103.147 39.468C106.348 35.4432 108.874 32.6313 110.727 31.0271L110.596 30.8759C108.728 32.4929 106.193 35.3171 102.991 39.3435L103.147 39.468ZM110.726 31.0273C111.503 30.3574 112.251 30.1492 112.978 30.3683L113.036 30.1767C112.223 29.9321 111.407 30.1766 110.596 30.8758L110.726 31.0273ZM112.981 30.3692C113.345 30.4649 113.622 30.6363 113.821 30.8802C114.019 31.1247 114.144 31.4493 114.189 31.8608L114.388 31.839C114.34 31.3993 114.205 31.0354 113.976 30.7541C113.747 30.4721 113.43 30.2805 113.032 30.1758L112.981 30.3692ZM114.189 31.8591C114.293 32.9809 113.827 34.6375 112.767 36.8408L112.948 36.9274C114.009 34.7205 114.497 33.021 114.388 31.8407L114.189 31.8591ZM112.767 36.8416C109.555 43.6919 104.642 50.9842 98.0247 58.7186L98.1767 58.8486C104.802 51.1049 109.726 43.7975 112.948 36.9265L112.767 36.8416ZM98.0252 58.7181C94.4473 62.844 91.6228 65.8048 89.5504 67.6037L89.6815 67.7547C91.7649 65.9462 94.597 62.9766 98.1763 58.8491L98.0252 58.7181ZM89.5474 67.6063L87.8917 69.1621L88.0287 69.3079L89.6844 67.7521L89.5474 67.6063ZM87.8939 69.1602C87.5526 69.4627 87.2565 69.9079 87.0021 70.4886L87.1852 70.5689C87.4327 70.0041 87.7142 69.5867 88.0265 69.3098L87.8939 69.1602ZM87.0035 70.4855C86.7428 71.0295 86.5474 71.5072 86.4181 71.9179L86.6089 71.978C86.7344 71.5791 86.9257 71.1106 87.1838 70.5719L87.0035 70.4855ZM86.4173 71.9205C86.3124 72.2873 86.1711 72.832 85.9937 73.5539L86.1879 73.6016C86.3652 72.8804 86.5057 72.3386 86.6096 71.9755L86.4173 71.9205ZM85.9942 73.5517C85.8083 74.2424 85.6786 74.6955 85.6045 74.9144L85.794 74.9785C85.8704 74.7526 86.0017 74.2933 86.1874 73.6037L85.9942 73.5517ZM85.6047 74.9141C84.7151 77.5154 84.1475 79.8139 83.9035 81.8088L84.102 81.8331C84.3439 79.8559 84.9073 77.5714 85.7939 74.9788L85.6047 74.9141ZM83.9032 81.811C83.7339 83.5123 83.7495 84.9045 83.9535 85.9841C84.1573 87.063 84.5518 87.8421 85.1512 88.2996L85.2726 88.1407C84.7282 87.7252 84.3492 87.0013 84.15 85.947C83.951 84.8936 83.9339 83.5226 84.1023 81.8308L83.9032 81.811ZM85.1484 88.2973C85.3778 88.4862 85.6253 88.5947 85.8898 88.6162C86.1538 88.6377 86.4263 88.5719 86.7051 88.4266L86.6127 88.2493C86.3592 88.3813 86.1244 88.4347 85.9061 88.4169C85.6883 88.3992 85.4785 88.3101 85.2755 88.1429L85.1484 88.2973ZM86.7032 88.4276C87.3172 88.124 88.1178 87.4106 89.1026 86.3037L88.9532 86.1707C87.9696 87.2763 87.1909 87.9633 86.6146 88.2483L86.7032 88.4276ZM89.1021 86.3043C89.9129 85.4092 90.6463 84.4165 91.3023 83.3264L91.131 83.2233C90.4812 84.3029 89.7555 85.2851 88.9538 86.1701L89.1021 86.3043ZM91.2973 83.3339C92.927 81.11 94.4468 78.9155 95.8564 76.7503L95.6888 76.6411C94.2813 78.8031 92.7637 80.9946 91.136 83.2157L91.2973 83.3339ZM95.8545 76.7531C97.5139 74.3859 99.3045 71.6298 101.227 68.485L101.056 68.3807C99.1355 71.5228 97.3471 74.2753 95.6907 76.6383L95.8545 76.7531ZM101.226 68.4858L103.879 64.2365L103.709 64.1306L101.056 68.3799L101.226 68.4858ZM103.88 64.2336C103.959 64.0968 104.031 63.9917 104.094 63.9163C104.159 63.8391 104.21 63.8009 104.245 63.7863C104.272 63.7749 104.285 63.779 104.298 63.7894C104.32 63.8063 104.351 63.8477 104.382 63.9335L104.57 63.8658C104.535 63.7672 104.487 63.6821 104.419 63.6304C104.343 63.5722 104.254 63.5658 104.168 63.6016C104.089 63.6344 104.014 63.7014 103.941 63.7874C103.867 63.8752 103.789 63.9912 103.707 64.1336L103.88 64.2336ZM104.379 63.9255C104.389 63.9594 104.386 64.0232 104.35 64.1287L104.54 64.1928C104.579 64.076 104.597 63.9657 104.573 63.8738L104.379 63.9255ZM104.35 64.1287C104.317 64.2274 104.266 64.3155 104.197 64.3938L104.347 64.5258C104.434 64.4277 104.498 64.3165 104.54 64.1928L104.35 64.1287ZM104.197 64.3938C104.115 64.4874 104.054 64.598 104.085 64.7122L104.278 64.6605C104.275 64.6488 104.275 64.6085 104.347 64.5258L104.197 64.3938ZM104.097 64.6323L101.743 68.2962L101.911 68.4043L104.265 64.7404L104.097 64.6323ZM101.741 68.2988L99.6096 71.8524L99.7811 71.9553L101.913 68.4017L101.741 68.2988ZM99.611 71.8502C98.451 73.6754 96.4366 76.5895 93.5667 80.5936L93.7293 80.7102C96.5993 76.7058 98.6166 73.7878 99.7798 71.9575L99.611 71.8502ZM93.5674 80.5926C93.3189 80.9305 92.8089 81.6754 92.039 82.8249L92.2051 82.9362C92.9757 81.7858 93.4831 81.0448 93.7285 80.7112L93.5674 80.5926ZM92.039 82.8249C91.2693 83.9741 90.5878 84.9475 89.9946 85.7454L90.1551 85.8647C90.7509 85.0634 91.4343 84.0871 92.2051 82.9362L92.039 82.8249ZM89.9949 85.7449C89.4264 86.5006 88.8099 87.2021 88.1455 87.8493L88.2851 87.9925C88.957 87.3381 89.5802 86.6289 90.1547 85.8651L89.9949 85.7449ZM88.1441 87.8507C87.5414 88.4621 86.9659 88.8437 86.4182 89.0067C85.8739 89.1686 85.3511 89.1165 84.8442 88.8493L84.751 89.0262C85.3037 89.3176 85.8803 89.3753 86.4752 89.1983C87.0668 89.0223 87.6703 88.6162 88.2865 87.9911L88.1441 87.8507ZM87.8509 68.6484L89.7988 66.8627L89.6636 66.7153L87.7157 68.501L87.8509 68.6484ZM89.7991 66.8624C91.3944 65.3894 92.8369 63.9739 94.1266 62.6159L93.9816 62.4782C92.6953 63.8325 91.256 65.2449 89.6634 66.7155L89.7991 66.8624ZM94.1269 62.6156C100.586 55.7582 105.988 48.4755 110.332 40.7673L110.158 40.6691C105.823 48.3623 100.43 55.6321 93.9813 62.4785L94.1269 62.6156ZM110.332 40.7682C111.416 38.8908 112.288 37.1028 112.949 35.4043L112.762 35.3318C112.106 37.0192 111.238 38.798 110.159 40.6682L110.332 40.7682ZM112.946 35.4105C113.409 34.4237 113.701 33.5875 113.818 32.9039C113.935 32.222 113.881 31.677 113.63 31.2872L113.462 31.3953C113.673 31.7242 113.735 32.2096 113.621 32.8701C113.508 33.5287 113.224 34.3466 112.765 35.3256L112.946 35.4105ZM113.612 31.2661C113.235 30.935 112.804 30.8298 112.331 30.9567L112.382 31.1499C112.789 31.0409 113.151 31.1277 113.48 31.4164L113.612 31.2661ZM112.331 30.9567C111.896 31.0733 111.325 31.4741 110.626 32.1337L110.763 32.2793C111.462 31.6204 112 31.2523 112.382 31.1499L112.331 30.9567ZM110.624 32.1348C109.954 32.7876 109.362 33.4198 108.849 34.0315L109.002 34.1601C109.511 33.5543 110.098 32.927 110.764 32.2781L110.624 32.1348ZM108.85 34.0307C108.36 34.6019 107.856 35.2442 107.337 35.9574L107.499 36.075C108.015 35.3654 108.516 34.7274 109.001 34.1609L108.85 34.0307ZM107.338 35.957C107.09 36.2929 106.899 36.555 106.764 36.7433C106.63 36.929 106.548 37.0479 106.521 37.0932L106.695 37.1932C106.714 37.1588 106.79 37.05 106.926 36.86C107.061 36.6726 107.252 36.4112 107.499 36.0755L107.338 35.957ZM106.529 37.0821C103.051 41.5867 100.556 45.0549 99.0465 47.4852L99.2164 47.5907C100.721 45.1694 103.21 41.7077 106.687 37.2043L106.529 37.0821ZM99.0473 47.484C96.9081 50.8208 95.3427 53.3479 94.3517 55.0643L94.5249 55.1643C95.5135 53.452 97.0769 50.9282 99.2157 47.5919L99.0473 47.484ZM94.3517 55.0643C93.6833 56.222 92.7098 58.0004 91.4313 60.3989L91.6078 60.4929C92.8861 58.0949 93.8583 56.3189 94.5249 55.1643L94.3517 55.0643ZM91.4304 60.4008C90.3069 62.6228 89.474 64.2957 88.9319 65.419L89.112 65.506C89.6533 64.3844 90.4855 62.7128 91.6088 60.491L91.4304 60.4008ZM88.929 65.4255L87.6904 68.5377L87.8762 68.6117L89.1149 65.4995L88.929 65.4255ZM80.9478 77.2213C81.5808 76.6402 82.6027 75.2617 84.01 73.1002L83.8424 72.9911C82.4325 75.1566 81.4237 76.5128 80.8125 77.0739L80.9478 77.2213ZM84.0094 73.1012C85.1941 71.3269 86.0395 69.4229 86.5453 67.3895L86.3512 67.3412C85.8511 69.3518 85.0152 71.2346 83.843 72.9901L84.0094 73.1012ZM86.5462 67.3854C86.6357 66.9478 86.6188 66.5882 86.4716 66.323L86.2967 66.42C86.4101 66.6242 86.4358 66.9271 86.3503 67.3453L86.5462 67.3854ZM86.4676 66.3164C86.3437 66.1287 86.1865 66.0038 85.9944 65.9557C85.804 65.9081 85.5939 65.9395 85.3695 66.0354L85.4481 66.2193C85.6471 66.1343 85.8111 66.116 85.9459 66.1498C86.0789 66.1831 86.1977 66.2707 86.3007 66.4266L86.4676 66.3164ZM85.3758 66.0329C84.9385 66.1855 84.474 66.5255 83.982 67.0404C83.4891 67.5563 82.9628 68.2539 82.403 69.1311L82.5716 69.2387C83.1274 68.3679 83.6458 67.6819 84.1266 67.1786C84.6085 66.6743 85.047 66.3595 85.4417 66.2218L85.3758 66.0329ZM82.405 69.1282C81.745 70.0858 81.1029 71.2912 80.478 72.7427L80.6617 72.8218C81.2831 71.3783 81.9193 70.1854 82.5697 69.2417L82.405 69.1282ZM80.4801 72.7382C80.1691 73.3705 79.8716 74.3526 79.5855 75.6779L79.781 75.7201C80.0662 74.3986 80.3598 73.4361 80.6596 72.8264L80.4801 72.7382ZM79.5834 75.693C79.5709 75.9017 79.567 76.1413 79.5715 76.4116L79.7715 76.4082C79.767 76.1417 79.7709 75.9074 79.783 75.705L79.5834 75.693ZM79.5715 76.4082C79.5674 76.6553 79.6006 76.9089 79.6701 77.1685L79.8633 77.1168C79.7981 76.8733 79.7677 76.6383 79.7715 76.4115L79.5715 76.4082ZM79.6701 77.1685C79.7421 77.4372 79.8835 77.6225 80.1171 77.6504L80.1408 77.4518C80.0262 77.4381 79.9261 77.3512 79.8633 77.1168L79.6701 77.1685ZM80.1171 77.6504C80.2337 77.6643 80.3616 77.6253 80.4946 77.5539C80.6293 77.4816 80.7801 77.37 80.9465 77.2224L80.8138 77.0728C80.6535 77.2149 80.5157 77.3155 80.4 77.3777C80.2826 77.4407 80.1983 77.4586 80.1408 77.4518L80.1171 77.6504Z" fill="#B39D96"/>
</svg>
