<?xml version="1.0" encoding="UTF-8"?>
<!DOCTYPE svg PUBLIC "-//W3C//DTD SVG 1.1//EN" "http://www.w3.org/Graphics/SVG/1.1/DTD/svg11.dtd">
<!-- Creator: CorelDRAW 2020 (64-Bit) -->
<svg xmlns="http://www.w3.org/2000/svg" xml:space="preserve" width="60px" height="60px" version="1.1" style="shape-rendering:geometricPrecision; text-rendering:geometricPrecision; image-rendering:optimizeQuality; fill-rule:evenodd; clip-rule:evenodd"
viewBox="0 0 60 60"
 xmlns:xlink="http://www.w3.org/1999/xlink"
 xmlns:xodm="http://www.corel.com/coreldraw/odm/2003">
 <defs>
  <style type="text/css">
   <![CDATA[
    .fil1 {fill:none}
    .fil0 {fill:#5C7762;fill-rule:nonzero;fill-opacity:0.800000}
   ]]>
  </style>
 </defs>
 <g id="Слой_x0020_1">
  <metadata id="CorelCorpID_0Corel-Layer"/>
  <g id="_2877263009600">
   <path class="fil0" d="M38.37 53.95c0.06,0 0.11,0 0.18,0l0.08 -0.02 9.11 -2.66c2.17,-0.82 5.7,-2.91 7.92,-4.04 0.1,-0.05 0.19,-0.13 0.25,-0.24 0.06,-0.09 0.09,-0.21 0.09,-0.33 0,-0.44 -0.09,-0.96 -0.31,-1.45 -0.17,-0.41 -0.43,-0.8 -0.79,-1.12l-0.2 -0.18 0 -23.29c0,-0.18 -0.07,-0.34 -0.19,-0.46 -0.1,-0.11 -0.25,-0.18 -0.42,-0.18 -0.16,0 -0.32,0.07 -0.42,0.18 -0.12,0.12 -0.18,0.28 -0.18,0.46l0 22.75 -0.7 -0.02c-1.17,0.01 -2.53,0.47 -3.73,1.02 -1.23,0.56 -2.29,1.21 -2.81,1.55l-0.16 0.1 -6.11 0 -4.96 -4.06 7.35 0c0.17,0 0.32,-0.07 0.42,-0.18 0.12,-0.11 0.19,-0.27 0.19,-0.45l0 -2.67c0,-0.91 -0.36,-1.74 -0.95,-2.34 -0.58,-0.59 -1.38,-0.96 -2.26,-0.96l-11.72 0c-0.09,0 -0.16,0.02 -0.23,0.05 -0.07,0.03 -0.14,0.07 -0.2,0.13l-5.03 5.15 -3.05 0 0 -0.7c0,-0.18 -0.07,-0.34 -0.19,-0.45 -0.1,-0.11 -0.25,-0.18 -0.42,-0.18l-5.9 0 0 -32.04 15.71 0 0 10.02c0,0.07 0.01,0.14 0.04,0.2 0.04,0.13 0.12,0.24 0.23,0.32 0.1,0.07 0.22,0.12 0.35,0.12 0.06,0 0.12,-0.01 0.18,-0.03l3.72 -1.27 3.71 1.27c0.06,0.02 0.12,0.03 0.18,0.03 0.13,0 0.25,-0.05 0.35,-0.12 0.11,-0.08 0.19,-0.19 0.24,-0.31 0.02,-0.06 0.03,-0.13 0.03,-0.21l0 -10.02 15.72 0 0 7.3c0,0.18 0.06,0.34 0.18,0.46 0.1,0.11 0.25,0.18 0.42,0.18 0.17,0 0.32,-0.07 0.42,-0.18 0.12,-0.12 0.19,-0.28 0.19,-0.46l0 -7.94c0,-0.18 -0.07,-0.34 -0.19,-0.45 -0.1,-0.11 -0.25,-0.18 -0.42,-0.18l-41.67 0c-0.17,0 -0.32,0.07 -0.42,0.18 -0.12,0.11 -0.19,0.27 -0.19,0.45l0 32.68 -7.2 0c-0.17,0 -0.32,0.07 -0.43,0.18 -0.11,0.11 -0.18,0.27 -0.18,0.45 0,0.18 0.07,0.34 0.18,0.46 0.11,0.11 0.26,0.18 0.43,0.18l13.71 0 0 12.05 -13.71 0c-0.17,0 -0.32,0.07 -0.43,0.18 -0.11,0.12 -0.18,0.28 -0.18,0.46 0,0.18 0.07,0.34 0.18,0.45 0.11,0.11 0.26,0.18 0.43,0.18l14.32 0c0.17,0 0.32,-0.07 0.42,-0.18 0.12,-0.11 0.19,-0.27 0.19,-0.45l0 -2.03 3.24 0 15.59 2.66zm-1.69 -45.94l0 8.53 -3.11 -1.06c-0.06,-0.02 -0.12,-0.03 -0.19,-0.03 -0.07,0 -0.13,0.01 -0.19,0.03l-3.11 1.06 0 -9.15 6.6 0 0 0.62zm-16.4 34.03l2.68 0c0.08,0 0.16,-0.02 0.23,-0.05 0.07,-0.03 0.14,-0.07 0.2,-0.13l5.03 -5.15 11.47 0c0.55,0 1.06,0.23 1.42,0.6 0.36,0.37 0.58,0.87 0.58,1.43l0 2.03 -8.51 0c-0.12,0 -0.24,0.04 -0.34,0.11 -0.1,0.07 -0.18,0.18 -0.23,0.3 -0.04,0.12 -0.05,0.26 -0.01,0.4 0.03,0.13 0.1,0.24 0.2,0.32l6.52 5.33c0.05,0.05 0.11,0.08 0.17,0.11 0.06,0.02 0.13,0.03 0.2,0.03l6.51 0c0.06,0 0.12,-0.01 0.17,-0.03 0.06,-0.01 0.11,-0.04 0.16,-0.07 0.63,-0.43 2.01,-1.27 3.43,-1.87 0.96,-0.4 1.95,-0.7 2.75,-0.7 0.45,0 0.8,0.11 1.08,0.27 0.36,0.21 0.59,0.5 0.73,0.82l0.23 0.53c-2.49,1.27 -4.98,2.53 -7.46,3.81 -2.98,0.87 -5.96,1.74 -8.94,2.62 -6.53,-1.12 -12.39,-2.65 -18.89,-2.65l0 -8.06 0.62 0z"/>
   <rect class="fil1" width="60" height="60"/>
  </g>
 </g>
</svg>
