<svg xmlns="http://www.w3.org/2000/svg" viewBox="0 0 60 60"><title>trigger-mass</title><g style="opacity:0.8"><path d="M56.4411,40.204l1.38532-1.06488h0c1.52069-1.17108,1.95037-2.29511,1.83337-3.37079a7.12614,7.12614,0,0,0-1.61591-3.25482l.00007-.00006L55.044,28.5199l-.00013-.00012a6.54416,6.54416,0,0,0-2.88256-2.511c-.9834-.31812-2.08649-.09039-3.461.97284l-.00012.00006-1.48938,1.14923-.00751.0058-.0083.00488a9.80935,9.80935,0,0,1-4.23419,1.00861,12.39188,12.39188,0,0,0-3.4104.615l-.00007-.00006-5.03112,1.93908-.01575.006-.01648.0025c-.1864.02728-.36121.0506-.52582.07257a8.04275,8.04275,0,0,0-1.27136.23413l-.00043.00006a1.90922,1.90922,0,0,0-1.1875,1.09143l-.0003.00067a2.61307,2.61307,0,0,0,1.08374,2.929h0a5.0304,5.0304,0,0,0,4.3009.71948l.00018-.00012,2.53131-.59149a2.10376,2.10376,0,0,1,1.656.39392l.0069.00439.00647.00507L50.75641,44.237l.00018.00018a1.45865,1.45865,0,0,1,.4679,1.46509h.00012l-.00018.00049V45.703h-.00006a2.08794,2.08794,0,0,1-1.11829,1.44812l-.00031.00019a1.41908,1.41908,0,0,1-1.52172-.11078l-.00013.00018-4.05859-3.22339-.00012-.00012a.58931.58931,0,0,0-.47821-.13867.66244.66244,0,0,0-.52661.67035.62065.62065,0,0,0,.25683.4472l2.81,2.23242.00061.00049-.00061-.00049.00061.00061a1.4664,1.4664,0,0,1,.47,1.4646h.00006l-.00012.00031v.00036h-.00006a1.9482,1.9482,0,0,1-1.13062,1.45331l-.001.00043a1.90123,1.90123,0,0,1-.88477.12238,1.5025,1.5025,0,0,1-.75952-.33088l-.00012-.00012L41.6012,47.60028h0a.573.573,0,0,0-.4715-.135.63747.63747,0,0,0-.37958.24262.65383.65383,0,0,0-.1416.4342.59688.59688,0,0,0,.24591.43689l.00018.00024L42.792,50.12158l.00122.001a1.45472,1.45472,0,0,1,.46253,1.45251l.00018.00007-.00024.00073V51.576h0a2.093,2.093,0,0,1-1.11835,1.45154l-.00025.00006a1.40153,1.40153,0,0,1-1.49414-.09632l-.00006.00013L39.0675,51.68652a.58245.58245,0,0,0-.475-.13635.6356.6356,0,0,0-.38092.24036.64658.64658,0,0,0-.1413.4328.61027.61027,0,0,0,.2489.44165l1.11188.8836h0l.00012.00013h0a.7558.7558,0,0,1,.288.39788.94738.94738,0,0,1-.00855.42249h.00006l-.00006.00024-.00012.0008h-.00012a1.80127,1.80127,0,0,1-.96265,1.24945l.00006.00012-.00055.00018-.00036.00025L38.74683,55.62a1.15465,1.15465,0,0,1-1.25183-.06958l-.00037-.00031-1.23932-.9834-.1062-.08429.07312-.11413A2.47879,2.47879,0,0,0,36.43,52.1474l-.00018-.00049a2.96554,2.96554,0,0,0-2.0271-1.88128l-.13031-.04181.02972-.13361a2.94061,2.94061,0,0,0-.09509-1.605l-.00012-.00006a3.25066,3.25066,0,0,0-2.116-2.0423h0a2.83614,2.83614,0,0,0-.993-.1109l-.16058.01007.00128-.16089a2.96314,2.96314,0,0,0-.16492-.99988l-.00006-.00024a3.256,3.256,0,0,0-2.11725-2.04572,2.89321,2.89321,0,0,0-.99609-.111l-.16089.00983.00183-.1612a2.9603,2.9603,0,0,0-.16223-.99871,3.25485,3.25485,0,0,0-2.11707-2.042h0a2.6719,2.6719,0,0,0-2.50885.48267l-.12426.10584-.09491-.13282a4.95222,4.95222,0,0,0-.46527-.56311l-.09-.09332.07922-.10248,7.68738-9.95141.05591-.07227.0899.01648a6.34768,6.34768,0,0,0,1.28479.034c.553-.02558,1.20258-.08417,1.88318-.16108,1.3609-.1538,2.83875-.38049,3.901-.56189l.00031-.00012a.62943.62943,0,0,0,.50134-.72027.63921.63921,0,0,0-.17493-.403.45484.45484,0,0,0-.41247-.1131l-.002.00031c-.412.06219-.81269.12579-1.206.18823a29.06493,29.06493,0,0,1-5.42676.51776l-.05029-.00128-.03943-.03131-1.556-1.23883-.00006.00006A3.79619,3.79619,0,0,0,25.054,26.01367,6.41627,6.41627,0,0,0,22.18909,28.481L22.189,28.481l-3.05182,3.94793-.00013.00013a6.48933,6.48933,0,0,0-1.68017,3.4154,3.87441,3.87441,0,0,0,1.76379,3.17121l.01068.00854-.00036.00055h0a.30589.30589,0,0,0,.03229.02716l.0061.00439-.00012.00013,1.548,1.232.00086.00073a3.3499,3.3499,0,0,1,.84851.955l.05511.09619-.0758.08093-.802.85578h0a2.76268,2.76268,0,0,0-.521,2.79522h-.00006a3.23391,3.23391,0,0,0,2.11749,2.03809,2.91221,2.91221,0,0,0,.99286.11414l.15942-.00843-.00152.15961a2.92061,2.92061,0,0,0,.166,1.00238l.00031.00092a3.25063,3.25063,0,0,0,2.12,2.03955,2.89857,2.89857,0,0,0,.99359.11084l.16059-.0094-.00177.16089A3.00131,3.00131,0,0,0,27.191,51.684a3.25209,3.25209,0,0,0,2.11731,2.04224l.00091.00018h0a2.85484,2.85484,0,0,0,1.13813.10773l.13116-.014.03064.12836a2.97048,2.97048,0,0,0,2.0304,2.25335v.00006a2.55232,2.55232,0,0,0,1.46118.03583,2.52224,2.52224,0,0,0,1.11322-.74329l.09387-.10137.1087.08538,1.4231,1.11768h0a2.386,2.386,0,0,0,2.42889.14587v-.00006A3.04938,3.04938,0,0,0,40.91711,54.518l.028-.13221.1344.0141a3.16334,3.16334,0,0,0,3.41785-2.97442l.00824-.16565.16406.02478a3.0915,3.0915,0,0,0,3.60589-2.77332L48.298,48.32l.18006.0686a2.74756,2.74756,0,0,0,2.1369-.10638h0a3.25376,3.25376,0,0,0,1.79755-2.33594l.00012-.00061a2.72968,2.72968,0,0,0-.91071-2.684l-4.47528-3.55554-.31079-.24689.39636-.02039a18.80011,18.80011,0,0,0,2.10218-.2677l.00573-.0014.00006.00049h.00006c.41541-.06909.81879-.13617,1.1952-.17951l.01031-.00116V38.99a.57625.57625,0,0,0,.4613-.22357.69468.69468,0,0,0-.09039-.88465.57043.57043,0,0,0-.4953-.12146l-.00891.00147-.00006-.00031c-.567.06025-1.096.14545-1.595.22583H48.6972v.00013c-.56622.09118-1.0971.17688-1.59149.20929v-.00013a4.21122,4.21122,0,0,1-2.638-.555l-.00018-.00018a14.083,14.083,0,0,1-1.26355-.98694,13.37731,13.37731,0,0,0-1.49408-1.14355h0a3.35888,3.35888,0,0,0-2.56268-.54682l-.00061.00018-2.534.59089v-.00007a3.73856,3.73856,0,0,1-3.28882-.49969l-.0003-.00031a1.55088,1.55088,0,0,1-.72077-1.175c.029-.39832.3783-.65351.88367-.76441l.0105-.00232.013.08905-.01288-.08874,1.348-.19586,5.134-1.98865h.00019a12.30556,12.30556,0,0,1,3.28644-.5694,11.11453,11.11453,0,0,0,4.07806-.85669l.112-.05719.0758.10041L55.1629,39.64227l.07331.097-.07972.0918a9.38788,9.38788,0,0,1-2.039,1.76458h0a.59614.59614,0,0,0-.28686.41.66089.66089,0,0,0,.09729.44842.63716.63716,0,0,0,.353.28082.57173.57173,0,0,0,.48322-.087h.00012a10.56214,10.56214,0,0,0,2.65-2.41718l.01185-.015ZM21.08459,38.731l-.09277.12-.119-.09417-.858-.6792a4.4679,4.4679,0,0,1-1.09814-1.1452,1.68564,1.68564,0,0,1-.2497-1.01209h-.00012l.00006-.00031-.00006-.00091h.00024a2.99294,2.99294,0,0,1,.39063-1.179,11.08948,11.08948,0,0,1,1.02881-1.54187l3.052-3.9508h.00012a9.90208,9.90208,0,0,1,1.26111-1.40088,2.56129,2.56129,0,0,1,1.20679-.65045v-.00006a2.61086,2.61086,0,0,1,2.20178.81176l.854.67585.11634.092-.0907.11743Zm3.19,6.85089-.00019.00012-.00061.00067-.00012-.00006a1.42658,1.42658,0,0,1-1.49188.33783l-.00061-.00018a2.06594,2.06594,0,0,1-1.31342-1.26752h-.00006l-.00006-.0003-.00024-.00049.00012-.00006a1.45485,1.45485,0,0,1,.25409-1.5163h0l.00006-.00012.00012-.00012.00012-.00019h0l.00049-.00049.00238-.0025.00934-.01.03595-.03857.13269-.142c.11224-.12.26764-.28632.44031-.47119.34552-.36969.7605-.81378,1.03863-1.111l.00013.00012a1.242,1.242,0,0,1,.72918-.4079,1.77883,1.77883,0,0,1,.7583.07208v-.00006l.00043.00018.00153.00031-.00006.0003a1.87671,1.87671,0,0,1,1.3269,1.262l.00018.00061a1.47287,1.47287,0,0,1-.25457,1.51983l-.00007-.00006L24.2746,45.58191Zm3.43951,3.30878-.00091.001a1.44775,1.44775,0,0,1-1.495.33789l-.00128-.00042a2.08817,2.08817,0,0,1-1.31659-1.27228l-.00024-.00049a1.46366,1.46366,0,0,1,.25439-1.51337l-.00006-.00006,1.66327-1.776.00006.00006a1.1791,1.1791,0,0,1,.73016-.39257,2.474,2.474,0,0,1,.74427.04968V44.3241l.00036.00012.00037.00006v.00006a1.898,1.898,0,0,1,1.33447,1.27307l.00031.0008a1.4711,1.4711,0,0,1-.25312,1.51586l-.00049.00055Zm3.42078,3.31421-.00159.00183-.00006-.00006a1.42779,1.42779,0,0,1-1.47815.32543,2.07732,2.07732,0,0,1-1.3208-1.26843h0v-.00012L28.334,51.263l.00013-.00006a1.45344,1.45344,0,0,1,.255-1.51367h0l.00012-.00012.00025-.00037.00006.00006,1.666-1.778h0l.00006-.00007.00025-.00024.00006.00006a1.1731,1.1731,0,0,1,.72937-.3894,2.512,2.512,0,0,1,.74536.04992,1.90137,1.90137,0,0,1,1.33484,1.26978l.00024.00073a1.47091,1.47091,0,0,1-.22168,1.4693l-.00427.00507.00427-.00507-.00024-.00024h0l-.00415.00525Zm3.97522,1.6156-.003.00347h0l-.85669.93311-.00275.003L34.24762,54.76a1.22233,1.22233,0,0,1-1.26215.27692l.00006-.00013A1.76372,1.76372,0,0,1,31.863,53.96362H31.863a1.24725,1.24725,0,0,1,.21911-1.29474l-.00006-.00006.82538-.88769.0003-.00043a1.03732,1.03732,0,0,1,.627-.34112,1.767,1.767,0,0,1,.63849.05291v.00006a1.48314,1.48314,0,0,1,.68359.39435,1.7808,1.7808,0,0,1,.44129.6817h0v.00013l.00042.00079-.00018.00006A1.24481,1.24481,0,0,1,35.11011,53.8205ZM56.2514,38.79272l-.11987.09235-.09131-.12067-7.5-9.91882-.08954-.11829.11744-.09082.86065-.66558a3.66584,3.66584,0,0,1,1.51911-.764,1.9324,1.9324,0,0,1,1.24371.16608,3.49018,3.49018,0,0,1,1.00214.79589c.30578.33124.597.71711.88855,1.10383l.00024.0003,2.99579,3.99048h0a10.92349,10.92349,0,0,1,1.00928,1.556,3.06286,3.06286,0,0,1,.37884,1.1864v.00085a1.697,1.697,0,0,1-.26385,1.00666,4.48952,4.48952,0,0,1-1.11091,1.13177l-.00024.00031-.00006-.00006Z" style="fill:#5c7762"/><path d="M28.04871,55.88751l-.00592.00019v-.00013H11.36151V46.57471a.60571.60571,0,1,0-1.21142,0V56.5069a.61172.61172,0,0,0,.604.62042H28.04993v.00018h0a.6201.6201,0,1,0-.00122-1.24Z" style="fill:#5c7762"/><path d="M10.15009,41.57037a.60571.60571,0,1,0,1.21142,0V17.286h11.7406a.613.613,0,0,0,.60669-.61749V7.84479a.61306.61306,0,0,0-.6145-.6272h-.00043a.612.612,0,0,0-.59509.62695v8.20234h-10.41L12.3,15.7995,21.99738,4.44025l.04492-.05262h12.094a.61881.61881,0,1,0,0-1.23761H21.76685a.60268.60268,0,0,0-.45044.21265L21.3161,3.363,10.29633,16.25751a.62787.62787,0,0,0-.14624.40826v24.9046Z" style="fill:#5c7762"/><path d="M39.04193,4.38763h8.80689v19.553l-.01722-.00079.017.00079a.60683.60683,0,1,0,1.21106-.00128l-.0003-.00567h.00018V3.775A.619.619,0,0,0,48.45422,3.15h-9.413a.61881.61881,0,1,0,.00073,1.23761Z" style="fill:#5c7762"/><path d="M48.44019,51.95508H48.44a.61558.61558,0,0,0-.59552.63025v3.30224H43.87921l-.00592-.00006a.62008.62008,0,1,0,0,1.23987l.00592-.00018v.00012h4.57532a.61379.61379,0,0,0,.60394-.62152V52.58392A.614.614,0,0,0,48.44019,51.95508Z" style="fill:#5c7762"/></g></svg>