<svg width="60" height="60" viewBox="0 0 60 60" fill="none" xmlns="http://www.w3.org/2000/svg">
<g opacity="0.8">
<path d="M50.5736 32.1517C50.5394 32.1562 50.5047 32.1562 50.4705 32.1517C50.4105 32.1379 50.3537 32.1123 50.3036 32.0766C50.2534 32.0408 50.2108 31.9955 50.1781 31.9433C50.1455 31.8911 50.1234 31.8329 50.1133 31.7721C50.1031 31.7114 50.1051 31.6492 50.1189 31.5892C50.4972 29.943 50.7045 28.2623 50.7377 26.5735C50.7377 26.4492 50.7871 26.33 50.875 26.2421C50.9629 26.1542 51.0821 26.1048 51.2064 26.1048C51.3308 26.1048 51.45 26.1542 51.5379 26.2421C51.6258 26.33 51.6752 26.4492 51.6752 26.5735C51.6425 28.3281 51.4305 30.0747 51.0424 31.786C51.0186 31.8918 50.9588 31.986 50.8734 32.0527C50.7879 32.1193 50.682 32.1543 50.5736 32.1517Z" fill="#5C7762"/>
<path d="M51.2113 27.0376C51.087 27.0376 50.9678 26.9882 50.8799 26.9003C50.792 26.8124 50.7426 26.6932 50.7426 26.5689V26.3579C50.7426 26.2595 50.7426 26.1657 50.7426 26.0673C50.746 23.594 50.373 21.1346 49.6363 18.7735C49.599 18.6548 49.6104 18.5261 49.668 18.4158C49.7256 18.3055 49.8246 18.2226 49.9433 18.1853C50.0621 18.148 50.1907 18.1594 50.3011 18.2169C50.4114 18.2745 50.4943 18.3736 50.5316 18.4923C51.2973 20.9428 51.6861 23.4953 51.6848 26.0626V26.3814V26.5782C51.6823 26.7017 51.6312 26.8193 51.5425 26.9053C51.4539 26.9913 51.3348 27.0389 51.2113 27.0376Z" fill="#5C7762"/>
<path d="M50.1048 19.1016C50.0014 19.1063 49.8994 19.0767 49.8146 19.0173C49.7298 18.958 49.667 18.8722 49.6361 18.7735C48.0608 13.7926 44.9416 9.44218 40.7298 6.35158C40.6735 6.31692 40.6252 6.27073 40.588 6.21605C40.5508 6.16137 40.5256 6.09944 40.514 6.03432C40.5025 5.96921 40.5048 5.90239 40.5209 5.83824C40.537 5.7741 40.5665 5.7141 40.6075 5.66216C40.6484 5.61023 40.6999 5.56755 40.7585 5.53693C40.8171 5.50631 40.8815 5.48843 40.9476 5.48448C41.0136 5.48053 41.0797 5.49059 41.1415 5.51401C41.2034 5.53742 41.2596 5.57366 41.3064 5.62033C45.6756 8.82926 48.9099 13.3458 50.5408 18.5156C50.5776 18.6338 50.5662 18.7616 50.5091 18.8714C50.4521 18.9811 50.3539 19.0639 50.2361 19.1016C50.1927 19.1094 50.1482 19.1094 50.1048 19.1016Z" fill="#5C7762"/>
<path d="M46.1721 41.5547C46.0707 41.5547 45.972 41.5218 45.8909 41.461C45.8413 41.4237 45.7997 41.3769 45.7683 41.3234C45.737 41.2698 45.7166 41.2106 45.7083 41.1491C45.7 41.0877 45.704 41.0251 45.7201 40.9652C45.7361 40.9053 45.7639 40.8492 45.8018 40.8001C46.493 39.8871 47.1195 38.9269 47.6768 37.9266C47.7076 37.8728 47.7487 37.8255 47.7977 37.7875C47.8468 37.7495 47.9028 37.7216 47.9627 37.7052C48.0225 37.6889 48.085 37.6845 48.1466 37.6924C48.2081 37.7002 48.2675 37.7201 48.3214 37.7508C48.3752 37.7816 48.4225 37.8227 48.4605 37.8718C48.4985 37.9208 48.5264 37.9769 48.5427 38.0367C48.5591 38.0966 48.5634 38.159 48.5556 38.2206C48.5478 38.2821 48.5279 38.3415 48.4971 38.3954C47.9186 39.4356 47.267 40.4334 46.5471 41.3813C46.502 41.4369 46.4448 41.4815 46.3798 41.5116C46.3148 41.5416 46.2437 41.5564 46.1721 41.5547Z" fill="#5C7762"/>
<path d="M48.089 38.6204C48.0089 38.6216 47.9298 38.6022 47.8594 38.5641C47.8055 38.5343 47.758 38.4941 47.7196 38.4459C47.6813 38.3978 47.6528 38.3425 47.6358 38.2833C47.6189 38.2241 47.6137 38.1621 47.6207 38.1009C47.6277 38.0397 47.6467 37.9805 47.6765 37.9266C48.0844 37.2001 48.45 36.4501 48.7734 35.7094C48.8238 35.5951 48.9175 35.5054 49.034 35.4601C49.0916 35.4377 49.1532 35.4269 49.215 35.4282C49.2769 35.4296 49.3379 35.4431 49.3945 35.468C49.4511 35.493 49.5023 35.5288 49.5451 35.5735C49.5879 35.6182 49.6214 35.6709 49.6438 35.7286C49.6663 35.7863 49.6771 35.8478 49.6757 35.9096C49.6744 35.9715 49.6608 36.0325 49.6359 36.0891C49.2976 36.8753 48.919 37.6435 48.5015 38.3907C48.4593 38.4621 48.3988 38.5209 48.3263 38.5613C48.2539 38.6016 48.172 38.622 48.089 38.6204Z" fill="#5C7762"/>
<path d="M49.2001 36.361C49.1372 36.3621 49.0747 36.3493 49.0173 36.3235C48.9039 36.2741 48.8145 36.1817 48.7689 36.0667C48.7232 35.9517 48.7249 35.8232 48.7736 35.7094C49.3367 34.3726 49.7821 32.9893 50.1048 31.5751C50.1186 31.515 50.1442 31.4583 50.1799 31.4081C50.2157 31.358 50.261 31.3153 50.3132 31.2827C50.3654 31.25 50.4236 31.228 50.4844 31.2178C50.5451 31.2077 50.6073 31.2096 50.6673 31.2235C50.7274 31.2373 50.7841 31.2628 50.8343 31.2986C50.8844 31.3343 50.9271 31.3796 50.9597 31.4319C50.9924 31.4841 51.0144 31.5423 51.0245 31.603C51.0347 31.6638 51.0328 31.726 51.0189 31.786C50.6872 33.2587 50.2244 34.6989 49.6361 36.0891C49.5978 36.172 49.5361 36.2418 49.4587 36.2901C49.3812 36.3384 49.2914 36.363 49.2001 36.361Z" fill="#5C7762"/>
<path d="M26.3156 51.4266C20.4079 51.4295 14.6844 49.3708 10.132 45.6057C5.57957 41.8405 2.48365 36.6049 1.37807 30.8016C1.35507 30.6773 1.3824 30.5489 1.45405 30.4447C1.52569 30.3406 1.63578 30.2691 1.7601 30.2461C1.88442 30.2231 2.01279 30.2504 2.11696 30.3221C2.22113 30.3937 2.29257 30.5038 2.31557 30.6281C3.2047 35.2688 5.41967 39.5522 8.69247 42.9603C11.9653 46.3683 16.1556 48.7548 20.7564 49.831C25.3573 50.9072 30.1714 50.6269 34.6163 49.0242C39.0611 47.4214 42.9463 44.5648 45.8015 40.8C45.8376 40.748 45.8838 40.7038 45.9374 40.6702C45.991 40.6365 46.0509 40.6141 46.1134 40.6042C46.1759 40.5943 46.2398 40.5971 46.3012 40.6126C46.3626 40.6281 46.4202 40.6558 46.4706 40.6941C46.5209 40.7325 46.563 40.7806 46.5943 40.8356C46.6256 40.8907 46.6453 40.9515 46.6525 41.0144C46.6596 41.0773 46.6539 41.141 46.6358 41.2016C46.6176 41.2622 46.5873 41.3186 46.5468 41.3672C44.1907 44.5033 41.1347 47.0459 37.6223 48.7923C34.1099 50.5388 30.2382 51.4408 26.3156 51.4266Z" fill="#5C7762"/>
<path d="M14.2175 4.77193C14.1145 4.76844 14.0156 4.73112 13.936 4.66575C13.8563 4.60038 13.8005 4.51059 13.777 4.41028C13.7535 4.30996 13.7637 4.2047 13.8061 4.11078C13.8484 4.01686 13.9205 3.93951 14.0113 3.89069C17.7822 1.80005 22.023 0.703125 26.3347 0.703125C30.6464 0.703125 34.8872 1.80005 38.6581 3.89069C38.7669 3.95285 38.8465 4.05567 38.8795 4.17655C38.9125 4.29742 38.8961 4.42644 38.8339 4.53522C38.7718 4.644 38.6689 4.72363 38.548 4.75659C38.4272 4.78956 38.2982 4.77316 38.1894 4.711C34.5577 2.69709 30.4733 1.64041 26.3206 1.64041C22.1679 1.64041 18.0835 2.69709 14.4519 4.711C14.381 4.7528 14.2998 4.77391 14.2175 4.77193Z" fill="#5C7762"/>
<path d="M1.4064 26.5313C1.28208 26.5313 1.16285 26.4819 1.07494 26.394C0.987035 26.3061 0.937649 26.1869 0.937649 26.0626C0.924162 22.1414 1.82658 18.2713 3.57301 14.7606C5.31944 11.2498 7.86162 8.19542 10.997 5.8407C11.0962 5.7719 11.2182 5.74403 11.3374 5.76291C11.4567 5.78178 11.564 5.84594 11.6372 5.94202C11.7103 6.0381 11.7435 6.15869 11.7299 6.27866C11.7163 6.39863 11.657 6.50873 11.5642 6.58601C8.54401 8.85364 6.09524 11.7954 4.41307 15.1768C2.7309 18.5582 1.86184 22.2859 1.87515 26.0626C1.87515 26.1869 1.82576 26.3061 1.73786 26.394C1.64995 26.4819 1.53072 26.5313 1.4064 26.5313Z" fill="#5C7762"/>
<path d="M11.283 6.68448C11.2102 6.68448 11.1384 6.66754 11.0734 6.635C11.0083 6.60245 10.9516 6.5552 10.908 6.49698C10.8329 6.3981 10.8001 6.27347 10.8168 6.15044C10.8335 6.0274 10.8983 5.91602 10.997 5.84073C11.9556 5.12202 12.9627 4.47047 14.0111 3.89073C14.065 3.85995 14.1244 3.84009 14.1859 3.83226C14.2475 3.82444 14.3099 3.82881 14.3698 3.84514C14.4296 3.86146 14.4857 3.88941 14.5347 3.92739C14.5838 3.96538 14.6249 4.01265 14.6556 4.06651C14.6864 4.12038 14.7063 4.17977 14.7141 4.24131C14.7219 4.30286 14.7176 4.36533 14.7012 4.42519C14.6849 4.48504 14.657 4.54108 14.619 4.59013C14.581 4.63918 14.5337 4.68027 14.4799 4.71105C13.478 5.26835 12.5163 5.89487 11.6017 6.58605C11.5112 6.65684 11.3977 6.69187 11.283 6.68448Z" fill="#5C7762"/>
<path d="M50.1047 19.1017C50.0278 19.1012 49.9522 19.0819 49.8846 19.0453C49.8169 19.0088 49.7593 18.9561 49.7168 18.8921C49.6743 18.828 49.6482 18.7544 49.6408 18.6779C49.6335 18.6014 49.645 18.5242 49.6745 18.4532C49.704 18.3822 49.7505 18.3195 49.8099 18.2707C49.8693 18.2219 49.9398 18.1885 50.0152 18.1733C50.0906 18.1582 50.1686 18.1619 50.2422 18.184C50.3158 18.2061 50.3829 18.246 50.4375 18.3001C50.4724 18.3384 50.5023 18.3809 50.5266 18.4267C50.5616 18.4982 50.5779 18.5775 50.5738 18.6571C50.5697 18.7366 50.5454 18.8138 50.5031 18.8814C50.4609 18.9489 50.4022 19.0046 50.3325 19.0431C50.2627 19.0817 50.1844 19.1018 50.1047 19.1017Z" fill="#5C7762"/>
<path d="M50.105 19.1016C50.0286 19.1022 49.9533 19.0842 49.8855 19.0491C49.8176 19.0139 49.7594 18.9628 49.7159 18.9C47.627 15.858 44.8764 13.3284 41.6705 11.5009C38.4646 9.67342 34.8865 8.59546 31.2046 8.34787C27.5227 8.10027 23.8326 8.68947 20.4108 10.0713C16.9891 11.4531 13.9246 13.5917 11.4472 16.3266C11.4056 16.3737 11.3552 16.4121 11.2988 16.4397C11.2424 16.4673 11.1811 16.4836 11.1184 16.4875C11.0557 16.4914 10.9929 16.4829 10.9335 16.4626C10.8741 16.4422 10.8193 16.4103 10.7722 16.3688C10.7251 16.3272 10.6866 16.2768 10.659 16.2204C10.6314 16.164 10.6152 16.1027 10.6113 16.04C10.6074 15.9773 10.6158 15.9145 10.6362 15.8551C10.6566 15.7957 10.6884 15.7409 10.73 15.6938C13.3024 12.8549 16.4841 10.6351 20.0366 9.20089C23.589 7.76665 27.42 7.15513 31.2424 7.41219C35.0648 7.66924 38.7794 8.78819 42.1078 10.6852C45.4362 12.5821 48.292 15.2079 50.4612 18.3657C50.51 18.4359 50.5386 18.5182 50.5439 18.6035C50.5493 18.6889 50.5312 18.7741 50.4916 18.8499C50.452 18.9257 50.3924 18.9892 50.3193 19.0336C50.2462 19.0779 50.1624 19.1015 50.0769 19.1016H50.105Z" fill="#5C7762"/>
<path d="M51.2111 27.0376C51.1285 27.0379 51.0473 27.0164 50.9756 26.9753C50.904 26.9341 50.8446 26.8748 50.8033 26.8032C48.6616 23.0567 45.5692 19.9418 41.8383 17.773C38.1074 15.6043 33.8702 14.4586 29.5548 14.4517C26.2726 14.4401 23.0222 15.0952 20.0006 16.3771C16.979 17.6591 14.2493 19.5412 11.9767 21.9095C11.8897 21.999 11.7707 22.0503 11.6458 22.052C11.521 22.0538 11.4006 22.0059 11.3111 21.9189C11.2216 21.8318 11.1703 21.7128 11.1685 21.588C11.1668 21.4632 11.2147 21.3427 11.3017 21.2532C13.663 18.7963 16.498 16.8438 19.6354 15.5136C22.7727 14.1834 26.1472 13.5032 29.5548 13.5142C34.0359 13.5209 38.4358 14.7103 42.31 16.9622C46.1841 19.2141 49.3953 22.4487 51.6189 26.3392C51.68 26.4468 51.6961 26.5742 51.6636 26.6937C51.6311 26.8131 51.5527 26.9148 51.4454 26.9767C51.374 27.0172 51.2932 27.0382 51.2111 27.0376Z" fill="#5C7762"/>
<path d="M13.1533 26.7703C13.4121 26.7703 13.622 26.5605 13.622 26.3016C13.622 26.0427 13.4121 25.8328 13.1533 25.8328C12.8944 25.8328 12.6845 26.0427 12.6845 26.3016C12.6845 26.5605 12.8944 26.7703 13.1533 26.7703Z" fill="#5C7762"/>
<path d="M50.5736 32.1516C50.4947 32.151 50.4173 32.1305 50.3484 32.092C50.2796 32.0534 50.2216 31.9982 50.1798 31.9313C48.2875 28.9603 45.7757 26.4331 42.8163 24.5226C39.8569 22.6122 36.5196 21.3637 33.033 20.8625C29.5463 20.3613 25.9926 20.6192 22.6148 21.6187C19.2371 22.6181 16.1152 24.3354 13.4626 26.6532C13.3693 26.7351 13.2473 26.7767 13.1234 26.7688C12.9995 26.7609 12.8838 26.7041 12.8017 26.611C12.7197 26.5177 12.6782 26.3957 12.6861 26.2718C12.694 26.1479 12.7507 26.0322 12.8439 25.9501C15.5978 23.5421 18.8395 21.7577 22.3472 20.7191C25.8548 19.6805 29.5455 19.4122 33.1665 19.9326C36.7875 20.453 40.2532 21.7498 43.3264 23.7342C46.3996 25.7186 49.0077 28.3437 50.972 31.4297C51.039 31.5342 51.0618 31.661 51.0354 31.7823C51.009 31.9035 50.9357 32.0094 50.8314 32.0766C50.7546 32.1262 50.665 32.1523 50.5736 32.1516Z" fill="#5C7762"/>
<path d="M49.2051 36.3611C49.1339 36.3614 49.0635 36.3456 48.9993 36.3147C48.9352 36.2839 48.8789 36.2388 48.8347 36.1829C47.9842 35.0947 47.0433 34.0802 46.0222 33.1501C45.9302 33.0662 45.8753 32.9492 45.8696 32.8248C45.8639 32.7004 45.9079 32.5788 45.9918 32.4868C46.0757 32.3948 46.1927 32.3399 46.3171 32.3342C46.4415 32.3285 46.5631 32.3725 46.6551 32.4564C47.7137 33.4277 48.689 34.4861 49.5707 35.6204C49.6468 35.7182 49.6811 35.842 49.6662 35.965C49.6513 36.088 49.5883 36.2 49.491 36.2767C49.4074 36.3352 49.307 36.3648 49.2051 36.3611Z" fill="#5C7762"/>
<path d="M29.8173 40.9734C29.693 40.9734 29.5738 40.9241 29.4859 40.8362C29.398 40.7482 29.3486 40.629 29.3486 40.5047C29.3486 40.3804 29.398 40.2612 29.4859 40.1732C29.5738 40.0853 29.693 40.0359 29.8173 40.0359C29.9416 40.0359 30.0609 40.0853 30.1488 40.1732C30.2367 40.2612 30.2861 40.3804 30.2861 40.5047C30.2861 40.629 30.2367 40.7482 30.1488 40.8362C30.0609 40.9241 29.9416 40.9734 29.8173 40.9734Z" fill="#5C7762"/>
<path d="M11.5878 11.9063C11.4635 11.9188 11.3393 11.8813 11.2426 11.8022C11.1459 11.7231 11.0846 11.6088 11.0722 11.4845C11.0597 11.3601 11.0972 11.236 11.1763 11.1393C11.2554 11.0426 11.3697 10.9813 11.494 10.9688C13.4565 10.581 15.4576 10.4236 17.4565 10.5001C17.5809 10.5001 17.7001 10.5495 17.788 10.6374C17.8759 10.7253 17.9253 10.8445 17.9253 10.9688C17.9253 11.0932 17.8759 11.2124 17.788 11.3003C17.7001 11.3882 17.5809 11.4376 17.4565 11.4376C15.5307 11.368 13.6034 11.5254 11.7144 11.9063H11.5878Z" fill="#5C7762"/>
<path d="M11.583 11.9064C11.4647 11.8915 11.3565 11.832 11.2805 11.7402C11.2044 11.6483 11.1663 11.5309 11.1737 11.4119C11.1812 11.2929 11.2337 11.1812 11.3207 11.0996C11.4076 11.018 11.5223 10.9725 11.6416 10.9725C11.7608 10.9725 11.8756 11.018 11.9625 11.0996C12.0494 11.1812 12.1019 11.2929 12.1094 11.4119C12.1169 11.5309 12.0787 11.6483 12.0027 11.7402C11.9266 11.832 11.8185 11.8915 11.7002 11.9064H11.6392H11.583Z" fill="#5C7762"/>
<path d="M31.0547 8.3391C30.9935 8.33836 30.9329 8.32562 30.8766 8.3016C25.1291 5.92479 18.6931 5.8209 12.8719 8.01098C12.814 8.03272 12.7525 8.0428 12.6907 8.04066C12.6289 8.03851 12.5682 8.02417 12.512 7.99847C12.4558 7.97277 12.4053 7.93621 12.3632 7.89089C12.3212 7.84557 12.2886 7.79239 12.2672 7.73441C12.2248 7.61815 12.23 7.48982 12.2818 7.37741C12.3336 7.265 12.4278 7.17765 12.5438 7.13441C18.5876 4.86034 25.2697 4.96758 31.2375 7.43441C31.3399 7.47479 31.4248 7.54992 31.4774 7.64662C31.5299 7.74332 31.5468 7.85544 31.525 7.96332C31.5032 8.07121 31.4441 8.16798 31.3582 8.23668C31.2722 8.30539 31.1647 8.34165 31.0547 8.3391Z" fill="#5C7762"/>
<path d="M12.6988 8.04377C12.6005 8.04402 12.5046 8.01339 12.4247 7.95619C12.3448 7.89899 12.2849 7.81812 12.2535 7.72502C12.2144 7.60874 12.2224 7.48175 12.2758 7.37133C12.3293 7.2609 12.4239 7.17584 12.5394 7.13439C12.6557 7.09194 12.784 7.09719 12.8964 7.149C13.0088 7.20082 13.0962 7.29498 13.1394 7.41096C13.1815 7.52428 13.1782 7.64949 13.1301 7.76042C13.0821 7.87135 12.993 7.95943 12.8816 8.00627H12.8488C12.8007 8.02534 12.7502 8.03795 12.6988 8.04377Z" fill="#5C7762"/>
<path d="M24.947 45.8063C24.9083 45.8135 24.8686 45.8135 24.8299 45.8063C20.7864 44.7655 17.0624 42.7426 13.9884 39.9171C10.9144 37.0917 8.58538 33.551 7.20814 29.6094C5.8309 25.6679 5.448 21.4472 6.09342 17.3222C6.73884 13.1971 8.39262 9.29511 10.908 5.96257C10.9852 5.87991 11.0897 5.82797 11.2023 5.81633C11.3148 5.80469 11.4277 5.83414 11.5202 5.89925C11.6128 5.96435 11.6786 6.06072 11.7056 6.17056C11.7327 6.28041 11.7191 6.39633 11.6674 6.49694C9.24279 9.70676 7.64831 13.4656 7.02548 17.4397C6.40265 21.4138 6.77074 25.4802 8.09707 29.2779C9.4234 33.0756 11.6669 36.487 14.6285 39.2092C17.59 41.9315 21.1779 43.8804 25.0736 44.8829C25.1979 44.8978 25.3112 44.9615 25.3886 45.0599C25.4659 45.1584 25.501 45.2836 25.4861 45.4079C25.4712 45.5322 25.4075 45.6455 25.309 45.7229C25.2106 45.8002 25.0854 45.8353 24.9611 45.8204L24.947 45.8063Z" fill="#5C7762"/>
<path d="M31.158 46.5844C30.0279 46.584 28.8989 46.5105 27.7783 46.3641C27.717 46.3561 27.6578 46.3359 27.6043 46.3049C27.5507 46.2738 27.5039 46.2325 27.4664 46.1833C27.4289 46.134 27.4016 46.0778 27.3859 46.018C27.3703 45.9581 27.3666 45.8957 27.3752 45.8344C27.3915 45.7114 27.456 45.5999 27.5544 45.5244C27.6528 45.4488 27.7771 45.4154 27.9002 45.4313C34.2829 46.2829 40.7442 44.5872 45.8861 40.711C45.9856 40.6358 46.1108 40.6032 46.2344 40.6203C46.3579 40.6375 46.4695 40.703 46.5447 40.8024C46.6199 40.9019 46.6526 41.0271 46.6354 41.1506C46.6183 41.2742 46.5528 41.3858 46.4533 41.461C42.0546 44.7998 36.6803 46.6 31.158 46.5844Z" fill="#5C7762"/>
<path d="M36.4595 41.7141C36.3352 41.7141 36.216 41.6647 36.1281 41.5768C36.0402 41.4889 35.9908 41.3697 35.9908 41.2453C35.9908 41.121 36.0402 41.0018 36.1281 40.9139C36.216 40.826 36.3352 40.7766 36.4595 40.7766C37.9395 40.7549 39.4144 40.598 40.8658 40.3078C40.9273 40.2958 40.9907 40.2961 41.0521 40.3085C41.1136 40.321 41.172 40.3455 41.224 40.3805C41.276 40.4155 41.3206 40.4605 41.3553 40.5128C41.3899 40.565 41.4139 40.6236 41.4259 40.6852C41.4379 40.7467 41.4377 40.8101 41.4252 40.8715C41.4128 40.933 41.3883 40.9914 41.3533 41.0434C41.3182 41.0954 41.2733 41.14 41.221 41.1747C41.1687 41.2093 41.1102 41.2333 41.0486 41.2453C39.5423 41.538 38.0127 41.6949 36.4783 41.7141H36.4595Z" fill="#5C7762"/>
<path d="M11.5875 11.9063H11.4938C11.4334 11.894 11.3761 11.8699 11.3251 11.8355C11.2741 11.801 11.2303 11.7569 11.1964 11.7055C11.1624 11.6541 11.1389 11.5966 11.1272 11.5361C11.1155 11.4757 11.1158 11.4135 11.1281 11.3532C11.4 10.0118 11.7809 8.69496 12.2672 7.41568C12.3113 7.29882 12.4001 7.20427 12.5139 7.15285C12.6278 7.10142 12.7574 7.09733 12.8742 7.14146C12.9911 7.18559 13.0856 7.27434 13.1371 7.38818C13.1885 7.50202 13.1926 7.63163 13.1485 7.74849C12.6763 8.97966 12.3078 10.2481 12.0469 11.5407C12.0234 11.6448 11.9651 11.7378 11.8815 11.8043C11.798 11.8708 11.6943 11.9068 11.5875 11.9063Z" fill="#5C7762"/>
<path d="M11.6393 22.0501C11.5303 22.0526 11.4239 22.0169 11.3383 21.9493C11.2528 21.8817 11.1934 21.7864 11.1706 21.6798C10.4479 18.2821 10.4304 14.7721 11.119 11.3673C11.1439 11.243 11.2171 11.1336 11.3226 11.0633C11.4281 10.993 11.5572 10.9675 11.6815 10.9923C11.8058 11.0172 11.9152 11.0904 11.9855 11.1959C12.0558 11.3014 12.0814 11.4305 12.0565 11.5548C11.3892 14.8403 11.4067 18.228 12.1081 21.5064C12.1235 21.6239 12.0939 21.7428 12.0252 21.8394C11.9565 21.9359 11.8538 22.0028 11.7378 22.0267L11.6393 22.0501Z" fill="#5C7762"/>
<path d="M15.558 31.0688C15.4824 31.0687 15.408 31.0503 15.3411 31.0152C15.2741 30.9801 15.2167 30.9293 15.1736 30.8672C14.214 29.4923 13.3928 28.0258 12.722 26.4891C12.6723 26.3747 12.6701 26.2453 12.7158 26.1292C12.7615 26.0132 12.8514 25.9201 12.9658 25.8704C13.0802 25.8206 13.2096 25.8184 13.3256 25.8641C13.4417 25.9098 13.5348 25.9997 13.5845 26.1141C14.2243 27.5944 15.0094 29.0076 15.9283 30.3329C15.977 30.4031 16.0056 30.4854 16.011 30.5707C16.0163 30.6561 15.9982 30.7413 15.9586 30.8171C15.919 30.8929 15.8595 30.9564 15.7864 31.0008C15.7133 31.0451 15.6294 31.0687 15.5439 31.0688H15.558Z" fill="#5C7762"/>
<path d="M12.708 8.03916C12.652 8.03965 12.5965 8.03012 12.5439 8.01103C12.4859 7.98965 12.4327 7.95701 12.3874 7.91499C12.3421 7.87298 12.3055 7.82241 12.2798 7.76622C12.2541 7.71002 12.2398 7.64929 12.2376 7.58753C12.2355 7.52577 12.2456 7.46419 12.2673 7.40635C12.6985 6.25967 13.2124 5.1458 13.8048 4.07353C13.867 3.96475 13.9698 3.88512 14.0907 3.85216C14.2116 3.81919 14.3406 3.83559 14.4494 3.89775C14.5581 3.95991 14.6378 4.06274 14.6707 4.18361C14.7037 4.30449 14.6873 4.4335 14.6251 4.54228C14.0559 5.57546 13.5624 6.64859 13.1486 7.75322C13.1121 7.83943 13.0506 7.91274 12.9721 7.96371C12.8935 8.01467 12.8016 8.04095 12.708 8.03916Z" fill="#5C7762"/>
<path d="M36 41.7422C33.8769 41.7441 31.7619 41.4795 29.7047 40.9547C29.6434 40.9404 29.5856 40.914 29.5348 40.8769C29.484 40.8398 29.4411 40.7929 29.4088 40.7389C29.3765 40.6849 29.3554 40.625 29.3467 40.5627C29.3381 40.5004 29.3421 40.437 29.3584 40.3762C29.3748 40.3155 29.4032 40.2587 29.442 40.2091C29.4808 40.1596 29.5292 40.1184 29.5842 40.0879C29.6393 40.0575 29.6999 40.0385 29.7625 40.0319C29.825 40.0254 29.8883 40.0316 29.9484 40.05C31.9312 40.5521 33.9687 40.8056 36.0141 40.8047H36.2531H36.4641C36.5884 40.8047 36.7076 40.8541 36.7955 40.942C36.8834 41.0299 36.9328 41.1491 36.9328 41.2734C36.9328 41.3978 36.8834 41.517 36.7955 41.6049C36.7076 41.6928 36.5884 41.7422 36.4641 41.7422H36.2765H36Z" fill="#5C7762"/>
<path d="M44.8173 40.1297C44.7216 40.13 44.628 40.101 44.5492 40.0465C44.4704 39.992 44.4102 39.9147 44.3767 39.825C44.3548 39.7675 44.3445 39.7062 44.3464 39.6446C44.3482 39.5831 44.3621 39.5225 44.3874 39.4663C44.4126 39.4102 44.4487 39.3596 44.4935 39.3174C44.5383 39.2751 44.591 39.2422 44.6486 39.2203C45.754 38.8084 46.8273 38.3148 47.8595 37.7438C47.9683 37.6816 48.0973 37.6652 48.2182 37.6982C48.3391 37.7311 48.4419 37.8108 48.5041 37.9195C48.5662 38.0283 48.5826 38.1573 48.5496 38.2782C48.5167 38.3991 48.437 38.5019 48.3283 38.5641C47.2558 39.1548 46.1419 39.667 44.9955 40.0969C44.9391 40.1204 44.8784 40.1316 44.8173 40.1297Z" fill="#5C7762"/>
<path d="M13.1534 26.7703C13.0619 26.7707 12.9723 26.7442 12.8957 26.6942C12.8191 26.6442 12.7587 26.5729 12.7221 26.4891C12.0569 24.9401 11.5466 23.3292 11.1987 21.6797C11.1726 21.5554 11.1969 21.4258 11.2664 21.3194C11.3358 21.2131 11.4447 21.1386 11.569 21.1125C11.6933 21.0864 11.8229 21.1108 11.9293 21.1802C12.0357 21.2497 12.1101 21.3585 12.1362 21.4828C12.4742 23.0727 12.9721 24.6243 13.6221 26.1141C13.6644 26.2309 13.6584 26.3598 13.6057 26.4723C13.553 26.5848 13.4577 26.6718 13.3409 26.7141C13.2824 26.7442 13.2188 26.7633 13.1534 26.7703Z" fill="#5C7762"/>
<path d="M40.9456 41.2454C40.8212 41.2572 40.6973 41.2191 40.6011 41.1396C40.5048 41.06 40.4441 40.9455 40.4323 40.8212C40.4205 40.6968 40.4585 40.5729 40.5381 40.4767C40.6177 40.3804 40.7322 40.3197 40.8565 40.3079C42.1489 40.0463 43.4173 39.6779 44.6487 39.2063C44.7063 39.1845 44.7675 39.1742 44.8291 39.176C44.8906 39.1778 44.9512 39.1918 45.0074 39.217C45.0635 39.2423 45.1141 39.2783 45.1564 39.3231C45.1986 39.3679 45.2315 39.4206 45.2534 39.4782C45.2752 39.5358 45.2856 39.5971 45.2837 39.6586C45.2819 39.7201 45.2679 39.7807 45.2427 39.8369C45.2175 39.893 45.1814 39.9436 45.1366 39.9859C45.0918 40.0281 45.0391 40.061 44.9815 40.0829C43.7013 40.5771 42.3828 40.9659 41.0393 41.2454H40.9456Z" fill="#5C7762"/>
<path d="M29.8171 40.9688C29.7797 40.9733 29.742 40.9733 29.7046 40.9688C23.8083 39.4567 18.6514 35.8768 15.1733 30.8813C15.1026 30.7793 15.0753 30.6534 15.0972 30.5313C15.1192 30.4092 15.1887 30.3007 15.2905 30.2297C15.3925 30.159 15.5184 30.1317 15.6405 30.1536C15.7627 30.1756 15.8711 30.2451 15.9421 30.3469C19.2993 35.1531 24.2689 38.5959 29.9483 40.05C30.0727 40.0656 30.1857 40.1299 30.2626 40.2288C30.3396 40.3277 30.374 40.4531 30.3585 40.5774C30.343 40.7017 30.2787 40.8148 30.1798 40.8917C30.0809 40.9686 29.9555 41.0031 29.8312 40.9875L29.8171 40.9688Z" fill="#5C7762"/>
<path d="M48.2672 59.2921C43.111 59.1515 41.5781 57.2484 41.1328 56.1234C40.5938 54.764 41.0203 53.1656 42.2438 51.9515C43.6172 50.5875 46.3781 49.575 49.3031 48.5015C52.9406 47.1656 57.061 45.6515 57.8813 43.4671C58.0138 43.0673 58.0548 42.6428 58.0012 42.2249C57.9477 41.8071 57.801 41.4066 57.5719 41.0531C55.8235 37.8515 48.4875 38.0672 48.4125 38.0718C48.351 38.074 48.2896 38.064 48.2319 38.0424C48.1742 38.0209 48.1213 37.9881 48.0763 37.9461C47.9853 37.8613 47.9317 37.7438 47.9274 37.6195C47.923 37.4952 47.9682 37.3742 48.0531 37.2832C48.1379 37.1922 48.2554 37.1387 48.3797 37.1343C48.7031 37.1343 56.3485 36.8953 58.3969 40.6078C58.6912 41.0784 58.8764 41.609 58.9389 42.1606C59.0014 42.7122 58.9395 43.2707 58.7578 43.7953C57.7875 46.3828 53.6391 47.9062 49.6266 49.3828C46.8141 50.4187 44.1328 51.3984 42.9047 52.6172C41.9672 53.5546 41.6063 54.7734 42.0047 55.7765C42.3656 56.6859 43.6594 58.2281 48.2906 58.3546C48.415 58.3546 48.5342 58.404 48.6221 58.4919C48.71 58.5799 48.7594 58.6991 48.7594 58.8234C48.7594 58.9477 48.71 59.0669 48.6221 59.1549C48.5342 59.2428 48.415 59.2921 48.2906 59.2921H48.2672Z" fill="#5C7762"/>
<path d="M46.3547 33.2766C46.2369 33.2775 46.1231 33.234 46.0359 33.1547C44.3028 31.5723 42.3498 30.2492 40.2375 29.2266C40.1291 29.1705 40.0469 29.0743 40.0084 28.9584C39.9698 28.8426 39.978 28.7163 40.0311 28.6064C40.0842 28.4965 40.1781 28.4117 40.2928 28.3699C40.4075 28.3282 40.5339 28.3328 40.6453 28.3829C42.8378 29.4472 44.8662 30.8206 46.6687 32.461C46.7149 32.5024 46.7524 32.5525 46.779 32.6084C46.8057 32.6644 46.821 32.7251 46.824 32.787C46.8271 32.8489 46.8178 32.9108 46.7968 32.9691C46.7758 33.0274 46.7434 33.0809 46.7015 33.1266C46.6573 33.1743 46.6036 33.2123 46.5439 33.2381C46.4842 33.264 46.4197 33.2771 46.3547 33.2766Z" fill="#5C7762"/>
<path d="M25.8001 27.0516C25.6758 27.0609 25.5529 27.0204 25.4584 26.9391C25.3639 26.8578 25.3056 26.7423 25.2962 26.618C25.2869 26.4936 25.3274 26.3707 25.4087 26.2762C25.49 26.1817 25.6055 26.1234 25.7298 26.1141C26.9961 25.9251 28.2745 25.8296 29.5548 25.8281C30.2814 25.8281 31.0548 25.8656 31.8986 25.95C32.0229 25.9618 32.1374 26.0225 32.217 26.1188C32.2966 26.215 32.3346 26.339 32.3228 26.4633C32.311 26.5876 32.2503 26.7021 32.154 26.7817C32.0578 26.8613 31.9338 26.8993 31.8095 26.8875C30.9751 26.8078 30.2251 26.7703 29.5314 26.7703C28.2981 26.7709 27.0666 26.8634 25.847 27.0469L25.8001 27.0516Z" fill="#5C7762"/>
<path d="M40.4253 29.2688C40.3554 29.2684 40.2866 29.2524 40.2237 29.222C37.5917 27.9393 34.7487 27.1452 31.8331 26.8782C31.7715 26.8724 31.7117 26.8544 31.6571 26.8255C31.6024 26.7965 31.554 26.7571 31.5147 26.7094C31.4753 26.6618 31.4456 26.6068 31.4275 26.5477C31.4093 26.4886 31.403 26.4265 31.4088 26.3649C31.4147 26.3034 31.4326 26.2436 31.4616 26.1889C31.4905 26.1343 31.53 26.0859 31.5776 26.0465C31.6739 25.967 31.7978 25.9289 31.9221 25.9407C34.9478 26.2156 37.8987 27.0367 40.6315 28.3641C40.7271 28.4105 40.8042 28.4879 40.8501 28.5838C40.8959 28.6796 40.9078 28.7883 40.8839 28.8918C40.8599 28.9953 40.8014 29.0876 40.7181 29.1536C40.6348 29.2195 40.5315 29.2552 40.4253 29.2548V29.2688Z" fill="#5C7762"/>
<path d="M15.5582 31.0688C15.4576 31.069 15.3597 31.0369 15.2788 30.9772C15.1979 30.9175 15.1383 30.8333 15.1089 30.7372C15.0795 30.641 15.0817 30.538 15.1154 30.4432C15.149 30.3485 15.2122 30.267 15.2957 30.211C18.4207 28.0775 21.9878 26.6785 25.7301 26.1188C25.8544 26.1001 25.981 26.1316 26.0821 26.2063C26.1832 26.2811 26.2505 26.3929 26.2691 26.5172C26.2878 26.6415 26.2563 26.7682 26.1815 26.8693C26.1068 26.9704 25.995 27.0376 25.8707 27.0563C22.2663 27.5958 18.8306 28.9435 15.8207 30.9985C15.742 31.0473 15.6507 31.0718 15.5582 31.0688Z" fill="#5C7762"/>
<path d="M36.4595 41.7141C36.3352 41.7141 36.216 41.6647 36.1281 41.5768C36.0402 41.4889 35.9908 41.3697 35.9908 41.2453C35.9908 41.1 35.9908 40.95 35.9908 40.8047C35.996 35.7544 34.4244 30.8284 31.4955 26.7141C31.4598 26.6639 31.4343 26.6072 31.4205 26.5472C31.4067 26.4872 31.4049 26.4251 31.4151 26.3643C31.4253 26.3036 31.4474 26.2455 31.4801 26.1933C31.5128 26.1411 31.5555 26.0959 31.6056 26.0602C31.6558 26.0245 31.7125 25.999 31.7725 25.9852C31.8325 25.9714 31.8947 25.9696 31.9554 25.9798C32.0161 25.9901 32.0742 26.0122 32.1264 26.0448C32.1786 26.0775 32.2238 26.1202 32.2595 26.1703C35.3146 30.4503 36.9537 35.5791 36.947 40.8375V41.3063C36.9319 41.4231 36.8733 41.5299 36.783 41.6054C36.6926 41.681 36.5772 41.7198 36.4595 41.7141Z" fill="#5C7762"/>
<path d="M29.8175 40.9688C29.6932 40.9688 29.5739 40.9194 29.486 40.8315C29.3981 40.7436 29.3487 40.6244 29.3487 40.5001C29.3487 34.9641 28.1018 30.6235 25.4206 26.8548C25.349 26.7539 25.3201 26.6288 25.3403 26.5068C25.3605 26.3847 25.4281 26.2756 25.5284 26.2032C25.5785 26.167 25.6353 26.1411 25.6954 26.1269C25.7556 26.1127 25.818 26.1106 25.879 26.1206C25.94 26.1306 25.9984 26.1526 26.0508 26.1853C26.1033 26.218 26.1488 26.2607 26.1847 26.311C28.9972 30.2485 30.2862 34.7485 30.2862 40.5001C30.2862 40.6244 30.2368 40.7436 30.1489 40.8315C30.061 40.9194 29.9418 40.9688 29.8175 40.9688Z" fill="#5C7762"/>
<path d="M40.9501 41.2454H40.8564C40.7961 41.2331 40.7387 41.209 40.6877 41.1745C40.6367 41.1401 40.5929 41.0959 40.559 41.0446C40.525 40.9932 40.5015 40.9356 40.4898 40.8752C40.4781 40.8147 40.4784 40.7526 40.4908 40.6922C41.2707 36.788 41.0954 32.7532 39.9798 28.9313C39.9554 28.8706 39.9439 28.8055 39.9461 28.7401C39.9483 28.6747 39.9642 28.6105 39.9927 28.5517C40.0213 28.4928 40.0618 28.4405 40.1117 28.3982C40.1617 28.356 40.2199 28.3246 40.2827 28.3062C40.3455 28.2878 40.4114 28.2828 40.4763 28.2914C40.5411 28.3 40.6035 28.3221 40.6593 28.3562C40.7151 28.3904 40.7631 28.4358 40.8003 28.4897C40.8375 28.5435 40.863 28.6045 40.8751 28.6688C41.5607 30.9977 41.908 33.413 41.9064 35.8407C41.9057 37.531 41.7393 39.2172 41.4095 40.8751C41.387 40.9801 41.329 41.0742 41.2454 41.1416C41.1618 41.209 41.0575 41.2456 40.9501 41.2454Z" fill="#5C7762"/>
<path d="M44.8174 40.1298C44.7595 40.1303 44.7021 40.1191 44.6486 40.097C44.5335 40.0528 44.4404 39.9651 44.3895 39.8528C44.3386 39.7405 44.334 39.6126 44.3767 39.497C45.1966 37.3378 45.7048 35.0729 45.8861 32.7704C45.8954 32.6461 45.9538 32.5306 46.0483 32.4493C46.1428 32.3679 46.2657 32.3275 46.39 32.3368C46.5143 32.3462 46.6299 32.4045 46.7112 32.499C46.7925 32.5935 46.8329 32.7164 46.8236 32.8407C46.6355 35.2363 46.1067 37.5929 45.2533 39.8392C45.2178 39.9255 45.1574 39.9993 45.0797 40.0511C45.002 40.1029 44.9107 40.1303 44.8174 40.1298Z" fill="#5C7762"/>
</g>
</svg>
